<?xml version="1.0" encoding="UTF-8" standalone="no"?>
<svg
   xmlns:dc="http://purl.org/dc/elements/1.1/"
   xmlns:cc="http://creativecommons.org/ns#"
   xmlns:rdf="http://www.w3.org/1999/02/22-rdf-syntax-ns#"
   xmlns:svg="http://www.w3.org/2000/svg"
   xmlns="http://www.w3.org/2000/svg"
   xmlns:sodipodi="http://sodipodi.sourceforge.net/DTD/sodipodi-0.dtd"
   xmlns:inkscape="http://www.inkscape.org/namespaces/inkscape"
   id="svg2"
   version="1.1"
   viewBox="0 0 95.928574 34"
   sodipodi:docname="3do.svg"
   inkscape:version="0.92.5 (2060ec1f9f, 2020-04-08)"
   width="95.928574"
   height="34">
  <metadata
     id="metadata10">
    <rdf:RDF>
      <cc:Work
         rdf:about="">
        <dc:format>image/svg+xml</dc:format>
        <dc:type
           rdf:resource="http://purl.org/dc/dcmitype/StillImage" />
        <dc:title></dc:title>
      </cc:Work>
    </rdf:RDF>
  </metadata>
  <defs
     id="defs8" />
  <sodipodi:namedview
     pagecolor="#ffffff"
     bordercolor="#666666"
     borderopacity="1"
     objecttolerance="10"
     gridtolerance="10"
     guidetolerance="10"
     inkscape:pageopacity="0"
     inkscape:pageshadow="2"
     inkscape:window-width="1440"
     inkscape:window-height="837"
     id="namedview6"
     showgrid="false"
     inkscape:zoom="2.2291667"
     inkscape:cx="43.367481"
     inkscape:cy="-10.484023"
     inkscape:window-x="0"
     inkscape:window-y="0"
     inkscape:window-maximized="1"
     inkscape:current-layer="svg2"
     inkscape:document-rotation="0"
     fit-margin-top="0"
     fit-margin-left="0"
     fit-margin-right="0"
     fit-margin-bottom="0" />
  <path
     d="m 10.414321,15.929607 v 0.09836 c 4.180786,0.08257 7.268108,0.966572 9.261358,2.652 1.99325,1.685429 2.990178,3.723607 2.990178,6.1115 0,2.667786 -1.132928,4.869893 -3.403036,6.602072 C 16.996964,33.131179 13.977643,34 10.214571,34 6.962107,34 4.448536,33.306643 2.669,31.926 0.889464,30.545964 0,28.974679 0,27.205464 c 0,-1.173 0.398893,-2.124393 1.196071,-2.84325 0.797179,-0.718857 1.75525,-1.07525 2.86875,-1.07525 1.044893,0 1.944679,0.315715 2.688429,0.940465 0.748607,0.631428 1.11775,1.463821 1.11775,2.492928 0,1.375179 -0.865179,2.527536 -2.601,3.458893 -0.34,0.180321 -0.514857,0.387357 -0.514857,0.615036 0,0.423785 0.485714,0.795964 1.463214,1.116535 0.972036,0.320572 1.964107,0.476 2.984714,0.476 3.3405,0 5.013179,-2.611321 5.013179,-7.833357 0,-5.169821 -2.007821,-7.755035 -6.019214,-7.755035 l -3.330179,0.1445 c -0.6715,0 -1.012107,-0.2635 -1.012107,-0.7905 0,-0.605322 0.355179,-0.910715 1.060679,-0.910715 l 2.426142,0.09836 c 2.474108,0 4.132215,-0.584071 4.973108,-1.758285 0.846357,-1.167536 1.264071,-2.832929 1.264071,-4.994357 0,-2.223358 -0.315714,-3.862036 -0.952607,-4.906322 C 11.98925,2.630753 10.895179,2.109217 9.348786,2.109217 c -0.840286,0 -1.633215,0.150572 -2.372107,0.45475 -0.738893,0.301143 -1.112893,0.595 -1.112893,0.890072 0,0.273214 0.242857,0.557964 0.729178,0.853035 C 7.86675,5.170432 8.5085,6.105432 8.5085,7.114503 c 0,0.992071 -0.355179,1.778321 -1.069786,2.367857 -0.714607,0.584679 -1.51725,0.879143 -2.412178,0.879143 -1.030322,0 -1.948929,-0.336357 -2.756429,-1.003607 -0.806893,-0.672107 -1.2155,-1.499036 -1.2155,-2.496572 0,-1.696357 0.899786,-3.164428 2.69875,-4.399964 1.798357,-1.241607 4.103072,-1.8615 6.92325,-1.8615 3.116464,0 5.74175,0.703072 7.881322,2.10375 2.143821,1.401286 3.213,3.195393 3.213,5.39325 0,4.32225 -3.787358,6.932964 -11.356608,7.83275"
     style="fill:#aa0000;fill-opacity:1;fill-rule:nonzero;stroke:none;stroke-width:0.60714287"
     id="path18"
     inkscape:connector-curvature="0" />
  <path
     d="M 30.366857,31.786357 V 2.057607 H 25.981464 V 0.4505 h 17.570715 c 5.080571,0 9.105931,1.529393 12.066961,4.595464 2.96104,3.060607 4.44368,6.928107 4.44368,11.597036 0,2.419464 -0.45232,4.699286 -1.35575,6.824286 -0.90525,2.131071 -2.295,4.069678 -4.17228,5.812178 -1.87668,1.741893 -3.80193,2.863893 -5.77575,3.365393 -1.973826,0.5015 -4.395111,0.750429 -7.272969,0.750429 H 25.981464 v -1.608929 z m 8.455072,-29.72875 v 29.72875 h 2.736392 c 4.18625,0 6.714389,-1.168143 7.584429,-3.499571 0.87064,-2.3375 1.30354,-6.328857 1.30354,-11.979536 0,-4.420607 -0.26775,-7.600821 -0.80204,-9.5285 C 49.11421,4.845 48.30246,3.572429 47.2175,2.968321 46.13375,2.362393 44.753107,2.057607 43.085286,2.057607 h -4.263357"
     style="fill:#aa0000;fill-opacity:1;fill-rule:nonzero;stroke:none;stroke-width:0.60714287"
     id="path20"
     inkscape:connector-curvature="0" />
  <path
     d="m 64.96854,16.798429 c 0,-4.927572 1.52635,-8.959608 4.58939,-12.098536 C 72.61611,1.567036 76.28689,0 80.56482,0 c 3.97254,0 7.52675,1.473536 10.66204,4.42 3.1365,2.947679 4.70171,7.140607 4.70171,12.574536 0,5.092714 -1.47778,9.176964 -4.44368,12.2485 -2.96528,3.070928 -6.5875,4.607 -10.86603,4.607 -4.6234,0 -8.39132,-1.634429 -11.29347,-4.89175 -2.90335,-3.257322 -4.35685,-7.310607 -4.35685,-12.159857 z m 21.3435,0.139035 C 86.31204,11.8915 86.21434,8.566786 86.02,6.964536 85.82086,5.356214 85.31511,4.063607 84.4985,3.080643 83.68129,2.098893 82.33464,1.607714 80.46343,1.607714 c -1.58039,0 -2.83961,0.397679 -3.77825,1.189393 -0.93743,0.795964 -1.52089,2.067929 -1.75525,3.82075 -0.22829,1.752822 -0.34486,5.174679 -0.34486,10.268 0,5.041107 0.0965,8.381 0.29689,10.009964 0.19429,1.628358 0.71947,2.926429 1.57008,3.893608 0.85121,0.965964 2.18814,1.446821 4.01139,1.446821 1.51178,0 2.74671,-0.387357 3.69932,-1.162679 0.95321,-0.781392 1.55125,-2.043035 1.78986,-3.79525 0.24285,-1.752821 0.35943,-5.201392 0.35943,-10.340857"
     style="fill:#aa0000;fill-opacity:1;fill-rule:nonzero;stroke:none;stroke-width:0.60714287"
     id="path22"
     inkscape:connector-curvature="0" />
</svg>
