<?xml version="1.0" encoding="UTF-8" standalone="no"?>
<svg
   xmlns:dc="http://purl.org/dc/elements/1.1/"
   xmlns:cc="http://creativecommons.org/ns#"
   xmlns:rdf="http://www.w3.org/1999/02/22-rdf-syntax-ns#"
   xmlns:svg="http://www.w3.org/2000/svg"
   xmlns="http://www.w3.org/2000/svg"
   xmlns:sodipodi="http://sodipodi.sourceforge.net/DTD/sodipodi-0.dtd"
   xmlns:inkscape="http://www.inkscape.org/namespaces/inkscape"
   version="1.1"
   id="svg15"
   sodipodi:docname="amiga.svg"
   inkscape:version="0.92.5 (2060ec1f9f, 2020-04-08)"
   width="264"
   height="60.999969">
  <metadata
     id="metadata21">
    <rdf:RDF>
      <cc:Work
         rdf:about="">
        <dc:format>image/svg+xml</dc:format>
        <dc:type
           rdf:resource="http://purl.org/dc/dcmitype/StillImage" />
        <dc:title />
      </cc:Work>
    </rdf:RDF>
  </metadata>
  <defs
     id="defs19" />
  <sodipodi:namedview
     pagecolor="#ffffff"
     bordercolor="#666666"
     borderopacity="1"
     objecttolerance="10"
     gridtolerance="10"
     guidetolerance="10"
     inkscape:pageopacity="0"
     inkscape:pageshadow="2"
     inkscape:window-width="1440"
     inkscape:window-height="837"
     id="namedview17"
     showgrid="false"
     inkscape:zoom="1.9616667"
     inkscape:cx="75.680881"
     inkscape:cy="59.159163"
     inkscape:window-x="0"
     inkscape:window-y="0"
     inkscape:window-maximized="1"
     inkscape:current-layer="svg15"
     fit-margin-top="0"
     fit-margin-left="0"
     fit-margin-right="0"
     fit-margin-bottom="0" />
  <path
     id="SVGID_1_"
     d="m 120.85876,29.42217 1.68828,2.521463 c -0.13068,-0.196046 -0.34716,-0.321637 -0.56364,-0.321637 -0.22924,0 -0.45716,0.14047 -0.58432,0.488801 l -1.68828,-2.521463 c 0.1276,-0.347893 0.35552,-0.489239 0.58432,-0.489239 0.2156,0 0.43076,0.126467 0.56452,0.322075 z"
     style="fill:#aa0000;stroke:none;stroke-width:1;stroke-miterlimit:4;stroke-dasharray:none"
     inkscape:connector-curvature="0" />
  <path
     id="SVGID_3_"
     d="m 148.98928,28.578036 1.68872,2.521463 c -0.0823,-0.122529 -0.2024,-0.185981 -0.32912,-0.185981 -0.16852,0 -0.34628,0.112464 -0.46068,0.343518 l -1.6874,-2.521463 c 0.1144,-0.229741 0.29304,-0.342642 0.46156,-0.342642 0.12892,-4.38e-4 0.24904,0.06301 0.33,0.185105 z"
     style="fill:#aa0000;stroke:none;stroke-width:1;stroke-miterlimit:4;stroke-dasharray:none"
     inkscape:connector-curvature="0" />
  <path
     id="path33"
     d="m 150.44304,19.580501 14.25996,0.08971 c 0.27192,0 2.22904,0.315511 -0.21648,0.950909 -1.9536,0.506306 -3.55388,0.315073 -4.19276,2.845288 l -7.6956,30.724474 c -0.63932,2.744202 1.50788,5.110754 4.28428,5.852489 0.62788,0.152286 0.66616,0.815691 -0.0757,0.85595 l -9.36936,-0.343955 -11.38456,0.382464 c -0.82676,0 -0.85888,-0.853762 0.0405,-1.010861 2.66156,-0.269563 5.01336,-2.451009 5.52464,-4.240801 l 7.48396,-26.681031 c 8.8e-4,-0.403032 -0.20812,-0.612643 -0.43736,-0.612643 -0.1672,0 -0.34628,0.112464 -0.46156,0.341767 l -21.07072,30.412026 c -0.58388,0.935593 -1.50216,1.556113 -2.31484,1.556113 -0.8778,0 -1.63196,-0.723794 -1.7116,-2.557346 l -2.1208,-28.351796 c -0.0229,-0.392967 -0.35552,-0.691849 -0.68816,-0.691849 -0.22836,0 -0.45672,0.141346 -0.58388,0.489239 l -7.22744,22.492743 c -0.5918,1.708836 -0.63404,3.380038 0.0704,4.589132 0.70004,1.241915 2.5014,2.760831 4.61164,3.188368 0.82016,0.195608 0.7788,1.010861 -0.002,1.050683 l -7.57064,-0.314636 -6.35932,0.236743 c -0.74668,-0.03982 -0.66616,-0.775869 0.002,-0.895772 2.18988,-0.466046 4.70052,-2.6825 5.8388,-5.836298 l 9.36276,-29.92585 c 0.39292,-1.130763 -0.22748,-2.491706 -1.36444,-2.761706 l -2.89652,-0.585074 c -0.50864,-0.03895 -0.58124,-0.776306 8.8e-4,-0.776306 l 16.61792,-0.134344 1.66584,26.052198 1.21836,-1.474281 15.85804,-23.395954 c 0.18172,-0.322075 0.65516,-1.058997 0.89452,-1.52548 z"
     style="fill:#aa0000;stroke:none;stroke-width:1;stroke-miterlimit:4;stroke-dasharray:none"
     inkscape:connector-curvature="0" />
  <path
     id="path43"
     d="m 171.94716,19.473289 19.14308,0.157537 c 0.90024,0 1.3222,1.585432 -0.47872,1.743406 -1.92368,0.168039 -3.93536,1.529419 -4.40836,3.159487 l -8.96852,30.831686 c -0.43252,1.636194 0.76208,4.369456 3.85132,4.60051 0.50864,0.117277 0.50776,0.893146 0.0378,0.893146 l -11.30448,-0.431038 -10.85876,0.325575 c -0.58916,0 -0.42812,-0.774993 0.0739,-0.853761 1.48808,-0.269563 5.8146,-1.939452 6.64048,-4.583443 l 9.999,-30.78005 c 0.62612,-2.215579 -1.4432,-3.306521 -3.79016,-3.851773 -0.50204,-0.0757 -0.39688,-1.166647 0.0673,-1.206031 z"
     style="fill:#aa0000;stroke:none;stroke-width:1;stroke-miterlimit:4;stroke-dasharray:none"
     inkscape:connector-curvature="0" />
  <path
     id="path53"
     d="m 222.04116,17.555717 c 1.96372,0 3.89092,0.161475 5.74288,0.50543 1.177,0.235868 2.61888,0.770617 2.26688,1.782353 l -2.82568,7.163983 c -0.22352,0.72992 -0.59532,1.17146 -0.97152,1.17146 -0.5236,0 -1.056,-0.852449 -1.221,-2.97088 -0.0928,-1.159207 0.0946,-5.331305 -1.5048,-5.421013 -0.40656,-0.02188 -0.81092,-0.03151 -1.2166,-0.03151 -2.5652,0 -5.11324,0.420973 -7.38144,1.139516 -8.6438,2.744202 -14.12488,7.433983 -17.73904,15.441224 -3.5332,7.703983 -1.7886,16.031112 0.70708,18.871149 1.70148,1.934201 5.67644,3.270637 8.7318,3.270637 1.79388,0 3.27052,-0.46167 3.78136,-1.534233 1.65396,-3.952421 2.45564,-8.799301 2.30076,-11.014879 0.007,-2.686877 -1.05292,-2.896051 -3.0668,-3.266699 -1.41152,-0.148785 -1.8634,-1.059435 0.77264,-1.059435 0.14036,0 0.28908,0.0026 0.44836,0.0088 0.84656,-0.0053 1.67024,-0.0079 2.4816,-0.0079 1.8568,0 3.6366,0.01007 5.4054,0.01838 1.66188,0.0088 3.31276,0.01663 5.01028,0.01663 1.5532,0 3.146,-0.0079 4.81844,-0.02844 0.4686,0.229741 0.42856,0.426662 -0.0418,0.658591 -2.8578,0.426662 -3.99564,0.971914 -4.26976,2.02391 -1.1044,3.734933 -2.0966,7.820823 -3.88564,11.651153 -0.63624,1.371882 -3.63792,2.676811 -4.6156,2.952063 -3.03996,1.076501 -8.09248,1.932888 -12.9052,1.932888 -3.86144,0 -7.56844,-0.551816 -9.95632,-1.990214 -8.95224,-5.442018 -10.56264,-15.761549 -6.90756,-22.565822 5.4208,-10.121297 21.7536,-18.715363 36.04348,-18.715363 z"
     style="fill:#aa0000;stroke:none;stroke-width:1;stroke-miterlimit:4;stroke-dasharray:none"
     inkscape:connector-curvature="0" />
  <polygon
     id="polygon104"
     points="172.072,0.001 197.809,0.001 106.068,137.497 81.524,137.497 "
     style="fill:#aa0000;stroke:#ffffff;stroke-width:0;stroke-miterlimit:4;stroke-dasharray:none"
     transform="scale(0.44,0.437602)" />
  <path
     style="fill:#aa0000;stroke:none;stroke-width:1.00000179;stroke-miterlimit:4;stroke-dasharray:none"
     d="M 0 28.259766 L 21.195312 59.574219 L 26.734375 50.984375 L 11.427734 28.259766 L 0 28.259766 z M 27.652344 52.345703 L 22.607422 60.169922 L 32.921875 60.169922 L 27.652344 52.345703 z "
     id="polygon123" />
  <polygon
     id="polygon148"
     points="141.096,0 166.832,0 75.091,137.497 50.547,137.497 "
     style="fill:#aa0000;stroke:#ffffff;stroke-width:0;stroke-miterlimit:4;stroke-dasharray:none"
     transform="scale(0.44,0.437602)" />
  <path
     id="path152"
     d="m 73.82232,46.181889 -5.5704,7.855394 c -1.65132,2.569599 1.47268,5.252974 4.91744,5.878308 0.31592,0.243306 0.2618,1.028802 -0.19844,1.028802 -0.05016,0 -0.10472,-0.0096 -0.165,-0.02932 -0.06908,-0.03019 -1.3684,-0.568883 -4.32212,-0.843259 -0.79024,-0.07439 -2.21188,-0.315074 -3.9446,-0.315074 -0.59664,0 -1.2298,0.02888 -1.88804,0.101086 l -6.23084,0.872579 c -0.5896,-0.03895 -0.58784,-0.73736 8.8e-4,-0.894897 3.01092,-0.387277 6.61892,-2.608545 8.73532,-5.60043 L 90.50184,19.072883 c 0.41844,-0.603891 1.3134,-0.954847 2.18416,-0.954847 1.08988,0 2.14016,0.551378 2.1604,1.849306 l 0.83512,35.201142 c 0.27104,2.952501 2.25984,4.200542 4.76564,4.897642 0.35024,0.23543 0.19712,0.702789 -0.0409,0.78287 -0.1628,-0.0035 -3.2538,-0.05033 -6.94716,-0.596889 -0.8646,-0.126905 -1.54044,-0.199985 -2.36632,-0.199985 -0.71412,0 -1.54088,0.05514 -2.69852,0.177229 -1.44892,0.152286 -0.76428,0.174166 -6.63124,0.433226 -0.22308,0.0105 -0.44,-0.04726 -0.48664,-0.422723 0.05192,-0.432789 0.70796,-0.641525 0.9174,-0.6971 2.34432,-0.645901 3.50064,-1.815611 4.015,-4.684967 0.55484,-3.154673 0.40656,-5.836736 0.33176,-8.598004 M 82.9475,44.129536 c 1.29008,0 2.50448,0.007 3.40912,0.02669 l -0.3353,-14.653537 c -0.06336,-0.189919 -0.1496,-0.287504 -0.24816,-0.287504 -0.08052,0 -0.17072,0.06914 -0.26092,0.208736 -3.1372,4.431158 -7.45844,9.863111 -10.55604,14.260574 -0.19844,0.347456 -8.8e-4,0.466046 0.4686,0.466046 0.07524,0.007 0.32912,0.0088 0.71676,0.0088 0.6666,0 1.72568,-0.007 2.93876,-0.01225 1.21484,-0.0088 2.58324,-0.0175 3.8698,-0.0175"
     style="fill:#aa0000;stroke:none;stroke-width:1;stroke-miterlimit:4;stroke-dasharray:none"
     inkscape:connector-curvature="0" />
  <path
     id="path156"
     d="m 263.79628,60.126077 c 0.35024,0.229304 0.19008,0.696663 -0.0414,0.776744 -0.16236,-0.0031 -3.25336,-0.05076 -6.94716,-0.589888 -0.87692,-0.128655 -1.55672,-0.203922 -2.39272,-0.203922 -0.70752,0 -1.52592,0.05382 -2.67124,0.174165 -1.45508,0.151411 -0.76472,0.173728 -6.63872,0.433226 -0.21912,0.0096 -0.43252,-0.04682 -0.4796,-0.422286 0.0515,-0.43235 0.7084,-0.636273 0.91168,-0.697975 2.34828,-0.641087 3.50504,-1.815173 4.02072,-4.684092 0.55396,-3.148546 0.40084,-5.831484 0.32736,-8.597129 l -12.71952,-0.07264 -5.57128,7.855831 c -1.64516,2.56566 1.47796,5.245535 4.92228,5.87043 0.31636,0.248121 0.25784,1.031428 -0.20196,1.031428 -0.0515,0 -0.10692,-0.0096 -0.16852,-0.02976 -0.0695,-0.02844 -1.36752,-0.563193 -4.31552,-0.843696 -0.78936,-0.07395 -2.21276,-0.314636 -3.94504,-0.314636 -0.59708,0 -1.22936,0.02801 -1.88716,0.101086 l -6.23568,0.872578 c -0.58432,-0.03982 -0.58344,-0.737797 0.002,-0.894896 3.0162,-0.387277 6.61804,-2.603294 8.74016,-5.60043 l 25.3462,-35.154757 c 0.418,-0.606516 1.31208,-0.957911 2.1824,-0.957911 1.09164,0 2.1428,0.553567 2.1626,1.851495 l 0.83424,35.195453 c 0.27236,2.959503 2.26776,4.205793 4.77444,4.905519 z M 246.2768,44.188612 c 1.29448,0 2.5146,0.007 3.42144,0.02669 L 249.36912,29.55476 c -0.0656,-0.190357 -0.15224,-0.287942 -0.24948,-0.287942 -0.0818,0 -0.16984,0.0687 -0.25784,0.209611 -3.14248,4.436847 -7.45932,9.867925 -10.5622,14.259261 -0.19316,0.348769 -8.8e-4,0.466484 0.4686,0.466484 0.0915,0.0088 0.45188,0.0105 0.99396,0.0105 0.65868,0 1.5884,-0.0057 2.63868,-0.0105 1.21044,-0.0066 2.5784,-0.01357 3.87508,-0.01357"
     style="fill:#aa0000;stroke:none;stroke-width:1;stroke-miterlimit:4;stroke-dasharray:none"
     inkscape:connector-curvature="0" />
  <path
     id="polygon79-6"
     style="fill:#aa0000;stroke:none;stroke-width:1.00000179;stroke-miterlimit:4;stroke-dasharray:none"
     d="M 13.42856,28.259024 27.711764,49.362539 33.282076,40.766836 24.856295,28.259024 Z"
     inkscape:connector-curvature="0" />
</svg>
