<?xml version="1.0" encoding="UTF-8" standalone="no"?>
<svg
   xmlns:dc="http://purl.org/dc/elements/1.1/"
   xmlns:cc="http://creativecommons.org/ns#"
   xmlns:rdf="http://www.w3.org/1999/02/22-rdf-syntax-ns#"
   xmlns:svg="http://www.w3.org/2000/svg"
   xmlns="http://www.w3.org/2000/svg"
   xmlns:sodipodi="http://sodipodi.sourceforge.net/DTD/sodipodi-0.dtd"
   xmlns:inkscape="http://www.inkscape.org/namespaces/inkscape"
   version="1.1"
   id="svg6"
   sodipodi:docname="amstradcpc.svg"
   inkscape:version="0.92.5 (2060ec1f9f, 2020-04-08)"
   width="208.74332"
   height="33.999996">
  <metadata
     id="metadata12">
    <rdf:RDF>
      <cc:Work
         rdf:about="">
        <dc:format>image/svg+xml</dc:format>
        <dc:type
           rdf:resource="http://purl.org/dc/dcmitype/StillImage" />
        <dc:title></dc:title>
      </cc:Work>
    </rdf:RDF>
  </metadata>
  <defs
     id="defs10" />
  <sodipodi:namedview
     pagecolor="#ffffff"
     bordercolor="#666666"
     borderopacity="1"
     objecttolerance="10"
     gridtolerance="10"
     guidetolerance="10"
     inkscape:pageopacity="0"
     inkscape:pageshadow="2"
     inkscape:window-width="1440"
     inkscape:window-height="837"
     id="namedview8"
     showgrid="false"
     inkscape:zoom="1.3871078"
     inkscape:cx="-49.92115"
     inkscape:cy="4.4072145"
     inkscape:window-x="0"
     inkscape:window-y="0"
     inkscape:window-maximized="1"
     inkscape:current-layer="svg6"
     fit-margin-top="0"
     fit-margin-left="0"
     fit-margin-right="0"
     fit-margin-bottom="0" />
  <path
     id="path7"
     d="m 6.7825747,33.986558 0.5052536,-6.6869 h 2.7634757 l 0.556649,6.6869 H 17.4269 L 13.152407,0.16540542 H 4.3401204 L 0,33.986558 H 6.7825747 M 9.6512132,21.719729 H 7.6863381 L 8.6834035,8.577601 9.6512132,21.719729 M 28.55592,0.16540542 H 19.054148 V 33.986558 h 6.499507 v -19.26131 l 2.687569,19.26131 H 32.46274 L 35.045147,14.83041 v 19.156148 h 6.498716 V 0.16540542 H 32.028649 L 30.262238,15.104781 28.55592,0.16540542 M 42.725951,4.281759 c -0.004,2.330176 -0.03084,4.659561 -0.01186,6.992109 0.01186,0.381114 0.03479,0.761438 0.05693,1.035019 0.04981,0.577206 0.09488,0.753531 0.191348,1.12832 0.09805,0.370836 0.264883,0.833392 0.526603,1.242971 0.123348,0.195302 0.261719,0.381115 0.4673,0.606463 0.206371,0.224557 0.479161,0.488649 0.766973,0.735345 0.593812,0.514742 1.239809,0.91088 1.888969,1.254832 1.417714,0.784369 2.826731,1.56004 4.254725,2.356269 0.191348,0.120976 0.393766,0.222975 0.596183,0.419858 0.490231,0.472045 0.488649,1.020787 0.481533,1.545017 l 0.02688,0.730601 0.01107,4.580492 c 0.004,0.333673 -0.02846,0.664183 -0.188976,1.019204 -0.05456,0.102791 -0.130465,0.198465 -0.220604,0.276743 -0.288603,0.240371 -0.651532,0.302836 -1.009717,0.159721 -0.110697,-0.04586 -0.212696,-0.11307 -0.298091,-0.196093 -0.362138,-0.347905 -0.320231,-0.84288 -0.372417,-1.267482 l -0.0071,-6.892482 h -7.185038 l 0.0071,7.716385 c 0.0063,0.948042 0.01186,1.84548 0.217441,2.773755 0.109906,0.47837 0.28544,0.975717 0.551904,1.420087 0.266464,0.445951 0.623067,0.838926 1.040554,1.146506 0.417486,0.305999 0.895856,0.527393 1.274599,0.657858 0.377952,0.130465 0.656276,0.173162 0.9346,0.206371 0.278325,0.034 0.556649,0.07037 0.835764,0.07037 l 7.299689,-7.91e-4 c 0.331301,0 0.662601,0.01502 1.069809,-0.09725 0.407998,-0.113069 0.891903,-0.311534 1.31018,-0.577207 0.418277,-0.266464 0.770927,-0.599346 1.014461,-0.95674 0.242743,-0.357394 0.377161,-0.739299 0.491812,-1.081669 0.115441,-0.343952 0.211115,-0.651532 0.281487,-1.060321 0.07037,-0.408789 0.115441,-0.919578 0.140743,-1.431157 0.02451,-0.511579 0.01265,-1.023158 0.01265,-1.536319 v -5.420999 c 0,-0.101209 0,-0.203208 -0.0032,-0.43251 -0.0024,-0.230092 -0.0071,-0.585113 -0.02214,-0.99153 -0.0166,-0.407998 -0.04349,-0.86502 -0.06879,-1.160739 -0.02451,-0.29651 -0.04665,-0.429347 -0.07433,-0.562184 -0.02688,-0.132836 -0.06009,-0.263301 -0.09726,-0.393765 -0.03716,-0.130465 -0.07828,-0.260139 -0.18265,-0.484696 -0.103581,-0.223766 -0.269627,-0.543207 -0.470463,-0.839717 -0.200046,-0.29651 -0.434091,-0.570091 -0.695811,-0.814415 -0.26172,-0.244325 -0.550323,-0.457812 -0.872136,-0.678416 C 56.030911,15.027296 55.28924,14.56474 54.572871,14.16623 l -3.049708,-1.665992 c -0.184232,-0.101209 -0.365301,-0.206372 -0.540044,-0.321022 -0.174743,-0.115442 -0.343952,-0.23879 -0.445951,-0.316278 -0.182651,-0.139953 -0.183441,-0.158139 -0.260139,-0.240371 -0.03005,-0.034 -0.0593,-0.06958 -0.109906,-0.152604 -0.114651,-0.18265 -0.253813,-0.505254 -0.279115,-0.778043 -0.01819,-0.146278 -0.0024,-0.293348 -0.0024,-0.441998 0.0016,-1.064274 -0.0055,-2.162549 0.0047,-3.193614 -0.0063,-0.238789 -7.91e-4,-0.51316 0.08856,-0.769345 0.04112,-0.125721 0.09409,-0.247488 0.161302,-0.349487 0.346324,-0.463347 0.759857,-0.532137 1.216878,-0.339208 0.103581,0.05377 0.199255,0.132046 0.280697,0.222976 0.08065,0.09172 0.147069,0.194511 0.194511,0.305999 0.04744,0.111487 0.07591,0.230882 0.09488,0.395347 0.03795,0.339998 0.04191,0.807298 0.03874,1.218459 v 4.022262 h 7.216666 c -0.0079,-2.077154 0.0253,-4.151936 -0.02372,-6.230671 -0.01977,-0.480742 -0.05456,-0.962274 -0.08381,-1.278552 -0.02925,-0.317068 -0.05377,-0.469672 -0.08381,-0.621486 -0.03163,-0.151022 -0.068,-0.301254 -0.110697,-0.450695 -0.0427,-0.14786 -0.09014,-0.29572 -0.204,-0.548742 C 58.564346,2.38014 58.385649,2.021955 58.152394,1.702515 57.919139,1.383074 57.630536,1.103169 57.30477,0.87623952 56.979795,0.64931022 56.618447,0.47614822 56.308495,0.36466032 55.698079,0.15433572 55.233151,0.11875442 54.703386,0.05075472 54.443248,0.02387112 54.182319,-0.00222178 53.92139,1.5032265e-4 L 47.674906,0.04996432 c -0.716369,0.023721 -1.426413,0.1122785 -2.173619,0.3226032 -0.226929,0.069581 -0.441207,0.1573481 -0.644415,0.2648825 C 44.448083,0.86121652 44.108084,1.105541 43.754644,1.540423 43.577528,1.761026 43.389343,2.043304 43.235158,2.342186 42.918089,2.954974 42.730695,3.62232 42.715672,4.281759 M 60.367129,0.16540542 V 5.621195 h 3.59924 v 28.365363 h 7.215875 V 5.621195 H 74.7546 V 0.16540542 H 60.364757 m 24.007056,0 H 76.688638 V 33.986558 h 7.205596 V 20.505222 c 0.472044,0.01819 0.943298,-0.03953 1.422459,0.108326 0.100418,0.03558 0.195301,0.09093 0.276743,0.161301 0.332882,0.285441 0.30758,0.650741 0.358184,0.996275 0.06246,0.693439 0.01344,1.390831 0.03084,2.085851 v 10.129583 h 7.204806 l -0.0063,-10.573162 c -0.01186,-1.042135 -0.08223,-2.074782 -0.309161,-3.117708 -0.06326,-0.234836 -0.14786,-0.470463 -0.253022,-0.702136 -0.159721,-0.370045 -0.374789,-0.716369 -0.638091,-1.023158 -0.26251,-0.305208 -0.571672,-0.570881 -0.913251,-0.783578 -0.342371,-0.212697 -0.71716,-0.372417 -1.106972,-0.473626 0.188185,-0.04665 0.373998,-0.105953 0.55902,-0.177906 0.370836,-0.140744 0.718742,-0.343161 1.026322,-0.593812 0.306789,-0.252231 0.572462,-0.553485 0.782787,-0.891112 0.209534,-0.336836 0.3653,-0.708462 0.459393,-1.094321 0.0767,-0.275952 0.141534,-0.554276 0.19372,-0.834182 0.168418,-1.13939 0.229301,-2.281943 0.206371,-3.426869 V 6.753469 C 93.210222,6.054496 93.177802,5.351569 93.087664,4.651804 93.044964,4.303108 92.987246,3.955993 92.925572,3.66739 92.863902,3.380368 92.79827,3.151067 92.712875,2.929672 92.626685,2.706696 92.522318,2.492418 92.401342,2.287629 92.278784,2.08442 92.139622,1.889909 91.985437,1.709631 91.743455,1.451074 91.471456,1.222564 91.174946,1.028843 90.559786,0.62954292 89.870301,0.40656712 89.189513,0.34805582 87.587566,0.16145192 85.978504,0.21363772 84.373395,0.16540542 M 83.894234,5.664683 c 0.340789,0.0032 0.678416,0.0063 1.019205,0.0087 0.162883,0.01423 0.329719,0.05535 0.491021,0.128093 0.468881,0.309952 0.492602,0.702136 0.5353,1.081669 0.03084,0.425394 0.02846,0.85395 0.04349,1.281715 -0.0063,1.480971 0.01898,2.961941 -0.0174,4.443702 -0.004,0.264091 -0.02609,0.528183 -0.06484,0.791485 -0.01265,0.123348 -0.04902,0.244324 -0.106744,0.354231 -0.05693,0.109906 -0.13679,0.207161 -0.231673,0.287021 -0.217441,0.196883 -0.507626,0.207162 -0.769346,0.237999 -0.298882,0.02847 -0.599346,0.03163 -0.899019,0.01028 V 5.664686 m 17.566852,28.321875 0.50525,-6.6869 h 2.76348 l 0.55585,6.6869 h 6.81974 L 107.82776,0.16540542 h -8.8115 L 94.67693,33.986558 h 6.78258 m 2.86784,-12.266829 h -1.96487 l 0.99627,-13.142128 0.96781,13.142128 M 129.2611,2.252838 c -0.24669,-0.397719 -0.56613,-0.751159 -0.93697,-1.033437 -0.37242,-0.28385948 -0.79465,-0.49576548 -1.10934,-0.62306728 -0.31549,-0.126511 -0.52107,-0.1660457 -0.72744,-0.2024177 -0.20637,-0.036372 -0.41195,-0.06879 -0.61912,-0.092511 -0.20716,-0.023721 -0.41511,-0.038744 -0.9085,-0.060884 -0.4934,-0.02293 -1.27144,-0.071162 -2.05106,-0.071953 l -9.34443,-0.00316 V 33.986558 l 11.45242,-0.01898 c 0.28465,-7.91e-4 0.56376,-0.08223 0.84367,-0.132046 0.59065,-0.105953 1.11092,-0.218232 1.6652,-0.470463 0.29177,-0.131256 0.60646,-0.305999 0.8919,-0.522649 0.28465,-0.215069 0.54163,-0.472045 0.78358,-0.868182 0.24274,-0.396929 0.47046,-0.932229 0.63809,-1.586133 0.16684,-0.654695 0.29493,-1.428784 0.29335,-2.202874 l -0.0506,-23.083526 c -0.002,-0.528184 -0.13362,-1.04846 -0.26725,-1.529993 -0.12888,-0.481533 -0.30205,-0.921949 -0.54874,-1.318878 m -8.0382,3.441892 c 0.1534,0 0.30758,-0.01265 0.45623,0.0055 0.14944,0.01898 0.29177,0.05298 0.40958,0.09014 0.11781,0.03716 0.20953,0.0767 0.29256,0.132836 0.0822,0.05535 0.15497,0.125721 0.21269,0.207162 0.24986,0.374789 0.21903,0.908508 0.24117,1.382134 v 19.47796 c 0,0.143116 -7.9e-4,0.287022 -0.0213,0.426975 -0.0213,0.139162 -0.0546,0.275162 -0.0996,0.393766 -0.0451,0.117022 -0.10042,0.217441 -0.17395,0.302836 -0.0727,0.08619 -0.16368,0.156557 -0.2633,0.212696 -0.0996,0.05693 -0.204,0.12493 -0.31865,0.12493 h -1.17972 V 5.69473 h 0.44121"
     style="fill:#aa0000;stroke:none;stroke-width:0.79069418"
     inkscape:connector-curvature="0" />
  <path
     id="path11"
     d="m 158.23451,30.497225 h -7.87848 c -0.94329,-0.02926 -1.67311,-0.06879 -2.16887,-0.114651 -0.40879,-0.03954 -0.71242,-0.177115 -0.94488,-0.434882 -0.21586,-0.218231 -0.34474,-0.568509 -0.38507,-1.040553 -0.0466,-0.555068 -0.0846,-1.40032 -0.11465,-2.502547 V 7.419234 c 0,-0.92195 0.03,-1.657295 0.0901,-2.18627 0.0522,-0.461765 0.2127,-0.80888 0.50288,-1.074553 0.25381,-0.255394 0.54163,-0.397719 0.88083,-0.435672 0.40405,-0.04507 1.13544,-0.06879 2.17441,-0.06879 h 7.84369 v 5.485836 h 3.66882 V 0.16540542 h -12.43366 c -0.91247,0 -1.83283,0.05693 -2.73502,0.1676272 -0.96069,0.1186041 -1.82334,0.519486 -2.5745,1.20501738 -0.77409,0.774881 -1.22557,1.714225 -1.34339,2.794314 -0.1099,1.003391 -0.16525,2.230548 -0.16525,3.649053 v 18.986149 c 0,1.265111 0.0561,2.337292 0.16684,3.188079 0.1186,0.921159 0.52344,1.733992 1.20185,2.412408 0.67763,0.679206 1.51023,1.092739 2.47487,1.227157 0.9006,0.128093 2.05897,0.192139 3.44348,0.192139 h 12.01301 v -8.97517 h -3.71705 z"
     style="fill:#aa0000;stroke:none;stroke-width:0.79069418"
     inkscape:connector-curvature="0" />
  <path
     id="path13"
     d="m 186.37611,6.012589 c 0,-0.66102 -0.0237,-1.301483 -0.0712,-1.903992 -0.0498,-0.633346 -0.19609,-1.205018 -0.4333,-1.699202 -0.24274,-0.503672 -0.60962,-0.942507 -1.09036,-1.303854 -0.47837,-0.35818468 -1.14177,-0.62464858 -1.99176,-0.79543858 -0.22535,-0.031628 -0.43488,-0.055349 -0.62939,-0.072744 -0.19056,-0.015023 -0.43489,-0.031628 -0.73535,-0.048232 -0.30837,-0.015023 -0.70688,-0.02293 -1.1892,-0.02293 h -15.2177 V 3.654739 h 3.18175 v 26.843276 h -3.18175 v 3.488543 h 10.502 v -3.488543 h -3.2292 V 18.609928 h 7.61359 c 0.66261,0 1.31177,-0.01581 1.9293,-0.04823 0.64916,-0.03163 1.25088,-0.131255 1.79013,-0.29572 0.56535,-0.172371 1.06902,-0.468881 1.49758,-0.883205 0.42934,-0.413533 0.76697,-0.982833 1.00497,-1.700783 0.13204,-0.431719 0.21507,-0.917205 0.24907,-1.443808 0.0308,-0.509207 0.0308,-1.183669 7.9e-4,-1.990968 z m -3.9511,1.327575 v 4.234958 c 0,0.803346 -0.0229,1.465157 -0.0688,1.968038 -0.0395,0.445952 -0.15577,0.793066 -0.34395,1.032647 -0.17791,0.22851 -0.48391,0.389812 -0.91009,0.480742 -0.4847,0.104371 -1.20423,0.157348 -2.13646,0.157348 h -6.67504 V 3.654739 h 6.48844 c 0.91325,0 1.63436,0.03005 2.14673,0.09251 0.44674,0.05298 0.77725,0.178697 0.98204,0.372417 0.20163,0.192929 0.33763,0.525812 0.40326,0.989158 0.0735,0.530556 0.1107,1.281716 0.1107,2.231339 z"
     style="fill:#aa0000;stroke:none;stroke-width:0.79069418"
     inkscape:connector-curvature="0" />
  <path
     id="path15"
     d="m 205.02542,25.012179 v 5.485836 h -7.87927 c -0.94171,-0.03005 -1.67153,-0.06879 -2.16808,-0.115441 -0.40721,-0.03874 -0.71242,-0.176325 -0.9433,-0.434091 -0.21665,-0.218232 -0.34632,-0.568509 -0.38586,-1.041344 -0.0459,-0.553486 -0.0854,-1.397948 -0.11465,-2.502547 V 7.419234 c 0,-0.92195 0.0293,-1.657295 0.0894,-2.18627 0.0538,-0.461765 0.21349,-0.80967 0.50446,-1.074553 0.25302,-0.255394 0.54163,-0.397719 0.87925,-0.435672 0.40405,-0.04507 1.13623,-0.06879 2.17441,-0.06879 h 7.84369 v 5.485836 h 3.67119 V 0.16540542 h -12.43445 c -0.91326,0 -1.83283,0.05693 -2.73422,0.1676272 -0.96228,0.1186041 -1.82493,0.519486 -2.5753,1.20501738 -0.77408,0.774881 -1.22557,1.714225 -1.34338,2.793523 -0.1107,1.0026 -0.16605,2.230548 -0.16605,3.649844 v 18.986149 c 0,1.265901 0.0554,2.338083 0.16684,3.188079 0.11939,0.921159 0.52344,1.733202 1.20185,2.412408 0.67842,0.679206 1.51102,1.092739 2.47487,1.227157 0.9006,0.128093 2.05897,0.192139 3.44348,0.192139 h 12.01301 v -8.97517 h -3.71863 z"
     style="fill:#aa0000;stroke:none;stroke-width:0.79069418"
     inkscape:connector-curvature="0" />
</svg>
