<?xml version="1.0" encoding="UTF-8" standalone="no"?>
<svg
   xmlns:dc="http://purl.org/dc/elements/1.1/"
   xmlns:cc="http://creativecommons.org/ns#"
   xmlns:rdf="http://www.w3.org/1999/02/22-rdf-syntax-ns#"
   xmlns:svg="http://www.w3.org/2000/svg"
   xmlns="http://www.w3.org/2000/svg"
   xmlns:sodipodi="http://sodipodi.sourceforge.net/DTD/sodipodi-0.dtd"
   xmlns:inkscape="http://www.inkscape.org/namespaces/inkscape"
   version="1.1"
   id="svg19"
   sodipodi:docname="atari7800.svg"
   inkscape:version="0.92.5 (2060ec1f9f, 2020-04-08)"
   width="264"
   height="34.000031">
  <metadata
     id="metadata25">
    <rdf:RDF>
      <cc:Work
         rdf:about="">
        <dc:format>image/svg+xml</dc:format>
        <dc:type
           rdf:resource="http://purl.org/dc/dcmitype/StillImage" />
        <dc:title></dc:title>
      </cc:Work>
    </rdf:RDF>
  </metadata>
  <defs
     id="defs23" />
  <sodipodi:namedview
     pagecolor="#ffffff"
     bordercolor="#666666"
     borderopacity="1"
     objecttolerance="10"
     gridtolerance="10"
     guidetolerance="10"
     inkscape:pageopacity="0"
     inkscape:pageshadow="2"
     inkscape:window-width="1440"
     inkscape:window-height="837"
     id="namedview21"
     showgrid="false"
     inkscape:zoom="3.9233333"
     inkscape:cx="100.93558"
     inkscape:cy="9.0004533"
     inkscape:window-x="0"
     inkscape:window-y="0"
     inkscape:window-maximized="1"
     inkscape:current-layer="svg19"
     fit-margin-top="0"
     fit-margin-left="0"
     fit-margin-right="0"
     fit-margin-bottom="0" />
  <g
     transform="matrix(0.44,0,0,0.441808,4.4e-4,-1.8622035e-4)"
     id="g17"
     style="fill:#aa0000">
    <path
       id="path5"
       d="m 130.047,3.317 c 2.967,-3.797 9.11,-4.446 12.75,-1.26 1.489,1.256 2.533,2.984 3.066,4.846 6.741,23.193 13.512,46.375 20.243,69.57 -3.978,0.005 -7.959,-0.006 -11.935,0.005 -1.876,-6.395 -3.708,-12.802 -5.56,-19.205 -7.693,-0.017 -15.382,-0.003 -23.074,-0.006 -1.883,6.398 -3.742,12.803 -5.592,19.212 -3.956,-0.014 -7.913,-0.003 -11.87,-0.008 6.404,-22.124 12.815,-44.25 19.25,-66.367 0.751,-2.311 1.037,-4.896 2.709,-6.787 m 7.017,14.212 c -2.821,9.61 -5.584,19.236 -8.389,28.849 5.591,0.025 11.179,0.009 16.768,0.009 -2.783,-9.62 -5.566,-19.239 -8.371,-28.858 z"
       style="fill:#aa0000"
       inkscape:connector-curvature="0" />
    <path
       id="path7"
       d="m 213.844,3.815 c 2.074,-3.007 6.082,-4.466 9.61,-3.537 3.229,0.744 5.701,3.527 6.553,6.661 6.733,23.176 13.492,46.345 20.225,69.521 -3.985,0.028 -7.965,0 -11.949,0.017 -1.852,-6.401 -3.684,-12.81 -5.551,-19.209 -7.679,0.003 -15.357,-0.014 -23.036,0.006 -1.835,6.406 -3.729,12.797 -5.564,19.201 -3.953,0.004 -7.904,-0.004 -11.856,0.004 6.401,-22.247 12.876,-44.475 19.328,-66.705 0.688,-2.01 0.952,-4.224 2.254,-5.959 m -0.963,42.574 c 5.568,0.007 11.133,0.003 16.699,0.003 -2.769,-9.639 -5.583,-19.266 -8.345,-28.906 -2.783,9.636 -5.587,19.262 -8.35,28.903 z"
       style="fill:#aa0000"
       inkscape:connector-curvature="0" />
    <path
       id="path9"
       d="m 157.203,0.162 h 43.17 v 11.642 c -5.299,0.004 -10.595,-0.007 -15.892,0.004 0,21.554 0.003,43.112 -0.003,64.665 h -11.384 c 0,-21.552 -0.004,-43.11 0.002,-64.665 -5.298,-0.011 -10.594,0 -15.895,-0.004 0.011,-3.881 0,-7.76 0.011,-11.642 z"
       style="fill:#aa0000"
       inkscape:connector-curvature="0" />
    <path
       id="path11"
       d="m 262.887,0.635 c 1.094,-0.377 2.261,-0.507 3.415,-0.478 4.537,0.017 9.075,0.003 13.611,0.006 7.641,0.14 14.935,4.881 18.241,11.758 2.29,4.466 2.527,9.659 1.949,14.558 -0.398,5.13 -2.549,10.258 -6.492,13.657 -2.084,1.857 -4.678,2.98 -6.905,4.633 -1.225,0.933 -1.285,2.745 -0.653,4.038 6.021,9.296 12.282,18.448 18.431,27.666 -4.497,0.008 -8.993,-0.01 -13.49,0.008 -5.886,-8.841 -11.71,-17.727 -17.572,-26.581 -1.723,-2.52 -2.192,-5.857 -1.161,-8.733 0.806,-2.205 2.732,-3.82 4.879,-4.653 4.099,-1.564 8.14,-4.021 10.41,-7.887 1.727,-2.907 1.638,-6.495 0.861,-9.676 -0.911,-4.13 -4.935,-7.38 -9.188,-7.237 -2.94,0.021 -5.88,-0.015 -8.816,0.013 -1.329,-0.029 -2.58,1.125 -2.563,2.472 -0.014,20.759 0.007,41.52 -0.006,62.28 -3.824,-0.008 -7.644,0 -11.468,-0.004 -0.008,-22.349 0.006,-44.7 -0.008,-67.049 0.022,-3.916 2.805,-7.601 6.52,-8.791 z"
       style="fill:#aa0000"
       inkscape:connector-curvature="0" />
    <path
       id="path13"
       d="m 310.49,0.162 h 12.067 c -0.003,25.439 0.008,50.875 -0.006,76.315 -4.019,-0.011 -8.039,0 -12.061,-0.005 0.011,-25.438 0.011,-50.874 0.011,-76.31 z"
       style="fill:#aa0000"
       inkscape:connector-curvature="0" />
    <path
       id="path15"
       d="m 34.029,0.007 c 1.933,-0.007 3.865,0 5.799,-0.005 0.008,4.545 0,9.09 0.003,13.634 0.02,3.793 -0.087,7.585 -0.244,11.374 -0.259,5.472 -0.602,10.956 -1.509,16.364 -0.622,3.728 -1.912,7.326 -3.512,10.739 -2.611,5.503 -6.713,10.161 -11.324,14.078 -4.125,3.63 -9.05,6.274 -14.228,8.061 -2.93,1.009 -5.945,1.786 -9.015,2.22 0.003,-3.812 0.003,-7.623 0,-11.435 3.696,-0.554 7.248,-1.868 10.548,-3.6 3.916,-2.069 7.44,-4.855 10.407,-8.137 3.064,-3.388 5.505,-7.31 7.358,-11.479 2.183,-4.79 3.351,-9.964 4.145,-15.146 0.994,-6.587 1.409,-13.247 1.564,-19.905 0.021,-2.254 0.002,-4.509 0.008,-6.763 z"
       style="fill:#aa0000"
       inkscape:connector-curvature="0" />
    <path
       id="path17"
       d="m 42.16,0.013 c 3.557,-0.023 7.117,-0.003 10.675,-0.01 10e-4,25.49 10e-4,50.979 0,76.467 -3.55,0.008 -7.101,-0.018 -10.65,0.015 C 42.14,68.357 42.178,60.228 42.166,52.1 42.163,34.737 42.173,17.378 42.16,0.013 Z"
       style="fill:#aa0000"
       inkscape:connector-curvature="0" />
    <path
       id="path19"
       d="m 55.209,0.004 c 1.922,-0.001 3.844,-0.005 5.765,0.002 -0.062,7.772 0.202,15.556 1.128,23.278 0.759,5.997 1.828,12.04 4.216,17.625 2.264,5.407 5.528,10.43 9.782,14.483 4.062,3.871 8.985,6.85 14.333,8.565 1.492,0.476 3.018,0.852 4.569,1.077 -0.002,3.811 -0.003,7.62 0,11.43 -3.048,-0.415 -6.036,-1.2 -8.946,-2.188 -3.464,-1.205 -6.813,-2.766 -9.891,-4.767 -2.247,-1.444 -4.289,-3.173 -6.251,-4.978 -3.235,-2.982 -6.13,-6.372 -8.305,-10.21 -1.701,-2.988 -2.942,-6.22 -3.914,-9.513 C 56.804,41.497 56.424,38.075 56.078,34.672 55.41,27.317 55.16,19.923 55.207,12.541 55.209,8.358 55.208,4.18 55.209,0.004 Z"
       style="fill:#aa0000"
       inkscape:connector-curvature="0" />
    <path
       id="path21"
       d="m 34.029,0.007 c -0.006,2.255 0.013,4.51 -0.009,6.765 -0.154,6.657 -0.569,13.318 -1.563,19.905 -0.794,5.182 -1.962,10.355 -4.145,15.146 -1.853,4.168 -4.295,8.092 -7.358,11.48 -2.967,3.284 -6.492,6.067 -10.407,8.136 -3.3,1.735 -6.852,3.046 -10.548,3.599 0.003,3.813 0.003,7.624 0,11.437 3.07,-0.433 6.085,-1.212 9.015,-2.22 5.179,-1.788 10.103,-4.432 14.228,-8.062 4.611,-3.917 8.713,-8.575 11.324,-14.078 1.6,-3.415 2.89,-7.011 3.512,-10.739 0.907,-5.409 1.25,-10.892 1.509,-16.363 0.157,-3.79 0.264,-7.582 0.244,-11.375 C 39.828,9.094 39.836,4.549 39.828,0.004 37.894,0.007 35.962,0 34.029,0.007"
       style="fill:#aa0000"
       inkscape:connector-curvature="0" />
    <path
       id="path23"
       d="m 42.16,0.013 c 0.013,17.364 0.001,34.726 0.007,52.087 0.012,8.128 -0.027,16.257 0.019,24.385 3.549,-0.031 7.1,-0.007 10.65,-0.015 0.001,-25.488 0.001,-50.977 0,-76.467 -3.559,0.007 -7.119,-0.014 -10.676,0.01"
       style="fill:#aa0000"
       inkscape:connector-curvature="0" />
    <path
       id="path25"
       d="m 55.209,0.004 c -0.001,4.176 0,8.356 0,12.533 -0.047,7.384 0.203,14.775 0.871,22.131 0.347,3.403 0.726,6.825 1.618,10.136 0.971,3.293 2.213,6.525 3.913,9.512 2.174,3.839 5.07,7.229 8.305,10.211 1.962,1.805 4.006,3.534 6.251,4.977 3.077,2.002 6.428,3.563 9.891,4.768 2.91,0.99 5.899,1.775 8.946,2.188 -0.003,-3.81 -0.002,-7.619 0,-11.43 C 93.453,64.804 91.927,64.431 90.435,63.952 85.087,62.238 80.164,59.259 76.102,55.387 71.848,51.337 68.585,46.313 66.32,40.904 63.931,35.32 62.862,29.277 62.104,23.28 61.178,15.558 60.914,7.774 60.976,0.001 59.053,-0.001 57.132,0.003 55.209,0.004"
       style="fill:#aa0000"
       inkscape:connector-curvature="0" />
    <path
       id="path27"
       d="m 463.407,36.501 c 5.589,-3.294 9.075,-8.87 9.075,-15.06 0,-14.619 -15.441,-21.277 -29.787,-21.277 -14.349,0 -29.788,6.658 -29.788,21.277 0,6.192 3.485,11.766 9.074,15.06 -7.948,3.681 -12.396,9.951 -12.396,17.763 0,14.724 16.655,22.427 33.108,22.427 16.452,0 33.107,-7.703 33.107,-22.427 0.032,-7.812 -4.424,-14.084 -12.372,-17.763 z m -20.711,-9.267 c -3.66,0 -6.637,-2.36 -6.637,-5.264 0,-2.904 2.977,-5.265 6.637,-5.265 3.656,0 6.634,2.361 6.634,5.265 0,2.904 -2.974,5.264 -6.635,5.264 z m 0,18.759 c 4.071,0 7.385,2.716 7.385,6.061 0,3.244 -3.314,5.883 -7.385,5.883 -4.075,0 -7.386,-2.637 -7.386,-5.883 0,-3.345 3.323,-6.061 7.387,-6.061 z"
       style="fill:#aa0000"
       inkscape:connector-curvature="0" />
    <path
       id="path29"
       d="M 527.287,12.618 C 521.177,4.471 512.2,0.162 501.328,0.162 c -10.871,0 -19.849,4.306 -25.96,12.456 -5.137,6.853 -7.968,16.066 -7.968,25.942 0,19.111 10.491,38.397 33.93,38.397 23.439,0 33.932,-19.287 33.932,-38.397 0,-9.877 -2.826,-19.09 -7.969,-25.942 z m -25.96,41.601 c -8.172,0 -9.066,-10.622 -9.066,-15.749 0,-5.078 0.897,-15.572 9.066,-15.572 8.171,0 9.065,10.494 9.065,15.572 0,5.127 -0.899,15.749 -9.069,15.749 z"
       style="fill:#aa0000"
       inkscape:connector-curvature="0" />
    <path
       id="path31"
       d="M 592.025,12.618 C 585.915,4.471 576.937,0.162 566.066,0.162 c -10.871,0 -19.848,4.306 -25.959,12.456 -5.138,6.853 -7.969,16.066 -7.969,25.942 0,19.111 10.492,38.397 33.93,38.397 23.439,0 33.931,-19.287 33.931,-38.397 0,-9.877 -2.836,-19.09 -7.969,-25.942 z m -25.961,41.601 c -8.172,0 -9.066,-10.622 -9.066,-15.749 0,-5.078 0.896,-15.572 9.066,-15.572 8.17,0 9.066,10.494 9.066,15.572 0,5.127 -0.9,15.749 -9.07,15.749 z"
       style="fill:#aa0000"
       inkscape:connector-curvature="0" />
    <polygon
       id="polygon33"
       points="388.044,24.534 364.242,76.609 391.198,76.609 423.201,1.234 356.146,1.234 356.146,24.534 "
       style="fill:#aa0000" />
  </g>
</svg>
