<?xml version="1.0" encoding="UTF-8" standalone="no"?>
<svg
   xmlns:bx="https://boxy-svg.com"
   xmlns:dc="http://purl.org/dc/elements/1.1/"
   xmlns:cc="http://creativecommons.org/ns#"
   xmlns:rdf="http://www.w3.org/1999/02/22-rdf-syntax-ns#"
   xmlns:svg="http://www.w3.org/2000/svg"
   xmlns="http://www.w3.org/2000/svg"
   xmlns:sodipodi="http://sodipodi.sourceforge.net/DTD/sodipodi-0.dtd"
   xmlns:inkscape="http://www.inkscape.org/namespaces/inkscape"
   id="svg2"
   enable-background="new 0 0 566.929 104.51"
   version="1.1"
   y="0px"
   x="0px"
   sodipodi:docname="atarilynx.svg"
   inkscape:version="0.92.5 (2060ec1f9f, 2020-04-08)"
   width="256.45712"
   height="34">
  <metadata
     id="metadata19">
    <rdf:RDF>
      <cc:Work
         rdf:about="">
        <dc:format>image/svg+xml</dc:format>
        <dc:type
           rdf:resource="http://purl.org/dc/dcmitype/StillImage" />
        <dc:title></dc:title>
      </cc:Work>
    </rdf:RDF>
  </metadata>
  <defs
     id="defs17" />
  <sodipodi:namedview
     pagecolor="#ffffff"
     bordercolor="#666666"
     borderopacity="1"
     objecttolerance="10"
     gridtolerance="10"
     guidetolerance="10"
     inkscape:pageopacity="0"
     inkscape:pageshadow="2"
     inkscape:window-width="1440"
     inkscape:window-height="837"
     id="namedview15"
     showgrid="false"
     inkscape:zoom="1.9616667"
     inkscape:cx="74.925224"
     inkscape:cy="30.05453"
     inkscape:window-x="0"
     inkscape:window-y="0"
     inkscape:window-maximized="1"
     inkscape:current-layer="svg2"
     fit-margin-top="0"
     fit-margin-left="0"
     fit-margin-right="0"
     fit-margin-bottom="0" />
  <g
     transform="scale(0.42742852,0.42627349)"
     id="g12"
     style="fill:#aa0000">
    <polygon
       id="polygon12"
       points="494.145,67.659 472.341,59.181 416.322,79.494 472.698,79.494 "
       style="fill:#aa0000"
       bx:origin="-5.35 -2.913" />
    <polygon
       id="polygon14"
       points="540.435,45.474 516.006,34.242 500.937,40.371 420.03,0.552 486.576,0.552 575.19,45.474 "
       style="fill:#aa0000"
       bx:origin="-2.707 -0.012" />
    <polygon
       id="polygon16"
       points="522.189,12.654 543.969,21.132 600,0.828 543.624,0.828 "
       style="fill:#aa0000"
       bx:origin="-6.711 -0.041" />
    <polygon
       id="polygon18"
       points="475.887,34.839 500.313,46.071 515.382,39.942 596.301,79.761 529.746,79.761 441.129,34.839 "
       style="fill:#aa0000"
       bx:origin="-2.843 -0.776" />
    <rect
       id="rect20"
       height="53.903999"
       width="44.112"
       y="0.0089999996"
       style="fill:#aa0000"
       bx:origin="-0.001 0"
       x="0" />
    <rect
       id="rect22"
       height="16.503"
       width="113.037"
       y="60.513"
       style="fill:#aa0000"
       bx:origin="0 -3.667"
       x="0" />
    <polygon
       id="polygon24"
       points="134.007,49.263 71.679,0.009 124.071,0.009 159.915,30.255 "
       style="fill:#aa0000"
       bx:origin="-0.813 0" />
    <polygon
       id="polygon26"
       points="179.211,52.257 259.161,0.009 220.566,0.009 140.616,52.257 137.856,52.257 137.856,77.013 179.211,77.013 "
       style="fill:#aa0000"
       bx:origin="-1.137 0" />
    <polygon
       id="polygon28"
       points="264.684,77.013 264.684,8.253 308.79,35.757 308.79,77.013 "
       style="fill:#aa0000"
       bx:origin="-6.002 -0.12" />
    <polygon
       id="polygon30"
       points="408.048,0 386.544,0 386.544,54.159 306.039,0.009 270.195,0.009 383.238,77.013 408.048,77.013 "
       style="fill:#aa0000"
       bx:origin="-1.96 0" />
  </g>
</svg>
