<?xml version="1.0" encoding="UTF-8" standalone="no"?>
<svg
   xmlns:dc="http://purl.org/dc/elements/1.1/"
   xmlns:cc="http://creativecommons.org/ns#"
   xmlns:rdf="http://www.w3.org/1999/02/22-rdf-syntax-ns#"
   xmlns:svg="http://www.w3.org/2000/svg"
   xmlns="http://www.w3.org/2000/svg"
   xmlns:sodipodi="http://sodipodi.sourceforge.net/DTD/sodipodi-0.dtd"
   xmlns:inkscape="http://www.inkscape.org/namespaces/inkscape"
   version="1.1"
   id="svg17"
   sodipodi:docname="atomiswave.svg"
   inkscape:version="0.92.5 (2060ec1f9f, 2020-04-08)"
   width="230.09546"
   height="34">
  <metadata
     id="metadata23">
    <rdf:RDF>
      <cc:Work
         rdf:about="">
        <dc:format>image/svg+xml</dc:format>
        <dc:type
           rdf:resource="http://purl.org/dc/dcmitype/StillImage" />
        <dc:title></dc:title>
      </cc:Work>
    </rdf:RDF>
  </metadata>
  <defs
     id="defs21" />
  <sodipodi:namedview
     pagecolor="#ffffff"
     bordercolor="#666666"
     borderopacity="1"
     objecttolerance="10"
     gridtolerance="10"
     guidetolerance="10"
     inkscape:pageopacity="0"
     inkscape:pageshadow="2"
     inkscape:window-width="1440"
     inkscape:window-height="837"
     id="namedview19"
     showgrid="false"
     inkscape:zoom="1.3871078"
     inkscape:cx="52.799791"
     inkscape:cy="60.429569"
     inkscape:window-x="0"
     inkscape:window-y="0"
     inkscape:window-maximized="1"
     inkscape:current-layer="svg17"
     fit-margin-top="0"
     fit-margin-left="0"
     fit-margin-right="0"
     fit-margin-bottom="0" />
  <path
     id="Path_13"
     data-name="Path 13"
     d="M 0,33.934632 8.1213237,0.00949761 12.387677,17.377347 8.343575,34 8.7157369e-4,33.936375 Z"
     style="fill:#aa0000;stroke-width:0.87157369"
     inkscape:connector-curvature="0" />
  <path
     id="Path_14"
     data-name="Path 14"
     d="M 8.4679609,0.12263841 16.109731,5.0630528e-7 23.120655,28.063862 15.389249,28.187939 8.4671534,0.12265141 Z"
     style="fill:#aa0000;stroke:#ffffff;stroke-width:0;stroke-miterlimit:4;stroke-dasharray:none"
     inkscape:connector-curvature="0" />
  <path
     id="Path_15"
     data-name="Path 15"
     d="m 21.360528,3.3545975 4.169609,16.3899435 -2.084805,8.43509 -4.169608,-16.685407 2.084804,-8.1413697 z"
     style="fill:#aa0000;stroke-width:0.87157369"
     inkscape:connector-curvature="0" />
  <path
     id="Path_16"
     data-name="Path 16"
     d="M 21.703773,3.4264477 27.135471,24.738751 34.700119,24.58798 29.184353,3.2773527 Z"
     style="fill:#aa0000;stroke:#ffffff;stroke-width:0;stroke-miterlimit:4;stroke-dasharray:none"
     inkscape:connector-curvature="0" />
  <path
     id="Path_17"
     data-name="Path 17"
     d="M 39.68798,6.6996971 35.042492,24.770906 30.840635,8.5544061 31.472526,6.6996971 Z"
     style="fill:#aa0000;stroke-width:0.87157369"
     inkscape:connector-curvature="0" />
  <path
     id="Path_28"
     data-name="Path 28"
     d="M 60.927359,24.516407 H 54.773177 L 54.2267,20.070509 h -4.814573 l -1.289057,4.445898 h -6.057437 c 0,0 0,-0.533403 4.864253,-17.8576739 9.9525,-0.07496 10.325533,-0.0706 10.846734,0.834096 0.447117,0.677213 0.524687,1.686495 3.150739,17.0235779 z M 51.596291,9.5819911 v 0 l -1.76668,6.7607979 h 4.117314 L 53.410907,9.5819911 Z"
     style="fill:#aa0000;stroke-width:0.87157369"
     inkscape:connector-curvature="0" />
  <path
     id="Path_18"
     data-name="Path 18"
     d="m 64.299478,23.88713 c -0.690287,-1.004052 -0.783545,-1.52874 2.784678,-13.9591239 -6.006886,0.04968 -6.552491,0 -6.552491,0 l 1.191441,-3.269273 H 79.194672 L 78.20195,9.9280061 H 72.8409 c 0,0 0.0061,0.02353 -3.970018,14.5744549 -3.480194,-0.0122 -4.010111,0.200462 -4.572276,-0.615331 z"
     style="fill:#aa0000;stroke-width:0.87157369"
     inkscape:connector-curvature="0" />
  <path
     id="Path_19"
     data-name="Path 19"
     d="m 95.372823,7.4152591 c 0.596156,0.904694 0.298078,1.40672 -4.065891,17.0863309 -13.505906,0.08716 -13.207828,-0.0122 -13.902472,-0.816665 -0.787031,-0.909923 -0.29895,-1.509565 3.976119,-17.0261919 13.723799,0 13.402189,-0.145553 13.992244,0.756526 z m -9.029504,2.310542 v 0 L 83.166433,21.575717 h 3.176886 L 89.519334,9.7258011 Z"
     style="fill:#aa0000;stroke-width:0.87157369"
     inkscape:connector-curvature="0" />
  <path
     id="Path_20"
     data-name="Path 20"
     d="m 95.079974,24.50159 c -0.342528,-0.287619 0.446246,-1.23502 4.765765,-17.8428569 21.914851,-0.07408 20.722541,-0.297206 21.467731,0.834096 0.4262,0.645836 0.36693,1.027586 -3.79745,17.0087609 -7.14777,-0.06101 -6.10537,0 -6.10537,0 l 3.57432,-15.3780459 h -2.03512 L 108.97809,24.50159 h -6.15418 L 106.99264,9.1235441 H 105.0072 L 100.83759,24.50159 Z"
     style="fill:#aa0000;stroke-width:0.87157369"
     inkscape:connector-curvature="0" />
  <path
     id="Path_21"
     data-name="Path 21"
     d="m 120.56828,23.836579 c -0.22313,-0.827995 0,-0.68157 4.29424,-17.1778459 6.20473,-0.149039 5.95633,0 5.95633,0 0,0 -0.20307,1.058091 -4.96274,17.8428569 -4.24369,-0.06101 -5.07604,0.119405 -5.28696,-0.663268 z"
     style="fill:#aa0000;stroke-width:0.87157369"
     inkscape:connector-curvature="0" />
  <path
     id="Path_22"
     data-name="Path 22"
     d="m 129.22997,24.50159 0.94305,-3.357302 h 9.4557 c 0,0 0.12464,-0.671112 1.31521,-5.191093 -8.53707,-0.02528 -8.76542,0.402667 -9.43043,-0.702488 -0.30331,-0.504641 0.0941,-0.909923 2.0848,-8.5919739 13.2976,0.04968 15.68571,0 15.68571,0 l -0.794,2.866606 -8.93537,0.07496 c 0,0 -0.10459,-0.176057 -1.19144,3.3398709 8.9345,-0.02528 8.55972,0.04706 9.00945,0.502026 0.67024,0.678085 0.44712,1.054604 -2.25824,11.059399 -16.77867,0.08803 -15.88444,0 -15.88444,0 z"
     style="fill:#aa0000;stroke-width:0.87157369"
     inkscape:connector-curvature="0" />
  <path
     id="Path_23"
     data-name="Path 23"
     d="m 152.51145,6.6587331 c -4.9148,16.8971989 -4.79453,16.6906359 -4.24456,17.4044549 0.5212,0.677213 1.34048,0.390465 22.2626,0.453219 4.16961,-16.3306769 4.66554,-17.8576739 4.66554,-17.8576739 h -6.15506 L 164.77101,22.28082 h -2.18417 l 4.26897,-15.6220869 h -5.95633 l -4.26897,15.5209849 h -2.18417 l 4.26897,-15.5209849 z"
     style="fill:#aa0000;stroke-width:0.87157369"
     inkscape:connector-curvature="0" />
  <path
     id="Path_24"
     data-name="Path 24"
     d="m 192.56898,6.6587331 c 2.28439,16.7220129 2.3576,16.9015569 2.87968,17.4288589 0.44624,0.452347 0.47065,0.427071 11.93794,0.427071 4.24369,-16.9468779 0.22225,-0.907308 4.44241,-17.8559299 h -6.15505 l -3.64841,15.3457979 h -1.31607 l -1.7876,-15.3457979 c 0,0 -1.51392,-0.07408 -6.35465,0 z"
     style="fill:#aa0000;stroke-width:0.87157369"
     inkscape:connector-curvature="0" />
  <path
     id="Path_25"
     data-name="Path 25"
     d="m 230.09546,6.6587331 c 0,0 -0.67025,0 -15.08956,0 -4.34392,17.1726169 -4.34392,17.0889459 -3.97176,17.5543659 0.3739,0.46542 0.89336,0.301564 15.08955,0.288491 0.32336,-2.096135 0.39744,-3.150739 0.39744,-3.150739 h -9.15762 l 1.21671,-5.196322 8.01587,-0.07583 0.71992,-3.138537 h -7.94265 l 0.89423,-3.4148259 h 9.23258 z"
     style="fill:#aa0000;stroke-width:0.87157369"
     inkscape:connector-curvature="0" />
  <path
     id="Path_27"
     data-name="Path 27"
     d="m 192.36939,24.516407 h -6.15418 l -0.54648,-4.445898 h -4.81545 l -1.28992,4.445898 h -6.05657 c 0,0 0,-0.533403 4.86512,-17.8576739 9.9525,-0.07496 10.32467,-0.0706 10.84587,0.834096 0.44799,0.677213 0.52468,1.686495 3.15161,17.0235779 z M 183.03745,9.5819911 v 0 l -1.76494,6.7607979 h 4.11819 l -0.53602,-6.7607979 z"
     style="fill:#aa0000;stroke-width:0.87157369"
     inkscape:connector-curvature="0" />
</svg>
