<?xml version="1.0" encoding="UTF-8" standalone="no"?>
<svg
   xmlns:dc="http://purl.org/dc/elements/1.1/"
   xmlns:cc="http://creativecommons.org/ns#"
   xmlns:rdf="http://www.w3.org/1999/02/22-rdf-syntax-ns#"
   xmlns:svg="http://www.w3.org/2000/svg"
   xmlns="http://www.w3.org/2000/svg"
   xmlns:sodipodi="http://sodipodi.sourceforge.net/DTD/sodipodi-0.dtd"
   xmlns:inkscape="http://www.inkscape.org/namespaces/inkscape"
   viewBox="0 0 286.21143 34"
   version="1.1"
   id="svg5"
   sodipodi:docname="auto-allgames.svg"
   inkscape:version="0.92.5 (2060ec1f9f, 2020-04-08)"
   width="286.21143"
   height="34">
  <metadata
     id="metadata11">
    <rdf:RDF>
      <cc:Work
         rdf:about="">
        <dc:format>image/svg+xml</dc:format>
        <dc:type
           rdf:resource="http://purl.org/dc/dcmitype/StillImage" />
        <dc:title></dc:title>
      </cc:Work>
    </rdf:RDF>
  </metadata>
  <defs
     id="defs9" />
  <sodipodi:namedview
     pagecolor="#ffffff"
     bordercolor="#666666"
     borderopacity="1"
     objecttolerance="10"
     gridtolerance="10"
     guidetolerance="10"
     inkscape:pageopacity="0"
     inkscape:pageshadow="2"
     inkscape:window-width="1440"
     inkscape:window-height="837"
     id="namedview7"
     showgrid="false"
     inkscape:zoom="1.47125"
     inkscape:cx="2.8326739"
     inkscape:cy="30.536485"
     inkscape:window-x="0"
     inkscape:window-y="0"
     inkscape:window-maximized="1"
     inkscape:current-layer="svg5"
     inkscape:document-rotation="0"
     fit-margin-top="0"
     fit-margin-left="0"
     fit-margin-right="0"
     fit-margin-bottom="0" />
  <path
     d="m 52.988446,27.591 -1.989,5.049 h -10.2 l 13.413,-31.875 h 14.994 l 2.244,31.875 h -10.251 l -0.204,-5.049 z m 7.242,-17.034 h -0.51 l -3.57,8.925 h 4.08 z m 35.394,13.923 -1.428,8.16 h -19.38 l 5.61,-31.875 h 9.69 l -4.182,23.715 z m 21.726004,0 -1.428,8.16 H 96.542446 L 102.15245,0.765 h 9.69 l -4.182,23.715 z m 28.458,-1.224 v 0 l 0.255,-1.377 h -2.448 l 1.377,-7.803 h 11.679 l -3.009,17.034 v 0 c -4.148,1.53 -8.313,2.295 -12.495,2.295 v 0 0 c -4.182,0 -7.2029,-0.833 -9.061,-2.499 v 0 0 c -1.8479,-1.666 -2.771,-4.233 -2.771,-7.701 v 0 0 c 0,-1.462 0.238,-3.621 0.714,-6.477 v 0 0 c 1.02,-5.916 2.822,-10.183 5.406,-12.801 v 0 0 c 2.584,-2.618 6.868,-3.927 12.852,-3.927 v 0 0 c 1.258,0 2.8611,0.136 4.811,0.408 v 0 0 c 1.9601,0.272 3.4,0.578 4.318,0.918 v 0 l -2.805,7.803 v 0 c -2.55,-0.476 -4.8909,-0.714 -7.021,-0.714 v 0 0 c -2.1199,0 -3.638,0.17 -4.556,0.51 v 0 0 c -0.918,0.34 -1.462,1.02 -1.632,2.04 v 0 l -2.499,14.433 h 3.213 v 0 c 1.156,0 2.0111,-0.1241 2.567,-0.374 v 0 0 c 0.5661,-0.2601 0.935,-0.85 1.105,-1.768 z m 21.777,4.335 -1.989,5.049 h -10.2 l 13.413,-31.875 h 14.99399 l 2.244,31.875 h -10.251 l -0.204,-5.049 z m 7.24199,-17.034 h -0.51 l -3.57,8.925 h 4.08 z m 27.081,6.63 -3.315,15.453 h -10.098 l 7.446,-31.875 h 12.648 l 0.918,16.218 h 0.357 l 6.63,-16.218 h 12.648 l -3.774,31.875 h -10.149 l 2.142,-15.453 h -0.357 l -6.375,15.453 h -7.395 l -1.071,-15.453 z m 51.663,-3.978 -1.326,7.395 h -9.69 l -0.663,3.876 h 11.883 l -1.428,8.16 h -21.573 l 5.61,-31.875 h 21.318 l -2.652,8.16 h -10.455 l -0.714,4.284 z m 3.315,18.87 v 0 l 2.856,-8.415 v 0 c 2.856,0.782 5.474,1.173 7.854,1.173 v 0 0 c 2.38,0 4.301,-0.102 5.763,-0.306 v 0 l 0.408,-2.55 -4.233,-0.408 v 0 c -3.23,-0.306 -5.5199,-1.037 -6.868,-2.193 v 0 0 c -1.3379,-1.156 -2.006,-2.788 -2.006,-4.896 v 0 0 c 0,-0.918 0.102,-1.938 0.306,-3.06 v 0 0 c 0.782,-4.352 2.1981,-7.344 4.25,-8.976 v 0 0 c 2.0621,-1.632 5.253,-2.448 9.571,-2.448 v 0 0 c 4.318,0 8.126,0.425 11.424,1.275 v 0 l -2.652,8.16 v 0 c -2.958,-0.51 -5.338,-0.765 -7.14,-0.765 v 0 0 c -1.802,0 -3.332,0.085 -4.59,0.255 v 0 l -0.408,2.499 3.417,0.357 v 0 c 3.468,0.374 5.933,1.2019 7.395,2.482 v 0 0 c 1.462,1.2699 2.193,2.975 2.193,5.117 v 0 0 c 0,2.176 -0.476,4.42 -1.428,6.732 v 0 0 c -0.476,1.19 -0.9979,2.1879 -1.564,2.992 v 0 0 c -0.5559,0.7939 -1.2699,1.4671 -2.142,2.023 v 0 0 c -0.8619,0.5661 -1.649,0.9911 -2.363,1.275 v 0 0 c -0.714,0.2941 -1.615,0.51 -2.703,0.646 v 0 0 c -1.598,0.238 -3.553,0.357 -5.865,0.357 v 0 0 c -4.216,0 -8.041,-0.442 -11.475,-1.326 z"
     style="white-space:pre;fill:#aa0000;stroke-width:1.70000005"
     id="path2"
     inkscape:connector-curvature="0" />
  <path
     d="m 32.195746,22.1221 c -0.2023,-0.7599 -0.6528,-1.3311 -1.3447,-1.7153 l -6.0163,-3.4085 6.0163,-3.4102 c 0.6919,-0.3808 1.1424,-0.9554 1.3447,-1.7136 0.204,-0.7599 0.1088,-1.4824 -0.2822,-2.1573 l -1.4484,-2.4378 c -0.391,-0.6766 -0.9758,-1.1169 -1.7527,-1.3158 -0.7769,-0.1972 -1.5096,-0.1088 -2.2049,0.2788 l -6.0146,3.3864 V 2.8305 c 0,-0.7667 -0.2873,-1.4297 -0.8602,-1.9924 C 19.061546,0.2788 18.381546,0 17.597846,0 h -2.8951 c -0.7837,0 -1.4603,0.2788 -2.0349,0.8381 -0.5729,0.5627 -0.8602,1.2257 -0.8602,1.9924 V 9.6288 L 5.7913458,6.2407 c -0.6936,-0.3859 -1.428,-0.4743 -2.2049,-0.2771 -0.7752,0.1989 -1.3583,0.6392 -1.7527,1.3158 L 0.38704587,9.7172 c -0.3927,0.6749 -0.4862,1.3974 -0.2822,2.1573 0.2057,0.7582 0.6511,1.3328 1.34470003,1.7136 l 6.0179999,3.4102 -6.0179999,3.4085 c -0.69360003,0.3842 -1.14070003,0.9554 -1.34470003,1.7153 -0.204,0.7599 -0.1105,1.4807 0.2822,2.1573 l 1.44669993,2.4361 c 0.3944,0.68 0.9758,1.1186 1.7527,1.3192 0.7769,0.1972 1.5113,0.1054 2.2049,-0.2771 l 6.0163002,-3.3898 v 6.7966 c 0,0.7684 0.2873,1.4297 0.8602,1.9941 0.5746,0.5593 1.2512,0.8415 2.0349,0.8415 h 2.8951 c 0.7837,0 1.4637,-0.2822 2.0349,-0.8415 0.5729,-0.5644 0.8602,-1.2257 0.8602,-1.9941 v -6.7932 l 6.0146,3.3864 c 0.6936,0.3825 1.428,0.476 2.2049,0.2771 0.7769,-0.2006 1.3617,-0.6392 1.7527,-1.3192 l 1.4484,-2.4361 c 0.391,-0.6766 0.4862,-1.3974 0.2822,-2.1573 z"
     id="path4676"
     style="fill:#aa0000;fill-rule:nonzero;stroke-width:1.70000005"
     inkscape:connector-curvature="0" />
</svg>
