<?xml version="1.0" encoding="UTF-8" standalone="no"?>
<svg
   xmlns:dc="http://purl.org/dc/elements/1.1/"
   xmlns:cc="http://creativecommons.org/ns#"
   xmlns:rdf="http://www.w3.org/1999/02/22-rdf-syntax-ns#"
   xmlns:svg="http://www.w3.org/2000/svg"
   xmlns="http://www.w3.org/2000/svg"
   xmlns:sodipodi="http://sodipodi.sourceforge.net/DTD/sodipodi-0.dtd"
   xmlns:inkscape="http://www.inkscape.org/namespaces/inkscape"
   version="1.1"
   id="svg6"
   sodipodi:docname="auto-at2players.svg"
   inkscape:version="0.92.5 (2060ec1f9f, 2020-04-08)"
   width="267.77966"
   height="34.505333">
  <metadata
     id="metadata12">
    <rdf:RDF>
      <cc:Work
         rdf:about="">
        <dc:format>image/svg+xml</dc:format>
        <dc:type
           rdf:resource="http://purl.org/dc/dcmitype/StillImage" />
        <dc:title></dc:title>
      </cc:Work>
    </rdf:RDF>
  </metadata>
  <defs
     id="defs10" />
  <sodipodi:namedview
     pagecolor="#ffffff"
     bordercolor="#666666"
     borderopacity="1"
     objecttolerance="10"
     gridtolerance="10"
     guidetolerance="10"
     inkscape:pageopacity="0"
     inkscape:pageshadow="2"
     inkscape:window-width="1440"
     inkscape:window-height="837"
     id="namedview8"
     showgrid="false"
     inkscape:zoom="1.3871078"
     inkscape:cx="65.943298"
     inkscape:cy="64.837741"
     inkscape:window-x="0"
     inkscape:window-y="0"
     inkscape:window-maximized="1"
     inkscape:current-layer="svg6"
     fit-margin-top="0"
     fit-margin-left="0"
     fit-margin-right="0"
     fit-margin-bottom="0" />
  <g
     id="g1655">
    <path
       d="m 40.680898,10.212204 0.15573,-7.7343496 q 6.54045,-1.97252001 12.66564,-1.97252001 6.95573,0 9.13588,1.86870001 2.07634,1.8168 2.07634,5.50229 0,3.6335996 -1.03817,6.2290096 -0.98626,2.54351 -3.89313,4.46412 -2.85496,1.92061 -4.72366,2.69924 -3.11451,1.2977 -7.31909,2.69923 l -0.25954,1.45344 h 13.91145 l -1.45344,8.30534 h -25.33129 l 1.14198,-6.48854 q 0.51909,-3.11451 1.45344,-4.61985 0.98626,-1.50535 1.60916,-2.28397 0.67481,-0.83054 1.76488,-1.60916 1.09008,-0.83054 1.92061,-1.34963 0.88245,-0.57098 2.38779,-1.2977 1.55725,-0.77863 2.59542,-1.2458 1.03817,-0.46718 2.95878,-1.29771 1.92061,-0.83054 3.16641,-1.40154 l 0.46718,-2.8030496 q -2.18015,-0.25952 -4.04886,-0.25952 -4.51603,0 -9.34351,1.1419696 z"
       style="font-style:normal;font-variant:normal;font-weight:normal;font-stretch:normal;font-size:51.90839767px;line-height:1.25;font-family:'Changa One';-inkscape-font-specification:'Changa One';letter-spacing:0px;word-spacing:0px;fill:#aa0000;fill-opacity:1;stroke:none;stroke-width:1.29770994"
       id="path914"
       inkscape:connector-curvature="0" />
    <path
       d="m 94.405948,25.888544 h -6.43664 l -1.34962,7.83816 h -9.86259 l 5.70992,-32.4427396 h 15.57252 q 8.824432,0 8.824432,8.20152 0,3.8931296 -1.09007,7.0595496 -1.09008,3.1145 -2.4397,4.98319 -1.29771,1.81681 -3.633592,3.11453 -2.28397,1.24579 -5.29466,1.24579 z m -3.58168,-16.2992496 -1.40152,7.9938996 h 2.28397 q 1.76488,0 2.64733,-0.36337 0.93436,-0.41525 1.19389,-1.81677 0.67481,-3.84123 0.67481,-4.20458 0,-0.98627 -0.77863,-1.2977196 -0.77862,-0.31146 -2.33588,-0.31146 z"
       style="font-style:normal;font-variant:normal;font-weight:normal;font-stretch:normal;font-size:51.90839767px;line-height:1.25;font-family:'Changa One';-inkscape-font-specification:'Changa One';letter-spacing:0px;word-spacing:0px;fill:#aa0000;fill-opacity:1;stroke:none;stroke-width:1.29770994"
       id="path916"
       inkscape:connector-curvature="0" />
    <path
       d="m 126.22581,33.726704 h -19.7252 l 5.70992,-32.4427396 h 9.86261 l -4.2565,24.1373996 h 9.86259 z"
       style="font-style:normal;font-variant:normal;font-weight:normal;font-stretch:normal;font-size:51.90839767px;line-height:1.25;font-family:'Changa One';-inkscape-font-specification:'Changa One';letter-spacing:0px;word-spacing:0px;fill:#aa0000;fill-opacity:1;stroke:none;stroke-width:1.29770994"
       id="path918"
       inkscape:connector-curvature="0" />
    <path
       d="M 133.38903,33.726704 H 123.00735 L 136.65926,1.2839644 h 15.26107 l 2.28397,32.4427396 h -10.43359 l -0.20762,-5.13893 h -8.14963 z m 8.87634,-22.47633 -3.63359,9.08397 h 4.15267 v -9.08397 z"
       style="font-style:normal;font-variant:normal;font-weight:normal;font-stretch:normal;font-size:51.90839767px;line-height:1.25;font-family:'Changa One';-inkscape-font-specification:'Changa One';letter-spacing:0px;word-spacing:0px;fill:#aa0000;fill-opacity:1;stroke:none;stroke-width:1.29770994"
       id="path920"
       inkscape:connector-curvature="0" />
    <path
       d="m 167.33708,1.2839644 0.6748,11.4198396 h 0.36337 l 4.77557,-11.4198396 h 10.90075 l -13.08091,23.6183196 -1.50534,8.82442 h -9.86259 l 1.50533,-8.82442 -4.67174,-23.6183196 z"
       style="font-style:normal;font-variant:normal;font-weight:normal;font-stretch:normal;font-size:51.90839767px;line-height:1.25;font-family:'Changa One';-inkscape-font-specification:'Changa One';letter-spacing:0px;word-spacing:0px;fill:#aa0000;fill-opacity:1;stroke:none;stroke-width:1.29770994"
       id="path922"
       inkscape:connector-curvature="0" />
    <path
       d="m 202.11564,21.476324 h -9.86259 l -0.67482,3.94504 h 12.09467 l -1.45344,8.30534 h -21.95725 l 5.70992,-32.4427396 h 21.69771 l -2.69924,8.30533 h -10.64121 l -0.72673,4.3603096 h 9.86259 z"
       style="font-style:normal;font-variant:normal;font-weight:normal;font-stretch:normal;font-size:51.90839767px;line-height:1.25;font-family:'Changa One';-inkscape-font-specification:'Changa One';letter-spacing:0px;word-spacing:0px;fill:#aa0000;fill-opacity:1;stroke:none;stroke-width:1.29770994"
       id="path924"
       inkscape:connector-curvature="0" />
    <path
       d="m 234.66215,33.726704 h -10.84886 l -2.38777,-9.65496 h -2.12825 l -1.66108,9.65496 h -9.86258 l 5.70991,-32.4427396 h 15.57252 q 8.87635,0 8.87635,7.94198 0,3.2702296 -0.98626,6.2289996 -1.81681,5.60612 -5.70994,7.47483 z M 221.84077,9.5892944 220.6988,16.077854 h 2.28396 q 1.76488,0 2.64733,-0.36336 0.93436,-0.41527 1.2458,-2.23207 0.36336,-1.86869 0.36336,-2.28395 0,-1.03818 -0.83054,-1.2977196 -0.77862,-0.31146 -2.59542,-0.31146 z"
       style="font-style:normal;font-variant:normal;font-weight:normal;font-stretch:normal;font-size:51.90839767px;line-height:1.25;font-family:'Changa One';-inkscape-font-specification:'Changa One';letter-spacing:0px;word-spacing:0px;fill:#aa0000;fill-opacity:1;stroke:none;stroke-width:1.29770994"
       id="path926"
       inkscape:connector-curvature="0" />
    <path
       d="m 237.93234,33.155714 2.90687,-8.56488 q 4.36029,1.19389 7.99389,1.19389 3.63358,0 5.86565,-0.31145 l 0.41526,-2.59542 -4.3084,-0.41526 q -4.9313,-0.46719 -7.00762,-2.23207 -2.02443,-1.76488 -2.02443,-4.9832 0,-1.40153 0.31145,-3.11452 1.19388,-6.6442696 4.3084,-9.1358696 3.1664,-2.49160001 9.75876,-2.49160001 6.59238,0 11.6275,1.29770001 l -2.69925,8.3053396 q -4.51602,-0.7786196 -7.26718,-0.7786196 -2.75113,0 -4.67175,0.25954 l -0.41527,2.5435096 3.47786,0.36337 q 5.29467,0.57099 7.52672,2.5435 2.23207,1.92062 2.23207,5.19085 0,3.32214 -1.45344,6.85192 -0.72671,1.81677 -1.60916,3.06259 -0.83053,1.19389 -2.18016,2.07632 -1.29771,0.83054 -2.38778,1.29772 -1.09007,0.41526 -2.75115,0.6229 -2.43969,0.36336 -5.96945,0.36336 -6.43666,0 -11.67939,-1.34962 z"
       style="font-style:normal;font-variant:normal;font-weight:normal;font-stretch:normal;font-size:51.90839767px;line-height:1.25;font-family:'Changa One';-inkscape-font-specification:'Changa One';letter-spacing:0px;word-spacing:0px;fill:#aa0000;fill-opacity:1;stroke:none;stroke-width:1.29770994"
       id="path928"
       inkscape:connector-curvature="0" />
    <path
       style="fill:#aa0000;fill-opacity:1;stroke-width:0.16563095"
       d="m 0.043837,11.52186 0.04384,-5.0103396 1.838687,-0.0466 1.838687,-0.0466 0.206216,-0.69874 c 0.794402,-2.69173 3.366715,-4.83191003 6.623803,-5.51102003 0.671224,-0.13996 1.637543,-0.23155 2.147377,-0.20351 l 0.926969,0.0509 -0.662525,0.12104 c -3.27714,0.59872 -5.104103,1.34283003 -6.484619,2.64117003 -0.946938,0.89055 -1.879353,2.49608 -1.879614,3.23649 l -1.3e-4,0.37133 9.565188,0.0427 9.565188,0.0427 0.04384,5.0103396 0.04384,5.01033 H 11.930287 0 Z m 23.314987,0.0414 V 6.7599604 H 11.847472 0.336119 v 4.8032996 4.8033 H 11.847472 23.358824 Z M 1.495536,11.64606 V 7.7537304 h 3.21931 3.219309 l 0.05191,0.53831 0.0519,0.53829 3.27121,0.0449 3.271212,0.0449 v -0.58321 -0.58322 h 4.140774 4.140774 v 3.8923396 3.89233 h -4.140774 c -2.650095,0 -4.140774,-0.0596 -4.140774,-0.16564 0,-0.1049 -1.214626,-0.16563 -3.312619,-0.16563 -2.097992,0 -3.312619,0.0607 -3.312619,0.16563 0,0.10475 -1.187022,0.16564 -3.229804,0.16564 H 1.495542 Z m 16.894358,1.98757 v -1.40786 h -1.407863 -1.407863 v 1.40786 1.40786 h 1.407863 1.407863 z m -1.893803,0.69101 c -0.168584,-0.12326 -0.300807,-0.42701 -0.300807,-0.69101 0,-0.82834 1.03241,-1.22336 1.589231,-0.60807 0.771363,0.85234 -0.351317,1.98432 -1.288424,1.29908 z m 5.372054,-0.69101 v -1.40786 h -1.490678 -1.490679 v 1.40786 1.40786 h 1.490679 1.490678 z m -2.058556,0.6507 c -0.369346,-0.36936 -0.334341,-1.17912 0.0601,-1.39021 0.477663,-0.25564 0.92002,-0.20827 1.227449,0.13144 0.550973,0.60882 0.169364,1.51905 -0.636853,1.51905 -0.214729,0 -0.507541,-0.11713 -0.650693,-0.26028 z M 14.580382,13.63362 V 12.3914 H 11.267763 7.955144 v 1.24222 1.24223 h 3.312619 3.312619 z M 8.90116,13.94473 c -0.06482,-0.0648 -0.117862,-0.21725 -0.117862,-0.33871 0,-0.15979 0.278077,-0.22084 1.00593,-0.22084 0.868601,0 0.998409,0.0396 0.950828,0.28985 -0.0422,0.22201 -0.250059,0.30129 -0.88807,0.33871 -0.458131,0.0269 -0.886003,-0.004 -0.950826,-0.069 z m 3.111942,-0.0627 c -0.205695,-0.33282 0.122447,-0.49689 0.993786,-0.49689 0.8948,0 1.316857,0.243 0.890784,0.51287 -0.314853,0.19942 -1.759011,0.18718 -1.88457,-0.016 z M 5.63631,13.7164 c 0,-0.44169 0.05521,-0.4969 0.496893,-0.4969 H 6.630097 V 12.06009 10.90068 H 6.133203 c -0.441682,0 -0.496893,-0.0552 -0.496893,-0.49689 V 9.9068804 H 4.487895 c -1.129691,0 -1.149269,0.007 -1.200824,0.4554896 -0.04117,0.35776 -0.150137,0.46673 -0.507895,0.5079 -0.448059,0.0515 -0.455485,0.0712 -0.455485,1.20082 v 1.14841 h 0.496893 c 0.441683,0 0.496893,0.0552 0.496893,0.4969 v 0.49689 H 4.476894 5.63631 Z M 3.81437,13.39563 c 0,-0.42769 -0.06497,-0.49266 -0.538301,-0.5383 -0.516146,-0.0498 -0.540378,-0.0842 -0.588784,-0.83865 l -0.05048,-0.78675 h 0.588783 c 0.543783,0 0.588784,-0.0379 0.588784,-0.49689 0,-0.47849 0.02761,-0.49689 0.745339,-0.49689 0.717735,0 0.745339,0.0184 0.745339,0.49689 0,0.44168 0.05521,0.49689 0.496893,0.49689 0.478489,0 0.496893,0.0276 0.496893,0.74535 0,0.71773 -0.0184,0.74533 -0.496893,0.74533 -0.457456,0 -0.496893,0.046 -0.496893,0.57972 0,0.57664 -0.004,0.5797 -0.745339,0.5797 -0.714161,0 -0.745339,-0.0203 -0.745339,-0.4864 z M 14.497567,11.5632 v -0.57971 l -3.271212,-0.0449 -3.271211,-0.0449 v 0.5556 c 0,0.30559 0.05125,0.60686 0.113888,0.6695 0.06264,0.0627 1.534684,0.0936 3.271212,0.069 l 3.157323,-0.0449 z m 0.08281,-1.7391296 v -0.57971 H 11.267759 7.95514 v 0.57971 0.5797196 h 3.312619 3.312619 z"
       id="path882"
       inkscape:connector-curvature="0" />
    <path
       style="fill:#aa0000;fill-opacity:1;stroke-width:0.16563095"
       d="m 0.043837,28.98974 0.04384,-5.01034 1.838687,-0.0466 1.838687,-0.0466 0.206216,-0.69874 c 0.794402,-2.69173 3.366715,-4.83191 6.623803,-5.51104 0.671224,-0.13995 1.637543,-0.23153 2.147378,-0.2035 l 0.926967,0.0509 -0.662524,0.12104 c -3.27714,0.59872 -5.104103,1.34283 -6.484619,2.64117 -0.946938,0.89055 -1.879353,2.49607 -1.879614,3.23649 l -1.24e-4,0.37132 9.565189,0.0427 9.565187,0.0427 0.04384,5.01034 0.04384,5.01033 H 11.930287 0 Z m 23.314987,0.0414 v -4.8033 H 11.847472 0.336119 v 4.8033 4.80329 h 11.511353 11.511352 z m -21.863288,0.0828 v -3.89232 h 3.21931 3.219309 l 0.05191,0.5383 0.0519,0.5383 3.27121,0.0449 3.271213,0.045 V 25.80491 25.2217 h 4.140773 4.140774 v 3.89232 3.89234 h -4.140774 c -2.650094,0 -4.140773,-0.0596 -4.140773,-0.16564 0,-0.1049 -1.214628,-0.16563 -3.31262,-0.16563 -2.097992,0 -3.312619,0.0607 -3.312619,0.16563 0,0.10476 -1.187022,0.16564 -3.229804,0.16564 H 1.495542 Z m 16.894358,1.98757 v -1.40786 h -1.407862 -1.407865 v 1.40786 1.40786 h 1.407865 1.407862 z m -1.893803,0.69102 c -0.168583,-0.12327 -0.300807,-0.42702 -0.300807,-0.69102 0,-0.82833 1.032411,-1.22335 1.589231,-0.60807 0.771362,0.85235 -0.351317,1.98432 -1.288424,1.29909 z m 5.372054,-0.69102 v -1.40786 h -1.490678 -1.490679 v 1.40786 1.40786 h 1.490679 1.490678 z m -2.058557,0.65069 c -0.369345,-0.36934 -0.33434,-1.1791 0.0601,-1.39019 0.477663,-0.25564 0.92002,-0.20828 1.22745,0.13143 0.550972,0.60882 0.169363,1.51904 -0.636853,1.51904 -0.214729,0 -0.507541,-0.11711 -0.650694,-0.26028 z m -5.229205,-0.65069 v -1.24224 h -3.31262 -3.312619 v 1.24224 1.24223 h 3.312619 3.31262 z m -5.679223,0.3111 c -0.06482,-0.0648 -0.117862,-0.21724 -0.117862,-0.3387 0,-0.15979 0.278077,-0.22084 1.00593,-0.22084 0.868601,0 0.998409,0.0396 0.950828,0.28985 -0.0422,0.22201 -0.250059,0.30129 -0.88807,0.33871 -0.458131,0.0269 -0.886003,-0.004 -0.950826,-0.069 z m 3.111942,-0.0627 c -0.205695,-0.33283 0.122447,-0.49689 0.993786,-0.49689 0.8948,0 1.316858,0.243 0.890784,0.51287 -0.314853,0.19942 -1.759011,0.18718 -1.88457,-0.016 z M 5.63631,31.18427 c 0,-0.44168 0.05521,-0.49689 0.496893,-0.49689 H 6.630097 V 29.52797 28.36855 H 6.133203 c -0.441682,0 -0.496893,-0.0552 -0.496893,-0.49689 v -0.4969 H 4.487895 c -1.129691,0 -1.149269,0.007 -1.200824,0.45549 -0.04117,0.35775 -0.150137,0.46673 -0.507895,0.50789 -0.448059,0.0515 -0.455485,0.0712 -0.455485,1.20083 v 1.14841 h 0.496893 c 0.441683,0 0.496893,0.0552 0.496893,0.49689 v 0.4969 H 4.476894 5.63631 Z M 3.81437,30.86351 c 0,-0.42769 -0.06497,-0.49267 -0.538301,-0.5383 -0.516146,-0.0498 -0.540378,-0.0842 -0.588784,-0.83865 l -0.05048,-0.78675 h 0.588783 c 0.543783,0 0.588784,-0.0379 0.588784,-0.49689 0,-0.47849 0.02761,-0.49689 0.745339,-0.49689 0.717735,0 0.745339,0.0184 0.745339,0.49689 0,0.44168 0.05521,0.49689 0.496893,0.49689 0.478489,0 0.496893,0.0276 0.496893,0.74533 0,0.71775 -0.0184,0.74535 -0.496893,0.74535 -0.457456,0 -0.496893,0.046 -0.496893,0.5797 0,0.57665 -0.004,0.57972 -0.745339,0.57972 -0.714161,0 -0.745339,-0.0203 -0.745339,-0.4864 z m 10.683197,-1.83243 v -0.57971 l -3.271212,-0.0449 -3.271211,-0.0449 v 0.55561 c 0,0.30559 0.05125,0.60685 0.113888,0.6695 0.06264,0.0627 1.534684,0.0936 3.271212,0.069 l 3.157323,-0.0449 z m 0.08281,-1.73913 V 26.71224 H 11.267759 7.95514 v 0.57971 0.57971 h 3.312619 3.31262 z"
       id="path882-3"
       inkscape:connector-curvature="0" />
  </g>
</svg>
