<?xml version="1.0" encoding="UTF-8" standalone="no"?>
<svg
   xmlns:dc="http://purl.org/dc/elements/1.1/"
   xmlns:cc="http://creativecommons.org/ns#"
   xmlns:rdf="http://www.w3.org/1999/02/22-rdf-syntax-ns#"
   xmlns:svg="http://www.w3.org/2000/svg"
   xmlns="http://www.w3.org/2000/svg"
   xmlns:sodipodi="http://sodipodi.sourceforge.net/DTD/sodipodi-0.dtd"
   xmlns:inkscape="http://www.inkscape.org/namespaces/inkscape"
   version="1.1"
   id="svg6"
   sodipodi:docname="auto-favorites.svg"
   inkscape:version="0.92.5 (2060ec1f9f, 2020-04-08)"
   width="280.49948"
   height="34">
  <metadata
     id="metadata12">
    <rdf:RDF>
      <cc:Work
         rdf:about="">
        <dc:format>image/svg+xml</dc:format>
        <dc:type
           rdf:resource="http://purl.org/dc/dcmitype/StillImage" />
        <dc:title></dc:title>
      </cc:Work>
    </rdf:RDF>
  </metadata>
  <defs
     id="defs10" />
  <sodipodi:namedview
     pagecolor="#ffffff"
     bordercolor="#666666"
     borderopacity="1"
     objecttolerance="10"
     gridtolerance="10"
     guidetolerance="10"
     inkscape:pageopacity="0"
     inkscape:pageshadow="2"
     inkscape:window-width="1440"
     inkscape:window-height="837"
     id="namedview8"
     showgrid="false"
     inkscape:zoom="1.3871078"
     inkscape:cx="20.442444"
     inkscape:cy="57.981243"
     inkscape:window-x="0"
     inkscape:window-y="0"
     inkscape:window-maximized="1"
     inkscape:current-layer="svg6"
     fit-margin-top="0"
     fit-margin-left="0"
     fit-margin-right="0"
     fit-margin-bottom="0" />
  <path
     d="m 63.175724,13.193063 -1.362125,7.590499 h -8.17275 L 51.623162,32.600687 H 42.038349 L 47.587787,0.7639375 h 19.67325 l -2.67325,8.1504375 h -8.87825 l -0.706563,4.278688 z M 73.365099,27.557 71.398412,32.600687 h -10.0895 L 74.576349,0.7639375 H 89.407787 L 91.627349,32.600687 H 81.487912 L 81.286037,27.557 Z m 7.164438,-17.01275 h -0.504688 l -3.53175,8.914375 h 4.036438 z M 107.66898,20.9865 115.2871,0.7639375 h 10.13944 L 112.46192,32.600687 H 98.437974 L 96.571162,0.7639375 H 107.21529 V 20.9865 Z m 28.19981,-9.576313 v 0 l -2.3205,13.244063 h 3.98544 v 0 c 1.31219,0 2.28756,-0.15725 2.92612,-0.474937 v 0 0 c 0.63857,-0.328313 1.05932,-1.069938 1.26119,-2.223813 v 0 l 2.3205,-13.245125 h -4.03537 v 0 c -1.27819,0 -2.23657,0.1583125 -2.87619,0.4749375 v 0 0 c -0.63856,0.3283125 -1.05931,1.0699375 -1.26119,2.2248745 z M 141.67004,0 v 0 0 c 4.27125,0 7.31531,0.8446875 9.13113,2.5298125 v 0 0 c 1.81581,1.6755625 2.72425,4.26275 2.72425,7.7605005 v 0 0 c 0,3.496687 -0.54932,7.160187 -1.64794,10.985187 v 0 0 c -1.088,3.815437 -2.81988,6.779812 -5.19563,8.897375 v 0 0 c -2.36618,2.128187 -5.82993,3.19175 -10.39231,3.19175 v 0 0 c -4.55175,0 -7.735,-0.836188 -9.55081,-2.512813 v 0 0 c -1.81688,-1.686187 -2.72425,-4.27975 -2.72425,-7.776437 v 0 0 c 0,-1.663875 0.23481,-3.859 0.7055,-6.588563 v 0 0 c 0.47175,-2.738062 1.09331,-5.097874 1.86681,-7.0804995 v 0 0 c 0.7735,-1.9921875 1.81581,-3.7176875 3.128,-5.178625 v 0 0 C 132.23717,1.4099375 136.2226,0 141.67004,0 Z m 36.22169,22.005437 3.32881,10.59525 h -10.54319 l -2.3205,-9.474312 h -2.06868 l -1.61394,9.474312 h -9.58481 l 5.54943,-31.8367495 h 15.13319 v 0 c 5.75131,0 8.62644,2.598875 8.62644,7.7945 v 0 0 c 0,2.1388125 -0.31875,4.1766875 -0.95838,6.1115005 v 0 0 c -1.17725,3.668812 -3.02706,6.113624 -5.54837,7.335499 z M 170.67735,8.914375 h -1.91675 l -1.11031,6.367563 h 2.21956 v 0 c 1.14432,0 2.006,-0.124313 2.59038,-0.374 v 0 0 c 0.59287,-0.260313 0.99662,-0.99025 1.21019,-2.189813 v 0 0 c 0.22418,-1.210187 0.33681,-1.952875 0.33681,-2.224875 v 0 0 c 0,-0.6789375 -0.25819,-1.115625 -0.7735,-1.3079375 v 0 0 c -0.527,-0.180625 -1.37913,-0.2709375 -2.55638,-0.2709375 z m 23.81063,23.686312 h -9.58481 L 190.4526,0.7639375 h 9.58482 z M 227.17792,0.7639375 225.71485,8.914375 h -6.9615 l -4.08637,23.686312 h -9.58481 l 4.08637,-23.686312 h -6.91156 l 1.46306,-8.1504375 z m 21.03643,12.4291255 -1.31218,7.3865 h -9.58482 l -0.65556,3.870687 h 11.75444 l -1.41313,8.150437 h -21.33925 l 5.54944,-31.8367495 h 21.08638 l -2.62225,8.1504375 h -10.34238 l -0.7055,4.278688 z m 3.27888,18.846624 v 0 l 2.82519,-8.404374 v 0 c 2.82412,0.780937 5.4145,1.170874 7.76793,1.170874 v 0 0 c 2.3545,0 4.25532,-0.100937 5.70138,-0.303875 v 0 l 0.40269,-2.546812 -4.18625,-0.408 v 0 c -3.19494,-0.306 -5.46019,-1.037 -6.79363,-2.190875 v 0 0 c -1.32387,-1.154938 -1.98475,-2.78375 -1.98475,-4.890687 v 0 0 c 0,-0.916938 0.10094,-1.934813 0.30281,-3.05575 v 0 0 c 0.7735,-4.346688 2.17494,-7.3355005 4.20432,-8.9653755 v 0 0 C 261.77292,0.8149375 264.92854,0 269.19979,0 v 0 0 c 4.27125,0 8.03781,0.425 11.29969,1.2739375 v 0 l -2.62331,8.1504375 v 0 c -2.92507,-0.51 -5.27957,-0.765 -7.06244,-0.765 v 0 0 c -1.78181,0 -3.29588,0.085 -4.54006,0.255 v 0 l -0.40375,2.495813 3.38087,0.357 v 0 c 3.42975,0.372937 5.86819,1.200625 7.31425,2.47775 v 0 0 c 1.44606,1.269687 2.16963,2.971812 2.16963,5.111687 v 0 0 c 0,2.173875 -0.47175,4.414687 -1.41313,6.7235 v 0 0 c -0.47069,1.188937 -0.98706,2.185563 -1.547,2.988812 v 0 0 c -0.54931,0.792626 -1.25587,1.46625 -2.11862,2.020875 v 0 0 c -0.85213,0.56525 -1.63094,0.990251 -2.3375,1.272875 v 0 0 c -0.70657,0.294313 -1.59694,0.51 -2.67325,0.646 v 0 0 c -1.581,0.236938 -3.51475,0.355938 -5.80125,0.355938 v 0 0 c -4.17032,0 -7.95388,-0.442 -11.35069,-1.324938 z"
     style="white-space:pre;fill:#aa0000;stroke-width:1.0625"
     id="path2"
     inkscape:connector-curvature="0" />
  <path
     d="m 17.651849,0 c -0.366562,0 -0.734187,0.286875 -1.0115,0.8595625 L 12.871662,8.565875 c -0.558875,1.1475 -2.043188,2.23125 -3.2926879,2.415063 l -8.41925,1.234625 c -1.25268754,0.184874 -1.53531254,1.064625 -0.62793754,1.956062 l 6.09450004,5.99675 c 0.9063125,0.894625 1.4715625,2.652 1.258,3.908938 L 6.4424741,32.551812 C 6.2852241,33.463437 6.6326616,34 7.2637866,34 c 0.289,-0.01169 0.5726875,-0.0935 0.8255625,-0.239063 l 7.5331249,-4.003499 c 0.562063,-0.296438 1.29625,-0.440938 2.0315,-0.440938 0.738438,0 1.481125,0.146625 2.034688,0.440938 l 7.536312,4.003499 C 27.527787,33.921375 27.812537,34 28.049474,34 c 0.632188,0 0.975375,-0.536563 0.822375,-1.448188 l -1.442875,-8.474499 c -0.210375,-1.256938 0.354875,-3.016438 1.255875,-3.908938 l 6.097688,-5.99675 c 0.904187,-0.891437 0.623687,-1.771188 -0.631125,-1.956062 l -8.421375,-1.2325 C 24.480537,10.79925 22.998349,9.7155 22.439474,8.568 L 18.672912,0.8595625 C 18.390287,0.286875 18.025849,0 17.651849,0 Z"
     style="fill:#aa0000;stroke-width:1.0625"
     id="path4"
     inkscape:connector-curvature="0" />
</svg>
