<?xml version="1.0" encoding="UTF-8" standalone="no"?>
<svg
   xmlns:dc="http://purl.org/dc/elements/1.1/"
   xmlns:cc="http://creativecommons.org/ns#"
   xmlns:rdf="http://www.w3.org/1999/02/22-rdf-syntax-ns#"
   xmlns:svg="http://www.w3.org/2000/svg"
   xmlns="http://www.w3.org/2000/svg"
   xmlns:sodipodi="http://sodipodi.sourceforge.net/DTD/sodipodi-0.dtd"
   xmlns:inkscape="http://www.inkscape.org/namespaces/inkscape"
   version="1.1"
   id="svg6"
   sodipodi:docname="auto-retroachievements.svg"
   inkscape:version="0.92.5 (2060ec1f9f, 2020-04-08)"
   width="140.57516"
   height="34">
  <metadata
     id="metadata12">
    <rdf:RDF>
      <cc:Work
         rdf:about="">
        <dc:format>image/svg+xml</dc:format>
        <dc:type
           rdf:resource="http://purl.org/dc/dcmitype/StillImage" />
        <dc:title></dc:title>
      </cc:Work>
    </rdf:RDF>
  </metadata>
  <defs
     id="defs10" />
  <sodipodi:namedview
     pagecolor="#ffffff"
     bordercolor="#666666"
     borderopacity="1"
     objecttolerance="10"
     gridtolerance="10"
     guidetolerance="10"
     inkscape:pageopacity="0"
     inkscape:pageshadow="2"
     inkscape:window-width="1440"
     inkscape:window-height="837"
     id="namedview8"
     showgrid="false"
     inkscape:zoom="3.9233334"
     inkscape:cx="74.574416"
     inkscape:cy="-13.860034"
     inkscape:window-x="0"
     inkscape:window-y="0"
     inkscape:window-maximized="1"
     inkscape:current-layer="svg6"
     fit-margin-top="0"
     fit-margin-left="0"
     fit-margin-right="0"
     fit-margin-bottom="0" />
  <text
     xml:space="preserve"
     style="font-style:normal;font-variant:normal;font-weight:normal;font-stretch:normal;font-size:40px;line-height:1.25;font-family:'Changa One';-inkscape-font-specification:'Changa One';letter-spacing:0px;word-spacing:0px;fill:#000000;fill-opacity:1;stroke:none"
     x="-19.676706"
     y="-37.250595"
     id="text1763"><tspan
       sodipodi:role="line"
       id="tspan1761"
       x="-19.676706"
       y="0.96974415" /></text>
  <text
     xml:space="preserve"
     style="font-style:normal;font-variant:normal;font-weight:normal;font-stretch:normal;font-size:40px;line-height:1.25;font-family:'Changa One';-inkscape-font-specification:'Changa One';letter-spacing:19.25px;word-spacing:0px;fill:#000000;fill-opacity:1;stroke:none"
     x="-1.6535972"
     y="-9.8554707"
     id="text1767"><tspan
       sodipodi:role="line"
       id="tspan1765"
       x="-1.6535972"
       y="28.364868" /></text>
  <g
     aria-label="RETRO"
     style="font-style:normal;font-variant:normal;font-weight:normal;font-stretch:normal;font-size:40px;line-height:1.25;font-family:'Changa One';-inkscape-font-specification:'Changa One';letter-spacing:0px;word-spacing:0px;fill:#aa0000;fill-opacity:1;stroke:none"
     id="text1771"
     transform="matrix(0.5591703,0,0,0.56133067,8.7803724,40.073117)">
    <path
       d="m 76.551185,-46.022617 h -8.36 l -1.84,-7.44 h -1.64 l -1.28,7.44 h -7.6 l 4.4,-25 h 12 q 6.84,0 6.84,6.12 0,2.52 -0.76,4.8 -1.4,4.32 -4.4,5.76 z m -9.88,-18.6 -0.88,5 h 1.76 q 1.36,0 2.04,-0.28 0.72,-0.32 0.96,-1.72 0.28,-1.44 0.28,-1.76 0,-0.8 -0.64,-1 -0.6,-0.24 -2,-0.24 z"
       id="path1800"
       inkscape:connector-curvature="0"
       style="fill:#aa0000" />
    <path
       d="m 96.631146,-55.462617 h -7.6 l -0.52,3.04 h 9.32 l -1.12,6.4 h -16.92 l 4.4,-25 h 16.720004 l -2.080004,6.4 h -8.2 l -0.56,3.36 h 7.6 z"
       id="path1802"
       inkscape:connector-curvature="0"
       style="fill:#aa0000" />
    <path
       d="m 121.0311,-64.622617 h -5.52 l -3.24,18.6 h -7.6 l 3.24,-18.6 h -5.48 l 1.16,-6.4 h 18.6 z"
       id="path1804"
       inkscape:connector-curvature="0"
       style="fill:#aa0000" />
    <path
       d="m 141.71102,-46.022617 h -8.36 l -1.84,-7.44 h -1.64 l -1.28,7.44 h -7.6 l 4.4,-25 h 12 q 6.84,0 6.84,6.12 0,2.52 -0.76,4.8 -1.4,4.32 -4.4,5.76 z m -9.88,-18.6 -0.88,5 h 1.76 q 1.36,0 2.04,-0.28 0.72,-0.32 0.96,-1.72 0.28,-1.44 0.28,-1.76 0,-0.8 -0.64,-1 -0.6,-0.24 -2,-0.24 z"
       id="path1806"
       inkscape:connector-curvature="0"
       style="fill:#aa0000" />
    <path
       d="m 154.91098,-62.662617 -1.84,10.4 h 3.16 q 1.56,0 2.32,-0.36 0.76,-0.4 1,-1.76 l 1.84,-10.4 h -3.2 q -1.52,0 -2.28,0.4 -0.76,0.36 -1,1.72 z m 4.6,-8.96 q 5.08,0 7.24,2 2.16,1.96 2.16,6.08 0,4.12 -1.32,8.64 -1.28,4.48 -4.12,7 -2.8,2.48 -8.24,2.48 -5.4,0 -7.56,-1.96 -2.16,-2 -2.16,-6.12 0,-1.96 0.56,-5.16 0.56,-3.24 1.48,-5.56 0.92,-2.36 2.48,-4.08 3,-3.32 9.48,-3.32 z"
       id="path1808"
       inkscape:connector-curvature="0"
       style="fill:#aa0000" />
  </g>
  <path
     inkscape:connector-curvature="0"
     id="path1924"
     d="m 13.81161,13.975277 c 0,-0.02185 0.647907,-0.738036 1.439769,-1.591516 1.002596,-1.08057 1.439798,-1.578095 1.439798,-1.638428 v -0.08664 l -2.135527,-0.01004 c -1.585594,-0.0074 -2.135517,-0.02158 -2.135517,-0.05493 0,-0.02469 0.114216,-0.443483 0.253826,-0.930633 0.139616,-0.4871484 0.248325,-0.9338648 0.241571,-0.9927056 l -0.01229,-0.1069739 -2.367422,-0.01 c -1.5561016,-0.00656 -2.3674416,-0.023385 -2.3674416,-0.04905 0,-0.037368 0.454784,-1.6456308 1.267055,-4.4807042 l 0.377975,-1.3192465 0.8008826,-0.010477 c 0.440459,-0.00577 0.800855,-0.0028 0.800855,0.00661 0,0.015203 -0.219557,0.9354724 -0.547078,2.2931484 -0.168762,0.6995644 -0.199387,0.8630481 -0.174125,0.9291704 0.02023,0.05304 0.201409,0.060266 1.510987,0.060266 1.38568,0 1.490484,-0.00472 1.524702,-0.068893 0.0202,-0.037885 0.231633,-0.7494086 0.469836,-1.5811536 0.238224,-0.8317444 0.450439,-1.5339407 0.471591,-1.5604321 0.02953,-0.037063 0.520876,-0.050484 2.130828,-0.058202 l 2.09242,-0.010049 0.0119,-0.082649 c 0.008,-0.062654 -0.21749,-0.3207801 -0.93592,-1.067035 l -0.94768,-0.98438823 0.79122,-0.0105021 0.79123,-0.0105021 0.74263,0.76711683 c 0.40844,0.4219124 0.88343,0.9111629 1.0555,1.0872262 l 0.3129,0.3201108 2.02674,8.65e-5 2.02676,8.71e-5 0.63682,-0.6693889 c 0.35024,-0.3681637 0.81987,-0.8575262 1.04359,-1.08747246 l 0.40679,-0.41810674 0.78309,0.0106593 0.78307,0.0106594 -0.91836,0.9652509 c -0.50511,0.5308671 -0.93278,0.9901221 -0.95042,1.020547 -0.0189,0.032662 -0.013,0.07832 0.0143,0.1114887 0.0387,0.04692 0.25407,0.056186 1.30754,0.056271 0.69364,2.94e-5 1.61423,0.011594 2.0458,0.025626 0.67043,0.021801 0.7896,0.03477 0.81855,0.089076 0.0186,0.034957 0.22556,0.7320634 0.45985,1.5491285 0.23429,0.8170668 0.44658,1.5104866 0.47175,1.5409339 0.0384,0.046506 0.28138,0.053737 1.51911,0.045204 l 1.47331,-0.010157 0.0119,-0.083672 c 0.007,-0.046019 -0.13987,-0.7357131 -0.32529,-1.5326517 -0.18546,-0.7969398 -0.34496,-1.4969993 -0.35448,-1.5556846 l -0.0172,-0.1067044 h 0.79262 c 0.59881,0 0.79699,0.011869 0.8105,0.048499 0.0101,0.026678 0.15169,0.5286689 0.31522,1.1155394 0.93903,3.369838 1.28504,4.6399264 1.27103,4.6658612 -0.008,0.016005 -1.05613,0.0291 -2.32778,0.0291 -2.051,0 -2.31778,0.00685 -2.36233,0.06074 -0.0421,0.050928 -0.006,0.2188886 0.22718,1.0395744 0.15257,0.5383622 0.27737,0.9929232 0.27737,1.0101402 0,0.01722 -0.97837,0.02556 -2.17416,0.01855 -2.1425,-0.01256 -2.17431,-0.01162 -2.18378,0.06406 -0.007,0.0545 0.42258,0.53259 1.47847,1.646281 0.8184,0.863207 1.48802,1.583458 1.48802,1.600555 0,0.0171 -0.54891,0.03108 -1.21978,0.03108 h -1.21981 l -0.16698,-0.164907 c -0.0918,-0.09069 -0.77014,-0.83268 -1.50732,-1.648846 -0.80349,-0.889623 -1.37427,-1.490811 -1.42512,-1.501089 -0.0467,-0.0094 -1.59085,-0.02666 -3.4315,-0.03831 -2.61913,-0.01656 -3.35946,-0.01078 -3.40569,0.02663 -0.0325,0.02629 -0.67211,0.746223 -1.4214,1.599853 -0.74931,0.85363 -1.40494,1.591342 -1.456966,1.639358 -0.09395,0.08667 -0.103389,0.08731 -1.309977,0.08731 -0.803429,0 -1.215371,-0.01346 -1.215371,-0.03974 z m 5.508485,-6.9981401 c 0.0882,-0.1352139 0.0698,-2.7617056 -0.0201,-2.818524 -0.091,-0.057669 -3.065234,-0.049468 -3.123097,0.0086 -0.03427,0.034452 -0.04637,0.4020554 -0.04637,1.4134785 0,1.1909153 0.0081,1.374767 0.06069,1.4278894 0.05313,0.053339 0.248994,0.060973 1.564517,0.060973 h 1.50375 z m 9.89157,0.031456 c 0.0528,-0.053066 0.0608,-0.2339515 0.0608,-1.3946477 V 4.2802713 l -0.0859,-0.060402 c -0.074,-0.052077 -0.28681,-0.060401 -1.54357,-0.060401 -0.85356,0 -1.49873,0.015678 -1.5568,0.037839 l -0.0991,0.037839 v 1.3764811 c 0,1.2699972 0.006,1.3795392 0.0676,1.4160291 0.0427,0.024976 0.6255,0.039983 1.58198,0.040729 1.32616,0.00116 1.52187,-0.00641 1.57507,-0.059791 z"
     style="fill:#aa0000;stroke-width:0.03872661" />
  <path
     style="font-style:normal;font-variant:normal;font-weight:normal;font-stretch:normal;font-size:40px;line-height:1.25;font-family:'Changa One';-inkscape-font-specification:'Changa One';letter-spacing:0px;word-spacing:0px;fill:#aa0000;fill-opacity:1;stroke:none;stroke-width:0.56665277"
     inkscape:connector-curvature="0"
     id="path1978"
     d="M 4.5755083,33.528498 H 0.05102019 L 6.0007228,19.334838 h 6.6510012 l 0.995388,14.19366 H 9.0999987 l -0.09049,-2.248276 H 5.457784 Z M 8.4439476,23.695131 6.860376,27.669355 h 1.8097961 v -3.974224 z" />
  <path
     style="font-style:normal;font-variant:normal;font-weight:normal;font-stretch:normal;font-size:40px;line-height:1.25;font-family:'Changa One';-inkscape-font-specification:'Changa One';letter-spacing:0px;word-spacing:0px;fill:#aa0000;fill-opacity:1;stroke:none;stroke-width:0.56665277"
     inkscape:connector-curvature="0"
     id="path1980"
     d="m 24.867831,29.463434 -0.361959,3.815255 q -1.447837,0.590457 -3.664838,0.590457 -2.850429,0 -4.094663,-1.112783 -1.221613,-1.112783 -1.221613,-3.429188 0,-0.976524 0.316714,-2.884152 0.678674,-3.906095 2.330113,-5.677464 1.674061,-1.771368 5.271031,-1.771368 0.837031,0 1.900286,0.181678 1.085878,0.158969 1.583572,0.408778 l -1.266857,3.474608 q -1.334725,-0.317938 -2.511093,-0.317938 -1.153745,0 -1.651439,0.227098 -0.497693,0.227099 -0.610806,0.908394 l -1.040633,5.949982 q 0.814409,0.181679 1.674062,0.181679 1.832419,0 3.348123,-0.545036 z" />
  <path
     style="font-style:normal;font-variant:normal;font-weight:normal;font-stretch:normal;font-size:40px;line-height:1.25;font-family:'Changa One';-inkscape-font-specification:'Changa One';letter-spacing:0px;word-spacing:0px;fill:#aa0000;fill-opacity:1;stroke:none;stroke-width:0.56665277"
     inkscape:connector-curvature="0"
     id="path1982"
     d="m 33.984639,33.528498 0.859654,-5.018878 h -3.235011 l -0.859653,5.018878 h -4.298266 l 2.48847,-14.19366 h 4.298265 l -0.882275,5.018878 h 3.23501 l 0.882276,-5.018878 h 4.298266 l -2.48847,14.19366 z" />
  <path
     style="font-style:normal;font-variant:normal;font-weight:normal;font-stretch:normal;font-size:40px;line-height:1.25;font-family:'Changa One';-inkscape-font-specification:'Changa One';letter-spacing:0px;word-spacing:0px;fill:#aa0000;fill-opacity:1;stroke:none;stroke-width:0.56665277"
     inkscape:connector-curvature="0"
     id="path1984"
     d="m 40.974966,33.528498 2.488469,-14.19366 h 4.298266 l -2.488469,14.19366 z" />
  <path
     style="font-style:normal;font-variant:normal;font-weight:normal;font-stretch:normal;font-size:40px;line-height:1.25;font-family:'Changa One';-inkscape-font-specification:'Changa One';letter-spacing:0px;word-spacing:0px;fill:#aa0000;fill-opacity:1;stroke:none;stroke-width:0.56665277"
     inkscape:connector-curvature="0"
     id="path1986"
     d="M 57.466716,28.168972 H 53.16845 l -0.294091,1.725949 h 5.271031 l -0.633429,3.633577 h -9.569297 l 2.48847,-14.19366 h 9.456185 l -1.176368,3.633577 h -4.637603 l -0.316714,1.907628 H 58.0549 Z" />
  <path
     style="font-style:normal;font-variant:normal;font-weight:normal;font-stretch:normal;font-size:40px;line-height:1.25;font-family:'Changa One';-inkscape-font-specification:'Changa One';letter-spacing:0px;word-spacing:0px;fill:#aa0000;fill-opacity:1;stroke:none;stroke-width:0.56665277"
     inkscape:connector-curvature="0"
     id="path1988"
     d="m 69.501832,19.334838 h 4.547113 l -5.81397,14.19366 h -6.289042 l -0.83703,-14.19366 h 4.773337 v 9.015813 h 0.203602 z" />
  <path
     style="font-style:normal;font-variant:normal;font-weight:normal;font-stretch:normal;font-size:40px;line-height:1.25;font-family:'Changa One';-inkscape-font-specification:'Changa One';letter-spacing:0px;word-spacing:0px;fill:#aa0000;fill-opacity:1;stroke:none;stroke-width:0.56665277"
     inkscape:connector-curvature="0"
     id="path1990"
     d="m 82.622832,28.168972 h -4.298266 l -0.294092,1.725949 h 5.271032 l -0.633429,3.633577 H 73.09878 l 2.488469,-14.19366 h 9.456185 l -1.176367,3.633577 h -4.637603 l -0.316714,1.907628 h 4.298266 z" />
  <path
     style="font-style:normal;font-variant:normal;font-weight:normal;font-stretch:normal;font-size:40px;line-height:1.25;font-family:'Changa One';-inkscape-font-specification:'Changa One';letter-spacing:0px;word-spacing:0px;fill:#aa0000;fill-opacity:1;stroke:none;stroke-width:0.56665277"
     inkscape:connector-curvature="0"
     id="path1992"
     d="m 89.160692,33.528498 h -4.479245 l 3.302878,-14.19366 h 5.610368 l 0.407204,7.221734 h 0.158357 l 2.940919,-7.221734 h 5.610367 l -1.67406,14.19366 h -4.501868 l 0.950143,-6.881086 h -0.158357 l -2.827807,6.881086 h -3.280256 l -0.475071,-6.881086 h -0.113112 z" />
  <path
     style="font-style:normal;font-variant:normal;font-weight:normal;font-stretch:normal;font-size:40px;line-height:1.25;font-family:'Changa One';-inkscape-font-specification:'Changa One';letter-spacing:0px;word-spacing:0px;fill:#aa0000;fill-opacity:1;stroke:none;stroke-width:0.56665277"
     inkscape:connector-curvature="0"
     id="path1994"
     d="m 112.95948,28.168972 h -4.29826 l -0.29409,1.725949 h 5.27103 l -0.63343,3.633577 h -9.5693 l 2.48847,-14.19366 h 9.45619 l -1.17637,3.633577 h -4.6376 l -0.31672,1.907628 h 4.29827 z" />
  <path
     style="font-style:normal;font-variant:normal;font-weight:normal;font-stretch:normal;font-size:40px;line-height:1.25;font-family:'Changa One';-inkscape-font-specification:'Changa One';letter-spacing:0px;word-spacing:0px;fill:#aa0000;fill-opacity:1;stroke:none;stroke-width:0.56665277"
     inkscape:connector-curvature="0"
     id="path1996"
     d="m 123.32054,33.528498 -2.30749,-5.041588 q -0.0905,-0.158969 -0.0905,-0.431487 0,-0.295228 0.0452,-0.658586 h -0.18098 l -1.06325,6.131661 h -4.29827 l 2.48847,-14.19366 h 4.04942 l 2.30749,5.041588 q 0.0679,0.158969 0.0679,0.454197 0,0.272519 -0.0452,0.635876 h 0.18098 l 1.08588,-6.131661 h 4.29827 l -2.48847,14.19366 z" />
  <path
     style="font-style:normal;font-variant:normal;font-weight:normal;font-stretch:normal;font-size:40px;line-height:1.25;font-family:'Changa One';-inkscape-font-specification:'Changa One';letter-spacing:0px;word-spacing:0px;fill:#aa0000;fill-opacity:1;stroke:none;stroke-width:0.56665277"
     inkscape:connector-curvature="0"
     id="path1998"
     d="m 141.57683,22.968415 h -3.12189 l -1.83242,10.560083 h -4.29827 l 1.83242,-10.560083 h -3.09928 l 0.65606,-3.633577 h 10.51944 z" />
  <path
     style="font-style:normal;font-variant:normal;font-weight:normal;font-stretch:normal;font-size:40px;line-height:1.25;font-family:'Changa One';-inkscape-font-specification:'Changa One';letter-spacing:0px;word-spacing:0px;fill:#aa0000;fill-opacity:1;stroke:none;stroke-width:0.56665277"
     inkscape:connector-curvature="0"
     id="path2000"
     d="m 141.14696,33.278689 1.26686,-3.747126 q 1.90029,0.522327 3.48386,0.522327 1.58357,0 2.55633,-0.136259 l 0.18098,-1.135493 -1.87766,-0.181679 q -2.14913,-0.204388 -3.05403,-0.976524 -0.88228,-0.772135 -0.88228,-2.180146 0,-0.613166 0.13574,-1.362591 0.52032,-2.906861 1.87766,-3.996934 1.37997,-1.090073 4.25302,-1.090073 2.87305,0 5.06743,0.567746 l -1.17636,3.633577 q -1.96816,-0.340648 -3.16715,-0.340648 -1.19899,0 -2.03602,0.113549 l -0.18098,1.112783 1.51571,0.158969 q 2.30749,0.249808 3.28025,1.112783 0.97277,0.840265 0.97277,2.270985 0,1.453431 -0.63343,2.997701 -0.31672,0.794845 -0.7013,1.339882 -0.36196,0.522326 -0.95014,0.908394 -0.56556,0.363358 -1.04063,0.567746 -0.47508,0.181679 -1.19899,0.272519 -1.06326,0.158969 -2.60159,0.158969 -2.80518,0 -5.09005,-0.590457 z" />
</svg>
