<?xml version="1.0" encoding="UTF-8" standalone="no"?>
<svg
   xmlns:dc="http://purl.org/dc/elements/1.1/"
   xmlns:cc="http://creativecommons.org/ns#"
   xmlns:rdf="http://www.w3.org/1999/02/22-rdf-syntax-ns#"
   xmlns:svg="http://www.w3.org/2000/svg"
   xmlns="http://www.w3.org/2000/svg"
   xmlns:sodipodi="http://sodipodi.sourceforge.net/DTD/sodipodi-0.dtd"
   xmlns:inkscape="http://www.inkscape.org/namespaces/inkscape"
   version="1.1"
   id="svg7"
   sodipodi:docname="auto-lastplayed.svg"
   inkscape:version="0.92.5 (2060ec1f9f, 2020-04-08)"
   width="320.5715"
   height="34">
  <metadata
     id="metadata13">
    <rdf:RDF>
      <cc:Work
         rdf:about="">
        <dc:format>image/svg+xml</dc:format>
        <dc:type
           rdf:resource="http://purl.org/dc/dcmitype/StillImage" />
        <dc:title></dc:title>
      </cc:Work>
    </rdf:RDF>
  </metadata>
  <defs
     id="defs11" />
  <sodipodi:namedview
     pagecolor="#ffffff"
     bordercolor="#666666"
     borderopacity="1"
     objecttolerance="10"
     gridtolerance="10"
     guidetolerance="10"
     inkscape:pageopacity="0"
     inkscape:pageshadow="2"
     inkscape:window-width="1440"
     inkscape:window-height="837"
     id="namedview9"
     showgrid="false"
     inkscape:zoom="1.3871078"
     inkscape:cx="152.41413"
     inkscape:cy="-64.898409"
     inkscape:window-x="0"
     inkscape:window-y="0"
     inkscape:window-maximized="1"
     inkscape:current-layer="svg7"
     fit-margin-top="0"
     fit-margin-left="0"
     fit-margin-right="0"
     fit-margin-bottom="0" />
  <g
     id="Group"
     transform="matrix(2.8343924,0,0,2.8279992,-0.86745498,-0.2343305)"
     style="fill:#aa0000;fill-rule:nonzero">
    <path
       d="m 7.3876895,0.08286127 c -2.909283,0 -5.3366595,2.06915443 -5.891297,4.81653003 H 0.4304794 c -0.0471282,6.9e-6 -0.0902095,0.026635 -0.11128935,0.068786 -0.0210798,0.042151 -0.0165414,0.092593 0.0117238,0.1303047 l 1.60551005,2.14068 c 0.023503,0.031341 0.060391,0.049787 0.099565,0.049787 0.039175,0 0.076063,-0.018446 0.099566,-0.049787 l 1.60551,-2.14068 C 3.7693299,5.060771 3.7738689,5.010328 3.7527889,4.9681773 3.7317089,4.9260263 3.6886279,4.8993983 3.6414996,4.8993913 H 2.853296 c 0.5290406,-2.011631 2.3553128,-3.4972966 4.5343935,-3.4972966 2.5931032,0 4.6920835,2.0989803 4.6920835,4.6920834 0,2.5931031 -2.0989803,4.6920839 -4.6920835,4.6920839 -1.6264633,0 -3.0582109,-0.8268351 -3.9002317,-2.0828023 -0.023104,-0.034478 -0.061874,-0.05517 -0.1033776,-0.055173 H 2.144081 c -0.043331,1.22e-5 -0.083536,0.022562 -0.1061401,0.05953 -0.022604,0.036968 -0.024352,0.083032 -0.00462,0.1216067 0.9957502,1.9450356 3.0202998,3.2760716 5.3543644,3.2760716 3.3184027,0 6.0113167,-2.6929142 6.0113167,-6.0113167 0,-3.318423 -2.692914,-6.01131683 -6.0113167,-6.01131683 z"
       id="path4921"
       style="fill:#aa0000"
       inkscape:connector-curvature="0" />
    <path
       d="m 6.9881859,2.6889048 c -0.09936,10e-8 -0.1799066,0.080547 -0.1799068,0.1799067 v 3.9163819 c 6.6e-6,0.0637 0.033698,0.1226482 0.08858,0.1549846 L 9.6856376,8.583645 C 9.7712046,8.63406 9.8814369,8.605602 9.9319075,8.520069 L 10.203797,8.0592966 c 0.05035,-0.085363 0.02218,-0.1953668 -0.063,-0.2460242 L 7.7032626,6.3638946 V 2.8688115 c -1e-7,-0.09936 -0.080547,-0.1799066 -0.1799067,-0.1799067 z"
       id="polygon4923"
       style="fill:#aa0000"
       inkscape:connector-curvature="0" />
  </g>
  <path
     d="M 67.898016,24.480005 66.47973,32.640007 H 47.238154 l 5.56993,-31.8750068 h 9.620788 L 58.277228,24.480005 Z m 7.544359,3.111001 -1.974429,5.049001 H 63.3408 L 76.657875,0.7650002 H 91.545021 L 93.773236,32.640007 H 83.595091 l -0.202786,-5.049001 z m 7.191001,-17.034004 h -0.506357 l -3.544501,8.923788 h 4.050858 z m 13.569646,21.522005 v 0 l 2.835358,-8.415002 v 0 c 2.83657,0.782 5.43514,1.173 7.79814,1.173 v 0 0 c 2.36301,0 4.27065,-0.102 5.72172,-0.306 v 0 l 0.40557,-2.55 -4.20264,-0.408 v 0 c -3.20693,-0.306001 -5.48007,-1.037001 -6.81943,-2.193001 v 0 0 c -1.32843,-1.156 -1.991431,-2.788001 -1.991431,-4.896001 v 0 0 c 0,-0.918 0.100781,-1.938 0.303571,-3.06 v 0 0 c 0.77714,-4.3520013 2.18329,-7.344002 4.21964,-8.9760024 v 0 0 C 106.52081,0.8160002 109.68888,0 113.97653,0 v 0 0 c 4.28764,0 8.06771,0.4262144 11.34264,1.2750003 v 0 l -2.63378,8.1600019 v 0 C 119.74924,8.9250021 117.38624,8.670002 115.59638,8.670002 v 0 0 c -1.78864,0 -3.30771,0.085 -4.55721,0.2550001 v 0 l -0.40436,2.4990009 3.39272,0.357 v 0 c 3.4425,0.374 5.8905,1.200929 7.34157,2.482 v 0 0 c 1.45229,1.270143 2.17721,2.975001 2.17721,5.117001 v 0 0 c 0,2.176001 -0.47235,4.420001 -1.41707,6.732002 v 0 0 c -0.47235,1.19 -0.99085,2.186929 -1.55307,2.992 v 0 0 c -0.5525,0.794143 -1.26043,1.468072 -2.12621,2.023001 v 0 0 c -0.85608,0.565857 -1.63808,0.990857 -2.34722,1.275 v 0 0 c -0.70793,0.293857 -1.60286,0.51 -2.68357,0.646 v 0 0 c -1.58586,0.238 -3.5275,0.357 -5.8225,0.357 v 0 0 c -4.18565,0 -7.983933,-0.442 -11.393648,-1.326 z M 153.06804,0.7650002 151.59875,8.9250021 h -6.987 l -4.10186,23.7150049 h -9.62079 l 4.10186,-23.7150049 h -6.93722 l 1.46808,-8.1600019 z m 25.82422,24.1740048 v 0 h -6.27908 l -1.31628,7.701002 h -9.62079 l 5.56993,-31.8750068 h 15.19072 v 0 c 5.73871,0 8.60807,2.6860006 8.60807,8.0580019 v 0 0 c 0,2.5500009 -0.35457,4.8498579 -1.06371,6.9020019 v 0 0 c -0.70915,2.063071 -1.48993,3.701143 -2.34601,4.913 v 0 0 c -0.86578,1.200929 -2.05457,2.220929 -3.5615,3.060001 v 0 0 c -1.49721,0.828143 -3.22393,1.241 -5.18135,1.241 z m -1.2665,-16.0140029 h -2.22822 l -1.36607,7.8540009 h 2.227 v 0 c 1.14871,0 2.0145,-0.123857 2.59979,-0.374 v 0 0 c 0.59621,-0.259857 0.97871,-0.849999 1.1475,-1.768 v 0 0 c 0.43957,-2.516 0.65814,-3.893001 0.65814,-4.131001 v 0 0 c 0,-0.6459997 -0.25257,-1.0709998 -0.75893,-1.2749998 v 0 0 c -0.50636,-0.2040001 -1.2665,-0.3060001 -2.27921,-0.3060001 z m 33.72436,15.5550029 -1.41829,8.160002 h -19.24157 l 5.56993,-31.8750068 h 9.62079 l -4.15165,23.7150048 z m 7.54436,3.111001 -1.97443,5.049001 H 206.79291 L 220.10998,0.7650002 h 14.88715 l 2.227,31.8750068 H 227.0472 l -0.20279,-5.049001 z m 7.18979,-17.034004 h -0.50636 l -3.5445,8.923788 h 4.05086 z m 13.31829,-9.7920018 h 10.6335 l 0.65814,11.2200028 h 0.35457 l 4.658,-11.2200028 h 10.63351 l -12.75972,23.2050048 -1.46929,8.670002 h -9.62079 l 1.46929,-8.670002 z m 45.87572,12.4440028 -1.31629,7.395001 h -9.62078 l -0.65815,3.876001 h 11.79801 l -1.41829,8.160002 h -21.41879 l 5.56993,-31.8750068 h 21.16622 l -2.63379,8.1600019 h -10.37971 l -0.70915,4.2840009 z m 17.6715,19.431004 h -13.46886 l 5.56993,-31.8750068 h 13.46886 v 0 c 4.35565,0 7.44843,0.777143 9.28322,2.3290005 v 0 0 c 1.84572,1.5421433 2.76857,4.046001 2.76857,7.5140013 v 0 0 c 0,1.768001 -0.20278,3.808001 -0.60714,6.120001 v 0 0 c -1.01271,5.712002 -2.74672,9.792003 -5.19957,12.240003 v 0 0 c -2.44193,2.448001 -6.37986,3.672001 -11.81501,3.672001 z m 4.25365,-23.7150049 v 0 h -3.99986 L 300.52,24.480005 h 3.99986 v 0 c 1.31628,0 2.295,-0.157857 2.93735,-0.476 v 0 0 c 0.64115,-0.327857 1.0625,-1.071 1.26529,-2.227 v 0 l 1.77286,-10.149002 v 0 c 0.0328,-0.204 0.0498,-0.476 0.0498,-0.816001 v 0 0 c 0,-0.782 -0.26957,-1.2919998 -0.80993,-1.5299998 v 0 0 c -0.54035,-0.2380001 -1.38428,-0.3570001 -2.53178,-0.3570001 z"
     style="white-space:pre;fill:#aa0000;stroke-width:1.21428597"
     id="path5"
     inkscape:connector-curvature="0" />
</svg>
