<?xml version="1.0" encoding="UTF-8" standalone="no"?>
<svg
   xmlns:dc="http://purl.org/dc/elements/1.1/"
   xmlns:cc="http://creativecommons.org/ns#"
   xmlns:rdf="http://www.w3.org/1999/02/22-rdf-syntax-ns#"
   xmlns:svg="http://www.w3.org/2000/svg"
   xmlns="http://www.w3.org/2000/svg"
   xmlns:sodipodi="http://sodipodi.sourceforge.net/DTD/sodipodi-0.dtd"
   xmlns:inkscape="http://www.inkscape.org/namespaces/inkscape"
   version="1.1"
   id="svg21"
   sodipodi:docname="cps1.svg"
   inkscape:version="0.92.5 (2060ec1f9f, 2020-04-08)"
   width="138.09248"
   height="34">
  <metadata
     id="metadata27">
    <rdf:RDF>
      <cc:Work
         rdf:about="">
        <dc:format>image/svg+xml</dc:format>
        <dc:type
           rdf:resource="http://purl.org/dc/dcmitype/StillImage" />
        <dc:title></dc:title>
      </cc:Work>
    </rdf:RDF>
  </metadata>
  <defs
     id="defs25" />
  <sodipodi:namedview
     pagecolor="#ffffff"
     bordercolor="#666666"
     borderopacity="1"
     objecttolerance="10"
     gridtolerance="10"
     guidetolerance="10"
     inkscape:pageopacity="0"
     inkscape:pageshadow="2"
     inkscape:window-width="1440"
     inkscape:window-height="837"
     id="namedview23"
     showgrid="false"
     inkscape:zoom="1.9616667"
     inkscape:cx="96.745974"
     inkscape:cy="40.244758"
     inkscape:window-x="0"
     inkscape:window-y="0"
     inkscape:window-maximized="1"
     inkscape:current-layer="svg21"
     fit-margin-top="0"
     fit-margin-left="0"
     fit-margin-right="0"
     fit-margin-bottom="0" />
  <g
     transform="matrix(0.2376717,0,0,0.23663862,-2.3165861,-2.4442403)"
     id="g19"
     style="fill:#aa0000">
    <path
       d="m 162.021,139.149 c 0,0.969 -0.171,1.92 -0.51,2.85 -0.339,0.921 -0.822,1.695 -1.452,2.325 -0.864,0.852 -1.827,1.497 -2.892,1.935 -1.056,0.435 -2.376,0.654 -3.954,0.654 h -3.474 v 7.047 h -5.58 v -21.642 h 9.186 c 1.374,0 2.532,0.123 3.471,0.363 0.951,0.234 1.791,0.585 2.514,1.062 0.873,0.57 1.536,1.305 1.992,2.196 0.468,0.891 0.699,1.962 0.699,3.21 z m -5.772,0.132 c 0,-0.609 -0.165,-1.134 -0.492,-1.569 -0.33,-0.447 -0.714,-0.756 -1.149,-0.933 -0.582,-0.231 -1.149,-0.357 -1.701,-0.378 -0.552,-0.027 -1.287,-0.042 -2.208,-0.042 h -0.96 v 6.483 h 1.599 c 0.948,0 1.728,-0.06 2.34,-0.174 0.618,-0.117 1.137,-0.351 1.554,-0.699 0.36,-0.309 0.615,-0.678 0.771,-1.104 0.165,-0.435 0.246,-0.963 0.246,-1.584 z"
       style="font-style:normal;font-variant:normal;font-weight:bold;font-stretch:normal;font-size:medium;line-height:125%;font-family:sans-serif;-inkscape-font-specification:'sans-serif Bold';letter-spacing:7.03102636px;word-spacing:0px;fill:#aa0000;fill-opacity:1;stroke:none;stroke-width:1px;stroke-linecap:butt;stroke-linejoin:miter;stroke-opacity:1"
       id="path4793"
       inkscape:connector-curvature="0" />
    <path
       d="m 187.125,153.96 h -15.612 v -21.642 h 5.58 v 17.457 h 10.032 z"
       style="font-style:normal;font-variant:normal;font-weight:bold;font-stretch:normal;font-size:medium;line-height:125%;font-family:sans-serif;-inkscape-font-specification:'sans-serif Bold';letter-spacing:7.03102636px;word-spacing:0px;fill:#aa0000;fill-opacity:1;stroke:none;stroke-width:1px;stroke-linecap:butt;stroke-linejoin:miter;stroke-opacity:1"
       id="path4795"
       inkscape:connector-curvature="0" />
    <path
       d="m 216.777,153.96 h -5.772 l -1.845,-4.371 h -10.98 l -1.953,4.371 h -5.625 l 9.876,-21.642 h 6.426 z m -9.288,-8.343 -3.87,-7.758 -3.84,7.758 z"
       style="font-style:normal;font-variant:normal;font-weight:bold;font-stretch:normal;font-size:medium;line-height:125%;font-family:sans-serif;-inkscape-font-specification:'sans-serif Bold';letter-spacing:7.03102636px;word-spacing:0px;fill:#aa0000;fill-opacity:1;stroke:none;stroke-width:1px;stroke-linecap:butt;stroke-linejoin:miter;stroke-opacity:1"
       id="path4797"
       inkscape:connector-curvature="0" />
    <path
       d="m 244.104,132.318 -8.331,13.272 v 8.37 h -5.58 v -8.109 l -8.535,-13.533 h 6.339 l 5.1,8.373 4.872,-8.373 z"
       style="font-style:normal;font-variant:normal;font-weight:bold;font-stretch:normal;font-size:medium;line-height:125%;font-family:sans-serif;-inkscape-font-specification:'sans-serif Bold';letter-spacing:7.03102636px;word-spacing:0px;fill:#aa0000;fill-opacity:1;stroke:none;stroke-width:1px;stroke-linecap:butt;stroke-linejoin:miter;stroke-opacity:1"
       id="path4799"
       inkscape:connector-curvature="0" />
    <path
       d="m 283.764,146.766 c 0,2.133 -0.906,3.867 -2.718,5.205 -1.8,1.326 -4.254,1.989 -7.356,1.989 -1.794,0 -3.357,-0.153 -4.695,-0.465 -1.326,-0.318 -2.574,-0.72 -3.735,-1.206 l 1.791,-4.179 c 0.702,0.399 1.902,0.84 2.688,1.113 1.434,0.495 2.808,0.741 4.125,0.741 0.342,0 0.786,-0.03 1.338,-0.087 0.555,-0.06 1.005,-0.153 1.353,-0.288 0.426,-0.177 0.774,-0.396 1.047,-0.657 0.279,-0.261 0.42,-0.651 0.42,-1.161 0,-0.474 -0.204,-0.882 -0.609,-1.221 -0.399,-0.348 -0.984,-0.618 -1.758,-0.801 -0.816,-0.192 -1.68,-0.372 -2.589,-0.54 -0.9,-0.171 -1.749,-0.39 -2.544,-0.651 -1.821,-0.591 -3.135,-1.392 -3.939,-2.397 -0.795,-1.02 -1.191,-2.28 -1.191,-3.783 0,-2.013 0.9,-3.657 2.703,-4.926 1.812,-1.281 4.14,-1.917 6.975,-1.917 1.425,0 2.832,0.138 4.218,0.42 1.395,0.27 2.601,0.615 3.618,1.032 l -2.352,3.867 c -0.453,-0.225 -0.936,-0.438 -1.455,-0.624 -1.263,-0.477 -2.55,-0.714 -3.867,-0.714 -0.468,0 -0.933,0.033 -1.395,0.102 -0.456,0.057 -0.897,0.174 -1.323,0.348 -0.378,0.147 -0.702,0.369 -0.975,0.669 -0.27,0.291 -0.408,0.624 -0.408,1.002 0,0.57 0.219,1.014 0.654,1.323 0.438,0.3 1.263,0.579 2.472,0.828 0.795,0.165 1.557,0.327 2.283,0.48 0.738,0.156 1.527,0.369 2.367,0.639 1.659,0.543 2.88,1.287 3.666,2.223 0.792,0.933 1.191,2.145 1.191,3.636 z"
       style="font-style:normal;font-variant:normal;font-weight:bold;font-stretch:normal;font-size:medium;line-height:125%;font-family:sans-serif;-inkscape-font-specification:'sans-serif Bold';letter-spacing:7.03102636px;word-spacing:0px;fill:#aa0000;fill-opacity:1;stroke:none;stroke-width:1px;stroke-linecap:butt;stroke-linejoin:miter;stroke-opacity:1"
       id="path4801"
       inkscape:connector-curvature="0" />
    <path
       d="m 362.685,136.503 h -6.756 v 17.457 h -5.583 v -17.457 h -6.759 v -4.185 h 19.098 z"
       style="font-style:normal;font-variant:normal;font-weight:bold;font-stretch:normal;font-size:medium;line-height:125%;font-family:sans-serif;-inkscape-font-specification:'sans-serif Bold';letter-spacing:7.03102636px;word-spacing:0px;fill:#aa0000;fill-opacity:1;stroke:none;stroke-width:1px;stroke-linecap:butt;stroke-linejoin:miter;stroke-opacity:1"
       id="path4803"
       inkscape:connector-curvature="0" />
    <path
       d="m 386.415,153.96 h -16.647 v -21.642 h 16.647 v 4.185 h -11.094 v 3.738 h 10.368 v 4.185 h -10.368 v 5.349 h 11.094 z"
       style="font-style:normal;font-variant:normal;font-weight:bold;font-stretch:normal;font-size:medium;line-height:125%;font-family:sans-serif;-inkscape-font-specification:'sans-serif Bold';letter-spacing:7.03102636px;word-spacing:0px;fill:#aa0000;fill-opacity:1;stroke:none;stroke-width:1px;stroke-linecap:butt;stroke-linejoin:miter;stroke-opacity:1"
       id="path4805"
       inkscape:connector-curvature="0" />
    <path
       d="m 423.642,153.96 h -5.85 l -0.498,-10.431 -6.042,10.428 H 407.4 l -6.039,-10.428 -0.498,10.431 h -5.559 l 0.795,-21.642 h 5.439 l 7.941,14.955 7.929,-14.955 h 5.439 z"
       style="font-style:normal;font-variant:normal;font-weight:bold;font-stretch:normal;font-size:medium;line-height:125%;font-family:sans-serif;-inkscape-font-specification:'sans-serif Bold';letter-spacing:7.03102636px;word-spacing:0px;fill:#aa0000;fill-opacity:1;stroke:none;stroke-width:1px;stroke-linecap:butt;stroke-linejoin:miter;stroke-opacity:1"
       id="path4807"
       inkscape:connector-curvature="0" />
    <path
       id="path4809"
       style="font-style:normal;font-variant:normal;font-weight:bold;font-stretch:normal;font-size:medium;line-height:125%;font-family:sans-serif;-inkscape-font-specification:'sans-serif Bold';letter-spacing:7.03102636px;word-spacing:0px;fill:#aa0000;fill-opacity:1;stroke:none;stroke-width:1px;stroke-linecap:butt;stroke-linejoin:miter;stroke-opacity:1"
       d="m 312.588,132.318 -8.328,13.272 v 8.37 h -5.586 v -8.109 l -8.529,-13.533 h 6.339 l 5.1,8.373 4.869,-8.373 z"
       inkscape:connector-curvature="0" />
    <path
       id="path4811"
       style="font-style:normal;font-variant:normal;font-weight:bold;font-stretch:normal;font-size:medium;line-height:125%;font-family:sans-serif;-inkscape-font-specification:'sans-serif Bold';letter-spacing:7.03102636px;word-spacing:0px;fill:#aa0000;fill-opacity:1;stroke:none;stroke-width:1px;stroke-linecap:butt;stroke-linejoin:miter;stroke-opacity:1"
       d="m 336.369,146.766 c 0,2.133 -0.906,3.867 -2.721,5.205 -1.8,1.326 -4.254,1.989 -7.353,1.989 -1.791,0 -3.357,-0.153 -4.695,-0.465 -1.329,-0.318 -2.571,-0.72 -3.735,-1.206 l 1.794,-4.179 c 0.702,0.399 1.899,0.84 2.682,1.113 1.434,0.495 2.811,0.741 4.128,0.741 0.339,0 0.786,-0.03 1.338,-0.087 0.552,-0.06 1.002,-0.153 1.353,-0.288 0.423,-0.177 0.774,-0.396 1.044,-0.657 0.282,-0.261 0.423,-0.651 0.423,-1.161 0,-0.474 -0.204,-0.882 -0.612,-1.221 -0.396,-0.348 -0.984,-0.618 -1.758,-0.801 -0.813,-0.192 -1.677,-0.372 -2.586,-0.54 -0.903,-0.171 -1.749,-0.39 -2.544,-0.651 -1.821,-0.591 -3.135,-1.392 -3.939,-2.397 -0.795,-1.02 -1.194,-2.28 -1.194,-3.783 0,-2.013 0.903,-3.657 2.706,-4.926 1.812,-1.281 4.137,-1.917 6.975,-1.917 1.425,0 2.832,0.138 4.215,0.42 1.395,0.27 2.604,0.615 3.621,1.032 l -2.352,3.867 c -0.453,-0.225 -0.939,-0.438 -1.455,-0.624 -1.263,-0.477 -2.55,-0.714 -3.87,-0.714 -0.462,0 -0.927,0.033 -1.392,0.102 -0.456,0.057 -0.9,0.174 -1.323,0.348 -0.378,0.147 -0.705,0.369 -0.975,0.669 -0.273,0.291 -0.408,0.624 -0.408,1.002 0,0.57 0.219,1.014 0.654,1.323 0.438,0.3 1.26,0.579 2.472,0.828 0.795,0.165 1.557,0.327 2.28,0.48 0.738,0.156 1.527,0.369 2.373,0.639 1.656,0.543 2.877,1.287 3.66,2.223 0.798,0.933 1.194,2.145 1.194,3.636 z"
       inkscape:connector-curvature="0" />
    <path
       style="color:#000000;clip-rule:nonzero;display:inline;overflow:visible;visibility:visible;opacity:1;isolation:auto;mix-blend-mode:normal;color-interpolation:sRGB;color-interpolation-filters:linearRGB;fill:#aa0000;fill-opacity:1;fill-rule:evenodd;stroke:none;stroke-width:1px;stroke-linecap:butt;stroke-linejoin:miter;stroke-miterlimit:4;stroke-dasharray:none;stroke-dashoffset:0;stroke-opacity:1;color-rendering:auto;image-rendering:auto;shape-rendering:auto;text-rendering:auto"
       d="m 442.626,132.372 v 1.152 h 0.03 c 0.096,0 4.404,0.078 4.404,1.887 v 15.561 c 0,1.044 -1.965,1.884 -4.404,1.884 h -0.03 v 1.152 h 5.829 1.56 5.826 v -1.152 h -0.027 c -2.442,0 -4.407,-0.84 -4.407,-1.884 v -15.561 c 0,-1.809 4.311,-1.887 4.407,-1.887 h 0.027 v -1.152 h -5.826 -1.56 z"
       id="path4783"
       inkscape:connector-curvature="0" />
    <path
       style="clip-rule:evenodd;fill:#aa0000;fill-opacity:1;fill-rule:evenodd"
       d="M 92.556,27.363 77.445,43.209 c 0,0 -0.801,0.405 -1.47,0.405 -0.669,0 -1.611,-0.675 -1.611,-0.675 l -1.869,-1.596 c 0,0 -0.54,-0.132 -0.54,-0.672 0,-0.528 1.476,-1.875 1.476,-4.416 0,-2.544 -0.534,-13.113 -16.854,-13.113 -16.32,0 -23.547,15.252 -23.547,27.831 0,12.576 7.755,35.586 33.183,35.586 14.787,0 17.919,-8.304 17.919,-8.304 h 5.082 V 99.936 H 61.389 c -33.174,0 -51.642,-25.962 -51.642,-44.688 0,-28.716 24.972,-44.652 47.631,-44.652 21.939,0.003 35.178,16.767 35.178,16.767 z"
       id="path4817"
       inkscape:connector-curvature="0" />
    <path
       style="clip-rule:evenodd;fill:#aa0000;fill-opacity:1;fill-rule:evenodd"
       d="m 139.389,12.981 h 22.875 l 27.831,72.777 c 0.795,2.001 2.133,3.885 3.471,5.484 1.332,1.605 4.545,2.682 4.545,2.682 v 6.279 h -33.57 v -6.42 c 0,0 2.136,0.273 3.21,-1.602 1.068,-1.875 1.068,-3.345 0.27,-5.214 -0.804,-1.878 -6.435,-16.725 -6.435,-16.725 h -27.42 c 0,0 -5.613,14.982 -6.156,16.317 -0.537,1.338 -0.537,3.483 0,4.815 0.891,2.226 4.017,2.553 4.017,2.553 v 6.279 h -26.895 v -6.279 c 0,0 2.448,-0.843 4.281,-2.682 2.007,-2.007 2.673,-4.152 2.673,-4.152 z m -0.675,43.611 h 17.664 l -9.096,-25.416 z"
       id="path4819"
       inkscape:connector-curvature="0" />
    <path
       style="clip-rule:evenodd;fill:#aa0000;fill-opacity:1;fill-rule:evenodd"
       d="m 208.815,12.981 c 0,0 27.024,0 42.813,0 15.786,0 31.569,5.613 31.569,23.805 0,18.198 -11.505,24.621 -21.402,29.172 -11.427,5.25 -26.487,9.369 -26.487,9.369 v 13.908 c 0,0 0.135,0.939 1.467,2.532 1.344,1.608 2.814,2.013 2.814,2.013 v 6.42 h -31.038 v -6.279 c 0,0 1.869,-0.408 3.216,-1.743 1.332,-1.338 1.605,-2.943 1.605,-2.943 v -62.88 c 0,0 0.123,-2.676 -0.939,-3.741 -1.071,-1.08 -3.615,-2.547 -3.615,-2.547 v -7.086 z m 26.757,13.107 v 37.191 c 0,0 25.149,-10.431 25.149,-25.149 0,-18.195 -25.149,-12.042 -25.149,-12.042 z"
       id="path4821"
       inkscape:connector-curvature="0" />
    <path
       style="clip-rule:evenodd;fill:#aa0000;fill-opacity:1;fill-rule:evenodd"
       d="m 375.915,27.516 -15.117,15.846 c 0,0 -0.804,0.402 -1.476,0.402 -0.663,0 -1.599,-0.669 -1.599,-0.669 l -1.878,-1.611 c 0,0 -0.534,-0.126 -0.534,-0.657 0,-0.54 1.467,-1.884 1.467,-4.416 0,-2.547 -0.528,-13.116 -16.854,-13.116 -16.323,0 -23.547,15.249 -23.547,27.828 0,12.567 7.761,35.583 33.186,35.583 14.787,0 17.922,-8.298 17.922,-8.298 h 5.088 v 21.675 h -27.837 c -33.171,0 -51.639,-25.953 -51.639,-44.682 0,-28.713 24.966,-44.655 47.628,-44.655 21.942,0 35.19,16.77 35.19,16.77 z"
       id="path4823"
       inkscape:connector-curvature="0" />
    <path
       style="clip-rule:evenodd;fill:#aa0000;fill-opacity:1;fill-rule:evenodd"
       d="m 430.098,102.714 c -28.902,0 -49.674,-21.105 -49.674,-46.785 0,-25.698 21.309,-45.6 49.674,-45.6 28.353,0 49.665,19.902 49.665,45.6 0,25.677 -20.775,46.785 -49.665,46.785 z M 404.406,56.325 c 0,25.686 13.11,32.109 25.692,32.109 12.567,0 25.953,-8.028 25.953,-32.109 0,-24.078 -14.985,-32.109 -25.953,-32.109 -10.971,0 -25.692,6.417 -25.692,32.109 z"
       id="path4825"
       inkscape:connector-curvature="0" />
    <path
       style="clip-rule:evenodd;fill:#aa0000;fill-opacity:1;fill-rule:evenodd"
       d="m 492.702,13.035 h 31.845 l 11.505,35.532 12.303,-35.586 h 33.306 v 5.211 c 0,0 -2.214,0.939 -3.198,2.145 -1.206,1.473 -1.206,2.541 -0.939,4.686 0.267,2.136 8.826,60.201 9.096,62.343 0.273,2.142 0.534,3.345 1.068,4.818 0.531,1.458 3.081,2.67 3.081,2.67 v 5.397 h -31.98 v -5.796 c 0,0 2.811,-0.399 3.753,-1.743 0.936,-1.341 1.332,-2.145 1.068,-4.278 -0.27,-2.142 -7.89,-50.838 -7.89,-50.838 l -13.914,43.077 h -16.857 l -13.785,-40.41 -6.954,47.631 c 0,0 -0.27,2.859 0.804,4.419 1.47,2.142 4.155,2.142 4.155,2.142 v 5.748 h -27.705 v -6.147 c 0,0 2.205,-0.339 3.81,-2.214 1.602,-1.869 1.875,-4.284 1.875,-4.284 L 497.253,24.75 c 0,0 0.609,-2.346 -0.066,-3.411 -0.705,-1.128 -4.485,-2.073 -4.485,-2.073 z"
       id="path4827"
       inkscape:connector-curvature="0" />
  </g>
</svg>
