<?xml version="1.0" encoding="UTF-8" standalone="no"?>
<svg
   xmlns:dc="http://purl.org/dc/elements/1.1/"
   xmlns:cc="http://creativecommons.org/ns#"
   xmlns:rdf="http://www.w3.org/1999/02/22-rdf-syntax-ns#"
   xmlns:svg="http://www.w3.org/2000/svg"
   xmlns="http://www.w3.org/2000/svg"
   xmlns:sodipodi="http://sodipodi.sourceforge.net/DTD/sodipodi-0.dtd"
   xmlns:inkscape="http://www.inkscape.org/namespaces/inkscape"
   version="1.1"
   id="svg23"
   sodipodi:docname="cps3.svg"
   inkscape:version="0.92.5 (2060ec1f9f, 2020-04-08)"
   width="138.09235"
   height="34">
  <metadata
     id="metadata29">
    <rdf:RDF>
      <cc:Work
         rdf:about="">
        <dc:format>image/svg+xml</dc:format>
        <dc:type
           rdf:resource="http://purl.org/dc/dcmitype/StillImage" />
        <dc:title></dc:title>
      </cc:Work>
    </rdf:RDF>
  </metadata>
  <defs
     id="defs27" />
  <sodipodi:namedview
     pagecolor="#ffffff"
     bordercolor="#666666"
     borderopacity="1"
     objecttolerance="10"
     gridtolerance="10"
     guidetolerance="10"
     inkscape:pageopacity="0"
     inkscape:pageshadow="2"
     inkscape:window-width="1440"
     inkscape:window-height="837"
     id="namedview25"
     showgrid="false"
     inkscape:zoom="0.98083333"
     inkscape:cx="46.23045"
     inkscape:cy="69.406042"
     inkscape:window-x="0"
     inkscape:window-y="0"
     inkscape:window-maximized="1"
     inkscape:current-layer="svg23"
     fit-margin-top="0"
     fit-margin-left="0"
     fit-margin-right="0"
     fit-margin-bottom="0" />
  <g
     transform="scale(0.2301539,0.2291522)"
     id="g21"
     style="fill:#aa0000">
    <path
       d="m 144.2,133.028 c 0,1.001 -0.177,1.983 -0.527,2.943 -0.35,0.952 -0.849,1.754 -1.499,2.401 -0.889,0.88 -1.887,1.546 -2.987,1.999 -1.09,0.449 -2.45,0.675 -4.086,0.675 h -3.584 v 7.277 h -5.763 v -22.349 h 9.486 c 1.419,0 2.618,0.124 3.585,0.375 0.982,0.239 1.849,0.604 2.599,1.097 0.901,0.591 1.583,1.347 2.054,2.264 0.483,0.92 0.722,2.03 0.722,3.318 z m -5.958,0.137 c 0,-0.629 -0.173,-1.171 -0.511,-1.621 -0.341,-0.461 -0.737,-0.783 -1.186,-0.963 -0.601,-0.242 -1.187,-0.369 -1.76,-0.39 -0.564,-0.028 -1.326,-0.044 -2.277,-0.044 h -0.991 v 6.695 h 1.651 c 0.982,0 1.784,-0.062 2.416,-0.18 0.638,-0.121 1.174,-0.359 1.608,-0.722 0.369,-0.319 0.632,-0.7 0.796,-1.14 0.168,-0.452 0.254,-0.997 0.254,-1.635 z"
       style="font-style:normal;font-variant:normal;font-weight:bold;font-stretch:normal;font-size:medium;line-height:125%;font-family:sans-serif;-inkscape-font-specification:'sans-serif Bold';letter-spacing:7.03102636px;word-spacing:0px;fill:#aa0000;fill-opacity:1;stroke:none;stroke-width:1px;stroke-linecap:butt;stroke-linejoin:miter;stroke-opacity:1"
       id="path4793"
       inkscape:connector-curvature="0" />
    <path
       d="m 170.124,148.323 h -16.122 v -22.349 h 5.762 v 18.027 h 10.36 z"
       style="font-style:normal;font-variant:normal;font-weight:bold;font-stretch:normal;font-size:medium;line-height:125%;font-family:sans-serif;-inkscape-font-specification:'sans-serif Bold';letter-spacing:7.03102636px;word-spacing:0px;fill:#aa0000;fill-opacity:1;stroke:none;stroke-width:1px;stroke-linecap:butt;stroke-linejoin:miter;stroke-opacity:1"
       id="path4795"
       inkscape:connector-curvature="0" />
    <path
       d="m 206.962,148.323 h -5.96 l -1.909,-4.517 h -11.335 l -2.017,4.517 h -5.809 l 10.196,-22.349 h 6.639 z m -9.591,-8.615 -4,-8.012 -3.965,8.012 z"
       style="font-style:normal;font-variant:normal;font-weight:bold;font-stretch:normal;font-size:medium;line-height:125%;font-family:sans-serif;-inkscape-font-specification:'sans-serif Bold';letter-spacing:7.03102636px;word-spacing:0px;fill:#aa0000;fill-opacity:1;stroke:none;stroke-width:1px;stroke-linecap:butt;stroke-linejoin:miter;stroke-opacity:1"
       id="path4797"
       inkscape:connector-curvature="0" />
    <path
       d="m 228.964,125.974 -8.603,13.706 v 8.643 h -5.765 v -8.374 l -8.811,-13.975 h 6.546 l 5.27,8.644 5.025,-8.644 z"
       style="font-style:normal;font-variant:normal;font-weight:bold;font-stretch:normal;font-size:medium;line-height:125%;font-family:sans-serif;-inkscape-font-specification:'sans-serif Bold';letter-spacing:7.03102636px;word-spacing:0px;fill:#aa0000;fill-opacity:1;stroke:none;stroke-width:1px;stroke-linecap:butt;stroke-linejoin:miter;stroke-opacity:1"
       id="path4799"
       inkscape:connector-curvature="0" />
    <path
       d="m 269.92,140.897 c 0,2.197 -0.939,3.991 -2.807,5.372 -1.862,1.37 -4.393,2.054 -7.593,2.054 -1.856,0 -3.47,-0.158 -4.848,-0.48 -1.373,-0.331 -2.662,-0.744 -3.861,-1.245 l 1.85,-4.319 c 0.725,0.415 1.964,0.871 2.776,1.152 1.477,0.512 2.899,0.766 4.259,0.766 0.354,0 0.809,-0.031 1.382,-0.09 0.57,-0.062 1.038,-0.158 1.397,-0.301 0.44,-0.179 0.8,-0.406 1.082,-0.678 0.291,-0.267 0.433,-0.669 0.433,-1.196 0,-0.489 -0.21,-0.911 -0.629,-1.261 -0.412,-0.359 -1.016,-0.638 -1.815,-0.827 -0.843,-0.198 -1.732,-0.387 -2.674,-0.558 -0.929,-0.179 -1.806,-0.402 -2.627,-0.672 -1.88,-0.613 -3.237,-1.434 -4.067,-2.475 -0.818,-1.054 -1.23,-2.352 -1.23,-3.907 0,-2.079 0.929,-3.773 2.791,-5.087 1.871,-1.323 4.275,-1.979 7.203,-1.979 1.471,0 2.924,0.145 4.356,0.43 1.44,0.282 2.689,0.638 3.736,1.069 l -2.429,3.993 c -0.468,-0.235 -0.97,-0.452 -1.506,-0.647 -1.298,-0.49 -2.63,-0.734 -3.99,-0.734 -0.483,0 -0.963,0.034 -1.44,0.105 -0.471,0.059 -0.927,0.183 -1.367,0.359 -0.39,0.152 -0.725,0.381 -1.006,0.691 -0.279,0.301 -0.422,0.645 -0.422,1.035 0,0.592 0.226,1.047 0.676,1.366 0.452,0.313 1.304,0.598 2.552,0.858 0.821,0.168 1.605,0.332 2.358,0.493 0.762,0.161 1.577,0.381 2.444,0.66 1.713,0.561 2.977,1.329 3.783,2.299 0.821,0.96 1.233,2.208 1.233,3.754 z"
       style="font-style:normal;font-variant:normal;font-weight:bold;font-stretch:normal;font-size:medium;line-height:125%;font-family:sans-serif;-inkscape-font-specification:'sans-serif Bold';letter-spacing:7.03102636px;word-spacing:0px;fill:#aa0000;fill-opacity:1;stroke:none;stroke-width:1px;stroke-linecap:butt;stroke-linejoin:miter;stroke-opacity:1"
       id="path4801"
       inkscape:connector-curvature="0" />
    <path
       d="m 351.422,130.296 h -6.98 v 18.027 h -5.762 v -18.027 h -6.983 v -4.322 h 19.725 z"
       style="font-style:normal;font-variant:normal;font-weight:bold;font-stretch:normal;font-size:medium;line-height:125%;font-family:sans-serif;-inkscape-font-specification:'sans-serif Bold';letter-spacing:7.03102636px;word-spacing:0px;fill:#aa0000;fill-opacity:1;stroke:none;stroke-width:1px;stroke-linecap:butt;stroke-linejoin:miter;stroke-opacity:1"
       id="path4803"
       inkscape:connector-curvature="0" />
    <path
       d="m 375.924,148.323 h -17.19 v -22.349 h 17.19 v 4.322 h -11.456 v 3.857 h 10.707 v 4.322 h -10.707 v 5.526 h 11.456 z"
       style="font-style:normal;font-variant:normal;font-weight:bold;font-stretch:normal;font-size:medium;line-height:125%;font-family:sans-serif;-inkscape-font-specification:'sans-serif Bold';letter-spacing:7.03102636px;word-spacing:0px;fill:#aa0000;fill-opacity:1;stroke:none;stroke-width:1px;stroke-linecap:butt;stroke-linejoin:miter;stroke-opacity:1"
       id="path4805"
       inkscape:connector-curvature="0" />
    <path
       d="m 414.368,148.323 h -6.042 l -0.514,-10.772 -6.236,10.769 h -3.978 l -6.242,-10.769 -0.512,10.772 h -5.74 l 0.818,-22.349 h 5.619 l 8.201,15.447 8.188,-15.447 h 5.617 z"
       style="font-style:normal;font-variant:normal;font-weight:bold;font-stretch:normal;font-size:medium;line-height:125%;font-family:sans-serif;-inkscape-font-specification:'sans-serif Bold';letter-spacing:7.03102636px;word-spacing:0px;fill:#aa0000;fill-opacity:1;stroke:none;stroke-width:1px;stroke-linecap:butt;stroke-linejoin:miter;stroke-opacity:1"
       id="path4807"
       inkscape:connector-curvature="0" />
    <path
       id="path4809"
       style="font-style:normal;font-variant:normal;font-weight:bold;font-stretch:normal;font-size:medium;line-height:125%;font-family:sans-serif;-inkscape-font-specification:'sans-serif Bold';letter-spacing:7.03102636px;word-spacing:0px;fill:#aa0000;fill-opacity:1;stroke:none;stroke-width:1px;stroke-linecap:butt;stroke-linejoin:miter;stroke-opacity:1"
       d="m 299.686,125.974 -8.601,13.706 v 8.643 h -5.768 v -8.374 l -8.808,-13.975 h 6.546 l 5.267,8.644 5.031,-8.644 z"
       inkscape:connector-curvature="0" />
    <path
       id="path4811"
       style="font-style:normal;font-variant:normal;font-weight:bold;font-stretch:normal;font-size:medium;line-height:125%;font-family:sans-serif;-inkscape-font-specification:'sans-serif Bold';letter-spacing:7.03102636px;word-spacing:0px;fill:#aa0000;fill-opacity:1;stroke:none;stroke-width:1px;stroke-linecap:butt;stroke-linejoin:miter;stroke-opacity:1"
       d="m 324.24,140.897 c 0,2.197 -0.935,3.991 -2.803,5.372 -1.862,1.37 -4.396,2.054 -7.597,2.054 -1.849,0 -3.466,-0.158 -4.848,-0.48 -1.372,-0.331 -2.658,-0.744 -3.857,-1.245 l 1.849,-4.319 c 0.725,0.415 1.965,0.871 2.773,1.152 1.481,0.512 2.903,0.766 4.266,0.766 0.35,0 0.809,-0.031 1.379,-0.09 0.57,-0.062 1.034,-0.158 1.397,-0.301 0.44,-0.179 0.799,-0.406 1.081,-0.678 0.291,-0.267 0.434,-0.669 0.434,-1.196 0,-0.489 -0.211,-0.911 -0.632,-1.261 -0.409,-0.359 -1.016,-0.638 -1.816,-0.827 -0.839,-0.198 -1.728,-0.387 -2.67,-0.558 -0.933,-0.179 -1.806,-0.402 -2.63,-0.672 -1.878,-0.613 -3.235,-1.434 -4.065,-2.475 -0.821,-1.054 -1.233,-2.352 -1.233,-3.907 0,-2.079 0.933,-3.773 2.795,-5.087 1.871,-1.323 4.272,-1.979 7.202,-1.979 1.472,0 2.925,0.145 4.353,0.43 1.444,0.282 2.689,0.638 3.736,1.069 l -2.425,3.993 c -0.468,-0.235 -0.97,-0.452 -1.503,-0.647 -1.301,-0.49 -2.633,-0.734 -3.996,-0.734 -0.481,0 -0.961,0.034 -1.438,0.105 -0.471,0.059 -0.926,0.183 -1.366,0.359 -0.39,0.152 -0.728,0.381 -1.007,0.691 -0.282,0.301 -0.421,0.645 -0.421,1.035 0,0.592 0.226,1.047 0.675,1.366 0.452,0.313 1.301,0.598 2.55,0.858 0.824,0.168 1.611,0.332 2.36,0.493 0.759,0.161 1.577,0.381 2.445,0.66 1.713,0.561 2.974,1.329 3.782,2.299 0.821,0.96 1.23,2.208 1.23,3.754 z"
       inkscape:connector-curvature="0" />
    <path
       style="color:#000000;clip-rule:nonzero;display:inline;overflow:visible;visibility:visible;opacity:1;isolation:auto;mix-blend-mode:normal;color-interpolation:sRGB;color-interpolation-filters:linearRGB;fill:#aa0000;fill-opacity:1;fill-rule:evenodd;stroke:none;stroke-width:1px;stroke-linecap:butt;stroke-linejoin:miter;stroke-miterlimit:4;stroke-dasharray:none;stroke-dashoffset:0;stroke-opacity:1;color-rendering:auto;image-rendering:auto;shape-rendering:auto;text-rendering:auto"
       d="m 433.972,126.03 v 1.19 h 0.031 c 0.099,0 4.548,0.08 4.548,1.951 v 16.067 c 0,1.078 -2.03,1.945 -4.548,1.945 h -0.031 v 1.19 h 6.019 1.611 6.02 v -1.19 h -0.031 c -2.522,0 -4.551,-0.867 -4.551,-1.945 v -16.067 c 0,-1.871 4.451,-1.951 4.551,-1.951 h 0.031 v -1.19 h -6.02 -1.611 z"
       id="path4783"
       inkscape:connector-curvature="0" />
    <path
       style="clip-rule:evenodd;fill:#aa0000;fill-opacity:1;fill-rule:evenodd"
       d="M 85.511,17.59 69.906,33.951 c 0,0 -0.827,0.421 -1.518,0.421 -0.693,0 -1.663,-0.697 -1.663,-0.697 l -1.933,-1.648 c 0,0 -0.555,-0.133 -0.555,-0.694 0,-0.545 1.524,-1.936 1.524,-4.56 0,-2.627 -0.551,-13.541 -17.407,-13.541 -16.85,0 -24.313,15.75 -24.313,28.74 0,12.987 8.008,36.748 34.267,36.748 15.27,0 18.501,-8.575 18.501,-8.575 H 82.06 V 92.531 H 53.326 C 19.068,92.531 0,65.724 0,46.386 0,16.729 25.782,0.276 49.184,0.276 71.84,0.279 85.511,17.59 85.511,17.59 Z"
       id="path4817"
       inkscape:connector-curvature="0" />
    <path
       style="clip-rule:evenodd;fill:#aa0000;fill-opacity:1;fill-rule:evenodd"
       d="m 133.874,2.739 h 23.622 l 28.737,75.157 c 0.825,2.064 2.209,4.009 3.588,5.657 1.376,1.661 4.693,2.773 4.693,2.773 v 6.484 h -34.666 v -6.63 c 0,0 2.206,0.285 3.315,-1.657 1.103,-1.933 1.103,-3.451 0.278,-5.381 -0.83,-1.94 -6.645,-17.272 -6.645,-17.272 H 128.48 c 0,0 -5.796,15.472 -6.357,16.853 -0.551,1.379 -0.551,3.594 0,4.97 0.92,2.298 4.149,2.636 4.149,2.636 v 6.484 H 98.498 v -6.484 c 0,0 2.525,-0.871 4.421,-2.773 2.072,-2.069 2.76,-4.281 2.76,-4.281 z m -0.697,45.035 h 18.241 l -9.393,-26.249 z"
       id="path4819"
       inkscape:connector-curvature="0" />
    <path
       style="clip-rule:evenodd;fill:#aa0000;fill-opacity:1;fill-rule:evenodd"
       d="m 205.568,2.739 c 0,0 27.907,0 44.212,0 16.301,0 32.597,5.796 32.597,24.582 0,18.79 -11.878,25.429 -22.098,30.128 -11.803,5.419 -27.352,9.669 -27.352,9.669 v 14.366 c 0,0 0.139,0.969 1.518,2.614 1.381,1.661 2.902,2.079 2.902,2.079 v 6.63 h -32.051 v -6.481 c 0,0 1.93,-0.421 3.321,-1.803 1.372,-1.382 1.654,-3.039 1.654,-3.039 V 16.55 c 0,0 0.127,-2.767 -0.967,-3.864 -1.103,-1.115 -3.733,-2.63 -3.733,-2.63 V 2.739 Z m 27.631,13.535 v 38.403 c 0,0 25.974,-10.769 25.974,-25.968 0,-18.789 -25.974,-12.435 -25.974,-12.435 z"
       id="path4821"
       inkscape:connector-curvature="0" />
    <path
       style="clip-rule:evenodd;fill:#aa0000;fill-opacity:1;fill-rule:evenodd"
       d="m 378.124,17.748 -15.608,16.364 c 0,0 -0.83,0.415 -1.524,0.415 -0.685,0 -1.651,-0.694 -1.651,-0.694 l -1.94,-1.66 c 0,0 -0.551,-0.127 -0.551,-0.679 0,-0.557 1.515,-1.948 1.515,-4.56 0,-2.627 -0.545,-13.544 -17.405,-13.544 -16.859,0 -24.316,15.744 -24.316,28.734 0,12.98 8.015,36.751 34.27,36.751 15.27,0 18.508,-8.569 18.508,-8.569 h 5.251 v 22.377 h -28.744 c -34.254,0 -53.325,-26.795 -53.325,-46.142 0,-29.648 25.781,-46.11 49.183,-46.11 22.659,0 36.337,17.317 36.337,17.317 z"
       id="path4823"
       inkscape:connector-curvature="0" />
    <path
       style="clip-rule:evenodd;fill:#aa0000;fill-opacity:1;fill-rule:evenodd"
       d="m 434.08,95.403 c -29.846,0 -51.297,-21.794 -51.297,-48.313 0,-26.538 22.005,-47.09 51.297,-47.09 29.279,0 51.288,20.552 51.288,47.09 0,26.516 -21.454,48.313 -51.288,48.313 z M 407.549,47.499 c 0,26.528 13.538,33.154 26.531,33.154 12.978,0 26.801,-8.287 26.801,-33.154 0,-24.865 -15.475,-33.158 -26.801,-33.158 -11.329,0 -26.531,6.623 -26.531,33.158 z"
       id="path4825"
       inkscape:connector-curvature="0" />
    <path
       style="clip-rule:evenodd;fill:#aa0000;fill-opacity:1;fill-rule:evenodd"
       d="m 498.726,2.794 h 32.889 L 543.495,39.487 556.2,2.739 h 34.398 v 5.384 c 0,0 -2.29,0.967 -3.306,2.212 -1.242,1.521 -1.242,2.621 -0.97,4.842 0.276,2.203 9.115,62.165 9.393,64.377 0.282,2.212 0.552,3.454 1.103,4.975 0.552,1.506 3.182,2.757 3.182,2.757 v 5.574 h -33.025 v -5.986 c 0,0 2.9,-0.412 3.876,-1.8 0.966,-1.384 1.375,-2.212 1.103,-4.421 -0.279,-2.208 -8.148,-52.495 -8.148,-52.495 L 549.437,72.642 H 532.03 l -14.236,-41.73 -7.181,49.187 c 0,0 -0.279,2.952 0.831,4.563 1.518,2.212 4.29,2.212 4.29,2.212 v 5.936 h -28.61 v -6.345 c 0,0 2.28,-0.35 3.935,-2.292 1.654,-1.927 1.936,-4.421 1.936,-4.421 l 10.434,-64.86 c 0,0 0.626,-2.426 -0.068,-3.522 -0.728,-1.165 -4.632,-2.144 -4.632,-2.144 V 2.794 Z"
       id="path4827"
       inkscape:connector-curvature="0" />
    <path
       style="color:#000000;clip-rule:nonzero;display:inline;overflow:visible;visibility:visible;opacity:1;isolation:auto;mix-blend-mode:normal;color-interpolation:sRGB;color-interpolation-filters:linearRGB;fill:#aa0000;fill-opacity:1;fill-rule:evenodd;stroke:none;stroke-width:1px;stroke-linecap:butt;stroke-linejoin:miter;stroke-miterlimit:4;stroke-dasharray:none;stroke-dashoffset:0;stroke-opacity:1;color-rendering:auto;image-rendering:auto;shape-rendering:auto;text-rendering:auto"
       d="m 447.631,126.03 v 1.19 h 0.031 c 0.099,0 4.548,0.08 4.548,1.951 v 16.067 c 0,1.078 -2.03,1.945 -4.548,1.945 h -0.031 v 1.19 h 6.016 1.611 6.02 v -1.19 h -0.031 c -2.519,0 -4.548,-0.867 -4.548,-1.945 v -16.067 c 0,-1.871 4.448,-1.951 4.548,-1.951 h 0.031 v -1.19 h -6.02 -1.611 z"
       id="path-1"
       inkscape:connector-curvature="0" />
    <path
       style="color:#000000;clip-rule:nonzero;display:inline;overflow:visible;visibility:visible;opacity:1;isolation:auto;mix-blend-mode:normal;color-interpolation:sRGB;color-interpolation-filters:linearRGB;fill:#aa0000;fill-opacity:1;fill-rule:evenodd;stroke:none;stroke-width:1px;stroke-linecap:butt;stroke-linejoin:miter;stroke-miterlimit:4;stroke-dasharray:none;stroke-dashoffset:0;stroke-opacity:1;color-rendering:auto;image-rendering:auto;shape-rendering:auto;text-rendering:auto"
       d="m 461.287,126.03 v 1.19 h 0.031 c 0.099,0 4.548,0.08 4.548,1.951 v 16.067 c 0,1.078 -2.026,1.945 -4.548,1.945 h -0.031 v 1.19 h 6.019 1.611 6.017 v -1.19 h -0.028 c -2.522,0 -4.551,-0.867 -4.551,-1.945 v -16.067 c 0,-1.871 4.448,-1.951 4.551,-1.951 h 0.028 v -1.19 h -6.017 -1.611 z"
       id="path-2"
       inkscape:connector-curvature="0" />
  </g>
</svg>
