<?xml version="1.0" encoding="UTF-8" standalone="no"?>
<svg
   xmlns:dc="http://purl.org/dc/elements/1.1/"
   xmlns:cc="http://creativecommons.org/ns#"
   xmlns:rdf="http://www.w3.org/1999/02/22-rdf-syntax-ns#"
   xmlns:svg="http://www.w3.org/2000/svg"
   xmlns="http://www.w3.org/2000/svg"
   xmlns:sodipodi="http://sodipodi.sourceforge.net/DTD/sodipodi-0.dtd"
   xmlns:inkscape="http://www.inkscape.org/namespaces/inkscape"
   viewBox="0 0 170 34"
   version="1.1"
   id="svg6"
   sodipodi:docname="custom-collections.svg"
   inkscape:version="0.92.5 (2060ec1f9f, 2020-04-08)"
   width="170"
   height="34">
  <metadata
     id="metadata12">
    <rdf:RDF>
      <cc:Work
         rdf:about="">
        <dc:format>image/svg+xml</dc:format>
        <dc:type
           rdf:resource="http://purl.org/dc/dcmitype/StillImage" />
        <dc:title></dc:title>
      </cc:Work>
    </rdf:RDF>
  </metadata>
  <defs
     id="defs10" />
  <sodipodi:namedview
     pagecolor="#ffffff"
     bordercolor="#666666"
     borderopacity="1"
     objecttolerance="10"
     gridtolerance="10"
     guidetolerance="10"
     inkscape:pageopacity="0"
     inkscape:pageshadow="2"
     inkscape:window-width="1440"
     inkscape:window-height="837"
     id="namedview8"
     showgrid="false"
     inkscape:zoom="2.0806617"
     inkscape:cx="60.223255"
     inkscape:cy="68.53393"
     inkscape:window-x="0"
     inkscape:window-y="0"
     inkscape:window-maximized="1"
     inkscape:current-layer="svg6"
     fit-margin-top="0"
     fit-margin-left="0"
     fit-margin-right="0"
     fit-margin-bottom="0" />
  <path
     d="m 10.5315,11.7555 v 0 l -0.408,4.284 v 0 c -1.088,0.442 -2.465,0.663 -4.131,0.663 v 0 0 c -2.142,0 -3.67795,-0.4165 -4.607,-1.2495 v 0 0 C 0.46155,14.62 0,13.3365 0,11.6025 v 0 0 C 0,10.8715 0.119,9.792 0.357,8.364 v 0 0 C 0.867,5.44 1.74505,3.315 2.992,1.989 v 0 0 C 4.24405,0.663 6.222,0 8.925,0 v 0 0 c 0.629,0 1.34895,0.06545 2.159,0.1955 v 0 0 c 0.80495,0.12495 1.394,0.2805 1.768,0.4675 v 0 l -1.428,3.9015 v 0 C 10.421,4.3265 9.48345,4.2075 8.6105,4.2075 v 0 0 c -0.87805,0 -1.5045,0.085 -1.8785,0.255 v 0 0 c -0.374,0.17 -0.6035,0.51 -0.6885,1.02 v 0 l -1.173,6.681 v 0 c 0.612,0.136 1.241,0.204 1.887,0.204 v 0 0 c 1.377,0 2.635,-0.204 3.774,-0.612 z m 4.233,-11.373 h 4.845 L 17.493,12.342 h 1.734 v 0 c 0.595,0 1.02,-0.07905 1.275,-0.238 v 0 0 c 0.255,-0.16405 0.4335,-0.5355 0.5355,-1.1135 v 0 l 1.887,-10.608 h 4.845 l -1.581,8.9505 v 0 c -0.255,1.445 -0.54995,2.6095 -0.884,3.4935 v 0 0 c -0.32895,0.884 -0.7905,1.632 -1.3855,2.244 v 0 0 c -0.595,0.612 -1.33195,1.037 -2.21,1.275 v 0 0 c -0.87295,0.238 -1.9805,0.357 -3.3235,0.357 v 0 0 c -2.057,0 -3.49945,-0.31195 -4.3265,-0.935 v 0 0 c -0.82195,-0.61795 -1.2325,-1.683 -1.2325,-3.196 v 0 0 c 0,-0.833 0.119,-1.9125 0.357,-3.2385 v 0 z m 12.57065,15.657 v 0 l 1.428,-4.2075 v 0 c 1.428,0.391 2.737,0.5865 3.927,0.5865 v 0 0 c 1.19,0 2.1505,-0.051 2.8815,-0.153 v 0 l 0.204,-1.275 -2.1165,-0.204 v 0 c -1.615,-0.153 -2.7591,-0.5185 -3.434,-1.0965 v 0 0 c -0.6681,-0.578 -1.003,-1.394 -1.003,-2.448 v 0 0 c 0,-0.459 0.051,-0.969 0.153,-1.53 v 0 0 c 0.391,-2.176 1.0999,-3.672 2.125,-4.488 v 0 0 C 32.53205,0.408 34.12665,0 36.28565,0 v 0 0 c 2.159,0 4.063,0.2125 5.712,0.6375 v 0 l -1.326,4.08 v 0 c -1.479,-0.255 -2.669,-0.3825 -3.57,-0.3825 v 0 0 c -0.901,0 -1.666,0.0425 -2.295,0.1275 v 0 l -0.204,1.2495 1.7085,0.1785 v 0 c 1.734,0.187 2.9665,0.60095 3.6975,1.241 v 0 0 c 0.731,0.63495 1.0965,1.4875 1.0965,2.5585 v 0 0 c 0,1.088 -0.238,2.21 -0.714,3.366 v 0 0 c -0.238,0.595 -0.4981,1.09395 -0.782,1.496 v 0 0 c -0.2771,0.39695 -0.6341,0.73355 -1.071,1.0115 v 0 0 c -0.4301,0.28305 -0.8245,0.49555 -1.1815,0.6375 v 0 0 c -0.357,0.14705 -0.8075,0.255 -1.3515,0.323 v 0 0 c -0.799,0.119 -1.7765,0.1785 -2.9325,0.1785 v 0 0 c -2.108,0 -4.0205,-0.221 -5.7375,-0.663 z m 28.6365,-15.657 -0.7395,4.08 h -3.519 L 49.64765,16.32 h -4.845 l 2.0655,-11.8575 h -3.4935 l 0.7395,-4.08 z m 5.5845,5.3295 v 0 l -1.173,6.63 h 2.0145 v 0 c 0.663,0 1.156,-0.07905 1.479,-0.238 v 0 0 c 0.323,-0.16405 0.5355,-0.5355 0.6375,-1.1135 v 0 l 1.173,-6.63 h -2.04 v 0 c -0.646,0 -1.1305,0.07905 -1.4535,0.238 v 0 0 c -0.323,0.16405 -0.5355,0.5355 -0.6375,1.1135 z M 64.48865,0 v 0 0 c 2.159,0 3.6975,0.42245 4.6155,1.2665 v 0 0 c 0.918,0.83895 1.377,2.1335 1.377,3.8845 v 0 0 c 0,1.751 -0.27795,3.58445 -0.833,5.4995 v 0 0 c -0.54995,1.90995 -1.42545,3.39405 -2.6265,4.454 v 0 0 c -1.19595,1.06505 -2.94695,1.598 -5.253,1.598 v 0 0 c -2.30095,0 -3.91,-0.41905 -4.828,-1.258 v 0 0 c -0.918,-0.84405 -1.377,-2.142 -1.377,-3.893 v 0 0 c 0,-0.833 0.119,-1.93205 0.357,-3.298 v 0 0 c 0.238,-1.37105 0.5525,-2.55255 0.9435,-3.5445 v 0 0 c 0.391,-0.99705 0.918,-1.8615 1.581,-2.5925 v 0 0 C 59.72015,0.7055 61.73465,0 64.48865,0 Z m 13.0305,8.5935 -1.6575,7.7265 h -5.049 l 3.723,-15.9375 h 6.324 l 0.459,8.109 h 0.1785 l 3.315,-8.109 h 6.324 l -1.887,15.9375 h -5.0745 l 1.071,-7.7265 h -0.1785 l -3.1875,7.7265 h -3.6975 l -0.5355,-7.7265 z"
     style="white-space:pre;fill:#aa0000;stroke-width:0.85000002"
     id="path2"
     inkscape:connector-curvature="0" />
  <path
     d="m 36.7897,29.053 v 0 l -0.408,4.284 v 0 C 35.2937,33.779 33.9167,34 32.2507,34 v 0 0 c -2.142,0 -3.67795,-0.4165 -4.607,-1.2495 v 0 0 C 26.71975,31.9175 26.2582,30.634 26.2582,28.9 v 0 0 c 0,-0.731 0.119,-1.8105 0.357,-3.2385 v 0 0 c 0.51,-2.924 1.38805,-5.049 2.635,-6.375 v 0 0 c 1.25205,-1.326 3.23,-1.989 5.933,-1.989 v 0 0 c 0.629,0 1.34895,0.06545 2.159,0.1955 v 0 0 c 0.80495,0.12495 1.394,0.2805 1.768,0.4675 v 0 l -1.428,3.9015 v 0 c -1.003,-0.238 -1.94055,-0.357 -2.8135,-0.357 v 0 0 c -0.87805,0 -1.5045,0.085 -1.8785,0.255 v 0 0 c -0.374,0.17 -0.6035,0.51 -0.6885,1.02 v 0 l -1.173,6.681 v 0 c 0.612,0.136 1.241,0.204 1.887,0.204 v 0 0 c 1.377,0 2.635,-0.204 3.774,-0.612 z m 8.1345,-6.0435 v 0 l -1.173,6.63 h 2.0145 v 0 c 0.663,0 1.156,-0.07905 1.479,-0.238 v 0 0 c 0.323,-0.16405 0.5355,-0.5355 0.6375,-1.1135 v 0 l 1.173,-6.63 h -2.04 v 0 c -0.646,0 -1.1305,0.07905 -1.4535,0.238 v 0 0 c -0.323,0.16405 -0.5355,0.5355 -0.6375,1.1135 z m 2.9325,-5.712 v 0 0 c 2.159,0 3.6975,0.42245 4.6155,1.2665 v 0 0 c 0.918,0.83895 1.377,2.1335 1.377,3.8845 v 0 0 c 0,1.751 -0.27795,3.58445 -0.833,5.4995 v 0 0 c -0.54995,1.90995 -1.42545,3.39405 -2.6265,4.454 v 0 0 C 49.19375,33.46705 47.44275,34 45.1367,34 v 0 0 c -2.30095,0 -3.91,-0.41905 -4.828,-1.258 v 0 0 c -0.918,-0.84405 -1.377,-2.142 -1.377,-3.893 v 0 0 c 0,-0.833 0.119,-1.93205 0.357,-3.298 v 0 0 c 0.238,-1.37105 0.5525,-2.55255 0.9435,-3.5445 v 0 0 c 0.391,-0.99705 0.918,-1.8615 1.581,-2.5925 v 0 0 c 1.275,-1.411 3.2895,-2.1165 6.0435,-2.1165 z m 17.18615,12.24 -0.714,4.08 h -9.69 l 2.805,-15.9375 h 4.845 l -2.091,11.8575 z m 10.863,0 -0.714,4.08 h -9.69 l 2.805,-15.9375 h 4.845 l -2.091,11.8575 z m 11.8575,-5.6355 -0.663,3.6975 h -4.845 l -0.3315,1.938 h 5.9415 l -0.714,4.08 h -10.7865 l 2.805,-15.9375 h 10.659 l -1.326,4.08 h -5.2275 l -0.357,2.142 z m 13.0815,5.151 v 0 l -0.408,4.284 v 0 c -1.088,0.442 -2.465,0.663 -4.131,0.663 v 0 0 c -2.142,0 -3.67795,-0.4165 -4.607,-1.2495 v 0 0 C 90.7749,31.9175 90.31335,30.634 90.31335,28.9 v 0 0 c 0,-0.731 0.119,-1.8105 0.357,-3.2385 v 0 0 c 0.51,-2.924 1.38805,-5.049 2.635,-6.375 v 0 0 c 1.25205,-1.326 3.23,-1.989 5.933,-1.989 v 0 0 c 0.629,0 1.3481,0.06545 2.159,0.1955 v 0 0 c 0.8041,0.12495 1.394,0.2805 1.768,0.4675 v 0 l -1.428,3.9015 v 0 c -1.003,-0.238 -1.9414,-0.357 -2.8135,-0.357 v 0 0 c -0.8789,0 -1.5045,0.085 -1.8785,0.255 v 0 0 c -0.374,0.17 -0.6035,0.51 -0.6885,1.02 v 0 l -1.173,6.681 v 0 c 0.612,0.136 1.241,0.204 1.887,0.204 v 0 0 c 1.377,0 2.635,-0.204 3.774,-0.612 z m 15.3,-11.373 -0.7395,4.08 h -3.519 l -2.0655,11.8575 h -4.845 l 2.0655,-11.8575 h -3.4935 l 0.7395,-4.08 z M 120.02,33.6175 h -4.845 L 117.98,17.68 h 4.845 z m 9.3585,-10.608 v 0 l -1.173,6.63 h 2.0145 v 0 c 0.663,0 1.156,-0.07905 1.479,-0.238 v 0 0 c 0.323,-0.16405 0.5355,-0.5355 0.6375,-1.1135 v 0 l 1.173,-6.63 h -2.04 v 0 c -0.646,0 -1.1305,0.07905 -1.4535,0.238 v 0 0 c -0.323,0.16405 -0.5355,0.5355 -0.6375,1.1135 z m 2.9325,-5.712 v 0 0 c 2.159,0 3.6975,0.42245 4.6155,1.2665 v 0 0 c 0.918,0.83895 1.377,2.1335 1.377,3.8845 v 0 0 c 0,1.751 -0.2771,3.58445 -0.833,5.4995 v 0 0 c -0.5491,1.90995 -1.4246,3.39405 -2.6265,4.454 v 0 0 C 133.6489,33.46705 131.8979,34 129.591,34 v 0 0 c -2.3001,0 -3.91,-0.41905 -4.828,-1.258 v 0 0 c -0.918,-0.84405 -1.377,-2.142 -1.377,-3.893 v 0 0 c 0,-0.833 0.119,-1.93205 0.357,-3.298 v 0 0 c 0.238,-1.37105 0.5525,-2.55255 0.9435,-3.5445 v 0 0 c 0.391,-0.99705 0.918,-1.8615 1.581,-2.5925 v 0 0 c 1.275,-1.411 3.2895,-2.1165 6.0435,-2.1165 z m 20.247,16.32 h -4.5645 l -2.601,-5.661 v 0 c -0.068,-0.119 -0.102,-0.28645 -0.102,-0.5015 v 0 0 c 0,-0.20995 0.017,-0.4505 0.051,-0.7225 v 0 h -0.204 l -1.1985,6.885 h -4.845 L 141.899,17.68 h 4.5645 l 2.601,5.661 v 0 c 0.051,0.119 0.0765,0.28645 0.0765,0.5015 v 0 0 c 0,0.20995 -0.017,0.4505 -0.051,0.7225 v 0 h 0.204 l 1.224,-6.885 h 4.845 z m 2.7795,-0.2805 v 0 l 1.428,-4.2075 v 0 c 1.428,0.391 2.737,0.5865 3.927,0.5865 v 0 0 c 1.19,0 2.1505,-0.051 2.8815,-0.153 v 0 l 0.204,-1.275 -2.1165,-0.204 v 0 c -1.615,-0.153 -2.75995,-0.5185 -3.434,-1.0965 v 0 0 c -0.66895,-0.578 -1.003,-1.394 -1.003,-2.448 v 0 0 c 0,-0.459 0.051,-0.969 0.153,-1.53 v 0 0 c 0.391,-2.176 1.09905,-3.672 2.125,-4.488 v 0 0 c 1.03105,-0.816 2.6265,-1.224 4.7855,-1.224 v 0 0 c 2.159,0 4.063,0.2125 5.712,0.6375 v 0 l -1.326,4.08 v 0 c -1.479,-0.255 -2.669,-0.3825 -3.57,-0.3825 v 0 0 c -0.901,0 -1.666,0.0425 -2.295,0.1275 v 0 l -0.204,1.2495 1.7085,0.1785 v 0 c 1.734,0.187 2.9665,0.60095 3.6975,1.241 v 0 0 c 0.731,0.63495 1.0965,1.4875 1.0965,2.5585 v 0 0 c 0,1.088 -0.238,2.21 -0.714,3.366 v 0 0 c -0.238,0.595 -0.49895,1.09395 -0.782,1.496 v 0 0 c -0.27795,0.39695 -0.63495,0.73355 -1.071,1.0115 v 0 0 c -0.43095,0.28305 -0.8245,0.49555 -1.1815,0.6375 v 0 0 c -0.357,0.14705 -0.8075,0.255 -1.3515,0.323 v 0 0 C 163.2085,33.9405 162.231,34 161.075,34 v 0 0 c -2.108,0 -4.0205,-0.221 -5.7375,-0.663 z"
     style="white-space:pre;fill:#aa0000;stroke-width:0.85000002"
     id="path4"
     inkscape:connector-curvature="0" />
</svg>
