<?xml version="1.0" encoding="UTF-8" standalone="no"?>
<svg
   xmlns:dc="http://purl.org/dc/elements/1.1/"
   xmlns:cc="http://creativecommons.org/ns#"
   xmlns:rdf="http://www.w3.org/1999/02/22-rdf-syntax-ns#"
   xmlns:svg="http://www.w3.org/2000/svg"
   xmlns="http://www.w3.org/2000/svg"
   xmlns:sodipodi="http://sodipodi.sourceforge.net/DTD/sodipodi-0.dtd"
   xmlns:inkscape="http://www.inkscape.org/namespaces/inkscape"
   version="1.1"
   id="svg3"
   sodipodi:docname="doom.svg"
   width="66.048561"
   height="34"
   inkscape:version="0.92.5 (2060ec1f9f, 2020-04-08)">
  <metadata
     id="metadata9">
    <rdf:RDF>
      <cc:Work
         rdf:about="">
        <dc:format>image/svg+xml</dc:format>
        <dc:type
           rdf:resource="http://purl.org/dc/dcmitype/StillImage" />
        <dc:title></dc:title>
      </cc:Work>
    </rdf:RDF>
  </metadata>
  <defs
     id="defs7" />
  <sodipodi:namedview
     pagecolor="#ffffff"
     bordercolor="#666666"
     borderopacity="1"
     objecttolerance="10"
     gridtolerance="10"
     guidetolerance="10"
     inkscape:pageopacity="0"
     inkscape:pageshadow="2"
     inkscape:window-width="1440"
     inkscape:window-height="837"
     id="namedview5"
     showgrid="false"
     fit-margin-top="0"
     fit-margin-left="0"
     fit-margin-right="0"
     fit-margin-bottom="0"
     inkscape:zoom="2.36"
     inkscape:cx="76.688069"
     inkscape:cy="86"
     inkscape:window-x="0"
     inkscape:window-y="0"
     inkscape:window-maximized="1"
     inkscape:current-layer="svg3" />
  <path
     id="path3347"
     d="m 57.759971,29.80975 -0.01151,-11.44125 -1.838852,6.392 -1.8361,-6.36275 -0.01101,8.685 -5.995158,-4.47375 0.454334,-0.339 -0.02102,-22.26925 5.69869,0.0148 1.708006,5.9535 1.710758,-5.96125 8.430449,0.0272 -2.766284,2.0565 -0.005,31.85775 z M 2.7990581,2.08625 0,0 l 15.777101,0.0212 1.805577,1.37275 0.0018,20.8685 0.478351,0.34475 L 2.8025607,34 Z M 12.058366,18.367 12.052366,6.32375 11.629305,5.98 8.3486427,5.9955 8.3413827,21.14025 Z m 5.991656,3.23825 -0.003,-20.2135 1.850861,-1.37975 11.074643,-7.5e-4 1.847108,1.3855 0.0068,23.39 -5.237601,3.9195 z m 8.7722,-15.63725 -2.793304,0.0192 -0.436321,0.3335 0.006,12.05175 3.669198,2.738 0.0095,-14.783 z m 6.479264,18.84075 -0.01351,-23.4225 1.844857,-1.3785 11.089154,0.0105 1.856615,1.38 -0.01276,20.16675 -9.487977,7.1365 z M 42.52677,18.3645 42.52547,6.31575 42.058877,5.961 39.270076,5.97 l -0.44858,0.3435 0.02777,14.75975 z"
     style="fill:#aa0000;fill-opacity:1;stroke:none;stroke-width:0.25009197"
     inkscape:connector-curvature="0" />
</svg>
