<?xml version="1.0" encoding="UTF-8" standalone="no"?>
<svg
   xmlns:dc="http://purl.org/dc/elements/1.1/"
   xmlns:cc="http://creativecommons.org/ns#"
   xmlns:rdf="http://www.w3.org/1999/02/22-rdf-syntax-ns#"
   xmlns:svg="http://www.w3.org/2000/svg"
   xmlns="http://www.w3.org/2000/svg"
   xmlns:sodipodi="http://sodipodi.sourceforge.net/DTD/sodipodi-0.dtd"
   xmlns:inkscape="http://www.inkscape.org/namespaces/inkscape"
   version="1.0"
   id="svg30"
   sodipodi:docname="ecwolf.svg"
   width="80.131409"
   height="34"
   inkscape:version="1.0.1 (3bc2e813f5, 2020-09-07)">
  <metadata
     id="metadata36">
    <rdf:RDF>
      <cc:Work
         rdf:about="">
        <dc:format>image/svg+xml</dc:format>
        <dc:type
           rdf:resource="http://purl.org/dc/dcmitype/StillImage" />
        <dc:title></dc:title>
      </cc:Work>
    </rdf:RDF>
  </metadata>
  <defs
     id="defs34" />
  <sodipodi:namedview
     pagecolor="#ffffff"
     bordercolor="#666666"
     borderopacity="1"
     objecttolerance="10"
     gridtolerance="10"
     guidetolerance="10"
     inkscape:pageopacity="0"
     inkscape:pageshadow="2"
     inkscape:window-width="1920"
     inkscape:window-height="1017"
     id="namedview32"
     showgrid="false"
     fit-margin-top="0"
     fit-margin-left="0"
     fit-margin-right="0"
     fit-margin-bottom="0"
     inkscape:zoom="1.3871078"
     inkscape:cx="223.45671"
     inkscape:cy="104.44355"
     inkscape:window-x="-8"
     inkscape:window-y="-8"
     inkscape:window-maximized="1"
     inkscape:current-layer="svg30" />
  <path
     d="m 48.80701,33.416619 c -0.885088,-0.322043 -2.011784,-0.744554 -2.494697,-0.965826 l -0.885088,-0.382142 1.368001,-1.10636 1.388337,-1.126696 1.508838,0.583381 c 1.830578,0.724218 2.293458,0.643783 2.856806,-0.442544 1.045958,-2.052153 0.08043,-3.983502 -2.675903,-5.371536 l -1.166762,-0.583685 1.528871,-1.790512 c 0.824989,-0.985859 1.509141,-1.870947 1.509141,-1.951382 0,-0.08043 -1.046261,-0.16087 -2.333827,-0.16087 -2.655567,0 -2.555099,0.100468 -1.388337,-1.710077 l 0.704185,-1.106663 h 3.420154 3.420154 l -1.710077,2.152621 c -0.94549,1.187098 -1.710077,2.213023 -1.710077,2.273425 0,0.0604 0.402478,0.322043 0.905424,0.583381 2.031817,1.086631 2.655567,2.414262 2.233056,4.828525 -0.502946,2.776371 -1.629642,4.969361 -3.178546,6.11609 C 51.080435,34 50.597522,34.040369 48.80701,33.416619 Z"
     style="fill:#aa0000;stroke-width:0.303528"
     id="path2" />
  <path
     d="m 59.751625,33.456685 c -0.724218,-0.804653 -2.515034,-3.480253 -2.756339,-4.144372 -0.120804,-0.32174 -0.221272,-1.589273 -0.221272,-2.856807 0,-2.233056 0.02003,-2.293458 0.663816,-3.238948 1.207131,-1.810545 1.629643,-2.293458 1.931349,-2.293458 0.181207,0 0.865055,0.362109 1.508838,0.804653 0.66412,0.422511 1.267534,0.744555 1.368305,0.684152 0.08044,-0.0604 0.16087,-0.62375 0.16087,-1.267533 0,-1.046261 -0.08044,-1.247197 -0.724218,-2.011784 l -0.744554,-0.865055 1.146729,-1.146729 1.146729,-1.167065 1.106663,1.146729 1.086327,1.147032 v 6.317026 6.317027 L 64.197704,32.450793 62.990573,34 h -1.368001 c -1.227164,0 -1.40837,-0.0604 -1.870947,-0.543315 z m 1.810545,-2.695633 c 0.462576,-0.482913 0.603413,-1.227164 0.78462,-3.943133 0.120804,-2.213023 0,-2.675904 -0.82499,-2.675904 -0.724218,0 -1.85061,0.925458 -2.333523,1.911317 -0.362109,0.764587 -0.422511,1.186794 -0.362109,2.35386 0.08043,1.327632 0.1205,1.448436 0.824685,2.092219 0.845023,0.78462 1.368001,0.865055 1.911317,0.261641 z"
     style="fill:#aa0000;stroke-width:0.303528"
     id="path4" />
  <path
     d="M 27.542137,16.154978 C 27.461702,16.094576 27.4013,13.740716 27.4013,10.924279 V 5.8344165 h -0.603718 c -0.462576,0 -0.603413,-0.080435 -0.603413,-0.4024782 0,-0.3017069 0.140837,-0.4024782 0.583381,-0.4024782 0.543315,0 0.583381,-0.060099 0.684152,-1.0259249 0.08044,-0.5633481 0.261338,-1.227164 0.402175,-1.4687723 0.322043,-0.4625768 3.178849,-1.73010999 3.9231,-1.73010999 0.804653,0 1.810545,0.56334809 2.132588,1.18709829 0.180903,0.3217397 0.32174,0.6838487 0.32174,0.78462 0,0.080435 -0.422208,0.362109 -0.925154,0.6034138 L 32.410727,3.8226325 31.80701,3.4001214 C 30.982324,2.8164369 30.620215,3.017676 30.620215,4.0235681 c 0,0.7645872 0.04007,0.8049564 0.603414,0.8049564 0.543315,0 0.603717,0.060099 0.603717,0.6034138 0,0.5633481 -0.04037,0.6037173 -0.804956,0.6037173 h -0.804653 v 4.7477864 c 0,2.876839 -0.08044,4.888623 -0.201239,5.130231 -0.180903,0.301707 -0.442544,0.382142 -1.287566,0.382142 -0.583381,0 -1.126393,-0.0604 -1.186795,-0.140837 z"
     style="fill:#aa0000;stroke-width:0.303528"
     id="path6" />
  <path
     d="m 57.136123,14.183563 c -0.422511,-0.281674 -0.94549,-0.885391 -1.187098,-1.327935 -0.382142,-0.744251 -0.402175,-1.10636 -0.341772,-4.2248074 l 0.0601,-3.4001214 h -0.543012 c -0.482913,0 -0.563348,-0.080435 -0.563348,-0.6034138 0,-0.502946 0.08044,-0.6037173 0.502946,-0.6037173 0.442544,0 0.502946,-0.080435 0.502946,-0.6838488 0,-0.5833809 0.140837,-0.78462 1.106664,-1.508838 L 57.779906,0.98585916 V 2.51473 4.0235681 h 0.905425 c 0.90512,0 0.90512,0 0.90512,0.7041851 0,0.7041851 0,0.7041851 -0.90512,0.7041851 h -0.905425 v 2.9372411 2.9372416 l 0.623751,0.58338 c 0.342076,0.322044 0.704185,0.583685 0.804653,0.583685 0.362109,0 0.140837,0.522979 -0.583381,1.368001 l -0.744555,0.865055 z"
     style="fill:#aa0000;stroke-width:0.303528"
     id="path8" />
  <path
     d="M 3.1184474,14.102825 C 2.454328,13.680617 1.4083702,12.312313 1.1266962,11.467594 1.0462612,11.18592 0.98585916,9.5763105 1.0259249,7.8862662 1.0662941,4.8886231 1.0662941,4.7881553 0.54331524,3.8626982 L 0,2.9172083 1.146729,1.870947 2.3134909,0.82498929 3.0580453,1.7704792 C 4.1644051,3.1585131 4.3052421,3.882731 4.0235681,6.7395372 3.9030674,8.0674725 3.8626982,9.4758427 3.9231003,9.8780174 4.1243394,10.843844 4.7681224,11.50766 5.4319383,11.427225 l 0.5433152,-0.0604 0.020033,-3.2993505 C 6.0153192,5.0294601 5.9752535,4.7077203 5.5727753,3.9231003 L 5.1101985,3.098111 6.2365912,1.9113162 7.3632874,0.74425082 8.3291137,1.7905121 c 0.5430117,0.6037173 1.005892,1.3075989 1.0662941,1.6900442 0.080435,0.362109 -0.020336,1.5288709 -0.1812063,2.595165 -0.4625767,2.8367733 -0.422511,3.6213934 0.1812063,4.1847417 L 9.8780174,10.72304 10.280496,10.240126 C 10.501768,9.9787887 10.883909,9.3550386 11.125518,8.8721254 11.50766,8.1078417 11.548029,7.7657656 11.467594,6.2365912 11.386855,4.9089594 11.246018,4.2852093 10.944312,3.7822632 L 10.5218,3.098111 11.18592,2.011784 c 0.362109,-0.6034138 0.78462,-1.12669616 0.965523,-1.16676186 0.402478,-0.0804349 1.468772,1.58927296 1.790512,2.81643696 0.221272,0.78462 0.201239,1.2475003 -0.0604,2.7563384 -0.32174,1.7704792 -1.347665,4.4060135 -1.89098,4.8685905 -0.522979,0.442544 -0.301707,0.62375 0.563348,0.482913 l 0.824686,-0.140837 -0.563348,0.965523 c -0.301707,0.543315 -0.623447,1.066294 -0.724218,1.167065 -0.08044,0.100468 -1.005892,0.301707 -2.031817,0.442544 -1.9513823,0.261641 -2.2533927,0.201239 -3.0984148,-0.563348 -0.4222076,-0.362109 -0.442544,-0.362109 -1.4080667,0.120804 -1.4487395,0.724218 -1.73011,0.764284 -2.4342951,0.341773 z"
     style="fill:#aa0000;stroke-width:0.303528"
     id="path10" />
  <path
     d="m 61.5218,14.062759 c -1.327631,-1.046261 -1.911012,-3.822633 -1.247196,-6.0556886 0.261641,-0.9054242 0.522978,-1.3075989 1.368001,-2.0721861 1.307599,-1.1667619 2.03212,-1.5492073 2.655567,-1.3880339 0.704185,0.1608699 1.529174,1.1263927 1.649675,1.9110128 0.08074,0.6641194 0,0.7645872 -1.911013,2.3942294 -1.871251,1.5892734 -2.012088,1.7704794 -2.012088,2.4746644 l -0.02003,0.744251 h 2.112555 c 1.207131,0 2.112252,0.08043 2.112252,0.201239 0,0.100468 -0.100468,0.643783 -0.221272,1.207131 l -0.221272,1.005892 h -1.850914 c -1.609306,0 -1.951382,-0.0604 -2.414263,-0.422511 z m 1.690045,-5.6532104 c 0.442544,-0.3621089 0.804653,-0.78462 0.804653,-0.925457 0,-0.3220433 -0.905121,-0.6641195 -1.327632,-0.502946 -0.563348,0.2012391 -0.985859,2.0721861 -0.46288,2.0721861 0.120804,0 0.563348,-0.3017069 0.985859,-0.6437831 z"
     style="fill:#aa0000;stroke-width:0.303528"
     id="path12" />
  <path
     d="m 32.873304,13.881553 c -0.804653,-0.48261 -1.166762,-1.307599 -1.347968,-2.937241 -0.301707,-2.5347634 0.804956,-5.1502647 2.535066,-6.0556889 1.40837,-0.724218 1.931349,-0.7038816 2.595165,0.140837 1.026228,1.2675332 1.005892,1.6499786 -0.261338,2.8167404 -0.603717,0.5430118 -1.428403,1.2675333 -1.830881,1.5692402 -0.663816,0.502946 -0.724218,0.6237503 -0.663816,1.4484363 l 0.04007,0.905424 1.870947,0.0604 c 1.006195,0.02003 1.850914,0.120501 1.850914,0.221272 0,0.08044 -0.140837,0.623447 -0.301707,1.186795 l -0.32174,1.046261 H 35.28757 c -1.40837,0 -1.89098,-0.08044 -2.414262,-0.402478 z m 1.87125,-5.7336456 C 35.528871,7.4840916 35.528871,7.4640587 35.166762,7.0615805 34.46288,6.2769604 34.020033,6.6190366 33.738359,8.1078417 c -0.08044,0.4021747 -0.0601,0.7442509 0.02034,0.7442509 0.100468,-0.020033 0.543012,-0.3220433 0.985859,-0.7041852 z"
     style="fill:#aa0000;stroke-width:0.303528"
     id="path14" />
  <path
     d="m 39.190633,13.258106 c -0.905424,-1.005892 -0.905424,-1.026228 -0.62375,-1.589577 0.402479,-0.78462 0.402479,-3.9230998 0,-4.8886226 L 38.285209,6.0757213 39.089862,5.3515034 c 0.865055,-0.7846201 1.247501,-0.7645872 1.850914,0.080435 0.261642,0.3821418 0.301707,0.362109 1.327936,-0.4024782 1.207131,-0.9051207 1.629642,-0.9855557 2.454328,-0.3821419 1.005892,0.724218 1.187098,1.307599 1.187098,4.0639373 0,2.4543274 0.02003,2.5147304 0.502946,2.8367734 0.482913,0.32174 0.482913,0.362109 0.201239,0.905121 -0.161173,0.322043 -0.643783,0.865055 -1.046261,1.227467 l -0.764587,0.623447 -1.045958,-1.166762 c -1.026229,-1.126696 -1.046261,-1.187098 -0.66412,-1.448436 0.362109,-0.241608 0.402479,-0.502946 0.402479,-2.1526211 0,-2.0925225 -0.140837,-2.3942294 -1.307599,-2.6155013 -1.146729,-0.2012391 -1.307903,0.080435 -1.307903,2.293458 0,1.8105444 0.04037,1.9717184 0.523283,2.4746644 l 0.522978,0.563348 -0.845022,1.005892 c -0.482913,0.563348 -0.885088,1.025925 -0.925457,1.025925 -0.02003,0 -0.462577,-0.462577 -0.965523,-1.025925 z"
     style="fill:#aa0000;stroke-width:0.303528"
     id="path16" />
  <path
     d="m 47.398943,14.082792 c -0.684152,-0.281674 -0.684152,-0.442544 0.02003,-1.307599 l 0.684152,-0.78462 0.965523,0.281674 c 1.850914,0.522979 3.078078,0.120804 3.078078,-1.005892 0,-0.744555 -0.32174,-0.905424 -2.313491,-1.187098 C 48.18356,9.8379517 47.479375,9.3750714 47.237767,8.3892123 46.956396,7.2828524 47.39894,6.0957542 48.424865,5.0898622 49.471126,4.0839701 50.557453,3.8022961 52.26753,4.0639373 c 1.790512,0.281674 1.850914,0.362109 0.804653,1.3276318 L 52.166759,6.2165583 51.32204,5.9348843 c -1.2475,-0.4425439 -1.750446,-0.4024782 -1.911316,0.1812063 -0.241608,1.005892 -0.0604,1.1867947 1.629642,1.6697079 2.192687,0.6237501 2.575132,1.0462612 2.6756,2.8768385 l 0.08044,1.408371 -0.78462,0.78462 c -0.522979,0.522979 -1.146729,0.885088 -1.870947,1.106663 -1.146729,0.341773 -3.037709,0.402175 -3.741894,0.120501 z"
     style="fill:#aa0000;stroke-width:0.303528"
     id="path18" />
  <path
     d="M 72.466416,13.278139 71.601361,12.252214 71.9231,11.548029 c 0.482913,-1.005892 0.442544,-3.5409586 -0.0604,-4.6473184 l -0.382142,-0.865055 0.885088,-0.7041851 c 0.78462,-0.643783 0.925457,-0.7041851 1.287566,-0.4628803 0.241609,0.140837 0.422511,0.3017069 0.422511,0.362109 0,0.060402 0.08043,0.2212719 0.181207,0.3824454 0.140837,0.2212719 0.362109,0.140837 1.066294,-0.4428475 0.502946,-0.4021747 1.186794,-0.8046529 1.528871,-0.865055 0.563348,-0.1205006 0.744554,-0.020033 1.448435,0.6841523 l 0.804957,0.8046529 v 2.5751321 c 0,2.4946976 0.02003,2.5954686 0.522979,3.1184476 l 0.502946,0.522979 -0.382142,0.643783 c -0.442847,0.744554 -1.670011,1.710077 -1.850914,1.488805 -0.08043,-0.100468 -0.523283,-0.583381 -1.005892,-1.126696 l -0.865055,-0.965523 0.422207,-0.442544 c 0.382446,-0.402478 0.442848,-0.704185 0.442848,-1.9917512 0,-0.8450222 -0.0604,-1.6900443 -0.120804,-1.8712506 -0.16087,-0.4021747 -1.126697,-0.9051207 -1.77048,-0.9051207 -0.724218,0 -0.925457,0.5430117 -0.925457,2.4142623 0,1.4484362 0.0604,1.7100772 0.523283,2.3134912 l 0.522979,0.704185 -0.623751,0.764587 c -1.086327,1.368001 -1.086327,1.368001 -2.031816,0.241305 z"
     style="fill:#aa0000;stroke-width:0.303528"
     id="path20" />
  <path
     d="M 16.235413,13.801118 C 15.370358,13.439009 14.364466,12.211845 14.203596,11.34679 13.86152,9.5159084 14.565705,6.9608092 15.833238,5.4519711 c 0.663816,-0.7642836 2.333524,-1.6293386 3.178546,-1.6293386 0.985859,0 1.931349,0.5833809 2.51473,1.5892729 0.482913,0.8246858 0.543315,1.1063598 0.523282,2.736002 -0.02034,2.6959366 -0.965826,4.8485576 -2.51473,5.6331776 -0.704185,0.362109 -2.494697,0.382142 -3.299653,0.02003 z m 3.078078,-2.575132 c 0.362412,-0.362109 0.281674,-2.1726543 -0.140837,-3.0981114 -0.422208,-0.9054242 -1.307599,-1.73011 -1.73011,-1.5692401 -0.32174,0.140837 -0.704185,1.146729 -0.704185,1.870947 0.02034,0.78462 0.684152,2.1125555 1.307902,2.5951645 0.623447,0.502946 0.925457,0.543316 1.26723,0.20124 z"
     style="fill:#aa0000;stroke-width:0.303528"
     id="path22" />
  <path
     d="m 23.216558,13.197704 -0.824685,-0.905424 0.341772,-0.663816 c 0.261641,-0.502946 0.362109,-1.327936 0.402478,-3.5409586 0.100468,-3.4802529 0,-4.0639373 -0.78462,-4.969058 l -0.62375,-0.6841523 1.066294,-1.227164 C 23.397765,0.54331524 23.900711,0 23.940776,0 c 0.04037,0 0.301707,0.52297886 0.603718,1.1667619 0.543011,1.1266962 0.543011,1.1870983 0.543011,5.4723075 0,3.8827306 0.04037,4.3856766 0.382446,4.8685906 l 0.362109,0.563348 -0.744555,1.005892 c -0.402174,0.543315 -0.804653,1.005892 -0.90512,1.005892 -0.08074,0 -0.523283,-0.402175 -0.965827,-0.885088 z"
     style="fill:#aa0000;stroke-width:0.303528"
     id="path24" />
  <path
     d="m 68.040369,13.177671 -0.885391,-0.905424 0.342076,-0.704185 C 67.758695,11.004714 67.83913,10.280496 67.83913,8.3691794 V 5.8744822 l 0.78462,-0.6234466 0.764587,-0.6037174 0.241305,0.502946 c 0.120804,0.3017069 0.221272,1.589273 0.221272,3.1384803 0,2.3338275 0.04037,2.7159695 0.422511,3.3196865 l 0.442544,0.703882 -0.885088,0.885391 -0.905424,0.885088 z"
     style="fill:#aa0000;stroke-width:0.303528"
     id="path26" />
  <path
     d="m 68.402478,2.7159691 -0.965826,-0.643783 0.502946,-0.2212719 c 0.422511,-0.2012392 0.643783,-0.1608699 1.40837,0.3217397 0.502946,0.3020104 0.905424,0.6037173 0.905424,0.6641194 0,0.060402 -0.201239,0.2012391 -0.46288,0.3217398 -0.362109,0.1812062 -0.603414,0.1007713 -1.388034,-0.442544 z"
     style="fill:#aa0000;stroke-width:0.303528"
     id="path28" />
</svg>
