<?xml version="1.0" encoding="UTF-8" standalone="no"?>
<svg
   xmlns:dc="http://purl.org/dc/elements/1.1/"
   xmlns:cc="http://creativecommons.org/ns#"
   xmlns:rdf="http://www.w3.org/1999/02/22-rdf-syntax-ns#"
   xmlns:svg="http://www.w3.org/2000/svg"
   xmlns="http://www.w3.org/2000/svg"
   xmlns:sodipodi="http://sodipodi.sourceforge.net/DTD/sodipodi-0.dtd"
   xmlns:inkscape="http://www.inkscape.org/namespaces/inkscape"
   id="svg"
   version="1.1"
   width="90.468063"
   height="34"
   viewBox="0 0 90.468063 34.000001"
   sodipodi:docname="fba.svg"
   inkscape:version="0.92.5 (2060ec1f9f, 2020-04-08)">
  <metadata
     id="metadata9">
    <rdf:RDF>
      <cc:Work
         rdf:about="">
        <dc:format>image/svg+xml</dc:format>
        <dc:type
           rdf:resource="http://purl.org/dc/dcmitype/StillImage" />
        <dc:title></dc:title>
      </cc:Work>
    </rdf:RDF>
  </metadata>
  <defs
     id="defs7" />
  <sodipodi:namedview
     pagecolor="#ffffff"
     bordercolor="#666666"
     borderopacity="1"
     objecttolerance="10"
     gridtolerance="10"
     guidetolerance="10"
     inkscape:pageopacity="0"
     inkscape:pageshadow="2"
     inkscape:window-width="1440"
     inkscape:window-height="837"
     id="namedview5"
     showgrid="false"
     inkscape:zoom="1.4142136"
     inkscape:cx="34.056068"
     inkscape:cy="-4.4803112"
     inkscape:window-x="0"
     inkscape:window-y="0"
     inkscape:window-maximized="1"
     inkscape:current-layer="svg"
     fit-margin-top="0"
     fit-margin-left="0"
     fit-margin-right="0"
     fit-margin-bottom="0" />
  <g
     id="svgg"
     style="fill:#aa0000"
     transform="matrix(0.22617016,0,0,0.22617016,0,0.00104156)">
    <path
       id="path0"
       d="m 0.009,9.309 0.008,9.31 55.948,19.122 55.947,19.123 29.329,-0.004 29.33,-0.003 -0.003,-11.311 C 170.564,32.77 170.237,28.892 168.82,24.818 165.828,16.213 157.876,6.852 150.15,2.839 144.213,-0.245 151.004,0 71.399,0 H 0 l 0.009,9.309 m 56.445,70.671 -0.002,36.737 -10.408,5.365 -10.408,5.365 v 10.951 10.951 h 41.041 41.041 v -20.62 -20.621 h -8.205 -8.206 L 101.204,83.211 101.101,58.314 79.279,50.804 C 67.277,46.674 57.232,43.283 56.957,43.269 56.56,43.248 56.456,50.845 56.454,79.98 m 52.055,2.703 v 18.618 h 31.031 31.031 V 82.683 64.064 H 139.54 108.509 v 18.619 m 13.613,46.046 v 20.62 h 4.405 4.404 v -20.62 -20.621 h -4.404 -4.405 v 20.621 m 12.012,0 v 20.62 h 3.604 3.603 l 0.034,-7.908 0.034,-7.907 1.832,7.907 1.831,7.908 h 3.741 3.74 v -20.62 -20.621 h -3.604 -3.604 l -0.037,7.908 -0.037,7.908 -2.013,-7.908 -2.013,-7.908 h -3.555 -3.556 v 20.621 M 158.769,109.8 c -0.134,0.941 -1.103,10.225 -2.153,20.63 l -1.911,18.919 h 4.53 4.529 v -2.352 c 0,-3.884 0.319,-4.855 1.596,-4.855 1.163,0 1.594,1.534 1.603,5.706 l 0.004,1.501 h 4.404 c 3.936,0 4.402,-0.074 4.383,-0.7 -0.012,-0.386 -1.052,-9.62 -2.31,-20.521 l -2.287,-19.82 -6.073,-0.11 -6.073,-0.11 -0.242,1.712 m 18.608,18.929 v 20.62 h 6.807 6.807 v -4.204 -4.204 h -2.402 -2.403 v -16.416 -16.417 h -4.404 -4.405 v 20.621 m 23.624,0 v 20.62 l 7.307,-0.022 c 11.563,-0.036 12.041,-0.477 12.075,-11.149 0.023,-7.094 -0.426,-8.68 -2.925,-10.345 -0.748,-0.498 -1.097,-0.906 -0.775,-0.906 3.951,0 4.207,-13.697 0.317,-16.97 -1.627,-1.369 -4.381,-1.849 -10.613,-1.849 h -5.386 v 20.621 m 22.525,-3.304 c 0.113,12.17 0.307,17.767 0.652,18.83 2.442,7.534 13.56,8.234 17.317,1.09 l 0.947,-1.801 0.12,-17.718 0.119,-17.718 h -4.196 -4.196 l -0.128,16.998 c -0.127,16.968 -0.25,18.427 -1.493,17.658 -0.303,-0.187 -0.436,-5.513 -0.436,-17.462 v -17.194 h -4.434 -4.434 l 0.162,17.317 m 23.121,3.304 v 20.62 h 4.397 4.397 l 0.107,-9.309 0.108,-9.309 0.901,0.901 c 0.877,0.877 0.9,1.123 0.9,9.309 v 8.408 h 4.004 4.004 l -0.002,-8.108 c -0.002,-9.248 -0.25,-10.601 -2.243,-12.244 l -1.417,-1.168 1.023,-0.256 c 1.879,-0.472 2.433,-2.258 2.437,-7.853 0.005,-10.119 -1.723,-11.604 -13.511,-11.61 l -5.105,-0.002 v 20.621 m 22.822,-0.015 v 20.635 h 3.596 3.595 l 0.109,-8.291 0.108,-8.292 1.553,6.962 c 0.855,3.828 1.719,7.56 1.921,8.291 l 0.367,1.33 h 3.785 3.785 v -20.62 -20.621 h -3.603 -3.604 l -0.037,8.308 -0.038,8.309 -2.087,-8.208 -2.087,-8.209 -3.681,-0.115 -3.682,-0.115 v 20.636 m 32.26,-19.705 c -0.103,0.496 -1.014,9.279 -2.024,19.52 -1.01,10.24 -1.935,19.114 -2.054,19.719 l -0.217,1.101 h 4.636 4.637 l 0.005,-2.702 c 0.008,-3.816 0.253,-4.505 1.601,-4.505 h 1.111 l 0.286,3.604 0.285,3.603 h 4.407 4.408 l -0.24,-1.701 c -0.132,-0.936 -1.149,-9.81 -2.261,-19.72 -1.112,-9.91 -2.109,-18.423 -2.216,-18.919 -0.191,-0.885 -0.297,-0.901 -6.185,-0.901 -5.89,0 -5.994,0.015 -6.179,0.901 m 18.591,19.72 v 20.62 h 6.807 6.807 v -4.204 -4.204 h -2.402 -2.403 v -16.416 -16.417 h -4.404 -4.405 v 20.621 m 16.417,-0.041 v 20.661 h 4.404 4.405 v -8.208 -8.208 l 2.302,-0.001 c 5.689,-10e-4 6.668,-1.567 6.841,-10.937 0.231,-12.567 -0.59,-13.558 -11.446,-13.815 l -6.506,-0.154 v 20.662 m 21.621,0.041 v 20.62 h 4.205 4.204 v -8.608 -8.609 h 1.001 1.001 v 8.609 8.608 h 4.404 4.405 v -20.62 -20.621 h -4.405 -4.404 v 7.408 7.407 h -1.001 -1.001 v -7.407 -7.408 h -4.204 -4.205 v 20.621 m 24.825,-20.036 c 0,0.321 -0.901,9.373 -2.002,20.115 -1.101,10.742 -2.002,19.759 -2.002,20.036 0,0.376 1.121,0.505 4.375,0.505 h 4.374 l 0.282,-3.603 0.282,-3.604 h 1.334 1.334 l 0.116,3.504 0.115,3.503 4.305,0.114 4.304,0.113 v -1.027 c 0,-0.565 -0.991,-9.681 -2.202,-20.257 -1.211,-10.576 -2.202,-19.399 -2.202,-19.607 0,-0.219 -2.59,-0.377 -6.207,-0.377 -5.174,0 -6.206,0.097 -6.206,0.585 m -171.786,7.797 c 1.151,2.151 0.288,7.634 -1.201,7.634 -0.732,0 -0.787,-0.292 -0.787,-4.204 0,-4.376 0.771,-5.705 1.988,-3.43 m 45.646,0 c 1.051,1.965 0.308,7.634 -1.001,7.634 -0.478,0 -0.587,-0.779 -0.587,-4.204 0,-4.321 0.516,-5.434 1.588,-3.43 m 90.024,-0.294 c 0.768,0.768 0.645,8.107 -0.149,8.901 -1.196,1.196 -1.372,0.635 -1.372,-4.376 0,-5.093 0.239,-5.807 1.521,-4.525 m -38.161,13.834 0.282,4.505 h -1.04 c -1.258,0 -1.282,-0.366 -0.55,-8.409 0.554,-6.082 0.713,-5.606 1.308,3.904 m -142.925,-0.323 0.288,4.828 h -1.052 c -1.267,0 -1.277,-0.132 -0.567,-8.008 0.555,-6.16 0.81,-5.551 1.331,3.18 m 224.591,2.325 0.241,2.503 h -1.212 c -0.704,0 -1.212,-0.21 -1.211,-0.501 0.003,-1.28 0.836,-9.864 1.078,-11.111 0.209,-1.079 0.34,-0.48 0.567,2.603 0.162,2.202 0.404,5.13 0.537,6.506 m -179.067,-0.146 c 0.162,0.245 0.295,2.338 0.295,4.651 0,4.53 -0.117,4.949 -1.49,5.378 l -0.901,0.281 v -5.659 -5.66 l 0.901,0.281 c 0.496,0.155 1.034,0.482 1.195,0.728"
       style="fill:#aa0000;fill-rule:evenodd;stroke:none"
       inkscape:connector-curvature="0" />
  </g>
</svg>
