<?xml version="1.0" encoding="UTF-8" standalone="no"?>
<svg
   xmlns:dc="http://purl.org/dc/elements/1.1/"
   xmlns:cc="http://creativecommons.org/ns#"
   xmlns:rdf="http://www.w3.org/1999/02/22-rdf-syntax-ns#"
   xmlns:svg="http://www.w3.org/2000/svg"
   xmlns="http://www.w3.org/2000/svg"
   xmlns:sodipodi="http://sodipodi.sourceforge.net/DTD/sodipodi-0.dtd"
   xmlns:inkscape="http://www.inkscape.org/namespaces/inkscape"
   version="1.1"
   id="svg6"
   sodipodi:docname="fighting.svg"
   inkscape:version="0.92.5 (2060ec1f9f, 2020-04-08)"
   width="249.88214"
   height="34">
  <metadata
     id="metadata12">
    <rdf:RDF>
      <cc:Work
         rdf:about="">
        <dc:format>image/svg+xml</dc:format>
        <dc:type
           rdf:resource="http://purl.org/dc/dcmitype/StillImage" />
        <dc:title></dc:title>
      </cc:Work>
    </rdf:RDF>
  </metadata>
  <defs
     id="defs10" />
  <sodipodi:namedview
     pagecolor="#ffffff"
     bordercolor="#666666"
     borderopacity="1"
     objecttolerance="10"
     gridtolerance="10"
     guidetolerance="10"
     inkscape:pageopacity="0"
     inkscape:pageshadow="2"
     inkscape:window-width="1440"
     inkscape:window-height="837"
     id="namedview8"
     showgrid="false"
     inkscape:zoom="0.98083335"
     inkscape:cx="9.3623197"
     inkscape:cy="-133.52751"
     inkscape:window-x="0"
     inkscape:window-y="0"
     inkscape:window-maximized="1"
     inkscape:current-layer="svg6"
     fit-margin-top="0"
     fit-margin-left="0"
     fit-margin-right="0"
     fit-margin-bottom="0" />
  <g
     id="g3022"
     transform="matrix(1.060879,0,0,1.060879,-13.383465,-16.389812)">
    <g
       transform="matrix(0.91177628,0,0,0.91177628,-25.774213,66.212745)"
       id="text2093"
       style="font-style:italic;font-variant:normal;font-weight:normal;font-stretch:normal;font-size:53.33333206px;line-height:1.25;font-family:'Motter Tektura';-inkscape-font-specification:'Motter Tektura Italic';letter-spacing:0px;word-spacing:0px;fill:#aa0000;fill-opacity:1;stroke:none"
       aria-label="FIGHTING">
      <path
         inkscape:connector-curvature="0"
         id="path2095"
         style="font-style:italic;font-variant:normal;font-weight:normal;font-stretch:normal;font-family:'Changa One';-inkscape-font-specification:'Changa One Italic';fill:#aa0000"
         d="m 106.46502,-33.698736 h -8.639996 l -2.133333,12.373333 H 85.558358 l 5.866666,-33.333333 h 20.799996 l -2.82666,8.533333 h -9.38667 l -0.746666,4.48 h 8.639996 z" />
      <path
         inkscape:connector-curvature="0"
         id="path2097"
         style="font-style:italic;font-variant:normal;font-weight:normal;font-stretch:normal;font-family:'Changa One';-inkscape-font-specification:'Changa One Italic';fill:#aa0000"
         d="m 110.19832,-21.325403 5.86667,-33.333333 h 10.13333 l -5.86667,33.333333 z" />
      <path
         inkscape:connector-curvature="0"
         id="path2099"
         style="font-style:italic;font-variant:normal;font-weight:normal;font-stretch:normal;font-family:'Changa One';-inkscape-font-specification:'Changa One Italic';fill:#aa0000"
         d="m 144.75828,-31.138736 0.26667,-1.44 h -2.56 l 1.44,-8.16 h 12.21333 l -3.14667,17.813333 q -6.50666,2.4 -13.06666,2.4 -6.56,0 -9.49334,-2.613334 -2.88,-2.613333 -2.88,-8.053333 0,-2.293333 0.74667,-6.773333 1.6,-9.28 5.65333,-13.386666 4.05334,-4.106667 13.44,-4.106667 1.97334,0 5.01334,0.426667 3.09333,0.426667 4.53333,0.96 l -2.93333,8.16 q -4,-0.746667 -7.36,-0.746667 -3.30667,0 -4.74667,0.533333 -1.44,0.533334 -1.70667,2.133334 l -2.61333,15.093333 h 3.36 q 1.81333,0 2.66667,-0.373334 0.90666,-0.426666 1.17333,-1.866666 z" />
      <path
         inkscape:connector-curvature="0"
         id="path2101"
         style="font-style:italic;font-variant:normal;font-weight:normal;font-stretch:normal;font-family:'Changa One';-inkscape-font-specification:'Changa One Italic';fill:#aa0000"
         d="m 175.6382,-21.325403 2.02666,-11.786667 h -7.62666 l -2.02667,11.786667 H 157.8782 l 5.86666,-33.333333 h 10.13334 l -2.08,11.786667 h 7.62666 l 2.08,-11.786667 h 10.13334 l -5.86667,33.333333 z" />
      <path
         inkscape:connector-curvature="0"
         id="path2103"
         style="font-style:italic;font-variant:normal;font-weight:normal;font-stretch:normal;font-family:'Changa One';-inkscape-font-specification:'Changa One Italic';fill:#aa0000"
         d="m 219.26485,-46.125403 h -7.36 l -4.32,24.8 h -10.13334 l 4.32,-24.8 h -7.30666 l 1.54666,-8.533333 h 24.8 z" />
      <path
         inkscape:connector-curvature="0"
         id="path2105"
         style="font-style:italic;font-variant:normal;font-weight:normal;font-stretch:normal;font-family:'Changa One';-inkscape-font-specification:'Changa One Italic';fill:#aa0000"
         d="m 218.78474,-21.325403 5.86666,-33.333333 h 10.13334 l -5.86667,33.333333 z" />
      <path
         inkscape:connector-curvature="0"
         id="path2107"
         style="font-style:italic;font-variant:normal;font-weight:normal;font-stretch:normal;font-family:'Changa One';-inkscape-font-specification:'Changa One Italic';fill:#aa0000"
         d="m 253.82471,-21.325403 -5.44,-11.84 q -0.21334,-0.373333 -0.21334,-1.013333 0,-0.693334 0.10667,-1.546667 h -0.42667 l -2.50666,14.4 h -10.13334 l 5.86667,-33.333333 h 9.54667 l 5.44,11.84 q 0.16,0.373333 0.16,1.066667 0,0.64 -0.10667,1.493333 h 0.42667 l 2.56,-14.4 h 10.13333 l -5.86667,33.333333 z" />
      <path
         inkscape:connector-curvature="0"
         id="path2109"
         style="font-style:italic;font-variant:normal;font-weight:normal;font-stretch:normal;font-family:'Changa One';-inkscape-font-specification:'Changa One Italic';fill:#aa0000"
         d="m 288.27796,-31.138736 0.26667,-1.44 h -2.56 l 1.44,-8.16 h 12.21333 l -3.14666,17.813333 q -6.50667,2.4 -13.06667,2.4 -6.56,0 -9.49333,-2.613334 -2.88,-2.613333 -2.88,-8.053333 0,-2.293333 0.74666,-6.773333 1.6,-9.28 5.65334,-13.386666 4.05333,-4.106667 13.44,-4.106667 1.97333,0 5.01333,0.426667 3.09333,0.426667 4.53333,0.96 l -2.93333,8.16 q -4,-0.746667 -7.36,-0.746667 -3.30667,0 -4.74667,0.533333 -1.44,0.533334 -1.70666,2.133334 l -2.61334,15.093333 h 3.36 q 1.81334,0 2.66667,-0.373334 0.90667,-0.426666 1.17333,-1.866666 z" />
    </g>
    <g
       transform="matrix(0.07094252,0,0,0.07094252,46.256823,36.602102)"
       id="g1475">
      <path
         inkscape:connector-curvature="0"
         id="path1062"
         d="m 0.7209245,243.46398 c 0,0 20.9068105,-28.11606 20.9068105,-28.11606 0,0 23.069584,-12.97664 23.069584,-12.97664 0,0 42.534546,-5.7674 42.534546,-5.7674 0,0 28.116055,-23.79051 28.116055,-23.79051 0,0 24.51143,-7.20924 24.51143,-7.20924 0,0 15.86034,0 15.86034,0 0,0 15.86034,4.32555 15.86034,4.32555 0,0 18.02311,-10.09295 18.02311,-10.09295 0,0 19.46497,-7.93017 19.46497,-7.93017 0,0 20.90681,-0.72092 20.90681,-0.72092 0,0 21.62773,2.8837 21.62773,2.8837 0,0 17.30219,8.65109 17.30219,8.65109 0,0 22.34866,18.02311 22.34866,18.02311 0,0 -25.23236,-10.09294 -25.23236,-10.09294 0,0 -19.46496,-5.76739 -19.46496,-5.76739 0,0 -19.46496,0 -19.46496,0 0,0 -15.13942,7.20924 -15.13942,7.20924 0,0 -7.93017,15.86034 -7.93017,15.86034 0,0 -5.04647,24.51143 -5.04647,24.51143 0,0 -2.8837,18.74404 -2.8837,18.74404 0,0 -15.13941,-18.74404 -15.13941,-18.74404 0,0 -7.93017,-21.62773 -7.93017,-21.62773 0,0 1.44185,-11.53479 1.44185,-11.53479 0,0 -27.39513,-7.20925 -27.39513,-7.20925 0,0 -15.13942,2.16277 -15.13942,2.16277 0,0 -21.62773,12.97664 -21.62773,12.97664 0,0 -7.93017,18.74404 -7.93017,18.74404 0,0 2.8837,60.55766 2.8837,60.55766 0,0 -22.348662,-17.30219 -22.348662,-17.30219 0,0 -8.651094,-17.30219 -8.651094,-17.30219"
         style="fill:none;stroke:#aa0000;stroke-width:1px;stroke-linecap:butt;stroke-linejoin:miter;stroke-opacity:1"
         transform="translate(-425.91333,-448.85302)" />
      <path
         inkscape:connector-curvature="0"
         id="path1066"
         d="m 74.255224,231.92918 c 0,0 -6.488321,-8.65109 -6.488321,-8.65109 0,0 -9.372018,-5.7674 -9.372018,-5.7674 0,0 -8.651094,0 -8.651094,0 0,0 -18.744037,10.09295 -18.744037,10.09295 0,0 -14.41849,12.97664 -14.41849,12.97664 0,0 -6.488321,12.97664 -6.488321,12.97664 0,0 -7.9301695,19.46496 -7.9301695,19.46496 0,0 -1.441849,-29.5579 -1.441849,-29.5579"
         style="fill:none;stroke:#aa0000;stroke-width:1px;stroke-linecap:butt;stroke-linejoin:miter;stroke-opacity:1"
         transform="translate(-425.91333,-448.85302)" />
      <path
         inkscape:connector-curvature="0"
         id="path1093"
         d="m 301.34644,248.87091 c 0,0 -13.69756,-33.16253 -13.69756,-33.16253 0,0 -2.16278,-14.41849 -2.16278,-14.41849 0,0 5.7674,-20.54635 5.7674,-20.54635"
         style="fill:none;stroke:#aa0000;stroke-width:1px;stroke-linecap:butt;stroke-linejoin:miter;stroke-opacity:1"
         transform="translate(-425.91333,-448.85302)" />
      <path
         inkscape:connector-curvature="0"
         id="path1097"
         d="m 291.2535,180.74354 c 0,0 11.17433,-8.65109 11.17433,-8.65109 0,0 24.51143,-4.68601 24.51143,-4.68601 0,0 21.62774,1.44185 21.62774,1.44185 0,0 14.77895,7.20924 14.77895,7.20924 0,0 10.09294,13.69757 10.09294,13.69757 0,0 12.25572,26.67421 12.25572,26.67421 0,0 42.00293,142.02439 42.00293,142.02439 0,0 2.54885,22.4299 2.54885,22.4299 0,0 -0.50977,18.35174 -0.50977,18.35174 0,0 -30.58624,67.79949 -30.58624,67.79949 0,0 -8.15633,8.66611 -8.15633,8.66611 0,0 -15.80289,5.60747 -15.80289,5.60747 0,0 13.76381,-7.64656 13.76381,-7.64656 0,0 10.19541,-13.25403 10.19541,-13.25403 0,0 10.70519,-21.41037 10.70519,-21.41037 0,0 16.31265,-40.78165 16.31265,-40.78165 0,0 0.50978,-23.44944 0.50978,-23.44944 0,0 -11.72473,-45.87936 -11.72473,-45.87936 0,0 -42.31096,-114.18861 -42.31096,-114.18861 0,0 -17.3322,-16.82243 -17.3322,-16.82243 0,0 -15.29312,-2.54886 -15.29312,-2.54886 0,0 -13.25403,3.5684 -13.25403,3.5684 0,0 -11.21496,11.72472 -11.21496,11.72472 0,0 -14.20156,38.25069 -14.20156,38.25069"
         style="fill:none;stroke:#aa0000;stroke-width:1px;stroke-linecap:butt;stroke-linejoin:miter;stroke-opacity:1"
         transform="translate(-425.91333,-448.85302)" />
      <path
         inkscape:connector-curvature="0"
         id="path1101"
         d="m 279.35429,271.28292 c 0,0 4.07817,29.5667 4.07817,29.5667 0,0 6.62701,10.70518 6.62701,10.70518 0,0 36.19372,106.54206 36.19372,106.54206 0,0 12.23449,10.70518 12.23449,10.70518 0,0 14.78335,3.56839 14.78335,3.56839 0,0 24.46899,0.50977 24.46899,0.50977 0,0 19.37128,-5.60747 19.37128,-5.60747 0,0 -11.72472,10.19541 -11.72472,10.19541 0,0 -13.25404,6.62702 -13.25404,6.62702 0,0 -43.84027,8.6661 -43.84027,8.6661 0,0 -5.09771,9.17587 -5.09771,9.17587 0,0 1.01954,8.6661 1.01954,8.6661 0,0 2.03909,7.64656 2.03909,7.64656 0,0 20.90059,6.62702 20.90059,6.62702 0,0 10.70518,0.50977 10.70518,0.50977 0,0 -13.7638,2.03908 -13.7638,2.03908 0,0 -33.64486,-9.17587 -33.64486,-9.17587 0,0 -21.41037,0 -21.41037,0 0,0 -14.27357,4.58793 -14.27357,4.58793 0,0 9.17587,-13.25403 9.17587,-13.25403 0,0 7.64656,-13.25404 7.64656,-13.25404 0,0 4.07816,-20.39082 4.07816,-20.39082 0,0 -1.52931,-45.87936 -1.52931,-45.87936 0,0 -15.80289,-101.95412 -15.80289,-101.95412 0,0 1.01954,-16.82243 1.01954,-16.82243 z"
         style="fill:none;stroke:#aa0000;stroke-width:1px;stroke-linecap:butt;stroke-linejoin:miter;stroke-opacity:1"
         transform="translate(-425.91333,-448.85302)" />
      <path
         inkscape:connector-curvature="0"
         id="path1105"
         d="m 319.1164,523.61937 c 0,0 53.01614,10.70518 53.01614,10.70518 0,0 11.21495,10.19542 11.21495,10.19542 0,0 0.50977,9.17587 0.50977,9.17587 0,0 -7.64655,17.84197 -7.64655,17.84197 0,0 33.64486,-23.95922 34.07418,-24.4744 0.42931,-0.51518 1.27893,-1.53472 1.78919,-2.03908 0.51026,-0.50436 0.68019,-0.50436 0.76015,-0.59432 0.08,-0.09 0.08,-0.25989 0.08,-0.41981"
         style="fill:none;stroke:#aa0000;stroke-width:1px;stroke-linecap:butt;stroke-linejoin:miter;stroke-opacity:1"
         transform="translate(-425.91333,-448.85302)" />
      <path
         inkscape:connector-curvature="0"
         id="path1109"
         d="m 415.97281,535.3441 c 0,0 -3.05858,8.6661 -3.05858,8.6661"
         style="fill:none;stroke:#aa0000;stroke-width:1px;stroke-linecap:butt;stroke-linejoin:miter;stroke-opacity:1"
         transform="translate(-425.91333,-448.85302)" />
      <path
         inkscape:connector-curvature="0"
         id="path1113"
         d="m 412.91423,544.0102 c 0,0 -4e-5,0 -4e-5,0"
         style="fill:none;stroke:#aa0000;stroke-width:1px;stroke-linecap:butt;stroke-linejoin:miter;stroke-opacity:1"
         transform="translate(-425.91333,-448.85302)" />
      <path
         inkscape:connector-curvature="0"
         id="path1117"
         d="m 412.91419,544.0102 c 0,0 0,0 0,0 0,0 3.05862,-8.6661 3.05862,-8.6661 0,0 0.50977,-20.9006 0.50977,-20.9006 0,0 -2.03908,-15.80289 -2.03908,-15.80289 0,0 -15.29312,-31.60578 -15.29312,-31.60578"
         style="fill:none;stroke:#aa0000;stroke-width:1px;stroke-linecap:butt;stroke-linejoin:miter;stroke-opacity:1"
         transform="translate(-425.91333,-448.85302)" />
      <path
         inkscape:connector-curvature="0"
         id="path1121"
         d="m 399.15038,467.03483 c 0,0 15.29312,31.60578 15.29312,31.60578"
         style="fill:none;stroke:#aa0000;stroke-width:1px;stroke-linecap:butt;stroke-linejoin:miter;stroke-opacity:1"
         transform="translate(-425.91333,-448.85302)" />
      <path
         inkscape:connector-curvature="0"
         id="path1125"
         d="m 414.4435,498.64061 c 0,0 2.03908,15.80289 2.03908,15.80289"
         style="fill:none;stroke:#aa0000;stroke-width:1px;stroke-linecap:butt;stroke-linejoin:miter;stroke-opacity:1"
         transform="translate(-425.91333,-448.85302)" />
      <path
         inkscape:connector-curvature="0"
         id="path1129"
         d="m 416.48258,514.4435 c 0,0 -0.50977,20.9006 -0.50977,20.9006"
         style="fill:none;stroke:#aa0000;stroke-width:1px;stroke-linecap:butt;stroke-linejoin:miter;stroke-opacity:1"
         transform="translate(-425.91333,-448.85302)" />
      <path
         inkscape:connector-curvature="0"
         id="path1133"
         d="m 399.15038,467.03483 c 0,0 16.94988,29.31182 16.94988,29.31182 0,0 2.93118,15.03823 2.93118,15.03823 0,0 -0.38233,20.64571 -0.38233,20.64571 0,0 -0.50977,8.6661 -0.50977,8.6661 0,0 -10.70518,16.94987 -10.70518,16.94987 0,0 -39.1249,26.63551 -39.1249,26.63551 0,0 -21.53781,0.25489 -21.53781,0.25489 0,0 -37.08581,-8.15633 -37.08581,-8.15633 0,0 -38.74256,0 -38.74256,0 0,0 35.42905,-6.62702 35.42905,-6.62702 0,0 27.27273,-32.62532 27.27273,-32.62532 0,0 -14.52846,-13.50892 -14.52846,-13.50892"
         style="fill:none;stroke:#aa0000;stroke-width:1px;stroke-linecap:butt;stroke-linejoin:miter;stroke-opacity:1"
         transform="translate(-425.91333,-448.85302)" />
      <path
         inkscape:connector-curvature="0"
         id="path1137"
         d="m 250.1608,575.44971 c 0,0 3.60462,-11.17433 3.60462,-11.17433 0,0 10.09295,-11.89525 10.09295,-11.89525 0,0 19.1045,-16.22081 19.1045,-16.22081 0,0 -18.02312,5.40694 -18.02312,5.40694 0,0 -9.73248,-1.44185 -9.73248,-1.44185 0,0 -6.48832,-7.56971 -6.48832,-7.56971 0,0 15.13942,19.82543 12.6755,16.1596 -2.46392,-3.66583 -7.39023,-10.99523 -12.31503,-18.32237"
         style="fill:none;stroke:#aa0000;stroke-width:1px;stroke-linecap:butt;stroke-linejoin:miter;stroke-opacity:1"
         transform="translate(-425.91333,-448.85302)" />
      <path
         inkscape:connector-curvature="0"
         id="path1141"
         d="m 249.07942,530.39193 c 0,0 2.88369,-21.62774 2.88369,-21.62774 0,0 6.84879,-11.17433 6.84879,-11.17433 0,0 15.95446,-14.75214 15.95446,-14.75214 0,0 -19.19862,11.86844 -19.19862,11.86844 0,0 -15.49988,2.8837 -15.49988,2.8837 0,0 -6.12786,-4.68601 -6.12786,-4.68601 0,0 -0.36046,-3.96508 -0.36046,-3.96508 0,0 18.74404,-7.93017 18.74404,-7.93017 0,0 15.49987,-7.20925 15.49987,-7.20925 0,0 -15.49987,5.04648 -15.49987,5.04648 0,0 -22.70913,1.44184 -22.70913,1.44184 0,0 -17.30218,-10.4534 -17.30218,-10.4534"
         style="fill:none;stroke:#aa0000;stroke-width:1px;stroke-linecap:butt;stroke-linejoin:miter;stroke-opacity:1"
         transform="translate(-425.91333,-448.85302)" />
      <path
         inkscape:connector-curvature="0"
         id="path1145"
         d="m 212.31227,469.83427 c 0,0 -10.45341,-14.05803 -10.45341,-14.05803 0,0 -9.37202,-27.39513 -9.37202,-27.39513 0,0 -15.13941,-81.82493 -15.13941,-81.82493 0,0 -6.12786,-71.37153 -6.12786,-71.37153 0,0 -1.08139,179.51021 -1.08139,179.51021 0,0 -4.32554,15.13941 -4.32554,15.13941 0,0 -11.5348,12.61618 -11.5348,12.61618 0,0 -18.02311,0.72092 -18.02311,0.72092 0,0 -21.26727,-3.24416 -21.26727,-3.24416 0,0 -11.89526,-9.01155 -11.89526,-9.01155 0,0 -15.139411,-18.74404 -15.139411,-18.74404 0,0 -6.48832,-28.11606 -6.48832,-28.11606 0,0 -6.01842,-120.65709 -6.01842,-120.65709 0,0 -7.646559,36.19371 -7.646559,36.19371 0,0 -0.50977,106.54206 -0.50977,106.54206 0,0 -8.666101,10.19541 -8.666101,10.19541 0,0 -7.646559,3.05863 -7.646559,3.05863 0,0 -10.195412,-2.03909 -10.195412,-2.03909 0,0 -16.312659,-4.58793 -16.312659,-4.58793"
         style="fill:none;stroke:#aa0000;stroke-width:1px;stroke-linecap:butt;stroke-linejoin:miter;stroke-opacity:1"
         transform="translate(-425.91333,-448.85302)" />
      <path
         inkscape:connector-curvature="0"
         id="path1149"
         d="m 24.468989,452.76126 c 0,0 -24.9787596,-32.11555 -24.9787596,-32.11555 0,0 0,1.52931 0,1.52931 0,0 -6.6270179,-20.90059 -6.6270179,-20.90059 0,0 -5.0977055,-33.13509 -5.0977055,-33.13509 0,0 -0.509771,-36.19372 -0.509771,-36.19372 0,0 0,-6.62701 0,-6.62701 0,0 5.0977059,-21.92014 5.0977059,-21.92014 0,0 -8.6660999,21.92014 -8.6660999,21.92014 0,0 -3.568395,26.50807 -3.568395,26.50807 0,0 -0.50977,18.35174 -0.50977,18.35174 0,0 -12.744265,-17.3322 -12.744265,-17.3322 0,0 -5.097706,-19.37128 -5.097706,-19.37128 0,0 2.548853,-24.46899 2.548853,-24.46899 0,0 5.097706,-23.44945 5.097706,-23.44945 0,0 9.685641,-17.3322 9.685641,-17.3322 0,0 21.6215195,-24.76032 21.6215195,-24.76032"
         style="fill:none;stroke:#aa0000;stroke-width:1px;stroke-linecap:butt;stroke-linejoin:miter;stroke-opacity:1"
         transform="translate(-425.91333,-448.85302)" />
      <path
         inkscape:connector-curvature="0"
         id="path1153"
         d="m 0.7209245,243.46398 c 0,0 -21.6215195,24.76032 -21.6215195,24.76032"
         style="fill:none;stroke:#aa0000;stroke-width:1px;stroke-linecap:butt;stroke-linejoin:miter;stroke-opacity:1"
         transform="translate(-425.91333,-448.85302)" />
      <path
         inkscape:connector-curvature="0"
         id="path1157"
         d="m -30.586236,285.5565 c 0,0 9.685641,-17.3322 9.685641,-17.3322 0,0 -12.99915,15.29312 -12.99915,15.29312 0,0 -8.283773,19.62617 -8.283773,19.62617 0,0 -3.823279,20.90059 -3.823279,20.90059 0,0 -1.784197,34.53696 -1.784197,34.53696 0,0 2.166525,15.93033 2.166525,15.93033 0,0 8.15633,15.67545 8.15633,15.67545 0,0 9.430756,10.70518 9.430756,10.70518 0,0 10.705182,8.15633 10.705182,8.15633 0,0 10.5777405,46.38912 10.5777405,46.38912 0,0 10.1954121,13.50893 10.1954121,13.50893 0,0 14.4010194,7.26423 14.4010194,7.26423 0,0 20.64571,5.35259 20.64571,5.35259 0,0 16.82243,1.14698 16.82243,1.14698 0,0 8.028887,-2.03908 8.028887,-2.03908 0,0 6.499575,-3.69584 6.499575,-3.69584 0,0 4.715378,-3.31351 4.715378,-3.31351 0,0 1.529312,-2.67629 1.529312,-2.67629 0,0 1.401869,0.25488 1.401869,0.25488 0,0 10.832625,12.99915 10.832625,12.99915 0,0 15.930333,9.5582 15.930333,9.5582 0,0 11.21495,3.69584 11.21495,3.69584 0,0 12.74427,2.29397 12.74427,2.29397 0,0 20.00849,0.25488 20.00849,0.25488 0,0 11.46984,-3.56839 11.46984,-3.56839 0,0 6.11725,-4.07817 6.11725,-4.07817 0,0 6.24469,-8.02888 6.24469,-8.02888 0,0 3.05862,-4.33305 3.05862,-4.33305 0,0 2.42141,0.25488 2.42141,0.25488 0,0 15.16568,14.52846 15.16568,14.52846 0,0 20.13594,8.41122 20.13594,8.41122 0,0 18.2243,1.7842 18.2243,1.7842 0,0 1.01954,2.67629 1.01954,2.67629 0,0 -9.43076,13.38148 -9.43076,13.38148 0,0 -2.03908,15.16567 -2.03908,15.16567 0,0 4.84282,15.29312 4.84282,15.29312 0,0 12.61682,16.4401 12.61682,16.4401 0,0 6.37213,5.22515 6.37213,5.22515 0,0 5.7258,2.25515 5.7258,2.25515"
         style="fill:none;stroke:#aa0000;stroke-width:1px;stroke-linecap:butt;stroke-linejoin:miter;stroke-opacity:1"
         transform="translate(-425.91333,-448.85302)" />
      <path
         inkscape:connector-curvature="0"
         id="path1192"
         d="m -30.50731,-176.37422 -20.85089,-56.5469 -9.12022,-9.54208 c -8.51552,-8.90942 -9.68381,-9.63285 -17.62061,-10.91103 -19.18906,-3.09031 -30.03699,5.50863 -39.52792,31.33304 -3.04686,8.29034 -6.02731,15.60163 -6.62322,16.2473 -1.50301,1.6285 -12.79559,-27.0544 -13.90953,-35.32989 -0.61158,-4.54341 -0.0647,-9.88369 1.66729,-16.28233 2.09872,-7.7533 3.57724,-10.31343 7.96156,-13.78588 7.18455,-5.69026 23.70004,-9.15199 39.50281,-8.27999 21.56638,1.19005 30.50633,8.93158 42.94852,37.19121 5.19535,11.80007 37.69983,118.76208 36.84311,121.23906 -0.23101,0.66791 -9.80291,-24.23172 -21.2709,-55.33251 z"
         style="opacity:0;fill:#aa0000;stroke:#aa0000;stroke-width:0.61711138;stroke-miterlimit:4;stroke-dasharray:none;stroke-opacity:1" />
      <path
         inkscape:connector-curvature="0"
         id="path1194"
         d="m -30.50731,-176.37422 -20.85089,-56.5469 -9.12022,-9.54208 c -8.51552,-8.90942 -9.68381,-9.63285 -17.62061,-10.91103 -19.18906,-3.09031 -30.03699,5.50863 -39.52792,31.33304 -3.04686,8.29034 -6.02731,15.60163 -6.62322,16.2473 -1.50301,1.6285 -12.79559,-27.0544 -13.90953,-35.32989 -0.61158,-4.54341 -0.0647,-9.88369 1.66729,-16.28233 2.09872,-7.7533 3.57724,-10.31343 7.96156,-13.78588 7.18455,-5.69026 23.70004,-9.15199 39.50281,-8.27999 21.56638,1.19005 30.50633,8.93158 42.94852,37.19121 5.19535,11.80007 37.69983,118.76208 36.84311,121.23906 -0.23101,0.66791 -9.80291,-24.23172 -21.2709,-55.33251 z"
         style="opacity:0;fill:#aa0000;stroke:#aa0000;stroke-width:0.61711138;stroke-miterlimit:4;stroke-dasharray:none;stroke-opacity:1" />
      <path
         inkscape:connector-curvature="0"
         id="path1196"
         d="m -30.50731,-176.37422 -20.85089,-56.5469 -9.12022,-9.54208 c -8.51552,-8.90942 -9.68381,-9.63285 -17.62061,-10.91103 -19.18906,-3.09031 -30.03699,5.50863 -39.52792,31.33304 -3.04686,8.29034 -6.02731,15.60163 -6.62322,16.2473 -1.50301,1.6285 -12.79559,-27.0544 -13.90953,-35.32989 -0.61158,-4.54341 -0.0647,-9.88369 1.66729,-16.28233 2.09872,-7.7533 3.57724,-10.31343 7.96156,-13.78588 7.18455,-5.69026 23.70004,-9.15199 39.50281,-8.27999 21.56638,1.19005 30.50633,8.93158 42.94852,37.19121 5.19535,11.80007 37.69983,118.76208 36.84311,121.23906 -0.23101,0.66791 -9.80291,-24.23172 -21.2709,-55.33251 z"
         style="opacity:0;fill:#aa0000;stroke:#aa0000;stroke-width:0.61711138;stroke-miterlimit:4;stroke-dasharray:none;stroke-opacity:1" />
      <path
         inkscape:connector-curvature="0"
         id="path1198"
         d="m -30.50731,-176.37422 -20.85089,-56.5469 -9.12022,-9.54208 c -8.51552,-8.90942 -9.68381,-9.63285 -17.62061,-10.91103 -19.18906,-3.09031 -30.03699,5.50863 -39.52792,31.33304 -3.04686,8.29034 -6.02731,15.60163 -6.62322,16.2473 -1.50301,1.6285 -12.79559,-27.0544 -13.90953,-35.32989 -0.61158,-4.54341 -0.0647,-9.88369 1.66729,-16.28233 2.09872,-7.7533 3.57724,-10.31343 7.96156,-13.78588 7.18455,-5.69026 23.70004,-9.15199 39.50281,-8.27999 21.56638,1.19005 30.50633,8.93158 42.94852,37.19121 5.19535,11.80007 37.69983,118.76208 36.84311,121.23906 -0.23101,0.66791 -9.80291,-24.23172 -21.2709,-55.33251 z"
         style="opacity:0;fill:#aa0000;stroke:#aa0000;stroke-width:0.61711138;stroke-miterlimit:4;stroke-dasharray:none;stroke-opacity:1" />
      <path
         inkscape:connector-curvature="0"
         id="rect1283"
         d="m -112.91419,31.180969 h 23.449445 v 12.48938 h -23.449445 z"
         style="opacity:0;fill:#800000;stroke:#aa0000;stroke-width:0.146;stroke-miterlimit:4;stroke-dasharray:none;stroke-opacity:1" />
      <path
         inkscape:connector-curvature="0"
         id="rect1285"
         d="m -92.778252,26.593033 h 17.077315 v 15.038233 h -17.077315 z"
         style="opacity:0;fill:#aa0000;stroke:#aa0000;stroke-width:0.146;stroke-miterlimit:4;stroke-dasharray:none;stroke-opacity:1" />
      <path
         inkscape:connector-curvature="0"
         id="rect1287"
         d="m -100.93458,36.023788 h 22.175024 v 9.940527 h -22.175024 z"
         style="opacity:0;fill:#aa0000;stroke:#aa0000;stroke-width:0.146;stroke-miterlimit:4;stroke-dasharray:none;stroke-opacity:1" />
      <path
         style="opacity:0;fill:#d40000;stroke:#aa0000;stroke-width:0.05262749;stroke-miterlimit:4;stroke-dasharray:none;stroke-opacity:1"
         d="m -97.487354,130.99402 -18.383576,-4.12023 -15.49988,-0.0523 -15.49987,-0.0523 13.81213,-2.61935 c 8.26474,-1.56734 14.00509,-2.82152 14.29255,-3.12272 1.32915,-1.39264 27.226273,-32.583481 27.226273,-32.79168 0,-0.133313 -2.844415,-2.879481 -6.320918,-6.102597 -3.476505,-3.223117 -6.263875,-5.917258 -6.194145,-5.986983 0.0974,-0.0974 45.56602,8.939331 49.148881,9.768167 0.422307,0.09769 3.179843,2.364333 6.127859,5.036977 6.048848,5.483828 5.800648,5.010714 5.869886,11.189176 l 0.03233,2.8837 -3.988309,9.30455 c -2.193571,5.1175 -3.937639,9.44057 -3.875708,9.60683 0.18203,0.48863 34.500044,-24.284777 36.537539,-26.375631 1.667538,-1.711212 2.01644,-2.366813 3.386391,-6.363129 l 1.5273112,-4.45536 0.2839757,-10.323592 c 0.27885,-10.137229 0.2649073,-10.473256 -0.772211,-18.613872 l -1.0562089,-8.290277 -2.508402,-5.193418 c -1.379623,-2.856379 -2.448145,-5.253676 -2.374495,-5.327326 0.07365,-0.07365 1.289687,1.871226 2.702306,4.321947 l 2.568398,4.455856 1.4837747,7.539667 1.4837743,7.539667 -0.2209777,9.011556 c -0.1215371,4.956356 -0.3211755,11.402845 -0.4436426,14.325531 l -0.2226683,5.31397 -5.2872094,8.383595 -5.28721,8.383596 -19.442087,13.24698 -19.442087,13.24699 h -5.806981 c -3.19384,0 -7.981889,0.0793 -10.640104,0.17613 l -4.833117,0.17613 z"
         id="path1312"
         inkscape:connector-curvature="0" />
      <path
         style="opacity:0;fill:#d40000;stroke:#aa0000;stroke-width:0.05262749;stroke-miterlimit:4;stroke-dasharray:none;stroke-opacity:1"
         d="m -97.487354,130.99402 -18.383576,-4.12023 -15.49988,-0.0523 -15.49987,-0.0523 13.81213,-2.61935 c 8.26474,-1.56734 14.00509,-2.82152 14.29255,-3.12272 1.32915,-1.39264 27.226273,-32.583481 27.226273,-32.79168 0,-0.133313 -2.844415,-2.879481 -6.320918,-6.102597 -3.476505,-3.223117 -6.263875,-5.917258 -6.194145,-5.986983 0.0974,-0.0974 45.56602,8.939331 49.148881,9.768167 0.422307,0.09769 3.179843,2.364333 6.127859,5.036977 6.048848,5.483828 5.800648,5.010714 5.869886,11.189176 l 0.03233,2.8837 -3.988309,9.30455 c -2.193571,5.1175 -3.937639,9.44057 -3.875708,9.60683 0.18203,0.48863 34.500044,-24.284777 36.537539,-26.375631 1.667538,-1.711212 2.01644,-2.366813 3.386391,-6.363129 l 1.5273112,-4.45536 0.2839757,-10.323592 c 0.27885,-10.137229 0.2649073,-10.473256 -0.772211,-18.613872 l -1.0562089,-8.290277 -2.508402,-5.193418 c -1.379623,-2.856379 -2.448145,-5.253676 -2.374495,-5.327326 0.07365,-0.07365 1.289687,1.871226 2.702306,4.321947 l 2.568398,4.455856 1.4837747,7.539667 1.4837743,7.539667 -0.2209777,9.011556 c -0.1215371,4.956356 -0.3211755,11.402845 -0.4436426,14.325531 l -0.2226683,5.31397 -5.2872094,8.383595 -5.28721,8.383596 -19.442087,13.24698 -19.442087,13.24699 h -5.806981 c -3.19384,0 -7.981889,0.0793 -10.640104,0.17613 l -4.833117,0.17613 z"
         id="path1314"
         inkscape:connector-curvature="0" />
      <path
         inkscape:connector-curvature="0"
         id="rect1318"
         d="m -125.0804,69.000244 h 71.011064 V 127.39513 H -125.0804 Z"
         style="opacity:0;fill:#d40000;stroke:#aa0000;stroke-width:0.146;stroke-miterlimit:4;stroke-dasharray:none;stroke-opacity:1" />
      <path
         style="opacity:1;fill:#aa0000;stroke:#aa0000;stroke-width:1.50817406;stroke-miterlimit:4;stroke-dasharray:none;stroke-opacity:1"
         d="m -423.31247,-193.72801 -0.06,-12.12898 9.97337,-13.26867 c 8.6654,-11.52856 11.45658,-14.12419 21.28317,-19.79216 10.81849,-6.24011 12.18601,-6.63201 31.47979,-9.02145 22.40649,-2.77493 21.77475,-2.49258 39.92195,-17.84298 9.39844,-7.94998 12.82584,-9.89357 22.34866,-12.67336 13.08454,-3.81948 26.88081,-4.26454 37.00282,-1.19369 7.00049,2.12384 7.02436,2.11955 15.93266,-2.86226 18.19805,-10.17693 28.98585,-13.71548 41.7774,-13.70357 23.65678,0.022 36.64255,4.07579 52.37239,16.34908 4.13209,3.22409 7.35826,6.01662 7.16926,6.20562 -0.18901,0.18901 -6.48956,-1.99981 -14.00123,-4.86403 -11.06408,-4.21877 -16.17609,-5.33078 -26.9202,-5.85595 -11.53744,-0.56394 -14.32248,-0.20898 -21.41041,2.7288 -7.40506,3.06923 -8.54337,4.16076 -12.48774,11.9745 -2.94027,5.82466 -5.57945,15.06443 -8.18317,28.64937 l -3.84319,20.05193 -6.38797,-8.0054 c -7.98409,-10.00567 -14.49909,-26.3646 -14.05164,-35.28315 l 0.32504,-6.47871 -12.97664,-3.40816 c -18.34124,-4.8171 -26.60659,-3.81572 -41.32912,5.00716 -10.85055,6.5025 -11.26252,6.95657 -15.27395,16.83507 -4.05015,9.97383 -4.10467,10.48186 -3.10091,28.89635 0.56195,10.30922 1.08638,23.11193 1.16541,28.45047 l 0.14368,9.70642 -9.93717,-7.54365 c -7.85978,-5.96662 -10.79866,-9.31977 -14.05803,-16.03965 -7.65952,-15.79168 -16.23782,-23.9456 -25.19189,-23.9456 -5.61975,0 -20.58439,7.98702 -30.54588,16.30314 -5.80521,4.84635 -8.61373,8.90551 -14.159,20.46401 l -6.91737,14.41849 z"
         id="path1414"
         inkscape:connector-curvature="0" />
      <path
         style="opacity:1;fill:#aa0000;stroke:#aa0000;stroke-width:1.50817406;stroke-miterlimit:4;stroke-dasharray:none;stroke-opacity:1"
         d="m -181.97526,122.06943 c -6.15377,-3.74232 -16.68528,-18.38526 -19.6191,-27.278227 -3.48807,-10.573065 -2.22145,-19.115573 4.25706,-28.711107 6.30371,-9.336621 5.09012,-11.936808 -5.57133,-11.936808 -11.43486,0 -27.88705,-7.338176 -37.39088,-16.677464 -4.38459,-4.308692 -8.6257,-7.833969 -9.4247,-7.833969 -0.799,0 -3.79616,3.138919 -6.66034,6.975377 -7.87451,10.547601 -13.02205,12.496505 -32.89601,12.45472 -12.35972,-0.02595 -18.57668,-0.720549 -24.4188,-2.728065 -11.37274,-3.908016 -22.09021,-10.815857 -28.2182,-18.187786 -2.94634,-3.544425 -5.89326,-6.647183 -6.54871,-6.894994 -0.65544,-0.247825 -2.58737,0.945075 -4.29317,2.650883 -4.64678,4.646776 -14.32081,8.546228 -21.29054,8.5819 -9.76124,0.04989 -27.54539,-4.08845 -37.92193,-8.824477 -14.94597,-6.821604 -18.41412,-12.523468 -24.90115,-40.939183 -4.91298,-21.520715 -5.55742,-23.252534 -9.90685,-26.622675 -7.90972,-6.128815 -13.99521,-13.307699 -19.55592,-23.069584 l -5.33863,-9.372018 0.12756,-22.34866 c 0.0702,-12.291763 0.92167,-26.890483 1.89225,-32.441603 1.73477,-9.92183 10.07275,-34.52722 11.28827,-33.3117 0.34144,0.34144 -0.69109,7.32742 -2.29451,15.5244 -4.66661,23.85649 -5.07645,33.59583 -1.87523,44.5621 2.51221,8.60594 13.64154,27.014595 16.45448,27.216803 0.59476,0.04275 1.08139,-4.143944 1.08139,-9.303773 0,-9.136242 3.73682,-38.0914 5.09062,-39.4452 0.37222,-0.37223 0.68519,9.97489 0.69547,22.99358 0.0205,25.893578 3.33427,51.960964 8.46674,66.601834 1.9407,5.536044 7.1366,13.751725 15.50193,24.511426 6.92054,8.9013847 12.69695,16.3623045 12.83646,16.5798074 0.13951,0.2175173 6.31671,1.9281126 13.72712,3.8013484 15.65463,3.9572412 17.9351,3.4952872 26.22751,-5.3128243 l 5.40694,-5.7431874 -10e-4,-52.8025131 c -9.2e-4,-43.172085 0.43083,-54.978581 2.36721,-64.733641 1.30258,-6.56212 2.66659,-11.63286 3.03114,-11.26832 0.36454,0.36455 1.88725,24.54968 3.38378,53.744749 3.43157,66.94448 5.11946,76.1553429 16.5939,90.553835 11.38338,14.28421 18.07251,18.841405 30.48184,20.766778 5.66487,0.878936 14.7173,1.597741 20.1165,1.597352 l 9.81676,-7.06e-4 6.1909,-7.188858 c 10.00196,-11.614252 10.33402,-13.907614 10.54509,-72.832349 0.10223,-28.54861 0.59592,-60.665801 1.09699,-71.371521 l 0.91106,-19.46497 1.14181,15.13942 c 1.62497,21.545487 15.8895,97.392083 21.4224,113.9060695 5.78488,17.2660125 12.69298,26.7389455 24.73994,33.9253805 8.73046,5.208016 9.16719,5.306451 19.74183,4.44933 l 10.81386,-0.876515 -9.14848,3.997902 c -5.03167,2.198834 -9.08687,4.467468 -9.01156,5.04141 0.0753,0.573928 0.13698,2.001806 0.13698,3.173048 0,1.171243 1.5889,3.170626 3.5309,4.443073 3.02308,1.980797 4.69852,2.071144 11.64914,0.628199 4.46503,-0.926936 8.43803,-1.365547 8.82889,-0.974676 0.39087,0.390857 -0.87888,3.228661 -2.82166,6.30623 -2.448,3.877881 -4.04742,9.46633 -5.21033,18.205016 l -1.67801,12.60946 6.86454,8.73746 c 3.7755,4.805611 7.1079,8.007393 7.40534,7.115083 0.29743,-0.892307 -0.26184,-2.589493 -1.24283,-3.771521 -2.31659,-2.791305 -2.02074,-2.962712 6.84088,-3.963139 l 7.49264,-0.845889 -11.31093,11.310929 c -7.32527,7.32527 -11.65578,12.88102 -12.28959,15.76674 -1.28385,5.84535 -2.29407,6.28559 -7.35757,3.20628 z"
         id="path1416"
         inkscape:connector-curvature="0" />
      <path
         style="opacity:1;fill:#aa0000;stroke:#aa0000;stroke-width:1.50817406;stroke-miterlimit:4;stroke-dasharray:none;stroke-opacity:1"
         d="m -97.514644,130.47814 c -10.715766,-2.47139 -22.699816,-4.2423 -29.557906,-4.36783 l -11.53479,-0.21114 9.95665,-1.97835 c 5.47615,-1.08809 10.11164,-2.14782 10.30107,-2.35495 6.03501,-6.59874 26.602372,-32.366982 26.602372,-33.329325 0,-0.740327 -2.43312,-3.564493 -5.406933,-6.275924 -4.964059,-4.526076 -5.111689,-4.871963 -1.802312,-4.222846 1.982543,0.388866 12.688271,2.466977 23.790509,4.618025 18.650635,3.613542 20.588766,4.293593 25.483053,8.941488 7.429351,7.055335 7.788382,10.076852 2.636091,22.184562 -2.410083,5.66361 -4.145816,10.53362 -3.857187,10.82226 0.288631,0.28863 8.194792,-4.99813 17.569247,-11.74835 9.374455,-6.75023 17.30566,-12.01194 17.6249,-11.6927 1.890991,1.89099 -5.607994,8.45384 -23.348577,20.43386 l -20.124583,13.58991 -10.154247,-0.126 c -5.605806,-0.0696 -18.227419,-1.98792 -28.177357,-4.28269 z"
         id="path1418"
         inkscape:connector-curvature="0" />
      <path
         style="opacity:1;fill:#aa0000;stroke:#aa0000;stroke-width:1.50817406;stroke-miterlimit:4;stroke-dasharray:none;stroke-opacity:1"
         d="m -105.44481,31.018639 c -9.68766,-2.909146 -30.04768,-3.667429 -36.15233,-1.346441 -2.14415,0.815207 -4.19543,1.185214 -4.55839,0.822243 -0.36297,-0.362957 1.2603,-3.463062 3.60727,-6.889112 11.83847,-17.2815259 14.11185,-28.1894899 12.67559,-60.819059 -0.69694,-15.833188 -3.06275,-36.489995 -7.40271,-64.63587 -3.50814,-22.75125 -6.37843,-42.20462 -6.37843,-43.22971 0,-1.0251 1.51032,0.3955 3.35628,3.15689 1.84595,2.76139 11.3254,28.70308 21.06544,57.648203 l 17.70917,52.627489 6.86068,6.58167 c 5.976875,5.733802 8.138916,6.822439 16.783094,8.450667 9.79073,1.844194 32.088064,1.539227 39.480311,-0.539984 l 3.604623,-1.013868 -3.604623,3.203309 c -6.387186,5.6760804 -17.546905,9.5834494 -39.152301,13.7084467 -21.095247,4.0276177 -21.132885,4.0418488 -23.430044,8.8590375 -2.65128,5.5597838 -2.88368,10.5012318 -0.83991,17.8588138 1.12254,4.041157 2.487766,5.536167 6.119815,6.701584 8.194273,2.629313 -0.627095,1.593301 -9.743535,-1.144309 z"
         id="path1420"
         inkscape:connector-curvature="0" />
      <path
         style="opacity:1;fill:#aa0000;stroke:#aa0000;stroke-width:1.50817406;stroke-miterlimit:4;stroke-dasharray:none;stroke-opacity:1"
         d="m -31.207437,-178.0426 -20.884068,-56.40208 -9.376229,-9.05198 c -8.638814,-8.34007 -10.019629,-9.13238 -17.557049,-10.07411 -19.511732,-2.43783 -29.034157,5.50175 -38.894537,32.42937 -3.43765,9.38783 -6.63614,16.61027 -7.10775,16.04987 -2.20268,-2.61739 -12.60124,-30.55016 -13.43151,-36.07993 -1.50494,-10.02316 3.59336,-24.9422 10.3531,-30.29601 7.22767,-5.72442 26.39523,-9.47396 41.186998,-8.05697 28.457114,2.72607 36.070417,15.28321 61.588929,101.5828 8.731932,29.53002 15.6804781,54.27823 15.4412133,54.99602 -0.2392643,0.7178 -9.8328593,-24.07584 -21.3190973,-55.09698 z"
         id="path1422"
         inkscape:connector-curvature="0" />
      <path
         style="opacity:1;fill:#aa0000;stroke:#aa0000;stroke-width:0.37704352;stroke-miterlimit:4;stroke-dasharray:none;stroke-opacity:1"
         d="m -41.236275,28.051001 c 0,-0.08516 1.094904,-0.752772 2.43312,-1.483573 2.278968,-1.244546 2.749681,-1.742867 7.42967,-7.865441 4.892018,-6.399957 5.112467,-6.768292 10.537305,-17.6062418 4.729173,-9.4481266 6.727361,-14.0354662 13.6418517,-31.3182722 l 8.10109749,-20.24874 0.24436101,-11.937198 0.2443609,-11.937197 -5.847105,-22.889353 -5.8471051,-22.889355 -6.468449,-17.44874 c -3.557646,-9.5968 -6.418035,-17.59998 -6.356418,-17.78483 0.06162,-0.18485 1.141204,2.39533 2.399083,5.73372 3.646734,9.67838 9.683802,24.88809 10.311149,25.97778 l 0.5750484,0.99884 -0.1893214,-1.44185 c -0.194019,-1.47763 -3.527388,-13.85139 -6.734694,-24.99978 -0.989851,-3.44066 -1.746336,-6.41593 -1.681077,-6.6117 0.06526,-0.19578 4.481357,14.37938 9.8135515,32.38925 l 9.6948983,32.745216 1.2957428,11.354561 c 1.2705177,11.133518 1.2907937,11.530586 1.0415449,20.396587 l -0.2542016,9.042023 -15.2273439,33.758544 -15.227345,33.758544 -3.991048,4.25477 c -3.827849,4.08079 -4.102182,4.294695 -6.708806,5.231029 -2.729759,0.980565 -3.22987,1.107751 -3.22987,0.821407 z"
         id="path1426"
         inkscape:connector-curvature="0" />
      <path
         style="opacity:1;fill:#aa0000;stroke:#aa0000;stroke-width:0.13330501;stroke-miterlimit:4;stroke-dasharray:none;stroke-opacity:1"
         d="m -58.93163,134.8101 c 0.06659,-0.0613 4.651656,-3.16752 10.189039,-6.90271 14.998955,-10.11742 18.282492,-12.39766 23.141674,-16.07064 4.907777,-3.70972 8.497537,-6.96278 9.620347,-8.71801 0.539262,-0.843 0.709331,-1.73942 0.406529,-2.14277 -0.171567,-0.22853 -0.202671,-0.22448 -0.870349,0.11319 -1.979925,1.00133 -8.141946,5.15636 -16.807462,11.3332 -9.682222,6.90157 -17.050545,11.86973 -17.273471,11.6468 -0.03319,-0.0332 3.393289,-2.52268 7.614406,-5.53218 7.811446,-5.56929 20.194299,-14.4408 24.690841,-17.68939 1.585333,-1.145345 2.785065,-2.118955 3.313509,-2.68899 0.455608,-0.491465 1.18681,-1.245038 1.624894,-1.674609 0.438084,-0.429571 0.796517,-0.843107 0.796517,-0.918969 0,-0.07586 0.695826,-2.105009 1.546282,-4.509218 l 1.5462806,-4.371288 0.2535077,-10.705182 0.2535076,-10.705183 -1.0220327,-7.837723 -1.0220342,-7.837723 -3.905208,-8.076881 c -2.147864,-4.442284 -3.883086,-8.099003 -3.856048,-8.126041 0.02704,-0.02704 1.916249,3.179281 4.198245,7.125154 l 4.149084,7.174314 1.4596889,7.578745 1.4596873,7.578745 -0.1664235,9.239592 c -0.1008925,5.601442 -0.2769596,11.271584 -0.4471453,14.40012 l -0.280723,5.160526 -5.2856684,8.369301 -5.28567,8.3693 -19.481866,13.26499 c -19.035882,12.96132 -19.495592,13.26499 -20.081438,13.26499 -0.349707,0 -0.549116,-0.0464 -0.4785,-0.11146 z"
         id="path1428"
         inkscape:connector-curvature="0" />
      <path
         style="opacity:1;fill:#aa0000;stroke:#aa0000;stroke-width:0.13330501;stroke-miterlimit:4;stroke-dasharray:none;stroke-opacity:1"
         d="m -189.74247,114.47018 c -3.49416,-4.19402 -7.65463,-10.56385 -9.87243,-15.11503 -2.92116,-5.994576 -4.27433,-12.634472 -3.67887,-18.051918 0.50707,-4.613308 2.34978,-9.50792 5.30169,-14.082413 2.30064,-3.565226 2.74753,-4.302949 3.35825,-5.543755 1.90341,-3.86714 1.45132,-5.934417 -1.50177,-6.867298 -1.44735,-0.457217 -2.6358,-0.591595 -6.33051,-0.71579 -5.19031,-0.174467 -8.68909,-0.806084 -13.75218,-2.482613 -5.2736,-1.746233 -11.63207,-4.859968 -16.26057,-7.962781 -3.125,-2.094918 -5.36936,-3.92499 -8.60238,-7.014491 -3.79077,-3.622492 -7.5441,-6.765302 -8.31563,-6.963006 -0.55609,-0.142498 -0.96554,0.106496 -2.29208,1.393852 -1.48086,1.437119 -2.9525,3.16686 -5.45006,6.405901 -3.25878,4.226254 -6.02093,6.73406 -9.25908,8.4065 l -1.1275,0.582329 V 38.806554 31.15344 l 1.99977,-2.325274 c 4.58978,-5.336882 6.2139,-7.778619 7.56305,-11.370438 1.85003,-4.925297 2.80459,-12.9883842 3.13483,-26.4794747 l 0.0866,-3.5365333 11.48173,8.99e-4 11.48173,8.98e-4 0.56001,2.070045 c 0.61711,2.2811004 1.93556,6.2901502 2.88115,8.7607831 5.00036,13.0649209 11.01929,21.2265039 20.26412,27.4778219 1.52823,1.033384 5.5291,3.428617 7.59427,4.546521 2.4113,1.305272 4.64776,1.966626 7.06069,2.087952 1.75131,0.08806 3.98485,-0.04295 12.29821,-0.721382 3.25935,-0.265985 5.93849,-0.472523 5.95365,-0.458975 0.0152,0.01355 -2.25014,1.019531 -5.03399,2.235519 -7.45291,3.255434 -11.1485,5.116499 -12.23314,6.160496 l -0.41713,0.401504 0.0804,1.851924 c 0.0661,1.52156 0.13101,1.965597 0.3639,2.489137 0.65248,1.466762 2.65753,3.283549 4.69954,4.258279 2.29608,1.09601 3.74111,1.071614 10.21886,-0.172522 3.97554,-0.763555 5.33516,-0.963171 7.16558,-1.052031 1.35841,-0.06595 1.56818,-0.04939 1.63671,0.129192 0.18594,0.484548 -0.96255,3.008289 -2.65084,5.825084 -1.50923,2.518049 -2.12637,3.904195 -3.03218,6.810503 -1.15544,3.707228 -1.75559,7.003496 -3.05207,16.763093 -0.49815,3.75 -0.93661,6.994465 -0.97435,7.209924 -0.0628,0.358623 0.25683,0.805766 3.78087,5.28887 2.11722,2.69342 4.25723,5.384596 4.75557,5.98039 1.48695,1.777723 4.24465,4.524599 4.90117,4.881925 0.8356,0.45479 0.96722,0.34235 0.88816,-0.758726 -0.073,-1.015942 -0.49324,-2.006374 -1.26658,-2.984718 -0.86413,-1.093209 -1.12825,-1.542204 -1.12825,-1.917982 0,-0.659051 0.77276,-0.94875 3.69583,-1.385512 1.83118,-0.273615 10.62043,-1.275938 11.18854,-1.275938 0.28483,0 -0.81392,1.156037 -6.99509,7.359813 -7.42043,7.447563 -8.88662,8.984423 -11.09443,11.629143 -1.31126,1.57075 -3.42187,4.40742 -3.42187,4.59901 0,0.0689 -3.19369,0.11637 -7.83488,0.11637 h -7.83488 z"
         id="path1430"
         inkscape:connector-curvature="0" />
      <path
         style="opacity:1;fill:#aa0000;stroke:#aa0000;stroke-width:0.13330501;stroke-miterlimit:4;stroke-dasharray:none;stroke-opacity:1"
         d="m -173.47291,57.881878 c 0,-0.298615 1.27188,-2.854537 2.17019,-4.361144 1.31716,-2.209073 2.3303,-4.227745 2.60936,-5.199143 0.3209,-1.117015 0.246,-1.165163 -1.65598,-1.064464 -1.81047,0.09585 -3.66821,0.374725 -7.64778,1.148032 -3.62119,0.703665 -4.9382,0.877648 -6.23892,0.82419 -0.95511,-0.03925 -0.57644,-0.12269 6.54412,-1.441929 l 7.55789,-1.400264 6.87736,-4.252165 c 3.78256,-2.33869 6.89772,-4.23182 6.92258,-4.206954 0.0249,0.02487 -2.47283,2.367737 -5.55044,5.20638 l -5.59565,5.161169 -2.88764,4.715378 c -2.81084,4.589974 -3.10509,5.051559 -3.10509,4.870914 z"
         id="path1432"
         inkscape:connector-curvature="0" />
      <path
         style="opacity:1;fill:#aa0000;stroke:#aa0000;stroke-width:0.13330501;stroke-miterlimit:4;stroke-dasharray:none;stroke-opacity:1"
         d="m -96.760421,33.914319 c -8.248149,-2.24794 -14.906449,-4.105735 -14.796219,-4.128433 0.50658,-0.104319 3.71412,0.628071 8.20445,1.873355 6.343536,1.759227 12.273327,2.650542 10.677566,1.60496 -0.173141,-0.113447 -1.250266,-0.537377 -2.39361,-0.942066 -1.143344,-0.40469 -2.308204,-0.853961 -2.588578,-0.99838 -0.634816,-0.326992 -1.636193,-1.049871 -1.559955,-1.126109 0.03123,-0.03123 4.581489,1.383897 10.111683,3.144731 l 10.054899,3.201517 1.847919,0.105648 c 1.016355,0.05811 2.192013,0.116121 2.612574,0.128922 l 0.764656,0.02327 -1.083263,0.170848 c -0.595794,0.09397 -2.382014,0.363909 -3.969378,0.599873 l -2.886116,0.429025 z"
         id="path1434"
         inkscape:connector-curvature="0" />
    </g>
  </g>
</svg>
