<?xml version="1.0" encoding="UTF-8" standalone="no"?>
<svg
   xmlns:osb="http://www.openswatchbook.org/uri/2009/osb"
   xmlns:dc="http://purl.org/dc/elements/1.1/"
   xmlns:cc="http://creativecommons.org/ns#"
   xmlns:rdf="http://www.w3.org/1999/02/22-rdf-syntax-ns#"
   xmlns:svg="http://www.w3.org/2000/svg"
   xmlns="http://www.w3.org/2000/svg"
   xmlns:sodipodi="http://sodipodi.sourceforge.net/DTD/sodipodi-0.dtd"
   xmlns:inkscape="http://www.inkscape.org/namespaces/inkscape"
   version="1.1"
   id="svg6"
   sodipodi:docname="imageviewer.svg"
   width="290.90356"
   height="33.5196"
   inkscape:version="1.0.1 (3bc2e813f5, 2020-09-07)">
  <metadata
     id="metadata12">
    <rdf:RDF>
      <cc:Work
         rdf:about="">
        <dc:format>image/svg+xml</dc:format>
        <dc:type
           rdf:resource="http://purl.org/dc/dcmitype/StillImage" />
        <dc:title></dc:title>
      </cc:Work>
    </rdf:RDF>
  </metadata>
  <defs
     id="defs10">
    <linearGradient
       id="linearGradient1450"
       osb:paint="solid">
      <stop
         style="stop-color:#800000;stop-opacity:1;"
         offset="0"
         id="stop1448" />
    </linearGradient>
  </defs>
  <sodipodi:namedview
     pagecolor="#ffffff"
     bordercolor="#666666"
     borderopacity="1"
     objecttolerance="10"
     gridtolerance="10"
     guidetolerance="10"
     inkscape:pageopacity="0"
     inkscape:pageshadow="2"
     inkscape:window-width="1920"
     inkscape:window-height="1017"
     id="namedview8"
     showgrid="false"
     fit-margin-top="0"
     fit-margin-left="0"
     fit-margin-right="0"
     fit-margin-bottom="0"
     inkscape:zoom="1"
     inkscape:cx="378.24617"
     inkscape:cy="-128.3125"
     inkscape:window-x="-8"
     inkscape:window-y="-8"
     inkscape:window-maximized="1"
     inkscape:current-layer="svg6" />
  <path
     d="m 46.443573,28.243982 2.166933,-6.2832 c 2.1658,0.5848 4.152534,0.876067 5.957934,0.876067 1.8054,0 3.262866,-0.0748 4.371266,-0.226667 l 0.3094,-1.902867 -3.210733,-0.307133 c -2.450267,-0.2278 -4.187667,-0.772933 -5.209933,-1.636533 -1.014334,-0.862467 -1.520934,-2.079667 -1.520934,-3.653867 0,-0.685667 0.07593,-1.446133 0.2312,-2.2848 0.593867,-3.2481328 1.667134,-5.4819328 3.224334,-6.7002662 1.564,-1.2160666 3.9848,-1.8258 7.260133,-1.8258 3.275333,0 6.1642,0.3162 8.665467,0.9508667 l -2.011667,6.0916665 c -2.244,-0.3808 -4.0494,-0.572334 -5.4162,-0.572334 -1.3668,0 -2.527333,0.06573 -3.4816,0.191534 l -0.3094,1.864333 2.591933,0.266333 c 2.630467,0.279934 4.500467,0.896467 5.608867,1.854134 1.109533,0.946333 1.664867,2.2202 1.664867,3.8182 0,1.624066 -0.361534,3.3014 -1.083467,5.026333 -0.361533,0.888533 -0.7582,1.632 -1.1866,2.232667 -0.4216,0.592733 -0.963333,1.095933 -1.6252,1.510733 -0.653933,0.4216 -1.2512,0.740067 -1.792933,0.950867 -0.541734,0.219866 -1.225134,0.379666 -2.0502,0.4828 -1.211534,0.177933 -2.695067,0.2652 -4.448334,0.2652 -3.198266,0 -6.0996,-0.328667 -8.705133,-0.988267 z m 39.577133,-6.3954 -0.619933,6.3954 c -1.650133,0.6596 -3.738867,0.988267 -6.267333,0.988267 -3.249267,0 -5.5794,-0.621067 -6.989267,-1.864334 -1.401933,-1.2444 -2.1012,-3.159733 -2.1012,-5.748266 0,-1.0914 0.1802,-2.703 0.541733,-4.8348 0.774067,-4.364467 2.105734,-7.5366665 3.997267,-9.5154665 1.899467,-1.9810667 4.900533,-2.9704667 9.000933,-2.9704667 0.954267,0 2.0468,0.097467 3.275334,0.2912667 1.221733,0.187 2.1148,0.4193333 2.6826,0.6981333 l -2.166934,5.8241992 c -1.520933,-0.355866 -2.943266,-0.5338 -4.268133,-0.5338 -1.331667,0 -2.282533,0.128067 -2.8492,0.381934 -0.5678,0.253866 -0.915733,0.7616 -1.044933,1.522066 l -1.779334,9.973334 c 0.927067,0.204 1.882467,0.306 2.861667,0.306 2.088733,0 3.9984,-0.306 5.726733,-0.913467 z m 20.193734,-1.105 2.5534,7.9186 h -8.0852 l -1.779337,-7.079933 h -1.58666 l -1.2376,7.079933 H 88.72824 L 92.983903,4.8701158 h 11.605337 c 4.41093,0 6.6164,1.9414 6.6164,5.8241992 0,1.599134 -0.24594,3.122334 -0.73554,4.568467 -0.90326,2.739267 -2.32106,4.568467 -4.25566,5.4808 z m -5.5318,-9.782933 h -1.471067 l -0.85,4.76 h 1.701127 c 0.8772,0 1.53907,-0.09407 1.98674,-0.281067 0.4556,-0.1938 0.765,-0.740067 0.9282,-1.6354 0.17226,-0.9044 0.2584,-1.462 0.2584,-1.663733 0,-0.507734 -0.19834,-0.834134 -0.59274,-0.976934 -0.4046,-0.137133 -1.0574,-0.202866 -1.96066,-0.202866 z m 28.5124,3.198266 -1.0064,5.519334 h -7.34967 l -0.50433,2.8934 h 9.01453 l -1.08347,6.090533 h -16.3642 l 4.25567,-23.7920662 h 16.1704 l -2.01167,6.0905332 h -7.92993 l -0.54173,3.198266 z m 20.50313,0 -1.0064,5.519334 h -7.34967 l -0.5032,2.8934 h 9.01454 l -1.08347,6.090533 H 132.40464 L 136.6603,4.8701158 h 16.17154 l -2.01167,6.0905332 h -7.93107 l -0.5406,3.198266 z m 23.6368,14.503267 h -6.92467 l -3.94513,-8.450133 c -0.10427,-0.177934 -0.15527,-0.4284 -0.15527,-0.750267 0,-0.3128 0.0261,-0.672067 0.0771,-1.076667 h -0.30943 l -1.81787,10.277067 h -7.3508 l 4.25567,-23.7920662 h 6.92467 l 3.94626,8.4512662 c 0.0771,0.177933 0.1156,0.427267 0.1156,0.749133 0,0.3128 -0.0249,0.670934 -0.0771,1.076667 h 0.3094 l 1.85757,-10.2770662 h 7.34967 z m 4.21713,-0.4182 2.16694,-6.2832 c 2.1658,0.5848 4.15253,0.876067 5.95793,0.876067 1.80427,0 3.26173,-0.0748 4.37127,-0.226667 l 0.3094,-1.902867 -3.21187,-0.307133 c -2.44913,-0.2278 -4.18653,-0.772933 -5.2088,-1.636533 -1.01547,-0.862467 -1.52207,-2.079667 -1.52207,-3.653867 0,-0.685667 0.0771,-1.446133 0.23234,-2.2848 0.59273,-3.2481328 1.66713,-5.4819328 3.22433,-6.7002662 1.564,-1.2160666 3.98367,-1.8258 7.26013,-1.8258 3.27534,0 6.16307,0.3162 8.66547,0.9508667 l -2.01167,6.0916665 c -2.244,-0.3808 -4.0494,-0.572334 -5.4162,-0.572334 -1.3668,0 -2.52733,0.06573 -3.48273,0.191534 l -0.30827,1.864333 2.5908,0.266333 c 2.6316,0.279934 4.5016,0.896467 5.61,1.854134 1.10954,0.946333 1.66374,2.2202 1.66374,3.8182 0,1.624066 -0.3604,3.3014 -1.08347,5.026333 -0.3604,0.888533 -0.75707,1.632 -1.18547,2.232667 -0.42273,0.592733 -0.96446,1.095933 -1.6252,1.510733 -0.65393,0.4216 -1.2512,0.740067 -1.79293,0.950867 -0.54173,0.219866 -1.22513,0.379666 -2.0502,0.4828 -1.21153,0.177933 -2.69507,0.2652 -4.44947,0.2652 -3.19713,0 -6.0996,-0.328667 -8.704,-0.988267 z m 43.17434,0.4182 h -7.3508 l 1.46993,-8.412733 h -5.5318 l -1.46993,8.412733 h -7.3508 L 204.7487,4.8701158 h 7.3508 l -1.5096,8.4115992 h 5.53294 l 1.50846,-8.4115992 h 7.3508 z m 14.54633,-15.8372 -1.78047,9.898533 h 3.0566 c 1.0064,0 1.7544,-0.119 2.244,-0.354733 0.4896,-0.245933 0.8126,-0.799 0.96674,-1.661467 l 1.77933,-9.898533 h -3.094 c -0.98033,0 -1.71473,0.117867 -2.20547,0.354733 -0.49073,0.245934 -0.8126,0.800134 -0.96673,1.661467 z m 4.44947,-8.5260662 c 3.2742,0 5.60886,0.6312667 7.00173,1.8904 1.39287,1.2534667 2.08873,3.1858 2.08873,5.7992662 0,2.613467 -0.4216,5.3516 -1.26366,8.209867 -0.83414,2.851466 -2.16354,5.067133 -3.9848,6.649266 -1.81447,1.5912 -4.471,2.384534 -7.9696,2.384534 -3.49067,0 -5.93187,-0.6256 -7.32474,-1.8768 -1.39286,-1.2614 -2.08873,-3.197134 -2.08873,-5.811734 0,-1.243266 0.1802,-2.884333 0.54173,-4.924333 0.36154,-2.045667 0.83754,-3.8114 1.4314,-5.2904 0.59274,-1.4891995 1.39287,-2.7789328 2.39814,-3.8703328 1.9346,-2.1057334 4.9912,-3.1597334 9.1698,-3.1597334 z m 30.7938,0.5712 -1.122,6.0905332 h -5.338 l -3.1348,17.701533 h -7.3508 l 3.1348,-17.701533 h -5.3006 l 1.122,-6.0905332 z m -1.85754,23.3738662 2.16694,-6.2832 c 2.1658,0.5848 4.15253,0.876067 5.95793,0.876067 1.80427,0 3.26173,-0.0748 4.37127,-0.226667 l 0.3094,-1.902867 -3.21074,-0.307133 c -2.45026,-0.2278 -4.18766,-0.772933 -5.20993,-1.636533 -1.01547,-0.862467 -1.52207,-2.079667 -1.52207,-3.653867 0,-0.685667 0.0771,-1.446133 0.23234,-2.2848 0.59273,-3.2481328 1.66713,-5.4819328 3.22433,-6.7002662 1.564,-1.2160666 3.98367,-1.8258 7.26013,-1.8258 3.27534,0 6.16307,0.3162 8.66547,0.9508667 l -2.01167,6.0916665 c -2.244,-0.3808 -4.0494,-0.572334 -5.4162,-0.572334 -1.3668,0 -2.52733,0.06573 -3.4816,0.191534 l -0.3094,1.864333 2.59194,0.266333 c 2.63046,0.279934 4.50046,0.896467 5.60886,1.854134 1.10954,0.946333 1.66374,2.2202 1.66374,3.8182 0,1.624066 -0.3604,3.3014 -1.08234,5.026333 -0.36153,0.888533 -0.7582,1.632 -1.1866,2.232667 -0.42273,0.592733 -0.96446,1.095933 -1.6252,1.510733 -0.65393,0.4216 -1.2512,0.740067 -1.79293,0.950867 -0.54173,0.219866 -1.22513,0.379666 -2.0502,0.4828 -1.21153,0.177933 -2.69507,0.2652 -4.44947,0.2652 -3.19713,0 -6.09846,-0.328667 -8.704,-0.988267 z"
     style="white-space:pre;fill:#aa0000;stroke-width:1.13333"
     id="path2" />
  <g
     id="g3882"
     transform="matrix(0.24737128,0,0,0.24737128,0.23362424,-12.082934)">
    <rect
       style="fill:none;fill-opacity:1;fill-rule:evenodd;stroke:#aa0000;stroke-width:2.48396;stroke-miterlimit:4;stroke-dasharray:none;stroke-opacity:1;stop-color:#000000"
       id="rect3677"
       width="28.204847"
       height="20.522127"
       x="21.93746"
       y="56.773769" />
    <rect
       style="fill:none;fill-opacity:1;fill-rule:evenodd;stroke:#aa0000;stroke-width:2.48396;stroke-miterlimit:4;stroke-dasharray:none;stroke-opacity:1;stop-color:#000000"
       id="rect3677-5"
       width="28.204847"
       height="20.522127"
       x="60.142307"
       y="56.773766" />
    <rect
       style="fill:none;fill-opacity:1;fill-rule:evenodd;stroke:#aa0000;stroke-width:2.48396;stroke-miterlimit:4;stroke-dasharray:none;stroke-opacity:1;stop-color:#000000"
       id="rect3677-1"
       width="28.204847"
       height="20.522127"
       x="98.347153"
       y="56.773758" />
    <rect
       style="fill:none;fill-opacity:1;fill-rule:evenodd;stroke:#aa0000;stroke-width:8.66454;stroke-miterlimit:4;stroke-dasharray:none;stroke-opacity:1;stop-color:#000000"
       id="rect3677-16"
       width="98.384094"
       height="71.585243"
       x="24.997522"
       y="81.274605" />
    <rect
       style="fill:#aa0000;fill-opacity:1;fill-rule:evenodd;stroke:none;stroke-width:2.0595;stroke-miterlimit:4;stroke-dasharray:none;stroke-opacity:1;stop-color:#000000"
       id="rect3763"
       width="10"
       height="21.761211"
       x="50.142307"
       y="55.534687" />
    <rect
       style="fill:#aa0000;fill-opacity:1;fill-rule:evenodd;stroke:none;stroke-width:2.0595;stroke-miterlimit:4;stroke-dasharray:none;stroke-opacity:1;stop-color:#000000"
       id="rect3763-6"
       width="10"
       height="21.761211"
       x="88.347153"
       y="55.532837" />
    <rect
       style="fill:none;fill-opacity:1;fill-rule:evenodd;stroke:#aa0000;stroke-width:2.48396;stroke-miterlimit:4;stroke-dasharray:none;stroke-opacity:1;stop-color:#000000"
       id="rect3677-2"
       width="28.204847"
       height="20.522127"
       x="21.938946"
       y="155.90904" />
    <rect
       style="fill:none;fill-opacity:1;fill-rule:evenodd;stroke:#aa0000;stroke-width:2.48396;stroke-miterlimit:4;stroke-dasharray:none;stroke-opacity:1;stop-color:#000000"
       id="rect3677-5-3"
       width="28.204847"
       height="20.522127"
       x="60.143795"
       y="155.90903" />
    <rect
       style="fill:none;fill-opacity:1;fill-rule:evenodd;stroke:#aa0000;stroke-width:2.48396;stroke-miterlimit:4;stroke-dasharray:none;stroke-opacity:1;stop-color:#000000"
       id="rect3677-1-3"
       width="28.204847"
       height="20.522127"
       x="98.348625"
       y="155.90903" />
    <rect
       style="fill:#aa0000;fill-opacity:1;fill-rule:evenodd;stroke:none;stroke-width:2.0595;stroke-miterlimit:4;stroke-dasharray:none;stroke-opacity:1;stop-color:#000000"
       id="rect3763-3"
       width="10"
       height="21.761211"
       x="50.165894"
       y="155.91866" />
    <rect
       style="fill:#aa0000;fill-opacity:1;fill-rule:evenodd;stroke:none;stroke-width:2.0595;stroke-miterlimit:4;stroke-dasharray:none;stroke-opacity:1;stop-color:#000000"
       id="rect3763-6-9"
       width="10"
       height="21.761211"
       x="88.315483"
       y="155.90555" />
    <rect
       style="fill:#aa0000;fill-opacity:1;fill-rule:evenodd;stroke:none;stroke-width:3.77486;stroke-miterlimit:4;stroke-dasharray:none;stroke-opacity:1;stop-color:#000000"
       id="rect3763-3-5"
       width="107.13879"
       height="6.8235807"
       x="20.694366"
       y="177.52496" />
    <rect
       style="fill:#aa0000;fill-opacity:1;fill-rule:evenodd;stroke:none;stroke-width:3.77486;stroke-miterlimit:4;stroke-dasharray:none;stroke-opacity:1;stop-color:#000000"
       id="rect3763-3-5-4"
       width="107.13879"
       height="6.8235807"
       x="20.700024"
       y="48.845337" />
    <rect
       style="fill:#aa0000;fill-opacity:1;fill-rule:evenodd;stroke:none;stroke-width:7.90141;stroke-miterlimit:4;stroke-dasharray:none;stroke-opacity:1;stop-color:#000000"
       id="rect3763-3-5-4-2"
       width="23.638786"
       height="135.50035"
       x="125.83881"
       y="48.845337" />
    <rect
       style="fill:#aa0000;fill-opacity:1;fill-rule:evenodd;stroke:none;stroke-width:7.90141;stroke-miterlimit:4;stroke-dasharray:none;stroke-opacity:1;stop-color:#000000"
       id="rect3763-3-5-4-2-7"
       width="23.638786"
       height="135.50035"
       x="-0.94442749"
       y="48.848175" />
  </g>
</svg>
