<?xml version="1.0" encoding="UTF-8" standalone="no"?>
<svg
   xmlns:dc="http://purl.org/dc/elements/1.1/"
   xmlns:cc="http://creativecommons.org/ns#"
   xmlns:rdf="http://www.w3.org/1999/02/22-rdf-syntax-ns#"
   xmlns:svg="http://www.w3.org/2000/svg"
   xmlns="http://www.w3.org/2000/svg"
   xmlns:sodipodi="http://sodipodi.sourceforge.net/DTD/sodipodi-0.dtd"
   xmlns:inkscape="http://www.inkscape.org/namespaces/inkscape"
   fill="#ffffff"
   fill-rule="evenodd"
   stroke="#000000"
   stroke-linecap="round"
   stroke-linejoin="round"
   version="1.1"
   id="svg11"
   sodipodi:docname="j2me.svg"
   width="84.205467"
   height="34"
   inkscape:version="1.0.1 (3bc2e813f5, 2020-09-07)">
  <metadata
     id="metadata17">
    <rdf:RDF>
      <cc:Work
         rdf:about="">
        <dc:format>image/svg+xml</dc:format>
        <dc:type
           rdf:resource="http://purl.org/dc/dcmitype/StillImage" />
        <dc:title></dc:title>
      </cc:Work>
    </rdf:RDF>
  </metadata>
  <defs
     id="defs15" />
  <sodipodi:namedview
     pagecolor="#ffffff"
     bordercolor="#666666"
     borderopacity="1"
     objecttolerance="10"
     gridtolerance="10"
     guidetolerance="10"
     inkscape:pageopacity="0"
     inkscape:pageshadow="2"
     inkscape:window-width="1920"
     inkscape:window-height="1017"
     id="namedview13"
     showgrid="false"
     fit-margin-top="0"
     fit-margin-left="0"
     fit-margin-right="0"
     fit-margin-bottom="0"
     inkscape:zoom="1.9616667"
     inkscape:cx="120.15927"
     inkscape:cy="34.785912"
     inkscape:window-x="-8"
     inkscape:window-y="-8"
     inkscape:window-maximized="1"
     inkscape:current-layer="svg11" />
  <symbol
     id="A"
     overflow="visible"
     transform="translate(0.50010572,0.49988502)">
    <path
       d="m 119.932,114.687 0.745,-0.833 c 1.175,-1.314 2.165,-2.616 3.003,-3.94 0.816,-1.31 1.425,-2.705 1.851,-4.247 0.433,-1.54 0.641,-3.291 0.641,-5.319 0,-2.76 0,-30.217 0,-32.495 0,-2.278 0,-4.629 0,-7.051 v -0.5 h 6.601 c 0,2.422 0,5.273 0,7.551 0,2.278 0,4.794 0,7.554 0,2.555 0,15.984 0,18.394 0,2.423 0,4.774 0,7.049 0,1.689 -0.154,3.254 -0.451,4.625 -0.315,1.352 -0.744,2.611 -1.267,3.716 -0.524,1.089 -1.143,2.094 -1.816,2.963 -0.684,0.859 -1.398,1.66 -2.126,2.387 l -0.146,0.146 z m 8.523,-3.153 c 0.641,-0.824 1.199,-1.732 1.698,-2.774 0.501,-1.053 0.893,-2.205 1.194,-3.508 0.287,-1.312 0.426,-2.761 0.426,-4.402 0,-2.275 0,-4.626 0,-7.049 0,-2.41 0,-15.839 0,-18.394 0,-2.76 0,-5.276 0,-7.554 0,-2.278 0,-4.305 0,-6.551 h -4.601 c 0,2.246 0,4.273 0,6.551 0,2.278 0,29.735 0,32.495 0,2.088 -0.23,3.973 -0.677,5.587 -0.45,1.608 -1.117,3.134 -1.967,4.509 -0.862,1.359 -1.485,2.169 -2.385,3.243 h 4.409 c 0.655,-0.664 1.238,-1.317 1.903,-2.153 z m 12.057,-6.526 v -4.473 l 0.172,-0.15 c 1.242,-1.076 2.496,-2.174 3.756,-3.283 1.26,-1.095 2.519,-2.176 3.78,-3.244 2.963,-2.558 5.477,-4.95 7.561,-7.188 2.091,-2.212 3.67,-4.322 4.778,-6.377 1.107,-2.033 1.632,-3.994 1.632,-6.004 0,-2.568 -0.639,-4.388 -2.038,-5.631 -1.351,-1.288 -3.371,-1.883 -6.226,-1.883 -0.96,0 -1.932,0.091 -2.949,0.279 -1.02,0.169 -2.039,0.432 -3.087,0.791 -1.037,0.346 -2.073,0.777 -3.121,1.31 -1.055,0.517 -2.08,1.114 -3.104,1.806 l -0.686,0.464 -0.7,-6.345 0.292,-0.161 c 0.936,-0.516 1.974,-1.013 3.085,-1.47 1.097,-0.445 2.271,-0.843 3.486,-1.181 1.227,-0.326 2.494,-0.593 3.767,-0.801 1.276,-0.192 2.581,-0.289 3.873,-0.289 2.874,0 5.388,0.52 7.425,1.517 2.035,1.004 3.645,2.486 4.718,4.342 1.049,1.877 1.602,4.136 1.602,6.662 0,2.363 -0.558,4.777 -1.628,7.13 -1.088,2.326 -2.715,4.736 -4.843,7.168 -2.111,2.41 -4.719,4.942 -7.807,7.565 l -4.545,3.848 c 4.161,0 10.237,0 12.153,0 2.339,0 4.677,0 7.005,0 h 0.5 v 5.598 z m 27.851,-4.598 c -2.163,0 -4.166,0 -6.505,0 -1.916,0 -10.888,0 -14.881,0 l 6.627,-5.611 c 3.063,-2.6 5.618,-5.08 7.701,-7.46 2.09,-2.384 3.639,-4.675 4.688,-6.931 1.037,-2.256 1.535,-4.458 1.535,-6.709 0,-2.41 -0.474,-4.421 -1.472,-6.169 -0.977,-1.735 -2.371,-3.014 -4.287,-3.937 -1.915,-0.956 -4.212,-1.415 -6.986,-1.415 -1.255,0 -2.483,0.09 -3.721,0.277 -1.249,0.204 -2.458,0.459 -3.659,0.778 -1.187,0.33 -2.3,0.707 -3.369,1.142 -1.084,0.445 -1.858,0.817 -2.686,1.261 l 0.446,4.047 c 0.833,-0.529 1.447,-0.89 2.532,-1.424 1.082,-0.549 2.176,-1.003 3.247,-1.362 1.084,-0.37 2.176,-0.651 3.237,-0.829 1.059,-0.193 2.111,-0.293 3.117,-0.293 3.001,0 5.36,0.75 6.905,2.148 1.53,1.441 2.359,3.626 2.359,6.366 0,2.14 -0.603,4.339 -1.752,6.48 -1.148,2.117 -2.802,4.33 -4.929,6.586 -2.106,2.259 -4.656,4.686 -7.638,7.261 -1.259,1.066 -2.517,2.147 -3.775,3.239 -1.261,1.11 -2.399,2.106 -3.585,3.136 v 3.017 h 26.851 z m 7.329,4.598 0.065,-0.558 c 0.278,-2.366 0.564,-4.714 0.858,-7.037 0.308,-2.304 0.622,-4.815 0.945,-7.528 l 1.823,-14.409 c 0.32,-2.67 0.628,-5.165 0.92,-7.487 0.28,-2.307 0.587,-4.727 0.924,-7.253 l 0.058,-0.434 h 6.376 l 0.127,0.312 c 1.258,3.092 2.488,6.087 3.691,8.977 1.185,2.905 2.363,5.786 3.534,8.648 l 6.697,16.374 6.632,-16.351 c 1.172,-2.905 2.342,-5.787 3.516,-8.65 1.171,-2.861 2.378,-5.859 3.622,-8.994 l 0.126,-0.316 h 6.382 l 0.054,0.439 c 0.307,2.48 0.599,4.883 0.877,7.205 0.279,2.305 0.587,4.81 0.924,7.51 l 1.802,14.561 c 0.32,2.655 0.628,5.125 0.921,7.402 0.277,2.278 0.562,4.618 0.857,7.028 l 0.069,0.561 h -6.322 l -0.054,-0.438 c -0.483,-3.884 -0.937,-7.571 -1.362,-11.059 -0.425,-3.502 -0.828,-6.767 -1.207,-9.789 l -1.443,-11.905 -5.152,13.036 c -1.35,3.417 -2.703,6.832 -4.063,10.249 -1.35,3.43 -2.608,6.628 -3.78,9.59 l -0.125,0.316 h -4.454 l -0.127,-0.313 c -0.748,-1.855 -1.569,-3.897 -2.461,-6.131 -0.908,-2.232 -1.838,-4.51 -2.789,-6.829 -0.951,-2.337 -1.883,-4.6 -2.789,-6.79 l -5.327,-13.148 -1.445,11.907 c -0.383,3.035 -0.778,6.306 -1.186,9.808 -0.426,3.486 -0.872,7.173 -1.341,11.056 l -0.053,0.44 z m 6.722,-11.616 c 0.408,-3.504 0.803,-6.774 1.186,-9.812 l 1.634,-13.47 h 1.198 l 5.858,14.458 c 0.907,2.19 1.837,4.451 2.789,6.79 0.951,2.319 1.881,4.597 2.79,6.83 0.892,2.234 1.622,4.049 2.336,5.82 h 3.099 c 1.136,-2.872 2.305,-5.843 3.655,-9.273 1.36,-3.417 2.713,-6.833 4.063,-10.25 l 5.681,-14.375 h 1.201 l 1.635,13.491 c 0.379,3.022 0.782,6.286 1.207,9.79 0.425,3.486 0.845,6.895 1.308,10.617 h 4.308 c -0.271,-2.213 -0.511,-4.189 -0.788,-6.467 -0.293,-2.278 -0.601,-4.747 -0.921,-7.403 l -1.802,-14.559 c -0.337,-2.701 -0.645,-5.207 -0.924,-7.513 -0.278,-2.321 -0.536,-4.44 -0.823,-6.764 h -4.82 c -1.201,3.024 -2.329,5.825 -3.5,8.689 -1.174,2.861 -2.343,5.742 -3.514,8.645 l -6.876,16.952 -0.126,0.312 h -1.112 l -7.069,-17.283 c -1.171,-2.862 -2.348,-5.741 -3.533,-8.647 -1.203,-2.891 -2.351,-5.685 -3.565,-8.668 h -4.828 c -0.314,2.367 -0.586,4.505 -0.866,6.808 -0.292,2.322 -0.6,4.817 -0.92,7.486 l -1.823,14.413 c -0.323,2.715 -0.637,5.226 -0.945,7.534 -0.294,2.321 -0.534,4.291 -0.791,6.465 h 4.31 c 0.449,-3.722 0.861,-7.129 1.288,-10.616 z m 53.783,11.616 c 0,-2.438 0,-5.28 0,-7.529 0,-2.248 0,-4.712 0,-7.402 0,-2.714 0,-19.909 0,-22.203 0,-2.292 0,-4.65 0,-7.072 v -0.5 h 28.238 v 5.751 c -2.05,0 -4.748,0 -7.09,0 -2.346,0 -5.118,0 -8.325,0 h -6.376 c 0,0.89 0,1.605 0,2.631 0,2.278 0,4.773 0,7.489 0,0.652 0,1.81 0,3.376 4.133,0 12.306,0 14.13,0 2.049,0 4.025,0 5.93,0 h 0.5 v 5.62 c -2.006,0 -4.526,0 -6.563,0 -2.036,0 -4.437,0 -7.204,0 h -6.793 c 0,4.941 0,10.188 0,11.478 0,1.02 0,1.728 0,2.61 4.786,0 12.588,0 14.481,0 2.386,0 4.678,0 6.874,0 h 0.5 v 5.751 z m 27.302,-4.751 c -2.043,0 -3.988,0 -6.374,0 -1.893,0 -10.764,0 -15.481,0 0,-1.053 0,-2.59 0,-3.61 0,-1.29 0,-7.4 0,-12.478 2.767,0 12.961,0 14.997,0 2.037,0 3.721,0 5.563,0 v -3.62 c -1.75,0 -3.381,0 -5.43,0 -1.824,0 -11.204,0 -15.13,0 0,-1.805 0,-3.724 0,-4.376 0,-2.716 0,-5.211 0,-7.489 0,-1.026 0,-2.57 0,-3.631 3.207,0 13.355,0 15.701,0 2.342,0 4.184,0 6.09,0 v -3.751 h -26.238 c 0,2.247 0,4.28 0,6.572 0,2.294 0,19.489 0,22.203 0,2.69 0,5.154 0,7.402 0,2.249 0,4.27 0,6.529 h 26.302 z"
       style="fill:none"
       transform="translate(-10.458015,-47.091073)"
       id="path2" />
  </symbol>
  <path
     d="m 8.2671005,26.198975 c 0,0 -1.3062964,0.787082 0.9094187,1.011736 2.6713778,0.336821 4.0911128,0.281214 7.0462478,-0.280579 0.593886,0.360018 1.221773,0.660933 1.875398,0.899886 C 11.449431,30.641844 3.038102,27.660972 8.2667827,26.199292 Z M 7.4151957,22.548907 c 0,0 -1.4213242,1.06925 0.7953441,1.293904 2.8988912,0.280579 5.1705322,0.336186 9.0922802,-0.448672 0.381626,0.382897 0.849045,0.671102 1.363493,0.843008 -8.011909,2.362518 -16.9907503,0.224654 -11.2517528,-1.687286 z m 15.6831833,6.412324 c 0,0 0.966297,0.787718 -1.079737,1.406389 -3.807356,1.124858 -15.9682098,1.461997 -19.3771,0 C 1.4477314,29.862388 3.7215959,29.130277 4.4600616,29.017791 5.1991629,28.849698 5.5966761,28.849698 5.5966761,28.849698 4.290062,27.949494 -3.098091,30.705713 1.8385717,31.492795 15.420114,33.686585 26.614988,30.536984 23.091706,28.961548 Z M 8.8921272,18.717719 c 0,0 -6.193389,1.46295 -2.215715,1.968501 1.7041273,0.224653 5.0577278,0.168728 8.1822268,-0.05624 2.556985,-0.224654 5.11397,-0.674915 5.11397,-0.674915 0,0 -0.909101,0.393065 -1.534445,0.7874 -6.307781,1.630726 -18.41207449,0.899886 -14.9459882,-0.7874 2.9551341,-1.406072 5.3980449,-1.237343 5.3980449,-1.237343 z m 11.0827068,6.130473 c 6.364342,-3.262404 3.40317,-6.411687 1.36381,-6.017987 -0.509999,0.112485 -0.738466,0.224653 -0.738466,0.224653 0,0 0.17,-0.337139 0.567195,-0.448989 4.041543,-1.40639 7.217836,4.209954 -1.306932,6.411687 0,0 0.05656,-0.05624 0.113439,-0.16841 z M 9.5181072,33.733931 c 6.1371468,0.393382 15.5128658,-0.224018 15.7403788,-3.09304 0,0 -0.454074,1.125175 -5.05741,1.968182 -5.228363,0.956447 -11.6994713,0.843961 -15.5135008,0.224972 0,0 0.7953441,0.674597 4.8298965,0.899568 z"
     style="fill:#aa0000;stroke:#aa0000;stroke-width:0.317756"
     id="path5" />
  <path
     d="m 16.117271,0.15884152 c 0,0 3.523283,3.54393658 -3.353918,8.88605638 -5.5118018,4.3291121 -1.250371,6.8050701 0,9.6168961 C 9.5241446,15.794361 7.1946728,13.263113 8.7923517,10.900595 11.109749,7.4148078 17.530652,5.7265683 16.117271,0.15884152 Z M 14.298116,16.299911 c 1.648203,1.856015 -0.453438,3.543936 -0.453438,3.543936 0,0 4.203917,-2.137864 2.273229,-4.780962 -1.761959,-2.531247 -3.125452,-3.76859 4.254122,-7.9855344 0,0 -11.6492659,2.8683865 -6.080586,9.2231954 z"
     style="fill:#aa0000;stroke:#aa0000;stroke-width:0.317756"
     id="path7" />
  <path
     d="M 29.503076,31.400964 V 29.68635 c 0.870334,0 1.491866,-0.05529 1.861098,-0.167457 0.364467,-0.117888 0.617401,-0.355887 0.760709,-0.716223 0.142991,-0.364149 0.214486,-0.969157 0.214486,-1.810258 V 12.492554 h 1.905902 l 0.01779,14.773129 c 0,1.255137 -0.178897,2.180444 -0.536373,2.774966 -0.358429,0.58912 -0.85254,0.962484 -1.485193,1.121362 -0.638373,0.159196 -1.550651,0.238953 -2.738424,0.238953 z m 8.519683,-1.784838 v -1.608482 l 4.840382,-5.018326 c 0.763569,-0.795345 1.360315,-1.434353 1.789604,-1.916707 0.423252,-0.489344 0.788036,-1.031755 1.091811,-1.626594 0.298055,-0.594523 0.447401,-1.203662 0.447401,-1.828688 0,-1.036204 -0.283757,-1.776258 -0.849998,-2.217622 -0.567831,-0.435962 -1.485194,-0.65426 -2.756219,-0.65426 -1.055587,0 -2.267192,0.142037 -3.632273,0.424522 l -0.653625,0.12329 -0.151252,-1.581474 c 1.56781,-0.447718 3.205526,-0.671101 4.91156,-0.671101 1.718109,0 2.999938,0.353027 3.847394,1.060035 0.841101,0.713363 1.261811,1.820426 1.261811,3.322143 0,1.119138 -0.250392,2.109267 -0.751812,2.969115 -0.501102,0.854447 -1.401941,1.899865 -2.7022,3.136573 l -4.410776,4.426664 h 8.294394 v 1.660912 z M 65.759075,12.492554 h 3.480386 V 29.616126 H 67.306549 V 14.524924 H 66.95797 l -5.038027,14.472848 h -2.14708 L 54.73579,14.524924 H 54.386893 V 29.616126 H 52.453664 V 12.492554 h 3.481338 l 4.91156,14.499858 z m 18.287514,1.687604 h -8.615964 v 5.911222 h 7.112341 v 1.661548 h -7.112341 v 6.184492 h 8.615964 v 1.678706 H 73.497078 V 12.492554 h 10.549511 z"
     style="white-space:pre;fill:#aa0000;stroke:#aa0000;stroke-width:0.317756"
     id="path9" />
</svg>
