<?xml version="1.0" encoding="UTF-8" standalone="no"?>
<svg
   xmlns:dc="http://purl.org/dc/elements/1.1/"
   xmlns:cc="http://creativecommons.org/ns#"
   xmlns:rdf="http://www.w3.org/1999/02/22-rdf-syntax-ns#"
   xmlns:svg="http://www.w3.org/2000/svg"
   xmlns="http://www.w3.org/2000/svg"
   xmlns:sodipodi="http://sodipodi.sourceforge.net/DTD/sodipodi-0.dtd"
   xmlns:inkscape="http://www.inkscape.org/namespaces/inkscape"
   version="1.1"
   id="svg23"
   sodipodi:docname="mastersystem.svg"
   inkscape:version="0.92.5 (2060ec1f9f, 2020-04-08)"
   width="92.496979"
   height="34">
  <metadata
     id="metadata29">
    <rdf:RDF>
      <cc:Work
         rdf:about="">
        <dc:format>image/svg+xml</dc:format>
        <dc:type
           rdf:resource="http://purl.org/dc/dcmitype/StillImage" />
        <dc:title></dc:title>
      </cc:Work>
    </rdf:RDF>
  </metadata>
  <defs
     id="defs27" />
  <sodipodi:namedview
     pagecolor="#ffffff"
     bordercolor="#666666"
     borderopacity="1"
     objecttolerance="10"
     gridtolerance="10"
     guidetolerance="10"
     inkscape:pageopacity="0"
     inkscape:pageshadow="2"
     inkscape:window-width="1440"
     inkscape:window-height="837"
     id="namedview25"
     showgrid="false"
     inkscape:zoom="1.3871078"
     inkscape:cx="45.570253"
     inkscape:cy="119.43263"
     inkscape:window-x="0"
     inkscape:window-y="0"
     inkscape:window-maximized="1"
     inkscape:current-layer="svg23"
     fit-margin-top="0"
     fit-margin-left="0"
     fit-margin-right="0"
     fit-margin-bottom="0" />
  <path
     d="m 22.10748,15.954679 h 6.949187 c 2.840778,0 5.151802,-2.311724 5.151802,-5.151802 0,-2.839377 -2.311024,-5.137437 -5.151802,-5.137437 h -1.81175 c -0.142599,0 -0.25752,-0.113869 -0.25752,-0.256819 0,-0.156964 0.11422,-0.270834 0.25752,-0.270834 h 6.935522 l 0.01436,-2.169475 h -6.949887 c -1.341907,0 -2.426294,1.084738 -2.426294,2.426294 0,1.355922 1.084387,2.454674 2.426294,2.454674 h 1.81175 c 1.627106,0 2.954648,1.327542 2.954648,2.953948 0,1.627106 -1.327542,2.939932 -2.954648,2.939932 H 22.10748 Z"
     id="path5"
     style="fill:#aa0000;fill-opacity:1;stroke-width:0.35036737"
     inkscape:connector-curvature="0" />
  <path
     d="m 22.10748,13.243536 h 6.949187 c 1.355921,0 2.441009,-1.099102 2.441009,-2.440659 0,-1.341206 -1.084737,-2.439958 -2.441009,-2.439958 h -1.81175 c -1.626756,0 -2.939933,-1.341557 -2.939933,-2.968663 0,-1.626756 1.313177,-2.939232 2.939933,-2.939232 h 6.949537 L 34.180094,0.25717 h -6.935873 c -2.839727,0 -5.137436,2.297358 -5.137436,5.151451 0,2.840078 2.297709,5.137437 5.137436,5.137437 h 1.798086 c 0.142599,0 0.257169,0.11457 0.257169,0.256819 0,0.14295 -0.11457,0.256819 -0.257169,0.256819 H 22.10678 Z"
     id="path7"
     style="fill:#aa0000;fill-opacity:1;stroke-width:0.35036737"
     inkscape:connector-curvature="0" />
  <path
     d="m 39.58871,13.757175 c -1.198256,0 -2.182789,-0.956153 -2.182789,-2.18349 V 4.595068 c 0,-1.169877 0.984533,-2.154759 2.182789,-2.154759 h 7.421131 V 0.25717 H 39.58871 c -2.411228,0 -4.366629,1.95505 -4.366629,4.366628 v 6.949887 c 0,2.411929 1.95505,4.366979 4.366629,4.366979 h 7.392751 v -2.183139 z"
     id="path9"
     style="fill:#aa0000;fill-opacity:1;stroke-width:0.35036737"
     inkscape:connector-curvature="0" />
  <path
     d="m 37.933224,4.623448 c 0,-0.913058 0.742078,-1.669851 1.655486,-1.669851 h 7.421131 v 2.18384 h -6.393153 c -0.51434,0 -0.51434,0.513638 -0.51434,0.513638 h 5.337497 v 2.18349 h -7.506621 z"
     id="path11"
     style="fill:#aa0000;fill-opacity:1;stroke-width:0.35036737"
     inkscape:connector-curvature="0" />
  <path
     d="m 39.58871,13.229522 c -0.913408,0 -1.655486,-0.742429 -1.655486,-1.655837 V 8.362218 h 7.506271 v 2.183489 h -5.337147 c 0,0.513989 0.513639,0.513989 0.513639,0.513989 h 6.364774 v 2.169125 z"
     id="path13"
     style="fill:#aa0000;fill-opacity:1;stroke-width:0.35036737"
     inkscape:connector-curvature="0" />
  <path
     d="m 52.218403,13.757175 c -1.212622,0 -2.197855,-0.985233 -2.197855,-2.18349 V 4.623798 c 0,-1.198607 0.985233,-2.183489 2.18384,-2.183489 H 59.39708 V 0.25717 h -7.207057 c -2.411929,0 -4.366629,1.95505 -4.366629,4.366628 v 6.949887 c 0,2.411929 1.968714,4.366979 4.380994,4.366979 H 59.39708 V 5.651426 h -6.17943 v 2.183489 h 3.99594 v 5.92226 z"
     id="path15"
     style="fill:#aa0000;fill-opacity:1;stroke-width:0.35036737"
     inkscape:connector-curvature="0" />
  <path
     d="m 50.533836,11.573685 c 0,0.913058 0.757144,1.669851 1.670201,1.669851 h 4.495214 V 8.348554 H 53.2173 v 2.197504 h 1.298812 v 0.513638 h -1.284097 c -0.285899,0 -0.513989,-0.241753 -0.513989,-0.513638 V 5.651426 c 0,0 0,-0.513989 0.513989,-0.513989 h 6.164714 v -2.18384 h -7.192692 c -0.913057,0 -1.66985,0.756443 -1.66985,1.669851 z"
     id="path17"
     style="fill:#aa0000;fill-opacity:1;stroke-width:0.35036737"
     inkscape:connector-curvature="0" />
  <path
     d="m 66.146907,2.925918 c 0.0995,-0.285549 0.356674,-0.485259 0.670603,-0.485259 0.313929,0 0.571449,0.20006 0.671304,0.485259 l 3.481951,10.331983 h -5.093991 v -2.426294 h 1.712595 l -0.770808,-2.297709 -2.512134,7.406766 h -2.568543 z"
     id="path19"
     style="fill:#aa0000;fill-opacity:1;stroke-width:0.35036737"
     inkscape:connector-curvature="0" />
  <path
     d="m 71.684113,13.757175 h -5.80839 v 2.183139 h 8.833812 L 70.114117,2.311724 C 69.714348,0.984883 68.387156,0 66.81716,0 65.247864,0 63.920673,0.970518 63.520904,2.311724 l -4.638864,13.62859 h 2.312074 L 65.688977,2.683113 c 0.185695,-0.442514 0.613493,-0.742078 1.127132,-0.742078 0.499974,0 0.928473,0.299564 1.113818,0.742078 z"
     id="path21"
     style="fill:#aa0000;fill-opacity:1;stroke-width:0.35036737"
     inkscape:connector-curvature="0" />
  <path
     id="path6717"
     d="M 15.119053,30.182397 H 9.7265486 v -0.61069 c 0.1951546,-0.0049 0.4460174,-0.02558 0.7525894,-0.06061 0.307272,-0.03399 0.517492,-0.08269 0.632413,-0.146453 0.177986,-0.108264 0.308323,-0.232644 0.39136,-0.373842 0.08339,-0.140848 0.124731,-0.316732 0.124731,-0.529055 v -8.87481 H 11.498707 L 7.335992,29.98444 H 6.9064416 L 2.9413341,19.371812 H 2.8299173 v 7.284138 c 0,0.704939 0.044146,1.241351 0.1331396,1.608186 0.088993,0.367185 0.2249358,0.630661 0.4088787,0.790779 0.1261322,0.119826 0.3864552,0.235797 0.7820199,0.345112 0.3955648,0.108614 0.6537856,0.166424 0.7743119,0.170979 v 0.61069 H 0 v -0.61069 c 0.25822075,-0.02242 0.52870436,-0.06552 0.8128523,-0.128234 0.2834472,-0.06307 0.5027772,-0.157315 0.6579899,-0.283798 0.2004102,-0.159767 0.3381045,-0.406776 0.4127328,-0.739625 0.074979,-0.331798 0.1114168,-0.888532 0.1114168,-1.66845 v -6.243897 c 0,-0.361229 -0.042745,-0.656238 -0.1285848,-0.885378 C 1.780567,19.392484 1.6572377,19.206088 1.4967694,19.062788 1.3191331,18.907575 1.1008543,18.793355 0.84298389,18.718377 0.58476314,18.644449 0.33004606,18.601354 0.07778156,18.589442 v -0.61034 H 4.2404963 l 3.4910605,9.150194 2.9844292,-7.654126 c 0.108964,-0.279943 0.202512,-0.573901 0.279593,-0.881524 0.07743,-0.306571 0.119475,-0.511887 0.125081,-0.614544 h 3.981575 v 0.61034 c -0.160468,0.006 -0.365783,0.03188 -0.614895,0.07743 -0.249111,0.0466 -0.431652,0.08934 -0.546222,0.128935 -0.194454,0.06832 -0.326893,0.183943 -0.395915,0.344411 -0.06867,0.160118 -0.103008,0.334951 -0.103008,0.52415 v 8.797724 c 0,0.200761 0.03434,0.369638 0.103008,0.507332 0.06902,0.137344 0.20076,0.258221 0.395915,0.360528 0.103708,0.05816 0.286951,0.111067 0.550777,0.159768 0.263476,0.048 0.472996,0.07638 0.627508,0.08093 v 0.611391 h -3.5e-4 z"
     style="fill:#aa0000;fill-opacity:1;stroke-width:0.35036737"
     inkscape:connector-curvature="0" />
  <path
     id="path6719"
     d="m 22.751456,30.027184 c -0.269083,0.09845 -0.505581,0.176586 -0.709494,0.236849 -0.203564,0.06026 -0.434106,0.09004 -0.691976,0.09004 -0.447769,0 -0.804093,-0.103709 -1.071073,-0.313579 -0.26663,-0.208819 -0.436908,-0.513989 -0.511536,-0.91551 h -0.05185 c -0.37244,0.412032 -0.77256,0.728414 -1.199658,0.945642 -0.427448,0.218279 -0.942137,0.326542 -1.544069,0.326542 -0.636267,0 -1.159365,-0.193402 -1.569295,-0.584763 -0.40993,-0.389258 -0.614544,-0.899743 -0.614544,-1.530755 0,-0.326893 0.0459,-0.6198 0.137694,-0.87732 0.09145,-0.258221 0.229491,-0.490164 0.412382,-0.69653 0.143651,-0.170979 0.332849,-0.32444 0.567596,-0.460032 0.235446,-0.134191 0.455827,-0.241404 0.662194,-0.322338 0.258571,-0.09705 0.781669,-0.278192 1.569646,-0.542019 0.788326,-0.262775 1.319834,-0.469492 1.595222,-0.618749 V 23.91327 c 0,-0.07463 -0.01542,-0.217929 -0.04765,-0.429901 -0.03153,-0.211972 -0.09845,-0.413083 -0.201811,-0.602282 -0.114921,-0.211271 -0.27644,-0.396615 -0.48631,-0.554631 -0.208819,-0.156965 -0.50558,-0.236498 -0.889583,-0.236498 -0.264177,0 -0.508733,0.04485 -0.735421,0.13349 -0.226688,0.08969 -0.385755,0.182191 -0.4772,0.279593 0,0.115271 0.02733,0.283447 0.08199,0.506982 0.05431,0.223534 0.08164,0.430251 0.08164,0.619099 0,0.201111 -0.09075,0.384353 -0.271535,0.550077 -0.180088,0.167826 -0.431302,0.249461 -0.752238,0.249461 -0.28625,0 -0.497172,-0.100555 -0.632413,-0.304819 -0.134191,-0.202863 -0.201462,-0.430952 -0.201462,-0.683918 0,-0.263125 0.09285,-0.51574 0.279243,-0.756793 0.186746,-0.240702 0.428499,-0.455478 0.727012,-0.644676 0.258221,-0.159768 0.570749,-0.297112 0.937233,-0.408528 0.367185,-0.112118 0.725261,-0.167826 1.075278,-0.167826 0.481755,0 0.901145,0.03293 1.259921,0.0988 0.358426,0.06657 0.683566,0.207768 0.976123,0.425697 0.292207,0.212673 0.514339,0.500675 0.666399,0.864006 0.151709,0.364732 0.228089,0.832823 0.228089,1.406374 0,0.81986 -0.0091,1.546522 -0.02593,2.179636 -0.01752,0.633814 -0.02523,1.32649 -0.02523,2.077328 0,0.223534 0.03854,0.401871 0.115622,0.53396 0.07743,0.132088 0.196556,0.243855 0.357024,0.3346 0.08619,0.05221 0.222133,0.08058 0.408528,0.08619 0.186396,0.0056 0.376996,0.0091 0.5718,0.0091 v 0.549376 z m -3.001247,-4.540761 c -0.487361,0.143651 -0.914109,0.283097 -1.281294,0.421492 -0.367185,0.137344 -0.708092,0.309024 -1.023073,0.516091 -0.28695,0.194805 -0.513288,0.425346 -0.679712,0.691626 -0.166074,0.266629 -0.249462,0.584412 -0.249462,0.950546 0,0.476149 0.124381,0.825466 0.374193,1.049 0.249461,0.223184 0.565843,0.335652 0.949846,0.335652 0.407477,0 0.765552,-0.09915 1.075277,-0.297111 0.309374,-0.197958 0.570748,-0.430252 0.78237,-0.701086 z"
     style="fill:#aa0000;fill-opacity:1;stroke-width:0.35036737"
     inkscape:connector-curvature="0" />
  <path
     id="path6721"
     d="m 27.365794,26.028442 c 0.235096,0.206366 0.415536,0.444616 0.542018,0.712997 0.126132,0.270484 0.189199,0.600179 0.189199,0.989087 0,0.786225 -0.294309,1.428098 -0.881174,1.92667 -0.587917,0.498573 -1.349265,0.748385 -2.283695,0.748385 -0.493317,0 -0.947744,-0.08934 -1.363279,-0.26698 -0.415886,-0.177636 -0.712648,-0.340557 -0.890284,-0.490164 l -0.17168,0.559187 h -0.645026 l -0.08584,-2.950444 h 0.593172 c 0.0459,0.223534 0.1433,0.485259 0.292206,0.78202 0.149257,0.298513 0.330046,0.567245 0.542018,0.808297 0.223535,0.252966 0.491566,0.464938 0.804094,0.636968 0.312527,0.17133 0.663946,0.258221 1.053554,0.258221 0.550427,0 0.975073,-0.124731 1.273235,-0.374543 0.297813,-0.249111 0.447419,-0.606135 0.447419,-1.071073 0,-0.241052 -0.0473,-0.447419 -0.141898,-0.622953 -0.0946,-0.174483 -0.234046,-0.327243 -0.417288,-0.460383 -0.189198,-0.131738 -0.421492,-0.250162 -0.696881,-0.356674 -0.275038,-0.105811 -0.581609,-0.210921 -0.920064,-0.314279 -0.269783,-0.07988 -0.568997,-0.189899 -0.898693,-0.331097 -0.329695,-0.140848 -0.612091,-0.305871 -0.847188,-0.494719 -0.252264,-0.20006 -0.458631,-0.447419 -0.619449,-0.739275 -0.160469,-0.292557 -0.240703,-0.636618 -0.240703,-1.032182 0,-0.693728 0.257871,-1.280944 0.773962,-1.763049 0.516441,-0.481755 1.207015,-0.722808 2.072773,-0.722808 0.332148,0 0.672005,0.04309 1.019219,0.128585 0.346513,0.08654 0.628909,0.189198 0.846838,0.309374 l 0.197957,-0.447068 h 0.619099 l 0.128936,2.725858 h -0.593172 c -0.120176,-0.607537 -0.380149,-1.101906 -0.778517,-1.483806 -0.398718,-0.380849 -0.884677,-0.5718 -1.457878,-0.5718 -0.469843,0 -0.840181,0.118424 -1.109614,0.353171 -0.269783,0.235797 -0.403973,0.519594 -0.403973,0.851743 0,0.25787 0.04415,0.472996 0.133139,0.644676 0.08899,0.17238 0.221783,0.317783 0.40012,0.43901 0.171329,0.11492 0.388207,0.222483 0.649231,0.322338 0.261023,0.100205 0.583011,0.214425 0.967714,0.339506 0.378397,0.120176 0.735421,0.261374 1.070723,0.421492 0.335301,0.163271 0.611391,0.341258 0.82967,0.535712 z"
     style="fill:#aa0000;fill-opacity:1;stroke-width:0.35036737"
     inkscape:connector-curvature="0" />
  <path
     id="path6723"
     d="m 32.77967,29.812059 c -0.37279,0.155213 -0.72526,0.2859 -1.057759,0.39136 -0.332498,0.106512 -0.739625,0.159067 -1.22138,0.159067 -0.710896,0 -1.21122,-0.178337 -1.500624,-0.537113 -0.289754,-0.358426 -0.434455,-0.864707 -0.434455,-1.517441 v -5.744974 h -1.531106 v -0.825816 h 1.565442 v -2.640368 h 1.565441 v 2.640368 h 2.433652 v 0.825816 h -2.416484 v 4.738368 c 0,0.355973 0.01261,0.652735 0.03889,0.890984 0.02558,0.23755 0.08724,0.446719 0.184644,0.622954 0.09145,0.166424 0.22949,0.292556 0.412732,0.378396 0.183242,0.08584 0.429901,0.128936 0.739626,0.128936 0.14295,0 0.35352,-0.01296 0.632063,-0.03959 0.278191,-0.02558 0.474397,-0.05781 0.589317,-0.0988 v 0.627859 z"
     style="fill:#aa0000;fill-opacity:1;stroke-width:0.35036737"
     inkscape:connector-curvature="0" />
  <path
     id="path6725"
     d="m 39.337497,28.187055 c -0.355623,0.67691 -0.831422,1.215424 -1.427748,1.616595 -0.596325,0.401871 -1.281643,0.601581 -2.055605,0.601581 -0.681815,0 -1.279542,-0.120176 -1.79353,-0.360879 -0.512588,-0.240702 -0.935131,-0.567595 -1.26833,-0.980328 -0.332149,-0.412382 -0.580559,-0.893787 -0.74383,-1.444214 -0.163622,-0.550777 -0.244907,-1.131336 -0.244907,-1.74553 0,-0.550427 0.08724,-1.091044 0.262075,-1.6215 0.175183,-0.529405 0.431652,-1.007306 0.769757,-1.431601 0.326893,-0.406426 0.732268,-0.735071 1.217176,-0.984883 0.484208,-0.249812 1.027978,-0.374192 1.629559,-0.374192 0.619099,0 1.149555,0.09845 1.590668,0.292556 0.441813,0.195155 0.799888,0.461434 1.075277,0.799188 0.263827,0.322338 0.460032,0.700735 0.589318,1.135891 0.128585,0.435507 0.193403,0.908853 0.193403,1.418638 v 0.567595 h -5.615688 c 0,0.556734 0.0529,1.061263 0.158716,1.514288 0.106512,0.453025 0.273987,0.851042 0.503128,1.195453 0.223184,0.332849 0.51574,0.594924 0.877319,0.786925 0.360879,0.192702 0.79113,0.287302 1.290053,0.287302 0.510135,0 0.949846,-0.118775 1.319834,-0.357375 0.370338,-0.236498 0.727012,-0.666048 1.070723,-1.284797 z m -1.900743,-3.233541 c 0,-0.320936 -0.02733,-0.664997 -0.08164,-1.031831 -0.05466,-0.367185 -0.141899,-0.673406 -0.262425,-0.920415 -0.131388,-0.263477 -0.312178,-0.477551 -0.542019,-0.645027 -0.228789,-0.165724 -0.524499,-0.249111 -0.885378,-0.249111 -0.602632,0 -1.102606,0.250513 -1.500974,0.752939 -0.398367,0.501727 -0.614894,1.199308 -0.64923,2.093445 h 3.921662 z"
     style="fill:#aa0000;fill-opacity:1;stroke-width:0.35036737"
     inkscape:connector-curvature="0" />
  <path
     id="path6727"
     d="m 45.000484,22.794551 c 0,0.292206 -0.07147,0.551828 -0.214775,0.778166 -0.1433,0.227388 -0.363681,0.339506 -0.661844,0.339506 -0.321637,0 -0.566544,-0.08304 -0.736122,-0.249812 -0.168526,-0.165374 -0.253315,-0.349317 -0.253315,-0.549727 0,-0.126132 0.0098,-0.240702 0.02978,-0.34406 0.02032,-0.103709 0.03889,-0.207068 0.05606,-0.309725 -0.269433,0 -0.585114,0.108964 -0.945992,0.326893 -0.361229,0.218278 -0.6678,0.527302 -0.920415,0.928473 v 4.936326 c 0,0.201812 0.03924,0.364732 0.116322,0.490865 0.07708,0.126833 0.199008,0.221081 0.365433,0.284148 0.1433,0.05711 0.328294,0.100205 0.554631,0.127884 0.226338,0.02978 0.422543,0.04905 0.589318,0.06061 v 0.567595 h -4.472089 v -0.567595 c 0.131738,-0.01121 0.268031,-0.02207 0.408178,-0.03399 0.140498,-0.01086 0.262425,-0.03364 0.365784,-0.06937 0.160118,-0.0515 0.279593,-0.141549 0.356674,-0.270133 0.07743,-0.128936 0.116322,-0.297112 0.116322,-0.503128 v -5.237291 c 0,-0.177637 -0.04169,-0.353171 -0.124731,-0.5245 -0.08339,-0.172381 -0.199709,-0.309725 -0.348616,-0.412733 -0.108614,-0.06937 -0.237198,-0.118424 -0.386805,-0.150658 -0.149257,-0.03118 -0.309725,-0.05255 -0.481405,-0.06412 v -0.559187 l 2.820457,-0.189548 0.120176,0.120526 v 1.195453 h 0.04274 c 0.356324,-0.464587 0.751889,-0.817056 1.187045,-1.057759 0.436207,-0.241052 0.834575,-0.361228 1.195453,-0.361228 0.361579,0 0.655187,0.118073 0.881875,0.35282 0.227038,0.234746 0.339856,0.549726 0.339856,0.945291 z"
     style="fill:#aa0000;fill-opacity:1;stroke-width:0.35036737"
     inkscape:connector-curvature="0" />
  <path
     id="path6729"
     d="m 54.160138,24.583877 c 0.257521,0.287301 0.44777,0.60053 0.571099,0.941787 0.12403,0.341258 0.185695,0.738575 0.185695,1.190899 0,1.078781 -0.399068,1.967663 -1.195453,2.666296 -0.797086,0.700384 -1.785823,1.049 -2.967262,1.049 -0.544821,0 -1.088941,-0.08374 -1.633763,-0.253316 -0.544471,-0.168527 -1.015014,-0.374192 -1.410579,-0.614544 l -0.369637,0.627858 H 46.652817 L 46.53229,26.012325 h 0.696531 c 0.14365,0.51539 0.311126,0.982079 0.503478,1.397265 0.192351,0.416587 0.445667,0.803743 0.760998,1.165672 0.298162,0.338455 0.646427,0.607537 1.044445,0.808298 0.398718,0.20111 0.861553,0.300965 1.388506,0.300965 0.395915,0 0.740676,-0.0515 1.036737,-0.154862 0.295009,-0.103709 0.535011,-0.250513 0.717902,-0.439011 0.183243,-0.189198 0.318835,-0.410981 0.408529,-0.666048 0.08934,-0.254717 0.13349,-0.549026 0.13349,-0.882225 0,-0.485609 -0.136994,-0.941437 -0.412032,-1.362929 -0.275039,-0.421842 -0.684968,-0.741027 -1.23014,-0.958956 -0.372791,-0.149256 -0.799889,-0.314279 -1.281644,-0.494368 -0.481054,-0.180439 -0.89694,-0.351068 -1.246607,-0.512237 -0.688122,-0.309374 -1.222782,-0.7151 -1.604332,-1.216826 -0.3812,-0.501376 -0.571449,-1.156913 -0.571449,-1.965561 0,-0.463886 0.0946,-0.89659 0.283447,-1.298461 0.189198,-0.401171 0.458631,-0.759947 0.808648,-1.075278 0.332148,-0.297462 0.72526,-0.531857 1.177935,-0.701085 0.453025,-0.168877 0.926371,-0.253316 1.418988,-0.253316 0.561989,0 1.064766,0.08549 1.509382,0.258221 0.443916,0.17168 0.850342,0.372791 1.216826,0.601231 l 0.35282,-0.584763 h 0.688122 l 0.06902,4.050246 h -0.69618 c -0.125782,-0.464236 -0.268031,-0.907451 -0.426047,-1.333498 -0.157315,-0.423594 -0.361929,-0.808297 -0.614544,-1.152008 -0.246308,-0.331798 -0.547624,-0.598077 -0.902897,-0.796034 -0.355623,-0.197257 -0.79148,-0.296762 -1.30687,-0.296762 -0.544121,0 -1.009408,0.175534 -1.393411,0.5245 -0.384003,0.350718 -0.576354,0.777466 -0.576354,1.281294 0,0.528003 0.122979,0.964912 0.369637,1.312126 0.246659,0.346863 0.605435,0.631712 1.075278,0.855246 0.418338,0.200761 0.829319,0.373842 1.233293,0.519595 0.404324,0.146804 0.795684,0.303418 1.174081,0.469142 0.344411,0.149257 0.674807,0.318484 0.992941,0.507682 0.317082,0.191301 0.593522,0.411682 0.829319,0.664297 z"
     style="fill:#aa0000;fill-opacity:1;stroke-width:0.35036737"
     inkscape:connector-curvature="0" />
  <path
     id="path6731"
     d="m 53.743201,32.951701 c 0,-0.286601 0.07813,-0.520296 0.236498,-0.701436 0.157315,-0.180789 0.353171,-0.270834 0.588968,-0.270834 0.183242,0 0.340557,0.03364 0.473346,0.103359 0.131388,0.06902 0.249111,0.158366 0.35247,0.266279 0.08584,0.08549 0.178337,0.203563 0.275038,0.35247 0.09775,0.149606 0.175184,0.272936 0.231943,0.369987 0.287302,-0.154862 0.62961,-0.559186 1.028679,-1.212271 0.397667,-0.653785 0.68707,-1.225935 0.863655,-1.720654 -0.545171,-1.358024 -1.037437,-2.573448 -1.479251,-3.646273 -0.441462,-1.072124 -0.902896,-2.181387 -1.384301,-3.32849 -0.108964,-0.263126 -0.292907,-0.469142 -0.550778,-0.615245 -0.25752,-0.146454 -0.51574,-0.238951 -0.773961,-0.279593 v -0.567595 h 3.870158 v 0.601931 c -0.172381,0.0056 -0.378046,0.04204 -0.61945,0.107212 -0.240702,0.06657 -0.360878,0.141899 -0.360878,0.228089 0,0.03434 0.01296,0.0918 0.03889,0.17168 0.02593,0.08094 0.05536,0.163972 0.09074,0.249462 0.217928,0.567595 0.549726,1.386404 0.997496,2.455374 0.447769,1.070373 0.794283,1.924919 1.040241,2.567492 0.258571,-0.613843 0.526602,-1.248008 0.804093,-1.904597 0.278542,-0.656588 0.590369,-1.431601 0.933729,-2.326439 0.03994,-0.108263 0.09845,-0.258571 0.171329,-0.451273 0.07428,-0.192001 0.112468,-0.357024 0.112468,-0.494368 0,-0.148556 -0.129986,-0.288002 -0.39136,-0.417288 -0.261024,-0.128585 -0.508733,-0.207768 -0.74418,-0.236848 v -0.550077 h 3.1477 v 0.533609 c -0.172381,0.02943 -0.399419,0.127534 -0.679713,0.296762 -0.281345,0.169577 -0.490514,0.408528 -0.628208,0.717552 -0.682516,1.58296 -1.289703,3.024721 -1.819108,4.325986 -0.530456,1.301965 -0.932678,2.259169 -1.207716,2.872312 -0.361579,0.803742 -0.683917,1.429148 -0.967715,1.87937 -0.283797,0.450573 -0.560938,0.803743 -0.83037,1.061613 -0.263827,0.241403 -0.503128,0.403624 -0.717202,0.486661 C 55.631675,33.95796 55.408141,34 55.180402,34 54.732983,34 54.381915,33.894189 54.126497,33.682567 53.870379,33.471296 53.743195,33.226739 53.743195,32.951701 Z"
     style="fill:#aa0000;fill-opacity:1;stroke-width:0.35036737"
     inkscape:connector-curvature="0" />
  <path
     id="path6733"
     d="m 66.828372,26.028442 c 0.234395,0.206366 0.415535,0.444616 0.541667,0.712997 0.126483,0.270484 0.189199,0.600179 0.189199,0.989087 0,0.786225 -0.294309,1.428098 -0.880824,1.92667 -0.588617,0.498573 -1.349264,0.748385 -2.284045,0.748385 -0.492616,0 -0.947743,-0.08934 -1.362578,-0.26698 -0.416237,-0.177636 -0.712998,-0.340557 -0.890634,-0.490164 l -0.172031,0.559187 H 61.3241 L 61.23826,27.25718 h 0.593172 c 0.0452,0.223534 0.14295,0.485259 0.292557,0.78202 0.149256,0.298513 0.329696,0.567245 0.542369,0.808297 0.222833,0.252966 0.490864,0.464938 0.803742,0.636968 0.312178,0.17133 0.663246,0.258221 1.053205,0.258221 0.550076,0 0.975072,-0.124731 1.272884,-0.374543 0.297462,-0.249111 0.447419,-0.606135 0.447419,-1.071073 0,-0.241052 -0.04765,-0.447419 -0.142249,-0.622953 -0.0946,-0.174483 -0.234045,-0.327243 -0.417287,-0.460383 -0.188848,-0.131738 -0.421142,-0.250162 -0.69583,-0.356674 -0.275389,-0.105811 -0.582661,-0.210921 -0.920765,-0.314279 -0.270134,-0.07988 -0.569698,-0.189899 -0.898693,-0.331097 -0.330746,-0.140848 -0.612091,-0.305871 -0.847538,-0.494719 -0.251564,-0.20006 -0.458982,-0.447419 -0.61945,-0.739275 -0.160818,-0.292557 -0.240702,-0.636618 -0.240702,-1.032182 0,-0.693728 0.258571,-1.280944 0.774662,-1.763049 0.516442,-0.481755 1.205965,-0.722808 2.072423,-0.722808 0.332148,0 0.672355,0.04309 1.018868,0.128585 0.346514,0.08654 0.62961,0.189198 0.847539,0.309374 l 0.198308,-0.447068 h 0.618749 l 0.128935,2.725858 h -0.593522 c -0.120176,-0.607537 -0.380149,-1.101906 -0.777466,-1.483806 -0.399068,-0.380849 -0.884327,-0.5718 -1.458229,-0.5718 -0.470193,0 -0.840531,0.118424 -1.109613,0.353171 -0.269783,0.235797 -0.403974,0.519594 -0.403974,0.851743 0,0.25787 0.04415,0.472996 0.13314,0.644676 0.08899,0.17238 0.222133,0.317783 0.399769,0.43901 0.172381,0.11492 0.389609,0.222483 0.649932,0.322338 0.259972,0.100205 0.583011,0.214425 0.967364,0.339506 0.379097,0.120176 0.735771,0.261374 1.071423,0.421492 0.334251,0.163271 0.610691,0.341258 0.82897,0.535712 z"
     style="fill:#aa0000;fill-opacity:1;stroke-width:0.35036737"
     inkscape:connector-curvature="0" />
  <path
     id="path6735"
     d="m 72.241898,29.812059 c -0.372441,0.155213 -0.72491,0.2859 -1.05846,0.39136 -0.331798,0.106512 -0.738224,0.159067 -1.22033,0.159067 -0.710895,0 -1.21122,-0.178337 -1.500973,-0.537113 -0.289404,-0.358426 -0.434456,-0.864707 -0.434456,-1.517441 v -5.744974 h -1.530405 v -0.825816 h 1.564391 v -2.640368 h 1.565791 v 2.640368 h 2.434003 v 0.825816 h -2.417185 v 4.738368 c 0,0.355973 0.01331,0.652735 0.03924,0.890984 0.02558,0.2379 0.08759,0.446719 0.185695,0.622954 0.09074,0.166424 0.229491,0.292556 0.411682,0.378396 0.183242,0.08584 0.4299,0.128936 0.739275,0.128936 0.1433,0 0.353871,-0.01296 0.632413,-0.03959 0.277841,-0.02558 0.474397,-0.05781 0.588967,-0.0988 l 3.51e-4,0.627859 z"
     style="fill:#aa0000;fill-opacity:1;stroke-width:0.35036737"
     inkscape:connector-curvature="0" />
  <path
     id="path6737"
     d="m 78.799724,28.187055 c -0.355273,0.67691 -0.831072,1.215424 -1.427747,1.616595 -0.596325,0.401871 -1.281644,0.601581 -2.055606,0.601581 -0.680763,0 -1.279191,-0.120176 -1.792829,-0.360879 -0.513289,-0.240702 -0.935481,-0.567595 -1.269381,-0.980328 -0.331448,-0.412382 -0.580559,-0.893787 -0.74383,-1.444214 -0.163622,-0.550777 -0.244557,-1.131336 -0.244557,-1.74553 0,-0.550427 0.08794,-1.091044 0.262075,-1.6215 0.174833,-0.529405 0.431653,-1.007306 0.769757,-1.431601 0.326543,-0.406426 0.732268,-0.735071 1.216826,-0.984883 0.484208,-0.249812 1.027978,-0.374192 1.629208,-0.374192 0.6198,0 1.149556,0.09845 1.591019,0.292556 0.441462,0.195155 0.799538,0.461434 1.074927,0.799188 0.264177,0.322338 0.460032,0.700735 0.589318,1.135891 0.128234,0.435507 0.193052,0.908853 0.193052,1.418638 v 0.567595 h -5.615338 c 0,0.556734 0.05361,1.061263 0.159067,1.514288 0.10546,0.453025 0.272936,0.851042 0.503478,1.195453 0.222483,0.332849 0.516441,0.594924 0.876619,0.786925 0.360878,0.192702 0.790779,0.287302 1.290403,0.287302 0.510485,0 0.949496,-0.118775 1.320184,-0.357375 0.369638,-0.236498 0.726662,-0.666048 1.071424,-1.284797 z M 76.89863,24.953514 c 0,-0.320936 -0.02698,-0.664997 -0.08128,-1.031831 -0.05396,-0.367185 -0.142249,-0.673406 -0.262425,-0.920415 -0.131388,-0.263477 -0.311827,-0.477551 -0.541668,-0.645027 -0.229841,-0.165724 -0.52485,-0.249111 -0.886429,-0.249111 -0.601231,0 -1.102256,0.250513 -1.500624,0.752939 -0.398017,0.501727 -0.614544,1.199308 -0.649231,2.093445 h 3.921662 z"
     style="fill:#aa0000;fill-opacity:1;stroke-width:0.35036737"
     inkscape:connector-curvature="0" />
  <path
     id="path6739"
     d="m 92.495584,30.182397 h -4.136787 v -0.568296 c 0.132088,-0.01086 0.265228,-0.02207 0.400119,-0.03364 0.134541,-0.01086 0.252966,-0.03399 0.356324,-0.06902 0.160468,-0.05185 0.279593,-0.14225 0.357024,-0.270834 0.07778,-0.128585 0.116673,-0.297112 0.116673,-0.502778 V 24.36034 c 0,-0.595975 -0.136644,-1.056358 -0.409229,-1.380448 -0.272586,-0.323739 -0.611392,-0.485609 -1.018518,-0.485609 -0.280645,0 -0.544822,0.04239 -0.79113,0.128585 -0.246659,0.08584 -0.472996,0.206016 -0.679012,0.361229 -0.167125,0.126482 -0.305871,0.262074 -0.418339,0.408528 -0.111416,0.146103 -0.196205,0.268381 -0.254016,0.365083 v 4.89323 c 0,0.201812 0.03504,0.366134 0.104059,0.494719 0.06902,0.128585 0.186045,0.22844 0.35282,0.297112 0.131738,0.0515 0.250863,0.09039 0.357025,0.115971 0.10546,0.02558 0.244556,0.0445 0.416586,0.05571 v 0.567595 H 83.199637 V 29.61445 c 0.132439,-0.01121 0.258571,-0.02242 0.382601,-0.03399 0.122629,-0.01086 0.236498,-0.03399 0.338806,-0.06972 0.160818,-0.0515 0.279593,-0.141549 0.357024,-0.270484 0.07778,-0.128585 0.117023,-0.296761 0.117023,-0.503127 v -4.37749 c 0,-0.595975 -0.136644,-1.056007 -0.40958,-1.380097 -0.271885,-0.32374 -0.612092,-0.48596 -1.018167,-0.48596 -0.280995,0 -0.545522,0.0445 -0.791831,0.13349 -0.246308,0.09005 -0.472996,0.211272 -0.679362,0.365784 -0.166074,0.126482 -0.306571,0.268381 -0.421141,0.425696 -0.114571,0.158716 -0.200411,0.277141 -0.258572,0.357024 v 4.858895 c 0,0.195155 0.04064,0.359127 0.120877,0.490514 0.08023,0.132439 0.20006,0.232294 0.360178,0.301316 0.120176,0.05781 0.244206,0.09986 0.369637,0.128235 0.127184,0.02943 0.26663,0.04905 0.421492,0.06096 v 0.567945 h -4.11997 v -0.567945 c 0.132089,-0.01121 0.268031,-0.02242 0.40923,-0.03434 0.140146,-0.01051 0.261374,-0.03399 0.365433,-0.06902 0.160468,-0.0515 0.279943,-0.141898 0.356323,-0.271184 0.07743,-0.128234 0.115972,-0.29606 0.115972,-0.502777 v -5.271628 c 0,-0.183242 -0.04029,-0.348615 -0.124381,-0.494368 -0.08339,-0.146804 -0.199359,-0.271535 -0.347914,-0.374893 -0.109315,-0.06902 -0.243506,-0.12438 -0.403974,-0.167476 -0.160468,-0.04309 -0.326893,-0.06972 -0.498923,-0.08199 v -0.558485 l 2.838676,-0.189549 0.120176,0.120176 v 1.212622 h 0.06026 c 0.1433,-0.1426 0.318133,-0.312528 0.5245,-0.507683 0.207417,-0.193753 0.398718,-0.35282 0.576704,-0.472645 0.20041,-0.136994 0.451624,-0.251564 0.75329,-0.344061 0.300615,-0.0911 0.626107,-0.137344 0.975773,-0.137344 0.550077,0 1.022723,0.147504 1.418988,0.442163 0.396266,0.295711 0.680063,0.652735 0.851042,1.071074 0.207068,-0.20006 0.388908,-0.376295 0.546574,-0.528705 0.157314,-0.151709 0.365433,-0.313579 0.623303,-0.485959 0.218279,-0.148907 0.474047,-0.269433 0.769757,-0.361229 0.29501,-0.0911 0.622953,-0.137344 0.984883,-0.137344 0.716501,0 1.284096,0.236147 1.703136,0.704939 0.417988,0.470543 0.627508,1.193351 0.627508,2.167723 v 4.308818 c 0,0.20076 0.03399,0.364732 0.104059,0.494368 0.06902,0.128235 0.185694,0.22879 0.352469,0.296411 0.132439,0.05185 0.262075,0.0904 0.39101,0.116322 0.129286,0.02558 0.273637,0.0445 0.434456,0.05571 v 0.567946 h -0.0011 v -7.01e-4 z"
     style="fill:#aa0000;fill-opacity:1;stroke-width:0.35036737"
     inkscape:connector-curvature="0" />
</svg>
