<?xml version="1.0" encoding="UTF-8" standalone="no"?>
<svg
   xmlns:dc="http://purl.org/dc/elements/1.1/"
   xmlns:cc="http://creativecommons.org/ns#"
   xmlns:rdf="http://www.w3.org/1999/02/22-rdf-syntax-ns#"
   xmlns:svg="http://www.w3.org/2000/svg"
   xmlns="http://www.w3.org/2000/svg"
   xmlns:sodipodi="http://sodipodi.sourceforge.net/DTD/sodipodi-0.dtd"
   xmlns:inkscape="http://www.inkscape.org/namespaces/inkscape"
   version="1.0"
   width="55.067417"
   height="34"
   preserveAspectRatio="xMidYMid meet"
   id="svg18"
   sodipodi:docname="megaduck.svg"
   inkscape:version="1.0.1 (3bc2e813f5, 2020-09-07)">
  <metadata
     id="metadata24">
    <rdf:RDF>
      <cc:Work
         rdf:about="">
        <dc:format>image/svg+xml</dc:format>
        <dc:type
           rdf:resource="http://purl.org/dc/dcmitype/StillImage" />
        <dc:title></dc:title>
      </cc:Work>
    </rdf:RDF>
  </metadata>
  <defs
     id="defs22" />
  <sodipodi:namedview
     pagecolor="#ffffff"
     bordercolor="#666666"
     borderopacity="1"
     objecttolerance="10"
     gridtolerance="10"
     guidetolerance="10"
     inkscape:pageopacity="0"
     inkscape:pageshadow="2"
     inkscape:window-width="1920"
     inkscape:window-height="1017"
     id="namedview20"
     showgrid="false"
     fit-margin-top="0"
     fit-margin-left="0"
     fit-margin-right="0"
     fit-margin-bottom="0"
     inkscape:zoom="1.401119"
     inkscape:cx="123.62171"
     inkscape:cy="138.43521"
     inkscape:window-x="-8"
     inkscape:window-y="-8"
     inkscape:window-maximized="1"
     inkscape:current-layer="svg18" />
  <path
     d="m 12.609677,33.750446 c -0.148515,-0.425521 0.371288,-4.903719 0.984123,-8.493744 0.241337,-1.443436 0.241337,-1.739633 0.01856,-2.42443 -0.315595,-0.869608 -0.167079,-2.257559 0.260111,-2.516627 0.686883,-0.444294 1.206896,-0.03692 1.856859,1.406516 0.352933,0.795558 0.390062,1.110111 0.278467,2.609031 -0.05569,0.943866 -0.241338,2.57232 -0.408418,3.60859 -0.334368,2.220639 -0.278466,2.479706 0.482884,2.331817 0.742785,-0.166663 2.803853,-1.184369 4.326762,-2.183719 1.448233,-0.943865 1.708344,-1.499129 1.578393,-3.423571 -0.05569,-0.980786 -0.167289,-1.258418 -0.947203,-2.349964 -0.556933,-0.758847 -1.151203,-1.369387 -1.578393,-1.591743 -0.724221,-0.370036 -2.804062,-0.851251 -4.475277,-1.036061 -0.557141,-0.05569 -1.169976,-0.203583 -1.35562,-0.296197 -0.426982,-0.222147 -0.891301,-1.128883 -0.891301,-1.739423 0,-0.407166 0.07426,-0.462651 0.631399,-0.462651 1.095509,0 7.205081,1.276774 8.17064,1.721068 1.857068,0.832687 2.692675,2.460933 2.87832,5.588517 0.148515,2.276123 0.01856,3.590025 -0.408626,4.237694 -0.50124,0.740074 -2.061068,1.665583 -3.936701,2.313252 -0.928429,0.332908 -2.766933,1.128675 -4.103988,1.776344 -2.488259,1.240062 -3.156786,1.406516 -3.360995,0.925301 z"
     style="fill:#aa0000;stroke:none;stroke-width:0.208589"
     id="path2" />
  <path
     d="m 33.83486,31.881489 c -0.16708,-0.14789 -0.390061,-0.444295 -0.482883,-0.647669 -0.259902,-0.444295 -0.779915,-0.444295 -2.005584,0.01856 -0.538368,0.203374 -1.318282,0.369828 -1.764037,0.369828 -1.671215,-0.01835 -3.268173,-1.22108 -3.751056,-2.831178 -0.390062,-1.295338 -0.724221,-6.384284 -0.445755,-6.735965 0.29724,-0.351472 0.854172,-0.295988 1.281363,0.129534 0.334368,0.333116 0.371497,0.610748 0.371497,2.368737 0,2.979485 0.482674,4.496761 1.578393,4.959412 1.35562,0.555055 2.822626,0.129534 3.34243,-0.962221 0.167288,-0.351473 0.390061,-1.406516 0.501448,-2.350173 0.315595,-2.849951 0.315595,-2.868307 0.742785,-3.016405 0.297031,-0.0924 0.501448,0 0.742786,0.314552 0.29703,0.351681 0.334368,0.610749 0.222773,1.57297 -0.09282,0.980785 -0.01856,1.591534 0.501448,3.664074 0.575705,2.387301 0.59427,2.498271 0.297031,2.960713 -0.371289,0.555264 -0.724222,0.610748 -1.132639,0.185227 z"
     style="fill:#aa0000;stroke:none;stroke-width:0.208589"
     id="path4" />
  <path
     d="m 39.052923,31.437194 c -1.076945,-0.277423 -1.708344,-0.666025 -2.432565,-1.498712 -0.947203,-1.110319 -1.318491,-2.331817 -1.318491,-4.330308 0,-1.443436 0.07426,-1.813473 0.520012,-2.775902 1.188332,-2.535191 2.785289,-3.33075 5.255192,-2.590676 0.965558,0.277632 2.302614,1.258209 2.302614,1.665583 0,0.555056 -0.59427,0.61054 -1.68978,0.166454 -1.931326,-0.777202 -2.729804,-0.53649 -3.918344,1.165804 -0.482675,0.721718 -0.594271,1.073191 -0.668528,2.165154 -0.07426,1.202725 -0.01856,1.406516 0.538577,2.498062 1.02146,1.924651 1.931325,2.202283 4.791081,1.480565 1.411313,-0.351472 1.578393,-0.370037 1.838294,-0.09261 0.260111,0.259276 0.260111,0.333325 -0.148515,0.758846 -1.039816,1.091755 -3.491154,1.757989 -5.069547,1.387743 z"
     style="fill:#aa0000;stroke:none;stroke-width:0.208589"
     id="path6" />
  <path
     d="m 45.700863,31.23382 c -0.07426,-0.09261 -0.204208,-1.202933 -0.297031,-2.442786 -0.241546,-3.14594 -0.482883,-5.644002 -0.631399,-6.513818 -0.204208,-1.221288 0.668528,-2.775694 1.337056,-2.350172 0.111387,0.07384 0.241337,0.99935 0.297031,2.07254 0.111386,2.128025 0.371497,3.294038 0.798478,3.460492 0.148516,0.05549 1.077154,-0.166454 2.061277,-0.499571 1.596958,-0.518135 1.894197,-0.573828 2.506823,-0.370037 1.002896,0.295988 1.968454,1.18416 2.11697,1.961363 0.09303,0.499779 0.01856,0.721718 -0.371289,1.202933 -0.259902,0.314552 -0.482883,0.629104 -0.482883,0.684797 0,0.07384 0.464319,0.5367 1.040024,1.036062 1.225461,1.073399 1.318283,1.647227 0.259902,1.739632 -0.482883,0.03713 -1.151411,-0.185018 -2.506822,-0.851251 -1.021461,-0.499571 -2.395645,-1.11032 -3.045608,-1.350823 -1.151203,-0.407166 -1.188332,-0.407166 -1.429878,-0.07405 -0.148516,0.185019 -0.259902,0.610749 -0.259902,0.943657 0,0.980785 -0.297031,1.554405 -0.817043,1.554405 -0.259902,0 -0.520013,-0.09241 -0.575706,-0.203374 z m 5.868026,-4.052676 c 0.445755,-0.370037 0.445755,-0.370037 0.09282,-0.647878 -0.76135,-0.591975 -2.859755,-0.129533 -2.599645,0.555264 0.111387,0.240504 0.575706,0.370246 1.578393,0.444295 0.278467,0 0.687093,-0.148098 0.92843,-0.351681 z"
     style="fill:#aa0000;stroke:none;stroke-width:0.208589"
     id="path8" />
  <path
     d="m 24.438551,18.354074 c -0.76135,-0.09261 -1.114282,-0.351472 -1.114282,-0.795767 0,-0.555264 0.947202,-0.795767 2.599853,-0.666233 2.488258,0.221939 3.899572,-0.481215 4.196811,-2.054185 0.148515,-0.814123 -0.03713,-0.943656 -1.207105,-0.832687 C 27.391129,14.1533 25.515705,13.727779 24.717017,13.08011 22.95298,11.618109 23.12006,9.0088694 25.107079,7.0844272 c 1.559829,-1.5174851 4.345326,-2.6278044 4.642357,-1.8506017 0.167288,0.4257301 -0.297031,0.9067364 -1.893988,1.9801354 -1.467007,0.980577 -2.11697,1.8318287 -2.11697,2.738774 0,1.6098901 1.206896,2.2946871 3.138221,1.7763441 1.578393,-0.407166 1.652651,-0.57362 1.764246,-3.1457312 0.09282,-2.2761233 0.482675,-3.8123813 1.169767,-4.5710196 0.29724,-0.332908 1.077154,-0.444086 1.225669,-0.2035828 0.05569,0.092614 0.01857,1.5729697 -0.07426,3.2940376 -0.07426,1.7394237 -0.185853,4.385793 -0.260111,5.903278 -0.07426,2.183718 -0.16708,2.886872 -0.426981,3.330749 -0.965768,1.647227 -4.103989,2.46135 -7.836481,2.017264 z"
     style="fill:#aa0000;stroke:none;stroke-width:0.208589"
     id="path10" />
  <path
     d="M 20.910268,15.522687 C 19.907581,15.282184 17.252034,14.264478 16.732022,13.931361 16.119396,13.54276 15.766463,12.247422 15.636512,9.9712989 15.506561,7.6764028 15.710772,6.658697 16.379298,6.1774822 16.657764,5.9738993 17.307727,5.4926844 17.82774,5.1228561 18.663347,4.4935431 18.88612,4.419494 19.889016,4.419494 c 0.946994,0 1.206896,0.074049 1.5227,0.4257302 0.891301,0.9622211 1.002687,1.7765525 0.426982,3.03497 -0.371289,0.8141229 -0.389853,0.8510432 -3.008271,1.9797183 -1.021252,0.4257305 -1.076945,0.4997795 -1.076945,1.1105275 0,1.017706 0.148515,1.202933 1.541264,1.906087 0.92843,0.462442 1.894197,0.758847 3.268173,0.999141 2.878319,0.499779 2.804062,0.481215 2.804062,0.99935 0,0.259276 -0.148516,0.5367 -0.352724,0.647669 -0.427191,0.222147 -3.156995,0.222147 -4.103989,0 z M 19.759065,7.4728199 c 0.575497,-0.6662333 0.426982,-0.9250923 -0.482883,-0.9067364 -0.909866,0.018564 -1.5227,0.4812148 -1.5227,1.1472395 0,0.4257302 0.03713,0.4442946 0.779914,0.3516811 0.557142,-0.073841 0.92843,-0.258859 1.225669,-0.5921842 z"
     style="fill:#aa0000;stroke:none;stroke-width:0.208589"
     id="path12" />
  <path
     d="M 13.463849,15.041681 C 13.296769,14.837889 13.166818,13.801828 13.055223,11.562625 12.962401,9.8229923 12.795321,7.102783 12.683935,5.5298133 12.49829,3.0501071 12.424033,2.6617144 12.126793,2.6060211 11.90402,2.5503279 11.699812,2.7910396 11.421137,3.4389171 10.696916,5.141212 8.3386082,11.359042 8.0972707,12.265778 c -0.2972393,1.054835 -1.5600372,2.516627 -2.1912275,2.516627 -0.501448,0 -0.9657672,-0.666234 -0.9657672,-1.387743 0,-0.296196 -0.2599019,-1.517485 -0.575497,-2.683289 C 4.0489752,9.5455689 3.6776868,8.1576176 3.5475272,7.6394825 3.2504965,6.4181939 2.9163369,5.8074453 2.6747908,6.0479484 2.5819687,6.1405619 2.4520178,7.9911636 2.3963245,10.174673 2.3406312,12.450797 2.2292447,14.227349 2.1176496,14.375447 1.8206188,14.72692 1.3006064,14.634515 0.74367381,14.171865 0.2422258,13.727779 0.2422258,13.709214 0.07514601,10.415177 -0.14783564,6.3627092 0.14940369,1.5883154 0.65064311,1.014487 1.0963978,0.49656051 2.0248275,0.16323527 3.0648523,0.16323527 c 1.0212517,0 0.9841229,-0.0554847 1.3184911,1.75819673 0.4455461,2.5351908 2.0053747,7.587008 2.3397429,7.587008 0.074258,0 0.2970307,-0.3700369 0.4641105,-0.8326873 C 7.3544852,8.2131023 7.6886448,7.3989794 7.8928535,6.8437154 8.1158351,6.3072245 8.4128659,5.2707457 8.5799457,4.5675922 8.877185,3.0686716 9.7313567,1.3661681 10.529836,0.60752986 c 0.520012,-0.49977926 0.687092,-0.53669952 2.209792,-0.5921842 2.246921,-0.07404909 2.302614,0 2.061277,3.07168174 -0.09282,1.2214972 -0.09282,2.5908841 0,3.0349701 0.185644,0.9438652 0.185644,7.9941735 0,8.6604075 -0.148516,0.573828 -0.946995,0.721718 -1.337056,0.259276 z"
     style="fill:#aa0000;stroke:none;stroke-width:0.208589"
     id="path14" />
  <path
     d="m 41.485488,14.468061 c -0.259902,-0.296196 -0.612626,-0.795767 -0.779914,-1.110528 -0.16708,-0.332908 -0.371289,-0.610749 -0.445547,-0.610749 -0.07426,0 -0.408625,0.277841 -0.724221,0.629314 -1.058589,1.110319 -2.804062,1.239853 -4.029731,0.277632 -1.485571,-1.165804 -2.414,-4.9039282 -1.708344,-6.8654992 0.315596,-0.8512518 1.652651,-2.4797062 2.358308,-2.8499517 1.040024,-0.5364909 2.079841,-0.5364909 3.231252,0 l 1.039816,0.4628591 0.259902,-0.6107487 c 0.297239,-0.7033621 0.76135,-1.2214972 1.077154,-1.2214972 0.687092,0.018564 0.724221,0.2221473 0.76135,5.1075105 0.03713,3.2754732 0.129951,5.0889462 0.29703,5.7551792 0.204418,0.777203 0.204418,1.017915 0.01857,1.239853 -0.371289,0.42573 -0.817043,0.351681 -1.35562,-0.203374 z m -3.360995,-2.979485 c 0.315595,-0.481215 0.76135,-1.221289 0.965559,-1.6470193 0.371497,-0.7402824 1.318491,-3.7566881 1.318491,-4.2005655 0,-0.2037914 -3.026835,-0.3147608 -3.21248,-0.1111779 -0.03734,0.055693 -0.371497,0.4812148 -0.742994,0.9624297 -1.076945,1.4434359 -1.151202,3.608381 -0.167079,5.125866 0.668527,1.017706 1.095718,0.999142 1.838503,-0.129533 z"
     style="fill:#aa0000;stroke:none;stroke-width:0.208589"
     id="path16" />
</svg>
