<?xml version="1.0" encoding="UTF-8" standalone="no"?>
<svg
   xmlns:dc="http://purl.org/dc/elements/1.1/"
   xmlns:cc="http://creativecommons.org/ns#"
   xmlns:rdf="http://www.w3.org/1999/02/22-rdf-syntax-ns#"
   xmlns:svg="http://www.w3.org/2000/svg"
   xmlns="http://www.w3.org/2000/svg"
   xmlns:sodipodi="http://sodipodi.sourceforge.net/DTD/sodipodi-0.dtd"
   xmlns:inkscape="http://www.inkscape.org/namespaces/inkscape"
   version="1.2"
   id="svg10"
   sodipodi:docname="megacd.svg"
   inkscape:version="0.92.5 (2060ec1f9f, 2020-04-08)"
   width="69.046272"
   height="33.999996">
  <metadata
     id="metadata16">
    <rdf:RDF>
      <cc:Work
         rdf:about="">
        <dc:format>image/svg+xml</dc:format>
        <dc:type
           rdf:resource="http://purl.org/dc/dcmitype/StillImage" />
        <dc:title></dc:title>
      </cc:Work>
    </rdf:RDF>
  </metadata>
  <defs
     id="defs14" />
  <sodipodi:namedview
     pagecolor="#ffffff"
     bordercolor="#666666"
     borderopacity="1"
     objecttolerance="10"
     gridtolerance="10"
     guidetolerance="10"
     inkscape:pageopacity="0"
     inkscape:pageshadow="2"
     inkscape:window-width="1440"
     inkscape:window-height="837"
     id="namedview12"
     showgrid="false"
     inkscape:zoom="1.3871078"
     inkscape:cx="106.80488"
     inkscape:cy="140.56676"
     inkscape:window-x="0"
     inkscape:window-y="0"
     inkscape:window-maximized="1"
     inkscape:current-layer="svg10"
     fit-margin-top="0"
     fit-margin-left="0"
     fit-margin-right="0"
     fit-margin-bottom="0" />
  <path
     style="fill:#aa0000;fill-opacity:1;fill-rule:nonzero;stroke:none;stroke-width:0.26153895"
     d="m 16.97414,0.26284444 c 0.149339,-0.2482 0.382108,-0.2482 0.382108,-0.2482 h 6.94229 V 1.5538004 h -5.514025 l -0.299201,0.413755 v 1.042756 h 5.813226 l -1.096109,1.654753 h -4.717117 v 1.48947 h 5.813226 v 1.52242 h -8.752661 c 0,-1.65476 0,-3.57446 0,-5.229475 z"
     id="path4170"
     inkscape:connector-curvature="0" />
  <path
     style="fill:#aa0000;fill-opacity:1;fill-rule:nonzero;stroke:none;stroke-width:0.26153895"
     d="m 40.442292,0.01464444 c 0.182817,0 0.182817,0.017 0.315678,0.165554 1.743941,2.38314296 3.620483,5.03122596 5.414118,7.53022596 -0.963248,0.0162 -1.577865,-0.0167 -2.541113,0 l -1.145802,-1.55589 h -3.271852 l -1.046418,-1.39008 v 2.94597 h -2.474681 c -0.08317,0 -0.166078,-0.0829 -0.166078,-0.16555 l 0.01648,-7.53022996 m 2.624282,4.65041996 h 3.172468 l -2.275653,-3.111264 h -0.880078 z"
     id="path4172"
     inkscape:connector-curvature="0" />
  <path
     style="fill:#aa0000;fill-opacity:1;fill-rule:nonzero;stroke:none;stroke-width:0.26153895"
     d="m 27.105374,0.01464444 h 6.909337 V 1.5538004 h -5.530765 c -0.249246,0 -0.315677,0 -0.36537,0.08291 l -0.232508,0.281155 -0.03348,3.823179 c 0,0.38027 0.03348,0.41349 0.23277,0.41349 h 3.786823 v -1.48947 h -1.860066 l 1.112849,-1.654751 h 3.371498 v 4.732811 c -2.474943,-0.0165 -6.278242,0 -8.752924,-0.0165 -0.166077,0 -0.564662,-0.16529 -0.564662,-0.59553 l -0.01674,-4.683633 1.478217,-2.20111196 c 0.149602,-0.2482 0.465016,-0.231723 0.465016,-0.231723 z"
     id="path4174"
     inkscape:connector-curvature="0" />
  <path
     style="fill:#aa0000;fill-opacity:1;fill-rule:nonzero;stroke:none;stroke-width:0.26153895"
     d="m 60.937269,0.66012244 c 1.61108,-0.380801 3.321808,-0.579309 4.932887,-0.165554 1.24571,0.297892 2.391512,1.15835596 2.840051,2.36666596 0.697786,1.87 0.199293,3.9223 -0.498231,5.70966 -1.145803,2.7469396 -2.92296,5.2129896 -4.965841,7.3644096 0.03295,-2.78016 0,-5.5441 0.01648,-8.3242596 -0.01648,-0.47993 0.03322,-0.95985 -0.06643,-1.42356 -0.182815,-1.05897 -1.212494,-1.87 -2.275388,-1.87 -2.64102,-0.0165 -5.26504,0 -7.9058,0 2.441466,-1.605066 5.082225,-2.945715 7.922277,-3.65736196 z"
     id="path4176"
     inkscape:connector-curvature="0" />
  <path
     style="fill:#aa0000;fill-opacity:1;fill-rule:nonzero;stroke:none;stroke-width:0.26153895"
     d="m 46.786443,9.5469544 c 1.843849,-1.91943 3.870253,-3.67384 6.095427,-5.13009 0.017,4.26989 0,8.5562496 0.017,12.8423496 0.03295,0.0332 0.08291,0.11586 0.116124,0.14908 2.673974,0 5.331471,0 7.988706,0 0.265986,0 0.531709,-0.0494 0.797433,-0.0994 -0.581401,0.66196 -1.262448,1.20831 -1.926758,1.77062 -2.989652,2.44958 -6.377627,4.51809 -10.098019,5.61027 -2.225696,0.61253 -4.766809,1.00981 -6.876121,-0.13207 -0.19903,-0.14908 -0.763694,-0.3808 -0.415061,-0.66222 3.055821,-2.86281 6.443797,-5.6597 9.533355,-8.48982 v -0.91015 c -3.653959,2.56517 -7.440782,5.51089 -10.812281,7.86108 l -0.315677,0.1326 0.183076,-0.23173 c 3.321283,-3.11153 6.79269,-6.04076 10.114235,-9.15203 l 0.830647,-0.71165 v -0.74486 c -3.703913,2.56543 -7.656813,5.57706 -11.011313,7.8446 0.265462,-0.44697 0.680786,-0.77808 1.079372,-1.1254 3.238375,-2.94598 6.660089,-5.80878 9.931941,-8.7380196 v -0.69517 c -3.305067,2.1676296 -6.776474,4.9153596 -9.732649,6.9341796 0.1496,-0.34758 0.332155,-0.69465 0.647309,-0.92663 3.039606,-2.61513 6.112427,-5.2626896 9.08534,-7.9439896 v -0.66195 c -1.378833,0.77808 -2.458204,1.87026 -3.770345,2.74747 -0.880339,0.5623 -1.610818,1.3568596 -2.574328,1.7708796 0.315677,-0.48019 0.73074,-0.8772096 1.112587,-1.3079596 z"
     id="path4178"
     inkscape:connector-curvature="0" />
  <path
     style="fill:#aa0000;fill-opacity:1;fill-rule:nonzero;stroke:none;stroke-width:0.26153895"
     d="m 56.436445,7.6936844 c 0,-0.21524 0.01648,-0.42997 0.06643,-0.629 0.946771,-0.0162 1.910019,0 2.85679,-0.0162 0.06643,0.18177 0.116124,0.3638 0.116124,0.56257 -0.01648,2.20085 0,4.4186996 0,6.6362896 0.01674,0.16555 -0.09965,0.31437 -0.182554,0.44697 -0.830387,-0.033 -1.677511,0 -2.508159,-0.0167 -0.199031,0 -0.382108,-0.13234 -0.348632,-0.34759 -0.01648,-2.21785 0,-4.4186996 0,-6.6362896 z"
     id="path4180"
     inkscape:connector-curvature="0" />
  <path
     style="fill:#aa0000;fill-opacity:1;fill-rule:nonzero;stroke:none;stroke-width:0.26153895"
     d="m 35.34359,9.9112744 c 1.644034,-0.56257 3.371499,-0.95958 5.115441,-0.91015 1.179017,0.0329 2.391512,0.33084 3.338021,1.0921796 -3.105513,2.96272 -6.444058,5.85874 -9.599787,8.80471 v 0.74434 c 3.189206,-2.2508 6.660351,-4.81571 9.43371,-6.85127 0.465016,-0.33111 0.913556,-0.67869 1.411787,-0.96011 -0.248985,0.43023 -0.664309,0.69543 -1.013202,1.02628 -2.955913,2.73047 -5.962303,5.4115 -8.935217,8.12575 -0.315677,0.29763 -0.614616,0.57905 -0.897078,0.92663 v 0.4305 c 3.620745,-2.49901 7.308183,-5.11413 10.944882,-7.57966 -0.232508,0.28089 -0.514709,0.52935 -0.780432,0.77808 -3.338022,3.04483 -6.826167,6.00702 -10.16445,9.06912 v 0.66169 c 2.890005,-2.06877 6.028996,-4.33605 8.553631,-6.14015 0.381847,-0.26467 0.747217,-0.54583 1.16228,-0.76107 -0.09965,0.14907 -0.199293,0.29815 -0.315416,0.43049 -3.138729,2.87954 -6.261243,5.65996 -9.400495,8.53925 v 0.49666 c 2.225696,-1.43977 4.484608,-3.29356 6.477535,-4.63395 -0.431801,0.61226 -0.963248,1.14188 -1.477956,1.70471 -3.006391,3.09479 -6.52749,5.74261 -10.497128,7.51349 -2.175743,0.94337 -4.534301,1.6715 -6.942552,1.57211 -1.311879,-0.0494 -2.723666,-0.44697 -3.620222,-1.45624 -0.930294,-1.02628 -1.146325,-2.51549 -0.980248,-3.85614 0.232508,-1.91995 1.02994,-3.72379 1.993188,-5.37881 1.079633,-1.83678 2.391513,-3.55797 3.902946,-5.08039 -0.08291,2.69751 -0.01648,5.4115 -0.03322,8.10902 0,0.86046 -0.08291,1.82031 0.448539,2.58191 0.398586,0.54609 1.029679,0.97632 1.743942,0.97632 2.657497,0 5.314733,0 7.97223,0 0,-1.63828 0.01674,-3.26008 0,-4.88214 -1.063155,-0.0497 -2.159265,-0.11587 -3.205683,0.0332 -0.01648,0.66196 0.03348,1.32417 -0.01648,1.98587 -0.299201,0.21524 -0.714263,0.0662 -1.046418,0.11586 -0.747478,-0.0497 -1.511172,0.0994 -2.225696,-0.0994 0.01674,-2.46605 0,-4.9151 0,-7.38115 1.013463,-0.23172 2.092834,-0.0329 3.122513,-0.0991 0.04995,0.0497 0.116124,0.0991 0.166077,0.16529 0,0.61252 0,1.22479 0,1.85379 0.996725,0.14881 2.042881,0.0329 3.056083,0.0662 0.03322,-0.033 0.116385,-0.0994 0.1496,-0.13234 0,-1.53916 0,-3.07831 0,-4.61747 -2.026403,-0.13208 -4.085761,-0.0165 -6.128642,-0.0494 -0.913555,-0.0332 -1.843588,0 -2.740667,0.14907 0.265724,-0.29789 0.548186,-0.59604 0.863864,-0.86098 2.972913,-2.64782 6.394365,-4.88215 10.164711,-6.2225396 z"
     id="path4182"
     inkscape:connector-curvature="0" />
  <path
     style="fill:#aa0000;fill-opacity:1;fill-rule:nonzero;stroke:none;stroke-width:0.26153895"
     d="m 4.7001171,0.66012244 c 0.2827236,-0.397278 0.6977859,-0.661955 1.2292331,-0.645478 1.0129404,-0.03295 2.0261423,0 3.0558212,0 -0.016477,0.314631 -0.016477,0.513139 -0.033216,0.827509 0.4153239,-0.430493 0.8638632,-0.860463 1.5449116,-0.827509 1.411787,-0.03295 2.806836,0 4.218362,0 0,2.59838896 0,5.09738996 0,7.71199996 -0.94651,0 -1.910019,0 -2.856529,0 0,-1.87 0,-3.74027 0,-5.610012 -0.531447,-0.04969 -0.797432,0.42997 -1.02994,0.794294 -1.0461568,1.605328 -2.1257896,3.177438 -3.1057761,4.815718 -1.0129404,0.0167 -2.0096654,0.0167 -3.0058673,0 1.1957562,-1.93591 2.4911586,-3.806178 3.7198686,-5.709658 -0.6308319,0.03322 -1.4447412,-0.165031 -1.9097574,0.347847 -1.1792792,1.770621 -2.3418199,3.574711 -3.5208375,5.361811 -0.996725,0 -2.00992687,0 -3.0063903,0 1.561126,-2.36614 3.1389906,-4.716333 4.7001171,-7.06652196 z"
     id="path4184"
     inkscape:connector-curvature="0" />
</svg>
