<?xml version="1.0" encoding="UTF-8" standalone="no"?>
<svg
   xmlns:dc="http://purl.org/dc/elements/1.1/"
   xmlns:cc="http://creativecommons.org/ns#"
   xmlns:rdf="http://www.w3.org/1999/02/22-rdf-syntax-ns#"
   xmlns:svg="http://www.w3.org/2000/svg"
   xmlns="http://www.w3.org/2000/svg"
   xmlns:sodipodi="http://sodipodi.sourceforge.net/DTD/sodipodi-0.dtd"
   xmlns:inkscape="http://www.inkscape.org/namespaces/inkscape"
   version="1.1"
   id="Layer_1"
   sodipodi:docname="megadrive.svg"
   inkscape:version="0.92.5 (2060ec1f9f, 2020-04-08)"
   width="218.9267"
   height="34">
  <metadata
     id="metadata74">
    <rdf:RDF>
      <cc:Work
         rdf:about="">
        <dc:format>image/svg+xml</dc:format>
        <dc:type
           rdf:resource="http://purl.org/dc/dcmitype/StillImage" />
        <dc:title></dc:title>
      </cc:Work>
    </rdf:RDF>
  </metadata>
  <defs
     id="defs72" />
  <sodipodi:namedview
     pagecolor="#ffffff"
     bordercolor="#666666"
     borderopacity="1"
     objecttolerance="10"
     gridtolerance="10"
     guidetolerance="10"
     inkscape:pageopacity="0"
     inkscape:pageshadow="2"
     inkscape:window-width="1440"
     inkscape:window-height="837"
     id="namedview70"
     showgrid="false"
     inkscape:zoom="1.9616667"
     inkscape:cx="163.61439"
     inkscape:cy="-62.081983"
     inkscape:window-x="0"
     inkscape:window-y="0"
     inkscape:window-maximized="1"
     inkscape:current-layer="Layer_1"
     fit-margin-top="0"
     fit-margin-left="0"
     fit-margin-right="0"
     fit-margin-bottom="0" />
  <g
     transform="matrix(0.86532289,0,0,0.87154903,0,-0.447104)"
     id="g49"
     style="fill:#aa0000">
    <path
       id="rect7344"
       d="m 197.898,23.513 2.652,3.983 h 7.247 l -2.651,-3.983 z"
       style="fill:#aa0000;fill-opacity:1"
       inkscape:connector-curvature="0" />
    <path
       id="path3"
       d="m 229.687,28.71 v 6.925 c 0.088,2.162 2.068,3.888 4.485,3.888 H 253 v -3.642 h -15.327 c -0.802,0 -1.457,-0.656 -1.457,-1.46 v -0.91 h 15.632 v -3.339 h -14.175 c -0.802,0 -1.457,-0.656 -1.457,-1.459 z"
       style="fill:#aa0000;fill-opacity:1"
       inkscape:connector-curvature="0" />
    <path
       id="path5"
       d="m 201.343,28.71 7.189,10.814 h 0.738 6.509 0.738 l 7.19,-10.814 h -7.249 l -3.936,5.919 -3.936,-5.919 z"
       style="fill:#aa0000;fill-opacity:1"
       inkscape:connector-curvature="0" />
    <path
       id="path7"
       d="m 189.062,28.71 v 10.814 h 6.53 V 28.71 Z"
       style="fill:#aa0000;fill-opacity:1"
       inkscape:connector-curvature="0" />
    <path
       id="path9"
       d="m 178.635,28.71 v 2.05 c 0,0.013 0.003,0.025 0,0.038 -0.017,0.637 -0.533,1.137 -1.172,1.137 h -1.437 -9.499 v 4.25 h 9.121 l 3.311,3.338 h 7.815 l -4.504,-4.534 c 1.706,-0.693 2.916,-2.367 2.916,-4.326 v -1.954 h -0.435 z"
       style="fill:#aa0000;fill-opacity:1"
       inkscape:connector-curvature="0" />
    <path
       id="path11"
       d="m 158.541,28.71 v 10.814 h 6.529 V 28.71 Z"
       style="fill:#aa0000;fill-opacity:1"
       inkscape:connector-curvature="0" />
    <path
       id="path13"
       d="m 147.7,28.71 v 5.996 c 0,0.656 -0.519,1.176 -1.175,1.176 h -12.091 v 3.642 h 15.706 v -0.019 c 2.294,-0.174 4.107,-1.905 4.107,-4.021 V 28.71 Z"
       style="fill:#aa0000;fill-opacity:1"
       inkscape:connector-curvature="0" />
    <path
       id="path15"
       d="m 126.997,28.71 v 10.814 h 6.528 V 28.71 Z"
       style="fill:#aa0000;fill-opacity:1"
       inkscape:connector-curvature="0" />
    <path
       id="path17"
       d="m 116.124,28.71 v 3.226 H 104.26 v 4.251 h 11.864 v 3.337 h 6.548 V 28.71 Z"
       style="fill:#aa0000;fill-opacity:1"
       inkscape:connector-curvature="0" />
    <path
       id="path19"
       d="m 96.578,28.71 v 10.814 h 6.529 V 28.71 Z"
       style="fill:#aa0000;fill-opacity:1"
       inkscape:connector-curvature="0" />
    <path
       id="path21"
       d="m 65.754,28.71 v 7.039 h 0.019 c 0.141,1.983 1.869,3.572 4.048,3.755 v 0.019 h 19.13 v -0.019 c 2.431,-0.159 4.352,-2.17 4.352,-4.649 0,-2.581 -2.078,-4.684 -4.654,-4.684 -0.026,0 -0.051,-10e-4 -0.076,0 H 77.39 v 3.337 h 8.079 c 0.654,0 1.174,0.54 1.174,1.196 0,0.657 -0.52,1.176 -1.174,1.176 H 73.473 c -0.654,0 -1.174,-0.52 -1.174,-1.176 V 28.71 Z"
       style="fill:#aa0000;fill-opacity:1"
       inkscape:connector-curvature="0" />
    <path
       id="path23"
       d="m 39.112,28.71 v 6.925 c 0.087,2.162 2.067,3.888 4.485,3.888 H 62.424 V 35.881 H 47.098 c -0.804,0 -1.438,-0.656 -1.438,-1.46 v -0.91 H 61.29 V 30.172 H 47.098 c -0.804,0 -1.438,-0.656 -1.438,-1.459 h -0.607 z"
       style="fill:#aa0000;fill-opacity:1"
       inkscape:connector-curvature="0" />
    <path
       id="path25"
       d="m 28.818,28.71 v 10.814 h 6.547 V 28.71 Z"
       style="fill:#aa0000;fill-opacity:1"
       inkscape:connector-curvature="0" />
    <path
       id="path27"
       d="m 14.4,28.71 v 10.814 h 6.489 V 28.71 Z"
       style="fill:#aa0000;fill-opacity:1"
       inkscape:connector-curvature="0" />
    <path
       id="path29"
       d="M 0,28.71 V 39.524 H 6.472 V 28.71 Z"
       style="fill:#aa0000;fill-opacity:1"
       inkscape:connector-curvature="0" />
    <path
       id="path31"
       d="m 229.687,23.855 v 3.643 h 23.312 v -3.643 z"
       style="fill:#aa0000;fill-opacity:1"
       inkscape:connector-curvature="0" />
    <path
       id="path33"
       d="m 189.062,23.855 v 3.643 h 6.53 v -3.643 z"
       style="fill:#aa0000;fill-opacity:1"
       inkscape:connector-curvature="0" />
    <path
       id="path35"
       d="m 161.55,23.855 v 0.018 c -1.684,0.15 -3.009,1.71 -3.009,3.625 h 3.009 3.52 12.015 1.551 5.317 1.231 c 0,-1.998 -1.447,-3.621 -3.236,-3.643 z"
       style="fill:#aa0000;fill-opacity:1"
       inkscape:connector-curvature="0" />
    <path
       id="path37"
       d="m 126.997,23.855 v 3.643 h 24.012 3.235 c 0,-1.997 -1.448,-3.619 -3.235,-3.643 z"
       style="fill:#aa0000;fill-opacity:1"
       inkscape:connector-curvature="0" />
    <path
       id="path39"
       d="m 99.813,23.855 c -1.788,0.022 -3.235,1.645 -3.235,3.643 h 3.235 3.294 16.196 3.369 c 0,-2.012 -1.468,-3.643 -3.274,-3.643 -0.033,0 -0.062,-0.002 -0.094,0 z"
       style="fill:#aa0000;fill-opacity:1"
       inkscape:connector-curvature="0" />
    <path
       id="path41"
       d="m 69.008,23.855 c -1.798,0.012 -3.254,1.638 -3.254,3.643 h 3.254 3.294 21.002 V 23.855 H 69.027 Z"
       style="fill:#aa0000;fill-opacity:1"
       inkscape:connector-curvature="0" />
    <path
       id="path43"
       d="m 39.112,23.855 v 3.643 h 23.311 v -3.643 z"
       style="fill:#aa0000;fill-opacity:1"
       inkscape:connector-curvature="0" />
    <path
       id="path45"
       d="m 0,23.855 v 3.643 h 32.205 3.217 c 0,-1.99 -1.436,-3.609 -3.217,-3.643 z"
       style="fill:#aa0000;fill-opacity:1"
       inkscape:connector-curvature="0" />
    <path
       id="path47"
       d="m 219.905,23.513 -2.651,3.983 h 7.247 l 2.651,-3.983 z"
       style="fill:#aa0000;fill-opacity:1"
       inkscape:connector-curvature="0" />
  </g>
  <g
     transform="matrix(0.85433841,0,0,0.86721279,5.6122725,0)"
     id="g67"
     style="fill:#aa0000">
    <path
       d="m 109.385,12.379 c 0,0.988 0.805,1.771 1.771,1.761 h 7.233 v -2.203 h -6.793 V 11.32 h 5.353 V 9.128 h -7.553 z"
       id="path51"
       style="fill:#aa0000;fill-rule:evenodd"
       inkscape:connector-curvature="0" />
    <path
       d="m 109.396,5.118 c 0,-0.911 0.784,-1.756 1.76,-1.752 h 7.233 v 2.192 h -6.793 v 0.617 h 5.353 v 2.222 h -7.564 z"
       id="path53"
       style="fill:#aa0000;fill-rule:evenodd"
       inkscape:connector-curvature="0" />
    <path
       d="m 110.898,0.411 c -2.455,0 -4.446,1.991 -4.446,4.445 v 7.781 c 0,2.455 1.991,4.445 4.446,4.445 h 7.493 v -2.191 h -7.307 c -1.289,0 -2.432,-1.222 -2.432,-2.51 V 5.11 c 0,-1.289 1.143,-2.48 2.432,-2.48 h 7.307 V 0.408 h -7.493 z"
       id="path55"
       style="fill:#aa0000;fill-rule:evenodd"
       inkscape:connector-curvature="0" />
    <path
       d="M 125.084,11.997 V 5.558 h 7.145 V 3.366 h -7.546 c -0.976,-0.004 -1.76,0.841 -1.76,1.752 l -0.009,7.261 c 0,0.988 0.803,1.771 1.769,1.761 h 4.603 l -0.012,-5.051 h -3.463 v 2.172 h 1.28 v 0.735 h -2.007 z"
       id="path57"
       style="fill:#aa0000;fill-rule:evenodd"
       inkscape:connector-curvature="0" />
    <path
       d="m 104.333,0.39 h -7.178 c -3.024,0 -5.477,2.452 -5.477,5.476 0,3.025 2.453,5.418 5.477,5.392 h 2.187 v 0.739 h -7.616 v 2.144 h 7.368 c 1.385,0 2.509,-1.124 2.509,-2.507 0,-1.385 -1.124,-2.489 -2.509,-2.489 L 97.185,9.137 c -1.797,0 -3.254,-1.457 -3.254,-3.253 0,-1.797 1.456,-3.254 3.254,-3.254 h 7.153 z"
       id="path59"
       style="fill:#aa0000;fill-rule:evenodd"
       inkscape:connector-curvature="0" />
    <path
       d="m 104.333,5.499 h -7.461 v 0.735 l 2.238,0.004 c 3.026,0 5.477,2.393 5.477,5.417 0,3.025 -2.451,5.424 -5.477,5.424 l -7.384,-0.015 v -2.179 h 7.368 c 1.797,0 3.254,-1.456 3.254,-3.253 0,-1.796 -1.457,-3.234 -3.254,-3.234 L 97.185,8.391 c -1.385,0 -2.509,-1.124 -2.509,-2.509 0,-1.385 1.124,-2.508 2.509,-2.508 h 7.153 z"
       id="path61"
       style="fill:#aa0000;fill-rule:evenodd"
       inkscape:connector-curvature="0" />
    <path
       d="m 140.576,2.991 c -0.089,-0.209 -0.12,-0.259 -0.36,-0.259 -0.241,0 -0.299,0.125 -0.391,0.334 l -4.55,14.016 2.394,0.003 2.574,-7.77 0.847,2.624 h -1.699 v 2.211 h 4.835 z"
       id="path63"
       style="fill:#aa0000;fill-rule:evenodd"
       inkscape:connector-curvature="0" />
    <path
       d="m 124.425,17.084 c -2.455,0 -4.447,-1.991 -4.447,-4.445 V 4.858 c 0,-2.455 1.992,-4.445 4.447,-4.445 h 7.804 v 2.222 h -7.616 c -1.291,0 -2.434,1.191 -2.434,2.48 v 7.27 c 0,1.289 1.142,2.51 2.434,2.51 h 5.395 V 8.359 h -4.195 V 6.177 h 6.425 V 16.572 L 136.815,2.409 C 137.307,1.006 138.643,0 140.216,0 c 1.604,0 2.966,1.05 3.429,2.502 l 4.753,14.583 h -9.007 v -2.191 h 5.851 L 141.275,2.731 c -0.232,-0.669 -0.646,-0.748 -1.059,-0.748 -0.432,0 -0.831,0.177 -1.056,0.788 l -4.657,14.314 h -10.078 z"
       id="path65"
       style="fill:#aa0000;fill-rule:evenodd"
       inkscape:connector-curvature="0" />
  </g>
</svg>
