<?xml version="1.0" encoding="UTF-8" standalone="no"?>
<svg
   xmlns:bx="https://boxy-svg.com"
   xmlns:dc="http://purl.org/dc/elements/1.1/"
   xmlns:cc="http://creativecommons.org/ns#"
   xmlns:rdf="http://www.w3.org/1999/02/22-rdf-syntax-ns#"
   xmlns:svg="http://www.w3.org/2000/svg"
   xmlns="http://www.w3.org/2000/svg"
   xmlns:sodipodi="http://sodipodi.sourceforge.net/DTD/sodipodi-0.dtd"
   xmlns:inkscape="http://www.inkscape.org/namespaces/inkscape"
   version="1.1"
   id="svg2"
   sodipodi:docname="msx2.svg"
   inkscape:version="0.92.5 (2060ec1f9f, 2020-04-08)"
   width="121.29744"
   height="34">
  <metadata
     id="metadata12">
    <rdf:RDF>
      <cc:Work
         rdf:about="">
        <dc:format>image/svg+xml</dc:format>
        <dc:type
           rdf:resource="http://purl.org/dc/dcmitype/StillImage" />
        <dc:title></dc:title>
      </cc:Work>
    </rdf:RDF>
  </metadata>
  <defs
     id="defs10" />
  <sodipodi:namedview
     pagecolor="#ffffff"
     bordercolor="#666666"
     borderopacity="1"
     objecttolerance="10"
     gridtolerance="10"
     guidetolerance="10"
     inkscape:pageopacity="0"
     inkscape:pageshadow="2"
     inkscape:window-width="1440"
     inkscape:window-height="837"
     id="namedview8"
     showgrid="false"
     inkscape:zoom="1.3871078"
     inkscape:cx="-16.086686"
     inkscape:cy="24.176907"
     inkscape:window-x="0"
     inkscape:window-y="0"
     inkscape:window-maximized="1"
     inkscape:current-layer="svg2"
     fit-margin-top="0"
     fit-margin-left="0"
     fit-margin-right="0"
     fit-margin-bottom="0" />
  <g
     transform="scale(0.16700498,0.16535598)"
     id="g3"
     style="fill:#aa0000">
    <path
       id="path2830"
       d="M 0,204.888 52.05,0 h 48.267 L 125.397,89.433 151.422,0 h 45.426 l 42.585,150.945 103.905,-0.195 c 10.905,-0.108 11.577,-22.662 -0.807,-22.656 l -60.513,-0.807 C 256.035,127.536 228.633,99.426 229.968,61.986 230.247,27.645 260.19,0.603 298.5,0.612 L 452.838,0.474 492.114,53.943 530.442,0 594.321,0.474 524.292,98.898 600,205.617 536.454,205.419 492.39,144.186 450.471,205.419 385.647,205.362 459.465,99.843 427.287,52.998 293.121,53.193 c -14.64,0.135 -14.103,23.169 0.117,22.737 l 56.526,0.867 c 23.892,0.153 57.54,24.981 56.703,63.741 0.363,45.06 -40.221,65.646 -59.76,64.548 l -147.966,0.195 -24.606,-92.187 -24.606,91.992 h -46.71 L 77.13,113.565 54.555,205.224 Z"
       style="fill:#aa0000"
       bx:origin="0 0"
       inkscape:connector-curvature="0" />
  </g>
  <path
     d="m 112.179,10.83177 c 1.80384,0 3.36784,0.281189 4.69292,0.843568 1.32462,0.56192 2.34922,1.360921 3.07287,2.397463 0.72365,1.036082 1.08524,2.23757 1.08524,3.604463 0,1.279137 -0.32254,2.436057 -0.96854,3.472599 -0.64554,1.036542 -1.45832,1.951327 -2.43835,2.744814 -0.97957,0.793947 -2.32671,1.763867 -4.04141,2.91022 -0.95752,0.617514 -1.73676,1.146352 -2.33819,1.587893 h 10.0539 v 5.588872 H 102.2588 v -1.587435 c 0,-1.168866 0.27291,-2.210462 0.81829,-3.125246 0.54584,-0.914785 1.34163,-1.835084 2.38828,-2.761355 1.0687,-0.925812 2.60513,-2.182894 4.6093,-3.769869 1.60351,-1.257083 2.72781,-2.215976 3.37335,-2.877598 0.64601,-0.661623 0.96901,-1.311759 0.96901,-1.951327 0,-0.683217 -0.23938,-1.256163 -0.71814,-1.719299 -0.47876,-0.463136 -1.19689,-0.694704 -2.15441,-0.694704 -1.00208,0 -1.79281,0.286703 -2.37173,0.85965 -0.57892,0.573866 -0.86838,1.322785 -0.86838,2.249057 v 0.661622 h -5.94541 c -0.0221,-0.176433 -0.0331,-0.419027 -0.0331,-0.727785 0,-2.381381 0.84035,-4.260572 2.52151,-5.638493 1.68117,-1.37792 4.12503,-2.06711 7.33161,-2.06711 z"
     style="white-space:pre;fill:#aa0000;stroke-width:0.45945999"
     id="path5"
     inkscape:connector-curvature="0" />
</svg>
