<?xml version="1.0" encoding="UTF-8" standalone="no"?>
<svg
   xmlns:dc="http://purl.org/dc/elements/1.1/"
   xmlns:cc="http://creativecommons.org/ns#"
   xmlns:rdf="http://www.w3.org/1999/02/22-rdf-syntax-ns#"
   xmlns:svg="http://www.w3.org/2000/svg"
   xmlns="http://www.w3.org/2000/svg"
   xmlns:sodipodi="http://sodipodi.sourceforge.net/DTD/sodipodi-0.dtd"
   xmlns:inkscape="http://www.inkscape.org/namespaces/inkscape"
   version="1.0"
   id="svg28"
   sodipodi:docname="neogeocd.svg"
   inkscape:version="0.92.5 (2060ec1f9f, 2020-04-08)"
   width="65.043472"
   height="34.000008">
  <metadata
     id="metadata34">
    <rdf:RDF>
      <cc:Work
         rdf:about="">
        <dc:format>image/svg+xml</dc:format>
        <dc:type
           rdf:resource="http://purl.org/dc/dcmitype/StillImage" />
        <dc:title></dc:title>
      </cc:Work>
    </rdf:RDF>
  </metadata>
  <defs
     id="defs32" />
  <sodipodi:namedview
     pagecolor="#ffffff"
     bordercolor="#666666"
     borderopacity="1"
     objecttolerance="10"
     gridtolerance="10"
     guidetolerance="10"
     inkscape:pageopacity="0"
     inkscape:pageshadow="2"
     inkscape:window-width="1440"
     inkscape:window-height="837"
     id="namedview30"
     showgrid="false"
     inkscape:zoom="1.9616667"
     inkscape:cx="78.210008"
     inkscape:cy="51.233567"
     inkscape:window-x="0"
     inkscape:window-y="0"
     inkscape:window-maximized="1"
     inkscape:current-layer="svg28"
     fit-margin-top="0"
     fit-margin-left="0"
     fit-margin-right="0"
     fit-margin-bottom="0" />
  <path
     d="M 0,33.8337 C 0,33.7413 0.13895651,33.63783 0.31265214,33.59151 0.9382028,33.44196 0.92686947,33.47645 0.92686947,30.53791 V 27.78367 L 0.62555066,27.55306 C 0.45160865,27.41484 0.24317389,27.31112 0.16211593,27.31112 0.06947825,27.31112 0,27.26504 0,27.19606 0,27.12686 0.50975357,27.08075 1.3089999,27.09233 H 2.60642 l 1.5637535,1.94761 1.5637535,1.9587 0.034985,-1.52089 C 5.803405,27.78367 5.699187,27.47249 5.0967961,27.34586 4.3786078,27.20764 4.7957237,27.08075 5.965767,27.08075 c 1.1700434,0 1.5869129,0.13822 0.9266231,0.2996 -0.6139709,0.15004 -0.6371304,0.31093 -0.6371304,3.58404 0,2.47757 -0.023159,3.03068 -0.1621159,3.03068 -0.081058,0 -1.0539999,-1.0949 -2.1661447,-2.44307 -1.1121448,-1.34842 -2.1084925,-2.54655 -2.2124635,-2.68526 -0.1971015,-0.21878 -0.1971015,-0.11506 -0.2086812,2.04 0,2.48914 0.023159,2.56971 0.7066086,2.70793 0.1852754,0.0345 0.336058,0.13846 0.336058,0.21903 0,0.12688 -0.2665797,0.16137 -1.2742608,0.16137 C 0.26657968,33.99507 0,33.96058 0,33.8337 Z"
     style="fill:#aa0000;stroke-width:0.24637678"
     id="path2"
     inkscape:connector-curvature="0" />
  <path
     d="m 7.4137239,33.82212 c 0,-0.10348 0.1042174,-0.17296 0.2663333,-0.17296 0.1505362,0 0.3707971,-0.069 0.4981739,-0.16113 0.2084347,-0.16138 0.2200144,-0.32275 0.2200144,-3.00777 0,-2.68501 -0.01158,-2.84639 -0.2200144,-3.00777 -0.1273768,-0.0921 -0.3476377,-0.16137 -0.4981739,-0.16137 -0.1505362,0 -0.2663333,-0.0461 -0.2663333,-0.11506 0,-0.0692 1.0655796,-0.11531 2.9538111,-0.11531 h 2.953811 v 1.037 c 0,0.81822 -0.03449,1.03725 -0.162115,1.03725 -0.09264,0 -0.196855,-0.14955 -0.243174,-0.34567 -0.185522,-0.82979 -0.892131,-1.2676 -2.027189,-1.2676 H 10.19384 v 1.2676 1.26761 h 0.289492 c 0.417116,0 0.845812,-0.4723 0.938449,-1.02542 0.04632,-0.28826 0.138957,-0.47255 0.231595,-0.47255 0.127376,0 0.162116,0.357 0.162116,1.84364 0,1.48664 -0.03474,1.84388 -0.162116,1.84388 -0.09264,0 -0.185276,-0.18453 -0.231595,-0.47279 -0.08106,-0.54129 -0.602391,-1.14048 -0.984768,-1.14048 -0.231594,0 -0.243173,0.0574 -0.243173,1.24445 0,0.81821 0.04632,1.29077 0.138956,1.38291 0.185275,0.18429 1.401638,0.17271 1.865072,-0.0232 0.440276,-0.17296 1.088986,-0.87587 1.192957,-1.27894 0.06948,-0.28802 0.393956,-0.41515 0.393956,-0.1498 0,0.13822 -0.208435,1.47481 -0.301072,1.91262 l -0.04632,0.25377 h -3.011956 c -2.5948406,0 -3.0117101,-0.0232 -3.0117101,-0.17295 z"
     style="fill:#aa0000;stroke-width:0.24637678"
     id="path4"
     inkscape:connector-curvature="0" />
  <path
     d="m 16.877795,33.8337 c -1.807173,-0.66842 -2.687478,-2.59287 -2.096666,-4.56339 0.243174,-0.81822 1.239522,-1.83231 2.061927,-2.10874 0.729768,-0.25377 2.166145,-0.25377 2.884333,-0.0116 0.706609,0.24194 1.529015,0.96776 1.911391,1.70542 0.40529,0.78347 0.440029,2.25878 0.05765,3.077 -0.312653,0.69133 -0.996102,1.44032 -1.586913,1.75124 -0.602145,0.31142 -2.548275,0.40357 -3.231725,0.15005 z M 19.0671,33.31507 c 0.196855,-0.11505 0.474768,-0.46097 0.63713,-0.7719 0.243174,-0.50729 0.277913,-0.71449 0.277913,-2.06291 0,-1.34817 -0.02316,-1.55587 -0.277913,-2.05109 -0.66029,-1.33684 -2.142985,-1.33684 -2.814855,0.0113 -0.23184,0.48388 -0.26658,0.70316 -0.26658,2.03975 0,1.34842 0.02316,1.55562 0.27816,2.05133 0.463188,0.93328 1.366898,1.26761 2.166145,0.78348 z"
     style="fill:#aa0000;stroke-width:0.24637678"
     id="path6"
     inkscape:connector-curvature="0" />
  <path
     d="M 27.674026,33.84528 C 25.577113,33.07313 24.67365,30.872 25.646838,28.9478 c 0.370551,-0.72632 1.308753,-1.56745 2.003782,-1.79781 0.776087,-0.2651 2.259029,-0.24219 3.116174,0.0461 l 0.683449,0.24194 0.196855,-0.24194 c 0.359218,-0.44964 0.440276,-0.27668 0.440276,0.97935 0,1.36 -0.150537,1.56745 -0.521334,0.74898 -0.440029,-0.96777 -1.471115,-1.57853 -2.455637,-1.46348 -1.309,0.13847 -2.004029,1.46348 -1.853493,3.54931 0.127377,1.92445 1.07716,2.7774 2.733797,2.45465 l 0.358971,-0.069 v -0.89878 c 0,-0.95668 -0.162116,-1.26785 -0.671869,-1.26785 -0.138957,0 -0.254754,-0.0461 -0.254754,-0.11506 0,-0.0692 0.66029,-0.11555 1.737449,-0.11555 0.961609,0 1.737696,0.035 1.737696,0.0924 0,0.0461 -0.173696,0.16138 -0.382131,0.25352 l -0.370797,0.17271 -0.03474,0.99118 -0.03474,0.99092 -0.602391,0.2077 c -0.787667,0.27643 -3.197232,0.357 -3.799377,0.13822 z"
     style="fill:#aa0000;stroke-width:0.24637678"
     id="path8"
     inkscape:connector-curvature="0" />
  <path
     d="m 33.013997,33.82212 c 0,-0.10348 0.104217,-0.17296 0.266579,-0.17296 0.150537,0 0.370551,-0.069 0.497928,-0.16113 0.208435,-0.16138 0.220261,-0.32275 0.220261,-3.00777 0,-2.68501 -0.01183,-2.84639 -0.220261,-3.00777 -0.127377,-0.0921 -0.347391,-0.16137 -0.497928,-0.16137 -0.150782,0 -0.266579,-0.0461 -0.266579,-0.11506 0,-0.0692 1.065826,-0.11531 2.954057,-0.11531 h 2.953812 v 1.037 c 0,0.81822 -0.03474,1.03725 -0.162363,1.03725 -0.09264,0 -0.196855,-0.14955 -0.243174,-0.34567 -0.185275,-0.82979 -0.891884,-1.2676 -2.027188,-1.2676 h -0.695029 v 1.2676 1.26761 h 0.289739 c 0.41687,0 0.845566,-0.4723 0.938203,-1.02542 0.04632,-0.28826 0.138957,-0.47255 0.231594,-0.47255 0.127377,0 0.162363,0.357 0.162363,1.84364 0,1.48664 -0.03499,1.84388 -0.162363,1.84388 -0.09264,0 -0.185275,-0.18453 -0.231594,-0.47279 -0.08106,-0.54129 -0.602391,-1.14048 -0.984521,-1.14048 -0.231841,0 -0.243421,0.0574 -0.243421,1.24445 0,0.81821 0.04632,1.29077 0.138957,1.38291 0.185522,0.18429 1.401884,0.17271 1.865072,-0.0232 0.440275,-0.17296 1.088986,-0.87587 1.193203,-1.27894 0.06948,-0.28802 0.393956,-0.41515 0.393956,-0.1498 0,0.13822 -0.208681,1.47481 -0.301318,1.91262 l -0.04632,0.25377 h -3.01171 c -2.59484,0 -3.011956,-0.0232 -3.011956,-0.17295 z"
     style="fill:#aa0000;stroke-width:0.24637678"
     id="path10"
     inkscape:connector-curvature="0" />
  <path
     d="m 42.478068,33.8337 c -1.806927,-0.66842 -2.687478,-2.59287 -2.096666,-4.56339 0.243174,-0.81822 1.239521,-1.83231 2.061927,-2.10874 0.729768,-0.25377 2.166145,-0.25377 2.884333,-0.0116 0.706609,0.24194 1.529014,0.96776 1.911391,1.70542 0.40529,0.78347 0.440276,2.25878 0.0579,3.077 -0.312652,0.69133 -0.996102,1.44032 -1.586913,1.75124 -0.602391,0.31142 -2.548522,0.40357 -3.231971,0.15005 z m 2.189304,-0.51863 c 0.197102,-0.11505 0.475015,-0.46097 0.637131,-0.7719 0.243174,-0.50729 0.278159,-0.71449 0.278159,-2.06291 0,-1.34817 -0.02341,-1.55587 -0.278159,-2.05109 -0.66029,-1.33684 -2.142986,-1.33684 -2.814855,0.0113 -0.231594,0.48388 -0.26658,0.70316 -0.26658,2.03975 0,1.34842 0.02341,1.55562 0.27816,2.05133 0.463434,0.93328 1.366898,1.26761 2.166144,0.78348 z"
     style="fill:#aa0000;stroke-width:0.24637678"
     id="path12"
     inkscape:connector-curvature="0" />
  <path
     d="m 52.99614,33.76471 c -0.822406,-0.32275 -1.378479,-0.81846 -1.760609,-1.59061 -0.278159,-0.55287 -0.324478,-0.79506 -0.324478,-1.57853 0,-1.50955 0.683449,-2.60445 2.050594,-3.28445 0.602145,-0.29935 0.833739,-0.34542 1.598492,-0.34542 0.590566,0 1.111899,0.0806 1.575334,0.23036 l 0.683449,0.24194 0.196855,-0.24194 c 0.359217,-0.44964 0.440275,-0.27668 0.440275,0.97935 0,0.96826 -0.03474,1.20995 -0.162116,1.20995 -0.09264,0 -0.197101,-0.14955 -0.24342,-0.32275 -0.09264,-0.42623 -0.67187,-1.12915 -1.135058,-1.35951 -0.451855,-0.24219 -1.332159,-0.24219 -1.772434,-0.0118 -0.799247,0.41514 -1.227942,1.19887 -1.297421,2.40858 -0.09264,1.54429 0.359218,2.74266 1.170044,3.12307 0.857145,0.4149 2.096666,0.1498 2.791695,-0.59919 0.428696,-0.44964 0.532913,-0.44964 0.532913,-0.0232 0,0.39199 -0.463435,0.84138 -1.216362,1.17546 -0.64871,0.2996 -2.328507,0.28802 -3.127753,-0.0113 z"
     style="fill:#aa0000;stroke-width:0.24637678"
     id="path14"
     inkscape:connector-curvature="0" />
  <path
     d="m 58.151081,33.84528 c 0,-0.12664 0.09264,-0.19612 0.266333,-0.19612 0.150537,0 0.359218,-0.0921 0.463435,-0.2072 0.173696,-0.18454 0.196855,-0.56494 0.196855,-2.99619 0,-2.74267 0,-2.77716 -0.254753,-2.95036 -0.138957,-0.10348 -0.347638,-0.18429 -0.463435,-0.18429 -0.115797,0 -0.208435,-0.0461 -0.208435,-0.11506 0,-0.1498 4.089116,-0.1498 4.656768,0 0.729768,0.2072 1.494275,0.80664 1.876405,1.49797 0.336058,0.58786 0.359218,0.71449 0.359218,1.78623 0,1.037 -0.03474,1.2102 -0.312652,1.75149 -0.370797,0.69158 -0.880551,1.10648 -1.737696,1.44057 -0.498174,0.18454 -0.996101,0.24219 -2.722217,0.28826 -1.922971,0.069 -2.119826,0.0574 -2.119826,-0.1153 z m 4.29755,-0.84138 c 0.185522,-0.18429 0.417116,-0.57603 0.509754,-0.89878 0.208435,-0.66842 0.231594,-2.35068 0.04632,-3.00752 -0.255,-0.93353 -0.996102,-1.55587 -1.841913,-1.55587 H 60.8154 v 2.80031 c 0,2.08583 0.03474,2.83482 0.150536,2.95012 0.243174,0.25328 1.088985,0.0806 1.482695,-0.28826 z"
     style="fill:#aa0000;stroke-width:0.24637678"
     id="path16"
     inkscape:connector-curvature="0" />
  <path
     d="m 22.993853,31.11419 c -0.127377,-0.13822 -0.220015,-0.4149 -0.220015,-0.63393 0,-0.54153 0.324479,-0.86404 0.868725,-0.86404 0.544493,0 0.91529,0.34542 0.91529,0.86404 0,0.20745 -0.104218,0.47231 -0.231595,0.61077 -0.324478,0.33409 -1.042666,0.34567 -1.332405,0.0232 z"
     style="fill:#aa0000;stroke-width:0.24637678"
     id="path18"
     inkscape:connector-curvature="0" />
  <path
     d="m 16.310143,21.86052 -3.91542,-3.82574 V 12.31884 6.61473 L 15.742491,3.30737 C 17.584404,1.48664 19.159737,0 19.240795,0 c 0.09264,0 1.853493,1.68226 3.927,3.74518 l 3.764637,3.73384 2.838261,-2.8119 2.837767,-2.82323 h 5.097043 l 5.096797,0.0116 3.382507,3.24946 3.382753,3.24971 v 5.02461 l 0.01133,5.01253 -1.297421,1.26786 c -2.675652,2.56946 -5.397869,5.11626 -5.513666,5.11626 -0.05814,0 -1.251101,-1.16364 -2.652739,-2.59262 l -2.548521,-2.58129 -2.976971,3.04201 -2.988797,3.05409 h -5.687608 l -5.699188,-0.0116 z m 17.537839,-0.10372 2.86142,-2.91538 -2.351666,-2.35093 -2.363,-2.35092 -3.046695,-0.069 -3.058029,-0.0692 -0.03474,-2.75425 c -0.01158,-1.65934 0.01158,-2.80031 0.08106,-2.88088 0.08106,-0.10372 -0.857145,-1.10623 -3.26671,-3.50323 L 19.287115,1.49799 16.356463,4.35597 13.425811,7.20211 v 5.11675 l 0.01158,5.10493 3.672,3.61854 3.683825,3.60695 5.096797,0.0116 5.096796,0.0113 z m 9.197738,-3.08809 1.054,-0.13871 0.208681,-1.0944 c 0.104218,-0.59944 0.254754,-1.10648 0.335812,-1.12939 0.06948,-0.0232 0.417116,-0.0692 0.787666,-0.11531 l 0.648711,-0.0695 0.127376,-0.72582 c 0.116044,-0.67976 0.104464,-0.84113 -0.277913,-2.32777 -0.220014,-0.8872 -0.405289,-1.62461 -0.405289,-1.63619 0,-0.0921 -2.699058,0.48413 -2.873,0.61077 -0.01158,0.0116 0.0579,0.38016 0.162116,0.82955 0.173942,0.71449 0.173942,0.87587 0.03499,1.47506 l -0.162362,0.66842 -1.100319,0.49546 c -0.602391,0.27668 -1.146884,0.51862 -1.216362,0.54154 -0.06948,0.0232 -0.02316,0.39198 0.104217,0.95668 0.208682,0.80664 0.28974,0.96777 0.752928,1.40582 0.289739,0.26511 0.579232,0.46098 0.64871,0.43782 0.06948,-0.0229 0.590811,-0.10348 1.170043,-0.18405 z m -6.544999,-7.52533 c 0.04657,-0.0576 0.116043,-0.42623 0.150536,-0.81822 0.04657,-0.3804 0.116044,-0.81797 0.139203,-0.95619 C 36.84836,9.16128 36.73231,9.05755 36.107011,8.71189 35.388823,8.30857 35.353837,8.29699 34.728533,8.42387 l -0.637131,0.12689 -0.150536,0.97934 -0.138956,0.96802 0.613724,0.55311 0.613971,0.55312 0.695029,-0.17271 c 0.393957,-0.10372 0.741348,-0.23036 0.776087,-0.28826 z M 39.77901,7.191 40.103489,6.77586 39.894808,6.31489 C 39.77901,6.06161 39.582155,5.81967 39.454779,5.76177 38.73659,5.49692 38.747924,5.49692 38.49317,6.10768 38.11104,6.99489 38.40053,7.57116 39.211358,7.59408 39.338735,7.60568 39.582155,7.43295 39.77901,7.191 Z"
     style="fill:#aa0000;stroke-width:0.24637678"
     id="path20"
     inkscape:connector-curvature="0" />
  <path
     d="m 22.854896,21.54935 c -0.66029,-0.13822 -0.938203,-0.28801 -1.505855,-0.84138 -0.579231,-0.55311 -0.695029,-0.92169 -0.173695,-0.58736 1.158463,0.74874 3.567782,0.4723 4.899941,-0.57627 0.613971,-0.48414 0.67187,-0.5647 1.065826,-1.70567 0.231594,-0.64526 0.474768,-1.39425 0.532913,-1.64777 0.127377,-0.48413 0.41687,-0.97959 0.578986,-0.97959 0.173695,0 0.255,1.6825 0.127623,2.47756 -0.162362,1.037 -0.521333,1.84389 -1.193203,2.70818 -0.741348,0.93327 -1.239522,1.16388 -2.733797,1.22153 -0.613971,0.0232 -1.332159,-0.0116 -1.598739,-0.0692 z"
     style="fill:#aa0000;stroke-width:0.24637678"
     id="path22"
     inkscape:connector-curvature="0" />
  <path
     d="m 17.120969,13.78232 c -0.405536,-0.34567 -0.602391,-0.87562 -0.336058,-0.87562 0.05814,0 0.139203,-0.0922 0.173942,-0.20745 0.09264,-0.27668 0.68345,-0.48413 1.181377,-0.40332 0.312899,0.0574 0.475015,0.17271 0.695275,0.50704 0.150537,0.24195 0.277913,0.47255 0.277913,0.5068 0,0.0234 -0.196855,0.23061 -0.428695,0.46097 -0.579232,0.51862 -0.984522,0.5302 -1.563754,0.0116 z"
     style="fill:#aa0000;stroke-width:0.24637678"
     id="path24"
     inkscape:connector-curvature="0" />
  <path
     d="m 21.487998,11.17787 c -0.162116,-0.25327 -0.382131,-0.63343 -0.474768,-0.84113 -0.185522,-0.38016 -0.173942,-0.39198 0.266333,-1.037 0.254754,-0.3804 0.498174,-0.62235 0.590812,-0.59919 0.09264,0.0345 0.382376,0.0574 0.660289,0.0574 0.498174,0 0.509754,0.0116 1.030841,0.7953 l 0.544493,0.79506 -0.440029,0.64526 -0.440276,0.64526 h -0.718188 c -0.718188,0 -0.729768,0 -1.019507,-0.46097 z"
     style="fill:#aa0000;stroke-width:0.24637678"
     id="path26"
     inkscape:connector-curvature="0" />
</svg>
