<?xml version="1.0" encoding="UTF-8" standalone="no"?>
<svg
   xmlns:dc="http://purl.org/dc/elements/1.1/"
   xmlns:cc="http://creativecommons.org/ns#"
   xmlns:rdf="http://www.w3.org/1999/02/22-rdf-syntax-ns#"
   xmlns:svg="http://www.w3.org/2000/svg"
   xmlns="http://www.w3.org/2000/svg"
   xmlns:sodipodi="http://sodipodi.sourceforge.net/DTD/sodipodi-0.dtd"
   xmlns:inkscape="http://www.inkscape.org/namespaces/inkscape"
   version="1.1"
   id="svg9"
   sodipodi:docname="neogeo.svg"
   inkscape:version="0.92.5 (2060ec1f9f, 2020-04-08)"
   width="199.46667"
   height="34">
  <metadata
     id="metadata15">
    <rdf:RDF>
      <cc:Work
         rdf:about="">
        <dc:format>image/svg+xml</dc:format>
        <dc:type
           rdf:resource="http://purl.org/dc/dcmitype/StillImage" />
        <dc:title></dc:title>
      </cc:Work>
    </rdf:RDF>
  </metadata>
  <defs
     id="defs13" />
  <sodipodi:namedview
     pagecolor="#ffffff"
     bordercolor="#666666"
     borderopacity="1"
     objecttolerance="10"
     gridtolerance="10"
     guidetolerance="10"
     inkscape:pageopacity="0"
     inkscape:pageshadow="2"
     inkscape:window-width="1440"
     inkscape:window-height="837"
     id="namedview11"
     showgrid="false"
     inkscape:zoom="0.98083333"
     inkscape:cx="163.58682"
     inkscape:cy="6.7018669"
     inkscape:window-x="0"
     inkscape:window-y="0"
     inkscape:window-maximized="1"
     inkscape:current-layer="svg9"
     fit-margin-top="0"
     fit-margin-left="0"
     fit-margin-right="0"
     fit-margin-bottom="0"
     showguides="false" />
  <path
     d="m 11.053022,31.241467 h -0.735911 c -1.055511,0 -1.9916443,-0.322623 -2.8114221,-0.969378 -0.8175111,-0.646756 -1.2277778,-1.8904 -1.2277778,-3.736978 V 7.117333 L 27.3564,33.339644 l 1.3668,0.0023 V 6.596756 c 0,-1.520934 0.126933,-1.961423 0.378533,-2.587778 C 29.352578,3.384133 29.703911,2.932311 30.152711,2.655022 30.602267,2.376978 31.484756,2.152578 32.795644,1.9788 V 0.616533 H 22.339511 V 1.9788 c 1.724178,-0.03249 2.954222,0.410267 3.684845,1.329778 0.532666,0.680755 0.800133,1.355466 0.800133,3.289689 V 20.603244 L 10.416089,0.616533 H 0.43217778 V 1.696222 C 1.3804,1.727956 1.4151556,2.044533 1.9206222,2.313511 l 2.6731556,2.685245 -0.00151,21.534088 c 0,1.705289 -0.3377334,2.909645 -1.0109334,3.619112 C 2.9081333,30.859911 1.7128444,31.223333 0,31.238444 v 1.301823 h 11.047733 v -1.301823 z"
     id="path19"
     style="fill:#aa0000;stroke-width:0.75555557"
     inkscape:connector-curvature="0" />
  <path
     d="M 63.332933,22.551067 H 61.812 c -0.792578,2.845422 -2.099689,4.963244 -3.916044,6.349689 -1.8156,1.385688 -4.231867,2.080044 -7.242756,2.080044 h -1.718133 c -0.921023,0 -1.585911,-0.126933 -1.9992,-0.377022 -0.411023,-0.253111 -0.6936,-0.577245 -0.844711,-0.9724 -0.1496,-0.3944 -0.225156,-1.474089 -0.225156,-3.239822 v -9.040223 c 1.546622,0 3.360711,0.201734 4.174444,0.604445 0.812978,0.401955 1.526978,1.19 2.141245,2.358089 0.615022,1.1696 1.016978,2.4616 1.208889,4.294577 h 1.307111 V 7.970356 h -1.307111 c -0.255378,2.498622 -0.846978,4.177466 -1.771022,5.458133 -0.9248,1.282178 -2.417778,1.921378 -4.473645,1.921378 H 45.863733 V 4.191067 C 45.853153,2.2508 47.588667,2.474444 47.588667,2.474444 h 2.021111 c 2.450266,0 4.118533,0.1428 5.008578,0.427645 1.526222,0.473733 2.7064,1.2172 3.542044,2.225867 0.834133,1.011688 1.480889,2.677688 1.942533,4.998 h 1.0948 V 0.614267 H 33.9592 v 1.310889 h 0.858311 c 1.0472,0 1.872267,0.220622 2.474445,0.660355 0.4284,0.300711 0.722311,0.728356 0.878711,1.279156 0.08009,0.332444 0.120889,1.222489 0.120889,2.673911 v 20.106844 c 0,1.608578 -0.08765,2.602134 -0.262178,2.979911 -0.222134,0.536445 -0.540222,0.915734 -0.950489,1.136356 -0.571956,0.331689 -1.324489,0.497155 -2.261378,0.497155 H 33.9592 v 1.512623 h 27.700178 l 1.665244,-10.224178 z"
     id="path17"
     style="fill:#aa0000;stroke-width:0.75555557"
     inkscape:connector-curvature="0" />
  <path
     d="m 79.692222,33.814133 c 5.645511,0 10.017911,-2.073244 13.114934,-6.219733 2.335422,-3.124978 3.505022,-6.741067 3.505022,-10.857333 0,-4.813645 -1.567778,-8.822623 -4.6988,-12.0292 -3.133289,-3.204311 -7.205734,-4.710134 -12.220356,-4.518223 -4.642133,-0.1904 -8.5544,1.319956 -11.73,4.532578 C 64.479867,7.933333 62.8932,11.948356 62.8932,16.762 c 0,4.287778 1.220978,7.995289 3.667467,11.120267 3.092489,3.952311 7.471689,5.931866 13.136844,5.931866 M 73.050889,6.278667 c 1.499778,-3.026756 3.688622,-4.539378 6.567289,-4.539378 1.564,0 2.9444,0.438222 4.143466,1.315422 1.199067,0.875689 2.185823,2.377733 2.959512,4.503867 0.772933,2.129155 1.160533,5.333466 1.160533,9.620489 0,3.600222 -0.378533,6.5212 -1.137867,8.760666 -0.757066,2.237956 -1.816355,3.868445 -3.178622,4.8892 -1.068356,0.796356 -2.398889,1.194534 -3.994622,1.194534 -2.367911,0 -4.207689,-0.923289 -5.526134,-2.771378 -1.887377,-2.6452 -2.831822,-6.731245 -2.831822,-12.261156 0,-4.655733 0.611245,-8.224222 1.832978,-10.709244"
     id="path15"
     style="fill:#aa0000;stroke-width:0.75555557"
     inkscape:connector-curvature="0" />
  <path
     d="m 105.30707,17 c 0,2.137467 -1.73627,3.868444 -3.876,3.868444 -2.142003,0 -3.877514,-1.731733 -3.877514,-3.868444 0,-2.137467 1.736266,-3.867689 3.877514,-3.867689 2.14124,0 3.876,1.732489 3.876,3.867689 z"
     id="path21"
     style="fill:#aa0000;stroke-width:0.75555557"
     inkscape:connector-curvature="0" />
  <path
     d="m 124.48382,20.439289 h 0.78956 c 0.73893,0 1.9992,0.151867 2.51826,0.4556 0.51983,0.300711 0.86209,0.640711 1.02756,1.014711 0.16547,0.374 0.24933,1.199822 0.24933,2.4752 v 5.010089 c 0,1.510355 -1.60102,2.281778 -2.37093,2.448755 -0.7752,0.165467 -1.52698,0.250089 -2.25911,0.250089 -2.1148,0 -3.93796,-0.548533 -5.47551,-1.646355 -1.53756,-1.098578 -2.64974,-2.817467 -3.34107,-5.158178 -0.68831,-2.3392 -1.03209,-5.056933 -1.03209,-8.164533 0,-2.560578 0.31431,-5.0592 0.9452,-7.492845 0.63014,-2.435911 1.70378,-4.3316 3.21942,-5.693111 1.51792,-1.36 3.41663,-2.041511 5.6984,-2.041511 2.38832,0 3.78534,0.603689 5.542,2.426089 1.79747,1.863955 3.5224,3.979511 4.5288,7.088622 h 1.47032 V 0 h -0.83792 c -0.29995,0.914222 -0.63013,1.535289 -0.98977,1.8632 -0.36191,0.329422 -0.75178,0.492622 -1.17187,0.492622 -0.26973,0 -1.14693,-0.298444 -2.62556,-0.8908 C 128.89173,0.868889 127.82111,0.508489 127.16076,0.381556 125.94582,0.127689 124.99987,0 123.48573,0 c -4.89675,0 -8.95862,1.678089 -12.18862,5.036533 -3.22849,3.3592 -4.84235,7.471689 -4.84235,12.339734 0,2.720755 0.52511,5.179333 1.57608,7.374977 0.82583,1.703023 1.96974,3.232267 3.434,4.593778 1.46427,1.36 3.15672,2.458578 5.06827,3.294978 1.91609,0.834133 4.32178,1.251956 7.21933,1.251956 2.26969,0 4.45476,-0.232712 6.56654,-0.7004 2.11026,-0.469956 4.13893,-1.163556 6.09658,-2.083067 V 24.378 c 0,-1.180178 0.0665,-1.921378 0.20173,-2.222844 0.23951,-0.574223 0.57951,-0.984489 1.02227,-1.233067 0.44124,-0.248578 1.64937,-0.410267 2.77364,-0.491111 v -1.1016 h -15.93467 v 1.1016 z"
     id="path9"
     style="fill:#aa0000;stroke-width:0.75555557"
     inkscape:connector-curvature="0" />
  <path
     d="m 161.11013,29.157644 c -1.81635,1.386445 -4.23262,2.080045 -7.24653,2.080045 h -1.71813 c -0.92178,0 -1.58667,-0.124667 -1.9992,-0.377778 -0.41027,-0.253111 -0.69511,-0.575733 -0.84471,-0.970889 -0.15036,-0.393644 -0.22592,-1.474089 -0.22592,-3.239822 v -9.040222 c 1.54889,0 3.36072,0.200978 4.1752,0.604444 0.81223,0.402711 1.52623,1.189245 2.13898,2.358845 0.61578,1.168844 1.01925,2.460089 1.2104,4.293066 h 1.3056 V 8.227244 h -1.3056 c -0.25689,2.501645 -0.84546,4.178223 -1.77178,5.458889 -0.92404,1.281423 -2.41702,1.922134 -4.4744,1.922134 h -1.28066 V 4.447956 C 149.06438,2.507689 150.7968,2.7336 150.7968,2.7336 h 2.02413 c 2.44725,0 4.11476,0.142044 5.0048,0.426133 1.52547,0.473734 2.7064,1.216445 3.54054,2.227378 0.83564,1.010178 1.48164,2.675422 1.94329,4.998 h 1.0948 V 0.881733 h -27.23854 v 1.301823 h 0.85907 c 1.04569,0 1.87227,0.220622 2.47218,0.661111 0.42991,0.300711 0.72457,0.7276 0.88249,1.279911 0.0793,0.329422 0.11937,1.221733 0.11937,2.673155 v 20.105334 c 0,1.609333 -0.0876,2.603644 -0.26217,2.982933 -0.22214,0.536444 -0.54098,0.915733 -0.95125,1.136356 -0.57271,0.331688 -1.326,0.497155 -2.25987,0.497155 h -0.85982 v 1.512622 h 27.69942 l 1.66525,-10.223422 h -1.52093 c -0.79258,2.844667 -2.09743,4.962489 -3.91303,6.348933"
     id="path11"
     style="fill:#aa0000;stroke-width:0.75555557"
     inkscape:connector-curvature="0" />
  <path
     d="m 182.54298,0.377778 c -4.64289,-0.192667 -8.5544,1.318444 -11.73076,4.531822 -3.18315,3.210356 -4.77058,7.226889 -4.77058,12.039778 0,4.288533 1.22249,7.993778 3.66823,11.119511 3.094,3.951555 7.47244,5.931111 13.13684,5.931111 5.64551,0 10.02018,-2.070978 13.11493,-6.218222 2.33618,-3.120445 3.50503,-6.743334 3.50503,-10.856578 0,-4.813644 -1.56778,-8.824133 -4.6988,-12.0292 -3.13329,-3.206578 -7.20574,-4.713156 -12.2196,-4.518222 m 7.4052,25.7312 c -0.75934,2.238711 -1.81787,3.868444 -3.18089,4.885422 -1.06685,0.798622 -2.39814,1.1968 -3.99387,1.1968 -2.36715,0 -4.20618,-0.925556 -5.52462,-2.772133 -1.88738,-2.6452 -2.83258,-6.732 -2.83258,-12.261911 0,-4.654978 0.61049,-8.223467 1.83298,-10.708489 1.50129,-3.026 3.69013,-4.540889 6.56729,-4.540889 1.56324,0 2.9444,0.439733 4.14422,1.315422 1.19831,0.876444 2.18582,2.378489 2.95876,4.506133 0.77444,2.1284 1.16128,5.332711 1.16128,9.622 0,3.600223 -0.37928,6.5212 -1.13786,8.761423"
     id="path13"
     style="fill:#aa0000;stroke-width:0.75555557"
     inkscape:connector-curvature="0" />
</svg>
