<?xml version="1.0" encoding="UTF-8" standalone="no"?>
<svg
   xmlns:dc="http://purl.org/dc/elements/1.1/"
   xmlns:cc="http://creativecommons.org/ns#"
   xmlns:rdf="http://www.w3.org/1999/02/22-rdf-syntax-ns#"
   xmlns:svg="http://www.w3.org/2000/svg"
   xmlns="http://www.w3.org/2000/svg"
   xmlns:sodipodi="http://sodipodi.sourceforge.net/DTD/sodipodi-0.dtd"
   xmlns:inkscape="http://www.inkscape.org/namespaces/inkscape"
   version="1.1"
   id="Ebene_1"
   x="0px"
   y="0px"
   enable-background="new 0 0 340.154 126.123"
   sodipodi:docname="nesh.svg"
   width="78.736839"
   height="34"
   inkscape:version="0.92.5 (2060ec1f9f, 2020-04-08)">
  <metadata
     id="metadata40">
    <rdf:RDF>
      <cc:Work
         rdf:about="">
        <dc:format>image/svg+xml</dc:format>
        <dc:type
           rdf:resource="http://purl.org/dc/dcmitype/StillImage" />
        <dc:title></dc:title>
      </cc:Work>
    </rdf:RDF>
  </metadata>
  <defs
     id="defs38" />
  <sodipodi:namedview
     pagecolor="#ffffff"
     bordercolor="#666666"
     borderopacity="1"
     objecttolerance="10"
     gridtolerance="10"
     guidetolerance="10"
     inkscape:pageopacity="0"
     inkscape:pageshadow="2"
     inkscape:window-width="1440"
     inkscape:window-height="837"
     id="namedview36"
     showgrid="false"
     fit-margin-top="0"
     fit-margin-left="0"
     fit-margin-right="0"
     fit-margin-bottom="0"
     inkscape:zoom="0.834386"
     inkscape:cx="27.17939"
     inkscape:cy="-65.726563"
     inkscape:window-x="0"
     inkscape:window-y="0"
     inkscape:window-maximized="1"
     inkscape:current-layer="Ebene_1" />
  <g
     id="g878"
     style="fill:#aa0000"
     transform="scale(0.29824561)">
    <g
       id="g31"
       transform="scale(0.44,0.440336)"
       style="fill:#aa0000">
      <path
         inkscape:connector-curvature="0"
         style="fill:#aa0000;fill-opacity:1"
         id="path5"
         d="M 489.881,124.271 H 110.379 c -34.261,0 -62.14,-27.875 -62.14,-62.137 C 48.239,27.872 76.12,0 110.379,0 h 379.498 c 34.266,0 62.141,27.873 62.141,62.136 -0.002,34.26 -27.873,62.135 -62.137,62.135 z M 110.379,14.699 c -26.157,0 -47.441,21.28 -47.441,47.44 0,26.155 21.282,47.439 47.441,47.439 h 379.498 c 26.154,0 47.442,-21.282 47.442,-47.439 0,-26.159 -21.285,-47.44 -47.442,-47.44 z" />
      <path
         inkscape:connector-curvature="0"
         style="fill:#aa0000;fill-opacity:1"
         id="path7"
         d="M 159.119,90.951 V 33.597 H 141.87 V 73.7 L 116.429,33.597 H 97.887 v 57.354 h 17.249 V 49.554 l 26.732,41.397 z" />
      <path
         inkscape:connector-curvature="0"
         style="fill:#aa0000;fill-opacity:1"
         id="path9"
         d="m 187.149,90.951 v -38.81 h -17.247 v 38.81 z" />
      <path
         inkscape:connector-curvature="0"
         style="fill:#aa0000;fill-opacity:1"
         id="path11"
         d="M 187.149,43.946 V 33.597 h -17.247 v 10.349 z" />
      <path
         inkscape:connector-curvature="0"
         style="fill:#aa0000;fill-opacity:1"
         d="M 247.519,90.951 V 64.212 c 0,-5.606 -10.781,-13.367 -16.385,-13.367 h -5.177 c -3.879,0 -8.193,3.45 -12.074,5.175 v -3.879 h -17.249 v 38.81 h 17.249 V 64.212 c 0,-2.588 6.036,-5.606 8.626,-5.606 2.587,0 7.329,3.018 7.329,5.606 v 26.737 h 17.681 z"
         id="_x33_162" />
      <path
         inkscape:connector-curvature="0"
         style="fill:#aa0000;fill-opacity:1"
         d="M 391.841,92.286 V 65.55 c 0,-5.607 -10.776,-13.366 -16.391,-13.366 h -5.171 c -3.883,0 -8.196,3.45 -12.08,5.173 v -3.879 h -17.245 v 38.81 h 17.245 V 65.55 c 0,-2.585 6.04,-5.607 8.628,-5.607 2.586,0 7.327,3.022 7.327,5.607 v 26.736 z"
         id="_x33_162_1_" />
      <path
         inkscape:connector-curvature="0"
         style="fill:#aa0000;fill-opacity:1"
         id="path15"
         d="m 275.549,90.951 v -38.81 h 9.056 v -5.175 h -9.056 v -8.193 h -17.676 v 8.193 h -9.057 v 5.175 h 9.057 v 38.81 z" />
      <path
         inkscape:connector-curvature="0"
         style="fill:#aa0000;fill-opacity:1"
         id="path17"
         d="m 308.752,50.847 c -13.798,0 -25.44,9.486 -25.44,21.129 0,12.076 11.642,21.561 25.44,21.561 12.075,0 21.994,-6.899 24.581,-15.955 h -17.677 v 5.175 c 0,4.313 -3.015,5.61 -6.897,5.61 -3.881,0 -6.47,-1.295 -6.47,-5.61 V 71.978 h 31.914 C 334.198,60.335 322.986,50.847 308.752,50.847 Z m 0,3.88 c 3.882,0 6.9,2.588 6.9,6.901 v 3.878 h -13.367 v -3.878 c 0,-4.313 2.588,-6.901 6.467,-6.901 z" />
      <path
         inkscape:connector-curvature="0"
         style="fill:#aa0000;fill-opacity:1"
         id="path19"
         d="m 478.662,50.847 c -14.233,0 -25.446,9.486 -25.446,21.129 0,12.076 11.208,21.561 25.446,21.561 13.792,0 25.439,-9.485 25.439,-21.561 -0.007,-11.641 -11.647,-21.129 -25.439,-21.129 z m 0,3.88 c 3.874,0 6.467,2.588 6.467,6.901 v 21.128 c 0,4.311 -2.593,5.607 -6.467,5.607 -4.311,0 -6.904,-1.295 -6.904,-5.607 V 61.628 c -0.003,-4.313 2.588,-6.901 6.904,-6.901 z" />
      <path
         inkscape:connector-curvature="0"
         style="fill:#aa0000;fill-opacity:1"
         id="path21"
         d="m 429.066,33.597 v 21.13 c 0,0 -5.179,-3.88 -12.079,-3.88 -10.779,0 -19.833,9.486 -19.833,19.836 0,10.782 9.057,21.563 19.833,21.563 6.9,0 12.079,-2.588 12.079,-2.588 v 1.291 h 17.25 V 33.597 Z m -6.47,23.718 c 3.879,0 6.47,3.02 6.47,6.9 V 80.17 c 0,3.882 -2.591,5.175 -6.47,5.175 -4.309,0 -6.9,-1.291 -6.9,-5.175 V 64.215 c 0,-3.88 2.591,-6.9 6.9,-6.9 z" />
      <path
         inkscape:connector-curvature="0"
         style="fill:#aa0000;fill-opacity:1"
         d="m 91.418,175.035 v -25.013 c 0,-4.741 -4.743,-9.488 -9.486,-9.488 H 45.71 v 34.501 h 11.213 v -23.282 c 0,-1.727 1.291,-3.452 3.018,-3.452 h 17.246 c 1.727,0 3.452,1.727 3.452,3.452 v 23.282 z"
         id="_x32_399" />
      <path
         inkscape:connector-curvature="0"
         style="fill:#aa0000;fill-opacity:1"
         d="m 390.652,175.035 v -25.013 c 0,-4.741 -4.742,-9.488 -9.483,-9.488 h -36.224 v 34.501 h 11.208 v -23.282 c 0,-1.727 1.298,-3.452 3.022,-3.452 h 17.249 c 1.727,0 3.445,1.727 3.445,3.452 v 23.282 z"
         id="_x32_399_1_" />
      <path
         inkscape:connector-curvature="0"
         style="fill:#aa0000;fill-opacity:1"
         d="m 554.445,175.035 v -25.013 c 0,-4.741 -4.741,-9.488 -9.488,-9.488 h -36.222 v 34.501 h 11.208 v -23.282 c 0,-1.727 1.291,-3.452 3.023,-3.452 h 17.244 c 1.727,0 3.449,1.727 3.449,3.452 v 23.282 z"
         id="_x32_399_2_" />
      <path
         inkscape:connector-curvature="0"
         style="fill:#aa0000;fill-opacity:1"
         d="m 456.663,175.035 v -25.013 c 0,-4.741 -4.742,-9.488 -9.488,-9.488 h -48.728 v 34.501 h 11.213 v -23.282 c 0,-1.727 1.289,-3.452 3.014,-3.452 h 6.47 c 1.295,0 3.02,1.727 3.02,3.452 v 23.282 h 11.215 v -23.282 c 0,-1.727 1.289,-3.452 3.015,-3.452 h 6.47 c 1.293,0 3.018,1.727 3.018,3.452 v 23.282 z"
         id="_x33_177" />
      <path
         inkscape:connector-curvature="0"
         style="fill:#aa0000;fill-opacity:1"
         d="M 37.949,175.035 H 9.488 C 4.747,175.035 0,172.018 0,167.277 v -27.164 h 37.947 v 8.193 H 12.504 c -1.291,0 -3.018,1.295 -3.018,3.02 0,1.727 1.727,3.02 3.018,3.02 h 23.718 v 6.898 H 12.504 c -1.291,0 -3.018,1.727 -3.018,3.02 0,1.727 1.727,3.449 3.018,3.449 h 25.443 z"
         id="_x33_181" />
      <path
         inkscape:connector-curvature="0"
         style="fill:#aa0000;fill-opacity:1"
         d="m 178.118,175.47 h -28.462 c -4.742,0 -9.489,-3.018 -9.489,-7.757 v -27.17 h 37.951 v 8.194 h -25.446 c -1.29,0 -3.016,1.294 -3.016,3.023 0,1.729 1.726,3.018 3.016,3.018 h 23.717 v 6.897 h -23.717 c -1.29,0 -3.016,1.727 -3.016,3.023 0,1.727 1.726,3.447 3.016,3.447 h 25.446 z"
         id="_x33_181_1_" />
      <path
         inkscape:connector-curvature="0"
         style="fill:#aa0000;fill-opacity:1"
         d="m 502.551,175.035 h -28.464 c -4.742,0 -9.492,-3.018 -9.492,-7.758 v -27.164 h 37.952 v 8.193 h -25.442 c -1.292,0 -3.024,1.295 -3.024,3.02 0,1.727 1.727,3.02 3.024,3.02 h 23.712 v 6.898 h -23.712 c -1.292,0 -3.024,1.727 -3.024,3.02 0,1.727 1.727,3.449 3.024,3.449 h 25.442 v 7.327 h 0.004 z"
         id="_x33_181_2_" />
      <path
         inkscape:connector-curvature="0"
         style="fill:#aa0000;fill-opacity:1"
         d="m 96.163,140.54 v 7.761 h 11.21 c 3.02,0 3.02,0 3.02,3.452 v 23.282 h 10.779 v -23.282 c 0,-3.452 0,-3.452 3.45,-3.452 h 10.779 v -7.761 z"
         id="_x32_391" />
      <path
         inkscape:connector-curvature="0"
         style="fill:#aa0000;fill-opacity:1"
         d="m 233.184,140.54 v 7.761 h 11.21 c 3.016,0 3.016,0 3.016,3.452 v 23.282 h 10.781 v -23.282 c 0,-3.452 0,-3.452 3.452,-3.452 h 10.781 v -7.761 z"
         id="_x32_391_1_" />
      <path
         inkscape:connector-curvature="0"
         style="fill:#aa0000;fill-opacity:1"
         d="m 560.763,140.54 v 7.761 h 11.21 c 3.022,0 3.022,0 3.022,3.452 v 23.282 h 10.777 v -23.282 c 0,-3.452 0,-3.452 3.449,-3.452 H 600 v -7.761 z"
         id="_x32_391_2_" />
      <path
         inkscape:connector-curvature="0"
         style="fill:#aa0000;fill-opacity:1"
         id="path37"
         d="m 185.856,140.54 v 34.5 h 11.212 v -6.033 c 0,-1.726 1.293,-3.455 3.018,-3.455 h 14.231 c 1.727,0 3.018,1.727 3.018,3.455 v 6.033 h 9.488 v -9.488 c 0,-1.289 -1.291,-3.015 -1.291,-4.741 0,-1.29 3.018,-4.308 3.018,-7.756 v -3.022 c 0,-3.022 -4.743,-9.49 -7.761,-9.49 z m 14.23,7.761 h 14.231 c 1.727,0 3.016,1.727 3.016,3.452 v 3.016 c 0,1.727 -1.291,3.022 -3.016,3.022 h -14.231 c -1.725,0 -3.018,-1.293 -3.018,-3.022 v -3.016 c 0.002,-1.722 1.293,-3.452 3.018,-3.452 z" />
      <path
         inkscape:connector-curvature="0"
         style="fill:#aa0000;fill-opacity:1"
         id="path39"
         d="m 285.038,140.54 c -3.02,0 -7.76,6.468 -7.76,9.491 v 25.009 h 11.208 v -9.488 h 20.266 v 9.488 h 11.209 v -25.009 c 0,-3.023 -4.741,-9.491 -8.193,-9.491 z m 6.468,7.761 h 14.228 c 1.289,0 3.018,1.727 3.018,3.452 v 6.036 h -20.266 v -6.036 c 0,-1.722 1.295,-3.452 3.02,-3.452 z" />
      <path
         inkscape:connector-curvature="0"
         style="fill:#aa0000;fill-opacity:1"
         id="path41"
         d="M 338.507,175.035 V 140.536 H 327.73 v 34.501 h 10.777 z" />
      <path
         inkscape:connector-curvature="0"
         style="fill:#aa0000;fill-opacity:1"
         d="m 442.495,222.29 v -25.012 c 0,-4.742 -4.743,-9.488 -9.492,-9.488 h -48.724 v 34.5 h 11.208 v -23.285 c 0,-1.727 1.291,-3.452 3.016,-3.452 h 6.468 c 1.295,0 3.024,1.726 3.024,3.452 v 23.281 h 11.207 v -23.281 c 0,-1.727 1.29,-3.452 3.015,-3.452 h 6.47 c 1.293,0 3.025,1.726 3.025,3.452 v 23.281 h 10.779 z"
         id="_x33_177_1_" />
      <path
         inkscape:connector-curvature="0"
         style="fill:#aa0000;fill-opacity:1"
         d="m 376.558,222.29 h -28.462 c -4.742,0 -9.485,-3.022 -9.485,-7.758 v -27.169 h 37.944 v 8.195 h -25.44 c -1.291,0 -3.019,1.293 -3.019,3.018 0,1.727 1.727,3.02 3.019,3.02 h 23.715 v 6.898 h -23.715 c -1.291,0 -3.019,1.727 -3.019,3.022 0,1.727 1.727,3.447 3.019,3.447 h 25.44 z"
         id="_x33_181_3_" />
      <path
         inkscape:connector-curvature="0"
         style="fill:#aa0000;fill-opacity:1"
         d="m 294.603,187.79 v 7.757 h 11.21 c 3.018,0 3.018,0 3.018,3.452 v 23.282 h 10.779 v -23.282 c 0,-3.452 0,-3.452 3.456,-3.452 h 10.775 v -7.757 z"
         id="_x32_391_3_" />
      <path
         inkscape:connector-curvature="0"
         style="fill:#aa0000;fill-opacity:1"
         d="m 166.885,187.971 c -3.019,0 -9.488,4.745 -9.488,7.758 v 4.747 c 0,3.019 6.469,7.761 9.488,7.761 h 18.973 c 1.725,0 3.45,1.727 3.45,3.018 0,1.723 -1.727,3.447 -3.45,3.447 h -28.461 v 7.759 h 31.91 c 3.019,0 9.055,-4.741 9.055,-7.759 v -4.742 c 0,-3.452 -6.036,-8.195 -9.055,-8.195 h -18.973 c -1.727,0 -3.449,-1.293 -3.449,-3.022 0,-1.725 1.724,-3.021 3.449,-3.021 h 28.028 v -7.756 h -31.477 z"
         id="_x33_187" />
      <path
         inkscape:connector-curvature="0"
         style="fill:#aa0000;fill-opacity:1"
         d="m 258.231,187.971 c -3.021,0 -9.489,4.745 -9.489,7.758 v 4.747 c 0,3.019 6.468,7.761 9.489,7.761 h 18.973 c 1.725,0 3.45,1.727 3.45,3.018 0,1.723 -1.727,3.447 -3.45,3.447 h -28.462 v 7.759 h 31.91 c 3.02,0 9.056,-4.741 9.056,-7.759 v -4.742 c 0,-3.452 -6.036,-8.195 -9.056,-8.195 h -18.974 c -1.725,0 -3.448,-1.293 -3.448,-3.022 0,-1.725 1.725,-3.021 3.448,-3.021 h 28.03 v -7.756 h -31.477 z"
         id="_x33_187_1_" />
      <path
         inkscape:connector-curvature="0"
         style="fill:#aa0000;fill-opacity:1"
         id="path48"
         d="m 201.813,187.971 v 15.53 c 0,3.016 4.741,7.759 7.761,7.759 h 7.758 v 11.208 h 11.213 V 211.26 h 7.761 c 3.016,0 7.761,-4.743 7.761,-7.759 v -15.53 h -10.781 v 12.51 c 0,1.291 -1.725,3.02 -3.45,3.02 h -13.797 c -1.727,0 -3.451,-1.727 -3.451,-3.02 v -12.51 z" />
    </g>
    <path
       id="path33"
       style="white-space:pre;fill:#aa0000"
       d="m 83.908,113.815 h -2.464 v -2.725 h -1.848 v 2.725 h -2.464 v -7.706 h 2.464 v 2.726 h 1.848 v -2.726 h 2.464 z m 3.353,-1.22 -0.286,1.22 h -2.601 l 1.998,-7.706 h 3.806 l 1.998,7.706 h -2.601 l -0.281,-1.22 z m 1.082,-4.117 h -0.136 l -0.506,2.157 h 1.135 z m 9.412,3.131 0.185,2.07 c -0.516,0.214 -1.164,0.321 -1.945,0.321 -0.78,0 -1.406,-0.082 -1.879,-0.246 -0.472,-0.165 -0.844,-0.424 -1.117,-0.776 -0.27,-0.355 -0.459,-0.77 -0.568,-1.246 -0.105,-0.478 -0.158,-1.067 -0.158,-1.765 0,-0.7 0.053,-1.288 0.158,-1.766 0.109,-0.482 0.298,-0.9 0.568,-1.255 0.525,-0.682 1.49,-1.022 2.895,-1.022 0.314,0 0.682,0.031 1.104,0.093 0.423,0.061 0.737,0.137 0.942,0.229 l -0.37,1.885 c -0.533,-0.116 -1.022,-0.173 -1.465,-0.173 -0.442,0 -0.75,0.041 -0.924,0.123 -0.173,0.084 -0.259,0.248 -0.259,0.494 v 3.232 c 0.32,0.064 0.644,0.097 0.972,0.097 0.698,0 1.319,-0.099 1.861,-0.295 z m 3.56,-1.15 h -0.049 v 3.356 h -2.464 v -7.706 h 2.464 v 3.144 h 0.049 c 0.017,-0.247 0.058,-0.443 0.123,-0.59 l 1.21,-2.554 h 2.658 l -1.848,3.787 1.909,3.919 h -2.657 l -1.272,-2.761 c -0.065,-0.149 -0.106,-0.348 -0.123,-0.595 z m 4.485,3.22 0.343,-2.035 c 0.757,0.19 1.437,0.286 2.042,0.286 0.604,0 1.091,-0.025 1.46,-0.075 v -0.616 l -1.108,-0.101 c -1.004,-0.088 -1.691,-0.327 -2.064,-0.718 -0.375,-0.391 -0.563,-0.968 -0.563,-1.735 0,-1.051 0.229,-1.774 0.686,-2.171 0.455,-0.393 1.228,-0.59 2.319,-0.59 1.094,0 2.08,0.103 2.957,0.308 l -0.308,1.974 c -0.763,-0.125 -1.374,-0.186 -1.835,-0.186 -0.461,0 -0.851,0.02 -1.17,0.061 v 0.604 l 0.888,0.088 c 1.077,0.106 1.821,0.362 2.231,0.771 0.411,0.405 0.616,0.969 0.616,1.695 0,0.516 -0.07,0.955 -0.211,1.312 -0.141,0.358 -0.307,0.63 -0.497,0.815 -0.194,0.185 -0.468,0.326 -0.823,0.423 -0.352,0.1 -0.661,0.159 -0.928,0.18 -0.268,0.021 -0.622,0.031 -1.065,0.031 -1.068,0 -2.058,-0.107 -2.97,-0.321 z m 11.446,-2.823 h -1.909 v -1.775 h 1.909 v -1.91 h 1.774 v 1.91 h 1.922 v 1.775 h -1.922 v 1.924 h -1.774 z m 13.834,2.959 h -2.464 v -2.725 h -1.848 v 2.725 h -2.464 v -7.706 h 2.464 v 2.726 h 1.848 v -2.726 h 2.464 z m 0.861,-3.848 c 0,-1.404 0.263,-2.428 0.788,-3.074 0.525,-0.646 1.474,-0.969 2.847,-0.969 1.373,0 2.322,0.323 2.847,0.969 0.525,0.646 0.787,1.67 0.787,3.074 0,0.698 -0.056,1.287 -0.167,1.765 -0.111,0.476 -0.302,0.891 -0.572,1.246 -0.27,0.352 -0.644,0.611 -1.122,0.776 -0.475,0.164 -1.066,0.246 -1.773,0.246 -0.707,0 -1.298,-0.082 -1.773,-0.246 -0.479,-0.165 -0.853,-0.424 -1.122,-0.776 -0.27,-0.355 -0.461,-0.77 -0.572,-1.246 -0.112,-0.478 -0.168,-1.067 -0.168,-1.765 z m 2.649,-1.282 v 3.205 h 1.021 c 0.338,0 0.582,-0.038 0.735,-0.114 0.153,-0.079 0.229,-0.258 0.229,-0.537 v -3.206 h -1.034 c -0.329,0 -0.569,0.038 -0.722,0.115 -0.153,0.08 -0.229,0.259 -0.229,0.537 z m 7.898,1.396 -0.15,3.734 h -2.574 l 0.467,-7.706 h 3.216 l 0.964,3.919 h 0.083 l 0.964,-3.919 h 3.212 l 0.471,7.706 h -2.574 l -0.15,-3.734 h -0.088 l -0.933,3.734 h -1.887 l -0.946,-3.734 z m 12.503,-0.965 v 1.789 h -2.464 v 0.937 h 3.019 v 1.973 h -5.483 v -7.706 h 5.421 l -0.308,1.972 h -2.649 v 1.035 z m 6.023,4.699 h -4.422 v -7.706 h 3.991 c 0.739,0 1.267,0.144 1.584,0.431 0.317,0.289 0.475,0.708 0.475,1.26 0,0.549 -0.101,0.973 -0.303,1.272 -0.199,0.303 -0.468,0.499 -0.805,0.587 v 0.074 c 0.994,0.173 1.491,0.851 1.491,2.034 0,0.617 -0.164,1.113 -0.493,1.488 -0.328,0.374 -0.834,0.56 -1.518,0.56 z m -0.998,-3.069 h -0.96 V 112 h 0.951 c 0.343,0 0.515,-0.208 0.515,-0.624 0,-0.42 -0.169,-0.63 -0.506,-0.63 z m -0.185,-2.946 h -0.775 v 1.145 h 0.766 c 0.311,0 0.466,-0.191 0.466,-0.572 0,-0.383 -0.152,-0.573 -0.457,-0.573 z m 9.441,3.452 1.328,2.563 h -2.71 l -1.012,-2.294 h -0.528 v 2.294 h -2.464 v -7.706 h 3.881 c 1.765,0 2.649,0.9 2.649,2.699 0,1.233 -0.382,2.048 -1.144,2.444 z m -2.354,-3.171 h -0.568 v 1.542 h 0.568 c 0.296,0 0.511,-0.03 0.646,-0.092 0.135,-0.062 0.203,-0.205 0.203,-0.428 v -0.501 c 0,-0.224 -0.068,-0.366 -0.203,-0.427 -0.135,-0.062 -0.35,-0.094 -0.646,-0.094 z m 9.472,1.035 v 1.789 h -2.464 v 0.937 h 3.019 v 1.973 h -5.483 v -7.706 h 5.421 l -0.308,1.972 h -2.649 v 1.035 z m 7.933,1.295 0.594,-4.302 h 2.574 l -1.21,7.706 h -3.212 l -0.568,-2.835 h -0.149 l -0.555,2.835 h -3.216 l -1.206,-7.706 h 2.574 l 0.581,4.302 h 0.075 l 0.884,-4.302 h 1.888 l 0.871,4.302 z"
       inkscape:connector-curvature="0" />
  </g>
</svg>
