<?xml version="1.0" encoding="UTF-8" standalone="no"?>
<svg
   xmlns:dc="http://purl.org/dc/elements/1.1/"
   xmlns:cc="http://creativecommons.org/ns#"
   xmlns:rdf="http://www.w3.org/1999/02/22-rdf-syntax-ns#"
   xmlns:svg="http://www.w3.org/2000/svg"
   xmlns="http://www.w3.org/2000/svg"
   xmlns:sodipodi="http://sodipodi.sourceforge.net/DTD/sodipodi-0.dtd"
   xmlns:inkscape="http://www.inkscape.org/namespaces/inkscape"
   version="1.0"
   id="svg20"
   sodipodi:docname="odyssey.svg"
   inkscape:version="0.92.5 (2060ec1f9f, 2020-04-08)"
   width="149.60001"
   height="34">
  <metadata
     id="metadata26">
    <rdf:RDF>
      <cc:Work
         rdf:about="">
        <dc:format>image/svg+xml</dc:format>
        <dc:type
           rdf:resource="http://purl.org/dc/dcmitype/StillImage" />
        <dc:title></dc:title>
      </cc:Work>
    </rdf:RDF>
  </metadata>
  <defs
     id="defs24" />
  <sodipodi:namedview
     pagecolor="#ffffff"
     bordercolor="#666666"
     borderopacity="1"
     objecttolerance="10"
     gridtolerance="10"
     guidetolerance="10"
     inkscape:pageopacity="0"
     inkscape:pageshadow="2"
     inkscape:window-width="1440"
     inkscape:window-height="837"
     id="namedview22"
     showgrid="false"
     inkscape:zoom="1.3871078"
     inkscape:cx="112.29488"
     inkscape:cy="6.7985312"
     inkscape:window-x="0"
     inkscape:window-y="0"
     inkscape:window-maximized="1"
     inkscape:current-layer="svg20"
     fit-margin-top="0"
     fit-margin-left="0"
     fit-margin-right="0"
     fit-margin-bottom="0" />
  <path
     d="M 0.18473333,33.814133 C 0.07876667,33.734233 0,27.470867 0,19.906433 0,7.776367 0.0527,6.130767 0.42216667,5.7596 0.765,5.387867 1.9527333,5.335167 9.2344,5.335167 c 7.308867,0 8.4694,0.0527 8.8128,0.424433 0.3689,0.371167 0.422167,1.937433 0.3689,14.2528 L 18.337333,33.866833 9.3398,33.946167 C 4.4064,33.973367 0.29013333,33.9201 0.18473333,33.814133 Z M 11.5566,31.265833 c 0.184733,-0.2125 0.3162,-2.521666 0.369467,-6.078066 0.07877,-6.529134 0.1581,-6.768267 2.268933,-7.776367 l 1.107833,-0.504333 v -3.742834 c 0,-5.281333 0.4488,-4.910166 -5.9890997,-4.910166 -4.4591,0 -5.2507333,0.05383 -5.6729,0.451633 C 3.1926,9.1035 3.1659667,9.820333 3.1659667,19.959133 V 30.787567 L 3.7462333,31.1865 C 4.5378667,31.743533 11.1078,31.7968 11.5566,31.26583 Z"
     style="fill:#aa0000;stroke-width:0.56666666"
     id="path2"
     inkscape:connector-curvature="0" />
  <path
     d="M 21.107767,33.495667 C 20.9491,33.15 20.8437,28.346367 20.8437,19.693933 c 0,-12.952866 0.02663,-13.323466 0.527567,-13.828366 0.5015,-0.504334 0.870966,-0.5304 7.2029,-0.5304 7.4936,0 7.889133,0.105966 9.7359,2.016766 C 40.051433,9.1834 40.1047,9.5812 40.1047,20.038467 c 0,9.237233 0,9.316 -0.633533,10.670333 C 39.128333,31.425067 38.3367,32.487 37.7298,33.017967 L 36.5687,34 h -7.572367 c -7.2556,0 -7.625066,-0.02663 -7.888566,-0.504333 z m 14.3531,-2.442334 c 1.450666,-1.141266 1.4773,-1.299933 1.4773,-11.120833 0,-12.102867 0.211366,-11.678433 -5.408834,-11.678433 -2.348266,0 -3.562066,0.106533 -3.772866,0.319033 -0.237434,0.238567 -0.316767,3.0787 -0.316767,11.200167 0,9.741 0.05327,10.908333 0.4488,11.359966 0.369467,0.425 0.8704,0.4777 3.640833,0.4777 2.875834,0 3.298567,-0.0527 3.931534,-0.5576 z"
     style="fill:#aa0000;stroke-width:0.56666666"
     id="path4"
     inkscape:connector-curvature="0" />
  <path
     d="M 47.650433,33.575 C 47.5711,33.335867 47.491767,30.7615 47.491767,27.8154 V 22.4808 L 44.9854,20.065667 42.479033,17.649967 V 11.917 c 0,-6.184033 0.07933,-6.581833 1.4246,-6.581833 1.134467,0 1.2138,0.371166 1.2138,5.255266 0,2.839567 0.1054,4.830267 0.290134,5.175367 0.369466,0.769533 2.137466,2.361867 3.878833,3.5564 l 1.3719,0.955967 1.398533,-0.955967 c 0.738367,-0.5049 1.9261,-1.486367 2.6384,-2.1233 L 55.9351,16.004367 v -4.883534 c 0,-4.405833 0.0527,-4.963433 0.474867,-5.335166 0.6069,-0.556467 1.4773,-0.583667 2.005433,-0.02607 0.3689,0.3451 0.422167,1.3005 0.422167,6.184033 v 5.8123 L 56.5947,19.7999 c -1.239867,1.141267 -2.427033,2.389067 -2.6384,2.8135 -0.316767,0.583667 -0.395533,1.9108 -0.395533,6.078067 V 34 h -2.8764 c -2.374334,0 -2.9019,-0.0799 -3.033934,-0.425 z"
     style="fill:#aa0000;stroke-width:0.56666666"
     id="path6"
     inkscape:connector-curvature="0" />
  <path
     d="M 61.370567,33.575 C 61.291233,33.335867 61.2119,31.558233 61.2119,29.620233 c 0,-4.405833 -0.02607,-4.3792 3.0345,-4.3792 2.928533,0 3.033933,0.1326 3.033933,3.185234 0,3.104766 0.07933,3.184666 3.271934,3.184666 1.53,0 2.533,-0.105966 2.7438,-0.318466 0.211366,-0.211934 0.316766,-1.698867 0.316766,-4.910734 0,-4.246033 -0.02663,-4.591133 -0.5015,-4.856333 -0.3162,-0.1598 -2.506366,-0.265767 -5.302866,-0.265767 -5.171967,0 -6.1217,-0.211933 -6.4379,-1.379833 -0.07933,-0.3451 -0.158667,-3.477067 -0.158667,-6.9802 0,-5.3618 0.07933,-6.476433 0.422167,-6.980767 0.3961,-0.583666 0.4488,-0.583666 7.730466,-0.583666 6.517234,0 7.3882,0.0527 7.7044,0.4505 0.264067,0.2924 0.3961,1.486933 0.4488,4.087933 0.07877,3.397167 0.0527,3.689567 -0.4488,4.193333 -0.765,0.769534 -1.714733,0.716267 -2.374333,-0.1326 -0.4488,-0.584233 -0.5542,-1.088566 -0.5542,-2.8662 0,-1.354333 -0.132033,-2.309733 -0.316767,-2.495033 -0.2108,-0.2125 -1.6354,-0.319033 -4.6172,-0.319033 h -4.301 L 64.6153,8.997533 c -0.1581,0.424434 -0.237433,2.256467 -0.184167,4.5118 0.07877,3.397734 0.131467,3.8488 0.580267,4.1939 0.422167,0.291834 1.662033,0.371734 5.7256,0.371734 2.875833,0 5.408833,0.0799 5.646267,0.158666 1.055133,0.425 1.187166,1.3804 1.187166,8.122034 0,3.5564 -0.07933,6.715 -0.158666,7.0601 L 77.253667,34 h -7.8625 c -6.912767,0 -7.889134,-0.05383 -8.0206,-0.425 z"
     style="fill:#aa0000;stroke-width:0.56666666"
     id="path8"
     inkscape:connector-curvature="0" />
  <path
     d="m 80.103433,33.575 c -0.07933,-0.239133 -0.158666,-2.016767 -0.158666,-3.954767 0,-4.405833 -0.02607,-4.3792 3.0345,-4.3792 2.849766,0 3.0345,0.2125 3.0345,3.503134 0,2.814066 0.05213,2.866766 3.376766,2.866766 3.271934,0 3.219234,0.105967 3.219234,-5.1221 0,-5.600933 0.422166,-5.2292 -5.936967,-5.2292 -5.092067,0 -6.173833,-0.185866 -6.569367,-1.193966 -0.07933,-0.239134 -0.158666,-3.451 -0.158666,-7.14 0,-6.1574 0.02663,-6.741067 0.475433,-7.14 0.422167,-0.3978 1.371333,-0.4505 7.756533,-0.4505 6.701967,0 7.282234,0.02607 7.677767,0.4777 0.369467,0.3978 0.4488,1.114066 0.4488,4.219966 0,3.264567 -0.0527,3.768334 -0.474867,4.140634 -0.6596,0.609733 -1.7153,0.557033 -2.3222,-0.106534 -0.395533,-0.451066 -0.527566,-1.088 -0.632966,-3.131966 L 92.7418,8.387233 88.256067,8.3079 C 84.271833,8.25407 83.744267,8.2807 83.454133,8.7057 83.2167,9.024167 83.1113,10.3513 83.1113,13.0849 c 0,5.3618 -0.474867,4.990067 6.437333,4.990067 h 5.356134 l 0.7123,0.6902 0.686233,0.716266 V 26.3296 c 0,3.7417 -0.07933,7.006267 -0.1581,7.2454 C 96.013167,33.946167 95.0368,34 88.124033,34 c -6.912766,0 -7.888566,-0.05383 -8.0206,-0.425 z"
     style="fill:#aa0000;stroke-width:0.56666666"
     id="path10"
     inkscape:connector-curvature="0" />
  <path
     d="m 98.8363,33.575 c -0.07933,-0.239133 -0.158667,-6.476433 -0.158667,-13.881067 0,-12.713166 0.02663,-13.509333 0.475434,-13.908266 0.422166,-0.3978 1.345263,-0.4505 7.519663,-0.4505 6.67477,0 7.04424,0.02607 7.3083,0.503766 0.36947,0.6902 0.34284,1.964067 -0.0527,2.362434 -0.23743,0.238566 -1.84676,0.318466 -5.59356,0.318466 -2.9291,0 -5.43547,0.105967 -5.59357,0.2125 -0.7123,0.4777 -0.89703,1.486367 -0.89703,4.962867 0,3.477067 0.0261,3.6363 0.6596,4.2466 0.63296,0.663567 0.6596,0.663567 5.8837,0.663567 5.59356,0 5.85706,0.05327 5.85706,1.327133 0,1.221167 -0.3689,1.327133 -4.2211,1.327133 -5.0133,0 -4.74923,-0.291833 -4.74923,5.1493 0,5.467767 -0.21137,5.202 4.063,5.202 2.21623,0 3.298,0.105967 3.8522,0.3978 0.765,0.398367 1.2138,1.2478 0.92367,1.7255 C 114.00767,33.893467 111.2106,34 106.46137,34 99.891433,34 98.968333,33.946167 98.8363,33.575 Z"
     style="fill:#aa0000;stroke-width:0.56666666"
     id="path12"
     inkscape:connector-curvature="0" />
  <path
     d="m 121.63273,28.6382 c 0,-6.263367 0.0521,-6.0775 -2.77043,-8.599733 -0.9503,-0.848867 -1.9261,-1.8836 -2.13747,-2.282534 -0.29013,-0.557033 -0.36946,-1.937433 -0.36946,-6.130766 0,-4.910167 0.0527,-5.440567 0.47486,-5.8395 0.63354,-0.583667 1.45124,-0.556467 1.97937,0.0272 0.39553,0.424433 0.44823,1.193966 0.44823,5.2819 V 15.8984 l 1.8207,1.698867 c 1.00244,0.902133 2.2423,1.884166 2.7438,2.176 l 0.94974,0.5049 1.79406,-1.353767 c 0.97637,-0.743467 2.16354,-1.7255 2.5857,-2.176567 l 0.79164,-0.823366 0.0793,-4.962867 c 0.0527,-3.0787 0.18473,-5.0694 0.36947,-5.307967 0.1581,-0.185866 0.6596,-0.318466 1.10783,-0.265766 l 0.81827,0.0799 0.0788,6.236733 0.0527,6.2373 -2.37433,2.282533 -2.3749,2.282534 v 5.335166 c 0,2.919467 -0.0788,5.493834 -0.1581,5.732967 -0.13203,0.3451 -0.6596,0.425 -3.03393,0.425 h -2.87584 z"
     style="fill:#aa0000;stroke-width:0.56666666"
     id="path14"
     inkscape:connector-curvature="0" />
  <path
     d="m 136.14393,14.651167 c 0,-2.256467 0.13204,-4.299867 0.31677,-4.830834 0.79107,-2.3885 2.37433,-3.397166 5.30287,-3.4238 1.003,0 1.768,-0.105966 1.768,-0.265766 0,-0.159234 -1.39854,-0.2652 -3.69354,-0.2652 h -3.6941 V 4.538433 3.211867 h 4.19504 c 3.7995,0 4.24773,0.0527 4.85463,0.5304 0.9503,0.769533 1.37247,2.149933 0.97637,3.317833 -0.47487,1.4331 -1.3719,1.990133 -3.21867,1.990133 -3.24587,0 -4.16897,1.0353 -4.16897,4.777567 v 2.123867 h 5.40884 5.40883 v 1.326566 1.327134 h -6.72803 -6.72804 z"
     style="fill:#aa0000;stroke-width:0.56666666"
     id="path16"
     inkscape:connector-curvature="0" />
  <path
     d="m 139.0464,14.173467 c 0.0261,-2.043967 0.42217,-3.610234 1.05513,-4.114 0.42217,-0.345667 1.0557,-0.478267 2.16354,-0.478267 1.9261,0 3.1926,-0.557033 3.9049,-1.724933 C 147.19903,6.1846 146.53943,3.9542 144.74537,3.105333 144.05913,2.786867 142.97737,2.6809 139.99613,2.6809 h -3.8522 V 1.327133 0 l 4.69654,0.07933 c 4.64326,0.0799 4.7226,0.0799 5.80436,0.8228 0.6069,0.398367 1.4246,1.221167 1.8207,1.832034 0.6596,0.982033 0.73894,1.326566 0.73894,3.3966 0,2.0706 -0.0793,2.4157 -0.73894,3.397166 -1.08176,1.6728 -2.533,2.521667 -4.48573,2.654267 -3.21867,0.2125 -2.1369,0.584233 1.74137,0.584233 H 149.6 v 1.327134 1.327133 h -5.2768 -5.2768 z"
     style="fill:#aa0000;stroke-width:0.56666666"
     id="path18"
     inkscape:connector-curvature="0" />
</svg>
