<?xml version="1.0" encoding="UTF-8" standalone="no"?>
<svg
   xmlns:dc="http://purl.org/dc/elements/1.1/"
   xmlns:cc="http://creativecommons.org/ns#"
   xmlns:rdf="http://www.w3.org/1999/02/22-rdf-syntax-ns#"
   xmlns:svg="http://www.w3.org/2000/svg"
   xmlns="http://www.w3.org/2000/svg"
   xmlns:sodipodi="http://sodipodi.sourceforge.net/DTD/sodipodi-0.dtd"
   xmlns:inkscape="http://www.inkscape.org/namespaces/inkscape"
   version="1.1"
   id="Calque_1"
   x="0px"
   y="0px"
   sodipodi:docname="openbor.svg"
   inkscape:version="0.92.5 (2060ec1f9f, 2020-04-08)"
   width="55.407364"
   height="34.000011">
  <metadata
     id="metadata20">
    <rdf:RDF>
      <cc:Work
         rdf:about="">
        <dc:format>image/svg+xml</dc:format>
        <dc:type
           rdf:resource="http://purl.org/dc/dcmitype/StillImage" />
        <dc:title></dc:title>
      </cc:Work>
    </rdf:RDF>
  </metadata>
  <defs
     id="defs18" />
  <sodipodi:namedview
     pagecolor="#ffffff"
     bordercolor="#666666"
     borderopacity="1"
     objecttolerance="10"
     gridtolerance="10"
     guidetolerance="10"
     inkscape:pageopacity="0"
     inkscape:pageshadow="2"
     inkscape:window-width="1440"
     inkscape:window-height="837"
     id="namedview16"
     showgrid="false"
     inkscape:zoom="1.3871078"
     inkscape:cx="111.44954"
     inkscape:cy="42.07381"
     inkscape:window-x="0"
     inkscape:window-y="0"
     inkscape:window-maximized="1"
     inkscape:current-layer="Calque_1"
     fit-margin-top="0"
     fit-margin-left="0"
     fit-margin-right="0"
     fit-margin-bottom="0" />
  <path
     id="XMLID_733_"
     d="m 41.226819,0.80126939 c 0.622075,0.0821 0.452075,-0.58534 0.760804,-0.79963 0.07576,0 0.151531,0 0.227297,0 0.131802,0.017 0.311877,-0.0672 0.34105,0.16329 -0.0092,0.22499 0.0031,0.45333 -0.03232,0.67412 -0.0787,0.49615001 0.120049,0.69994001 0.61326,0.63278001 0,0 -0.0067,-0.016 -0.0067,-0.016 0.05436,0.23087 -0.161815,0.60193 0.321741,0.60927 0.482298,0.007 0.303482,-0.34839 0.330766,-0.59122 0.09277,-1.23827001 0.09277,-1.23827001 1.29725,-1.25485001 -0.0073,1.03259001 -0.01826,2.06518001 -0.02141,3.09778001 -0.0038,1.28801 -10e-4,1.28801 -1.26199,1.33587 0,0 2.1e-4,0.007 2.1e-4,0.007 0.0042,-0.22478 -0.01616,-0.4527 0.017,-0.67286 0.07996,-0.52596 -0.107877,-0.77781 -0.658594,-0.70708 -0.07115,-0.21491 0.108297,-0.59332 -0.347976,-0.55869 -0.444939,0.0334 -0.246395,0.38701 -0.27242,0.61032 -0.03001,0.26025 -0.0256,0.52742 -0.0027,0.78893 0.03358,0.38407 -0.09843,0.54757 -0.506434,0.52385 -0.431297,-0.0254 -0.866162,0.009 -1.299558,0.0183 -0.04365,0.002 -0.08731,0.003 -0.130753,0.005 0,0 0.01343,-10e-4 0.01343,-10e-4 0.0055,-0.91318 0.0076,-1.82698 0.01952,-2.74016 0.0023,-0.15363 -0.07052,-0.41534 0.15342,-0.41702 0.567927,-0.003 0.393309,-0.41472 0.445149,-0.70792001 z"
     style="fill:#aa0000;stroke-width:0.20987697"
     inkscape:connector-curvature="0" />
  <path
     id="XMLID_720_"
     d="m 2.4747163,33.425599 c -0.2386301,-0.65062 -1.57722541,-0.45145 -1.69727503,-0.52155 -0.90477958,-0.52889 -0.9465451,-0.49824 -0.49971705,-1.34279 0.10493848,-0.093 2.12773268,-2.00159 2.14116478,-2.21231 0.1124941,-1.78102 0.5421122,-6.40587 0.1234077,-7.00989 -0.090877,-0.13097 -0.2791364,-0.55953 -0.3826057,-0.61704 -0.2117659,-0.11837 -0.4306676,-0.2273 -0.6558655,-0.31754 -0.71547063,-0.28544 -1.0336441,-1.21687 -0.1903584,-1.6998 0.3420994,-0.19602 0.6707667,-0.41513 1.0032118,-0.62732 0.1727288,-0.10998 0.4587911,-0.20316 0.4894331,-0.34714 0.1454447,-0.67979 0.3662353,-5.46897 0.4932109,-5.80058 0.2495437,-0.65313 0.4061119,-1.37469 0.9373105,-1.90484 0.4010749,-0.40002 0.777804,-0.82545 1.1520146,-1.2504496 0.1225682,-0.13893 0.2363215,-0.30663 0.1370497,-0.51461 -0.099692,-0.2082 -0.2940376,-0.21261 -0.4862849,-0.21408 -0.6743347,-0.005 -1.303336,0.204 -1.9331767,0.40884 -0.6455816,0.20967 -1.289694,0.42563 -1.9793497,0.43529 -0.576532,0.008 -0.66174205,-0.15993 -0.56393939,-0.72429 0.0898273,-0.52133 1.24960749,-1.75709 1.64606509,-1.91429 0.9196808,-0.36476 4.197959,-1.36273 4.6865525,-1.35328 0.2963463,-0.17252 3.4086124,-0.0902 4.7652564,0.30117 1.087793,0.31377 6.117494,2.78801 5.831222,3.58344 -0.492371,1.3688196 -0.348396,2.6001596 -1.492225,3.5036896 -0.942768,0.74464 -1.915757,1.44542 -2.936809,2.12521 -0.478939,0.31901 -4.9923433,3.04804 -5.9903082,3.77632 -0.1624448,0.11858 -0.2839636,0.26927 -0.3110377,0.4781 -8.395e-4,0.0577 -0.0021,0.11543 -0.00315,0.17293 -0.1261361,0.36057 0.1410373,0.5971 0.3798773,0.64496 0.9585081,0.19098 7.3557676,2.67215 7.4403486,3.16368 1.148656,2.27108 -1.285706,5.4207 -1.845238,5.68179 -1.269126,0.59269 -5.7766542,2.94751 -7.1964719,3.10198 -0.5998283,-0.10263 -1.0340638,0.06 -1.1941999,0.70792 -0.039667,0.16118 -0.1221484,0.32069 -0.2178523,0.45711 -0.2272967,0.32363 -0.5672974,0.42689 -0.944866,0.3996 -0.3590995,-0.0262 -0.5918531,-0.26108 -0.7053965,-0.57023 z m 4.0867242,-10.55199 c -0.4396922,-0.23527 -1.1849653,1.2622 -1.1578912,1.41521 -0.0042,0.051 -0.1697905,1.2836 -0.2027412,1.54301 -0.00965,0.38324 -0.168741,2.79472 -0.3611982,3.60296 -0.06905,0.29047 0.077235,0.4187 0.3930995,0.32573 0.4659269,-0.13684 0.9337427,-0.27809 1.4099535,-0.36876 0.3282476,-0.0625 2.7703759,-1.04476 3.6747361,-1.44227 0.104309,-0.0457 2.009152,-1.19756 2.105066,-1.65719 0.09885,-0.47432 0.174618,-0.82167 -0.148173,-1.02882 -0.970681,-0.62354 -2.023004,-1.07876 -3.1057599,-1.47312 -0.8663721,-0.31524 -1.7873122,-0.47831 -2.6070916,-0.91675 z m 0.2705314,-5.91244 c 0.4890133,0.493 5.3780971,-2.98655 5.8450741,-3.49088 0.331605,-0.35805 1.778497,-2.39134 1.297879,-3.24323 C 13.377615,9.1684394 9.25752,8.3893794 8.232271,8.9933994 c -0.1828028,0.10767 -0.3257291,0.25584 -0.4067416,0.44998 -0.1231977,0.29446 -0.2344325,0.5958396 -0.3370624,0.8957496 -0.4440996,1.29872 -1.1125577,5.25154 -0.991039,5.91203 0.053938,0.29278 0.00252,0.37526 0.3345439,0.71001 z"
     style="fill:#aa0000;stroke-width:0.20987697"
     inkscape:connector-curvature="0" />
  <path
     id="XMLID_719_"
     d="m 46.93862,13.157149 c -0.950952,2.22952 6.954273,14.08694 7.222286,13.7715 0.169161,-0.19876 0.684829,0.80089 0.83657,1.08233 0.215544,0.39961 -0.06233,0.36519 -0.337692,0.67056 -0.727224,0.80572 -8.20577,4.21013 -8.885771,4.47311 -1.014755,0.39226 -3.691316,-0.47432 -3.810316,-0.71967 -0.277877,-0.57359 2.45535,-2.43751 2.980043,-2.88686 0.629001,-0.53875 1.720361,-0.87581 2.710981,-1.23554 0.457531,-0.16602 0.81747,-0.31398 1.2452,-0.0497 0.04386,0.029 0.03421,0.1723 -0.0013,0.21239 -0.355951,0.3994 -1.017273,0.52322 -1.302706,0.91884 -0.09193,0.12698 -0.270531,0.23129 -0.109346,0.47034 0.135371,0.20001 0.350495,0.042 0.4951,-0.0659 0.478309,-0.35743 0.876656,-0.60193 1.310472,-1.06093 0.20337,-0.28082 0.224568,-0.53561 0.47705,-0.80383 0,0 0.320062,-0.53708 0.320482,-0.53708 0.930385,-1.25947 -5.515357,-8.80685 -6.460013,-9.46944 -0.378618,-0.2657 -0.416396,-0.82628 -0.523643,-1.29242 -0.449137,-1.95038 0.277038,-3.62121 1.308373,-5.16885 1.10878,-1.6641096 2.734907,-2.7787696 4.425885,-3.8019196 0.455643,-0.27557 2.657253,-1.35622 3.061266,-1.55729 0.574643,-0.2848 1.148447,-0.57737 1.770102,-0.74086 1.069743,-0.28208 1.363571,0.25899 1.726238,1.29893 0.27389,0.78536 -5.469813,6.1376396 -6.176049,5.5711796 -0.349655,-0.75178 -0.303063,-0.96732 0.351544,-1.54259 0.239469,-0.2103 0.492161,-0.40528 0.735409,-0.61159 0.112494,-0.0953 0.137679,-0.2207896 0.08227,-0.3559496 -0.034,-0.0831 -0.111025,-0.0961 -0.185951,-0.0661 -0.967742,0.3893196 -3.125697,3.1674596 -3.266525,3.4973896 z"
     style="fill:#aa0000;stroke-width:0.20987697"
     inkscape:connector-curvature="0" />
  <path
     id="XMLID_716_"
     d="m 23.748895,12.444619 c 0.13621,-0.0216 1.396102,-0.0871 1.748695,-0.1062 0.175877,-0.0449 0.61389,0.14209 0.659643,0.27536 0.115223,0.28144 0.186581,0.56583 0.15426,0.87833 -0.07598,0.73961 -1.223793,0.61998 -1.350559,0.63152 -0.884211,0.081 -1.772411,0.13747 -2.649486,0.26886 -0.833002,0.12508 -1.704411,0.34524 -1.975362,1.26409 -0.237161,0.8055 -0.455223,3.37524 -0.431297,3.62331 0.04533,0.46887 3.373562,0.0548 4.512144,-0.36917 0.07745,-0.0288 0.925978,-0.25416 1.241213,-0.38534 0.249124,-0.10347 0.435704,-0.23884 0.755557,-0.51042 l -0.0048,0.005 c 0.370432,-0.0758 0.546099,0.19162 0.796273,0.57737 0.06401,-0.36749 0.488803,-0.97194 -0.269062,-1.03406 -0.143137,-0.0118 -0.152581,-0.18784 -0.136001,-0.32741 0.07388,-0.61872 0.01385,-1.26703 0.407791,-1.81439 0.167482,-0.0269 1.205533,-1.02692 1.251916,-1.23995 0.250383,-1.14992 2.451363,-5.8129596 2.368462,-6.1508596 -0.164334,-0.66846 -0.144186,-0.73394 0.529519,-0.94928 0.122149,-0.039 1.284238,-1.11339 1.765066,-1.57324 0.359729,-0.1998 0.722606,-0.46068 1.042249,0.0575 -0.0027,0.10473 -0.244507,0.90394 -0.282915,0.97971 -0.287741,0.66342 0.727224,1.22337 0.909397,1.35601 0.179025,0.13034 0.445569,0.17042 0.500557,0.42479 0.174827,0.80425 0.08689,5.5764296 0.516507,5.8799196 0.378618,0.26738 0.313976,0.55869 0.0254,0.77738 -0.292778,0.22142 -0.891347,6.3259 -1.17699,6.53851 -0.172729,0.12865 -0.326778,0.28606 -0.548618,0.20778 -0.22142,-0.0785 -0.20421,-0.29761 -0.195186,-0.48419 0.01112,-0.22415 0.01595,-3.2554 0.202741,-4.54237 0.04806,-0.33076 0.05415,-0.75262 -0.18679,-0.97005 -0.325519,-0.29446 -4.852775,1.10983 -5.033689,1.73421 -0.139358,0.48041 -1.366509,4.41078 -1.555818,4.73714 -0.171889,0.2976 -0.461729,0.31691 -0.745693,0.24576 -0.281445,-0.0703 -0.291309,-0.33202 -0.262346,-0.55617 0.04848,-0.3719 0.519026,-2.02363 0.550087,-2.61717 -0.56184,0.54191 -1.145088,0.95998 -1.686991,1.06177 0,0 -4.627157,1.32936 -5.590702,0.99776 -0.380717,-0.13118 -1.267027,-1.14845 -1.259052,-1.47733 0.03652,-1.52308 0.134321,-3.04552 0.387433,-4.54467 0.195815,-1.1602 0.152161,-2.17286 0.446618,-3.49488 0.10179,-0.45711 0.225198,-0.91464 0.314815,-1.37679 0.160766,-0.8325796 0.422903,-1.5946396 0.950323,-2.3015096 0.480409,-0.64432 1.182447,-1.18937 1.72372,-1.52559 0.687137,-0.4271 2.699857,-0.89639 2.945623,-0.91192 0.670977,-0.042 1.764016,-0.28522 2.227844,0.72911 0.01049,0.0225 -0.08437,0.85504 -0.219531,1.2578 -0.115643,0.34461 -0.397927,0.48523 -0.720718,0.27976 -0.901002,-0.57464 -1.847967,-0.38785 -2.806265,-0.23569 -0.857137,0.13621 -1.548262,0.45648 -1.760658,1.38939 -0.06275,0.2743 -0.09151,0.5568 -0.162444,0.8288 -0.25689,0.9851596 -0.528471,1.9667596 -0.787878,2.9517096 -0.05688,0.21512 -0.13789,0.45627 0.06569,0.63278 0.172099,0.14943 0.327198,0.009 0.442421,-0.11124 0.643482,-0.67307 1.492015,-0.84328 2.356918,-0.9818 z m 8.262016,-2.3819 c -0.449556,1.06534 -2.059732,4.62968 -2.025102,4.78415 0.03085,0.13684 0.163704,0.14272 0.275988,0.13327 1.059459,-0.0884 3.651439,-0.45606 3.68502,-0.81159 0.09235,-0.97719 -0.09088,-1.92562 -0.170001,-2.89798 -0.03715,-0.45376 -0.716939,-1.4175096 -0.778643,-1.4739696 -0.353433,-0.32342 -0.766051,-0.25794 -0.987262,0.2661196 z"
     style="fill:#aa0000;stroke-width:0.20987697"
     inkscape:connector-curvature="0" />
  <path
     id="XMLID_715_"
     d="m 40.396546,20.922599 c -0.172519,0.26465 -1.308583,0.54988 -1.270176,0.16412 0.05394,-0.54652 -0.177556,-1.06428 -0.103889,-1.60304 -0.09759,-0.3635 -0.0055,-0.72953 0.0031,-1.09388 0.02519,-1.08422 -0.0256,-2.16928 0.125926,-3.25183 0.141038,-1.00867 0.472433,-4.85131 0.577792,-5.4179696 0.0934,-0.50287 0.143136,-1.01728 0.165383,-1.52833 0.01616,-0.37736 -0.216383,-0.55785 -0.592273,-0.46425 -0.549668,0.13642 -1.119904,0.23863 -1.631164,0.46698 -0.370852,0.1658 -0.758075,0.15804 -1.12599,0.28207 -0.34084,0.11481 -0.146074,-0.9031 -0.115642,-1.19168 0.144186,-1.36693 7.143792,-1.61983 7.375916,-1.32894 0.319223,0.39982 0.150692,0.99356 0.0934,1.48383 -0.04261,0.36351 -2.079251,-0.0124 -2.57519,0.0915 -0.276828,0.0579 0.04806,1.63998 -0.10179,2.41841 -0.34105,1.7688396 -0.229606,3.2734496 -0.5461,5.0469096 -0.151531,0.84854 -0.173149,2.03161 -0.2571,2.88812 -0.09906,1.00888 -0.145654,2.02447 -0.02225,3.03797 z"
     style="fill:#aa0000;stroke-width:0.20987697"
     inkscape:connector-curvature="0" />
  <path
     id="XMLID_711_"
     d="m 14.030332,0.22641939 c 0.07828,-0.0147 0.156359,-0.0287 0.234223,-0.0434 0.71673,0.001 1.43325,0.002 2.14998,0.004 0.05982,0.0399 0.172309,0.0798 0.172309,0.11921 -4.2e-4,0.55345 0.347346,0.55492 0.746532,0.48377 l -0.0094,-0.002 c -0.0069,0.84707001 -0.01343,1.69392001 -0.02078,2.54056001 -0.0027,0.32573 0.09969,0.71421 -0.464458,0.66657 -0.171679,-0.0145 -0.194766,0.15699 -0.183013,0.29173 0.02896,0.33371 -0.174407,0.35301 -0.428359,0.35238 -0.924927,-0.003 -1.849645,0.005 -2.774783,0.009 l 0.0027,0.009 c -0.0023,-0.31019 0.179235,-0.71379 -0.400865,-0.71421 -0.174827,0 -0.171679,-0.17105 -0.171889,-0.30201 -0.0017,-0.61977 -0.0015,-1.23953 2.1e-4,-1.85909 4.2e-4,-0.13579 0.01763,-0.25038 0.190359,-0.29047 0.372531,-0.0865 0.349655,-0.38848 0.343778,-0.67245001 0.30768,-0.11165 0.723446,-0.0193 0.61347,-0.59185 z m 1.441225,3.72700001 c 0.100741,-0.0367 0.609483,-0.0607 0.600878,-0.3144 -0.02435,-0.72512 -0.0319,-1.45088 -0.04575,-2.17663 0.111445,-0.50770001 -0.06296,-0.66720001 -0.606964,-0.68168001 -0.602767,-0.016 -0.744853,0.18574 -0.700989,0.73645001 0.04596,0.57947 0.01007,1.16524 0.01028,1.74828 8.39e-4,0.74422 8.39e-4,0.74422 0.742545,0.68798 z"
     style="fill:#aa0000;stroke-width:0.20987697"
     inkscape:connector-curvature="0" />
  <path
     id="XMLID_710_"
     d="m 32.543369,0.19514939 c 0.90415,0.10095 1.839362,-0.0231 2.744771,0.005 0.211976,0.006 0.475581,-0.0724 0.481248,0.29676 0.0055,0.37127 -0.25605,0.30286 -0.471593,0.30495 -0.510421,0.005 -1.02378,0.0382 -1.529794,-0.009 -0.512729,-0.0476 -0.550717,0.21806001 -0.52868,0.60549001 0.02015,0.35071 -0.08647,0.77235 0.515458,0.66825 0.05541,-0.01 1.021261,0.0212 1.448991,0.0514 0,0 -0.02288,0.004 -0.02288,0.004 0.06045,0.50203 -0.174408,0.6588 -0.652927,0.59878 -0.295297,-0.0369 -0.599828,-0.009 -0.900162,-0.005 -0.127815,10e-4 -0.32447,-0.0273 -0.34168,0.1169 -0.04009,0.33119 -0.133482,0.70582 -0.0021,0.99881 0.09214,0.20547 0.418915,0.0961 0.645162,0.1211 0.621026,0.0682 1.249188,0.008 1.873991,0.0118 l -0.01112,-0.004 c 0.115222,0.50329 -0.03946,0.71148 -0.599829,0.68756 -1.000483,-0.0426 -2.003905,-0.0204 -3.005857,-0.007 -0.27368,0.004 -0.847693,0.0357 -0.841187,-0.006 -0.0057,-1.07352 -0.04198,-2.10024 -0.04785,-3.17334 l -0.0027,0.005 c 0.311248,0.0625 0.52889,0.026 0.618088,-0.13873 0.06653,-0.12298 0.07346,-0.30977 0.07577,-0.53812001 l -0.0097,0.007 c 0.161186,-0.0716 0.355112,0.001 0.536866,-0.14146 0.01742,-0.14587 0.0061,-0.2464 0.0277,-0.46152 z"
     style="fill:#aa0000;stroke-width:0.20987697"
     inkscape:connector-curvature="0" />
  <path
     id="XMLID_598_"
     d="m 22.1022,1.4793894 c 0.383236,0.0315 0.684829,0.009 0.701829,-0.51756001 0.0076,-0.23212 0.665939,-0.72198 0.780113,-0.77508 0.71484,-0.001 1.429891,-0.002 2.144942,-0.003 0.126766,0.39079 0.08521,0.68147 0.807817,0.61934 0.03421,0.31146001 -0.0023,0.52742001 0.0044,0.79040001 0.0065,0.25899 0.01637,0.50433 -0.362458,0.47768 -0.174827,-0.0122 -0.294247,0.0831 -0.28963,0.26948 0.0061,0.24997 -0.07514,0.3973 -0.354692,0.37988 -0.122358,-0.008 -0.252482,0.0472 -0.243877,0.17797 0.03778,0.57444 -0.337482,0.47643 -0.677693,0.42501 -0.461519,-0.0697 -0.68084,0.0963 -0.599198,0.57863 0.09696,0.57128 -0.0978,0.74002 -0.718829,0.7459 -0.382815,0.004 -0.791446,8.4e-4 -1.187903,0.006 -0.0017,-1.05862 -0.0036,-2.11682 -0.0048,-3.1746 z m 1.91135,0.27305 c 6.29e-4,0 0.0013,0 0.0021,0 0,0.22498 6.29e-4,0.44976 -4.2e-4,0.67475 -6.3e-4,0.17063 0.05016,0.29005 0.252272,0.29257 0.184062,0.002 0.357001,-0.0138 0.350075,-0.25122 -0.0094,-0.3165 0.15384,-0.38177 0.442001,-0.43949 0.40863,-0.0821 0.175877,-0.46089 0.208407,-0.70497 0.02351,-0.17588 0.105359,-0.41892001 -0.189309,-0.51294001 -0.704766,-0.22499 -1.064915,0.0321 -1.065125,0.77298001 0,0.056 0,0.11228 0,0.16832 z"
     style="fill:#aa0000;stroke-width:0.20987697"
     inkscape:connector-curvature="0" />
  <path
     id="XMLID_552_"
     d="m 28.915856,28.126629 c 0.07597,0.0661 0.59731,0.87476 0.844335,1.12703 0.100741,0.13915 0.224358,0.50791 0.383445,0.14965 0.317544,-0.71463 0.662372,-1.42989 0.808866,-2.21106 0.270112,-0.67013 0.539804,-1.34111 0.810125,-2.01125 0.114173,-0.0915 0.873088,-0.53309 1.117805,-0.0905 0.120049,0.28585 0.240099,0.57212 0.360149,0.85797 0.346297,1.1921 0.790606,2.3458 1.344891,3.45689 0.06233,0.2019 0.303692,0.50622 0.0084,0.5801 -0.305581,0.0762 -0.731421,0.23842 -1.00573,-0.12194 -0.136,-0.17861 -0.199593,-0.41178 -0.296137,-0.6204 -0.01931,-0.31544 -0.166852,-0.46068 -0.502655,-0.43738 -0.352593,0.025 -0.708125,0.004 -1.062817,0.007 -0.144185,0.001 -0.366025,0.006 -0.379457,0.23087 0,0 -0.282914,0.59206 -0.29047,0.87812 -0.75073,-0.004 -1.50146,-0.008 -2.25261,-0.0124 -0.353432,-0.56142 -0.709174,-1.12137 -1.059249,-1.68468 -0.121728,-0.19561 -0.262765,-0.19204 -0.51084,-0.22226 -0.311457,-0.0466 -0.20484,0.19497 -0.208618,0.32741 -0.01637,0.53539 -0.01385,1.07205 -0.01868,1.60786 -0.346297,0.15846 -0.695112,0.13474 -1.045187,0.0126 0.0069,-1.50965 0.01301,-3.0195 0.02225,-4.52894 0.0015,-0.20064 -0.05772,-0.41996 0.136,-0.57758 0.09256,-0.01 0.185322,-0.0187 0.278087,-0.0285 0.604026,-6.3e-4 1.208052,-10e-4 1.812078,-0.002 0.271581,0.0365 0.553865,0.0392 0.772767,0.24324 0.49363,0.34525 0.706446,0.81076 0.617248,1.41164 -0.05918,0.40002 -1.190632,1.2177 -0.683989,1.65824 z m 3.841588,-0.37464 c 0.0092,-0.25101 -0.191618,-1.16964 -0.413038,-1.21245 -0.237371,-0.046 -0.391211,0.80047 -0.467606,1.0221 -0.202951,0.53686 0.866582,0.57359 0.880644,0.19035 z m -5.740765,-1.29787 c 0.110186,0.34189 -0.236951,0.74422 0.430248,0.72155 0.701199,-0.0235 1.079817,-0.28081 1.063866,-0.80551 -0.01385,-0.45564 -0.330766,-0.62816 -0.983903,-0.67811 -0.663841,-0.0497 -0.456062,0.39415 -0.510211,0.76207 z"
     style="fill:#aa0000;stroke-width:0.20987697"
     inkscape:connector-curvature="0" />
  <path
     id="XMLID_549_"
     d="m 16.179263,25.032829 c 1.112138,-0.61326 2.639202,-0.34462 3.2065,0.56457 0.668668,1.2133 0.598149,2.42492 -0.0069,3.6357 -0.591433,0.7331 -1.396312,0.87015 -2.291647,0.8437 -0.168531,-0.0262 -1.018323,-0.34609 -1.115076,-0.50097 -0.04596,0.0189 -0.395198,-0.41556 -0.455643,-0.49175 -0.430458,-0.54295 -0.343988,-1.16376 -0.335593,-1.80893 0.0046,-0.34755 0.382396,-1.99467 0.998385,-2.24232 z m 2.066658,3.76477 0.113124,-0.11207 c 0.393519,-0.33979 0.359729,-1.45151 0.339791,-1.65152 -0.1721,-1.72414 -1.7063,-1.58122 -2.148091,-0.87225 -0.359519,0.57716 -0.35868,1.91387 0.03883,2.47466 0.380927,0.53791 1.09178,0.60696 1.656349,0.16118 z"
     style="fill:#aa0000;stroke-width:0.20987697"
     inkscape:connector-curvature="0" />
  <path
     id="XMLID_548_"
     d="m 38.558233,25.825529 c -0.376099,-0.009 -0.751989,-0.0181 -1.128508,-0.0281 -0.582409,-0.0151 -1.080237,0.14712 -1.309423,0.73121 -0.275568,0.70309 -0.342099,1.39841 0.20589,2.03119 0.393099,0.45418 0.86973,0.59773 1.444793,0.44326 0.640964,-0.15153 0.371062,-0.54337 0.23863,-0.8989 l 0.0027,0.003 c -0.211976,-0.25186 -0.517766,-0.15573 -0.780742,-0.19225 -0.23947,-0.0332 -0.321741,-0.12656 -0.314816,-0.3591 0.0069,-0.22751 0.122778,-0.28333 0.322791,-0.28124 0.471174,0.006 0.942558,0.005 1.413941,0 0.197704,-0.002 0.329297,0.0489 0.319433,0.27977 -0.02917,0.71001 0.07724,1.42465 -0.07367,2.13046 l -0.0023,-0.0149 c -0.243877,0.24241 -0.391001,0.23968 -0.558693,0.24682 l 0.0042,-0.002 c -0.650409,0.14964 -1.345102,-0.009 -1.999708,0.0682 -0.639915,-0.32762 -1.165447,-0.6947 -1.399879,-1.41688 -0.22289,-1.07394 -0.211766,-2.11325 0.456272,-3.05518 0.04156,-0.16245 1.599892,-0.70456 2.256387,-0.7182 1.029237,-0.021 1.021052,0.17357 0.902681,1.0328 z"
     style="fill:#aa0000;stroke-width:0.20987697"
     inkscape:connector-curvature="0" />
  <path
     id="XMLID_547_"
     d="m 42.883588,27.004829 c 2.09e-4,0.2443 6.29e-4,0.48902 6.29e-4,0.73331 -0.536865,0.13055 -1.084014,0.0709 -1.623398,0.052 -0.56352,-0.0199 -0.401705,0.35721 -0.412828,0.64034 -0.01112,0.2869 -0.09361,0.59689 0.415136,0.5822 0.613681,-0.0176 1.235756,-0.0926 1.846708,0.0537 2.1e-4,0.27305 6.3e-4,0.54673 6.3e-4,0.81999 -1.09241,0.0107 -2.18461,0.021 -3.277019,0.0315 -0.03694,-1.69329 -0.05289,-3.38658 0.0084,-5.07966 1.051483,-0.003 2.103177,-0.005 3.15508,-0.007 0.186581,0.89953 0.158247,0.93752 -0.706026,0.93794 -0.374211,2.1e-4 -0.748841,-0.005 -1.122842,0.003 -0.136,0.003 -0.32447,-0.0477 -0.310618,0.19938 6.3e-4,0.22457 0.0013,0.44914 0.0021,0.67349 -0.02833,0.35784 0.244297,0.24451 0.422902,0.26256 0.532878,0.0537 1.077718,-0.10221 1.601152,0.0978 z"
     style="fill:#aa0000;stroke-width:0.20987697"
     inkscape:connector-curvature="0" />
  <path
     id="XMLID_546_"
     d="m 21.645928,30.013209 c -0.340211,6.3e-4 -0.685668,0.0915 -1.015805,-0.0644 0.0019,-1.6935 0.0031,-3.38679 0.005,-5.07966 1.086743,-0.009 2.173696,-0.017 3.261069,-0.0256 0.03463,0.92619 0.03463,0.92619 -0.897644,0.92619 -0.170001,0 -0.339791,0 -0.509581,0 -0.913595,0 -0.902261,-6.3e-4 -0.848953,0.89449 0.01448,0.24493 0.0892,0.33329 0.329507,0.32804 0.471594,-0.01 0.944446,0.0141 1.41541,-0.007 0.400865,-0.0176 0.335384,0.24682 0.346927,0.48692 0.01175,0.25269 -0.0086,0.44221 -0.350075,0.41975 -0.37568,-0.025 -0.756606,0.0197 -1.131656,-0.0122 -0.430878,-0.0365 -0.613051,0.0867 -0.58136,0.55491 0.03547,0.5226 -0.01154,1.05128 -0.02288,1.57807 z"
     style="fill:#aa0000;stroke-width:0.20987697"
     inkscape:connector-curvature="0" />
</svg>
