<?xml version="1.0" encoding="UTF-8" standalone="no"?>
<svg
   xmlns:dc="http://purl.org/dc/elements/1.1/"
   xmlns:cc="http://creativecommons.org/ns#"
   xmlns:rdf="http://www.w3.org/1999/02/22-rdf-syntax-ns#"
   xmlns:svg="http://www.w3.org/2000/svg"
   xmlns="http://www.w3.org/2000/svg"
   xmlns:sodipodi="http://sodipodi.sourceforge.net/DTD/sodipodi-0.dtd"
   xmlns:inkscape="http://www.inkscape.org/namespaces/inkscape"
   version="1.1"
   id="svg18"
   sodipodi:docname="pc.svg"
   inkscape:version="0.92.5 (2060ec1f9f, 2020-04-08)"
   width="77.379341"
   height="34.000031">
  <metadata
     id="metadata24">
    <rdf:RDF>
      <cc:Work
         rdf:about="">
        <dc:format>image/svg+xml</dc:format>
        <dc:type
           rdf:resource="http://purl.org/dc/dcmitype/StillImage" />
        <dc:title></dc:title>
      </cc:Work>
    </rdf:RDF>
  </metadata>
  <defs
     id="defs22" />
  <sodipodi:namedview
     pagecolor="#ffffff"
     bordercolor="#666666"
     borderopacity="1"
     objecttolerance="10"
     gridtolerance="10"
     guidetolerance="10"
     inkscape:pageopacity="0"
     inkscape:pageshadow="2"
     inkscape:window-width="1440"
     inkscape:window-height="837"
     id="namedview20"
     showgrid="false"
     inkscape:zoom="0.98083333"
     inkscape:cx="43.244315"
     inkscape:cy="39.182342"
     inkscape:window-x="0"
     inkscape:window-y="0"
     inkscape:window-maximized="1"
     inkscape:current-layer="svg18"
     fit-margin-top="0"
     fit-margin-left="0"
     fit-margin-right="0"
     fit-margin-bottom="0" />
  <path
     d="M 2.4928455,13.6468 C 1.0399313,12.525972 0.24532766,10.739799 0.01465518,8.9597809 0.01260345,8.2413849 0.04543105,7.5218149 0,6.8034189 0.16355177,5.1227629 0.87637956,3.4517799 2.1566558,2.3124859 3.2212078,1.3446579 4.6295703,0.81296893 6.0525879,0.66377893 6.0707609,1.9420029 6.1097429,3.2211069 6.1015359,4.4990389 5.1633115,4.6608319 4.3203458,5.2684349 3.8713112,6.1026079 3.3912076,6.9883669 3.2393799,8.0787119 3.5767421,9.0383329 3.7558284,9.5574189 4.0430698,10.05804 4.4865355,10.395989 5.0621908,10.847368 5.9406221,10.784937 6.4986912,10.336779 7.063502,9.8745569 7.3334504,9.1658329 7.5515194,8.4934539 8.034554,6.8881259 8.2400196,5.2080559 8.8291577,3.6323309 9.231882,2.5413999 9.8517959,1.4745029 10.83721,0.80827893 c 1.13138,-0.761776 2.574328,-0.92269 3.901501,-0.739207 1.393121,0.189638 2.692156,0.93118997 3.572932,2.01743097 1.202311,1.45907 1.720518,3.382708 1.701466,5.246554 -0.0255,1.801414 -0.497397,3.6432771 -1.58569,5.1079151 -0.729242,0.98688 -1.768587,1.754518 -2.953897,2.101552 -0.578294,0.186121 -1.187656,0.236535 -1.791156,0.266724 -0.01641,-1.256534 0.01817,-2.512776 -8.79e-4,-3.77019 1.053707,-0.360811 1.969362,-1.1407591 2.393776,-2.1765871 0.43819,-1.044328 0.495345,-2.267156 0.05188,-3.320277 -0.212794,-0.50531 -0.534621,-0.989811 -1.010915,-1.282328 -0.524655,-0.325638 -1.237483,-0.3655 -1.766535,-0.02814 -0.51381,0.323587 -0.801931,0.886931 -1.021172,1.430932 -0.397156,1.033776 -0.599983,2.126466 -0.872863,3.196001 C 11.106865,10.248849 10.707365,11.671573 9.8561925,12.850436 9.2626578,13.686369 8.3792438,14.3183 7.3788814,14.573007 5.724312,14.998886 3.8505011,14.712231 2.4928455,13.6468 Z"
     style="opacity:1;fill:#aa0000;stroke-width:0.29310355"
     id="path2"
     inkscape:connector-curvature="0" />
  <path
     d="M 0.32152871,33.10429 C 0.30892521,31.27064 0.31976971,29.43815 0.31537371,27.6045 4.0119955,26.62319 7.7223931,25.692 11.415497,24.70131 7.7206345,23.95272 4.0093576,23.27653 0.31273578,22.53644 c 0.008793,-2.07458 -8.7931e-4,-4.14976 0.004103,-6.224636 6.51276042,-0.0023 13.02522822,0.0041 19.53798822,-0.0032 0.0044,1.250966 0.01084,2.500756 -0.0038,3.751426 -3.615725,0.0765 -7.232623,0.13512 -10.8465896,0.24562 3.6195356,0.72749 7.2326236,1.49131 10.8512796,2.22524 0.0044,1.32894 0.0056,2.65757 0,3.98621 -3.44045,0.89602 -6.885295,1.77299 -10.3222277,2.68278 0.3145001,0.0311 0.6310527,0.029 0.9467247,0.0264 3.125656,-0.004 6.250433,0.003 9.376382,-0.003 0.0047,0.96109 5.86e-4,1.92159 0.0026,2.88267 -8.79e-4,0.33238 0.01905,0.66769 -0.0381,0.99802 z"
     style="opacity:1;fill:#aa0000;stroke-width:0.29310355"
     id="path4"
     inkscape:connector-curvature="0" />
  <path
     d="m 41.040952,2.8911639 c 2.79826,-2.14727697 6.418088,-3.01281197 9.911296,-2.87739797 1.614414,0.08031 3.21388,0.376345 4.768501,0.810725 0.05686,0.03341 0.168242,0.09878 0.224518,0.130724 C 54.04537,2.2850249 52.41249,4.0436469 51.389265,6.1287849 c -1.929207,-0.217483 -3.927001,0.265845 -5.503311,1.404552 -1.972001,1.376121 -3.403226,3.5717601 -3.667312,5.9725711 -0.305414,2.425139 -0.589431,4.853212 -0.891914,7.278342 -0.08852,0.67121 -0.117534,1.37114 -0.423241,1.98901 -0.42588,0.89308 -1.069242,1.666 -1.745725,2.38293 -0.614052,0.6375 -1.547294,0.74096 -2.387328,0.75005 -1.955294,-4.2884 -2.353915,-9.214297 -1.330397,-13.795798 0.78669,-3.5609151 2.639397,-6.9913991 5.600915,-9.2192781 z"
     style="opacity:1;fill:#aa0000;stroke-width:0.29310355"
     id="path6"
     inkscape:connector-curvature="0" />
  <path
     d="m 55.754456,2.3125769 c 2.883846,-1.86003497 6.477882,-2.26246597 9.833624,-1.91777597 2.969139,0.296034 6.005691,1.36820697 8.058588,3.60634597 1.690622,1.792035 2.483467,4.238277 2.65757,6.6531571 -2.136725,0.03928 -4.275208,0.02081 -6.411933,0.0088 -0.232431,-1.2755871 -0.886052,-2.4934321 -1.930673,-3.2892081 -1.513879,-1.166259 -3.538932,-1.489552 -5.40395,-1.252725 -1.402207,0.203707 -2.873293,0.648345 -3.86457,1.711432 -0.592655,0.657431 -0.97281,1.655156 -0.587965,2.5054491 0.374293,1.04638 0.737741,2.097156 1.102948,3.146466 0.56188,1.675087 0.300725,3.472984 0.122224,5.190572 -2.349224,-0.62724 -4.77788,-1.646071 -6.268605,-3.64914 C 51.6258,13.080622 51.44261,10.50219 51.8383,8.1910689 c 0.404776,-2.393191 1.857397,-4.575347 3.916156,-5.878485 z"
     style="opacity:1;fill:#aa0000;stroke-width:0.29310355"
     id="path8"
     inkscape:connector-curvature="0" />
  <path
     d="m 22.85124,1.2421629 c 3.919087,-0.104931 7.840226,-0.203707 11.760779,-0.29632797 1.941518,-0.0062 3.879812,0.28255197 5.728123,0.88106997 0.0088,0.267017 -0.04279,0.526707 -0.282552,0.683224 -1.608552,1.399862 -2.813501,3.178122 -3.904432,4.986863 -2.258949,-0.01055 -4.517898,0.04103 -6.778313,0.0425 0.04573,6.3870191 0.01055,12.7769681 0.05481,19.1654581 1.370259,0.10932 2.743156,0.2081 4.11488,0.28401 1.327173,-0.005 2.654639,-0.0229 3.982105,-0.0457 1.278224,-0.0425 2.303207,-0.95962 3.06088,-1.90107 1.012673,-1.31193 1.792914,-2.86538 1.924518,-4.5346 0.170879,-2.03766 0.363448,-4.073851 0.548396,-6.110334 0.07621,-0.865535 0.248845,-1.729604 0.589432,-2.533001 0.743896,-1.816069 2.266569,-3.2555011 4.055087,-4.0468801 2.544725,4.2778461 2.919018,9.5683641 1.744552,14.3307151 -0.852345,3.39531 -2.862449,6.56288 -5.833346,8.49912 -2.900553,1.93302 -6.479347,2.62679 -9.928003,2.47819 -3.612501,-0.15036 -7.227933,-0.24914 -10.836917,-0.43878 z"
     style="opacity:1;fill:#aa0000;stroke-width:0.29310355"
     id="path10"
     inkscape:connector-curvature="0" />
  <path
     d="m 60.588906,7.7610789 c 1.411294,-0.660363 3.013397,-0.648345 4.531674,-0.47219 1.564,2.8261041 2.48669,6.0133121 2.506328,9.2465371 0.0765,3.600484 -0.907155,7.173704 -2.594846,10.344214 -1.701466,0.20048 -3.482363,-0.13366 -4.936449,-1.04961 -0.614345,-0.3825 -1.142811,-1.07481 -0.945552,-1.83248 0.398621,-1.58217 0.940862,-3.1283 1.376121,-4.70138 0.229207,-0.90364 0.132776,-1.840692 0.120759,-2.760744 -0.02902,-1.084483 -0.242983,-2.156363 -0.554552,-3.193656 -0.380449,-1.302845 -0.945552,-2.581363 -1.002121,-3.9542601 0.03371,-0.820103 0.818638,-1.325707 1.498638,-1.626431 z"
     style="opacity:1;fill:#aa0000;stroke-width:0.29310355"
     id="path12"
     inkscape:connector-curvature="0" />
  <path
     d="m 68.511495,14.805529 c 2.340138,0.633397 4.766742,1.406311 6.583105,3.078173 1.503035,1.363808 2.211759,3.393848 2.284742,5.378748 v 1.13577 c -0.103759,1.87557 -0.777311,3.7359 -2.023587,5.16155 -1.657207,1.92569 -4.064467,3.05532 -6.51276,3.62159 -3.259605,0.73511 -6.703864,0.57126 -9.91921,-0.30981 -2.59338,-0.72865 -5.159502,-2.1716 -6.514226,-4.57212 -0.924156,-1.65369 -1.731949,-3.58671 -1.234259,-5.50302 2.089535,-0.0246 4.180536,0.0152 6.271536,0.0302 0.232138,1.42448 0.824794,2.87916 2.017725,3.77048 1.484569,1.11761 3.432242,1.2879 5.23307,1.30578 1.637277,-0.0346 3.387691,-0.20312 4.774657,-1.15219 1.204949,-0.79284 1.678604,-2.51483 0.998897,-3.79188 -0.490362,-0.89309 -1.400742,-1.4365 -2.269794,-1.91016 0.05657,-2.08367 0.2125,-4.162359 0.310104,-6.243101 z"
     style="opacity:1;fill:#aa0000;stroke-width:0.29310355"
     id="path14"
     inkscape:connector-curvature="0" />
  <path
     d="m 48.429213,27.39433 c 0.821569,-0.1275 1.680069,-0.003 2.515414,0.0138 1.084483,2.46002 3.166398,4.3095 5.401019,5.73574 -1.641966,0.55426 -3.370984,0.81952 -5.102932,0.85616 h -0.09643 c -2.504863,-0.0258 -4.983933,-0.5739 -7.314692,-1.46669 -0.0029,-0.0305 -0.0091,-0.0897 -0.01231,-0.12017 0.857034,-0.83359 1.744552,-1.63845 2.615069,-2.46002 0.838569,-0.70785 1.313397,-1.71905 1.994863,-2.55879 z"
     style="opacity:1;fill:#aa0000;stroke-width:0.29310355"
     id="path16"
     inkscape:connector-curvature="0" />
</svg>
