<?xml version="1.0" encoding="UTF-8" standalone="no"?>
<svg
   xmlns:dc="http://purl.org/dc/elements/1.1/"
   xmlns:cc="http://creativecommons.org/ns#"
   xmlns:rdf="http://www.w3.org/1999/02/22-rdf-syntax-ns#"
   xmlns:svg="http://www.w3.org/2000/svg"
   xmlns="http://www.w3.org/2000/svg"
   xmlns:sodipodi="http://sodipodi.sourceforge.net/DTD/sodipodi-0.dtd"
   xmlns:inkscape="http://www.inkscape.org/namespaces/inkscape"
   version="1.1"
   id="svg48"
   sodipodi:docname="pc98.svg"
   inkscape:version="0.92.5 (2060ec1f9f, 2020-04-08)"
   width="96.515976"
   height="34">
  <metadata
     id="metadata54">
    <rdf:RDF>
      <cc:Work
         rdf:about="">
        <dc:format>image/svg+xml</dc:format>
        <dc:type
           rdf:resource="http://purl.org/dc/dcmitype/StillImage" />
        <dc:title></dc:title>
      </cc:Work>
    </rdf:RDF>
  </metadata>
  <defs
     id="defs52" />
  <sodipodi:namedview
     pagecolor="#ffffff"
     bordercolor="#666666"
     borderopacity="1"
     objecttolerance="10"
     gridtolerance="10"
     guidetolerance="10"
     inkscape:pageopacity="0"
     inkscape:pageshadow="2"
     inkscape:window-width="1440"
     inkscape:window-height="837"
     id="namedview50"
     showgrid="false"
     inkscape:zoom="1.3871078"
     inkscape:cx="30.739626"
     inkscape:cy="-97.862736"
     inkscape:window-x="0"
     inkscape:window-y="0"
     inkscape:window-maximized="1"
     inkscape:current-layer="svg48"
     fit-margin-top="0"
     fit-margin-left="0"
     fit-margin-right="0"
     fit-margin-bottom="0" />
  <path
     class="st1"
     d="m 18.342787,8.3643518 h -1.895223 l 1.527438,-3.1086186 c -0.423719,0 -1.563631,-0.2219136 -1.987351,-0.5918915 -0.533397,-0.5001282 -0.975031,-1.4802771 -0.68073,-2.6647913 0.331225,-1.29565372 1.785179,-2.29554449 3.38537,-1.8879108 1.140644,0.29612854 1.803094,0.86974049 1.986621,2.1101901 0.0925,0.5728807 0.05557,1.1282131 -0.330494,1.979674 z M 16.926122,2.7576513 c 0,1.3504924 2.07875,1.3885138 2.07875,0.055569 0,-1.4067933 -2.07875,-1.4067933 -2.07875,-0.055569 z"
     style="fill:#aa0000;stroke-width:0.36559078"
     id="path2"
     inkscape:connector-curvature="0" />
  <path
     class="st1"
     d="m 23.364907,0.09249447 c 1.822105,-0.24055875 3.422296,1.20279363 2.851974,3.09107013 -0.09213,0.2953974 -0.588967,0.9245791 -0.588967,0.9245791 0,0 0.773225,0.7033967 0.846709,1.1662346 0.349505,1.9248356 -1.08544,3.0347692 -2.538663,3.0899735 -1.545717,0.037291 -3.238402,-0.9991598 -2.906813,-2.9791994 0.03656,-0.2592039 0.220818,-0.5184078 0.312581,-0.6847516 0.09177,-0.1663438 0.515117,-0.5922571 0.515117,-0.5922571 0,0 -0.570687,-0.9070308 -0.625525,-1.2949226 -0.184258,-1.3877826 0.643805,-2.51672697 2.133587,-2.72072663 z M 23.015768,2.3876734 c 0,0.9987941 1.508428,0.9987941 1.508428,0.055569 0,-1.055095 -1.508428,-1.0737401 -1.508428,-0.055569 z m 0.772859,4.4042723 c 1.177569,0 1.177569,-1.7767713 -0.01865,-1.7767713 -1.214127,0 -1.177568,1.7767713 0.01865,1.7767713 z"
     style="fill:#aa0000;stroke-width:0.36559078"
     id="path4"
     inkscape:connector-curvature="0" />
  <path
     class="st1"
     d="M 29.713026,0.09249447 C 30.632486,-3e-8 31.441904,0.33305321 31.902184,0.77724602 33.263644,2.0728998 33.484095,6.366398 31.846614,7.7907398 31.18453,8.3829968 29.786511,8.6798565 28.718985,8.1610833 27.707396,7.6616863 27.100515,6.3108282 27.00802,4.7559706 26.842773,2.3130929 27.541784,0.31477367 29.713026,0.09249447 Z m 0.31258,6.69945123 c 1.618836,-0.036925 1.563632,-5.4966576 -0.257742,-5.0151744 -1.287976,0.3140424 -1.269696,5.033454 0.257742,5.0151744 z"
     style="fill:#aa0000;stroke-width:0.36559078"
     id="path6"
     inkscape:connector-curvature="0" />
  <path
     class="st1"
     d="m 36.151811,0.03729026 c 0.920192,-0.0924945 1.72961,0.24019315 2.189523,0.68475155 C 39.702794,2.01733 39.923611,6.3108282 38.286134,7.7359011 37.62368,8.327427 36.22566,8.6235555 35.1585,8.1058791 34.146546,7.606482 33.539299,6.2552585 33.447536,4.7004008 33.281924,2.2578887 33.981299,0.25920387 36.151811,0.03729026 Z m 0.31258,6.69945124 c 1.619202,-0.037291 1.564363,-5.4966576 -0.257011,-5.01554 -1.287976,0.3147736 -1.269696,5.0338196 0.257011,5.01554 z"
     style="fill:#aa0000;stroke-width:0.36559078"
     id="path8"
     inkscape:connector-curvature="0" />
  <path
     class="st1"
     d="M 10.431402,0.1667094 V 1.7950508 C 6.0157965,0.59225708 6.0527211,7.7907398 10.376563,6.5886773 V 8.2162875 C 3.6793057,9.8822846 3.6423811,-1.387417 10.431403,0.1667094 Z"
     style="fill:#aa0000;stroke-width:0.36559078"
     id="path10"
     inkscape:connector-curvature="0" />
  <path
     class="st1"
     d="M 2.1525986,5.0151744 V 3.4054782 c 0.7724934,0 1.2510516,-0.2774834 1.2510516,-0.8331814 0,-0.4621068 -0.073849,-0.9253103 -1.6561263,-0.9253103 V 8.3643518 H 0.05483862 L 0.09176329,0 H 1.7288789 c 3.1466399,0.0186451 3.5147898,1.2770087 3.5147898,2.5163614 0,1.7584917 -1.2331377,2.498813 -3.0910701,2.498813 z"
     style="fill:#aa0000;stroke-width:0.36559078"
     id="path12"
     inkscape:connector-curvature="0" />
  <polygon
     class="st1"
     points="110.561,5.974 110.561,1.67 120.526,1.67 120.526,5.974 "
     style="fill:#aa0000"
     id="polygon14"
     transform="scale(0.36559079)" />
  <path
     class="st1"
     d="M 67.962232,8.2912336 H 66.232987 C 66.030815,7.4584178 64.908086,5.9774094 64.908086,5.9774094 L 63.013229,7.938804 c -0.34987,0.3524296 -0.975031,0.3524296 -1.618836,0.3524296 H 60.86063 V 6.8102253 h 0.367784 c 0.386796,0 0.735935,-0.03656 1.030601,-0.3326877 L 65.570171,2.9612854 C 65.920041,2.6095871 65.73615,2.11019 65.128903,2.11019 L 60.86063,2.12847 V 0.61053682 h 4.286553 c 2.079114,0 2.685995,2.23960918 1.931781,3.05414548 l -1.085805,1.1282132 c 0.01865,0 1.858664,2.6655225 1.969073,3.4983381 z"
     style="fill:#aa0000;stroke-width:0.36559078"
     id="path16"
     inkscape:connector-curvature="0" />
  <polygon
     class="st1"
     points="131.899,11.693 131.899,1.67 136.478,1.67 136.478,11.693 "
     style="fill:#aa0000"
     id="polygon18"
     transform="scale(0.36559079)" />
  <path
     class="st1"
     d="M 54.052964,0.61053662 V 5.3851524 c 0,1.6096962 -1.195482,2.8132211 -2.685995,2.8132211 h -3.12763 V 6.6245051 h 2.906812 c 0.809784,0 1.251053,-0.4248164 1.251053,-1.294557 0,-0.8693749 0,-4.71941148 0,-4.71941148 z"
     style="fill:#aa0000;stroke-width:0.36559078"
     id="path20"
     inkscape:connector-curvature="0" />
  <path
     class="st1"
     d="m 47.319513,1.0364498 v 4.3307886 c 0,1.6469865 -1.489783,2.8311351 -2.833328,2.8311351 H 40.420083 V 6.5327418 h 4.047456 c 0.680731,0 1.214127,-0.3699779 1.214127,-1.1289444 V 1.055095 Z"
     style="fill:#aa0000;stroke-width:0.36559078"
     id="path22"
     inkscape:connector-curvature="0" />
  <polygon
     class="st1"
     points="110.561,8.301 120.526,8.301 120.526,12.554 110.561,12.554 "
     style="fill:#aa0000"
     id="polygon24"
     transform="scale(0.36559079)" />
  <rect
     x="10.486607"
     y="3.6453056"
     class="st1"
     width="4.0474558"
     height="1.2587291"
     style="fill:#aa0000;stroke-width:0.36559078"
     id="rect26" />
  <polygon
     class="st1"
     points="149.664,14.275 149.664,10.124 167.478,10.124 167.478,14.275 "
     style="fill:#aa0000"
     id="polygon28"
     transform="scale(0.36559079)" />
  <ellipse
     class="st1"
     cx="68.532669"
     cy="1.2583326"
     style="fill:#aa0000;stroke-width:0.53503782"
     id="circle30"
     rx="0.68071204"
     ry="0.68471032" />
  <ellipse
     class="st1"
     cx="70.22538"
     cy="1.2583326"
     style="fill:#aa0000;stroke-width:0.53503782"
     id="circle32"
     rx="0.68071204"
     ry="0.68471032" />
  <path
     class="st1"
     d="m 47.871921,33.810202 h -5.372723 l 4.341757,-8.808545 c -1.177203,0 -4.415606,-0.628816 -5.592808,-1.701825 -1.526707,-1.388514 -2.778491,-4.201004 -1.913502,-7.550912 0.957116,-3.682596 5.078056,-6.4775375 9.549231,-5.329948 3.200748,0.814536 5.077324,2.443244 5.629733,5.97741 0.25701,1.629072 0.146602,3.201478 -0.920192,5.607065 z M 43.897949,17.988164 c 0,3.83066 5.886743,3.941799 5.886743,0.148429 0,-3.960445 -5.886743,-3.997369 -5.886743,-0.148429 z"
     style="fill:#aa0000;stroke-width:0.36559078"
     id="path34"
     inkscape:connector-curvature="0" />
  <path
     class="st1"
     d="m 62.884175,10.455531 c 5.16982,-0.6657408 9.67792,3.423758 8.095643,8.736157 -0.239827,0.832085 -1.656127,2.608857 -1.656127,2.608857 0,0 2.152599,2.016598 2.391695,3.312252 0.993311,5.422443 -3.072425,8.605276 -7.212009,8.735426 -4.378681,0.129054 -9.180716,-2.850876 -8.242244,-8.439663 0.128687,-0.758601 0.62516,-1.479912 0.882901,-1.924104 0.257742,-0.444194 1.453589,-1.683911 1.453589,-1.683911 0,0 -1.600922,-2.553653 -1.747889,-3.646038 -0.533763,-3.959713 1.803093,-7.161557 6.034441,-7.698976 z m -1.030234,6.496183 c 0,2.84978 4.268638,2.81249 4.268638,0.148064 0,-3.016124 -4.268638,-3.05378 -4.268638,-0.148064 z m 2.207802,12.418022 c 3.330167,0 3.348447,-5.034185 -0.05521,-5.034185 -3.422296,0.01901 -3.329801,5.034185 0.05521,5.034185 z"
     style="fill:#aa0000;stroke-width:0.36559078"
     id="path36"
     inkscape:connector-curvature="0" />
  <path
     class="st1"
     d="m 80.822254,10.455531 c 2.612511,-0.258107 4.894163,0.685117 6.181774,1.925201 3.826639,3.682596 4.45253,15.785845 -0.146967,19.820139 -1.895224,1.665632 -5.831905,2.516362 -8.831212,1.035719 -2.870253,-1.424341 -4.562938,-5.218077 -4.85724,-9.604436 -0.441267,-6.902353 1.527073,-12.547075 7.653645,-13.176623 z m 0.883267,18.914205 c 4.599863,-0.09287 4.415605,-15.526641 -0.735935,-14.194793 -3.642746,0.943955 -3.587542,14.305202 0.735935,14.194793 z"
     style="fill:#aa0000;stroke-width:0.36559078"
     id="path38"
     inkscape:connector-curvature="0" />
  <path
     class="st1"
     d="m 30.83539,10.640885 v 4.589627 C 18.342787,11.844045 18.43455,32.163581 30.669412,28.795393 V 33.38502 C 11.719379,38.140625 11.627615,6.2366133 30.83539,10.640885 Z"
     style="fill:#aa0000;stroke-width:0.36559078"
     id="path40"
     inkscape:connector-curvature="0" />
  <path
     class="st1"
     d="m 5.9243988,24.390755 0.017914,-4.570982 c 2.2081683,0 3.5327038,-0.776514 3.5327038,-2.387307 0,-1.332214 -0.2208169,-2.646146 -4.6919923,-2.646146 l 0.018645,19.023882 H 0 L 0.05483862,10.178413 H 4.6912611 c 8.9046949,0.03692 9.9535749,3.627027 9.9535749,7.106354 -0.01865,4.996895 -3.477499,7.105988 -8.7204372,7.105988 z"
     style="fill:#aa0000;stroke-width:0.36559078"
     id="path42"
     inkscape:connector-curvature="0" />
  <rect
     x="31.46055"
     y="20.097624"
     class="st1"
     width="5.5376039"
     height="3.1459086"
     style="fill:#aa0000;stroke-width:0.36559078"
     id="rect44" />
  <rect
     x="91.97168"
     y="10.400326"
     class="st1"
     width="4.5442934"
     height="23.409876"
     style="fill:#aa0000;stroke-width:0.36559078"
     id="rect46" />
</svg>
