<?xml version="1.0" encoding="UTF-8" standalone="no"?>
<svg
   xmlns:dc="http://purl.org/dc/elements/1.1/"
   xmlns:cc="http://creativecommons.org/ns#"
   xmlns:rdf="http://www.w3.org/1999/02/22-rdf-syntax-ns#"
   xmlns:svg="http://www.w3.org/2000/svg"
   xmlns="http://www.w3.org/2000/svg"
   xmlns:sodipodi="http://sodipodi.sourceforge.net/DTD/sodipodi-0.dtd"
   xmlns:inkscape="http://www.inkscape.org/namespaces/inkscape"
   version="1.2"
   id="svg32"
   sodipodi:docname="pce-cd.svg"
   inkscape:version="0.92.5 (2060ec1f9f, 2020-04-08)"
   width="299.20041"
   height="34">
  <metadata
     id="metadata38">
    <rdf:RDF>
      <cc:Work
         rdf:about="">
        <dc:format>image/svg+xml</dc:format>
        <dc:type
           rdf:resource="http://purl.org/dc/dcmitype/StillImage" />
        <dc:title></dc:title>
      </cc:Work>
    </rdf:RDF>
  </metadata>
  <defs
     id="defs36" />
  <sodipodi:namedview
     pagecolor="#ffffff"
     bordercolor="#666666"
     borderopacity="1"
     objecttolerance="10"
     gridtolerance="10"
     guidetolerance="10"
     inkscape:pageopacity="0"
     inkscape:pageshadow="2"
     inkscape:window-width="1440"
     inkscape:window-height="837"
     id="namedview34"
     showgrid="false"
     inkscape:zoom="1.9616667"
     inkscape:cx="114.34297"
     inkscape:cy="-46.314891"
     inkscape:window-x="0"
     inkscape:window-y="0"
     inkscape:window-maximized="1"
     inkscape:current-layer="svg32"
     fit-margin-top="0"
     fit-margin-left="0"
     fit-margin-right="0"
     fit-margin-bottom="0" />
  <g
     transform="matrix(0.49866706,0,0,0.51306041,1.6961437e-4,0)"
     id="g30"
     style="fill:#aa0000">
    <path
       d="m 13.119,46.69 c -0.088,0 -0.18,-0.022 -0.262,-0.063 C 4.251,42.448 -0.192,37.583 0.006,32.547 0.17,28.403 3.552,24.489 9.791,21.227 c 5.918,-3.091 14.266,-5.546 24.143,-7.096 0.327,-0.051 0.636,0.173 0.69,0.504 0.05,0.327 -0.174,0.636 -0.505,0.687 C 14.118,18.467 1.51,25.085 1.213,32.597 1.04,37.05 5.36,41.648 13.384,45.546 c 0.299,0.145 0.425,0.501 0.28,0.804 -0.107,0.214 -0.321,0.34 -0.545,0.34 z"
       style="fill:#aa0000"
       id="path2"
       inkscape:connector-curvature="0" />
    <path
       d="m 88.13,15.763 c -0.035,0 -0.066,-0.003 -0.098,-0.01 -6.356,-1.043 -13.068,-1.739 -19.944,-2.067 -0.334,-0.016 -0.59,-0.299 -0.574,-0.633 0.016,-0.331 0.306,-0.586 0.63,-0.574 6.924,0.331 13.68,1.034 20.084,2.083 0.327,0.054 0.551,0.366 0.498,0.694 -0.051,0.296 -0.306,0.507 -0.596,0.507 z"
       style="fill:#aa0000"
       id="path4"
       inkscape:connector-curvature="0" />
    <path
       d="m 69.14,56.967 c -0.17,0 -0.337,0 -0.507,0 -0.334,0 -0.602,-0.271 -0.599,-0.606 0,-0.33 0.268,-0.601 0.602,-0.601 0,0 0,0 0,0 0.167,0 0.337,0 0.504,0 32.285,0 57.761,-8.389 58.098,-19.176 0.117,-3.776 -2.912,-7.604 -8.77,-11.074 -5.83,-3.457 -14.187,-6.4 -24.168,-8.515 -0.324,-0.072 -0.532,-0.391 -0.463,-0.715 0.069,-0.328 0.388,-0.536 0.715,-0.467 10.104,2.143 18.587,5.137 24.53,8.66 6.256,3.706 9.492,7.907 9.363,12.149 -0.18,5.735 -6.517,10.963 -17.843,14.723 -10.951,3.627 -25.658,5.622 -41.462,5.622 z"
       style="fill:#aa0000"
       id="path6"
       inkscape:connector-curvature="0" />
    <polygon
       points="57.776,35.137 76.486,27.665 81.742,33.139 80.066,25.557 95.993,13.418 77.286,20.887 72.027,15.413 73.703,22.995 "
       style="fill:#aa0000"
       id="polygon8" />
    <path
       d="m 60.118,40.715 c 0.227,-1.122 0.646,-0.961 1.784,-1.144 l 1.062,-0.164 -0.331,1.768 -1.059,0.17 c -1.141,0.18 -1.642,0.486 -1.456,-0.63 z m -2.301,-1.62 -0.825,4.444 c -0.227,1.213 0.142,1.601 1.308,1.418 l 6.759,-1.075 1.45,-7.79 -6.76,1.072 c -1.169,0.186 -1.708,0.718 -1.932,1.931 z m 42.906,-7.011 -0.079,0.428 6.971,-1.106 c 0.551,-0.091 1.087,-0.646 1.197,-1.248 0.11,-0.599 -0.242,-1.018 -0.794,-0.929 l -1.79,0.283 -2.855,0.454 -0.725,0.113 c -0.838,0.136 -1.755,1.088 -1.925,2.005 z m -48.912,20.089 0.057,-0.312 c 0.239,0.019 0.561,0.114 0.838,0.07 l 7.248,-1.135 c -0.271,1.444 -2.181,1.806 -5.093,2.269 l -3.318,0.526 -1.777,9.562 4.355,-0.691 C 64.848,61.404 68.929,55.86 70.24,49.252 l 13.069,-2.073 2.108,-11.336 1.062,-0.167 c 1.166,-0.186 0.992,-0.397 0.769,0.813 l -1.929,10.368 9.385,-1.487 0.129,-0.687 c 0.706,0.312 1.535,0.422 2.411,0.283 l 16.229,-2.571 1.513,-8.146 -1.053,-0.75 c 0.911,-1.078 1.623,-2.399 1.828,-3.508 l 0.255,-1.286 c 0.81,-4.802 -3.621,-6.078 -5.641,-5.757 l -9.312,1.478 c -1.648,0.261 -3.466,1.409 -4.787,2.934 -1.223,-1.21 -3.11,-1.68 -4.207,-1.507 l -10.365,1.645 1.16,2.566 9.35,-1.481 c 1.346,-0.218 2.25,0.321 2.496,1.389 -0.098,0.284 -2.496,13.047 -2.496,13.047 l -3.356,0.532 1.799,-9.662 c 0.224,-1.21 -0.141,-1.601 -1.307,-1.415 l -6.426,1.018 -2.108,11.336 -3.684,0.586 2.411,-12.974 -3.032,-3.58 -10.922,3.945 5.177,-0.819 0.082,-0.013 -3.293,17.708 c -0.835,4.497 -5.635,8.798 -9.892,9.476 l -4.355,0.69 0.659,-3.542 3.315,-0.527 c 2.912,-0.463 6.192,-3.378 6.759,-6.425 l 0.356,-1.919 -8.628,1.367 c -1.85,0.294 -2.855,-0.832 -2.489,-2.785 l 1.547,-8.326 c 0.274,-1.478 1.194,-2.704 2.429,-3.347 l 0.023,-0.22 4.329,-3.331 -2.53,0.425 c -1.343,0.211 -3.838,1.22 -5.427,3.243 -1.197,-1.428 -3.293,-1.989 -4.475,-1.803 l -9.302,1.478 1.519,-8.149 6.785,-1.075 c 3.611,-0.57 7.61,-4.635 8.319,-8.448 l 1.021,-5.49 C 58.227,7.15 55.542,4.15 51.931,4.724 L 37.097,7.075 33.937,24.076 20.282,26.244 C 19.125,26.427 18,27.568 17.777,28.791 l -5.105,27.448 c -0.227,1.222 0.526,2.064 1.682,1.884 l 26.059,-4.134 2.108,-11.336 1.059,-0.17 c 1.169,-0.183 0.996,-0.391 0.769,0.819 L 42.423,53.67 Z m -19.337,-6.214 -8.713,1.38 0.328,-1.768 7.037,-1.118 1.714,-9.209 -7.04,1.116 0.328,-1.768 8.713,-1.383 z m -0.529,2.833 -0.722,3.895 -15.416,2.445 4.806,-25.856 12.734,-2.02 -0.658,3.542 -9.051,1.437 -1.38,7.437 7.371,-1.169 -0.659,3.539 -7.371,1.172 -1.383,7.44 z m 17.71,0.974 -3.687,0.583 1.797,-9.659 c 0.223,-1.213 -0.142,-1.604 -1.308,-1.421 l -6.426,1.021 -2.105,11.335 -3.687,0.586 2.764,-14.874 0.085,-0.016 12.233,-1.938 c 1.85,-0.296 2.856,0.826 2.49,2.786 z m 23.96,-18.24 3.605,-0.571 -2.767,14.878 -3.684,0.583 2.761,-14.874 z m 22.359,7.012 1.279,-6.883 c 0.407,-2.177 2.745,-4.314 4.737,-4.629 l 8.622,-1.368 c 1.452,-0.23 2.461,1.393 2.165,2.981 l -0.423,2.212 c -0.296,1.592 -1.919,3.278 -3.368,3.508 l -8.95,1.421 -0.126,0.804 c -0.174,0.914 0.435,1.626 1.273,1.493 l 9.999,-1.594 -0.674,3.63 -11.282,1.79 c -1.992,0.312 -3.653,-1.188 -3.252,-3.365 z M 42.641,19.251 43.892,12.52 48.584,11.78 c 0.615,-0.098 0.93,0.252 0.807,0.901 l -0.857,4.607 c -0.12,0.649 -0.587,1.122 -1.201,1.223 z"
       style="fill:#aa0000"
       id="path10"
       inkscape:connector-curvature="0" />
    <path
       d="m 72.629,22.4 -0.996,-3.943 -0.561,0.07 -0.18,0.97 c -0.126,0.675 -0.668,1.223 -1.304,1.327 l -3.854,0.611 c -0.637,0.101 -1.003,-0.309 -0.877,-0.98 l 1.942,-10.45 c 0.126,-0.671 0.668,-1.219 1.304,-1.32 l 3.858,-0.611 c 0.633,-0.101 0.999,0.305 0.872,0.977 L 72.585,10.38 80.378,9.142 80.674,7.551 C 81.421,3.529 78.689,0.476 74.882,1.078 L 67.426,2.26 c -3.801,0.605 -7.872,4.739 -8.619,8.76 l -2.074,11.156 c -0.746,4.021 1.986,7.075 5.793,6.47 l 2.492,-0.391 z"
       style="fill:#aa0000"
       id="path12"
       inkscape:connector-curvature="0" />
    <path
       d="m 78.153,20.02 c 0.205,-0.545 0.343,-0.753 0.451,-1.314 l 0.264,-1.418 -3.101,0.492 z"
       style="fill:#aa0000"
       id="path14"
       inkscape:connector-curvature="0" />
    <path
       d="m 210.846,57.219 c 0,0 -25.334,0 -40.712,0 -13.573,0 -22.62,-9.123 -22.62,-18.095 0,-8.972 9.047,-18.095 22.62,-18.095 10.251,0 25.333,0 40.712,0 v -9.048 c 0,0 -25.334,0 -40.712,0 -18.098,0 -31.668,11.761 -31.668,27.143 0,15.381 13.57,27.142 31.668,27.142 20.506,0 40.712,0 40.712,0 z"
       style="fill:#aa0000"
       id="path16"
       inkscape:connector-curvature="0" />
    <path
       d="m 449.603,11.981 h -27.142 c -18.095,0 -31.668,11.761 -31.668,27.143 0,15.381 13.573,27.142 31.668,27.142 h 27.142 c 18.095,0 31.668,-11.761 31.668,-27.142 0,-15.382 -13.573,-27.143 -31.668,-27.143 z m 0,45.238 h -27.142 c -13.57,0 -22.621,-9.123 -22.621,-18.095 0,-8.972 9.051,-18.095 22.621,-18.095 h 27.142 c 13.573,0 22.617,9.123 22.617,18.095 0,8.972 -9.044,18.095 -22.617,18.095 z"
       style="fill:#aa0000"
       id="path18"
       inkscape:connector-curvature="0" />
    <path
       d="m 260.608,11.981 c -20.505,0 -40.715,0 -40.715,0 v 54.285 c 0,0 25.334,0 40.715,0 18.095,0 31.668,-11.761 31.668,-27.142 0,-15.382 -13.573,-27.143 -31.668,-27.143 z m 0,45.238 c -8.322,0 -18.28,0 -31.664,0 v -36.19 c 10.053,0 21.659,0 31.664,0 13.573,0 22.621,9.123 22.621,18.095 0,8.972 -9.048,18.095 -22.621,18.095 z"
       style="fill:#aa0000"
       id="path20"
       inkscape:connector-curvature="0" />
    <path
       d="m 373.703,39.124 c 4.522,0 9.048,-6.533 9.048,-11.058 0,-9.048 -4.522,-16.085 -13.57,-16.085 -9.047,0 -54.288,0 -54.288,0 v 54.288 h 9.051 v -22.62 c 13.569,0 36.19,0 40.712,0 4.525,0 9.05,4.525 9.05,9.047 0,4.526 0,13.573 0,13.573 h 9.048 c 0,0 0,-4.522 0,-13.573 0,-9.047 -9.051,-13.572 -9.051,-13.572 z m -9.047,-4.522 c -9.048,0 -40.712,0 -40.712,0 V 21.029 c 0,0 31.664,0 40.712,0 4.525,0 9.05,2.511 9.05,7.037 -0.003,4.525 -4.525,6.536 -9.05,6.536 z"
       style="fill:#aa0000"
       id="path22"
       inkscape:connector-curvature="0" />
    <path
       d="m 302.077,43.646 c -2.499,0 -4.522,-2.023 -4.522,-4.522 0,-2.496 2.026,-4.522 4.522,-4.522 h 3.394 c 2.499,0 4.522,2.026 4.522,4.522 0,2.499 -2.023,4.522 -4.522,4.522 z"
       style="fill:#aa0000"
       id="path24"
       inkscape:connector-curvature="0" />
    <path
       d="m 521.986,21.029 v 45.237 h 9.047 V 21.029 h 9.051 c 4.519,0 13.569,0 13.569,9.047 0,9.051 0,36.19 0,36.19 h 9.048 V 25.554 c 0,-9.051 -9.048,-13.573 -18.095,-13.573 -4.522,0 -31.668,0 -36.19,0 -9.05,0 -18.095,4.522 -18.095,13.573 0,9.048 0,27.142 0,40.712 h 9.048 c 0,0 0,-27.142 0,-36.19 0,-9.047 9.047,-9.047 13.572,-9.047 z"
       style="fill:#aa0000"
       id="path26"
       inkscape:connector-curvature="0" />
    <path
       d="m 586.244,19.623 c 0,0 -1.084,0 3.366,0 6.028,0 10.39,-3.079 10.39,-10.005 C 600,5.168 597.18,0 591.097,0 586.645,0 576.749,0 572.3,0 v 6.923 c 0,0 9.186,0 13.636,0 1.944,0 4.125,0.325 4.125,2.695 0,2.247 -1.734,3.079 -3.738,3.079 h -5.638 c -10.118,0 -11.344,7.223 -11.344,12.86 v 4.456 h 30.158 v -7.431 h -20.068 c -0.003,-3.46 3.845,-2.959 6.813,-2.959 z"
       style="fill:#aa0000"
       id="path28"
       inkscape:connector-curvature="0" />
  </g>
</svg>
