<?xml version="1.0" encoding="UTF-8" standalone="no"?>
<svg
   xmlns:dc="http://purl.org/dc/elements/1.1/"
   xmlns:cc="http://creativecommons.org/ns#"
   xmlns:rdf="http://www.w3.org/1999/02/22-rdf-syntax-ns#"
   xmlns:svg="http://www.w3.org/2000/svg"
   xmlns="http://www.w3.org/2000/svg"
   xmlns:sodipodi="http://sodipodi.sourceforge.net/DTD/sodipodi-0.dtd"
   xmlns:inkscape="http://www.inkscape.org/namespaces/inkscape"
   version="1.1"
   id="svg14"
   sodipodi:docname="pico-8.svg"
   inkscape:version="0.92.5 (2060ec1f9f, 2020-04-08)"
   width="204"
   height="34">
  <metadata
     id="metadata20">
    <rdf:RDF>
      <cc:Work
         rdf:about="">
        <dc:format>image/svg+xml</dc:format>
        <dc:type
           rdf:resource="http://purl.org/dc/dcmitype/StillImage" />
        <dc:title></dc:title>
      </cc:Work>
    </rdf:RDF>
  </metadata>
  <defs
     id="defs18" />
  <sodipodi:namedview
     pagecolor="#ffffff"
     bordercolor="#666666"
     borderopacity="1"
     objecttolerance="10"
     gridtolerance="10"
     guidetolerance="10"
     inkscape:pageopacity="0"
     inkscape:pageshadow="2"
     inkscape:window-width="1440"
     inkscape:window-height="837"
     id="namedview16"
     showgrid="false"
     inkscape:zoom="1.3871078"
     inkscape:cx="73.660437"
     inkscape:cy="-38.736807"
     inkscape:window-x="0"
     inkscape:window-y="0"
     inkscape:window-maximized="1"
     inkscape:current-layer="svg14"
     fit-margin-top="0"
     fit-margin-left="0"
     fit-margin-right="0"
     fit-margin-bottom="0" />
  <path
     d="m 13.593818,6.769091 h 7.158546 v 7.001682 H 13.593818 Z M 0.017,34 h 13.479455 l 0.05564,-13.634773 20.463364,0.0077 L 33.935099,0.021608 7.0488262,0.023108 0,7.048045 Z"
     style="fill:#aa0000;stroke-width:0.77272725"
     id="path2"
     inkscape:connector-curvature="0" />
  <path
     d="m 40.941409,0.031682 h 26.976682 v 6.616863 h -6.654727 v 20.532137 h 6.635409 v 6.786863 H 40.936 v -6.666318 h 6.861045 l -0.01082,-20.8505 -6.922091,0.01082 z"
     style="fill:#aa0000;stroke-width:0.77272725"
     id="path4"
     inkscape:connector-curvature="0" />
  <path
     d="M 74.840955,7.262091 82.106136,0 H 101.95441 V 6.725045 H 88.494273 v 20.529046 h 13.317957 v 6.704182 H 74.987773 Z"
     style="fill:#aa0000;stroke-width:0.77272725"
     id="path6"
     inkscape:connector-curvature="0" />
  <path
     d="m 122.54527,6.7745 h 6.77605 v 20.326591 h -6.77605 z M 108.87109,33.864 h 26.70005 l 7.20336,-7.190227 V 0.023182 h -26.66605 l -7.13536,7.121454 z"
     style="fill:#aa0000;stroke-width:0.77272725"
     id="path8"
     inkscape:connector-curvature="0" />
  <path
     d="m 149.75995,13.518864 h 13.53896 v 6.797681 h -13.53896 z"
     style="fill:#aa0000;stroke-width:0.77272725"
     id="path10"
     inkscape:connector-curvature="0" />
  <path
     d="m 183.7105,6.804636 h 13.80941 v 6.820091 H 183.7105 Z m 0.024,13.532 h 13.80864 v 6.820091 H 183.73445 Z M 204,33.904955 V 0 h -27.03309 v 7.283727 l -6.72196,6.708046 v 19.964954 z"
     style="fill:#aa0000;stroke-width:0.77272725"
     id="path12"
     inkscape:connector-curvature="0" />
</svg>
