<?xml version="1.0" encoding="UTF-8" standalone="no"?>
<svg
   xmlns:dc="http://purl.org/dc/elements/1.1/"
   xmlns:cc="http://creativecommons.org/ns#"
   xmlns:rdf="http://www.w3.org/1999/02/22-rdf-syntax-ns#"
   xmlns:svg="http://www.w3.org/2000/svg"
   xmlns="http://www.w3.org/2000/svg"
   xmlns:sodipodi="http://sodipodi.sourceforge.net/DTD/sodipodi-0.dtd"
   xmlns:inkscape="http://www.inkscape.org/namespaces/inkscape"
   version="1.1"
   id="svg2"
   sodipodi:docname="psx.svg"
   inkscape:version="0.92.5 (2060ec1f9f, 2020-04-08)"
   width="166.19728"
   height="34">
  <metadata
     id="metadata12">
    <rdf:RDF>
      <cc:Work
         rdf:about="">
        <dc:format>image/svg+xml</dc:format>
        <dc:type
           rdf:resource="http://purl.org/dc/dcmitype/StillImage" />
        <dc:title></dc:title>
      </cc:Work>
    </rdf:RDF>
  </metadata>
  <defs
     id="defs10" />
  <sodipodi:namedview
     pagecolor="#ffffff"
     bordercolor="#666666"
     borderopacity="1"
     objecttolerance="10"
     gridtolerance="10"
     guidetolerance="10"
     inkscape:pageopacity="0"
     inkscape:pageshadow="2"
     inkscape:window-width="1440"
     inkscape:window-height="837"
     id="namedview8"
     showgrid="false"
     inkscape:zoom="1.3871078"
     inkscape:cx="84.150089"
     inkscape:cy="10.30582"
     inkscape:window-x="0"
     inkscape:window-y="0"
     inkscape:window-maximized="1"
     inkscape:current-layer="svg2"
     fit-margin-top="0"
     fit-margin-left="0"
     fit-margin-right="0"
     fit-margin-bottom="0" />
  <path
     id="path2998"
     d="m 50.131749,8.6990256 v 8.6541704 8.653344 h 1.526233 1.525956 v -7.724883 -7.724884 h 1.873092 c 1.351418,0 1.961191,0.03632 2.190583,0.131261 0.453243,0.1885 0.919231,0.760876 1.110391,1.359946 0.100567,0.314807 0.182849,0.996981 0.212215,1.753729 0.06067,1.550645 -0.11996,2.513779 -0.596475,3.13844 -0.497293,0.652729 -0.800933,0.755097 -2.205544,0.755097 h -1.20597 v 0.938367 0.940845 l 1.894424,-0.03632 1.895532,-0.03715 0.670445,-0.314531 c 1.225087,-0.574303 2.11412,-1.748225 2.473445,-3.260896 0.200303,-0.844256 0.196978,-2.732548 -0.0066,-3.638995 -0.195592,-0.871499 -0.603124,-1.748776 -1.061354,-2.279875 -0.19116,-0.2223474 -0.562121,-0.5404564 -0.82088,-0.7063904 -0.888201,-0.565772 -1.230904,-0.601271 -5.559156,-0.601271 z m 13.486757,0 v 8.6541704 8.653344 h 1.526233 1.525956 V 17.353196 8.6990256 h -1.525956 z m 38.270524,0 c -1.36638,0 -2.772931,0.04788 -3.125607,0.104018 -0.793453,0.125483 -1.720718,0.542657 -2.245438,1.014317 -0.528876,0.4741384 -0.980735,1.1871324 -1.224256,1.9364504 -0.152097,0.465881 -0.199748,0.890486 -0.206397,1.785375 -0.0083,1.234187 0.09669,1.759508 0.523335,2.590555 0.277598,0.541005 1.017858,1.321695 1.525956,1.613386 0.589826,0.339574 1.345047,0.519542 2.642442,0.62356 0.987105,0.07953 1.217605,0.128235 1.538695,0.339574 0.25267,0.165384 0.47403,0.436988 0.66103,0.815362 0.26375,0.533026 0.27871,0.643648 0.27704,1.790328 -6.3e-4,1.143377 -0.0174,1.256477 -0.27122,1.736393 -0.17121,0.325538 -0.41917,0.611452 -0.67931,0.782339 l -0.4092,0.269402 -2.593401,0.03054 -2.590634,0.02725 v 0.925984 0.922683 H 98.6587 c 1.7933,0 3.15386,-0.04375 3.4708,-0.109797 1.20597,-0.252617 2.2097,-1.029178 2.69702,-2.087524 0.41086,-0.890486 0.55575,-1.806839 0.50173,-3.181369 -0.056,-1.449103 -0.27206,-2.237772 -0.85524,-3.103767 -0.72336,-1.075408 -1.5326,-1.444701 -3.58937,-1.631549 -0.76104,-0.06935 -1.540365,-0.191526 -1.732633,-0.271604 -0.423323,-0.178592 -0.819218,-0.627138 -0.992924,-1.125215 -0.172875,-0.490648 -0.170382,-1.913334 0.0057,-2.513779 0.172875,-0.594116 0.698703,-1.140075 1.252514,-1.305459 0.26707,-0.08008 1.166073,-0.118879 2.679003,-0.118879 h 2.27952 V 9.6283126 8.6990256 Z m 35.07094,0 v 1.271336 1.2713374 h 1.52624 1.52623 V 9.9703616 8.6990256 h -1.52623 z m -29.34556,1.9551614 0.0316,6.233953 c 0.0266,6.136263 0.0307,6.242758 0.24297,6.799724 0.11802,0.310405 0.37096,0.775736 0.56212,1.034956 0.39174,0.529724 0.90067,0.900393 1.54452,1.12439 0.31028,0.108146 0.83584,0.150249 1.83652,0.153551 l 1.40295,0.0058 V 25.0781 24.149639 h -0.91646 c -0.87241,0 -0.93087,-0.01239 -1.17855,-0.269402 -0.15403,-0.15933 -0.30447,-0.470835 -0.36514,-0.758399 -0.0673,-0.310679 -0.0948,-1.926543 -0.0773,-4.449403 l 0.0275,-3.959581 1.64924,-0.02807 1.64841,-0.02725 v -0.925159 -0.92681 h -1.67335 -1.67334 V 11.729882 10.6542 h -1.52873 z m 21.07609,0 v 6.157177 c 0,5.955194 0.007,6.179191 0.20391,6.772206 0.23271,0.705565 0.70756,1.405351 1.22425,1.796108 0.19698,0.149423 0.58706,0.351131 0.86742,0.446068 0.39008,0.133738 0.8267,0.175015 1.86368,0.177492 l 1.35335,0.0033 v -0.929312 -0.928461 h -0.87351 c -0.73001,0 -0.9148,-0.03137 -1.1284,-0.199231 -0.14157,-0.109797 -0.30198,-0.362689 -0.35767,-0.561645 -0.0623,-0.223171 -0.10139,-1.981029 -0.10139,-4.54434 v -4.180248 h 1.67666 1.67667 l -0.0274,-0.904521 -0.0283,-0.90452 -1.64924,-0.02725 -1.64758,-0.02807 v -1.07238 -1.072381 h -1.52623 z m -2.69148,2.1266 -3.25858,0.05283 c -3.50294,0.05283 -3.86559,0.09576 -4.89453,0.613654 -1.15001,0.579256 -1.95177,1.703646 -2.31526,3.244936 -0.15237,0.643648 -0.17897,1.197037 -0.17897,3.642297 0,2.777402 0.008,2.906462 0.22469,3.438387 0.43662,1.07073 1.08601,1.732265 2.02103,2.052851 0.41252,0.141993 0.84249,0.174189 2.2579,0.176666 l 1.74843,0.0033 V 25.076421 24.14796 h -1.22426 c -1.15943,0 -1.23838,-0.01403 -1.51377,-0.244636 -0.18312,-0.1519 -0.33106,-0.406442 -0.40005,-0.678046 -0.13713,-0.53963 -0.14378,-4.79393 -0.009,-5.824208 0.19033,-1.463963 0.52306,-2.149439 1.21512,-2.517906 0.23853,-0.126309 0.64939,-0.171989 1.80881,-0.201708 l 1.5013,-0.03962 v 5.68359 5.681114 h 1.5761 1.57444 v -3.652204 c 0,-2.007446 -0.0316,-4.983804 -0.0673,-6.612051 z m -46.235523,0.0033 -3.272715,0.04871 c -3.55724,0.05448 -4.068662,0.118879 -5.039423,0.635944 -1.128676,0.599894 -1.933487,1.785374 -2.273697,3.345926 -0.216371,0.991203 -0.316937,5.050674 -0.150711,6.03142 0.144893,0.856639 0.548269,1.719056 1.030602,2.206402 0.35517,0.35856 0.943887,0.712994 1.436194,0.861591 0.135751,0.04128 1.054705,0.0776 2.042642,0.08255 l 1.796628,0.0091 v -0.929329 -0.927635 h -1.258332 c -1.419018,0 -1.605191,-0.06687 -1.873092,-0.672543 -0.119683,-0.270228 -0.166226,-0.800502 -0.196978,-2.230343 -0.04408,-2.032212 0.09807,-4.237238 0.319985,-4.96922 0.198918,-0.657407 0.569879,-1.162365 1.005669,-1.37453 0.3186,-0.155201 0.611158,-0.185196 1.854529,-0.186847 l 1.476365,-0.0033 0.02493,5.647266 0.02493,5.646441 h 1.526233 1.526233 v -6.612053 z m 3.286014,0.02147 c -0.886539,0 -1.611008,0.01156 -1.609346,0.02476 0.0019,0.01321 1.013703,2.964801 2.248763,6.560867 l 2.246546,6.538578 -1.264981,3.239157 c -0.695379,1.783723 -1.26415,3.254842 -1.26415,3.269701 0,0.01486 0.603678,0.01486 1.341445,0 l 1.341445,-0.02724 3.921552,-9.778561 c 2.15817,-5.377863 3.925708,-9.789292 3.925708,-9.8025 6.29e-4,-0.01321 -0.636369,-0.02476 -1.418186,-0.02476 -1.031157,0 -1.442843,0.03385 -1.497975,0.123006 -0.04156,0.06687 -0.795946,1.96782 -1.673343,4.225406 -0.877397,2.257861 -1.635111,4.117535 -1.68581,4.134871 -0.05151,0.01651 -0.748572,-1.885266 -1.547012,-4.226507 l -1.451985,-4.256776 z m 53.910459,0 v 6.600494 6.599667 h 1.52624 1.52623 v -6.59964 -6.600494 h -1.52623 z m 18.45886,0.04871 -0.0291,6.575727 h 0.004 l -0.0283,6.575727 h 1.5786 1.57499 v -5.680288 -5.68359 l 1.50047,0.03962 c 1.59438,0.04128 1.86062,0.107595 2.30805,0.583384 0.35101,0.373421 0.60201,1.053118 0.71366,1.937275 0.0582,0.462579 0.10472,2.588078 0.10472,4.816219 v 3.987374 h 1.52624 1.52512 l -0.003,-3.886658 c 0,-4.122212 -0.0731,-5.100482 -0.47319,-6.218267 -0.54383,-1.519825 -1.54535,-2.421318 -3.17464,-2.859957 -0.53885,-0.145296 -1.11427,-0.170887 -3.87972,-0.177492 z m -7.71566,0.02807 c -0.86077,0 -1.71905,0.107321 -2.33465,0.317284 -0.82088,0.280684 -1.33562,0.6087 -1.85314,1.179701 -0.56046,0.619432 -0.96633,1.458735 -1.20486,2.48406 -0.14656,0.628513 -0.18063,1.156585 -0.17232,2.688794 0.008,1.612561 0.0407,2.024782 0.21554,2.661826 0.29671,1.081462 0.68429,1.809867 1.27329,2.402331 0.5804,0.582284 1.43785,1.029453 2.40363,1.246571 0.43413,0.09741 1.03614,0.127959 1.9562,0.104018 1.58663,-0.0421 2.34102,-0.244361 3.2669,-0.873975 0.77572,-0.526972 1.36306,-1.358018 1.69578,-2.404807 0.47486,-1.494509 0.5588,-3.95793 0.19366,-5.775226 -0.17703,-0.883056 -0.60867,-1.840687 -1.08934,-2.423795 -0.45185,-0.54761 -1.19184,-1.027801 -1.98363,-1.289498 -0.64052,-0.209963 -1.50712,-0.317284 -2.36706,-0.317284 z m 0.0366,1.820598 c 0.4466,0 0.89485,0.08613 1.24587,0.262798 0.45823,0.230601 0.74691,0.632916 0.99625,1.392966 0.16401,0.497253 0.20473,0.949926 0.2438,2.594683 0.0499,2.147788 -0.049,3.159904 -0.3851,3.923257 -0.23631,0.539355 -0.61863,0.95818 -1.03946,1.136497 -0.1798,0.07623 -0.65299,0.134839 -1.09211,0.134839 -0.62224,0 -0.86077,-0.04375 -1.20846,-0.225648 -0.27372,-0.143645 -0.53719,-0.389932 -0.70785,-0.663187 -0.44493,-0.713819 -0.59121,-1.648885 -0.59703,-3.755671 -0.005,-2.005795 0.0989,-2.812075 0.47153,-3.627437 0.1255,-0.276557 0.3801,-0.61448 0.56877,-0.7584 0.35849,-0.270778 0.93004,-0.414697 1.50379,-0.414697 z"
     style="fill:#aa0000;fill-opacity:1;stroke-width:0.27611044"
     inkscape:connector-curvature="0" />
  <path
     id="path7"
     d="M 24.280813,7.0707786 24.250892,34 16.986809,31.653806 V 6.4827633e-7 L 26.259458,2.4353536 c 5.935104,1.584492 9.567146,4.664319 9.507858,10.0619964 -0.05901,6.278257 -2.982374,8.800567 -8.68116,7.158286 V 7.2755136 c -8.19e-4,-1.49616 -2.805343,-1.583667 -2.805343,-0.204735 z"
     style="fill:#aa0000;fill-opacity:1;stroke:#ffffff;stroke-width:0;stroke-miterlimit:4;stroke-dasharray:none"
     inkscape:connector-curvature="0" />
  <path
     style="fill:#aa0000;fill-opacity:1;stroke-width:0.27611044"
     d="m 16.292702,19.205728 -2.141037,0.724338 h -0.0013 L 3.7563813,23.420165 c -0.02909,0 -0.088563,0.02828 -0.1475729,0.02828 h -0.00123 c -1.9185269,0.645849 -3.72086102,2.024929 -3.60200933,3.961103 0.11829761,1.965344 4.63554633,2.435075 8.12020063,2.992041 2.9607083,0.481145 5.6742493,0.273694 8.1669323,-0.477152 v -4.181233 l -2.614501,0.87314 -3.424921,1.14492 C 8.0374869,28.523794 6.148375,26.734689 8.1860308,26.000231 L 9.8388476,25.414858 16.292704,23.118869 Z M 34.51058,20.99505 c -3.237104,-0.0031 -6.426672,0.746176 -9.550428,1.807769 v 0.445178 l 5.786088,1.785632 3.780327,-1.261748 c 3.957291,-0.733358 5.551663,0.55699 1.742591,1.759807 l -1.890164,0.645632 h -0.0013 l -9.417583,3.201102 v 0.798124 l 5.728289,1.808998 10.541626,-3.695472 0.118059,-0.02951 c 2.776253,-0.967537 3.956366,-2.318038 3.661038,-3.578643 -0.472359,-2.112565 -3.868154,-3.256822 -9.095411,-3.637673 -0.468759,-0.03306 -0.936309,-0.04874 -1.403173,-0.04919 z m -3.76434,4.038579 -5.786088,-1.784402 v 3.753271 z m -5.786088,5.144146 v 3.793855 l 5.727059,-1.984856 z"
     id="path11"
     inkscape:connector-curvature="0" />
</svg>
