<?xml version="1.0" encoding="UTF-8" standalone="no"?>
<svg
   xmlns:dc="http://purl.org/dc/elements/1.1/"
   xmlns:cc="http://creativecommons.org/ns#"
   xmlns:rdf="http://www.w3.org/1999/02/22-rdf-syntax-ns#"
   xmlns:svg="http://www.w3.org/2000/svg"
   xmlns="http://www.w3.org/2000/svg"
   xmlns:sodipodi="http://sodipodi.sourceforge.net/DTD/sodipodi-0.dtd"
   xmlns:inkscape="http://www.inkscape.org/namespaces/inkscape"
   version="1.1"
   id="svg6"
   sodipodi:docname="puzzle.svg"
   inkscape:version="0.92.5 (2060ec1f9f, 2020-04-08)"
   width="224.74701"
   height="34">
  <metadata
     id="metadata12">
    <rdf:RDF>
      <cc:Work
         rdf:about="">
        <dc:format>image/svg+xml</dc:format>
        <dc:type
           rdf:resource="http://purl.org/dc/dcmitype/StillImage" />
        <dc:title></dc:title>
      </cc:Work>
    </rdf:RDF>
  </metadata>
  <defs
     id="defs10" />
  <sodipodi:namedview
     pagecolor="#ffffff"
     bordercolor="#666666"
     borderopacity="1"
     objecttolerance="10"
     gridtolerance="10"
     guidetolerance="10"
     inkscape:pageopacity="0"
     inkscape:pageshadow="2"
     inkscape:window-width="1440"
     inkscape:window-height="837"
     id="namedview8"
     showgrid="false"
     inkscape:zoom="0.98083333"
     inkscape:cx="-84.412781"
     inkscape:cy="-69.706481"
     inkscape:window-x="0"
     inkscape:window-y="0"
     inkscape:window-maximized="1"
     inkscape:current-layer="svg6"
     fit-margin-top="0"
     fit-margin-left="0"
     fit-margin-right="0"
     fit-margin-bottom="0" />
  <text
     xml:space="preserve"
     style="font-style:italic;font-variant:normal;font-weight:normal;font-stretch:normal;font-size:40px;line-height:1.25;font-family:'Changa One';-inkscape-font-specification:'Changa One Italic';letter-spacing:0px;word-spacing:0px;fill:#000000;fill-opacity:1;stroke:none"
     x="104.31891"
     y="145.71024"
     id="text3045"><tspan
       sodipodi:role="line"
       id="tspan3043"
       x="104.31891"
       y="183.93057" /></text>
  <text
     xml:space="preserve"
     style="font-style:italic;font-variant:normal;font-weight:normal;font-stretch:normal;font-size:40px;line-height:1.25;font-family:'Changa One';-inkscape-font-specification:'Changa One Italic';letter-spacing:0px;word-spacing:0px;fill:#000000;fill-opacity:1;stroke:none"
     x="54.871162"
     y="60.578541"
     id="text3049"><tspan
       sodipodi:role="line"
       id="tspan3047"
       x="54.871162"
       y="98.798882" /></text>
  <g
     aria-label="PUZZLE"
     style="font-style:italic;font-variant:normal;font-weight:normal;font-stretch:normal;font-size:49.03947449px;line-height:1.25;font-family:'Motter Tektura';-inkscape-font-specification:'Motter Tektura Italic';letter-spacing:0px;word-spacing:0px;fill:#aa0000;fill-opacity:1;stroke:none;stroke-width:1.22598684"
     id="text3137"
     transform="matrix(1.0833109,0,0,1.0833109,10.633712,-0.80682164)">
    <path
       d="m 55.923342,23.989485 h -6.080895 l -1.275026,7.40496 h -9.3175 L 44.644263,0.74477386 h 14.711842 q 8.336711,0 8.336711,7.74823694 0,3.6779602 -1.029829,6.6693682 -1.029829,2.942369 -2.304855,4.70779 -1.225987,1.716382 -3.432764,2.942368 -2.157736,1.176948 -5.002026,1.176948 z M 52.539618,8.5910898 51.215553,16.143169 h 2.157736 q 1.667343,0 2.501014,-0.343276 0.88271,-0.392316 1.127908,-1.716382 0.637513,-3.628921 0.637513,-3.972198 0,-0.9317495 -0.735592,-1.2259864 -0.735593,-0.2942368 -2.206777,-0.2942368 z"
       style="font-style:italic;font-variant:normal;font-weight:normal;font-stretch:normal;font-family:'Changa One';-inkscape-font-specification:'Changa One Italic';fill:#aa0000;stroke-width:1.22598684"
       id="path3139"
       inkscape:connector-curvature="0" />
    <path
       d="M 81.374827,0.74477386 77.304551,23.744287 h 3.334684 q 1.716382,0 2.451974,-0.441355 0.735592,-0.490395 1.029829,-2.157737 L 87.749959,0.74477386 h 9.3175 L 94.027012,17.957629 q -0.735592,4.168356 -1.716382,6.718408 -0.93175,2.550053 -2.648131,4.315474 -1.716382,1.765421 -4.266435,2.451974 -2.501013,0.686553 -6.375131,0.686553 -5.933777,0 -8.336711,-1.765422 -2.353895,-1.81446 -2.353895,-6.178973 0,-2.402935 0.686553,-6.228014 L 72.057327,0.74477386 Z"
       style="font-style:italic;font-variant:normal;font-weight:normal;font-stretch:normal;font-family:'Changa One';-inkscape-font-specification:'Changa One Italic';fill:#aa0000;stroke-width:1.22598684"
       id="path3141"
       inkscape:connector-curvature="0" />
    <path
       d="M 119.38034,31.394445 H 94.272132 L 95.351001,25.264511 110.11188,8.8853266 110.0138,8.5910898 h -9.75885 l 0.53943,-7.84631594 h 23.78415 l -1.07887,6.12993434 -14.6628,16.3791848 0.049,0.294237 h 11.86755 z"
       style="font-style:italic;font-variant:normal;font-weight:normal;font-stretch:normal;font-family:'Changa One';-inkscape-font-specification:'Changa One Italic';fill:#aa0000;stroke-width:1.22598684"
       id="path3143"
       inkscape:connector-curvature="0" />
    <path
       d="m 146.25389,31.394445 h -25.10821 l 1.07887,-6.129934 14.76088,-16.3791844 -0.0981,-0.2942368 h -9.75885 l 0.53943,-7.84631594 h 23.78415 l -1.07887,6.12993434 -14.6628,16.3791848 0.049,0.294237 H 147.627 Z"
       style="font-style:italic;font-variant:normal;font-weight:normal;font-stretch:normal;font-family:'Changa One';-inkscape-font-specification:'Changa One Italic';fill:#aa0000;stroke-width:1.22598684"
       id="path3145"
       inkscape:connector-curvature="0" />
    <path
       d="m 169.49853,31.394445 h -18.635 l 5.39434,-30.64967114 h 9.3175 L 161.55414,23.54813 h 9.3175 z"
       style="font-style:italic;font-variant:normal;font-weight:normal;font-stretch:normal;font-family:'Changa One';-inkscape-font-specification:'Changa One Italic';fill:#aa0000;stroke-width:1.22598684"
       id="path3147"
       inkscape:connector-curvature="0" />
    <path
       d="m 192.3999,19.821129 h -9.3175 l -0.63751,3.727001 h 11.4262 l -1.37311,7.846315 h -20.7437 l 5.39435,-30.64967114 h 20.4985 l -2.55006,7.84631594 h -10.05309 l -0.68655,4.1193162 h 9.3175 z"
       style="font-style:italic;font-variant:normal;font-weight:normal;font-stretch:normal;font-family:'Changa One';-inkscape-font-specification:'Changa One Italic';fill:#aa0000;stroke-width:1.22598684"
       id="path3149"
       inkscape:connector-curvature="0" />
  </g>
  <g
     id="g3231"
     transform="matrix(1.1694485,0,0,1.1694485,-7.6671336,-39.634819)">
    <path
       style="fill:#aa0000;fill-opacity:1;fill-rule:evenodd;stroke:none;stroke-width:0.61142439;stroke-miterlimit:4;stroke-dasharray:none;stroke-opacity:1"
       d="m 23.683384,61.869583 c -0.215267,-0.145153 -0.496004,-0.420931 -0.623859,-0.612842 -0.207168,-0.31096 -0.233073,-0.42118 -0.238069,-1.012926 -0.0093,-1.105986 0.336161,-1.571621 1.520376,-2.049049 0.874872,-0.352713 1.004874,-0.459243 1.004874,-0.823444 0,-1.014554 -1.231591,-1.803309 -3.436261,-2.200705 -1.559151,-0.28104 -3.591513,0.121141 -4.63604,0.917418 -0.396532,0.302288 -0.728232,0.827913 -0.728232,1.153984 v 0.271426 H 16.06174 c -0.266438,0 -0.483139,-0.02735 -0.481557,-0.06078 0.011,-0.232559 0.245337,-1.010994 0.390005,-1.295571 0.212598,-0.418204 0.829983,-0.921962 1.578381,-1.287889 l 0.558332,-0.272991 h 2.717855 2.717855 l 0.517652,0.21111 c 1.482739,0.604694 2.17457,1.444225 2.17457,2.638819 0,0.806051 -0.249211,1.075466 -1.41293,1.527479 -0.654884,0.25437 -0.909649,0.444575 -1.051332,0.784909 -0.240997,0.578896 -0.06401,1.04913 0.531887,1.413141 l 0.357968,0.218671 4.642483,0.0053 c 2.553366,0.0029 4.718307,-0.01516 4.81098,-0.04014 0.167717,-0.04519 0.168749,-0.06811 0.222296,-4.939642 0.0506,-4.603832 0.06328,-4.919673 0.213596,-5.322899 0.170002,-0.456033 0.596826,-0.957889 1.004657,-1.181267 0.339524,-0.185964 1.432701,-0.185722 1.822354,4.06e-4 0.496721,0.237269 0.803875,0.65028 1.163389,1.56434 0.358027,0.910277 0.520433,0.999854 1.245328,0.686871 0.790916,-0.341487 1.333732,-1.407457 1.67023,-3.279963 0.197864,-1.101062 0.119249,-2.1789 -0.245287,-3.362922 -0.366125,-1.189189 -1.128881,-2.025854 -1.846891,-2.025854 -0.244847,0 -0.694947,0.388095 -0.694947,0.599212 0,0.257413 -0.421987,1.072598 -0.710508,1.372545 -0.456889,0.474982 -0.638146,0.540301 -1.499294,0.540301 h -0.764523 l -0.44636,-0.40944 C 34.512542,44.922636 34.44248,44.654828 34.406363,42.38036 l -0.02992,-1.884044 h 0.438478 0.438478 l 0.05246,0.741756 c 0.02885,0.407966 0.05246,1.223984 0.05246,1.813371 0,0.744228 0.03516,1.15606 0.115067,1.34802 0.344857,0.828376 1.236366,1.050818 1.798285,0.448694 0.133255,-0.14279 0.359501,-0.557141 0.502772,-0.920782 0.444953,-1.12936 1.027666,-1.535026 1.902425,-1.324408 1.314691,0.316545 2.117261,1.36866 2.612714,3.425092 0.15496,0.643179 0.108932,1.213665 -0.270952,3.358326 -0.396173,2.236619 -0.450617,2.386951 -1.118796,3.089225 -0.405837,0.426544 -0.602503,0.534962 -1.280425,0.705873 -0.510951,0.128816 -0.535734,0.127641 -0.933885,-0.04426 -0.453515,-0.195811 -0.723663,-0.531339 -0.938028,-1.165049 -0.337152,-0.996689 -0.672,-1.346586 -1.288672,-1.346586 -0.2976,0 -0.423575,0.04877 -0.656718,0.254216 -0.158663,0.139818 -0.332507,0.331262 -0.386318,0.425428 -0.07272,0.127247 -0.108206,1.534227 -0.138208,5.478951 l -0.04037,5.307736 -5.581217,0.02081 -5.581216,0.02081 z"
       id="path3182"
       inkscape:connector-curvature="0" />
    <path
       style="fill:#aa0000;fill-opacity:1;fill-rule:evenodd;stroke:none;stroke-width:0.6103093;stroke-miterlimit:4;stroke-dasharray:none;stroke-opacity:1"
       d="m 6.5634655,56.741388 v -5.407109 l 0.1958607,-0.426271 c 0.3795309,-0.826013 0.9477265,-1.194199 1.8387854,-1.191519 0.6688179,0.002 1.1067933,0.162848 1.4515184,0.533034 0.220773,0.237076 0.631516,0.988603 0.631516,1.155466 0,0.185822 0.328171,0.729002 0.494084,0.817796 0.278109,0.14884 0.850531,-0.05692 1.221348,-0.439024 0.695403,-0.716566 1.027618,-1.639474 1.267921,-3.522344 0.125001,-0.979426 -0.08974,-2.32015 -0.526287,-3.285866 -0.36836,-0.814872 -0.691109,-1.188164 -1.209042,-1.398377 -0.652266,-0.264736 -0.858312,-0.142822 -1.162241,0.687671 -0.395584,1.080949 -0.8655168,1.570911 -1.666094,1.73711 -0.9614278,0.199592 -1.7388685,-0.181379 -2.2076481,-1.081821 l -0.289352,-0.555792 -0.023166,-4.873894 -0.023167,-4.873894 0.4672305,4.7e-5 0.4672305,4.7e-5 v 4.74336 c 0,4.359456 0.011487,4.767326 0.1419294,5.039488 0.2256903,0.470893 0.5705977,0.71316 1.0147937,0.712805 0.6998955,-5.66e-4 0.9502706,-0.273254 1.427461,-1.554707 0.08224,-0.220845 0.275772,-0.504153 0.455024,-0.666096 0.296907,-0.268237 0.340576,-0.281799 0.907367,-0.281799 0.909921,0 1.444365,0.269788 1.974683,0.996824 0.763269,1.046396 1.0686,2.046056 1.123105,3.677058 0.04584,1.371586 -0.03257,1.986862 -0.433241,3.400001 -0.105252,0.371211 -0.599059,1.232601 -0.940173,1.640026 -0.464276,0.554525 -0.991485,0.78214 -1.811627,0.78214 h -0.61708 l -0.3293,-0.344311 C 10.175595,52.521675 9.9962835,52.207574 9.8143748,51.727006 9.4976372,50.890245 9.2916501,50.673767 8.7639289,50.623059 8.21614,50.570422 7.8279418,50.749287 7.6404184,51.140717 7.5013393,51.431028 7.4919621,51.759989 7.4919621,56.3487 c 0,2.693955 0.030496,4.928402 0.067769,4.965439 0.037273,0.03704 2.1808892,0.05805 4.7635909,0.0467 4.58194,-0.02014 4.706218,-0.02482 5.124481,-0.192979 0.578922,-0.232748 0.817399,-0.577593 0.762048,-1.101941 -0.0485,-0.459441 -0.314756,-0.843489 -0.681174,-0.982523 -1.294242,-0.491091 -1.648011,-0.737939 -1.826696,-1.274608 l -0.08736,-0.2624 h 0.470345 c 0.311361,0 0.503036,0.03938 0.567052,0.116521 0.05318,0.06409 0.430045,0.254388 0.837459,0.422892 0.939197,0.388446 1.360111,0.77993 1.553386,1.444774 0.243517,0.837672 -0.01569,1.702782 -0.64259,2.144662 -0.688123,0.485035 -0.493889,0.470725 -6.407116,0.472048 l -5.4296863,0.0013 z"
       id="path3184"
       inkscape:connector-curvature="0" />
    <path
       style="fill:#aa0000;fill-opacity:1;fill-rule:evenodd;stroke:none;stroke-width:0.6347723;stroke-miterlimit:4;stroke-dasharray:none;stroke-opacity:1"
       d="m 19.44131,41.532444 c -1.555132,-0.328331 -2.964948,-1.126777 -3.431515,-1.943429 -0.204316,-0.357625 -0.401551,-1.047435 -0.402706,-1.408427 -0.0013,-0.408299 0.206671,-0.868538 0.51131,-1.131492 0.149068,-0.12867 0.576214,-0.364737 0.949214,-0.524594 0.739546,-0.316946 0.984285,-0.551426 1.131914,-1.08446 0.12876,-0.464905 -0.0624,-0.944956 -0.480796,-1.207382 l -0.295892,-0.185591 0.444063,-10e-4 c 0.244235,-5.75e-4 0.580696,0.02339 0.747691,0.05325 0.285322,0.05102 0.311161,0.08232 0.428607,0.519361 0.09884,0.367789 0.107754,0.565883 0.04263,0.946999 -0.15695,0.918451 -0.452633,1.282627 -1.421093,1.750283 -1.090948,0.526804 -1.046411,0.489091 -1.074534,0.909882 -0.02939,0.439647 0.121093,0.831581 0.443522,1.155196 0.876723,0.879949 3.183942,1.495268 4.851946,1.293977 1.132766,-0.136699 2.030531,-0.476013 2.745785,-1.037782 0.465223,-0.365392 0.662749,-0.736809 0.663122,-1.246896 3.22e-4,-0.468499 -0.09475,-0.571199 -0.776115,-0.838233 -1.290988,-0.505946 -1.72649,-1.083027 -1.72649,-2.287753 0,-1.073813 0.15969,-1.221313 1.322098,-1.221174 l 0.575264,6.9e-5 -0.343928,0.184162 c -0.552344,0.295762 -0.796084,0.791437 -0.657045,1.336176 0.127434,0.499267 0.350333,0.706302 1.138023,1.057028 1.090371,0.485498 1.437357,0.884039 1.437357,1.650923 0,0.534094 -0.282082,1.311956 -0.624412,1.721859 -0.519495,0.62204 -1.715666,1.273973 -2.792082,1.521731 -0.627368,0.144401 -2.752913,0.155242 -3.405937,0.01737 z"
       id="path3186"
       inkscape:connector-curvature="0" />
    <path
       style="fill:#aa0000;fill-opacity:1;fill-rule:evenodd;stroke:none;stroke-width:0.6103093;stroke-miterlimit:4;stroke-dasharray:none;stroke-opacity:1"
       d="m 34.337625,37.563522 v -2.946968 h 0.484432 0.484434 v 2.946968 2.946967 h -0.484434 -0.484432 z"
       id="path3188"
       inkscape:connector-curvature="0" />
    <path
       inkscape:connector-curvature="0"
       id="path3200"
       d="m 24.295725,59.228577 c 0,-0.0053 0.160572,-0.08551 0.250387,-0.12513 0.03971,-0.01752 0.188009,-0.07825 0.329551,-0.134956 0.537349,-0.215285 0.787148,-0.344863 0.989503,-0.513282 0.265922,-0.221328 0.373669,-0.503413 0.373958,-0.979035 6.46e-4,-1.065187 -0.540861,-1.841116 -1.692496,-2.425187 -0.189084,-0.0959 -0.319365,-0.153272 -0.699056,-0.307858 l -0.300798,-0.122467 -2.721982,1.3e-5 -2.721983,1.2e-5 -0.346485,0.169582 c -0.460019,0.225149 -0.606948,0.306375 -0.86422,0.477763 -0.368279,0.245338 -0.685832,0.537573 -0.849696,0.781953 -0.05747,0.08571 -0.09453,0.158566 -0.148107,0.291153 -0.120586,0.298434 -0.285655,0.862272 -0.311305,1.06335 l -0.0071,0.05576 -9.76e-4,-0.05974 c -0.0013,-0.08004 0.01633,-0.183532 0.05044,-0.296082 0.04018,-0.132546 0.06535,-0.241619 0.08424,-0.365027 0.02144,-0.140148 0.03743,-0.202106 0.0602,-0.233394 0.03362,-0.04618 0.06459,-0.111755 0.09855,-0.208672 0.04021,-0.114728 0.08057,-0.192418 0.143013,-0.275286 0.02559,-0.03396 0.05638,-0.08258 0.06843,-0.108053 0.03819,-0.08073 0.314908,-0.347656 0.429856,-0.414646 0.06913,-0.04029 0.09783,-0.06363 0.118928,-0.09674 0.01089,-0.01709 0.03806,-0.04048 0.06541,-0.0563 0.0945,-0.05468 0.178739,-0.113094 0.229695,-0.159272 0.04199,-0.03806 0.06043,-0.04911 0.09391,-0.05629 0.0488,-0.01047 0.124368,-0.05028 0.197101,-0.103845 0.06112,-0.04501 0.132093,-0.08763 0.145939,-0.08763 0.01673,0 0.117969,-0.05146 0.178731,-0.09084 0.07447,-0.04827 0.104144,-0.0606 0.177048,-0.0736 0.06696,-0.01194 0.17341,-0.05943 0.215605,-0.0962 0.04926,-0.04292 0.07834,-0.05282 0.227741,-0.0775 0.09196,-0.0152 0.19553,-0.05243 0.257811,-0.09268 0.08263,-0.05341 0.137646,-0.06926 0.314489,-0.09059 0.14114,-0.01702 0.258285,-0.04132 0.334495,-0.06937 0.130756,-0.04812 0.229728,-0.06801 0.446091,-0.08964 0.328806,-0.03287 0.660793,-0.04525 1.214688,-0.04532 0.843462,-1.05e-4 1.432569,0.04137 1.652541,0.116347 0.11665,0.03976 0.231922,0.06276 0.478141,0.09541 0.188074,0.02494 0.297637,0.05115 0.38273,0.09158 0.09396,0.04464 0.173005,0.06872 0.315209,0.09602 0.142848,0.02742 0.201361,0.04576 0.254257,0.07971 0.04592,0.02946 0.139736,0.06429 0.245243,0.09103 0.0974,0.02469 0.146896,0.0454 0.181848,0.07609 0.03631,0.03188 0.0583,0.04241 0.1587,0.076 0.10479,0.03506 0.150762,0.05762 0.218332,0.107131 0.06223,0.0456 0.146683,0.08871 0.208955,0.10666 0.03703,0.01067 0.05511,0.02255 0.09558,0.0628 0.03833,0.03811 0.06978,0.05945 0.135538,0.09196 0.04709,0.02328 0.08563,0.04694 0.08563,0.05258 0,0.01877 0.08247,0.08831 0.187181,0.157847 0.05695,0.03782 0.135806,0.09766 0.175234,0.132992 0.154123,0.138103 0.190173,0.167791 0.223096,0.183729 0.02949,0.01428 0.03598,0.02219 0.04762,0.05803 0.01802,0.05551 0.03847,0.08753 0.09434,0.147753 0.03242,0.03494 0.05658,0.07175 0.07841,0.119477 0.06387,0.139598 0.08762,0.185094 0.11597,0.222197 0.03671,0.04803 0.05105,0.08613 0.07726,0.205217 0.02514,0.114223 0.06195,0.230597 0.09196,0.290728 0.01202,0.02409 0.02591,0.05635 0.03086,0.07169 0.03175,0.09838 0.05174,0.434247 0.04055,0.681109 -0.009,0.197733 -0.02407,0.291318 -0.05368,0.332729 -0.0426,0.05957 -0.06784,0.106431 -0.09471,0.175844 -0.01503,0.03882 -0.03659,0.08541 -0.04792,0.103547 -0.06813,0.109059 -0.221157,0.275456 -0.325109,0.353523 -0.03059,0.02297 -0.08071,0.05132 -0.111378,0.063 -0.06083,0.02316 -0.120593,0.05843 -0.164917,0.09735 -0.03978,0.03493 -0.09903,0.06013 -0.205463,0.08737 -0.102068,0.02613 -0.15868,0.0492 -0.24692,0.100631 -0.07073,0.04122 -0.131957,0.06274 -0.240404,0.08448 -0.09877,0.0198 -0.173556,0.04725 -0.225558,0.08278 -0.04052,0.02769 -0.123948,0.06777 -0.141609,0.06803 -0.0054,8e-5 -0.04003,0.01262 -0.07706,0.02788 -0.0723,0.02978 -0.07206,0.0297 -0.07206,0.02382 z m -1.959431,-4.646283 0.04381,-0.0061 -0.03983,-0.0058 c -0.128729,-0.01877 -1.723185,-0.02718 -2.54487,-0.01343 -0.449351,0.0075 -0.548521,0.01172 -0.537502,0.02275 0.01094,0.01096 0.621814,0.01501 1.803963,0.01195 0.67684,-0.0017 1.250332,-0.0059 1.274426,-0.0093 z"
       style="fill:#aa0000;fill-opacity:1;fill-rule:evenodd;stroke:none;stroke-width:0.06020913;stroke-miterlimit:4;stroke-dasharray:none;stroke-opacity:1" />
    <path
       inkscape:connector-curvature="0"
       id="path3207"
       d="m 19.362238,54.580603 -0.09558,-0.0044 0.175233,-0.008 c 0.232574,-0.01057 2.655669,-0.01058 2.803739,-4e-6 0.111342,0.0079 0.111106,0.008 -0.155321,0.01282 -0.327644,0.006 -2.595777,0.0056 -2.728069,-4.82e-4 z"
       style="fill:#aa0000;fill-opacity:1;fill-rule:evenodd;stroke:none;stroke-width:0.06020913;stroke-miterlimit:4;stroke-dasharray:none;stroke-opacity:1" />
    <path
       inkscape:connector-curvature="0"
       id="path3209"
       d="m 19.513576,54.571881 c 0.232036,-0.0074 2.538794,-0.0074 2.592661,3.4e-5 0.02409,0.0033 -0.587032,0.0059 -1.35806,0.0057 -0.771029,-2e-4 -1.326599,-0.0028 -1.234601,-0.0057 z"
       style="fill:#aa0000;fill-opacity:1;fill-rule:evenodd;stroke:none;stroke-width:0.06020913;stroke-miterlimit:4;stroke-dasharray:none;stroke-opacity:1" />
    <path
       inkscape:connector-curvature="0"
       id="path3211"
       d="m 20.977466,54.550424 c 0.02535,-0.0016 0.06478,-0.0016 0.08762,3.2e-5 0.02284,0.0016 0.0021,0.0029 -0.04609,0.0029 -0.04819,-1.8e-5 -0.06688,-0.0013 -0.04153,-0.0029 z"
       style="fill:#aa0000;fill-opacity:1;fill-rule:evenodd;stroke:none;stroke-width:0.06020913;stroke-miterlimit:4;stroke-dasharray:none;stroke-opacity:1" />
    <path
       inkscape:connector-curvature="0"
       id="path3217"
       d="M 6.5563586,34.616558 18.81535,34.62015"
       style="fill:#d40000;stroke:#aa0000;stroke-width:1.109869px;stroke-linecap:butt;stroke-linejoin:miter;stroke-opacity:1" />
    <path
       inkscape:connector-curvature="0"
       id="path3219"
       d="m 22.999403,34.616684 12.2847,-1.3e-4"
       style="fill:none;stroke:#aa0000;stroke-width:1.12811816px;stroke-linecap:butt;stroke-linejoin:miter;stroke-opacity:1" />
  </g>
</svg>
