<?xml version="1.0" encoding="UTF-8" standalone="no"?>
<svg
   xmlns:dc="http://purl.org/dc/elements/1.1/"
   xmlns:cc="http://creativecommons.org/ns#"
   xmlns:rdf="http://www.w3.org/1999/02/22-rdf-syntax-ns#"
   xmlns:svg="http://www.w3.org/2000/svg"
   xmlns="http://www.w3.org/2000/svg"
   xmlns:sodipodi="http://sodipodi.sourceforge.net/DTD/sodipodi-0.dtd"
   xmlns:inkscape="http://www.inkscape.org/namespaces/inkscape"
   version="1.1"
   id="svg6"
   sodipodi:docname="racing.svg"
   inkscape:version="0.92.5 (2060ec1f9f, 2020-04-08)"
   width="209.71271"
   height="34">
  <metadata
     id="metadata12">
    <rdf:RDF>
      <cc:Work
         rdf:about="">
        <dc:format>image/svg+xml</dc:format>
        <dc:type
           rdf:resource="http://purl.org/dc/dcmitype/StillImage" />
        <dc:title></dc:title>
      </cc:Work>
    </rdf:RDF>
  </metadata>
  <defs
     id="defs10" />
  <sodipodi:namedview
     pagecolor="#ffffff"
     bordercolor="#666666"
     borderopacity="1"
     objecttolerance="10"
     gridtolerance="10"
     guidetolerance="10"
     inkscape:pageopacity="0"
     inkscape:pageshadow="2"
     inkscape:window-width="1440"
     inkscape:window-height="837"
     id="namedview8"
     showgrid="false"
     inkscape:zoom="1.3871078"
     inkscape:cx="-2.5397701"
     inkscape:cy="-25.761656"
     inkscape:window-x="0"
     inkscape:window-y="0"
     inkscape:window-maximized="1"
     inkscape:current-layer="svg6"
     fit-margin-top="0"
     fit-margin-left="0"
     fit-margin-right="0"
     fit-margin-bottom="0" />
  <text
     xml:space="preserve"
     style="font-style:italic;font-variant:normal;font-weight:normal;font-stretch:normal;font-size:40px;line-height:1.25;font-family:'Changa One';-inkscape-font-specification:'Changa One Italic';letter-spacing:0px;word-spacing:0px;fill:#000000;fill-opacity:1;stroke:none"
     x="104.80339"
     y="145.73164"
     id="text3045"><tspan
       sodipodi:role="line"
       id="tspan3043"
       x="104.80339"
       y="183.95198" /></text>
  <text
     xml:space="preserve"
     style="font-style:italic;font-variant:normal;font-weight:normal;font-stretch:normal;font-size:40px;line-height:1.25;font-family:'Changa One';-inkscape-font-specification:'Changa One Italic';letter-spacing:0px;word-spacing:0px;fill:#000000;fill-opacity:1;stroke:none"
     x="55.355644"
     y="60.599945"
     id="text3049"><tspan
       sodipodi:role="line"
       id="tspan3047"
       x="55.355644"
       y="98.820282" /></text>
  <g
     aria-label="RACING"
     style="font-style:italic;font-variant:normal;font-weight:normal;font-stretch:normal;font-size:40px;line-height:1.25;font-family:'Changa One';-inkscape-font-specification:'Changa One Italic';letter-spacing:0px;word-spacing:0px;fill:#aa0000;fill-opacity:1;stroke:none"
     id="text3254"
     transform="matrix(1.2977099,0,0,1.2977099,-115.20192,75.449316)">
    <path
       d="m 141.85563,-32.540356 h -8.36 l -1.84,-7.44 h -1.64 l -1.28,7.44 h -7.6 l 4.4,-25 h 12 q 6.84,0 6.84,6.12 0,2.52 -0.76,4.8 -1.4,4.32 -4.4,5.76 z m -9.88,-18.6 -0.88,5 h 1.76 q 1.36,0 2.04,-0.28 0.72,-0.32 0.96,-1.72 0.28,-1.44 0.28,-1.76 0,-0.8 -0.64,-1 -0.6,-0.24 -2,-0.24 z"
       style="fill:#aa0000"
       id="path3256"
       inkscape:connector-curvature="0" />
    <path
       d="m 150.77559,-32.540356 h -8 l 10.52,-25 h 11.76 l 1.76,25 h -8.04 l -0.16,-3.96 h -6.28 z m 6.84,-17.32 -2.8,7 h 3.2 v -7 z"
       style="fill:#aa0000"
       id="path3258"
       inkscape:connector-curvature="0" />
    <path
       d="m 186.65556,-39.700356 -0.64,6.72 q -2.56,1.04 -6.48,1.04 -5.04,0 -7.24,-1.96 -2.16,-1.96 -2.16,-6.04 0,-1.72 0.56,-5.08 1.2,-6.88 4.12,-10 2.96,-3.12 9.32,-3.12 1.48,0 3.36,0.32 1.92,0.28 2.8,0.72 l -2.24,6.12 q -2.36,-0.56 -4.44,-0.56 -2.04,0 -2.92,0.4 -0.88,0.4 -1.08,1.6 l -1.84,10.48 q 1.44,0.32 2.96,0.32 3.24,0 5.92,-0.96 z"
       style="fill:#aa0000"
       id="path3260"
       inkscape:connector-curvature="0" />
    <path
       d="m 189.13548,-32.540356 4.4,-25 h 7.6 l -4.4,25 z"
       style="fill:#aa0000"
       id="path3262"
       inkscape:connector-curvature="0" />
    <path
       d="m 215.41545,-32.540356 -4.08,-8.88 q -0.16,-0.28 -0.16,-0.76 0,-0.52 0.08,-1.16 h -0.32 l -1.88,10.8 h -7.6 l 4.4,-25 h 7.16 l 4.08,8.88 q 0.12,0.28 0.12,0.8 0,0.48 -0.08,1.12 h 0.32 l 1.92,-10.8 h 7.6 l -4.4,25 z"
       style="fill:#aa0000"
       id="path3264"
       inkscape:connector-curvature="0" />
    <path
       d="m 241.2554,-39.900356 0.2,-1.08 h -1.92 l 1.08,-6.12 h 9.16 l -2.36,13.36 q -4.88,1.8 -9.8,1.8 -4.92,0 -7.12,-1.96 -2.16,-1.96 -2.16,-6.04 0,-1.72 0.56,-5.08 1.2,-6.96 4.24,-10.04 3.04,-3.08 10.08,-3.08 1.48,0 3.76,0.32 2.32,0.32 3.4,0.72 l -2.2,6.12 q -3,-0.56 -5.52,-0.56 -2.48,0 -3.56,0.4 -1.08,0.4 -1.28,1.6 l -1.96,11.32 h 2.52 q 1.36,0 2,-0.28 0.68,-0.32 0.88,-1.4 z"
       style="fill:#aa0000"
       id="path3266"
       inkscape:connector-curvature="0" />
  </g>
  <path
     style="fill:#aa0000;fill-rule:evenodd;stroke:none;stroke-width:0.07515918"
     inkscape:connector-curvature="0"
     d="m 13.443391,1.6110919 c -0.14867,0.00588 -0.283276,0.024401 -0.299142,0.040179 -0.01588,0.015875 -0.119945,0.02881 -0.231405,0.02881 -0.11147,0 -0.211053,0.013524 -0.221274,0.030084 -0.01017,0.016562 -0.09221,0.030084 -0.182182,0.030084 -0.08996,0 -0.163545,0.013524 -0.163545,0.030084 0,0.016562 -0.06684,0.030085 -0.148522,0.030085 -0.08173,0 -0.15693,0.013523 -0.16715,0.030084 -0.01017,0.016562 -0.07193,0.030084 -0.137096,0.030084 -0.06517,0 -0.118447,0.013523 -0.118447,0.030084 0,0.016562 -0.06007,0.030085 -0.133479,0.030085 -0.0734,0 -0.141907,0.013524 -0.152128,0.030084 -0.01017,0.016562 -0.06438,0.030084 -0.12025,0.030084 -0.05596,0 -0.110039,0.013524 -0.12026,0.030085 -0.01017,0.016562 -0.05762,0.030084 -0.105221,0.030084 -0.04762,0 -0.09496,0.013524 -0.105231,0.030084 -0.01017,0.016562 -0.05762,0.030084 -0.105221,0.030084 -0.04762,0 -0.09496,0.013524 -0.105231,0.030084 -0.01017,0.016562 -0.05762,0.030084 -0.105221,0.030084 -0.04762,0 -0.09505,0.013524 -0.105232,0.030084 -0.01017,0.016562 -0.0584,0.030084 -0.10703,0.030084 -0.04861,0 -0.08839,0.013524 -0.08839,0.030084 0,0.016562 -0.04057,0.030084 -0.09015,0.030084 -0.04959,0 -0.09016,0.011759 -0.09016,0.025968 0,0.014308 -0.06056,0.034298 -0.134616,0.044392 -0.07399,0.01019 -0.1619667,0.032241 -0.1954125,0.049193 -0.033417,0.016855 -0.087706,0.044294 -0.1205538,0.060757 -0.032829,0.016562 -0.074085,0.030085 -0.091626,0.030085 -0.017639,0 -0.087902,0.027047 -0.1563322,0.060169 -0.068498,0.033025 -0.1489626,0.060169 -0.178959,0.060169 -0.029987,0 -0.054485,0.011074 -0.054485,0.024695 0,0.013523 -0.067617,0.043019 -0.1503247,0.065559 -0.082709,0.022539 -0.150315,0.052035 -0.150315,0.065559 0,0.013621 -0.027047,0.024695 -0.060169,0.024695 -0.033025,0 -0.060071,0.013524 -0.060071,0.030084 0,0.016562 -0.027047,0.030084 -0.060169,0.030084 -0.033025,0 -0.060169,0.013523 -0.060169,0.030084 0,0.016562 -0.020481,0.030084 -0.04547,0.030084 -0.024989,0 -0.068989,0.012642 -0.097702,0.028125 -0.028713,0.015385 -0.096231,0.045764 -0.1499427,0.067421 -0.053701,0.021755 -0.097702,0.049585 -0.097702,0.062129 0,0.012446 -0.027047,0.022735 -0.060169,0.022735 -0.033025,0 -0.060169,0.013523 -0.060169,0.030084 0,0.016562 -0.025968,0.030085 -0.057621,0.030085 -0.031652,0 -0.062129,0.010094 -0.067617,0.022539 -0.00882,0.020285 -0.1670037,0.1110874 -0.3479815,0.19993 -0.037042,0.018227 -0.067519,0.043216 -0.067617,0.055661 -1.568e-4,0.012446 -0.027243,0.022539 -0.060365,0.022539 -0.033025,0 -0.060169,0.013524 -0.060169,0.030085 0,0.016562 -0.021266,0.030084 -0.047234,0.030084 -0.051447,0 -0.1391926,0.074085 -0.1156737,0.097603 0.00784,0.00784 -0.03763,0.023029 -0.1015327,0.033221 -0.063893,0.01019 -0.1408488,0.045861 -0.1710606,0.07918 -0.030183,0.033318 -0.073006,0.060561 -0.095252,0.060561 -0.022245,0 -0.040472,0.013524 -0.040472,0.030084 0,0.016562 -0.017737,0.030085 -0.039492,0.030085 -0.021657,0 -0.068498,0.027047 -0.1039434,0.060169 -0.035475,0.033025 -0.082414,0.060169 -0.1042475,0.060169 -0.021853,0 -0.059189,0.027047 -0.083002,0.060169 -0.023813,0.033025 -0.064384,0.060169 -0.090156,0.060169 -0.025773,0 -0.066343,0.027047 -0.090156,0.060169 -0.023813,0.033025 -0.058601,0.060169 -0.077318,0.060169 -0.018717,0 -0.076436,0.04057 -0.1283739,0.090156 -0.051938,0.049585 -0.1118323,0.090156 -0.133107,0.090156 -0.021265,0 -0.058209,0.027047 -0.08212,0.060169 -0.023813,0.033025 -0.060659,0.060169 -0.081728,0.060169 -0.021167,0 -0.038513,0.01127 -0.038513,0.024989 0,0.01372 -0.033613,0.04302 -0.074672,0.064971 -0.04106,0.022049 -0.082708,0.065069 -0.09241,0.095741 -0.0098,0.030672 -0.029398,0.048508 -0.043706,0.039688 -0.014286,-0.00881 -0.058581,0.016664 -0.098583,0.056646 C 5.6229618,4.8290815 5.551033,4.8824895 5.5031526,4.9078015 5.4552328,4.9330843 5.3473498,5.0189576 5.2633972,5.0987062 5.1794152,5.1784744 5.0644471,5.2770577 5.0078548,5.3177159 4.9513115,5.358384 4.8170285,5.4837493 4.7095473,5.5963362 4.5140564,5.8011464 4.4189814,5.8965938 3.9421753,6.366942 3.8020714,6.505233 3.6873777,6.6287952 3.6873777,6.6416522 c 0,0.012739 -0.07526,0.1025909 -0.167229,0.1995479 -0.092018,0.096918 -0.1880432,0.2155505 -0.213522,0.263431 -0.025381,0.047919 -0.078984,0.1197993 -0.1189076,0.1597813 -0.039982,0.039983 -0.065461,0.084374 -0.056641,0.098613 0.00882,0.014308 -0.00882,0.033906 -0.039688,0.043706 -0.030672,0.0098 -0.073693,0.051252 -0.095741,0.09241 -0.021951,0.04106 -0.051154,0.074673 -0.064971,0.074673 -0.01372,0 -0.024989,0.017247 -0.024989,0.038512 0,0.021069 -0.027047,0.057915 -0.060169,0.081728 -0.033025,0.023813 -0.060169,0.060757 -0.060169,0.08212 0,0.021266 -0.040569,0.08114 -0.090156,0.133107 -0.049585,0.051938 -0.090156,0.1096567 -0.090156,0.1283739 0,0.018717 -0.027047,0.053505 -0.060169,0.077318 -0.033025,0.023813 -0.060169,0.064382 -0.060169,0.090156 0,0.025772 -0.027047,0.066343 -0.060169,0.090156 -0.033025,0.023813 -0.060169,0.061149 -0.060169,0.083002 0,0.021853 -0.027047,0.068793 -0.060169,0.1042475 -0.033025,0.035475 -0.060169,0.082316 -0.060169,0.1039435 0,0.021755 -0.013524,0.039492 -0.030084,0.039492 -0.016562,0 -0.030084,0.018227 -0.030084,0.040472 0,0.022245 -0.027243,0.065069 -0.060561,0.095252 -0.033318,0.030183 -0.06889,0.1071775 -0.07918,0.1710607 -0.01019,0.063893 -0.025185,0.1095882 -0.033221,0.1015423 -0.023617,-0.023518 -0.097603,0.064188 -0.097603,0.1156737 0,0.025968 -0.013524,0.047234 -0.030084,0.047234 -0.016562,0 -0.030084,0.027047 -0.030084,0.060169 0,0.033025 -0.010189,0.060169 -0.022539,0.060365 -0.012446,1.47e-4 -0.037434,0.030575 -0.055661,0.067617 -0.088882,0.1809876 -0.1796351,0.3389658 -0.1999202,0.3479912 -0.012446,0.00588 -0.022539,0.035964 -0.022539,0.067617 0,0.031751 -0.013524,0.057621 -0.030084,0.057621 -0.016562,0 -0.030084,0.027047 -0.030084,0.060169 0,0.033025 -0.010189,0.060169 -0.022735,0.060169 -0.012543,0 -0.040472,0.044 -0.062129,0.097702 -0.021657,0.0537 -0.052035,0.12123 -0.067421,0.149943 -0.015483,0.02871 -0.028125,0.07271 -0.028125,0.0977 0,0.02499 -0.013523,0.04547 -0.030084,0.04547 -0.016562,0 -0.030085,0.02705 -0.030085,0.06017 0,0.03303 -0.013524,0.06017 -0.030084,0.06017 -0.016562,0 -0.030085,0.02705 -0.030085,0.06017 0,0.03302 -0.011074,0.06017 -0.024597,0.06017 -0.013524,0 -0.04302,0.06762 -0.065559,0.150314 -0.022539,0.0827 -0.052035,0.150325 -0.065559,0.150325 -0.013621,0 -0.024695,0.0245 -0.024695,0.05449 0,0.02999 -0.0270467,0.110479 -0.0601689,0.178959 -0.0330248,0.0684 -0.0601689,0.138741 -0.0601689,0.156322 0,0.01754 -0.0135239,0.0588 -0.0300844,0.09162 -0.0165616,0.03282 -0.0439019,0.08712 -0.0607572,0.120554 -0.0169532,0.03342 -0.0390022,0.121376 -0.0491937,0.195411 -0.0100931,0.07399 -0.0300845,0.134608 -0.0443919,0.134608 -0.0143073,0 -0.0259687,0.04057 -0.0259687,0.09016 0,0.04958 -0.0135233,0.09016 -0.0300845,0.09016 -0.0165612,0 -0.0300845,0.03978 -0.0300845,0.08839 0,0.04861 -0.0135233,0.09682 -0.0300846,0.10703 -0.0165612,0.01017 -0.0300845,0.05762 -0.0300845,0.105221 0,0.04762 -0.0135233,0.09496 -0.0300845,0.105232 -0.0165612,0.01017 -0.0300846,0.05753 -0.0300846,0.105221 0,0.04762 -0.0135233,0.09505 -0.0300845,0.105231 -0.0165612,0.01017 -0.0300845,0.05762 -0.0300845,0.105231 0,0.04762 -0.0135233,0.09496 -0.0300845,0.105221 -0.0165612,0.01017 -0.0300845,0.06438 -0.0300845,0.120261 0,0.05596 -0.0135233,0.110028 -0.0300846,0.12025 -0.0165612,0.01017 -0.0300845,0.07869 -0.0300845,0.152118 0,0.0734 -0.0135233,0.133488 -0.0300845,0.133488 -0.0165612,0 -0.0300845,0.05331 -0.0300845,0.118447 0,0.06516 -0.0135233,0.126876 -0.0300846,0.137096 -0.0165612,0.01017 -0.0300845,0.08546 -0.0300845,0.167151 0,0.08173 -0.0135233,0.148511 -0.0300845,0.148511 -0.0165612,0 -0.0300846,0.07359 -0.0300846,0.163545 0,0.08996 -0.0135233,0.171972 -0.0300845,0.182193 -0.01656122,0.01017 -0.03008455,0.109804 -0.03008455,0.221263 0,0.121985 -0.01499329,0.21759 -0.03763018,0.240216 -0.05477935,0.05478 -0.05477935,3.682115 0,3.736915 0.02263689,0.02264 0.03763018,0.118222 0.03763018,0.240205 0,0.111461 0.01352332,0.211044 0.03008455,0.221265 0.0165612,0.01017 0.0300845,0.09221 0.0300845,0.182193 0,0.08996 0.0135233,0.163543 0.0300846,0.163543 0.0165612,0 0.0300845,0.07438 0.0300845,0.165348 0,0.09094 0.0135233,0.165348 0.0300845,0.165348 0.0165612,0 0.0300846,0.05409 0.0300846,0.12026 0,0.06615 0.0135233,0.12025 0.0300845,0.12025 0.0165612,0 0.0300845,0.06007 0.0300845,0.133489 0,0.0734 0.0135233,0.141897 0.0300845,0.152118 0.0165612,0.01017 0.0300846,0.07193 0.0300846,0.137096 0,0.06516 0.0135233,0.118447 0.0300845,0.118447 0.0165612,0 0.0300845,0.03978 0.0300845,0.08839 0,0.04861 0.0135233,0.09682 0.0300845,0.107031 0.0165612,0.01017 0.0300845,0.06516 0.0300845,0.122062 0,0.05693 0.0135233,0.10342 0.0300846,0.10342 0.0165612,0 0.0300845,0.03978 0.0300845,0.08839 0,0.04861 0.0135233,0.09682 0.0300845,0.107021 0.0165612,0.01017 0.0300846,0.0584 0.0300846,0.10703 0,0.04861 0.0135233,0.08839 0.0300845,0.08839 0.0165612,0 0.0300845,0.04057 0.0300845,0.09016 0,0.04958 0.0117594,0.09016 0.0259687,0.09016 0.0143074,0 0.0343963,0.06105 0.0445878,0.135655 0.0101916,0.07467 0.0458618,0.19211 0.0791802,0.261178 0.0334164,0.06909 0.0606591,0.14078 0.0606591,0.15934 0,0.01862 0.0270467,0.08986 0.0601689,0.158282 0.0330248,0.0684 0.0601689,0.145366 0.0601689,0.170993 0,0.02558 0.011074,0.04655 0.024695,0.04655 0.013524,0 0.04302,0.06762 0.065559,0.150316 0.022539,0.0827 0.052035,0.150314 0.065559,0.150314 0.013621,0 0.024597,0.02705 0.024597,0.06017 0,0.03303 0.013524,0.06017 0.030085,0.06017 0.016562,0 0.030084,0.02704 0.030084,0.06017 0,0.03303 0.013524,0.06017 0.030085,0.06017 0.016562,0 0.030084,0.02049 0.030084,0.04547 0,0.02499 0.012054,0.06899 0.026753,0.0977 0.0147,0.02872 0.058699,0.119877 0.097702,0.202556 0.039002,0.08271 0.08114,0.154822 0.093488,0.16031 0.012347,0.0059 0.022539,0.03596 0.022539,0.06762 0,0.03176 0.013524,0.05762 0.030084,0.05762 0.016562,0 0.030085,0.02597 0.030085,0.05762 0,0.03165 0.01019,0.06213 0.022539,0.06762 0.028222,0.01254 0.1258945,0.172639 0.1481395,0.242989 0.00882,0.02891 0.028614,0.05262 0.043314,0.05262 0.014601,0 0.026556,0.02704 0.026556,0.06007 0,0.03312 0.013524,0.06017 0.030084,0.06017 0.016562,0 0.030085,0.02205 0.030085,0.04909 0,0.02695 0.024891,0.07095 0.055368,0.0977 0.030476,0.02676 0.064971,0.08761 0.07673,0.135283 0.021658,0.08751 0.2487024,0.445996 0.2942506,0.464488 0.013621,0.0059 0.024597,0.03303 0.024597,0.06105 0,0.02803 0.027047,0.07046 0.060169,0.09427 0.033025,0.02381 0.060169,0.06438 0.060169,0.09016 0,0.02577 0.027047,0.06634 0.060169,0.09016 0.033025,0.02381 0.060169,0.05861 0.060169,0.07732 0,0.01872 0.04057,0.07643 0.090156,0.128373 0.049585,0.05194 0.090156,0.111842 0.090156,0.133108 0,0.02127 0.027047,0.05821 0.060169,0.08202 0.033025,0.02381 0.060169,0.05801 0.060169,0.07595 0,0.05145 0.1993911,0.255611 0.2260752,0.231416 0.013229,-0.01196 0.014405,-0.0049 0.00294,0.01568 -0.012445,0.02166 0.010581,0.06938 0.055172,0.113939 0.042138,0.04213 0.095644,0.113489 0.1189761,0.158587 0.023322,0.04508 0.1180746,0.16077 0.2106018,0.257041 0.092507,0.09633 0.1681991,0.186102 0.1681991,0.199626 0,0.01353 0.1416816,0.164525 0.3147708,0.335516 0.3484419,0.344229 0.3945095,0.390149 0.7794057,0.778044 0.1470812,0.148218 0.2792867,0.269448 0.29379,0.269448 0.014504,0 0.1007192,0.07438 0.1916592,0.165348 0.09094,0.09094 0.1769208,0.165347 0.1909831,0.165347 0.014112,0 0.07771,0.04762 0.1412994,0.105899 0.068793,0.06311 0.1338518,0.09891 0.1606829,0.08859 0.024793,-0.0098 0.035671,-0.0078 0.024303,0.0039 -0.024107,0.02401 0.1833101,0.222841 0.2323175,0.222841 0.017835,0 0.052134,0.02705 0.075947,0.06017 0.023813,0.03303 0.060757,0.06017 0.08212,0.06017 0.021266,0 0.08114,0.04057 0.133107,0.09016 0.051938,0.04958 0.1096567,0.09016 0.1283738,0.09016 0.018717,0 0.053505,0.02704 0.077318,0.06017 0.023813,0.03303 0.064382,0.06017 0.090156,0.06017 0.025772,0 0.066343,0.02704 0.090156,0.06017 0.023813,0.03303 0.067421,0.06017 0.096819,0.06017 0.029496,0 0.053505,0.01127 0.053505,0.02499 0,0.01372 0.037238,0.0442 0.082708,0.06762 0.04547,0.02351 0.1069521,0.06458 0.1366447,0.09124 0.029594,0.02676 0.1175454,0.08065 0.1954124,0.119877 0.077809,0.0392 0.1482082,0.07977 0.1564789,0.09005 0.026949,0.03372 0.206388,0.11733 0.2515541,0.11733 0.024205,0 0.048606,0.01006 0.054093,0.02254 0.012543,0.02822 0.1726383,0.125885 0.2429891,0.148139 0.028909,0.0088 0.052623,0.02862 0.052623,0.04331 0,0.01461 0.027047,0.02655 0.060169,0.02655 0.033025,0 0.060169,0.01353 0.060169,0.03008 0,0.01657 0.027047,0.03008 0.060169,0.03008 0.033025,0 0.060169,0.01353 0.060169,0.03008 0,0.01656 0.027047,0.03008 0.060169,0.03008 0.033025,0 0.060169,0.01017 0.060169,0.02273 0,0.01254 0.044,0.04047 0.097702,0.06213 0.053701,0.02166 0.1212398,0.05204 0.1499426,0.06742 0.028713,0.01549 0.072713,0.02812 0.097702,0.02812 0.024989,0 0.04547,0.01353 0.04547,0.03008 0,0.01657 0.027047,0.03008 0.060169,0.03008 0.033025,0 0.060169,0.01353 0.060169,0.03008 0,0.01657 0.027047,0.03008 0.060071,0.03008 0.033025,0 0.060169,0.01353 0.060169,0.03008 0,0.01656 0.026263,0.03008 0.058307,0.03008 0.032142,0 0.066735,0.01353 0.076926,0.03008 0.01019,0.01655 0.051643,0.03008 0.092018,0.03008 0.040375,0 0.073398,0.01353 0.073398,0.03008 0,0.01657 0.020971,0.03008 0.046548,0.03008 0.025675,0 0.1025909,0.02705 0.1709921,0.06017 0.068498,0.03303 0.147836,0.06017 0.1764702,0.06017 0.028517,0 0.056446,0.01049 0.062031,0.02342 0.014013,0.03293 0.6738744,0.247115 0.7612864,0.247115 0.0395,0 0.08026,0.01353 0.09046,0.03008 0.01017,0.01656 0.05762,0.03008 0.105232,0.03008 0.04762,0 0.09496,0.01353 0.105221,0.03008 0.01017,0.01657 0.05753,0.03008 0.105231,0.03008 0.04762,0 0.09496,0.01353 0.105221,0.03008 0.01017,0.01657 0.0584,0.03008 0.10703,0.03008 0.04861,0 0.08839,0.01353 0.08839,0.03008 0,0.01656 0.05331,0.03008 0.118457,0.03008 0.06516,0 0.126864,0.01353 0.137086,0.03008 0.01017,0.01655 0.07869,0.03008 0.152127,0.03008 0.0734,0 0.133479,0.01353 0.133479,0.03008 0,0.01657 0.05409,0.03008 0.12025,0.03008 0.06615,0 0.120261,0.01353 0.120261,0.03008 0,0.01657 0.07438,0.03008 0.165347,0.03008 0.09094,0 0.165357,0.01353 0.165357,0.03008 0,0.01656 0.07359,0.03008 0.163545,0.03008 0.08996,0 0.171962,0.01353 0.182183,0.03008 0.01017,0.01656 0.109804,0.03008 0.221273,0.03008 0.121975,0 0.21758,0.01499 0.240206,0.03763 0.05478,0.05478 3.682126,0.05478 3.736915,0 0.02264,-0.02263 0.118222,-0.03763 0.240205,-0.03763 0.111461,0 0.211053,-0.01353 0.221275,-0.03008 0.01017,-0.01657 0.09221,-0.03008 0.182182,-0.03008 0.08996,0 0.163545,-0.01353 0.163545,-0.03008 0,-0.01657 0.07438,-0.03008 0.165347,-0.03008 0.09094,0 0.165358,-0.01353 0.165358,-0.03008 0,-0.01657 0.05409,-0.03008 0.12025,-0.03008 0.06615,0 0.120259,-0.01353 0.120259,-0.03008 0,-0.01657 0.06007,-0.03008 0.133479,-0.03008 0.0734,0 0.141898,-0.01353 0.152119,-0.03008 0.01017,-0.01657 0.07193,-0.03008 0.137096,-0.03008 0.06516,0 0.118447,-0.01353 0.118447,-0.03008 0,-0.01657 0.03978,-0.03008 0.08839,-0.03008 0.04861,0 0.09682,-0.01353 0.107021,-0.03008 0.01017,-0.01656 0.06516,-0.03008 0.122063,-0.03008 0.05693,0 0.103409,-0.01353 0.103409,-0.03008 0,-0.01656 0.04734,-0.03008 0.105232,-0.03008 0.05792,0 0.105221,-0.01353 0.105221,-0.03008 0,-0.01657 0.03312,-0.03008 0.07369,-0.03008 0.08869,0 0.748881,-0.213826 0.76309,-0.247115 0.0059,-0.01293 0.03616,-0.02342 0.06811,-0.02342 0.03185,0 0.08486,-0.01353 0.117693,-0.03008 0.03282,-0.01656 0.08663,-0.04361 0.119505,-0.06017 0.03282,-0.01656 0.08016,-0.03008 0.105232,-0.03008 0.02499,0 0.04547,-0.01353 0.04547,-0.03008 0,-0.01657 0.03303,-0.03008 0.0734,-0.03008 0.04038,0 0.08173,-0.01353 0.09201,-0.03008 0.01017,-0.01657 0.04488,-0.03008 0.07693,-0.03008 0.03204,0 0.05831,-0.01353 0.05831,-0.03008 0,-0.01657 0.02704,-0.03008 0.06017,-0.03008 0.03303,0 0.06017,-0.01353 0.06017,-0.03008 0,-0.01656 0.02704,-0.03008 0.06017,-0.03008 0.03303,0 0.06007,-0.01353 0.06007,-0.03008 0,-0.01657 0.02049,-0.03008 0.04547,-0.03008 0.02499,0 0.06899,-0.01205 0.0977,-0.02676 0.02871,-0.0147 0.119878,-0.0587 0.202557,-0.0977 0.08271,-0.039 0.154822,-0.08114 0.16031,-0.09349 0.0059,-0.01245 0.03596,-0.02254 0.06762,-0.02254 0.03176,0 0.05762,-0.01353 0.05762,-0.03008 0,-0.01657 0.02597,-0.03008 0.05762,-0.03008 0.03165,0 0.06204,-0.01017 0.06762,-0.02254 0.01254,-0.02823 0.172639,-0.125896 0.242989,-0.14814 0.0289,-0.0088 0.05262,-0.02862 0.05262,-0.04331 0,-0.01461 0.02097,-0.02655 0.04665,-0.02655 0.04674,0 0.22585,-0.08251 0.254034,-0.116947 0.0078,-0.01017 0.05566,-0.03832 0.105232,-0.06272 0.124836,-0.06124 0.448779,-0.276807 0.460949,-0.306794 0.0059,-0.01362 0.03303,-0.02469 0.06105,-0.02469 0.02803,0 0.07046,-0.02705 0.09427,-0.06017 0.02381,-0.03303 0.06438,-0.06017 0.09016,-0.06017 0.02577,0 0.06635,-0.02704 0.09016,-0.06017 0.02381,-0.03303 0.05861,-0.06017 0.07732,-0.06017 0.01872,0 0.07644,-0.04057 0.128364,-0.09016 0.05193,-0.04958 0.111842,-0.09016 0.133108,-0.09016 0.02127,0 0.05821,-0.02704 0.08212,-0.06017 0.02381,-0.03303 0.05801,-0.06017 0.07594,-0.06017 0.01793,0 0.08427,-0.04734 0.147463,-0.105221 0.06321,-0.05792 0.124092,-0.105231 0.135283,-0.105231 0.01117,0 0.07212,-0.04734 0.135292,-0.105221 0.0632,-0.05792 0.126414,-0.105231 0.140545,-0.105231 0.01401,0 0.100031,-0.07438 0.190983,-0.165348 0.09094,-0.09094 0.17842,-0.165347 0.194511,-0.165347 0.01597,0 0.175265,-0.148061 0.353851,-0.329127 0.393608,-0.39887 0.333331,-0.338594 0.732192,-0.732202 0.181066,-0.178576 0.329127,-0.337839 0.329127,-0.353841 0,-0.01607 0.07438,-0.103569 0.165348,-0.194521 0.09094,-0.09094 0.165357,-0.17692 0.165357,-0.190973 0,-0.01411 0.04734,-0.07732 0.10522,-0.140554 0.05792,-0.0632 0.105232,-0.124082 0.105232,-0.135283 0,-0.01118 0.04734,-0.07212 0.105221,-0.135282 0.05792,-0.06321 0.105231,-0.129501 0.105231,-0.147464 0,-0.01793 0.02705,-0.05204 0.06017,-0.07595 0.03303,-0.02381 0.06017,-0.06076 0.06017,-0.08202 0,-0.02127 0.04057,-0.08113 0.09016,-0.133108 0.04958,-0.05193 0.09016,-0.109656 0.09016,-0.128374 0,-0.01872 0.02705,-0.05351 0.06017,-0.07732 0.03302,-0.02381 0.06017,-0.06438 0.06017,-0.09016 0,-0.02577 0.02704,-0.06635 0.06017,-0.09016 0.03303,-0.02381 0.06017,-0.06635 0.06017,-0.09427 0,-0.02803 0.01108,-0.05546 0.0247,-0.06105 0.02998,-0.01215 0.245546,-0.336114 0.306803,-0.46095 0.0244,-0.04959 0.05253,-0.09692 0.06272,-0.105231 0.03361,-0.02743 0.116947,-0.20676 0.116947,-0.251554 0,-0.0242 0.01006,-0.04851 0.02254,-0.05409 0.02823,-0.01254 0.125896,-0.172649 0.14814,-0.24299 0.0088,-0.02891 0.02862,-0.05262 0.04331,-0.05262 0.01461,0 0.02655,-0.02705 0.02655,-0.06017 0,-0.03303 0.01353,-0.06017 0.03008,-0.06017 0.01657,0 0.03008,-0.02597 0.03008,-0.05762 0,-0.03165 0.01017,-0.06203 0.02254,-0.06762 0.01245,-0.0059 0.05448,-0.07761 0.09349,-0.16031 0.039,-0.08271 0.083,-0.173844 0.0977,-0.202557 0.0147,-0.02872 0.02676,-0.07271 0.02676,-0.0977 0,-0.02499 0.01353,-0.04547 0.03008,-0.04547 0.01657,0 0.03008,-0.02705 0.03008,-0.06017 0,-0.03303 0.01353,-0.06017 0.03008,-0.06017 0.01656,0 0.03008,-0.02705 0.03008,-0.06017 0,-0.03303 0.01353,-0.06017 0.03008,-0.06017 0.01656,0 0.03008,-0.02627 0.03008,-0.05831 0,-0.03204 0.01353,-0.06674 0.03008,-0.07693 0.01655,-0.01017 0.03008,-0.05165 0.03008,-0.09201 0,-0.04038 0.01353,-0.0733 0.03008,-0.0733 0.01657,0 0.03008,-0.02049 0.03008,-0.04547 0,-0.02499 0.01353,-0.07242 0.03008,-0.105221 0.01657,-0.03282 0.04361,-0.08663 0.06017,-0.119505 0.01657,-0.03282 0.03008,-0.08585 0.03008,-0.117702 0,-0.03195 0.01049,-0.06253 0.02342,-0.06811 0.03332,-0.01421 0.247125,-0.674404 0.247125,-0.763099 0,-0.04047 0.01353,-0.07369 0.03008,-0.07369 0.01657,0 0.03008,-0.04734 0.03008,-0.10522 0,-0.05792 0.01353,-0.105232 0.03008,-0.105232 0.01657,0 0.03008,-0.04655 0.03008,-0.103409 0,-0.05693 0.01353,-0.111842 0.03008,-0.122064 0.01656,-0.01017 0.03008,-0.0584 0.03008,-0.107031 0,-0.04861 0.01353,-0.08839 0.03008,-0.08839 0.01656,0 0.03008,-0.05331 0.03008,-0.118447 0,-0.06516 0.01353,-0.126874 0.03008,-0.137095 0.01657,-0.01017 0.03008,-0.07869 0.03008,-0.152118 0,-0.0734 0.01353,-0.13349 0.03008,-0.13349 0.01657,0 0.03008,-0.05409 0.03008,-0.12025 0,-0.06615 0.01353,-0.120259 0.03008,-0.120259 0.01656,0 0.03008,-0.07438 0.03008,-0.165348 0,-0.09094 0.01353,-0.165347 0.03008,-0.165347 0.01656,0 0.03008,-0.07359 0.03008,-0.163545 0,-0.08996 0.01353,-0.171972 0.03008,-0.182193 0.01657,-0.01017 0.03008,-0.109804 0.03008,-0.221263 0,-0.121985 0.015,-0.217589 0.03753,-0.240207 0.05478,-0.05478 0.05478,-3.682125 0,-3.736913 -0.02263,-0.02264 -0.03753,-0.118232 -0.03753,-0.240217 0,-0.11146 -0.01353,-0.211043 -0.03008,-0.221264 -0.01656,-0.01017 -0.03008,-0.09221 -0.03008,-0.182193 0,-0.08996 -0.01353,-0.163543 -0.03008,-0.163543 -0.01657,0 -0.03008,-0.07438 -0.03008,-0.165349 0,-0.09094 -0.01353,-0.165347 -0.03008,-0.165347 -0.01656,0 -0.03008,-0.05409 -0.03008,-0.120259 0,-0.06615 -0.01353,-0.12025 -0.03008,-0.12025 -0.01656,0 -0.03008,-0.06007 -0.03008,-0.13349 0,-0.0734 -0.01353,-0.141897 -0.03008,-0.152118 -0.01656,-0.01017 -0.03008,-0.07193 -0.03008,-0.137086 0,-0.06516 -0.01353,-0.118457 -0.03008,-0.118457 -0.01657,0 -0.03008,-0.03978 -0.03008,-0.08839 0,-0.04861 -0.01353,-0.09682 -0.03008,-0.107031 -0.01657,-0.01017 -0.03008,-0.05762 -0.03008,-0.105231 0,-0.04762 -0.01353,-0.09496 -0.03008,-0.105221 -0.01657,-0.01017 -0.03008,-0.05762 -0.03008,-0.105232 0,-0.04762 -0.01353,-0.09496 -0.03008,-0.10522 -0.01656,-0.01017 -0.03008,-0.05096 -0.03008,-0.09045 0,-0.08742 -0.214208,-0.747235 -0.247125,-0.761297 -0.01293,-0.0059 -0.02342,-0.03342 -0.02342,-0.06203 0,-0.02862 -0.02705,-0.108001 -0.06017,-0.17647 -0.03303,-0.0684 -0.06017,-0.145366 -0.06017,-0.170992 0,-0.02558 -0.01353,-0.04655 -0.03008,-0.04655 -0.01657,0 -0.03008,-0.03303 -0.03008,-0.0734 0,-0.04038 -0.01353,-0.08173 -0.03008,-0.09202 -0.01657,-0.01017 -0.03008,-0.04488 -0.03008,-0.07693 0,-0.03204 -0.01353,-0.05831 -0.03008,-0.05831 -0.01657,0 -0.03008,-0.02705 -0.03008,-0.06017 0,-0.03303 -0.01353,-0.06017 -0.03008,-0.06017 -0.01656,0 -0.03008,-0.02705 -0.03008,-0.06017 0,-0.03302 -0.01353,-0.06017 -0.03008,-0.06017 -0.01656,0 -0.03008,-0.02048 -0.03008,-0.04547 0,-0.02499 -0.01265,-0.06899 -0.02812,-0.0977 -0.01538,-0.02871 -0.04577,-0.09623 -0.06742,-0.149943 -0.02176,-0.0537 -0.04959,-0.097702 -0.06213,-0.097702 -0.01245,0 -0.02273,-0.027047 -0.02273,-0.060169 0,-0.033025 -0.01353,-0.060169 -0.03008,-0.060169 -0.01657,0 -0.03008,-0.027047 -0.03008,-0.060169 0,-0.033025 -0.01353,-0.060169 -0.03008,-0.060169 -0.01656,0 -0.03008,-0.025968 -0.03008,-0.057622 0,-0.031652 -0.01017,-0.062031 -0.02254,-0.067617 -0.02823,-0.012543 -0.125895,-0.1726384 -0.14814,-0.2429892 -0.0088,-0.028909 -0.02861,-0.052623 -0.04331,-0.052623 -0.0146,0 -0.02655,-0.020971 -0.02655,-0.046646 0,-0.047135 -0.08271,-0.226379 -0.11732,-0.2540332 -0.01027,-0.00784 -0.05086,-0.07869 -0.09005,-0.1564789 -0.0392,-0.077906 -0.09309,-0.1658081 -0.119878,-0.1954223 -0.02666,-0.029693 -0.06772,-0.091136 -0.09123,-0.1366349 -0.02342,-0.045469 -0.0539,-0.082708 -0.06762,-0.082708 -0.01372,0 -0.02499,-0.024009 -0.02499,-0.053505 0,-0.029398 -0.02705,-0.073006 -0.06017,-0.096819 -0.03303,-0.023813 -0.06017,-0.064383 -0.06017,-0.090156 0,-0.025772 -0.02705,-0.066343 -0.06017,-0.090156 -0.03303,-0.023813 -0.06017,-0.058601 -0.06017,-0.077318 0,-0.018717 -0.04057,-0.076436 -0.09016,-0.1283739 -0.04958,-0.051938 -0.09016,-0.111842 -0.09016,-0.133107 0,-0.021266 -0.02705,-0.058209 -0.06017,-0.08212 -0.03303,-0.023813 -0.06017,-0.058013 -0.06017,-0.075947 0,-0.048997 -0.198872,-0.2563655 -0.222851,-0.2323175 -0.01147,0.011466 -0.01304,5.292e-4 -0.0039,-0.024302 0.01027,-0.026851 -0.02558,-0.091822 -0.08859,-0.1606928 -0.0582,-0.063599 -0.105889,-0.1271685 -0.105889,-0.1412995 0,-0.014013 -0.07438,-0.100034 -0.165357,-0.1909732 -0.09094,-0.09094 -0.165347,-0.177156 -0.165347,-0.1916593 0,-0.014504 -0.121231,-0.1467088 -0.269449,-0.2937998 C 25.72823,5.9982345 25.682309,5.9521571 25.338081,5.6037249 25.167089,5.4306358 25.016098,5.2889542 25.002565,5.2889542 c -0.01353,0 -0.103335,-0.075652 -0.199617,-0.168209 -0.09632,-0.092507 -0.211953,-0.1872886 -0.25705,-0.210592 -0.04508,-0.023323 -0.116419,-0.076828 -0.158587,-0.118976 -0.04459,-0.044588 -0.09231,-0.067617 -0.113939,-0.055172 -0.02058,0.011858 -0.02754,0.010581 -0.01568,-0.00294 0.0242,-0.026655 -0.17993,-0.2260752 -0.231416,-0.2260752 -0.01784,0 -0.05213,-0.027047 -0.07595,-0.060169 -0.02381,-0.033025 -0.06076,-0.060169 -0.08212,-0.060169 -0.02127,0 -0.08114,-0.040571 -0.133106,-0.090156 C 23.68317,4.246911 23.625443,4.20634 23.606736,4.20634 c -0.01872,0 -0.05351,-0.027047 -0.07732,-0.060169 -0.02381,-0.033025 -0.06438,-0.060169 -0.09016,-0.060169 -0.02577,0 -0.06635,-0.027047 -0.09016,-0.060169 -0.02381,-0.033025 -0.06624,-0.060169 -0.09427,-0.060169 -0.02803,0 -0.05546,-0.011074 -0.06105,-0.024695 -0.01852,-0.045568 -0.376998,-0.2726034 -0.464478,-0.2942407 -0.04762,-0.011759 -0.10853,-0.046254 -0.135293,-0.076731 -0.02676,-0.030476 -0.07075,-0.055368 -0.0977,-0.055368 -0.02695,0 -0.04909,-0.013523 -0.04909,-0.030084 0,-0.016562 -0.02597,-0.030084 -0.05762,-0.030084 -0.03165,0 -0.06213,-0.01019 -0.06762,-0.022539 -0.01254,-0.028222 -0.172638,-0.1258848 -0.242989,-0.1481395 -0.0289,-0.00882 -0.05262,-0.028614 -0.05262,-0.043314 0,-0.014601 -0.02705,-0.026557 -0.06017,-0.026557 -0.03303,0 -0.06007,-0.013523 -0.06007,-0.030084 0,-0.016562 -0.02597,-0.030084 -0.05762,-0.030084 -0.03165,0 -0.06203,-0.01019 -0.06762,-0.022539 -0.0059,-0.012446 -0.07761,-0.054485 -0.160309,-0.093487 -0.08271,-0.039002 -0.173845,-0.083002 -0.202558,-0.097702 -0.02871,-0.0147 -0.07271,-0.026752 -0.0977,-0.026752 -0.02499,0 -0.04547,-0.013523 -0.04547,-0.030085 0,-0.016562 -0.02705,-0.030084 -0.06007,-0.030084 -0.03312,0 -0.06017,-0.013523 -0.06017,-0.030084 0,-0.016562 -0.02705,-0.030084 -0.06017,-0.030084 -0.03303,0 -0.06017,-0.011074 -0.06017,-0.024695 0,-0.013524 -0.06762,-0.04302 -0.150315,-0.065559 -0.08271,-0.022539 -0.150316,-0.052035 -0.150316,-0.065559 0,-0.013621 -0.02097,-0.024695 -0.04655,-0.024695 -0.02567,0 -0.102594,-0.027047 -0.170983,-0.060169 -0.0685,-0.033025 -0.139722,-0.060169 -0.158292,-0.060169 -0.01853,0 -0.09025,-0.027243 -0.15933,-0.060659 -0.06909,-0.033417 -0.186544,-0.068989 -0.261177,-0.07918 -0.07467,-0.010189 -0.135665,-0.03028 -0.135665,-0.044588 0,-0.014308 -0.04057,-0.025968 -0.09016,-0.025968 -0.04958,0 -0.09016,-0.013524 -0.09016,-0.030084 0,-0.016562 -0.03978,-0.030084 -0.08839,-0.030084 -0.04861,0 -0.09682,-0.013524 -0.10703,-0.030084 -0.01017,-0.016562 -0.0584,-0.030084 -0.10702,-0.030084 -0.04861,0 -0.08839,-0.013524 -0.08839,-0.030084 0,-0.016562 -0.04655,-0.030084 -0.10341,-0.030084 -0.05693,0 -0.111842,-0.013524 -0.122063,-0.030084 -0.01017,-0.016561 -0.05841,-0.030084 -0.107021,-0.030084 -0.04861,0 -0.08839,-0.013524 -0.08839,-0.030084 0,-0.016562 -0.05331,-0.030085 -0.118447,-0.030085 -0.06516,0 -0.126874,-0.013523 -0.137095,-0.030084 -0.01017,-0.016562 -0.07869,-0.030084 -0.152118,-0.030084 -0.0734,0 -0.13348,-0.013524 -0.13348,-0.030084 0,-0.016562 -0.05409,-0.030084 -0.120259,-0.030084 -0.06615,0 -0.120251,-0.013524 -0.120251,-0.030085 0,-0.016562 -0.07438,-0.030084 -0.165357,-0.030084 -0.09094,0 -0.165347,-0.013524 -0.165347,-0.030085 0,-0.016562 -0.07359,-0.030084 -0.163545,-0.030084 -0.08996,0 -0.171962,-0.013524 -0.182183,-0.030084 -0.01017,-0.016562 -0.109814,-0.030084 -0.221273,-0.030084 -0.119054,0 -0.217736,-0.015091 -0.239227,-0.03665 -0.03586,-0.035867 -2.757216,-0.061443 -3.447553,-0.032436 m 2.660406,3.8570173 c 0,0.017541 0.10019,0.030084 0.24051,0.030084 0.14032,0 0.240511,0.012543 0.240511,0.030085 0,0.016659 0.08016,0.030084 0.180379,0.030084 0.10019,0 0.18038,0.013425 0.18038,0.030084 0,0.016562 0.06007,0.030084 0.133489,0.030084 0.0734,0 0.141897,0.013523 0.152118,0.030084 0.01017,0.016562 0.0779,0.030085 0.150316,0.030085 0.07242,0 0.140103,0.013524 0.150324,0.030084 0.01017,0.016562 0.06438,0.030085 0.12025,0.030085 0.05596,0 0.110039,0.013523 0.12026,0.030084 0.01017,0.016562 0.05762,0.030084 0.10522,0.030084 0.04762,0 0.09505,0.013524 0.105232,0.030084 0.01017,0.016562 0.05762,0.030084 0.105221,0.030084 0.04762,0 0.09496,0.013523 0.105231,0.030085 0.01017,0.016562 0.05762,0.030084 0.105221,0.030084 0.04762,0 0.09398,0.011955 0.10305,0.026655 0.0088,0.014601 0.07751,0.035671 0.152118,0.046939 0.07467,0.011171 0.135664,0.033025 0.135664,0.048606 0,0.015483 0.04057,0.028222 0.09016,0.028222 0.04958,0 0.09016,0.013524 0.09016,0.030085 0,0.016562 0.04057,0.030084 0.09016,0.030084 0.04958,0 0.09016,0.013523 0.09016,0.030084 0,0.016562 0.02704,0.030084 0.06017,0.030084 0.03303,0 0.06017,0.013523 0.06017,0.030084 0,0.016562 0.04057,0.030085 0.09016,0.030085 0.04958,0 0.09016,0.013523 0.09016,0.030084 0,0.016562 0.02597,0.030084 0.05762,0.030084 0.03165,0 0.06213,0.010094 0.06762,0.022539 0.01411,0.031848 0.385719,0.2179611 0.435099,0.2179611 0.02245,0 0.04086,0.013524 0.04086,0.030085 0,0.016562 0.02372,0.030379 0.05262,0.030771 0.02891,3.821e-4 0.08643,0.027145 0.127767,0.059484 0.04135,0.032338 0.09212,0.059092 0.112744,0.059483 0.02067,3.725e-4 0.03763,0.014209 0.03763,0.030771 0,0.016562 0.02705,0.030085 0.06017,0.030085 0.03303,0 0.06017,0.013523 0.06017,0.030084 0,0.016562 0.02705,0.030085 0.06017,0.030085 0.03303,0 0.06017,0.011858 0.06017,0.02636 0,0.014601 0.04057,0.043314 0.09016,0.063794 0.04958,0.020481 0.09016,0.049193 0.09016,0.063795 0,0.014504 0.02597,0.02636 0.05762,0.02636 0.03165,0 0.06213,0.010094 0.06762,0.022539 0.01274,0.02881 0.246448,0.1879061 0.275916,0.1879061 0.01225,0 0.05126,0.027047 0.08673,0.060169 0.03547,0.033025 0.08232,0.060169 0.103949,0.060169 0.02176,0 0.03949,0.01127 0.03949,0.024989 0,0.01372 0.03694,0.044196 0.08212,0.067617 0.04518,0.023518 0.121612,0.079866 0.169787,0.1253654 0.04821,0.045469 0.10056,0.082708 0.116271,0.082708 0.01568,0 0.06644,0.04057 0.112812,0.090156 0.04635,0.049585 0.09935,0.090156 0.11785,0.090156 0.01842,0 0.078,0.044 0.132283,0.097702 0.05439,0.053701 0.205183,0.192404 0.335203,0.3081462 0.266067,0.2368253 0.868013,0.8374288 0.969331,0.9671551 0.03655,0.046743 0.105379,0.1324308 0.152951,0.190297 0.04762,0.057915 0.112361,0.1371641 0.144004,0.176176 0.03155,0.039002 0.108158,0.1246893 0.170159,0.1903755 0.06203,0.065657 0.112743,0.131157 0.112743,0.1455819 0,0.014504 0.03381,0.060169 0.07516,0.1014637 0.04135,0.04135 0.07516,0.09309 0.07516,0.114998 0,0.02185 0.02704,0.05929 0.06017,0.0831 0.03303,0.02381 0.06007,0.06438 0.06007,0.09016 0,0.02577 0.02705,0.06634 0.06017,0.09016 0.03303,0.02381 0.06017,0.05811 0.06017,0.07614 0,0.01803 0.02372,0.05899 0.05262,0.09114 0.02891,0.03204 0.07154,0.09496 0.09466,0.139869 0.02312,0.04498 0.05361,0.07458 0.06762,0.06596 0.01401,-0.0088 0.02558,0.01304 0.02558,0.04821 0,0.06468 0.143024,0.336867 0.186769,0.355359 0.01304,0.0059 0.02371,0.03596 0.02371,0.06762 0,0.03176 0.01006,0.05772 0.02254,0.05792 0.02695,3.04e-4 0.0977,0.145886 0.0977,0.201204 0,0.02146 0.01353,0.03911 0.03008,0.03911 0.01657,0 0.03008,0.02704 0.03008,0.06017 0,0.03303 0.01353,0.06007 0.03008,0.06007 0.01656,0 0.03008,0.02704 0.03008,0.06017 0,0.03303 0.01353,0.06017 0.03008,0.06017 0.01657,0 0.03008,0.02705 0.03008,0.06017 0,0.03303 0.01353,0.06017 0.03008,0.06017 0.01657,0 0.03008,0.02705 0.03008,0.06017 0,0.03303 0.01017,0.06017 0.02273,0.06017 0.01254,0 0.04047,0.044 0.06213,0.0977 0.02166,0.0537 0.05204,0.12123 0.06742,0.149943 0.01548,0.02872 0.02812,0.07271 0.02812,0.0977 0,0.02499 0.01353,0.04547 0.03008,0.04547 0.01657,0 0.03008,0.03303 0.03008,0.0734 0,0.04038 0.01353,0.08173 0.03008,0.09201 0.01657,0.01017 0.03008,0.04488 0.03008,0.07693 0,0.03215 0.01353,0.05831 0.03008,0.05831 0.01657,0 0.03008,0.02704 0.03008,0.06017 0,0.05997 -0.02009,0.06017 -10.492221,0.06017 -10.4721527,0 -10.4922221,-1.48e-4 -10.4922221,-0.06017 0,-0.03303 0.013523,-0.06017 0.030084,-0.06017 0.016562,0 0.030085,-0.02626 0.030085,-0.05831 0,-0.03204 0.013524,-0.06674 0.030084,-0.07693 0.016562,-0.01017 0.030085,-0.05165 0.030085,-0.09201 0,-0.04038 0.013523,-0.0734 0.030084,-0.0734 0.016562,0 0.030084,-0.02704 0.030084,-0.06017 0,-0.03303 0.013523,-0.06017 0.030085,-0.06017 0.016562,0 0.030084,-0.0243 0.030084,-0.05409 0,-0.06723 0.067225,-0.215933 0.097702,-0.216226 0.012446,-1.57e-4 0.022539,-0.02724 0.022539,-0.06036 0,-0.03303 0.013523,-0.06017 0.030085,-0.06017 0.016562,0 0.030084,-0.02704 0.030084,-0.06017 0,-0.03303 0.013523,-0.06017 0.030085,-0.06017 0.016562,0 0.030084,-0.02704 0.030084,-0.06017 0,-0.03303 0.013523,-0.06017 0.030084,-0.06017 0.016562,0 0.030085,-0.02704 0.030085,-0.06007 0,-0.03303 0.013524,-0.06017 0.030084,-0.06017 0.016562,0 0.030085,-0.02705 0.030085,-0.06017 0,-0.03303 0.013523,-0.06017 0.030084,-0.06017 0.016562,0 0.030084,-0.02704 0.030084,-0.06007 0,-0.03312 0.013523,-0.06017 0.030085,-0.06017 0.016562,0 0.030084,-0.02704 0.030084,-0.06017 0,-0.03303 0.011858,-0.06017 0.026361,-0.06017 0.014601,0 0.043314,-0.04057 0.063795,-0.09016 0.020481,-0.04958 0.04596,-0.09016 0.056446,-0.09016 0.010486,0 0.037925,-0.044 0.060855,-0.0977 0.022931,-0.0537 0.058111,-0.118005 0.078005,-0.142808 0.019893,-0.0248 0.068694,-0.105972 0.108373,-0.18038 0.03959,-0.07438 0.095741,-0.157155 0.1246893,-0.183918 0.028909,-0.02675 0.052623,-0.06771 0.052623,-0.09114 0,-0.02332 0.027047,-0.06193 0.060169,-0.08575 0.033025,-0.02381 0.060169,-0.06125 0.060169,-0.0831 0,-0.02195 0.033809,-0.07369 0.075163,-0.114997 0.041354,-0.041354 0.075163,-0.086922 0.075163,-0.1014639 0,-0.014405 0.050761,-0.080062 0.1127338,-0.1458072 C 6.3646783,9.6050207 6.5545247,9.3808957 6.5862458,9.3243818 6.6630741,9.1878155 7.7306155,8.1358161 7.9273117,8.0029345 c 0.041354,-0.027929 0.097015,-0.075163 0.1237877,-0.10508 0.026753,-0.029791 0.058503,-0.054289 0.070556,-0.054289 0.012054,0 0.059876,-0.04057 0.106276,-0.090156 0.046352,-0.049585 0.097114,-0.090156 0.1128122,-0.090156 0.015679,0 0.068009,-0.037238 0.1162714,-0.082709 0.048214,-0.04547 0.1246109,-0.1018367 0.169777,-0.1253654 0.045176,-0.023421 0.08212,-0.053897 0.08212,-0.067617 0,-0.01372 0.017737,-0.024989 0.039492,-0.024989 0.021657,0 0.068498,-0.027047 0.1039434,-0.060169 0.035475,-0.033025 0.075359,-0.060169 0.088784,-0.060169 0.013328,0 0.094468,-0.047331 0.1804583,-0.1052273 0.085942,-0.057915 0.1703061,-0.1052176 0.1874455,-0.1052176 0.017247,0 0.03126,-0.011858 0.03126,-0.02636 0,-0.014601 0.040571,-0.043314 0.090156,-0.063795 0.049585,-0.020481 0.090156,-0.049193 0.090156,-0.063794 0,-0.014504 0.027047,-0.02636 0.060169,-0.02636 0.033025,0 0.060169,-0.013524 0.060169,-0.030084 0,-0.016562 0.027047,-0.030085 0.060169,-0.030085 0.033025,0 0.060169,-0.013523 0.060169,-0.030084 0,-0.016562 0.020873,-0.030084 0.046352,-0.030084 0.025479,0 0.075358,-0.027047 0.1108621,-0.060169 0.035475,-0.033025 0.080944,-0.060169 0.1009357,-0.060169 0.01999,0 0.113488,-0.040571 0.207818,-0.090156 0.09427,-0.049585 0.190376,-0.090156 0.213522,-0.090156 0.02312,0 0.04204,-0.013523 0.04204,-0.030085 0,-0.016562 0.02704,-0.030084 0.06017,-0.030084 0.03303,0 0.06017,-0.013524 0.06017,-0.030085 0,-0.016561 0.02028,-0.030084 0.04508,-0.030084 0.0248,0 0.04508,-0.013523 0.04508,-0.030085 0,-0.016562 0.04057,-0.030084 0.09016,-0.030084 0.04959,0 0.09016,-0.013523 0.09016,-0.030084 0,-0.016562 0.02704,-0.030085 0.06017,-0.030085 0.03303,0 0.06017,-0.013524 0.06017,-0.030084 0,-0.016562 0.04057,-0.030085 0.09016,-0.030085 0.04958,0 0.09016,-0.013524 0.09016,-0.030084 0,-0.016562 0.04057,-0.030084 0.09016,-0.030084 0.04958,0 0.09016,-0.012054 0.09016,-0.026655 0,-0.0147 0.05077,-0.035867 0.112733,-0.046939 0.133558,-0.02391 0.302522,-0.073594 0.375421,-0.1104015 0.02872,-0.014504 0.08535,-0.026361 0.125973,-0.026361 0.04057,0 0.08212,-0.013523 0.09241,-0.030085 0.01017,-0.016562 0.05762,-0.030084 0.105221,-0.030084 0.04762,0 0.09496,-0.013523 0.105231,-0.030085 0.01017,-0.016562 0.06438,-0.030084 0.12025,-0.030084 0.05596,0 0.110039,-0.013524 0.120259,-0.030084 0.01017,-0.016562 0.0779,-0.030085 0.150316,-0.030085 0.07242,0 0.140094,-0.013524 0.150315,-0.030084 0.01017,-0.016562 0.07869,-0.030085 0.152127,-0.030085 0.0734,0 0.13348,-0.013523 0.13348,-0.030084 0,-0.016659 0.08016,-0.030084 0.18038,-0.030084 0.10019,0 0.18039,-0.013327 0.18039,-0.030084 0,-0.017541 0.09959,-0.030084 0.238707,-0.030084 0.131294,0 0.247114,-0.013524 0.257335,-0.030085 0.01185,-0.019109 0.406161,-0.030084 1.084103,-0.030084 0.69026,0 1.065454,0.010581 1.065454,0.030084 M 15.413202,14.84789 c 0,0.01656 0.05409,0.03008 0.12026,0.03008 0.06615,0 0.120251,0.01353 0.120251,0.03008 0,0.01656 0.02704,0.03008 0.06017,0.03008 0.03303,0 0.06017,0.01353 0.06017,0.03008 0,0.01657 0.02028,0.03008 0.04508,0.03008 0.0248,0 0.04508,0.01353 0.04508,0.03008 0,0.01656 0.02127,0.03008 0.04723,0.03008 0.02597,0 0.06497,0.01695 0.08682,0.03763 0.0733,0.06958 0.167072,0.142809 0.182938,0.142809 0.02685,0 0.224125,0.206907 0.224125,0.235021 0,0.01461 0.04057,0.06909 0.09016,0.121005 0.04958,0.05193 0.09016,0.114763 0.09016,0.139722 0,0.02499 0.01097,0.04538 0.0244,0.04538 0.01342,0 0.04303,0.04734 0.06575,0.105231 0.02273,0.05792 0.05232,0.105221 0.06576,0.105221 0.01342,0 0.0244,0.05409 0.0244,0.12026 0,0.06615 0.01353,0.12025 0.03008,0.12025 0.01853,0 0.03008,0.150325 0.03008,0.390835 0,0.2405 -0.01157,0.390825 -0.03008,0.390825 -0.01656,0 -0.03008,0.05409 -0.03008,0.12025 0,0.06615 -0.01353,0.12026 -0.03008,0.12026 -0.01657,0 -0.03008,0.02704 -0.03008,0.06017 0,0.03303 -0.01017,0.06017 -0.02273,0.06017 -0.01254,0 -0.04213,0.044 -0.06585,0.0977 -0.02371,0.0537 -0.05742,0.113116 -0.07497,0.131902 -0.06762,0.07242 -0.137164,0.162573 -0.137164,0.177607 0,0.02195 -0.204438,0.224114 -0.226604,0.224114 -0.01,0 -0.03596,0.01696 -0.05782,0.03753 -0.09113,0.08663 -0.161222,0.135439 -0.251338,0.175274 -0.05262,0.02332 -0.09565,0.05253 -0.09565,0.06507 0,0.01244 -0.02704,0.02273 -0.06017,0.02273 -0.03303,0 -0.06017,0.01353 -0.06017,0.03008 0,0.01657 -0.05409,0.03008 -0.120251,0.03008 -0.06615,0 -0.12026,0.01353 -0.12026,0.03008 0,0.01852 -0.150315,0.03008 -0.390824,0.03008 -0.24051,0 -0.390835,-0.01157 -0.390835,-0.03008 0,-0.01657 -0.05409,-0.03008 -0.12025,-0.03008 -0.06615,0 -0.120251,-0.01097 -0.120251,-0.0244 0,-0.01343 -0.04734,-0.04303 -0.105231,-0.06575 -0.05792,-0.02273 -0.105232,-0.05233 -0.105232,-0.06575 0,-0.01342 -0.02048,-0.0244 -0.04538,-0.0244 -0.02499,0 -0.08781,-0.04057 -0.139721,-0.09016 -0.05193,-0.04958 -0.106354,-0.09016 -0.121005,-0.09016 -0.02959,0 -0.235023,-0.198038 -0.235023,-0.226604 0,-0.01 -0.01695,-0.03596 -0.03763,-0.05782 -0.09544,-0.100561 -0.142798,-0.170835 -0.142798,-0.212023 0,-0.02459 -0.01353,-0.04469 -0.03008,-0.04469 -0.01657,0 -0.03008,-0.02028 -0.03008,-0.04508 0,-0.0248 -0.01353,-0.04508 -0.03008,-0.04508 -0.01656,0 -0.03008,-0.02704 -0.03008,-0.06017 0,-0.03303 -0.01353,-0.06017 -0.03008,-0.06017 -0.01656,0 -0.03008,-0.05409 -0.03008,-0.120261 0,-0.06615 -0.01353,-0.12025 -0.03008,-0.12025 -0.01853,0 -0.03008,-0.150324 -0.03008,-0.390824 0,-0.24051 0.01157,-0.390835 0.03008,-0.390835 0.01657,0 0.03008,-0.05409 0.03008,-0.12025 0,-0.06615 0.01097,-0.12026 0.0244,-0.12026 0.01342,0 0.04303,-0.04734 0.06575,-0.105221 0.02273,-0.05792 0.05234,-0.105232 0.06576,-0.105232 0.01342,0 0.0244,-0.02048 0.0244,-0.04538 0,-0.02499 0.04057,-0.08781 0.09016,-0.139721 0.04958,-0.05193 0.09016,-0.106354 0.09016,-0.121005 0,-0.01461 0.04694,-0.0735 0.104246,-0.130785 0.05723,-0.05732 0.116193,-0.104235 0.130775,-0.104235 0.01461,0 0.06908,-0.04057 0.121005,-0.09016 0.05193,-0.04958 0.114772,-0.09016 0.139721,-0.09016 0.02499,0 0.04538,-0.01097 0.04538,-0.0244 0,-0.01343 0.04734,-0.04302 0.105232,-0.06575 0.05792,-0.02273 0.105231,-0.05232 0.105231,-0.06576 0,-0.01342 0.05409,-0.0244 0.120251,-0.0244 0.06615,0 0.12025,-0.01353 0.12025,-0.03008 0,-0.01853 0.150325,-0.03008 0.390834,-0.03008 0.24051,0 0.390825,0.01157 0.390825,0.03008 M 4.679776,16.742422 c 0,0.01656 0.074378,0.03008 0.1653474,0.03008 0.09094,0 0.1653574,0.01353 0.1653574,0.03008 0,0.01657 0.066832,0.03008 0.1485119,0.03008 0.081728,0 0.1569297,0.01353 0.1671506,0.03008 0.01019,0.01657 0.077906,0.03008 0.1503248,0.03008 0.072419,0 0.1400941,0.01353 0.1503151,0.03008 0.01019,0.01657 0.057621,0.03008 0.1052176,0.03008 0.047626,0 0.094957,0.01353 0.1052273,0.03008 0.01019,0.01656 0.04498,0.03008 0.077318,0.03008 0.032338,0 0.082218,0.01215 0.1109406,0.02715 0.028713,0.015 0.1131062,0.04351 0.187514,0.0636 0.1455132,0.0392 0.1952655,0.05703 0.3652776,0.131676 0.060463,0.02655 0.1449841,0.04822 0.1878962,0.04822 0.04302,0 0.078201,0.01353 0.078201,0.03008 0,0.01657 0.027047,0.03008 0.060072,0.03008 0.033122,0 0.060169,0.01353 0.060169,0.03008 0,0.01657 0.027047,0.03008 0.060169,0.03008 0.033025,0 0.060169,0.01353 0.060169,0.03008 0,0.01657 0.026263,0.03008 0.058307,0.03008 0.032045,0 0.066735,0.01353 0.076926,0.03008 0.01019,0.01657 0.044882,0.03008 0.076926,0.03008 0.032044,0 0.058307,0.01353 0.058307,0.03008 0,0.01656 0.020285,0.03008 0.045077,0.03008 0.024793,0 0.045077,0.01353 0.045077,0.03008 0,0.01656 0.020285,0.03008 0.045077,0.03008 0.024793,0 0.045077,0.01353 0.045077,0.03008 0,0.01657 0.027047,0.03008 0.060169,0.03008 0.033025,0 0.060169,0.01353 0.060169,0.03008 0,0.01656 0.020873,0.03008 0.046352,0.03008 0.025479,0 0.075359,0.02704 0.1108621,0.06007 0.035475,0.03312 0.082316,0.06017 0.1039434,0.06017 0.021755,0 0.039492,0.01353 0.039492,0.03008 0,0.01657 0.027047,0.03008 0.060169,0.03008 0.033025,0 0.060169,0.01353 0.060169,0.03008 0,0.01656 0.021657,0.03008 0.048116,0.03008 0.02636,0 0.085941,0.04057 0.1322741,0.09016 0.046352,0.04958 0.091724,0.09016 0.1008665,0.09016 0.00882,0 0.1070991,0.06762 0.2177358,0.150316 0.1106368,0.08271 0.211278,0.150315 0.2236743,0.150315 0.012446,0 0.087118,0.06085 0.1658767,0.135292 0.078789,0.07438 0.1546758,0.135282 0.1688067,0.135282 0.024695,0 0.3206309,0.2914 0.7656476,0.753996 0.1180743,0.122661 0.2563653,0.256895 0.3073233,0.29824 0.05086,0.04135 0.093,0.09339 0.09349,0.115741 5.29e-4,0.02224 0.04145,0.07839 0.09114,0.124768 0.04958,0.04635 0.09016,0.09623 0.09016,0.110931 0,0.0147 0.05409,0.08663 0.12025,0.159634 0.06615,0.07301 0.12026,0.144533 0.12026,0.158811 0,0.01421 0.01685,0.04351 0.03753,0.06516 0.02068,0.02155 0.05792,0.06948 0.0827,0.106501 0.0248,0.03704 0.06575,0.09623 0.09104,0.131451 0.02519,0.03528 0.06458,0.101175 0.08751,0.146337 0.02284,0.04527 0.06644,0.108902 0.09692,0.141602 0.03047,0.03263 0.05527,0.07723 0.05527,0.09906 0,0.02185 0.02705,0.05919 0.06017,0.0831 0.03303,0.02381 0.06017,0.06438 0.06017,0.09016 0,0.02577 0.02704,0.06635 0.06017,0.09016 0.03303,0.02381 0.06017,0.06742 0.06017,0.09682 0,0.0295 0.01353,0.05351 0.03008,0.05351 0.01657,0 0.03008,0.02705 0.03008,0.06017 0,0.03303 0.01353,0.06017 0.03008,0.06017 0.01656,0 0.03008,0.02705 0.03008,0.06017 0,0.03303 0.01353,0.06017 0.03008,0.06017 0.01656,0 0.03008,0.02705 0.03008,0.06017 0,0.03303 0.01353,0.06017 0.03008,0.06017 0.01656,0 0.03008,0.02704 0.03008,0.06017 0,0.03303 0.01097,0.06017 0.0244,0.06017 0.01342,0 0.04302,0.04734 0.06575,0.10522 0.02273,0.05792 0.05234,0.105232 0.06576,0.105232 0.01343,0 0.0244,0.02705 0.0244,0.06017 0,0.03303 0.01353,0.06017 0.03008,0.06017 0.01656,0 0.03008,0.02704 0.03008,0.06017 0,0.03303 0.01353,0.06017 0.03008,0.06017 0.01657,0 0.03008,0.02705 0.03008,0.06017 0,0.03303 0.01353,0.06017 0.03008,0.06017 0.01657,0 0.03008,0.03518 0.03008,0.0782 0,0.04292 0.02166,0.127463 0.04821,0.187897 0.02646,0.06036 0.06184,0.143553 0.07859,0.184888 0.01685,0.04135 0.04243,0.0987 0.05713,0.127394 0.01461,0.02871 0.02655,0.07271 0.02655,0.0977 0,0.02499 0.01353,0.04547 0.03008,0.04547 0.01656,0 0.03008,0.03381 0.03008,0.07516 0,0.04135 0.01353,0.07516 0.03008,0.07516 0.01657,0 0.03008,0.04057 0.03008,0.09016 0,0.04958 0.01353,0.09016 0.03008,0.09016 0.01656,0 0.03008,0.03978 0.03008,0.08839 0,0.04861 0.01353,0.09682 0.03008,0.107031 0.01656,0.01017 0.03008,0.05753 0.03008,0.10522 0,0.04762 0.01353,0.09505 0.03008,0.105232 0.01656,0.01017 0.03008,0.05086 0.03008,0.09016 0,0.03939 0.01353,0.07997 0.03008,0.09016 0.01657,0.01017 0.03008,0.05076 0.03008,0.09016 0,0.03939 0.01353,0.07997 0.03008,0.09016 0.01657,0.01017 0.03008,0.06438 0.03008,0.120259 0,0.05596 0.01353,0.11003 0.03008,0.120251 0.01657,0.01017 0.03008,0.07869 0.03008,0.152128 0,0.0734 0.01353,0.133479 0.03008,0.133479 0.01657,0 0.03008,0.05409 0.03008,0.12025 0,0.06615 0.01353,0.12026 0.03008,0.12026 0.01657,0 0.03008,0.06007 0.03008,0.13348 0,0.0734 0.01353,0.141907 0.03008,0.152127 0.01657,0.01017 0.03008,0.105751 0.03008,0.212249 0,0.109049 0.01313,0.193609 0.03008,0.193609 0.01724,0 0.03008,0.09016 0.03008,0.210445 0,0.12025 0.01284,0.210445 0.03008,0.210445 0.01803,0 0.03008,0.12025 0.03008,0.30064 0,0.180379 0.01205,0.30063 0.03008,0.30063 0.01823,0 0.03008,0.135292 0.03008,0.345737 0,0.339417 -0.04861,0.455835 -0.133332,0.318828 -0.01558,-0.02519 -0.06311,-0.03528 -0.38526,-0.08173 -0.07026,-0.01017 -0.141299,-0.0289 -0.157841,-0.04174 -0.01657,-0.01284 -0.114615,-0.03303 -0.217961,-0.04469 -0.103346,-0.01176 -0.187896,-0.03351 -0.187896,-0.04841 0,-0.01499 -0.05497,-0.02715 -0.122053,-0.02715 -0.07369,0 -0.114625,-0.01186 -0.10342,-0.03008 0.01088,-0.01754 -0.0198,-0.03008 -0.0734,-0.03008 -0.05057,0 -0.09201,-0.01353 -0.09201,-0.03008 0,-0.01656 -0.04057,-0.03008 -0.09016,-0.03008 -0.04958,0 -0.09016,-0.01353 -0.09016,-0.03008 0,-0.01657 -0.04057,-0.03008 -0.09016,-0.03008 -0.04959,0 -0.09016,-0.01353 -0.09016,-0.03008 0,-0.01657 -0.03303,-0.03008 -0.0733,-0.03008 -0.04038,0 -0.08173,-0.01353 -0.09201,-0.03008 -0.01017,-0.01657 -0.04488,-0.03008 -0.07693,-0.03008 -0.03204,0 -0.05831,-0.01353 -0.05831,-0.03008 0,-0.01656 -0.02704,-0.03008 -0.06017,-0.03008 -0.03302,0 -0.06017,-0.01353 -0.06017,-0.03008 0,-0.01657 -0.04057,-0.03008 -0.09016,-0.03008 -0.04958,0 -0.09016,-0.01353 -0.09016,-0.03008 0,-0.01657 -0.02704,-0.03008 -0.06017,-0.03008 -0.03303,0 -0.06017,-0.01353 -0.06017,-0.03008 0,-0.01656 -0.03381,-0.03008 -0.07516,-0.03008 -0.04135,0 -0.07516,-0.01353 -0.07516,-0.03008 0,-0.01656 -0.02705,-0.03008 -0.06017,-0.03008 -0.03303,0 -0.06007,-0.01353 -0.06007,-0.03008 0,-0.01655 -0.02597,-0.03008 -0.05762,-0.03008 -0.03165,0 -0.06213,-0.01017 -0.06762,-0.02254 -0.0059,-0.01244 -0.124983,-0.08232 -0.2655377,-0.15543 -0.1405449,-0.07311 -0.2961225,-0.155881 -0.3457278,-0.184065 -0.049585,-0.02812 -0.1375461,-0.07663 -0.1954124,-0.107628 -0.057915,-0.03107 -0.1119891,-0.06321 -0.1202598,-0.07154 -0.00784,-0.0078 -0.052231,-0.0342 -0.097702,-0.05762 -0.045469,-0.02342 -0.082707,-0.0539 -0.082707,-0.06762 0,-0.01372 -0.024009,-0.02499 -0.053505,-0.02499 -0.029398,0 -0.073006,-0.02704 -0.096819,-0.06017 -0.023813,-0.03303 -0.064383,-0.06017 -0.090156,-0.06017 -0.025772,0 -0.066343,-0.02704 -0.090156,-0.06017 -0.023813,-0.03303 -0.062031,-0.06017 -0.084766,-0.06017 -0.022735,0 -0.079278,-0.04057 -0.1256692,-0.09016 -0.046352,-0.04958 -0.1004841,-0.09016 -0.1202501,-0.09016 -0.019795,0 -0.073889,-0.04057 -0.12025,-0.09016 -0.046352,-0.04958 -0.098015,-0.09016 -0.1147721,-0.09016 -0.016855,0 -0.034984,-0.01006 -0.040571,-0.02254 -0.00588,-0.01235 -0.057327,-0.06017 -0.1152131,-0.106119 -0.1065067,-0.08483 -0.2856029,-0.242607 -0.5533262,-0.487781 -0.08114,-0.07438 -0.159556,-0.135214 -0.174216,-0.135214 -0.03371,0 -0.1742161,-0.139193 -0.1742161,-0.17256 0,-0.02881 -0.2448707,-0.307402 -0.4735036,-0.538445 -0.086824,-0.0877 -0.1578411,-0.167073 -0.1578411,-0.176244 0,-0.0088 -0.047331,-0.06399 -0.1052177,-0.121907 -0.057915,-0.05792 -0.1052272,-0.117849 -0.1052272,-0.133264 0,-0.01538 -0.047331,-0.07536 -0.1052177,-0.133254 -0.057915,-0.05792 -0.1052272,-0.117251 -0.1052272,-0.131833 0,-0.01461 -0.04057,-0.06909 -0.090156,-0.121005 -0.049585,-0.05193 -0.090156,-0.111831 -0.090156,-0.133106 0,-0.02127 -0.027047,-0.05821 -0.060169,-0.08202 -0.033025,-0.02381 -0.060169,-0.06742 -0.060169,-0.09682 0,-0.0295 -0.013328,-0.05351 -0.029497,-0.05351 -0.016267,0 -0.037729,-0.03282 -0.047822,-0.07301 C 5.615782,22.642541 5.58168,22.586391 5.550125,22.557707 5.51857,22.529197 5.4927,22.493717 5.4927,22.479117 c 0,-0.0147 -0.027047,-0.05566 -0.060169,-0.09113 -0.033025,-0.03547 -0.060169,-0.08231 -0.060169,-0.10395 0,-0.02176 -0.013523,-0.0395 -0.030084,-0.0395 -0.016562,0 -0.030085,-0.02705 -0.030085,-0.06017 0,-0.03303 -0.013524,-0.06017 -0.030084,-0.06017 -0.016562,0 -0.030084,-0.02705 -0.030084,-0.06017 0,-0.03303 -0.013523,-0.06017 -0.030085,-0.06017 -0.016562,0 -0.030084,-0.02597 -0.030084,-0.05762 0,-0.03165 -0.01019,-0.06203 -0.022539,-0.06762 -0.028222,-0.01254 -0.1258946,-0.172648 -0.1481395,-0.24299 -0.00882,-0.02891 -0.028614,-0.05262 -0.043314,-0.05262 -0.014601,0 -0.026556,-0.02705 -0.026556,-0.06017 0,-0.03303 -0.013524,-0.06017 -0.030085,-0.06017 -0.016562,0 -0.030084,-0.02626 -0.030084,-0.05831 0,-0.03204 -0.013523,-0.06674 -0.030085,-0.07693 -0.016562,-0.01017 -0.030084,-0.04488 -0.030084,-0.07693 0,-0.03204 -0.013523,-0.05831 -0.030084,-0.05831 -0.016562,0 -0.030085,-0.02705 -0.030085,-0.06017 0,-0.03303 -0.013524,-0.06017 -0.030084,-0.06017 -0.016562,0 -0.030084,-0.02627 -0.030084,-0.05831 0,-0.03204 -0.013524,-0.06674 -0.030084,-0.07693 -0.016562,-0.01017 -0.030084,-0.05165 -0.030084,-0.09201 0,-0.04038 -0.013523,-0.0734 -0.030085,-0.0734 -0.016562,0 -0.030084,-0.02704 -0.030084,-0.06017 0,-0.03303 -0.013523,-0.06017 -0.030085,-0.06017 -0.016562,0 -0.030084,-0.03303 -0.030084,-0.0734 0,-0.04038 -0.013524,-0.08173 -0.030084,-0.09202 -0.016562,-0.01017 -0.030084,-0.05086 -0.030084,-0.09016 0,-0.03939 -0.01225,-0.07917 -0.027243,-0.08849 -0.014994,-0.0088 -0.036552,-0.08438 -0.04792,-0.167081 -0.011367,-0.08271 -0.032926,-0.157831 -0.047822,-0.167082 -0.014993,-0.0088 -0.027243,-0.04909 -0.027243,-0.08849 0,-0.03939 -0.013523,-0.07997 -0.030084,-0.09016 -0.016562,-0.01017 -0.030084,-0.05086 -0.030084,-0.09016 0,-0.03939 -0.013524,-0.07997 -0.030085,-0.09016 -0.016562,-0.01017 -0.030084,-0.07193 -0.030084,-0.137085 0,-0.06516 -0.013523,-0.118447 -0.030085,-0.118447 -0.016562,0 -0.030084,-0.05331 -0.030084,-0.118456 0,-0.06516 -0.013523,-0.126866 -0.030085,-0.137086 -0.016562,-0.01017 -0.030084,-0.07115 -0.030084,-0.135293 0,-0.06419 -0.012054,-0.12416 -0.026949,-0.133332 -0.030479,-0.01881 -0.059289,-0.182487 -0.082416,-0.467938 -0.00882,-0.107482 -0.028222,-0.20827 -0.043412,-0.223978 -0.015287,-0.01568 -0.027635,-0.112959 -0.027635,-0.216158 0,-0.103187 -0.013524,-0.19601 -0.030084,-0.206231 -0.018031,-0.01117 -0.030084,-0.215786 -0.030084,-0.512888 v -0.494249 h 0.4208898 c 0.2605793,0 0.4208899,0.01146 0.4208899,0.03008 m 21.5255928,0.464184 c 0,0.297102 -0.01205,0.501688 -0.03008,0.512889 -0.01656,0.01017 -0.03008,0.104924 -0.03008,0.210445 0,0.105517 -0.01353,0.200223 -0.03008,0.210445 -0.01657,0.01017 -0.03008,0.111685 -0.03008,0.225477 0,0.113792 -0.01205,0.214355 -0.02685,0.223527 -0.0148,0.0088 -0.0342,0.06742 -0.04312,0.129491 -0.0088,0.06213 -0.03146,0.180615 -0.04988,0.263284 -0.01853,0.0827 -0.04135,0.197666 -0.05066,0.255543 -0.0088,0.05792 -0.02724,0.11875 -0.04008,0.135282 -0.01274,0.01657 -0.03273,0.114625 -0.04449,0.217971 -0.01176,0.103336 -0.03351,0.187896 -0.04841,0.187896 -0.015,0 -0.02715,0.04057 -0.02715,0.09016 0,0.04958 -0.01353,0.09016 -0.03008,0.09016 -0.01657,0 -0.03008,0.03303 -0.03008,0.0734 0,0.04038 -0.01353,0.08173 -0.03008,0.09201 -0.01657,0.01017 -0.03008,0.05086 -0.03008,0.09016 0,0.03939 -0.01353,0.07996 -0.03008,0.09016 -0.01657,0.01017 -0.03008,0.05086 -0.03008,0.09016 0,0.03939 -0.01353,0.07997 -0.03008,0.09016 -0.01656,0.01017 -0.03008,0.05165 -0.03008,0.09201 0,0.04038 -0.01353,0.0734 -0.03008,0.0734 -0.01656,0 -0.03008,0.02705 -0.03008,0.06017 0,0.03302 -0.01353,0.06017 -0.03008,0.06017 -0.01657,0 -0.03008,0.03303 -0.03008,0.0734 0,0.04038 -0.01353,0.08173 -0.03008,0.09201 -0.01656,0.01017 -0.03008,0.04488 -0.03008,0.07693 0,0.03204 -0.01353,0.05831 -0.03008,0.05831 -0.01656,0 -0.03008,0.02705 -0.03008,0.06017 0,0.03303 -0.01353,0.06017 -0.03008,0.06017 -0.01655,0 -0.03008,0.02626 -0.03008,0.05831 0,0.03215 -0.01353,0.06674 -0.03008,0.07693 -0.01657,0.01017 -0.03008,0.04488 -0.03008,0.07693 0,0.03204 -0.01353,0.05831 -0.03008,0.05831 -0.01657,0 -0.03008,0.02704 -0.03008,0.06017 0,0.03303 -0.01017,0.06017 -0.02254,0.06036 -0.01244,1.47e-4 -0.03743,0.03058 -0.05566,0.06762 -0.08878,0.180977 -0.179625,0.338965 -0.199919,0.347981 -0.01245,0.0059 -0.02254,0.03596 -0.02254,0.06762 0,0.03176 -0.01353,0.05762 -0.03008,0.05762 -0.01656,0 -0.03008,0.02705 -0.03008,0.06017 0,0.03303 -0.01509,0.06017 -0.03361,0.06017 -0.01872,0 -0.02666,0.02655 -0.01784,0.06017 0.0088,0.03303 0.0039,0.05292 -0.01017,0.04409 -0.02881,-0.01784 -0.124464,0.147689 -0.10251,0.177528 0.0078,0.01038 0.0059,0.01274 -0.0049,0.0049 -0.03322,-0.0243 -0.101619,0.06762 -0.101619,0.136724 0,0.03694 -0.0088,0.05889 -0.01862,0.0487 -0.02499,-0.02499 -0.101609,0.05409 -0.101609,0.104998 0,0.02234 -0.02704,0.06017 -0.06017,0.08398 -0.03303,0.02381 -0.06017,0.06076 -0.06017,0.08202 0,0.02127 -0.04057,0.08115 -0.09016,0.133107 -0.04958,0.05193 -0.09016,0.107256 -0.09016,0.122964 0,0.01568 -0.04057,0.06644 -0.09016,0.112812 -0.04959,0.04635 -0.09016,0.09751 -0.09016,0.113646 0,0.01616 -0.05409,0.08516 -0.120249,0.153324 -0.06615,0.0682 -0.120261,0.13243 -0.120261,0.142877 0,0.01049 -0.06654,0.0882 -0.147983,0.172864 -0.310341,0.322581 -0.483352,0.515367 -0.483352,0.538513 0,0.03263 -0.141073,0.171511 -0.174216,0.171511 -0.0147,0 -0.08809,0.05753 -0.163171,0.127777 -0.07516,0.07026 -0.213601,0.195412 -0.307785,0.278091 -0.09417,0.08271 -0.217059,0.194285 -0.273122,0.248026 -0.05596,0.0537 -0.117173,0.0977 -0.13589,0.0977 -0.01872,0 -0.07193,0.04057 -0.1183,0.09016 -0.04635,0.04958 -0.100486,0.09016 -0.120251,0.09016 -0.0198,0 -0.07389,0.04057 -0.120259,0.09016 -0.04635,0.04958 -0.102891,0.09016 -0.12567,0.09016 -0.02273,0 -0.06096,0.02705 -0.08477,0.06017 -0.02381,0.03303 -0.06438,0.06017 -0.09016,0.06017 -0.02577,0 -0.06635,0.02705 -0.09016,0.06017 -0.02381,0.03303 -0.06165,0.06017 -0.08398,0.06017 -0.04381,0 -0.13153,0.07507 -0.111313,0.09535 0.0069,0.0069 -0.01735,0.0145 -0.05361,0.01724 -0.03626,0.003 -0.07065,0.01911 -0.07634,0.03635 -0.0059,0.01724 -0.02871,0.03146 -0.05096,0.03146 -0.02224,0 -0.05831,0.01685 -0.08016,0.03753 -0.03489,0.03303 -0.430512,0.248408 -0.618262,0.336644 -0.03704,0.01735 -0.06751,0.04174 -0.06762,0.05419 -1.57e-4,0.01245 -0.02724,0.02254 -0.06036,0.02254 -0.03303,0 -0.06017,0.01353 -0.06017,0.03008 0,0.01656 -0.02705,0.03008 -0.06017,0.03008 -0.03303,0 -0.06017,0.01353 -0.06017,0.03008 0,0.01656 -0.02704,0.03008 -0.06017,0.03008 -0.03303,0 -0.06017,0.01353 -0.06017,0.03008 0,0.01657 -0.03381,0.03008 -0.07516,0.03008 -0.04135,0 -0.07516,0.01353 -0.07516,0.03008 0,0.01657 -0.02705,0.03008 -0.06017,0.03008 -0.03303,0 -0.06017,0.01353 -0.06017,0.03008 0,0.01656 -0.04057,0.03008 -0.09016,0.03008 -0.04958,0 -0.09016,0.01353 -0.09016,0.03008 0,0.01656 -0.02705,0.03008 -0.06007,0.03008 -0.03302,0 -0.06017,0.01353 -0.06017,0.03008 0,0.01657 -0.02626,0.03008 -0.05831,0.03008 -0.03215,0 -0.06673,0.01353 -0.07693,0.03008 -0.01017,0.01657 -0.05165,0.03008 -0.09201,0.03008 -0.04038,0 -0.0734,0.01353 -0.0734,0.03008 0,0.01656 -0.04057,0.03008 -0.09016,0.03008 -0.04958,0 -0.09016,0.01353 -0.09016,0.03008 0,0.01656 -0.04057,0.03008 -0.09016,0.03008 -0.04958,0 -0.09016,0.01353 -0.09016,0.03008 0,0.01656 -0.03381,0.03008 -0.07516,0.03008 -0.04135,0 -0.07516,0.01353 -0.07516,0.03008 0,0.01657 -0.05409,0.03008 -0.12025,0.03008 -0.06615,0 -0.120259,0.01245 -0.120259,0.02764 0,0.01528 -0.0882,0.03713 -0.195864,0.04861 -0.107697,0.01157 -0.203154,0.03293 -0.21217,0.04753 -0.0088,0.01461 -0.06889,0.02655 -0.133107,0.02655 -0.06419,0 -0.125061,0.01353 -0.135292,0.03008 -0.01017,0.01657 -0.07115,0.03008 -0.135283,0.03008 -0.06419,0 -0.125062,0.01353 -0.135282,0.03008 -0.01017,0.01656 -0.04488,0.03008 -0.07693,0.03008 -0.05488,0 -0.05821,-0.02332 -0.05625,-0.398342 9.8e-4,-0.250583 0.01176,-0.376017 0.02793,-0.33821 0.01676,0.03911 0.02666,-0.04792 0.02793,-0.248027 9.79e-4,-0.183995 0.0142,-0.308156 0.03215,-0.308156 0.01724,0 0.03008,-0.09016 0.03008,-0.210445 0,-0.120259 0.01284,-0.210445 0.03008,-0.210445 0.01685,0 0.03008,-0.08457 0.03008,-0.193609 0,-0.106501 0.01353,-0.202027 0.03008,-0.212248 0.01657,-0.01017 0.03008,-0.07869 0.03008,-0.152128 0,-0.0734 0.01353,-0.133479 0.03008,-0.133479 0.01657,0 0.03008,-0.05409 0.03008,-0.120261 0,-0.06615 0.01353,-0.120249 0.03008,-0.120249 0.01656,0 0.03008,-0.06085 0.03008,-0.135283 0,-0.07438 0.01353,-0.135292 0.03008,-0.135292 0.01655,0 0.03008,-0.05331 0.03008,-0.118447 0,-0.06516 0.01353,-0.126875 0.03008,-0.137095 0.01656,-0.01017 0.03008,-0.05165 0.03008,-0.09201 0,-0.04038 0.01353,-0.0734 0.03008,-0.0734 0.01657,0 0.03008,-0.03978 0.03008,-0.08839 0,-0.04861 0.01353,-0.09682 0.03008,-0.10702 0.01656,-0.01017 0.03008,-0.05762 0.03008,-0.105232 0,-0.04762 0.01353,-0.09496 0.03008,-0.105221 0.01656,-0.01017 0.03008,-0.0584 0.03008,-0.10703 0,-0.04861 0.01353,-0.08839 0.03008,-0.08839 0.01657,0 0.03008,-0.04057 0.03008,-0.09016 0,-0.04958 0.01353,-0.09016 0.03008,-0.09016 0.01657,0 0.03008,-0.03381 0.03008,-0.07516 0,-0.04135 0.01353,-0.07516 0.03008,-0.07516 0.01656,0 0.03008,-0.02049 0.03008,-0.04547 0,-0.02499 0.01353,-0.07242 0.03008,-0.105231 0.01656,-0.03283 0.04361,-0.08663 0.06017,-0.119496 0.01657,-0.03282 0.03008,-0.08016 0.03008,-0.105231 0,-0.02499 0.01108,-0.04547 0.0247,-0.04547 0.01353,0 0.04303,-0.06762 0.06555,-0.150314 0.02254,-0.08271 0.05076,-0.150325 0.06292,-0.150325 0.01205,0 0.03116,-0.05409 0.04234,-0.120251 0.01117,-0.06615 0.03263,-0.120259 0.04773,-0.120259 0.01509,0 0.02744,-0.02704 0.02744,-0.06017 0,-0.03303 0.01097,-0.06017 0.0244,-0.06017 0.01343,0 0.04301,-0.04734 0.06575,-0.105232 0.02273,-0.05792 0.05234,-0.105221 0.06576,-0.105221 0.01343,0 0.0244,-0.02704 0.0244,-0.06017 0,-0.03303 0.01353,-0.06017 0.03008,-0.06017 0.01657,0 0.03008,-0.02704 0.03008,-0.06017 0,-0.03303 0.01353,-0.06017 0.03008,-0.06017 0.01656,0 0.03008,-0.02705 0.03008,-0.06017 0,-0.03303 0.01353,-0.06017 0.03008,-0.06017 0.01656,0 0.03008,-0.02705 0.03008,-0.06017 0,-0.03302 0.01353,-0.06017 0.03008,-0.06017 0.01657,0 0.03008,-0.02401 0.03008,-0.0535 0,-0.0294 0.02704,-0.07301 0.06017,-0.09682 0.03303,-0.02381 0.06007,-0.06438 0.06007,-0.09016 0,-0.02577 0.02705,-0.06635 0.06017,-0.09016 0.03303,-0.02381 0.06017,-0.06115 0.06017,-0.0831 0,-0.02185 0.02489,-0.06644 0.05527,-0.09906 0.03047,-0.03273 0.07438,-0.09633 0.0977,-0.141604 0.02332,-0.04518 0.06605,-0.108382 0.09496,-0.140398 0.02891,-0.03204 0.05262,-0.07604 0.05262,-0.0977 0,-0.02176 0.01006,-0.0395 0.02254,-0.03969 0.01245,-7.9e-5 0.05635,-0.05086 0.0977,-0.112744 0.09427,-0.141073 0.118898,-0.173089 0.202929,-0.262902 0.03724,-0.03978 0.06762,-0.0879 0.06762,-0.106727 0,-0.01892 0.04057,-0.07232 0.09016,-0.118671 0.04958,-0.04635 0.09055,-0.10252 0.09113,-0.124769 5.29e-4,-0.02234 0.04253,-0.07438 0.09348,-0.115741 0.05086,-0.04135 0.195941,-0.181585 0.322286,-0.311694 0.543168,-0.559329 0.728438,-0.740541 0.757005,-0.740541 0.01676,0 0.09005,-0.05753 0.162868,-0.127767 0.0729,-0.07027 0.227878,-0.18865 0.344453,-0.263058 0.116576,-0.07438 0.21217,-0.145435 0.212474,-0.157831 3.04e-4,-0.01245 0.015,-0.02254 0.03273,-0.02254 0.01764,0 0.04997,-0.01696 0.07183,-0.03763 0.09025,-0.08565 0.169032,-0.142808 0.19699,-0.142808 0.01627,0 0.02969,-0.01353 0.02969,-0.03008 0,-0.01657 0.02704,-0.03008 0.06017,-0.03008 0.03303,0 0.06017,-0.01353 0.06017,-0.03008 0,-0.01657 0.01774,-0.03008 0.0395,-0.03008 0.02166,0 0.0685,-0.02705 0.10395,-0.06017 0.03547,-0.03303 0.08535,-0.06007 0.110852,-0.06007 0.02547,0 0.04635,-0.01353 0.04635,-0.03008 0,-0.01657 0.02705,-0.03008 0.06007,-0.03008 0.03312,0 0.06017,-0.01353 0.06017,-0.03008 0,-0.01656 0.01774,-0.03008 0.0395,-0.03008 0.02166,0 0.0685,-0.02704 0.103939,-0.06017 0.03547,-0.03303 0.07878,-0.06007 0.09633,-0.06007 0.01745,0 0.0585,-0.01353 0.09143,-0.03008 0.03282,-0.01656 0.08663,-0.04361 0.119506,-0.06017 0.03282,-0.01657 0.08016,-0.03008 0.10522,-0.03008 0.02499,0 0.04547,-0.01353 0.04547,-0.03008 0,-0.01657 0.02028,-0.03008 0.04508,-0.03008 0.0248,0 0.04508,-0.01353 0.04508,-0.03008 0,-0.01657 0.03724,-0.03019 0.08271,-0.03019 0.04547,-1.47e-4 0.116496,-0.01744 0.15783,-0.03842 0.04135,-0.02107 0.176627,-0.06967 0.30064,-0.108158 0.124013,-0.03851 0.248997,-0.08212 0.277709,-0.09692 0.02871,-0.0148 0.07859,-0.02695 0.110931,-0.02695 0.03234,0 0.06712,-0.01353 0.07732,-0.03008 0.01017,-0.01657 0.05753,-0.03008 0.105221,-0.03008 0.04762,0 0.09505,-0.01353 0.105231,-0.03008 0.01017,-0.01657 0.07781,-0.03008 0.150315,-0.03008 0.07242,0 0.140095,-0.01353 0.150315,-0.03008 0.01017,-0.01657 0.08546,-0.03008 0.16716,-0.03008 0.08173,0 0.148512,-0.01353 0.148512,-0.03008 0,-0.01656 0.07438,-0.03008 0.165347,-0.03008 0.09094,0 0.165349,-0.01353 0.165349,-0.03008 0,-0.01862 0.160319,-0.03008 0.420899,-0.03008 h 0.42089 v 0.494249"
     id="path0" />
</svg>
