<?xml version="1.0" encoding="UTF-8" standalone="no"?>
<svg
   xmlns:dc="http://purl.org/dc/elements/1.1/"
   xmlns:cc="http://creativecommons.org/ns#"
   xmlns:rdf="http://www.w3.org/1999/02/22-rdf-syntax-ns#"
   xmlns:svg="http://www.w3.org/2000/svg"
   xmlns="http://www.w3.org/2000/svg"
   xmlns:xlink="http://www.w3.org/1999/xlink"
   xmlns:sodipodi="http://sodipodi.sourceforge.net/DTD/sodipodi-0.dtd"
   xmlns:inkscape="http://www.inkscape.org/namespaces/inkscape"
   version="1.1"
   id="svg13"
   sodipodi:docname="residualvm.svg"
   inkscape:version="0.92.5 (2060ec1f9f, 2020-04-08)"
   width="166.22113"
   height="34">
  <metadata
     id="metadata19">
    <rdf:RDF>
      <cc:Work
         rdf:about="">
        <dc:format>image/svg+xml</dc:format>
        <dc:type
           rdf:resource="http://purl.org/dc/dcmitype/StillImage" />
        <dc:title></dc:title>
      </cc:Work>
    </rdf:RDF>
  </metadata>
  <defs
     id="defs17" />
  <sodipodi:namedview
     pagecolor="#ffffff"
     bordercolor="#666666"
     borderopacity="1"
     objecttolerance="10"
     gridtolerance="10"
     guidetolerance="10"
     inkscape:pageopacity="0"
     inkscape:pageshadow="2"
     inkscape:window-width="1440"
     inkscape:window-height="837"
     id="namedview15"
     showgrid="false"
     inkscape:zoom="0.98083333"
     inkscape:cx="196.66293"
     inkscape:cy="-18.675175"
     inkscape:window-x="0"
     inkscape:window-y="0"
     inkscape:window-maximized="1"
     inkscape:current-layer="svg13"
     fit-margin-top="0"
     fit-margin-left="0"
     fit-margin-right="0"
     fit-margin-bottom="0" />
  <path
     style="fill:#aa0000;fill-opacity:1;stroke:none;stroke-width:0.62962681;stroke-opacity:1"
     id="path5729"
     d="m 134.39828,2.254064 c 0.003,0.01322 0.0246,0.05037 0.0567,0.09948 -0.0334,-0.08563 -0.0617,-0.120889 -0.0567,-0.09948 z m -0.48041,0.463406 c -0.007,-0.0057 -0.0447,0.07933 -0.0674,0.176925 0.0485,-0.108296 0.0718,-0.172518 0.0674,-0.176925 z m 0.68252,0.647886 c -0.32363,0.01889 -0.60318,0.05981 -0.81033,0.107036 -0.0164,0.229814 -0.0327,0.50685 -0.0485,0.835515 -0.0623,1.285069 -0.11774,3.3238 -0.17504,6.323972 -0.0623,3.255171 -0.11081,5.706938 -0.19015,7.548596 -0.08,1.841659 -0.12088,2.968061 -0.46403,4.146093 -0.17126,0.588701 -0.37085,1.510474 -1.66599,2.161509 -0.64852,0.324887 -1.4834,0.35385 -2.03936,0.206517 -0.55597,-0.147962 -0.89596,-0.379665 -1.15789,-0.578627 -1.04833,-0.796478 -1.36629,-1.456327 -2.00347,-2.329619 -1.73714,-2.383138 -3.19662,-5.175533 -6.07338,-11.442208 -0.6737,-1.46829 -1.21266,-2.585248 -1.61814,-3.376059 l 0.0649,0.58996 c 0.11522,0.25248 0.21344,0.492368 0.34,0.811589 0.32426,0.814737 0.77444,1.999695 1.32599,3.389911 1.10311,2.781061 2.61673,6.378119 4.06991,8.965256 1.20574,2.145768 2.7798,4.79146 4.11839,6.955488 0.66929,1.082328 1.28129,2.046287 1.75099,2.758395 0.16874,0.254999 0.34504,0.491738 0.4993,0.694478 0.0441,-0.0019 0.0737,-0.0019 0.12214,-0.005 0.53204,-0.03904 1.31655,-0.178184 1.92225,-0.33748 0.029,-0.0076 0.0504,-0.01511 0.0787,-0.02267 0.1467,-0.754923 0.33433,-1.875029 0.54148,-3.271541 1.29955,-8.769443 1.77617,-15.246414 1.57532,-20.947685 -0.0497,-1.410364 -0.10452,-2.456174 -0.16307,-3.183393 z m 1.09429,0.01889 c 0.0743,0.01322 0.12278,0.005 0.14985,0.01196 0.0686,0.01826 0.0258,0.005 -0.0541,-0.0044 -0.022,-0.0031 -0.068,-0.005 -0.0957,-0.0076 z m -2.2654,0.210295 c -0.0227,0.01448 -0.0227,0.01763 0,0 z m -0.0447,26.900806 c -0.009,0.0025 -0.0378,0.02141 -0.0907,0.06233 0.0611,-0.0277 0.10641,-0.06737 0.0907,-0.06233 z m -0.87455,0.897848 c -0.0605,0.122777 -0.0403,0.174407 -0.0466,0.210925 6.2e-4,-0.0031 6.2e-4,-0.0031 0.002,-0.0069 0.009,-0.03337 0.0321,-0.15111 0.0447,-0.203999 z"
     xlink:href="#path5719"
     inkscape:connector-curvature="0" />
  <path
     style="font-style:normal;font-weight:bold;font-stretch:normal;font-size:205.44400024px;line-height:125%;font-family:'Comic Sans MS';font-variant-ligatures:normal;font-variant-caps:normal;text-align:start;writing-mode:lr-tb;text-anchor:start;display:inline;fill:#aa0000;fill-opacity:1;stroke:none;stroke-width:0.62962681"
     d="M 4.4502289,6.566379 C 1.5558343,6.8346 -0.82667358,7.823114 0.27391411,11.33832 1.0540218,17.613181 1.0338737,24.794075 0.1398036,31.151417 -0.42056428,33.941923 7.0461803,33.501185 7.414512,32.236264 7.2778829,30.085459 6.7401816,28.83565 8.4086927,27.610396 c 1.5841411,-0.688812 2.1885833,0.0403 2.8742463,0.62396 1.318439,1.750363 0.480405,2.921469 1.473957,4.190796 0.55533,0.886515 5.934862,1.216439 7.11919,0.185111 1.326624,-1.155366 0.544627,-2.954839 -0.223517,-4.284611 -1.034477,-1.975769 -3.269023,-3.573132 -3.315615,-5.31468 0.305998,-2.537396 3.843242,-3.048653 4.013871,-7.057487 C 20.117863,10.120622 17.175617,8.970923 13.169931,7.59267 10.643238,6.752748 7.3421049,6.657675 4.4502289,6.566379 Z m 4.9696445,6.998931 c 2.1363236,0.03589 2.6129516,1.918473 2.6003586,2.847173 0.07744,0.993551 -0.163703,3.385503 -2.520396,3.397466 -2.1325461,-0.129073 -2.5109518,-2.407063 -2.4977296,-3.376059 0.048481,-1.021254 0.4545905,-2.802469 2.417767,-2.86858 z"
     id="path4525"
     inkscape:connector-curvature="0" />
  <path
     style="font-style:normal;font-weight:bold;font-stretch:normal;font-size:176.14700317px;line-height:125%;font-family:'Comic Sans MS';font-variant-ligatures:normal;font-variant-caps:normal;text-align:start;writing-mode:lr-tb;text-anchor:start;display:inline;fill:#aa0000;fill-opacity:1;stroke:none;stroke-width:0.62962681"
     id="path4701"
     d="m 30.261781,15.77656 c -0.528887,-0.01511 -1.088625,-0.0063 -1.672919,0.01952 -5.812085,0.120889 -8.251259,4.359536 -8.565443,9.791327 0.251851,3.841353 1.641437,5.705678 4.173796,7.280375 1.18181,0.572331 2.149546,0.887144 3.096505,0.970885 1.21392,0.107036 2.393211,-0.171259 3.942723,-0.77633 3.828761,-1.481512 6.725674,-3.658132 3.840094,-6.504675 -1.276254,-0.579257 -2.83521,0.342517 -6.571415,1.463253 -1.019996,0.311035 -1.813955,-0.70833 -0.256258,-1.152217 5.616901,-1.542586 7.957853,-2.15962 8.059223,-6.044418 -0.06674,-3.751946 -2.343471,-4.94383 -6.046306,-5.047718 z m -1.397772,3.94713 c 0.844959,-0.0447 1.627585,0.266333 1.878806,1.055885 0.967737,2.461211 -3.944612,4.144833 -4.481054,1.539437 -0.393516,-1.459475 1.194402,-2.519766 2.602248,-2.595322 z"
     inkscape:connector-curvature="0" />
  <path
     style="font-style:normal;font-weight:bold;font-stretch:normal;font-size:182.18800354px;line-height:125%;font-family:'Comic Sans MS';font-variant-ligatures:normal;font-variant-caps:normal;text-align:start;writing-mode:lr-tb;text-anchor:start;display:inline;fill:#aa0000;fill-opacity:1;stroke:none;stroke-width:0.62962681"
     id="path4705"
     d="m 44.70605,16.365261 c -3.158838,0.175036 -7.285412,1.498512 -7.308709,5.209532 0.319851,4.532054 7.167672,5.339865 7.501374,6.44612 -0.102629,1.864954 -5.268087,-2.300027 -6.436675,-1.268698 -2.093509,2.100435 -1.310883,3.752576 0.333073,4.970274 1.092403,0.808441 2.561952,1.424216 3.814279,1.850473 2.740766,0.72533 5.311532,-0.05289 6.854118,-0.821663 1.722029,-0.678108 2.340952,-2.934691 2.269175,-4.821053 -0.792071,-3.72802 -6.531119,-4.563535 -7.039228,-5.948084 0.06359,-2.196139 5.135866,2.658914 6.481379,1.138995 2.524803,-4.636572 -0.729108,-5.565272 -3.820576,-6.593452 -0.650404,-0.15174 -1.595474,-0.22037 -2.64821,-0.162444 z"
     inkscape:connector-curvature="0" />
  <path
     style="font-style:normal;font-weight:bold;font-stretch:normal;font-size:179.68800354px;line-height:125%;font-family:'Comic Sans MS';font-variant-ligatures:normal;font-variant-caps:normal;text-align:start;writing-mode:lr-tb;text-anchor:start;display:inline;fill:#aa0000;fill-opacity:1;stroke:none;stroke-width:0.62962681"
     id="path4707"
     d="m 56.605367,10.353584 c -2.178509,0.09192 -3.284134,1.224624 -3.346467,2.976246 0.290888,2.019213 1.337957,2.847802 3.346467,2.964283 1.961917,-0.144814 2.753988,-0.811589 3.07069,-2.964283 -0.188258,-1.698733 -1.219587,-2.859765 -3.07069,-2.976246 z m -0.577368,6.930932 c -1.608067,0.08248 -3.199763,0.956403 -2.974357,2.368027 0.546516,3.416355 0.528257,7.922594 -0.198962,11.811169 -0.84307,3.286023 7.090857,3.099023 6.064566,0 -0.874552,-3.529058 -0.638442,-7.45793 0.198962,-11.811169 0.142295,-1.743437 -1.481512,-2.450508 -3.090209,-2.368027 z"
     inkscape:connector-curvature="0" />
  <path
     style="font-style:normal;font-weight:bold;font-stretch:normal;font-size:167.25700378px;line-height:125%;font-family:'Comic Sans MS';font-variant-ligatures:normal;font-variant-caps:normal;text-align:start;writing-mode:lr-tb;text-anchor:start;display:inline;fill:#aa0000;fill-opacity:1;stroke:none;stroke-width:0.62962681"
     id="path4709"
     d="M 73.69029,7.739373 C 72.966219,7.694673 72.211926,7.89615 71.606854,8.386 c -0.521331,0.508109 -1.047069,0.602553 -0.377776,3.682687 0.08059,2.305694 0.325517,3.337023 -3.071319,3.228727 -5.613122,0.13537 -8.199629,4.738571 -8.487998,9.875697 0.06674,4.936904 3.360317,8.284629 8.141703,8.639739 1.672918,0.206517 2.510322,-0.21911 3.718576,-1.087366 0.487331,0.42248 1.188735,1.054625 1.813955,1.054625 1.987732,-0.06737 2.930283,-1.089884 2.815061,-2.937838 C 73.856511,25.47722 78.974118,11.134321 75.588615,8.567333 75.109469,8.072446 74.41499,7.783447 73.69029,7.739373 Z m -5.904011,13.628273 c 3.403133,-0.105777 3.052431,5.974529 0.07681,6.148306 -3.13743,0.0617 -3.277207,-6.053232 -0.07681,-6.148306 z"
     inkscape:connector-curvature="0" />
  <path
     style="font-style:normal;font-weight:bold;font-stretch:normal;font-size:166.08299255px;line-height:125%;font-family:'Comic Sans MS';font-variant-ligatures:normal;font-variant-caps:normal;text-align:start;writing-mode:lr-tb;text-anchor:start;display:inline;fill:#aa0000;fill-opacity:1;stroke:none;stroke-width:0.62962681"
     d="m 77.521569,16.804111 c -0.617034,6.12501 -1.910288,15.668263 6.322083,16.282779 1.064699,0 2.10862,-0.526997 3.124838,-0.838663 0.566034,0.534553 0.669923,1.093032 2.281138,0.989144 3.39117,0.07619 2.874876,-2.461211 2.81695,-4.853164 -0.882107,-3.490021 -0.55659,-8.061112 -0.132851,-11.959761 -0.158036,-2.076509 -5.262421,-2.318286 -6.218824,-0.311036 -0.655442,2.102324 0.861329,9.501699 -1.001107,9.970141 -1.701252,-0.511257 0.0447,-8.636591 -0.327406,-9.884512 -0.196443,-2.179138 -6.060788,-2.105472 -6.864821,0.605072 z"
     id="path4518"
     inkscape:connector-curvature="0" />
  <path
     style="font-style:normal;font-weight:bold;font-stretch:normal;font-size:162.06399536px;line-height:125%;font-family:'Comic Sans MS';font-variant-ligatures:normal;font-variant-caps:normal;text-align:start;writing-mode:lr-tb;text-anchor:start;display:inline;fill:#aa0000;fill-opacity:1;stroke:none;stroke-width:0.62962681"
     id="path4711"
     d="m 101.39324,15.362265 c -2.336545,0 -4.443906,0.976552 -6.122491,2.83458 -1.682992,1.851103 -2.571396,4.215352 -2.571396,6.840266 0.05478,5.193792 1.907769,8.124705 7.141857,8.67185 1.21014,-0.034 2.33214,-0.567293 3.3981,-1.099958 0.55722,0.625849 1.16544,1.174884 2.02614,1.255476 1.6534,-0.06674 2.60665,-1.399031 2.73069,-2.963653 -0.50245,-2.31262 -0.88652,-4.322388 -1.01307,-6.737007 -0.056,-1.589808 0.0649,-3.17269 0.15426,-4.64035 -0.18134,-2.839617 -3.37984,-3.860242 -5.74409,-4.161204 z m -1.14151,6.096047 c 3.28035,0.189518 3.03984,6.183565 0.0321,6.121862 -3.015915,-0.051 -2.899434,-5.985233 -0.0321,-6.121862 z"
     inkscape:connector-curvature="0" />
  <path
     style="font-style:normal;font-weight:bold;font-stretch:normal;font-size:168px;line-height:125%;font-family:'Comic Sans MS';font-variant-ligatures:normal;font-variant-caps:normal;text-align:start;writing-mode:lr-tb;text-anchor:start;display:inline;fill:#aa0000;fill-opacity:1;stroke:none;stroke-width:0.62962681;stroke-opacity:1"
     id="path4713"
     d="m 111.57368,8.534592 c -1.62696,-0.05037 -3.28603,0.55659 -3.37228,1.941769 0.69888,7.938965 0.76184,14.810082 0.3274,19.557469 l 0.006,1.88888 c 0.47662,2.618618 6.13382,2.4801 6.35356,0.207777 -0.38218,-3.719206 -0.87266,-13.676754 -0.12215,-21.589274 0.0315,-1.245402 -1.56525,-1.954992 -3.19283,-2.006621 z"
     inkscape:connector-curvature="0" />
  <path
     style="display:inline;fill:#aa0000;fill-opacity:1;stroke:none;stroke-width:0.62962681;stroke-opacity:1"
     d="m 143.20487,30.518013 c -0.73163,-3.061246 -3.77776,-20.679464 -4.12091,-23.41897 -0.55092,-2.436656 2.18355,-3.788465 3.92321,-2.934061 1.33355,0.7077 3.39872,3.238171 7.02348,8.605739 1.85362,2.744544 2.34159,3.226208 2.6904,2.655766 0.0831,-0.13474 0.47663,-2.052583 0.87581,-4.261314 0.81789,-4.532054 1.6364,-7.369152 2.54495,-8.821702 0.85378,-1.36503 2.75966,-2.090361 3.87535,-1.402178 0.43193,0.266332 1.21833,1.189994 2.37999,7.28856 2.22511,11.677059 4.36835,18.466954 3.69969,20.761315 -0.425,1.459475 -4.12594,1.662214 -4.86513,0.906033 -1.26051,-1.291365 -0.95955,-1.882585 -1.43303,-6.05764 -0.39603,-3.488133 -1.20006,-7.709781 -1.6194,-8.505629 -0.65481,-1.242254 -1.26681,1.066588 -2.01858,7.60967 -0.22415,1.951214 -0.49866,3.329467 -0.70644,3.538503 -0.47978,0.484183 -2.27295,0.689441 -2.72377,0.311665 -0.20085,-0.16811 -1.37321,-2.138842 -2.60539,-4.380314 -2.45618,-4.467202 -3.21173,-5.53442 -3.62539,-5.124533 -0.33434,0.331184 0.0466,3.542911 0.72029,6.072122 1.48718,5.579123 2.47758,6.861673 2.2654,8.173815 -0.20778,1.28318 -0.39793,1.716363 -2.65955,2.414619 -2.21502,0.37022 -3.0688,-1.346772 -3.62098,-3.431466 z"
     id="path5747"
     inkscape:connector-curvature="0" />
  <path
     style="display:inline;fill:#aa0000;fill-opacity:1;stroke:none;stroke-width:0.62962681;stroke-opacity:1"
     d="m 128.27453,32.085784 c -2.46562,-3.449726 -3.47491,-5.734642 -5.96068,-10.171622 -3.28161,-5.857418 -6.89567,-15.231932 -6.89567,-17.081776 0,-1.16292 0.69762,-1.620659 2.46814,-1.620659 2.28932,0 1.9915,-0.414295 6.21063,8.627147 3.09021,6.623044 3.96036,8.21537 5.32413,9.743475 0.71651,0.802774 0.95892,0.947588 1.1371,0.676219 0.28648,-0.435072 0.50559,-4.231092 0.74296,-12.872091 0.17063,-6.237713 0.22856,-6.876154 0.7077,-7.815558 C 132.58243,0.447035 133.43684,0 135.01405,0 c 0.71526,0 1.04707,0.153629 1.46326,0.679368 0.53392,0.67433 0.53707,0.734145 0.39351,7.595818 -0.0793,3.804205 -0.10011,9.032626 -0.26192,11.414505 -0.43885,6.458712 0.14292,7.72678 -1.26933,12.133538 -1.68677,2.21062 -5.7082,2.691655 -7.06504,0.262555 z"
     id="path5745"
     inkscape:connector-curvature="0" />
</svg>
