<?xml version="1.0" encoding="UTF-8" standalone="no"?>
<svg
   xmlns:dc="http://purl.org/dc/elements/1.1/"
   xmlns:cc="http://creativecommons.org/ns#"
   xmlns:rdf="http://www.w3.org/1999/02/22-rdf-syntax-ns#"
   xmlns:svg="http://www.w3.org/2000/svg"
   xmlns="http://www.w3.org/2000/svg"
   xmlns:sodipodi="http://sodipodi.sourceforge.net/DTD/sodipodi-0.dtd"
   xmlns:inkscape="http://www.inkscape.org/namespaces/inkscape"
   version="1.1"
   id="svg6"
   sodipodi:docname="rpgs.svg"
   inkscape:version="0.92.5 (2060ec1f9f, 2020-04-08)"
   width="335.99335"
   height="34">
  <metadata
     id="metadata12">
    <rdf:RDF>
      <cc:Work
         rdf:about="">
        <dc:format>image/svg+xml</dc:format>
        <dc:type
           rdf:resource="http://purl.org/dc/dcmitype/StillImage" />
        <dc:title></dc:title>
      </cc:Work>
    </rdf:RDF>
  </metadata>
  <defs
     id="defs10" />
  <sodipodi:namedview
     pagecolor="#ffffff"
     bordercolor="#666666"
     borderopacity="1"
     objecttolerance="10"
     gridtolerance="10"
     guidetolerance="10"
     inkscape:pageopacity="0"
     inkscape:pageshadow="2"
     inkscape:window-width="1440"
     inkscape:window-height="837"
     id="namedview8"
     showgrid="false"
     inkscape:zoom="0.70710678"
     inkscape:cx="-153.2959"
     inkscape:cy="-8.4380667"
     inkscape:window-x="0"
     inkscape:window-y="0"
     inkscape:window-maximized="1"
     inkscape:current-layer="svg6"
     fit-margin-top="0"
     fit-margin-left="0"
     fit-margin-right="0"
     fit-margin-bottom="0" />
  <text
     xml:space="preserve"
     style="font-style:italic;font-variant:normal;font-weight:normal;font-stretch:normal;font-size:40px;line-height:1.25;font-family:'Changa One';-inkscape-font-specification:'Changa One Italic';letter-spacing:0px;word-spacing:0px;fill:#000000;fill-opacity:1;stroke:none"
     x="103.86543"
     y="145.42343"
     id="text3045"><tspan
       sodipodi:role="line"
       id="tspan3043"
       x="103.86543"
       y="183.64377" /></text>
  <text
     xml:space="preserve"
     style="font-style:italic;font-variant:normal;font-weight:normal;font-stretch:normal;font-size:40px;line-height:1.25;font-family:'Changa One';-inkscape-font-specification:'Changa One Italic';letter-spacing:0px;word-spacing:0px;fill:#000000;fill-opacity:1;stroke:none"
     x="54.417683"
     y="60.291729"
     id="text3049"><tspan
       sodipodi:role="line"
       id="tspan3047"
       x="54.417683"
       y="98.51207" /></text>
  <g
     aria-label="ROLEPLAYING"
     style="font-style:italic;font-variant:normal;font-weight:normal;font-stretch:normal;font-size:40px;line-height:1.25;font-family:'Motter Tektura';-inkscape-font-specification:'Motter Tektura Italic';letter-spacing:0px;word-spacing:0px;fill:#aa0000;fill-opacity:1;stroke:none"
     id="text3314"
     transform="matrix(1.2977099,0,0,1.2977099,-16.964225,-65.457498)">
    <path
       d="m 64.625388,76.040779 h -8.36 l -1.84,-7.44 h -1.64 l -1.28,7.44 h -7.6 l 4.4,-25 h 12 q 6.84,0 6.84,6.12 0,2.52 -0.76,4.8 -1.4,4.32 -4.4,5.76 z m -9.88,-18.6 -0.88,5 h 1.76 q 1.36,0 2.04,-0.28 0.72,-0.32 0.96,-1.72 0.28,-1.44 0.28,-1.76 0,-0.8 -0.64,-1 -0.6,-0.24 -2,-0.24 z"
       style="font-style:italic;font-variant:normal;font-weight:normal;font-stretch:normal;font-family:'Changa One';-inkscape-font-specification:'Changa One Italic';fill:#aa0000"
       id="path3316"
       inkscape:connector-curvature="0" />
    <path
       d="m 77.825349,59.400779 -1.84,10.4 h 3.16 q 1.56,0 2.32,-0.36 0.76,-0.4 1,-1.76 l 1.84,-10.4 h -3.2 q -1.52,0 -2.28,0.4 -0.76,0.36 -1,1.72 z m 4.6,-8.96 q 5.08,0 7.24,2 2.16,1.96 2.16,6.08 0,4.12 -1.32,8.64 -1.28,4.48 -4.12,7 -2.8,2.48 -8.24,2.48 -5.4,0 -7.56,-1.96 -2.16,-2 -2.16,-6.12 0,-1.96 0.56,-5.16 0.56,-3.24 1.48,-5.56 0.92,-2.36 2.48,-4.08 3,-3.32 9.48,-3.32 z"
       style="font-style:italic;font-variant:normal;font-weight:normal;font-stretch:normal;font-family:'Changa One';-inkscape-font-specification:'Changa One Italic';fill:#aa0000"
       id="path3318"
       inkscape:connector-curvature="0" />
    <path
       d="M 108.26532,76.040779 H 93.065316 l 4.4,-25 h 7.600004 l -3.28,18.6 h 7.6 z"
       style="font-style:italic;font-variant:normal;font-weight:normal;font-stretch:normal;font-family:'Changa One';-inkscape-font-specification:'Changa One Italic';fill:#aa0000"
       id="path3320"
       inkscape:connector-curvature="0" />
    <path
       d="m 126.94526,66.600779 h -7.6 l -0.52,3.04 h 9.32 l -1.12,6.4 h -16.92 l 4.4,-25 h 16.72 l -2.08,6.4 h -8.2 l -0.56,3.36 h 7.6 z"
       style="font-style:italic;font-variant:normal;font-weight:normal;font-stretch:normal;font-family:'Changa One';-inkscape-font-specification:'Changa One Italic';fill:#aa0000"
       id="path3322"
       inkscape:connector-curvature="0" />
    <path
       d="m 144.90521,70.000779 h -4.96 l -1.04,6.04 h -7.6 l 4.4,-25 h 12 q 6.8,0 6.8,6.32 0,3 -0.84,5.44 -0.84,2.4 -1.88,3.84 -1,1.4 -2.8,2.4 -1.76,0.96 -4.08,0.96 z m -2.76,-12.56 -1.08,6.16 h 1.76 q 1.36,0 2.04,-0.28 0.72,-0.32 0.92,-1.4 0.52,-2.96 0.52,-3.24 0,-0.76 -0.6,-1 -0.6,-0.24 -1.8,-0.24 z"
       style="font-style:italic;font-variant:normal;font-weight:normal;font-stretch:normal;font-family:'Changa One';-inkscape-font-specification:'Changa One Italic';fill:#aa0000"
       id="path3324"
       inkscape:connector-curvature="0" />
    <path
       d="m 169.42521,76.040779 h -15.2 l 4.4,-25 h 7.6 l -3.28,18.6 h 7.6 z"
       style="font-style:italic;font-variant:normal;font-weight:normal;font-stretch:normal;font-family:'Changa One';-inkscape-font-specification:'Changa One Italic';fill:#aa0000"
       id="path3326"
       inkscape:connector-curvature="0" />
    <path
       d="m 174.94511,76.040779 h -8 l 10.52,-25 h 11.76 l 1.76,25 h -8.04 l -0.16,-3.96 h -6.28 z m 6.84,-17.32 -2.8,7 h 3.2 v -7 z"
       style="font-style:italic;font-variant:normal;font-weight:normal;font-stretch:normal;font-family:'Changa One';-inkscape-font-specification:'Changa One Italic';fill:#aa0000"
       id="path3328"
       inkscape:connector-curvature="0" />
    <path
       d="m 201.10508,51.040779 0.52,8.8 h 0.28 l 3.68,-8.8 h 8.4 l -10.08,18.2 -1.16,6.8 h -7.6 l 1.16,-6.8 -3.6,-18.2 z"
       style="font-style:italic;font-variant:normal;font-weight:normal;font-stretch:normal;font-family:'Changa One';-inkscape-font-specification:'Changa One Italic';fill:#aa0000"
       id="path3330"
       inkscape:connector-curvature="0" />
    <path
       d="m 210.74504,76.040779 4.4,-25 h 7.6 l -4.4,25 z"
       style="font-style:italic;font-variant:normal;font-weight:normal;font-stretch:normal;font-family:'Changa One';-inkscape-font-specification:'Changa One Italic';fill:#aa0000"
       id="path3332"
       inkscape:connector-curvature="0" />
    <path
       d="m 237.02501,76.040779 -4.08,-8.88 q -0.16,-0.28 -0.16,-0.76 0,-0.52 0.08,-1.16 h -0.32 l -1.88,10.8 h -7.6 l 4.4,-25 h 7.16 l 4.08,8.88 q 0.12,0.28 0.12,0.8 0,0.48 -0.08,1.12 h 0.32 l 1.92,-10.8 h 7.6 l -4.4,25 z"
       style="font-style:italic;font-variant:normal;font-weight:normal;font-stretch:normal;font-family:'Changa One';-inkscape-font-specification:'Changa One Italic';fill:#aa0000"
       id="path3334"
       inkscape:connector-curvature="0" />
    <path
       d="m 262.86496,68.680779 0.2,-1.08 h -1.92 l 1.08,-6.12 h 9.16 l -2.36,13.36 q -4.88,1.8 -9.8,1.8 -4.92,0 -7.12,-1.96 -2.16,-1.96 -2.16,-6.04 0,-1.72 0.56,-5.08 1.2,-6.96 4.24,-10.04 3.04,-3.08 10.08,-3.08 1.48,0 3.76,0.32 2.32,0.32 3.4,0.72 l -2.2,6.12 q -3,-0.56 -5.52,-0.56 -2.48,0 -3.56,0.4 -1.08,0.4 -1.28,1.6 l -1.96,11.32 h 2.52 q 1.36,0 2,-0.28 0.68,-0.32 0.88,-1.4 z"
       style="font-style:italic;font-variant:normal;font-weight:normal;font-stretch:normal;font-family:'Changa One';-inkscape-font-specification:'Changa One Italic';fill:#aa0000"
       id="path3336"
       inkscape:connector-curvature="0" />
  </g>
  <g
     id="g3448"
     style="stroke:#aa0000"
     transform="matrix(1.070426,0,0,1.070426,-13.717053,-36.485635)">
    <path
       inkscape:connector-curvature="0"
       id="path3410"
       d="m 32.847123,54.807045 -7.592236,8.53845"
       style="fill:none;stroke:#aa0000;stroke-width:1;stroke-linecap:butt;stroke-linejoin:miter;stroke-miterlimit:4;stroke-dasharray:none;stroke-opacity:1" />
    <path
       inkscape:connector-curvature="0"
       id="path3412"
       d="m 25.254887,63.345495 -7.817526,-8.583508 -3.85244,1.802312"
       style="fill:none;stroke:#aa0000;stroke-width:1;stroke-linecap:butt;stroke-linejoin:miter;stroke-miterlimit:4;stroke-dasharray:none;stroke-opacity:1" />
    <path
       inkscape:connector-curvature="0"
       id="path3414"
       d="M 36.947381,56.586828 V 42.956849 L 25.232358,36.040479 13.314574,42.93432 v 13.562392"
       style="fill:none;stroke:#aa0000;stroke-width:1;stroke-linecap:butt;stroke-linejoin:miter;stroke-miterlimit:4;stroke-dasharray:none;stroke-opacity:1" />
    <path
       inkscape:connector-curvature="0"
       id="path3416"
       d="m 13.314574,42.93432 4.122787,11.827667 15.409762,0.04506 4.100258,-11.850198"
       style="fill:none;stroke:#aa0000;stroke-width:1;stroke-linecap:butt;stroke-linejoin:miter;stroke-miterlimit:4;stroke-dasharray:none;stroke-opacity:1" />
    <path
       inkscape:connector-curvature="0"
       id="path3418"
       d="M 36.947381,42.956849 25.1873,41.424884 13.314574,42.93432"
       style="fill:none;stroke:#aa0000;stroke-width:1;stroke-linecap:butt;stroke-linejoin:miter;stroke-miterlimit:4;stroke-dasharray:none;stroke-opacity:1" />
    <path
       inkscape:connector-curvature="0"
       id="path3420"
       d="m 25.232358,36.040479 v 5.29429 l 7.614765,13.472276"
       style="fill:none;stroke:#aa0000;stroke-width:1;stroke-linecap:butt;stroke-linejoin:miter;stroke-miterlimit:4;stroke-dasharray:none;stroke-opacity:1" />
    <path
       inkscape:connector-curvature="0"
       id="path3422"
       d="M 17.437361,54.761987 25.1873,41.424884"
       style="fill:none;stroke:#aa0000;stroke-width:1;stroke-linecap:butt;stroke-linejoin:miter;stroke-miterlimit:4;stroke-dasharray:none;stroke-opacity:1" />
    <path
       inkscape:connector-curvature="0"
       id="path3426"
       d="M 36.947381,56.586828 32.847123,54.807047"
       style="fill:none;stroke:#aa0000;stroke-width:1px;stroke-linecap:butt;stroke-linejoin:miter;stroke-opacity:1" />
    <path
       inkscape:connector-curvature="0"
       id="path3430"
       d="M 13.09375,56.15625 25.4375,63.625"
       style="fill:none;stroke:#aa0000;stroke-width:1px;stroke-linecap:butt;stroke-linejoin:miter;stroke-opacity:1" />
    <path
       inkscape:connector-curvature="0"
       id="path3432"
       d="M 37.177505,56.15672 24.990279,63.672497"
       style="fill:none;stroke:#aa0000;stroke-width:1.04466736px;stroke-linecap:butt;stroke-linejoin:round;stroke-opacity:1" />
  </g>
  <g
     aria-label="20"
     style="font-style:italic;font-variant:normal;font-weight:normal;font-stretch:normal;font-size:4.49836302px;line-height:1.25;font-family:'Motter Tektura';-inkscape-font-specification:'Motter Tektura Italic';letter-spacing:0px;word-spacing:0px;fill:#aa0000;fill-opacity:1;stroke:none;stroke-width:0.11245907"
     id="text3452"
     transform="matrix(1.070426,0,0,1.070426,-1.2281118,-0.15416947)">
    <path
       d="m 11.506769,18.388567 h 1.548509 v 0.3734 h -2.082251 v -0.3734 q 0.252594,-0.261379 0.687494,-0.700672 0.437097,-0.44149 0.549117,-0.568885 0.213057,-0.239415 0.296523,-0.40415 0.08566,-0.166931 0.08566,-0.327273 0,-0.26138 -0.184503,-0.426115 -0.182307,-0.164735 -0.476633,-0.164735 -0.208664,0 -0.44149,0.07248 -0.230629,0.07248 -0.494205,0.219646 v -0.448079 q 0.267969,-0.107627 0.500794,-0.162538 0.232826,-0.05491 0.426115,-0.05491 0.50958,0 0.812692,0.25479 0.303113,0.25479 0.303113,0.680905 0,0.202074 -0.07688,0.384381 -0.07468,0.18011 -0.274559,0.426115 -0.05491,0.0637 -0.349238,0.369006 -0.294326,0.303112 -0.830264,0.850032 z"
       style="font-style:normal;font-variant:normal;font-weight:normal;font-stretch:normal;font-family:sans-serif;-inkscape-font-specification:sans-serif;fill:#aa0000;stroke-width:0.11245907"
       id="path3673"
       inkscape:connector-curvature="0" />
    <path
       d="m 14.935453,15.774773 q -0.342649,0 -0.51617,0.338255 -0.171324,0.33606 -0.171324,1.012571 0,0.674315 0.171324,1.012571 0.173521,0.33606 0.51617,0.33606 0.344845,0 0.516169,-0.33606 0.173521,-0.338256 0.173521,-1.012571 0,-0.676511 -0.173521,-1.012571 -0.171324,-0.338255 -0.516169,-0.338255 z m 0,-0.351435 q 0.551313,0 0.841246,0.437097 0.29213,0.4349 0.29213,1.265164 0,0.828068 -0.29213,1.265165 -0.289933,0.4349 -0.841246,0.4349 -0.551313,0 -0.843443,-0.4349 -0.289934,-0.437097 -0.289934,-1.265165 0,-0.830264 0.289934,-1.265164 0.29213,-0.437097 0.843443,-0.437097 z"
       style="font-style:normal;font-variant:normal;font-weight:normal;font-stretch:normal;font-family:sans-serif;-inkscape-font-specification:sans-serif;fill:#aa0000;stroke-width:0.11245907"
       id="path3675"
       inkscape:connector-curvature="0" />
  </g>
  <g
     aria-label="14"
     transform="matrix(-1.070426,0,0,-1.070426,-1.2281118,-0.15416947)"
     style="font-style:italic;font-variant:normal;font-weight:normal;font-stretch:normal;font-size:4.49836302px;line-height:1.25;font-family:'Motter Tektura';-inkscape-font-specification:'Motter Tektura Italic';letter-spacing:0px;word-spacing:0px;fill:#aa0000;fill-opacity:1;stroke:none;stroke-width:0.11245907"
     id="text3452-2">
    <path
       d="m -16.053748,-22.275619 h 0.724834 v -2.501775 l -0.788532,0.158145 v -0.404149 l 0.784139,-0.158146 h 0.443686 v 2.905925 h 0.724834 v 0.373399 h -1.888961 z"
       style="font-style:normal;font-variant:normal;font-weight:normal;font-stretch:normal;font-family:sans-serif;-inkscape-font-specification:sans-serif;fill:#aa0000;stroke-width:0.11245907"
       id="path3668"
       inkscape:connector-curvature="0" />
    <path
       d="m -12.04959,-24.794966 -1.120198,1.750584 h 1.120198 z m -0.116413,-0.386578 h 0.557903 v 2.137162 h 0.467847 v 0.369006 H -11.6081 v 0.773156 h -0.44149 v -0.773156 h -1.480418 v -0.428311 z"
       style="font-style:normal;font-variant:normal;font-weight:normal;font-stretch:normal;font-family:sans-serif;-inkscape-font-specification:sans-serif;fill:#aa0000;stroke-width:0.11245907"
       id="path3670"
       inkscape:connector-curvature="0" />
  </g>
  <g
     aria-label="2"
     transform="matrix(0.53521302,0.92701614,-0.92701614,0.53521302,-1.2281118,-0.15416947)"
     style="font-style:italic;font-variant:normal;font-weight:normal;font-stretch:normal;font-size:3.74767542px;line-height:1.25;font-family:'Motter Tektura';-inkscape-font-specification:'Motter Tektura Italic';letter-spacing:0px;word-spacing:0px;fill:#aa0000;fill-opacity:1;stroke:none;stroke-width:0.09369189"
     id="text3452-4">
    <path
       d="m 20.215725,-10.733511 h 1.290094 v 0.311087 h -1.734764 v -0.311087 q 0.21044,-0.21776 0.572765,-0.583744 0.364154,-0.367814 0.457479,-0.473949 0.177503,-0.199461 0.24704,-0.336705 0.07137,-0.139074 0.07137,-0.272658 0,-0.217761 -0.153713,-0.355005 -0.151883,-0.137244 -0.397092,-0.137244 -0.173843,0 -0.367814,0.06039 -0.192142,0.06039 -0.411732,0.182991 v -0.373303 q 0.22325,-0.08967 0.417222,-0.135414 0.193971,-0.04575 0.355004,-0.04575 0.424541,0 0.67707,0.212271 0.252529,0.21227 0.252529,0.567275 0,0.168352 -0.06405,0.320236 -0.06222,0.150053 -0.22874,0.355004 -0.04575,0.05307 -0.290957,0.307426 -0.245209,0.252529 -0.69171,0.708179 z"
       style="font-style:normal;font-variant:normal;font-weight:normal;font-stretch:normal;font-family:sans-serif;-inkscape-font-specification:sans-serif;fill:#aa0000;stroke-width:0.09369189"
       id="path3665"
       inkscape:connector-curvature="0" />
  </g>
  <g
     aria-label="8"
     transform="matrix(0.53521302,-0.92701614,0.92701614,0.53521302,-1.2281118,-0.15416947)"
     style="font-style:italic;font-variant:normal;font-weight:normal;font-stretch:normal;font-size:3.74767542px;line-height:1.25;font-family:'Motter Tektura';-inkscape-font-specification:'Motter Tektura Italic';letter-spacing:0px;word-spacing:0px;fill:#aa0000;fill-opacity:1;stroke:none;stroke-width:0.09369189"
     id="text3452-4-5">
    <path
       d="m -7.361286,12.382627 q -0.2635084,0 -0.4153917,0.140904 -0.1500535,0.140904 -0.1500535,0.387943 0,0.247039 0.1500535,0.387943 0.1518833,0.140904 0.4153917,0.140904 0.2635084,0 0.4153918,-0.140904 0.1518833,-0.142734 0.1518833,-0.387943 0,-0.247039 -0.1518833,-0.387943 -0.1500534,-0.140904 -0.4153918,-0.140904 z m -0.3696437,-0.157373 q -0.2378896,-0.05856 -0.3714737,-0.22142 -0.1317543,-0.162863 -0.1317543,-0.397093 0,-0.327555 0.2323998,-0.517867 0.2342298,-0.190311 0.6404719,-0.190311 0.4080721,0 0.6404719,0.190311 0.2323998,0.190312 0.2323998,0.517867 0,0.23423 -0.1335841,0.397093 -0.1317543,0.162863 -0.3678139,0.22142 0.2671683,0.06222 0.4153918,0.24338 0.1500534,0.181162 0.1500534,0.44284 0,0.397093 -0.2433793,0.609363 -0.2415494,0.212271 -0.6935396,0.212271 -0.4519901,0 -0.6953694,-0.212271 -0.2415494,-0.21227 -0.2415494,-0.609363 0,-0.261678 0.1500534,-0.44284 0.1500534,-0.181162 0.4172217,-0.24338 z M -7.8663438,11.64151 q 0,0.212271 0.1317542,0.331215 0.1335841,0.118945 0.3733036,0.118945 0.2378896,0 0.3714737,-0.118945 0.1354141,-0.118944 0.1354141,-0.331215 0,-0.212271 -0.1354141,-0.331216 -0.1335841,-0.118944 -0.3714737,-0.118944 -0.2397195,0 -0.3733036,0.118944 -0.1317542,0.118945 -0.1317542,0.331216 z"
       style="font-style:normal;font-variant:normal;font-weight:normal;font-stretch:normal;font-family:sans-serif;-inkscape-font-specification:sans-serif;fill:#aa0000;stroke-width:0.09369189"
       id="path3662"
       inkscape:connector-curvature="0" />
  </g>
  <g
     aria-label="10"
     transform="matrix(1.0606653,-0.14422571,0.14422571,1.0606653,-1.2281118,-0.15416947)"
     style="font-style:italic;font-variant:normal;font-weight:normal;font-stretch:normal;font-size:1.9873451px;line-height:1.25;font-family:'Motter Tektura';-inkscape-font-specification:'Motter Tektura Italic';letter-spacing:0px;word-spacing:0px;fill:#aa0000;fill-opacity:1;stroke:none;stroke-width:0.04968364"
     id="text3452-4-4">
    <path
       d="M 7.9776366,8.1571498 H 8.2978631 V 7.0518831 L 7.9494955,7.1217507 V 6.9432002 L 8.2959223,6.8733326 H 8.4919398 V 8.1571498 H 8.8121663 V 8.3221149 H 7.9776366 Z"
       style="font-style:normal;font-variant:normal;font-weight:normal;font-stretch:normal;font-family:sans-serif;-inkscape-font-specification:sans-serif;fill:#aa0000;stroke-width:0.04968364"
       id="path3657"
       inkscape:connector-curvature="0" />
    <path
       d="m 9.6272883,7.0023936 q -0.1513798,0 -0.2280401,0.149439 -0.07569,0.1484687 -0.07569,0.4473467 0,0.2979077 0.07569,0.4473468 0.07666,0.1484686 0.2280401,0.1484686 0.1523502,0 0.2280401,-0.1484686 0.07666,-0.1494391 0.07666,-0.4473468 0,-0.298878 -0.07666,-0.4473467 -0.07569,-0.149439 -0.2280401,-0.149439 z m 0,-0.1552613 q 0.2435662,0 0.3716568,0.1931062 0.1290609,0.1921359 0.1290609,0.5589408 0,0.3658346 -0.1290609,0.5589409 -0.1280906,0.1921359 -0.3716568,0.1921359 -0.2435662,0 -0.3726272,-0.1921359 -0.1280906,-0.1931063 -0.1280906,-0.5589409 0,-0.3668049 0.1280906,-0.5589408 0.129061,-0.1931062 0.3726272,-0.1931062 z"
       style="font-style:normal;font-variant:normal;font-weight:normal;font-stretch:normal;font-family:sans-serif;-inkscape-font-specification:sans-serif;fill:#aa0000;stroke-width:0.04968364"
       id="path3659"
       inkscape:connector-curvature="0" />
  </g>
  <g
     aria-label="12"
     transform="matrix(1.0618524,0.13520903,-0.13520903,1.0618524,-1.2281118,-0.15416947)"
     style="font-style:italic;font-variant:normal;font-weight:normal;font-stretch:normal;font-size:1.9873451px;line-height:1.25;font-family:'Motter Tektura';-inkscape-font-specification:'Motter Tektura Italic';letter-spacing:0px;word-spacing:0px;fill:#aa0000;fill-opacity:1;stroke:none;stroke-width:0.04968364"
     id="text3452-4-4-9">
    <path
       d="m 16.255398,4.6906452 h 0.320227 V 3.5853786 l -0.348368,0.069868 v -0.178551 l 0.346427,-0.069868 h 0.196017 v 1.2838172 h 0.320227 V 4.85561 h -0.83453 z"
       style="font-style:normal;font-variant:normal;font-weight:normal;font-stretch:normal;font-family:sans-serif;-inkscape-font-specification:sans-serif;fill:#aa0000;stroke-width:0.04968364"
       id="path3652"
       inkscape:connector-curvature="0" />
    <path
       d="m 17.654691,4.6906452 h 0.68412 V 4.8556104 H 17.418888 V 4.6906452 q 0.111594,-0.1154756 0.30373,-0.3095523 0.193106,-0.195047 0.242596,-0.2513293 0.09413,-0.1057718 0.131001,-0.1785505 0.03785,-0.073749 0.03785,-0.1445871 0,-0.1154756 -0.08151,-0.1882544 -0.08054,-0.072779 -0.210573,-0.072779 -0.09219,0 -0.195047,0.032023 -0.10189,0.032023 -0.218336,0.097038 v -0.197958 q 0.118386,-0.047549 0.221247,-0.071808 0.102861,-0.02426 0.188254,-0.02426 0.225129,0 0.359042,0.1125644 0.133913,0.1125645 0.133913,0.3008189 0,0.089275 -0.03396,0.1698171 -0.03299,0.079571 -0.121298,0.1882543 -0.02426,0.028141 -0.154291,0.1630244 -0.130032,0.1339129 -0.366805,0.3755384 z"
       style="font-style:normal;font-variant:normal;font-weight:normal;font-stretch:normal;font-family:sans-serif;-inkscape-font-specification:sans-serif;fill:#aa0000;stroke-width:0.04968364"
       id="path3654"
       inkscape:connector-curvature="0" />
  </g>
  <g
     aria-label="16"
     transform="matrix(-0.41383177,-0.98719561,0.98719561,-0.41383177,-1.2281118,-0.15416947)"
     style="font-style:italic;font-variant:normal;font-weight:normal;font-stretch:normal;font-size:1.5458858px;line-height:1.25;font-family:'Motter Tektura';-inkscape-font-specification:'Motter Tektura Italic';letter-spacing:0px;word-spacing:0px;fill:#aa0000;fill-opacity:1;stroke:none;stroke-width:0.03864716"
     id="text3452-4-4-2">
    <path
       d="m -18.431414,-3.431122 h 0.249093 V -4.29087 l -0.270983,0.054348 v -0.1388882 l 0.269473,-0.054348 h 0.152475 v 0.9986362 h 0.249093 v 0.1283206 h -0.649151 z"
       style="font-style:normal;font-variant:normal;font-weight:normal;font-stretch:normal;font-family:sans-serif;-inkscape-font-specification:sans-serif;fill:#aa0000;stroke-width:0.03864716"
       id="path3647"
       inkscape:connector-curvature="0" />
    <path
       d="m -17.129338,-3.9270433 q -0.102656,0 -0.163042,0.070199 -0.05963,0.070199 -0.05963,0.1924809 0,0.1215271 0.05963,0.1924809 0.06039,0.070199 0.163042,0.070199 0.102657,0 0.162288,-0.070199 0.06039,-0.070954 0.06039,-0.1924809 0,-0.122282 -0.06039,-0.1924809 -0.05963,-0.070199 -0.162288,-0.070199 z m 0.302686,-0.4778056 v 0.1388882 q -0.05737,-0.027174 -0.116243,-0.041516 -0.05812,-0.014342 -0.115489,-0.014342 -0.150965,0 -0.230977,0.1019017 -0.07926,0.1019016 -0.09058,0.3079694 0.04453,-0.06567 0.111714,-0.100392 0.06718,-0.035477 0.147946,-0.035477 0.169836,0 0.267964,0.1034113 0.09888,0.1026565 0.09888,0.2800409 0,0.1736102 -0.102656,0.2785312 -0.102657,0.1049209 -0.273248,0.1049209 -0.1955,0 -0.298911,-0.1494557 -0.103411,-0.1502106 -0.103411,-0.4347804 0,-0.2672088 0.126811,-0.4257225 0.12681,-0.1592685 0.340427,-0.1592685 0.05737,0 0.115488,0.011322 0.05888,0.011322 0.122282,0.033967 z"
       style="font-style:normal;font-variant:normal;font-weight:normal;font-stretch:normal;font-family:sans-serif;-inkscape-font-specification:sans-serif;fill:#aa0000;stroke-width:0.03864716"
       id="path3649"
       inkscape:connector-curvature="0" />
  </g>
  <g
     aria-label="18"
     transform="matrix(-0.40542946,0.99067596,-0.99067596,-0.40542946,-1.2281118,-0.15416947)"
     style="font-style:italic;font-variant:normal;font-weight:normal;font-stretch:normal;font-size:1.5458858px;line-height:1.25;font-family:'Motter Tektura';-inkscape-font-specification:'Motter Tektura Italic';letter-spacing:0px;word-spacing:0px;fill:#aa0000;fill-opacity:1;stroke:none;stroke-width:0.03864716"
     id="text3452-4-4-2-7">
    <path
       d="m 6.4249905,-28.362944 h 0.2490929 v -0.859748 l -0.2709829,0.05435 v -0.138888 l 0.2694733,-0.05435 h 0.1524751 v 0.998636 h 0.2490929 v 0.128321 H 6.4249905 Z"
       style="font-style:normal;font-variant:normal;font-weight:normal;font-stretch:normal;font-family:sans-serif;-inkscape-font-specification:sans-serif;fill:#aa0000;stroke-width:0.03864716"
       id="path3642"
       inkscape:connector-curvature="0" />
    <path
       d="m 7.7081965,-28.769795 q -0.1086951,0 -0.1713457,0.05812 -0.061896,0.05812 -0.061896,0.160024 0,0.101901 0.061896,0.160023 0.062651,0.05812 0.1713457,0.05812 0.1086951,0 0.1713457,-0.05812 0.062651,-0.05888 0.062651,-0.160023 0,-0.101902 -0.062651,-0.160024 -0.061896,-0.05812 -0.1713457,-0.05812 z m -0.1524751,-0.06492 q -0.098128,-0.02416 -0.1532299,-0.09133 -0.054348,-0.06718 -0.054348,-0.163797 0,-0.135114 0.095863,-0.213616 0.096618,-0.0785 0.2641895,-0.0785 0.1683264,0 0.2641895,0.0785 0.095863,0.0785 0.095863,0.213616 0,0.09662 -0.055102,0.163797 -0.054348,0.06718 -0.1517202,0.09133 0.1102047,0.02566 0.1713457,0.100392 0.061896,0.07473 0.061896,0.182668 0,0.163797 -0.1003919,0.251357 -0.099637,0.08756 -0.2860795,0.08756 -0.1864423,0 -0.2868343,-0.08756 -0.099637,-0.08756 -0.099637,-0.251357 0,-0.107941 0.061896,-0.182668 0.061896,-0.07473 0.1721001,-0.100392 z m -0.055857,-0.24079 q 0,0.08756 0.054348,0.136623 0.055102,0.04906 0.1539847,0.04906 0.098128,0 0.1532299,-0.04906 0.055857,-0.04906 0.055857,-0.136623 0,-0.08756 -0.055857,-0.136624 -0.055102,-0.04906 -0.1532299,-0.04906 -0.098882,0 -0.1539847,0.04906 -0.054348,0.04906 -0.054348,0.136624 z"
       style="font-style:normal;font-variant:normal;font-weight:normal;font-stretch:normal;font-family:sans-serif;-inkscape-font-specification:sans-serif;fill:#aa0000;stroke-width:0.03864716"
       id="path3644"
       inkscape:connector-curvature="0" />
  </g>
  <g
     aria-label="4"
     transform="matrix(-0.67534724,0.83049264,-0.83049264,-0.67534724,-1.2281118,-0.15416947)"
     style="font-style:italic;font-variant:normal;font-weight:normal;font-stretch:normal;font-size:1.5458858px;line-height:1.25;font-family:'Motter Tektura';-inkscape-font-specification:'Motter Tektura Italic';letter-spacing:0px;word-spacing:0px;fill:#aa0000;fill-opacity:1;stroke:none;stroke-width:0.03864716"
     id="text3452-4-4-2-5">
    <path
       d="m 5.011817,-31.44278 -0.3849618,0.601597 H 5.011817 Z m -0.040006,-0.13285 h 0.1917261 v 0.734447 h 0.1607782 v 0.126811 H 5.1635372 v 0.265699 H 5.011817 v -0.265699 H 4.5030635 v -0.147192 z"
       style="font-style:normal;font-variant:normal;font-weight:normal;font-stretch:normal;font-family:sans-serif;-inkscape-font-specification:sans-serif;fill:#aa0000;stroke-width:0.03864716"
       id="path3639"
       inkscape:connector-curvature="0" />
  </g>
  <g
     aria-label="6"
     transform="matrix(-0.58950281,-0.89347543,0.89347543,-0.58950281,-1.2281118,-0.15416947)"
     inkscape:transform-center-x="-1.040745"
     inkscape:transform-center-y="-0.18922641"
     style="font-style:italic;font-variant:normal;font-weight:normal;font-stretch:normal;font-size:1.5458858px;line-height:1.25;font-family:'Motter Tektura';-inkscape-font-specification:'Motter Tektura Italic';letter-spacing:0px;word-spacing:0px;fill:#aa0000;fill-opacity:1;stroke:none;stroke-width:0.03864716"
     id="text3452-4-4-2-5-8">
    <path
       d="m -22.913784,-7.8378135 q -0.102657,0 -0.163043,0.070199 -0.05963,0.070199 -0.05963,0.1924809 0,0.1215271 0.05963,0.1924809 0.06039,0.070199 0.163043,0.070199 0.102656,0 0.162287,-0.070199 0.06039,-0.070954 0.06039,-0.1924809 0,-0.122282 -0.06039,-0.1924809 -0.05963,-0.070199 -0.162287,-0.070199 z m 0.302685,-0.4778055 v 0.1388881 q -0.05737,-0.027174 -0.116243,-0.041515 -0.05812,-0.014342 -0.115489,-0.014342 -0.150965,0 -0.230977,0.1019017 -0.07926,0.1019016 -0.09058,0.3079694 0.04453,-0.06567 0.111714,-0.100392 0.06718,-0.035477 0.147947,-0.035477 0.169836,0 0.267963,0.1034113 0.09888,0.1026564 0.09888,0.2800408 0,0.1736102 -0.102656,0.2785312 -0.102656,0.1049209 -0.273247,0.1049209 -0.195501,0 -0.298912,-0.1494557 -0.103411,-0.1502106 -0.103411,-0.4347804 0,-0.2672088 0.126811,-0.4257225 0.126811,-0.1592685 0.340427,-0.1592685 0.05737,0 0.115488,0.011322 0.05888,0.011322 0.122282,0.033967 z"
       style="font-style:normal;font-variant:normal;font-weight:normal;font-stretch:normal;font-family:sans-serif;-inkscape-font-specification:sans-serif;fill:#aa0000;stroke-width:0.03864716"
       id="path3636"
       inkscape:connector-curvature="0" />
  </g>
  <text
     xml:space="preserve"
     style="font-style:italic;font-variant:normal;font-weight:normal;font-stretch:normal;font-size:40px;line-height:1.25;font-family:'Motter Tektura';-inkscape-font-specification:'Motter Tektura Italic';letter-spacing:0px;word-spacing:0px;fill:#000000;fill-opacity:1;stroke:none"
     x="96.852692"
     y="-21.90708"
     id="text3597"><tspan
       sodipodi:role="line"
       id="tspan3595"
       x="96.852692"
       y="17.972919" /></text>
</svg>
