<?xml version="1.0" encoding="UTF-8" standalone="no"?>
<svg
   xmlns:dc="http://purl.org/dc/elements/1.1/"
   xmlns:cc="http://creativecommons.org/ns#"
   xmlns:rdf="http://www.w3.org/1999/02/22-rdf-syntax-ns#"
   xmlns:svg="http://www.w3.org/2000/svg"
   xmlns="http://www.w3.org/2000/svg"
   xmlns:sodipodi="http://sodipodi.sourceforge.net/DTD/sodipodi-0.dtd"
   xmlns:inkscape="http://www.inkscape.org/namespaces/inkscape"
   width="199.28072"
   height="34"
   viewBox="0 0 199.28072 34"
   fill="none"
   version="1.1"
   id="svg74"
   sodipodi:docname="satellaview.svg"
   inkscape:version="1.0.1 (3bc2e813f5, 2020-09-07)">
  <metadata
     id="metadata80">
    <rdf:RDF>
      <cc:Work
         rdf:about="">
        <dc:format>image/svg+xml</dc:format>
        <dc:type
           rdf:resource="http://purl.org/dc/dcmitype/StillImage" />
        <dc:title></dc:title>
      </cc:Work>
    </rdf:RDF>
  </metadata>
  <defs
     id="defs78" />
  <sodipodi:namedview
     pagecolor="#ffffff"
     bordercolor="#666666"
     borderopacity="1"
     objecttolerance="10"
     gridtolerance="10"
     guidetolerance="10"
     inkscape:pageopacity="0"
     inkscape:pageshadow="2"
     inkscape:window-width="1920"
     inkscape:window-height="1017"
     id="namedview76"
     showgrid="false"
     fit-margin-top="0"
     fit-margin-left="0"
     fit-margin-right="0"
     fit-margin-bottom="0"
     inkscape:zoom="4.4583333"
     inkscape:cx="132"
     inkscape:cy="22.520996"
     inkscape:window-x="-8"
     inkscape:window-y="-8"
     inkscape:window-maximized="1"
     inkscape:current-layer="svg74" />
  <path
     d="m 28.928238,24.883364 h 13.611325 v 2.321544 H 28.928238 Z"
     fill="white"
     id="path2"
     style="fill:#aa0000;stroke-width:0.754851" />
  <path
     d="M 30.296708,23.783696 H 32.42267 V 30.08844 H 30.296708 Z"
     fill="white"
     id="path4"
     style="fill:#aa0000;stroke-width:0.754851" />
  <path
     d="m 39.21618,28.500082 v -4.716386 h 1.930456 v 4.520879 c 0,2.973737 -2.070556,5.644928 -6.304668,5.644928 h -4.496421 v -2.590347 h 4.96073 c 2.606275,0 3.909903,-1.203836 3.909903,-2.859074 z"
     fill="white"
     id="path6"
     style="fill:#aa0000;stroke-width:0.754851" />
  <path
     d="m 51.49708,29.16888 v 0.860002 c 0,0.876005 -0.571347,1.330274 -1.347787,1.330274 h -6.083798 v 2.590272 h 6.03194 c 1.776316,0 3.196719,-1.200289 3.196719,-2.897043 v -2.45372"
     fill="white"
     id="path8"
     style="fill:#aa0000;stroke-width:0.754851" />
  <path
     d="m 44.930856,23.760447 h 11.058872 v 2.453644 H 44.930856 Z"
     fill="white"
     id="path10"
     style="fill:#aa0000;stroke-width:0.754851" />
  <path
     d="M 44.066853,27.181734 H 56.784586 V 29.49724 H 44.066853 Z"
     fill="white"
     id="path12"
     style="fill:#aa0000;stroke-width:0.754851" />
  <path
     d="m 69.191244,29.16888 v 0.860002 c 0,0.876005 -0.571347,1.330274 -1.347787,1.330274 h -8.606586 v 2.590272 h 8.554728 c 1.776391,0 3.196719,-1.200289 3.196719,-2.897043 v -3.870651"
     fill="white"
     id="path14"
     style="fill:#aa0000;stroke-width:0.754851" />
  <path
     d="M 58.132373,27.181734 H 70.988318 V 29.49724 H 58.132373 Z"
     fill="white"
     id="path16"
     style="fill:#aa0000;stroke-width:0.754851" />
  <path
     d="m 59.030947,23.760447 h 11.231657 v 2.453644 H 59.030947 Z"
     fill="white"
     id="path18"
     style="fill:#aa0000;stroke-width:0.754851" />
  <path
     d="M 81.493733,26.45602 H 73.38097 v 2.315431 h 8.112763 z"
     fill="white"
     id="path20"
     style="fill:#aa0000;stroke-width:0.754851" />
  <path
     d="m 74.396094,23.743614 v 6.285268 c 0,0.876005 0.571347,1.330274 1.347937,1.330274 h 9.522448 v 2.590272 h -9.471118 c -1.776013,0 -3.196341,-1.200289 -3.196341,-2.897043 v -7.309224"
     fill="white"
     id="path22"
     style="fill:#aa0000;stroke-width:0.754851" />
  <path
     d="M 85.271008,27.238046 H 73.38097 v 1.826665 h 11.890038 z"
     fill="white"
     id="path24"
     style="fill:#aa0000;stroke-width:0.754851" />
  <path
     d="m 82.2199,23.784829 h 1.226633 v 2.704254 H 82.2199 Z"
     fill="white"
     id="path26"
     style="fill:#aa0000;stroke-width:0.754851" />
  <path
     d="m 84.051923,23.784829 h 1.226633 v 2.704254 h -1.226633 z"
     fill="white"
     id="path28"
     style="fill:#aa0000;stroke-width:0.754851" />
  <path
     d="m 86.635024,31.603501 h 10.740777 v 2.346002 H 86.635024 Z"
     fill="white"
     id="path30"
     style="fill:#aa0000;stroke-width:0.754851" />
  <path
     d="m 87.728803,26.716142 h 7.197506 v 2.345927 h -7.197506 z"
     fill="white"
     id="path32"
     style="fill:#aa0000;stroke-width:0.754851" />
  <path
     d="m 93.344141,26.716142 h 1.582168 v 6.035941 h -1.582168 z"
     fill="white"
     id="path34"
     style="fill:#aa0000;stroke-width:0.754851" />
  <path
     d="m 97.8891,27.449254 h 12.46259 v 2.541433 H 97.8891 Z"
     fill="white"
     id="path36"
     style="fill:#aa0000;stroke-width:0.754851" />
  <path
     d="m 45.573989,8.5644628 c 2.126567,0 3.850496,1.7239292 3.850496,3.8504962 v 3.975499 c 0,2.126566 -1.723929,3.850495 -3.850496,3.850495 H 28.403692 V 16.82646 h 14.924087 c 1.024635,0 1.855273,-0.830714 1.855273,-1.855349 v -1.069322 c 0,-1.024635 -0.830638,-1.855273 -1.855273,-1.855273 l -4.829161,-4.53e-4 h -6.255602 c -2.126491,0 -3.850345,-1.759483 -3.850345,-3.9298309 V 4.0588015 c 0,-2.1703783 1.723854,-3.92983291 3.850345,-3.92983291 H 47.770757 V 3.613862 H 34.489076 c -1.024635,0 -1.855198,0.8477884 -1.855198,1.8935668 v 1.0912883 c 0,1.0458086 0.830563,1.9649908 1.855198,1.9650663 l 4.112731,3.019e-4 z"
     fill="white"
     id="path38"
     style="fill:#aa0000;stroke-width:0.754851" />
  <path
     d="M 51.804304,6.2409705 V 9.663526 h 8.969595 c 0.765343,0 1.460788,0.617695 1.460788,1.376245 l -10.196454,2.668625 c -0.716656,0.192034 -1.215084,0.841584 -1.215084,1.583527 v 1.119821 c 0,2.126643 1.723853,3.850723 3.85042,3.850723 l 8.147713,-2.27e-4 c 2.126038,-7.5e-5 3.849891,-1.723853 3.849891,-3.850496 v -6.320368 c 0,-2.126567 -1.723853,-3.850413 -3.85042,-3.850413 z m 10.499452,7.9513605 v 1.343107 c 0,0.798406 -0.64721,1.445615 -1.44554,1.445615 h -4.449093 c -0.689179,0 -1.203459,-0.4785 -1.332992,-0.961982 z"
     fill="white"
     id="path40"
     style="fill:#aa0000;stroke-width:0.754851" />
  <path
     d="m 73.990814,9.685115 h 2.972302 V 6.0998737 H 73.992701 V 0.09027341 H 69.722508 V 6.1340156 H 67.948985 V 9.685115 h 1.77375 v 8.808056 c 0,1.00131 0.811691,1.813002 1.813001,1.813002 h 5.188847 V 16.71912 l -2.733769,-0.002 z"
     fill="white"
     id="path42"
     style="fill:#aa0000;stroke-width:0.754851" />
  <path
     d="m 93.963874,20.238236 v -3.422571 h -9.983662 c -0.765419,0 -1.461391,-0.617694 -1.461391,-1.376244 L 92.71535,12.770795 c 0.717109,-0.192034 1.21531,-0.841583 1.21531,-1.583526 v -1.119822 c 0,-2.1265668 -1.72408,-3.8507299 -3.850495,-3.8507299 l -8.147864,2.793e-4 C 79.80664,6.2170266 78.08256,7.9408802 78.08256,10.067447 v 6.320369 c 0,2.126566 1.72408,3.85042 3.850496,3.85042 z M 82.450129,12.28686 v -1.343106 c 0,-0.798406 0.646908,-1.4456158 1.44554,-1.4456158 h 4.449093 c 0.689179,0 1.203233,0.4784998 1.333067,0.9619818 z"
     fill="white"
     id="path44"
     style="fill:#aa0000;stroke-width:0.754851" />
  <path
     d="M 96.151433,0.09026133 H 100.285 V 20.306173 h -4.133567 z"
     fill="white"
     id="path46"
     style="fill:#aa0000;stroke-width:0.754851" />
  <path
     d="m 102.50199,0.09026133 h 4.13357 V 20.306173 h -4.13357 z"
     fill="white"
     id="path48"
     style="fill:#aa0000;stroke-width:0.754851" />
  <path
     d="M 109.10015,6.2409705 V 9.663526 h 8.96989 c 0.76542,0 1.46064,0.617695 1.46064,1.376245 l -10.19653,2.668625 c -0.71635,0.192034 -1.21455,0.841584 -1.21455,1.583527 v 1.119821 c 0,2.126643 1.72332,3.850723 3.84974,3.850723 l 8.14786,-2.27e-4 c 2.12642,-7.5e-5 3.84974,-1.723853 3.84974,-3.850496 v -6.320368 c 0,-2.126567 -1.72332,-3.850413 -3.84974,-3.850413 z m 10.49998,7.9513605 v 1.343107 c 0,0.798406 -0.64767,1.445615 -1.44554,1.445615 h -4.4491 c -0.68917,0 -1.20398,-0.4785 -1.33306,-0.961982 z"
     fill="white"
     id="path50"
     style="fill:#aa0000;stroke-width:0.754851" />
  <path
     d="m 133.5762,20.440989 c -1.64482,0 -2.64425,-0.569686 -3.38023,-1.843875 L 123.91335,6.1681576 h 4.64384 L 134.15668,16.9923 139.75692,6.1681576 h 4.64384 l -6.28262,12.4289564 c -0.73598,1.274189 -1.73541,1.843875 -3.38098,1.843875 h -0.58048 z"
     fill="white"
     id="path52"
     style="fill:#aa0000;stroke-width:0.754851" />
  <path
     d="m 145.52549,6.1681576 h 4.13357 V 20.306173 h -4.13357 z"
     fill="white"
     id="path54"
     style="fill:#aa0000;stroke-width:0.754851" />
  <path
     d="m 147.61039,4.6999117 c 1.28249,0 2.32192,-1.0395433 2.32192,-2.321892 0,-1.2823412 -1.03943,-2.32189199 -2.32192,-2.32189199 -1.28249,0 -2.32192,1.03955079 -2.32192,2.32189199 0,1.2823487 1.03943,2.321892 2.32192,2.321892 z"
     fill="white"
     id="path56"
     style="fill:#aa0000;stroke-width:0.754851" />
  <path
     d="m 167.58149,20.238236 v -3.422571 h -9.98367 c -0.76541,0 -1.46139,-0.617694 -1.46139,-1.376169 l 10.19653,-2.668701 c 0.71711,-0.192034 1.21531,-0.841583 1.21531,-1.583526 v -1.119822 c 0,-2.1265668 -1.72408,-3.8507148 -3.85049,-3.8507148 l -8.14787,2.642e-4 c -2.12566,3.78e-5 -3.84974,1.7238838 -3.84974,3.8504506 v 6.320369 c 0,2.126566 1.72408,3.85042 3.8505,3.85042 z M 156.06774,12.28686 v -1.343106 c 0,-0.798406 0.64691,-1.4456158 1.44554,-1.4456158 h 4.44909 c 0.68918,0 1.20324,0.4785758 1.33307,0.9619818 z"
     fill="white"
     id="path58"
     style="fill:#aa0000;stroke-width:0.754851" />
  <path
     d="m 176.88125,20.440989 c -1.64482,0 -2.645,-0.569762 -3.38022,-1.843875 L 167.2184,6.1681576 h 4.64385 l 5.59948,10.8241424 3.8588,-10.8241424 h 3.85805 l -3.89277,12.2582094 c -0.56463,1.239994 -1.59802,2.014622 -3.2436,2.014622 h -0.58048 z"
     fill="white"
     id="path60"
     style="fill:#aa0000;stroke-width:0.754851" />
  <path
     d="m 189.61786,20.440989 c 1.64482,0 2.64424,-0.569762 3.38022,-1.843875 l 6.28263,-12.4289564 h -4.64385 L 189.03738,16.9923 185.17858,6.1681576 h -3.85805 l 3.89201,12.2582094 c 0.56539,1.239994 1.59878,2.014622 3.24436,2.014622 h 0.58048 z"
     fill="white"
     id="path62"
     style="fill:#aa0000;stroke-width:0.754851" />
  <path
     d="M 0.6119044,33.957203 H 12.628888 C 9.1382298,32.669502 3.8656397,27.547611 1.9170292,24.450834 c 2.0849744,5.701693 2.4882084,8.195041 -1.3051248,9.506369 z"
     fill="white"
     id="path64"
     style="fill:#aa0000;stroke-width:0.754851" />
  <path
     d="m 19.893273,0.01363941 h 4.629503 V 9.793964 C 23.200125,5.8447718 21.675326,2.3561517 19.893273,0.01363941 Z"
     fill="white"
     id="path66"
     style="fill:#aa0000;stroke-width:0.754851" />
  <path
     d="m 15.460787,0.01363941 h 2.6102 C 20.591133,4.1039869 22.790468,7.931822 24.522776,12.588348 v 2.903988 C 21.83928,9.4360894 19.052294,3.5444082 15.460787,0.01363941 Z"
     fill="white"
     id="path68"
     style="fill:#aa0000;stroke-width:0.754851" />
  <path
     d="M 24.522776,20.567728 V 18.01067 C 20.907114,9.2343932 15.787412,3.1666278 11.460227,0 H 6.0623849 C 15.804471,3.8534669 21.462307,11.816513 24.522776,20.567728 Z"
     fill="white"
     id="path70"
     style="fill:#aa0000;stroke-width:0.754851" />
  <path
     d="M 22.84527,31.023247 C 19.894708,35.874147 12.239611,34.96976 5.5657155,27.028877 0.22647212,20.676201 -1.5988637,12.126983 1.5328175,7.1817943 4.4424517,2.5873248 13.130411,4.5517193 17.95776,10.384107 c 4.752995,5.742832 8.714605,14.347833 4.88751,20.63914 z m -5.301546,-9.106524 c -2.162422,0 -3.915413,1.392172 -3.915413,3.109383 0,1.717362 1.752991,3.109458 3.915413,3.109458 2.162422,0 3.915337,-1.392096 3.915337,-3.109458 0,-1.717211 -1.752915,-3.109383 -3.915337,-3.109383 z m -1.353901,-8.633686 c -0.723525,-9.81e-4 -1.372546,0.237854 -1.8478,0.737792 -0.927335,0.975343 -0.854794,2.939919 0.172106,4.700307 0.195883,-0.02838 0.393579,-0.04333 0.591652,-0.04439 1.970011,0.0011 3.646988,1.340163 3.956024,3.158901 0.808219,0.05148 1.525781,-0.163576 2.003828,-0.652795 1.169038,-1.196364 0.759607,-4.01611 -1.097176,-5.99382 -1.160433,-1.236069 -2.572986,-1.904188 -3.778634,-1.906 z M 7.4948962,11.292495 c -0.7907821,-0.0048 -1.5004931,0.273331 -2.0005217,0.864229 -0.9512332,1.123822 -0.718656,3.03352 0.2916745,4.717744 0.3638006,-0.07964 0.7395806,-0.119946 1.1170741,-0.120097 2.2517889,0.0012 4.0992119,1.409609 4.1816409,3.188039 0.545003,-0.11202 1.027051,-0.379539 1.393984,-0.813126 1.230936,-1.454372 0.455175,-4.197123 -1.398739,-6.092253 C 9.979285,11.911699 8.6505205,11.299666 7.4948962,11.292495 Z m 1.6024962,8.857121 c -2.1624146,0 -3.9153602,1.392097 -3.9153602,3.109459 0,1.717211 1.7529456,3.109383 3.9153602,3.109383 2.1624216,0 3.9153376,-1.392172 3.9153376,-3.109383 0,-1.717362 -1.752916,-3.109459 -3.9153376,-3.109459 z"
     fill="white"
     id="path72"
     style="fill:#aa0000;stroke-width:0.754851" />
</svg>
