<?xml version="1.0" encoding="UTF-8" standalone="no"?>
<svg
   xmlns:dc="http://purl.org/dc/elements/1.1/"
   xmlns:cc="http://creativecommons.org/ns#"
   xmlns:rdf="http://www.w3.org/1999/02/22-rdf-syntax-ns#"
   xmlns:svg="http://www.w3.org/2000/svg"
   xmlns="http://www.w3.org/2000/svg"
   xmlns:sodipodi="http://sodipodi.sourceforge.net/DTD/sodipodi-0.dtd"
   xmlns:inkscape="http://www.inkscape.org/namespaces/inkscape"
   version="1.1"
   id="svg28"
   sodipodi:docname="saturn.svg"
   inkscape:version="0.92.5 (2060ec1f9f, 2020-04-08)"
   width="324.83072"
   height="34">
  <metadata
     id="metadata34">
    <rdf:RDF>
      <cc:Work
         rdf:about="">
        <dc:format>image/svg+xml</dc:format>
        <dc:type
           rdf:resource="http://purl.org/dc/dcmitype/StillImage" />
        <dc:title></dc:title>
      </cc:Work>
    </rdf:RDF>
  </metadata>
  <defs
     id="defs32" />
  <sodipodi:namedview
     pagecolor="#ffffff"
     bordercolor="#666666"
     borderopacity="1"
     objecttolerance="10"
     gridtolerance="10"
     guidetolerance="10"
     inkscape:pageopacity="0"
     inkscape:pageshadow="2"
     inkscape:window-width="1440"
     inkscape:window-height="837"
     id="namedview30"
     showgrid="false"
     inkscape:zoom="2.7742156"
     inkscape:cx="111.9783"
     inkscape:cy="54.503278"
     inkscape:window-x="0"
     inkscape:window-y="0"
     inkscape:window-maximized="1"
     inkscape:current-layer="svg28"
     fit-margin-top="0"
     fit-margin-left="0"
     fit-margin-right="0"
     fit-margin-bottom="0" />
  <path
     style="fill:#aa0000;stroke-width:1.23042119"
     d="m 45.847292,0.3845071 c -1.164901,-0.00923 -2.395842,0.036932 -3.784987,0.1273678 -1.46303,0.1016377 -2.984598,0.2743813 -4.541984,0.490246 a 17.93585,18.456312 0 0 1 4.515548,3.8763074 c 0.100826,-0.00648 0.204842,-0.018163 0.305203,-0.024032 2.533437,-0.2177846 5.420121,-0.01563 6.1473,0.036048 0.727178,0.051678 1.766443,-0.1068737 2.222929,-0.4686175 C 51.169018,4.0244007 51.414986,3.5534184 51.48512,2.9751205 51.55649,2.3599099 51.381591,1.8173903 51.030921,1.3818212 50.643339,0.9118003 49.798059,0.6232857 49.235756,0.5863731 48.109921,0.4590245 47.012193,0.3937353 45.847292,0.3845071 Z M 12.570646,8.3726323 C 11.727063,8.7704242 10.856145,9.1815443 10.268413,9.4877016 8.6528699,10.32931 6.5679211,11.53864 4.8084188,13.032372 3.047686,14.526103 2.3031082,15.242477 1.1243647,17.122561 -0.05437881,19.002644 -0.32493689,21.134753 0.40101162,22.41193 2.268791,25.699616 8.932983,24.622709 11.46519,24.115775 c 0.137416,-0.02919 0.317408,-0.07509 0.459004,-0.105739 a 17.93585,18.456312 0 0 1 -1.155923,-4.097399 c -0.04616,0.0095 -0.105662,0.02679 -0.151399,0.03605 -4.4971894,1.065544 -5.9406274,0.468618 -5.9406274,0.468618 -0.060291,-1.325165 1.4353826,-3.01088 2.6362737,-3.946 0.8953203,-0.695749 2.0783416,-1.516749 3.4341247,-2.309443 a 17.93585,18.456312 0 0 1 1.824003,-5.7892297 z m 38.373762,0.2547356 c -0.882406,-0.020691 -1.650398,0.050351 -2.097964,0.093724 -1.0753,0.1054367 -2.499683,0.3236895 -4.03732,0.6512582 a 17.93585,18.456312 0 0 1 1.268872,4.1334459 c 2.084897,-0.482865 4.378576,-0.854909 5.803647,-0.588776 -0.08792,1.126941 -1.267596,3.792679 -5.688295,6.596691 a 17.93585,18.456312 0 0 1 -1.83602,5.906984 c 0.007,-0.0033 0.01465,-0.0063 0.02163,-0.0096 6.561836,-3.029297 8.924188,-5.79711 10.460983,-8.177975 1.538026,-2.378404 2.100522,-5.64873 0.504666,-7.183065 C 54.202622,8.9503665 52.415087,8.6618664 50.944409,8.6273809 Z M 8.7015484,29.109556 c -0.7265444,-0.01669 -1.2718325,-0.01947 -1.5428328,0.01682 -2.1458546,0.140269 -2.6693988,1.531106 -2.6915464,2.134013 -0.023378,0.601676 -0.05137,2.014391 2.8068984,2.196494 2.8582684,0.184563 5.5270334,0.426341 10.8695214,-0.230704 0.593655,-0.09006 0.986541,-0.171602 1.501979,-0.25714 a 17.93585,18.456312 0 0 1 -4.592451,-3.837856 c -2.319496,0.107088 -4.76376,0.01484 -6.3515686,-0.02163 z"
     id="path2"
     inkscape:connector-curvature="0" />
  <path
     style="fill:#aa0000;stroke:#ffffff;stroke-width:0;stroke-miterlimit:4;stroke-dasharray:none;stroke-opacity:1"
     d="M 28.558913,5.0000001e-7 A 16.520154,16.999538 0 0 0 12.039546,17 a 16.520154,16.999538 0 0 0 0.20427,2.590612 c 1.221092,-0.282242 3.020012,-0.735325 5.750777,-1.638959 2.051495,-0.641021 4.644397,-1.53371 7.841532,-2.643482 l 8.00735,-2.787673 c 3.027707,-1.072327 5.448934,-1.859159 7.332062,-2.432005 0.746527,-0.2268529 1.483208,-0.412134 2.203702,-0.579163 A 16.520154,16.999538 0 0 0 28.558913,5.0000001e-7 Z M 44.734626,13.63076 c -0.973133,0.252536 -2.463246,0.653661 -2.463246,0.653661 -1.851245,0.536101 -4.241001,1.324068 -7.168645,2.35991 l -8.007351,2.787673 c 0,0 -5.889148,2.036587 -7.973706,2.715579 -2.219894,0.66495 -4.071702,1.130167 -5.738762,1.5188 A 16.520154,16.999538 0 0 0 28.558913,33.999999 16.520154,16.999538 0 0 0 45.080682,17 16.520154,16.999538 0 0 0 44.734626,13.63076 Z"
     id="circle4-6"
     inkscape:connector-curvature="0" />
  <path
     d="M 88.762121,7.9584529 C 88.433599,7.3936895 87.988186,7.0528629 87.436958,6.8658388 77.375803,3.9608143 70.887792,4.3779271 68.014759,8.1873112 c -1.032324,1.2451863 -1.659838,2.4522298 -1.844402,3.6974158 -0.221475,1.242725 -0.07382,2.412856 0.478634,3.546074 h -0.03814 c 0.40727,0.866216 1.032324,1.658607 1.844402,2.377173 h 0.03691 c 0.663197,0.564764 1.363307,1.018789 2.174155,1.396528 0.551228,0.301454 1.84317,0.489708 3.905356,0.526621 0.40727,0.03814 1.181205,0.03814 2.358718,0.03814 1.032323,0.03814 1.844401,0.03814 2.432543,0.07506 h 0.03691 c 1.843171,0.03937 3.714642,0.222707 4.313857,0.413422 0.596754,0.193176 1.647534,1.312859 1.729972,1.813641 0.0849,0.499551 0,0 0,0 0.110738,0.301453 0.221476,0.382661 0.11689,1.146752 -0.108277,0.762862 -0.335905,0.627515 -0.631206,1.005255 0,0 0.01107,-0.03445 0,-0.0406 -0.506933,-0.339597 -0.884673,0.52785 -1.658608,0.755478 -1.103687,0.267002 -2.433773,0.452795 -3.980412,0.490938 -1.54787,0.03814 -3.09574,0 -4.680523,-0.188254 -1.510957,-0.189485 -2.837351,-0.455256 -3.943499,-0.792391 -0.55246,-0.187024 -1.141831,-0.151342 -1.659839,0.151341 -0.551228,0.264541 -0.921585,0.717336 -1.103688,1.321473 -0.184563,0.564763 -0.110737,1.166439 0.14396,1.732433 0.296531,0.52662 0.740713,0.903129 1.291942,1.095075 1.326394,0.450334 2.911177,0.751787 4.754348,0.980646 1.807488,0.188254 3.574373,0.26454 5.343719,0.225167 1.918227,-0.07629 3.576834,-0.300223 4.940141,-0.64105 1.914535,-0.490938 3.24339,-1.245186 3.9435,-2.225832 h 0.03691 c 0.588141,-0.756709 1.029862,-1.437132 1.288251,-2.040038 v -0.03814 c 0.296531,-0.753018 0.442951,-1.509727 0.442951,-2.299658 v -0.07752 c -0.03568,-0.564763 0.0098,-1.391606 -0.285457,-2.185228 -0.110738,-0.413422 -0.217785,-0.64228 -0.810848,-1.960061 -0.594293,-1.31409 -1.964983,-2.154468 -4.360613,-2.681088 h -0.03568 c -1.179974,-0.228858 -2.875494,-0.417113 -5.048418,-0.492168 -0.626285,-0.03814 -1.475275,-0.03814 -2.581424,-0.07629 -1.103688,0 -1.877623,0 -2.284892,-0.03814 -1.178742,-0.03569 -1.951446,-0.07629 -2.246747,-0.150116 -0.40727,-0.189485 -0.773935,-0.414652 -1.070467,-0.679192 -0.329753,-0.301453 -0.588141,-0.602907 -0.737022,-0.903129 v -0.03937 c -0.147651,-0.225167 -0.184563,-0.490938 -0.110738,-0.756709 0.110738,-0.489707 0.369126,-1.015097 0.84776,-1.507266 2.211067,-2.1876888 7.149978,-2.1876888 14.852415,0.07629 0.593063,0.150112 1.144292,0.113199 1.658608,-0.226397 0.55492,-0.300223 0.921585,-0.754249 1.070466,-1.357155 0.187024,-0.5635329 0.113199,-1.1307571 -0.183333,-1.6979811 z"
     style="fill:#aa0000;stroke-width:1.23042119"
     id="path8"
     inkscape:connector-curvature="0" />
  <path
     d="M 110.44829,6.0463783 C 110.00411,5.6317264 109.4898,5.4040984 108.86351,5.4040984 H 94.120606 c -0.589372,0 -1.141831,0.227628 -1.549101,0.6422799 -0.441721,0.4503342 -0.661966,0.9831066 -0.661966,1.6216952 V 26.534122 c 0,0.602906 0.221476,1.17013 0.661966,1.584782 0.40727,0.456486 0.958498,0.680423 1.549101,0.680423 h 14.742904 c 0.62629,0 1.1406,-0.225167 1.58478,-0.680423 0.40481,-0.414652 0.62629,-0.981876 0.62629,-1.584782 0,-0.64228 -0.22148,-1.168901 -0.62629,-1.625387 -0.44418,-0.413421 -0.95849,-0.641049 -1.58478,-0.641049 H 96.332903 v -4.903229 h 9.213397 c 0.62505,0 1.1406,-0.225167 1.58478,-0.677962 0.40358,-0.418343 0.62628,-0.983106 0.62628,-1.587243 0,-0.639819 -0.22147,-1.16767 -0.62628,-1.621695 -0.44418,-0.418344 -0.95973,-0.643511 -1.58478,-0.643511 H 96.332903 V 9.9308181 h 12.530607 c 0.62629,0 1.1406,-0.2288584 1.58355,-0.6816534 0.40604,-0.4146519 0.62752,-0.9400418 0.62752,-1.5835521 0,-0.6373582 -0.22148,-1.1689001 -0.62629,-1.6192343 z"
     style="fill:#aa0000;stroke-width:1.23042119"
     id="path10"
     inkscape:connector-curvature="0" />
  <path
     d="m 135.90079,8.7151619 c -0.10828,-0.6545841 -0.44172,-1.1873565 -0.9179,-1.554022 -4.04562,-2.9911539 -8.48006,-3.5583781 -12.76685,-2.7832128 -1.6906,0.4072695 -2.2369,0.3666656 -4.08377,1.3091682 -1.84317,0.937581 -3.12773,2.6823183 -3.12773,2.6823183 -0.88221,0.9855673 -1.36084,2.1864584 -1.95021,3.7798544 -0.58938,1.592165 -0.58569,2.383325 -0.65951,4.348308 -0.0738,1.967443 0.1821,3.77001 0.73333,5.486448 0.55123,1.72382 1.39776,3.240929 2.53959,4.510724 v -0.04429 c 1.10369,1.312859 2.46453,2.331648 4.04562,2.988693 1.5811,0.696419 3.31107,1.066775 5.185,1.066775 4.41352,0 7.61754,-1.028632 9.60344,-3.073592 2.31811,-2.088025 3.27292,-5.239133 2.90625,-9.457017 -0.0369,-0.655815 -0.29284,-1.149214 -0.70011,-1.597087 -0.44049,-0.412191 -0.91789,-0.616441 -1.50849,-0.616441 h -9.56407 c -0.58568,0 -1.13691,0.242393 -1.54787,0.696418 -0.44049,0.489708 -0.66073,1.060623 -0.66073,1.759503 0,0.655814 0.22024,1.268564 0.66073,1.717668 0.41096,0.493399 0.96219,0.737022 1.54787,0.737022 h 7.35915 c -0.14765,1.229191 -0.62628,2.256592 -1.36331,3.031758 -1.43344,1.269795 -3.67649,1.882544 -6.7304,1.882544 -1.28825,0 -2.50268,-0.244854 -3.56822,-0.695188 l -0.0369,-0.03937 c -0.9585,-0.410961 -1.76566,-0.984337 -2.467,-1.803798 -0.69642,-0.776395 -1.21442,-1.720129 -1.54418,-2.742609 -0.36789,-1.104918 -0.51431,-2.334109 -0.47617,-3.644507 0.0357,-1.391607 0.18333,-2.147085 0.43926,-3.087127 0.18579,-0.698879 0.47863,-1.271025 0.88344,-1.720129 0,0 0.65828,-1.05201 1.76689,-1.620464 1.10984,-0.5709158 1.9133,-0.7370226 3.27415,-1.1049186 h 0.0369 c 3.2397,-0.8194605 6.32806,-0.1242725 9.30937,2.1261676 0.51308,0.370357 1.06431,0.492169 1.65122,0.370357 0.58938,-0.163646 1.06678,-0.492168 1.39899,-1.064314 0.33222,-0.532773 0.44295,-1.1479833 0.33222,-1.8456321 z"
     style="fill:#aa0000;stroke-width:1.23042119"
     id="path12"
     inkscape:connector-curvature="0" />
  <path
     d="m 163.7526,28.615994 c 0.36913,-0.52785 0.51432,-1.05324 0.44172,-1.696751 C 161.87252,11.185848 157.70877,3.4871022 151.66371,3.8660719 145.62357,3.4871022 141.418,10.922538 139.17002,26.163765 c -0.0751,0.604137 0.0381,1.17013 0.40726,1.662299 0.3679,0.52662 0.84653,0.828073 1.43468,0.90559 0.59183,0.110738 1.14306,-0.0406 1.65983,-0.419574 0.47741,-0.376509 0.77517,-0.864986 0.88468,-1.471583 0.27684,-1.893619 0.58199,-3.643278 0.90805,-5.245286 h 0.0123 14.2975 c 0.37158,1.813641 0.71733,3.813075 1.03601,5.997073 0.10951,0.602906 0.36913,1.095075 0.88344,1.474044 0.47741,0.37774 1.03233,0.526621 1.6217,0.412192 0.58937,-0.06767 1.06677,-0.369127 1.43713,-0.862526 z M 145.55959,17.073413 c 1.61309,-5.583651 3.65312,-8.4751411 6.10289,-8.6781606 2.37595,0.1993282 4.39138,3.0945096 6.00815,8.6781606 z"
     style="fill:#aa0000;stroke-width:1.23042119"
     id="path14"
     inkscape:connector-curvature="0" />
  <path
     d="m 198.89097,7.7566638 c -0.33098,-0.569685 -0.77886,-0.9117421 -1.33624,-1.1024574 -10.14605,-2.9296329 -16.6882,-2.5112897 -19.58584,1.3337766 -1.04217,1.2537992 -1.67338,2.471916 -1.8604,3.726946 -0.22394,1.25626 -0.075,2.433773 0.48233,3.576834 h -0.0369 c 0.40973,0.874829 1.04217,1.670912 1.85917,2.39563 h 0.0369 c 0.66812,0.569685 1.37561,1.026171 2.19261,1.408832 0.55738,0.305145 1.85917,0.49586 3.93858,0.531542 0.41096,0.03691 1.19228,0.03691 2.37841,0.03691 1.04216,0.03937 1.86039,0.03937 2.45346,0.07875 h 0.0381 c 1.85793,0.03937 3.7454,0.223937 4.34954,0.415882 0.60167,0.195637 1.6623,1.323934 1.74473,1.832098 0.0861,0.503242 0,0 0,0 0.11074,0.301453 0.22517,0.38143 0.11566,1.152904 -0.10704,0.772705 -0.33836,0.632437 -0.63489,1.013867 v -0.03814 c -0.33591,0.302684 -0.89329,0.529081 -1.67338,0.761631 -1.11353,0.267001 -2.45346,0.456486 -4.01486,0.493399 -1.5614,0.0406 -3.12158,0 -4.7199,-0.188255 -1.52203,-0.191945 -2.85949,-0.457716 -3.97549,-0.801004 -0.55861,-0.189485 -1.15167,-0.148881 -1.67337,0.152572 -0.55861,0.269463 -0.9302,0.722258 -1.11353,1.330086 -0.18579,0.569685 -0.11074,1.178743 0.14642,1.748428 0.29899,0.532773 0.74563,0.914203 1.30302,1.106149 1.33623,0.454025 2.93455,0.75917 4.79495,0.989259 1.82102,0.189484 3.60267,0.267001 5.38801,0.228858 1.93422,-0.07752 3.60637,-0.306375 4.98198,-0.648432 1.9293,-0.49709 3.27046,-1.25503 3.97672,-2.245519 h 0.0369 c 0.59429,-0.7604 1.03971,-1.448205 1.30056,-2.056034 v -0.03937 c 0.29899,-0.75917 0.44664,-1.51957 0.44664,-2.319344 v -0.07629 c -0.0357,-0.569685 0.0123,-1.40268 -0.28669,-2.204915 -0.11197,-0.418343 -0.22148,-0.647202 -0.81823,-1.973596 -0.60045,-1.327624 -1.98221,-2.176615 -4.39752,-2.705696 h -0.0382 c -1.18735,-0.231319 -2.89764,-0.419573 -5.08902,-0.494629 -0.63121,-0.03814 -1.48635,-0.03814 -2.60234,-0.07752 -1.11353,0 -1.89362,0 -2.30458,-0.03937 -1.18736,-0.03445 -1.96867,-0.07629 -2.26644,-0.150112 -0.40973,-0.191945 -0.78008,-0.419573 -1.07908,-0.684113 -0.33221,-0.303914 -0.59429,-0.609059 -0.74317,-0.911743 v -0.03937 c -0.15011,-0.227627 -0.18579,-0.494629 -0.11197,-0.76163 0.11197,-0.493399 0.37405,-1.026172 0.85514,-1.520801 2.22953,-2.2073756 7.21027,-2.2073756 14.97669,0.07752 0.59799,0.150112 1.15537,0.114429 1.67337,-0.228858 0.55985,-0.302684 0.9302,-0.761631 1.08031,-1.369459 0.1858,-0.5733763 0.11074,-1.1455222 -0.18825,-1.7152072 z"
     style="fill:#aa0000;stroke-width:1.23042119"
     id="path16"
     inkscape:connector-curvature="0" />
  <path
     d="m 204.93111,29.965766 c 0.48355,-0.3802 0.78132,-0.87606 0.89205,-1.485118 0.28177,-1.907153 0.58814,-3.672807 0.91544,-5.28589 h 14.4353 c 0.37528,1.829637 0.72103,3.843836 1.04093,6.048751 0.11074,0.609059 0.37036,1.104918 0.89206,1.483888 0.48233,0.37897 1.03971,0.532773 1.63523,0.417113 0.59552,-0.07506 1.07785,-0.381431 1.44821,-0.873599 0.37035,-0.534003 0.52046,-1.068006 0.44664,-1.712746 -2.34149,-15.865051 -6.54215,-23.6253179 -12.63643,-23.2463482 -6.0955,-0.3789697 -10.29616,7.1167562 -12.60074,22.4871782 -0.11074,0.609058 0.0369,1.177513 0.40727,1.673372 0.37405,0.534003 0.85514,0.839148 1.4519,0.911743 0.63243,0.115659 1.15167,-0.03568 1.67214,-0.418344 z m 2.91364,-11.339562 c 1.62907,-5.629176 3.68757,-8.541583 6.15702,-8.7470636 2.41778,0.1980976 4.44551,3.1178876 6.06475,8.7470636 z"
     style="fill:#aa0000;stroke-width:1.23042119"
     id="path18"
     inkscape:connector-curvature="0" />
  <path
     d="m 245.70358,7.0983884 c -0.44542,-0.4158823 -0.96712,-0.6459711 -1.59832,-0.6459711 h -19.325 c -0.59675,0 -1.1529,0.2300888 -1.56263,0.6459711 -0.44541,0.4577167 -0.66812,0.9904891 -0.66812,1.6364603 0,0.6090585 0.22394,1.1787435 0.66812,1.5983173 0.40973,0.460177 0.96588,0.686575 1.56263,0.686575 h 7.43175 v 17.49905 c 0,0.610289 0.22393,1.181204 0.66812,1.600778 0.41096,0.456486 0.96711,0.686575 1.5614,0.686575 0.6349,0 1.15414,-0.230089 1.59709,-0.686575 0.41096,-0.419574 0.63489,-0.990489 0.63489,-1.600778 V 11.01851 h 7.43175 c 0.6312,0 1.1529,-0.227627 1.59709,-0.685344 0.41096,-0.4195738 0.63243,-0.9892588 0.63243,-1.5983173 0,-0.6459712 -0.22147,-1.1775131 -0.6312,-1.6364603 z"
     style="fill:#aa0000;stroke-width:1.23042119"
     id="path20"
     inkscape:connector-curvature="0" />
  <path
     d="m 271.74421,6.644363 c -0.44418,-0.4577167 -0.96588,-0.6853446 -1.59832,-0.6853446 -0.59429,0 -1.15044,0.2276279 -1.56017,0.6853446 -0.44541,0.4158824 -0.66935,0.9880282 -0.66935,1.5970867 V 19.539177 c 0,0.878521 -0.14888,1.715207 -0.4811,2.475608 -0.29776,0.797312 -0.78131,1.444514 -1.33992,2.053573 -0.5943,0.570915 -1.2255,1.068005 -2.00559,1.370689 -0.74194,0.342057 -1.5614,0.493399 -2.41655,0.493399 h -3.30737 c -0.85391,0 -1.63523,-0.148881 -2.41532,-0.493399 -0.78008,-0.302684 -1.41006,-0.799774 -2.00558,-1.370689 -0.55861,-0.609059 -1.00526,-1.25503 -1.33993,-2.016661 v -0.03691 c -0.29407,-0.760403 -0.47987,-1.597089 -0.47987,-2.47561 V 8.2402193 c 0,-0.6078281 -0.22516,-1.1812043 -0.63366,-1.5958563 -0.44788,-0.4589471 -0.96465,-0.6853446 -1.59709,-0.6853446 -0.59306,0 -1.15413,0.2263975 -1.5614,0.6853446 -0.44665,0.414652 -0.66812,0.9880282 -0.66812,1.5958563 V 19.539177 c 0,1.486349 0.2953,2.893951 0.81823,4.262179 h 0.0357 c 0.52047,1.333777 1.30178,2.473147 2.26767,3.501779 1.00156,0.989259 2.11878,1.786571 3.41688,2.358717 1.30424,0.570916 2.67862,0.837917 4.16497,0.837917 h 3.30737 c 1.48635,0 2.86319,-0.267001 4.20066,-0.837917 h -0.0381 c 1.29932,-0.572146 2.41532,-1.369458 3.4218,-2.358717 0.96342,-1.028632 1.74474,-2.168002 2.30458,-3.501779 v 0.03937 c 0.55738,-1.37192 0.81946,-2.777061 0.81946,-4.301553 V 8.2402193 C 272.37809,7.6323912 272.154,7.059015 271.74427,6.644363 Z"
     style="fill:#aa0000;stroke-width:1.23042119"
     id="path22"
     inkscape:connector-curvature="0" />
  <path
     d="m 274.73906,6.6665106 c -0.39374,0.4158824 -0.63121,0.9068204 -0.63121,1.5097268 V 27.827294 c 0,0.602907 0.23747,1.170131 0.67181,1.587244 0.47494,0.451564 1.06924,0.677962 1.70044,0.677962 0.67058,0 1.22304,-0.226398 1.65984,-0.677962 0.47617,-0.417113 0.71118,-0.984337 0.71118,-1.587244 V 10.291332 c 5.1001,-0.2989929 9.00915,-0.03445 11.73699,0.757939 2.0548,0.641049 3.16218,1.699212 3.27907,3.173256 0.0394,1.170131 -0.4331,2.003126 -1.42236,2.497755 -1.58233,0.679193 -3.91397,0.868677 -6.99372,0.52662 -0.55369,-0.03937 -1.02986,0.03937 -1.50357,0.339597 -0.47494,0.26331 -0.79116,0.641049 -0.98926,1.134448 -0.1981,0.454025 -0.1981,0.941272 -0.0775,1.433441 0.15627,0.494629 0.47495,0.868677 0.91051,1.17013 l 11.8588,8.315187 c 0.51309,0.371587 1.10492,0.52662 1.73859,0.413421 0.67058,-0.07629 1.18489,-0.377739 1.57986,-0.910511 0.35682,-0.489708 0.51432,-1.056932 0.4368,-1.661069 -0.11935,-0.64228 -0.4368,-1.131988 -0.94989,-1.510957 l -6.28376,-4.383991 c 0.91051,-0.223937 1.69798,-0.493399 2.37226,-0.829304 2.68847,-1.288251 4.03332,-3.47594 4.07515,-6.539688 0.15626,-3.624821 -2.05849,-6.1188851 -6.56061,-7.4809614 -3.519,-1.1319875 -8.77659,-1.3989889 -15.77277,-0.8293039 -0.59429,0.040604 -1.10737,0.3026836 -1.54663,0.7591699 z"
     style="fill:#aa0000;stroke-width:1.23042119"
     id="path24"
     inkscape:connector-curvature="0" />
  <path
     d="m 302.1959,7.059015 c -0.26208,0.382661 -0.4085,0.8022346 -0.4085,1.2944031 V 28.138591 c 0,0.610289 0.22148,1.181204 0.66812,1.598317 0.4085,0.457717 0.96465,0.685345 1.56018,0.685345 0.63243,0 1.1529,-0.226398 1.59708,-0.685345 0.40973,-0.417113 0.63367,-0.988028 0.63367,-1.598317 V 14.02566 l 14.75398,15.674335 c 0.33468,0.340827 0.7038,0.570916 1.15414,0.682884 0.44418,0.07752 0.85268,0.03814 1.29932,-0.111968 0.41096,-0.193176 0.74195,-0.456486 1.00403,-0.87483 0.26084,-0.3802 0.37281,-0.799773 0.37281,-1.25749 V 8.3534181 c 0,-0.6459712 -0.22393,-1.1787435 -0.63489,-1.6364602 -0.44542,-0.4158824 -0.96342,-0.6472016 -1.59709,-0.6472016 -0.59306,0 -1.15044,0.2325496 -1.56017,0.6472016 -0.44542,0.4577167 -0.66935,0.990489 -0.66935,1.6364602 V 22.46881 L 305.65339,6.7563313 c -0.33591,-0.3026836 -0.70626,-0.5303115 -1.15414,-0.6459711 -0.44418,-0.075056 -0.89205,-0.038143 -1.29932,0.1525722 -0.41096,0.1501114 -0.78009,0.4195737 -1.00403,0.7960826 z"
     style="fill:#aa0000;stroke-width:1.23042119"
     id="path26"
     inkscape:connector-curvature="0" />
</svg>
