<?xml version="1.0" encoding="UTF-8" standalone="no"?>
<svg
   xmlns:dc="http://purl.org/dc/elements/1.1/"
   xmlns:cc="http://creativecommons.org/ns#"
   xmlns:rdf="http://www.w3.org/1999/02/22-rdf-syntax-ns#"
   xmlns:svg="http://www.w3.org/2000/svg"
   xmlns="http://www.w3.org/2000/svg"
   xmlns:sodipodi="http://sodipodi.sourceforge.net/DTD/sodipodi-0.dtd"
   xmlns:inkscape="http://www.inkscape.org/namespaces/inkscape"
   version="1.1"
   id="Layer_1"
   sodipodi:docname="sc-3000.svg"
   width="289.5484"
   height="34"
   inkscape:version="0.92.5 (2060ec1f9f, 2020-04-08)">
  <metadata
     id="metadata21">
    <rdf:RDF>
      <cc:Work
         rdf:about="">
        <dc:format>image/svg+xml</dc:format>
        <dc:type
           rdf:resource="http://purl.org/dc/dcmitype/StillImage" />
        <dc:title></dc:title>
      </cc:Work>
    </rdf:RDF>
  </metadata>
  <defs
     id="defs19" />
  <sodipodi:namedview
     pagecolor="#ffffff"
     bordercolor="#666666"
     borderopacity="1"
     objecttolerance="10"
     gridtolerance="10"
     guidetolerance="10"
     inkscape:pageopacity="0"
     inkscape:pageshadow="2"
     inkscape:window-width="1440"
     inkscape:window-height="837"
     id="namedview17"
     showgrid="false"
     fit-margin-top="0"
     fit-margin-left="0"
     fit-margin-right="0"
     fit-margin-bottom="0"
     inkscape:zoom="1.18"
     inkscape:cx="136.79119"
     inkscape:cy="-107.00731"
     inkscape:window-x="0"
     inkscape:window-y="0"
     inkscape:window-maximized="1"
     inkscape:current-layer="Layer_1" />
  <g
     id="g838"
     style="fill:#aa0000"
     transform="scale(1.0967742)">
    <path
       id="path2"
       style="fill:#aa0000"
       d="M 0,12.056 V 6.889 C 0,2.296 2.285,0 6.857,0 H 37.714 V 6.889 H 6.857 v 5.167 h 24 c 4.572,0 6.857,2.296 6.857,6.889 v 5.166 C 37.714,28.704 35.429,31 30.857,31 H 0 v -6.889 h 30.857 v -5.166 h -24 C 2.285,18.945 0,16.649 0,12.056 Z"
       inkscape:connector-curvature="0" />
    <path
       id="path4"
       style="fill:#aa0000"
       d="M 41.143,24.111 V 6.889 C 41.143,2.296 43.428,0 48,0 H 77.143 V 6.889 H 48 V 24.111 H 77.143 V 31 H 48 c -4.572,0 -6.857,-2.296 -6.857,-6.889 z"
       inkscape:connector-curvature="0" />
    <path
       id="path6"
       style="fill:#aa0000"
       d="m 80.571,18.945 v -6.889 h 12.001 v 6.889 z"
       inkscape:connector-curvature="0" />
    <path
       id="path8"
       style="fill:#aa0000"
       d="m 135.428,24.111 c 0,4.593 -2.286,6.889 -6.856,6.889 H 96 v -6.889 h 32.572 V 17.222 H 111.428 L 120,6.889 H 96 V 0 h 37.714 l -8.571,10.333 h 3.429 c 4.571,0 6.856,2.297 6.856,6.889 z"
       inkscape:connector-curvature="0" />
    <path
       id="path10"
       style="fill:#aa0000"
       d="M 178.285,24.111 C 178.285,28.704 176,31 171.428,31 h -25.714 c -4.572,0 -6.857,-2.296 -6.857,-6.889 V 6.889 C 138.857,2.296 141.142,0 145.714,0 h 25.714 c 4.572,0 6.857,2.296 6.857,6.889 z m -6.857,0 V 6.889 h -25.714 v 17.222 z"
       inkscape:connector-curvature="0" />
    <path
       id="path12"
       style="fill:#aa0000"
       d="m 221.143,24.111 c 0,4.593 -2.286,6.889 -6.857,6.889 H 188.572 C 184,31 181.715,28.704 181.715,24.111 V 6.889 C 181.715,2.296 184,0 188.572,0 h 25.714 c 4.571,0 6.857,2.296 6.857,6.889 z m -6.857,0 V 6.889 h -25.714 v 17.222 z"
       inkscape:connector-curvature="0" />
    <path
       id="path14"
       style="fill:#aa0000"
       d="M 264,24.111 C 264,28.704 261.715,31 257.143,31 h -25.714 c -4.572,0 -6.857,-2.296 -6.857,-6.889 V 6.889 C 224.572,2.296 226.857,0 231.429,0 h 25.714 C 261.715,0 264,2.296 264,6.889 Z m -6.857,0 V 6.889 h -25.714 v 17.222 z"
       inkscape:connector-curvature="0" />
  </g>
</svg>
