<?xml version="1.0" encoding="UTF-8" standalone="no"?>
<svg
   xmlns:dc="http://purl.org/dc/elements/1.1/"
   xmlns:cc="http://creativecommons.org/ns#"
   xmlns:rdf="http://www.w3.org/1999/02/22-rdf-syntax-ns#"
   xmlns:svg="http://www.w3.org/2000/svg"
   xmlns="http://www.w3.org/2000/svg"
   xmlns:sodipodi="http://sodipodi.sourceforge.net/DTD/sodipodi-0.dtd"
   xmlns:inkscape="http://www.inkscape.org/namespaces/inkscape"
   version="1.1"
   id="svg8"
   sodipodi:docname="scummvm.svg"
   inkscape:version="0.92.5 (2060ec1f9f, 2020-04-08)"
   width="132.00084"
   height="33.999996">
  <metadata
     id="metadata14">
    <rdf:RDF>
      <cc:Work
         rdf:about="">
        <dc:format>image/svg+xml</dc:format>
        <dc:type
           rdf:resource="http://purl.org/dc/dcmitype/StillImage" />
        <dc:title></dc:title>
      </cc:Work>
    </rdf:RDF>
  </metadata>
  <defs
     id="defs12" />
  <sodipodi:namedview
     pagecolor="#ffffff"
     bordercolor="#666666"
     borderopacity="1"
     objecttolerance="10"
     gridtolerance="10"
     guidetolerance="10"
     inkscape:pageopacity="0"
     inkscape:pageshadow="2"
     inkscape:window-width="1440"
     inkscape:window-height="837"
     id="namedview10"
     showgrid="false"
     inkscape:zoom="2.7742157"
     inkscape:cx="80.390668"
     inkscape:cy="31.32817"
     inkscape:window-x="0"
     inkscape:window-y="0"
     inkscape:window-maximized="1"
     inkscape:current-layer="svg8"
     fit-margin-top="0"
     fit-margin-left="0"
     fit-margin-right="0"
     fit-margin-bottom="0" />
  <path
     d="m 131.26985,12.487025 -3.319,-0.013 h -0.143 l -0.037,0.1385 -1.119,4.051012 -0.006,0.0245 v 0.026 l -0.0165,5.849016 h -2.37201 l 0.55151,-6.414517 c 0.029,-0.345001 -0.0881,-0.381501 -0.26001,-0.0825 l -9.22503,16.034043 c -0.171,0.300501 -0.59399,0.514502 -0.937,0.478002 l -2.6595,-0.283501 c -0.3435,-0.0365 -0.7025,-0.338001 -0.799,-0.670002 L 109.0123,25.03206 h 1.00401 0.18849 v -0.1895 -6.883518 h 2.59151 l 1.636,6.079017 c 0.0895,0.333 0.29801,0.3585 0.4645,0.056 l 8.62703,-15.7910428 h 3.51651 0.135 l 0.044,-0.1295003 1.5855,-4.767513 2.62451,0.2285007 c 0.3435,0.0305 0.5995,0.3365009 0.56901,0.6810018 z m -1.485,16.699545 h -1.60901 -0.11699 l -0.051,0.105001 -0.3115,0.632502 -1.24899,0.165501 -0.15151,0.0195 -0.0111,0.154 -0.24299,3.455509 -2.09451,-0.2175 c -0.3425,-0.036 -0.5995,-0.347001 -0.57,-0.692002 l 0.847,-9.869027 h 2.59151 0.188 l 5e-4,-0.1885 0.016,-6.012017 1.07201,-3.88701 3.143,0.0125 z m -1.058,4.810013 -2.31051,-0.239001 0.23351,-3.315009 1.19649,-0.157499 0.099,-0.0135 0.0445,-0.09 0.30501,-0.617002 h 1.457 l -0.3445,3.87151 c -0.031,0.343502 -0.3375,0.596502 -0.6805,0.560501 z M 105.62479,13.375027 c -0.0975,-0.3315 -0.21451,-0.323 -0.2625,0.0195 l -1.40101,10.097527 h -2.58351 l -0.8685,-0.473001 -0.0415,-0.0235 -0.047,-5e-4 -1.610507,-0.0095 1.952007,-13.1455359 h 2.56501 0.1375 l 0.0415,-0.1310003 0.7405,-2.3345063 h 5.69952 l 2.746,10.2080275 h -2.67701 -0.18949 v 0.187501 6.885018 h -0.92601 z m -3.37751,17.924048 -3.988515,-0.3495 c -0.344001,-0.03 -0.584002,-0.334001 -0.533001,-0.676502 l 0.600002,-4.034511 5.169514,0.617002 -0.5375,3.87601 c -0.047,0.342002 -0.3665,0.597002 -0.7105,0.567501 z m -1.87551,-7.926521 0.8685,0.473001 0.0425,0.02351 h 0.0475 2.57951 l -0.363,2.612007 -5.166016,-0.615502 0.373001,-2.504006 z m 2.37651,-22.62006049 4.94501,0.49850129 c 0.344,0.035 0.698,0.336501 0.78751,0.6705018 l 1.36549,5.0750138 h -5.73501 -0.138 l -0.042,0.1315003 -0.7405,2.3350064 h -2.37101 l 1.212,-8.1515221 c 0.05,-0.34200091 0.37301,-0.59350158 0.71651,-0.55900149 z m 23.26656,2.98850809 c 0.16601,-0.3040008 0.583,-0.5280014 0.92651,-0.4975014 l 1.4775,0.1285004 -1.51451,4.5535123 h -3.17501 z"
     style="fill:#aa0000;stroke-width:0.50000137"
     id="path2"
     inkscape:connector-curvature="0" />
  <path
     d="M 101.22127,0.50799289 99.198768,12.481525 h -2.099005 -0.189001 v 0.1885 1.002504 l -0.495001,0.485 -0.056,0.055 -5e-4,0.079 -0.01201,3.975511 -4.99e-4,0.189001 h 0.188501 1.654004 l -0.687002,4.065011 -1.425504,1.122502 -1.332004,-0.01101 h -0.0645 l -0.051,0.039 -1.068003,0.820001 -0.074,0.056 v 0.0935 1.667504 l -3.73801,1.383003 -4.171511,-7.043518 4.611512,-3.856011 2.227005,3.969511 c 0.169501,0.3015 0.346002,0.2675 0.392502,-0.0745 L 94.571755,7.8545126 h 1.774006 0.068 l 0.05299,-0.044 0.704502,-0.5925016 0.0675,-0.056 v -0.0885 -2.9655081 l 0.449501,-0.4805012 0.051,-0.054 v -0.0745 -0.9630026 l 0.436501,-0.387501 0.063,-0.056 V 2.0069969 0.51149289 l 2.472015,-0.4990014 c 0.338,-0.069 0.5675,0.1550004 0.5105,0.4955014 z m -4.485009,13.86303811 0.495001,-0.485502 0.0565,-0.0555 v -0.0795 -0.892001 h 1.847505 l -0.881003,5.220014 H 96.725759 Z M 96.17376,30.398574 c -0.057,0.341001 -0.381501,0.673002 -0.720502,0.736501 l -2.677508,0.507502 c -0.338,0.06349 -0.761001,-0.127001 -0.937502,-0.424001 l -1.892505,-3.198009 3.796011,-1.404004 0.122499,-0.0455 v -0.1315 -1.705505 l 0.942503,-0.723002 1.332504,0.01052 0.0665,5e-4 0.052,-0.0405 1.152503,-0.908002 z M 76.788208,4.638004 82.074722,3.542501 c 0.336501,-0.07 0.752002,0.1195004 0.921502,0.4205012 l 1.108504,1.9770053 h -1.155003 -0.09601 l -0.0575,0.0775 -0.332501,0.4545012 H 80.690218 80.501217 V 6.6610094 8.9825157 H 78.670212 L 76.492207,5.3055058 C 76.316706,5.008005 76.449207,4.7075042 76.788208,4.638004 Z m 3.90251,4.7215128 h 0.189 V 9.1700162 6.84851 h 1.680505 0.09601 l 0.0565,-0.077 0.332001,-0.4550013 h 1.272004 L 90.003243,16.457536 85.38473,20.318546 78.893713,9.3595168 Z M 95.419258,1.685996 c 0.047,-0.3420009 0.362501,-0.6780018 0.700001,-0.74700199 L 97.862264,0.58699309 V 1.9219967 l -0.437001,0.387001 -0.06351,0.057 v 0.085 0.9725027 l -0.4495,0.4805013 -0.0505,0.055 v 0.0745 2.9520081 L 96.27676,7.4765116 h -1.654004 z"
     style="fill:#aa0000;stroke-width:0.50000137"
     id="path4"
     inkscape:connector-curvature="0" />
  <path
     d="m 14.139538,21.433049 c 0.385501,0.763502 0.579002,1.672005 0.579002,2.726508 0,1.017502 -0.212001,1.898004 -0.635501,2.642007 -0.423502,0.743502 -0.974504,1.355504 -1.653005,1.836004 -0.677502,0.480502 -1.445505,0.838003 -2.302007,1.074003 -0.857502,0.235501 -1.7195043,0.353002 -2.5850067,0.353002 -1.7330046,0 -3.1875085,-0.320001 -4.3655117,-0.960503 C 2.0010054,28.464568 0.94150254,27.494066 0,26.194062 l 2.0070054,-2.539007 c 0.1855005,-0.2345 0.5015014,-0.2435 0.7000019,-0.021 0,0 0.2310006,0.258001 0.6260017,0.568502 0.3965011,0.311501 0.8245022,0.584001 1.2860034,0.819501 0.4605014,0.235502 0.9320025,0.428503 1.4125039,0.580003 0.4805013,0.1495 0.9270025,0.226 1.3415037,0.226 0.4140011,0 0.7305019,-0.0765 0.9465025,-0.226 0.2165006,-0.1515 0.3255008,-0.433502 0.3255008,-0.848002 0,-0.358502 -0.1940005,-0.697002 -0.5795015,-1.017504 C 7.6795207,23.417054 7.1990195,23.082054 6.6250179,22.733552 6.0500163,22.386552 5.4280146,22.00905 4.7595129,21.60355 4.0915111,21.199048 3.4705094,20.723048 2.8960078,20.176546 2.3210063,19.631044 1.8410049,19.004542 1.4545039,18.298041 1.0685029,17.591539 0.87550237,16.777037 0.87550237,15.854534 c 0,-0.905002 0.17000043,-1.695505 0.50850143,-2.373506 0.3390009,-0.679002 0.7955021,-1.248004 1.3705037,-1.710005 0.5735015,-0.460501 1.2380033,-0.809502 1.9920054,-1.045502 0.7525019,-0.234501 1.5530041,-0.352502 2.4010064,-0.352502 1.5065041,0 2.8575077,0.278001 4.0540107,0.833002 1.196003,0.555502 2.330507,1.380004 3.404509,2.472007 l -1.625504,2.509007 c -0.1625,0.252001 -0.481002,0.297001 -0.707502,0.100004 0,0 -0.408001,-0.354001 -0.860003,-0.646503 -0.451,-0.291503 -0.894502,-0.540504 -1.327503,-0.748005 -0.4335009,-0.2075 -0.8390021,-0.362501 -1.215003,-0.466 -0.3770011,-0.104001 -0.706002,-0.156002 -0.9890027,-0.156002 -0.338501,0 -0.5885016,0.085 -0.748002,0.255001 -0.1615004,0.169501 -0.2405007,0.386001 -0.2405007,0.649502 0,0.339001 0.1925005,0.654002 0.5790016,0.946003 0.385501,0.2925 0.8705024,0.594002 1.4550039,0.905003 0.5835015,0.311001 1.2100029,0.659001 1.8790059,1.044502 0.668001,0.386501 1.294503,0.853002 1.878504,1.399003 0.583502,0.547002 1.068503,1.201504 1.455004,1.963506 z m 6.906518,-1.093503 c 0.215001,-0.234 0.459002,-0.412001 0.731503,-0.534501 0.2715,-0.121001 0.539002,-0.183001 0.802502,-0.183001 0.788002,0 1.373504,0.198001 1.759005,0.591502 0.384001,0.394501 0.558501,0.796502 0.558501,0.796502 0.118501,0.274001 0.451501,0.439002 0.740503,0.367501 l 3.415008,-0.854502 c -0.356501,-1.556505 -1.079502,-2.814508 -2.167506,-3.77151 -1.088003,-0.957003 -2.552007,-1.435504 -4.390511,-1.435504 -1.126003,0 -2.129506,0.174 -3.012008,0.521001 -0.882003,0.347501 -1.622505,0.844003 -2.223006,1.492004 -0.600502,0.647502 -1.055503,1.426504 -1.365004,2.336006 -0.310001,0.911003 -0.464501,1.928006 -0.464501,3.053508 0,0.976504 0.1405,1.905506 0.422001,2.787509 0.2815,0.882502 0.718002,1.656004 1.309504,2.322005 0.590001,0.666002 1.335503,1.196504 2.237005,1.590505 0.900503,0.393501 1.979506,0.590501 3.236009,0.590501 0.713002,0 1.407504,-0.109 2.083006,-0.323501 0.675502,-0.2155 1.295004,-0.544501 1.858005,-0.985502 0.563001,-0.441001 1.055003,-0.998503 1.477503,-1.675004 0.422002,-0.675503 0.785003,-1.872505 0.785003,-1.872505 0.087,-0.286002 -0.077,-0.586503 -0.363001,-0.669503 l -3.307009,-0.948502 c -0.0565,0.3005 -0.178,0.572002 -0.365501,0.816002 -0.188,0.244001 -0.399002,0.455002 -0.633502,0.633001 -0.235,0.179001 -0.474001,0.320502 -0.718002,0.423502 -0.244,0.103002 -0.469001,0.154 -0.675502,0.154 -0.731502,0 -1.327503,-0.281501 -1.786504,-0.844002 -0.460501,-0.564001 -0.690002,-1.303503 -0.690002,-2.224506 0,-0.487001 0.07,-0.909503 0.211,-1.267003 0.141,-0.354502 0.319001,-0.650002 0.535501,-0.886003 z m 23.223064,2.385506 c -0.0475,-1.167503 -0.094,-2.357006 -0.141501,-3.571009 -0.0465,-1.213503 -0.110501,-3.365009 -0.110501,-3.365009 -0.009,-0.299001 -0.261,-0.539002 -0.5595,-0.532502 l -4.622513,0.100498 c 0.0565,0.904004 0.1085,1.685005 0.1555,2.343507 0.0465,0.659002 0.085,1.289503 0.1125,1.891005 0.0285,0.602502 0.0475,1.224003 0.0575,1.863005 0.008,0.640502 0.014,1.393504 0.014,2.259006 0,0.659002 -0.216501,1.180503 -0.649502,1.566004 -0.432501,0.386502 -0.949503,0.578502 -1.552005,0.578502 -0.639501,0 -1.120002,-0.193001 -1.440003,-0.578502 -0.320501,-0.385501 -0.479501,-0.851002 -0.479501,-1.396503 0,-0.977003 0.04451,-1.893006 0.140501,-2.851008 0.094,-0.940503 0.188,-1.806005 0.282999,-2.597507 0.113001,-0.903502 0.305502,-2.059506 0.305502,-2.059506 0.0485,-0.295501 -0.155001,-0.535501 -0.454001,-0.531501 l -4.820014,0.0505 c -0.1325,0.941003 -0.245,1.882006 -0.339001,2.823008 -0.094,0.809502 -0.174,1.666004 -0.2395,2.569007 -0.0665,0.903502 -0.0985,1.712505 -0.0985,2.427506 0,1.016503 0.1225,1.932006 0.367001,2.747008 0.244001,0.814502 0.621001,1.507504 1.129003,2.077506 0.507501,0.569501 1.162003,1.009002 1.961505,1.317503 0.800002,0.307501 1.755005,0.463001 2.865507,0.463001 0.319501,0 0.648503,-0.043 0.988003,-0.128 0.338002,-0.0845 0.662502,-0.202001 0.974003,-0.352501 0.3095,-0.151 0.596002,-0.324501 0.860502,-0.522001 0.118,-0.0885 0.326001,-0.370002 0.496502,-0.311001 0.221001,0.078 0.0965,0.575002 0.0965,0.740002 0,0.299 0.244001,0.538501 0.543001,0.532001 l 4.424513,-0.099 c -0.0375,-1.384003 -0.0795,-2.679506 -0.127001,-3.88901 -0.0485,-1.209003 -0.0955,-2.397006 -0.1415,-3.56401 z M 64.068673,17.97554 c -0.431501,-0.665502 -1.022503,-1.186003 -1.772505,-1.562005 -0.751002,-0.375001 -1.726504,-0.562501 -2.927508,-0.562501 -0.901003,0 -1.674505,0.1965 -2.322506,0.590501 -0.172,0.105001 -0.341001,0.217001 -0.502502,0.337502 -0.146,0.109 -0.2875,0.2245 -0.419,0.349001 -0.09801,0.0925 -0.183001,0.234501 -0.326001,0.260001 -0.036,0.006 -0.07401,0.0155 -0.112501,0.0115 -0.13,-0.012 -0.1665,-0.0995 -0.233501,-0.197 -0.1875,-0.272501 -0.43,-0.501502 -0.700001,-0.690503 -0.470002,-0.3275 -1.060003,-0.493 -1.773005,-0.493 -0.356501,0 -0.694502,0.057 -1.013503,0.1695 -0.32,0.112 -0.605001,0.258501 -0.858002,0.436001 -0.2145,0.150501 -0.399001,0.332501 -0.603502,0.494001 -0.100498,0.0795 -0.14,0.188502 -0.2815,0.180002 -0.144501,-0.0095 -0.1245,-0.195501 -0.134001,-0.294502 -0.013,-0.1185 -0.026,-0.236501 -0.037,-0.354501 -0.009,-0.0865 -0.0185,-0.173 -0.0275,-0.259001 -0.0305,-0.297 -0.299001,-0.534001 -0.598002,-0.527001 l -4.046011,0.100004 c 0.0565,1.144503 0.099,2.242005 0.1275,3.293509 0.028,1.050503 0.0465,2.115005 0.056,3.193509 0.009,1.079502 0.009,2.219005 0,3.420009 -0.0095,1.200503 -0.013,3.425508 -0.013,3.425508 -4.99e-4,0.298501 0.242501,0.538502 0.540502,0.534502 l 3.926511,-0.067 c 0.2975,-0.0051 0.546501,-0.254 0.552501,-0.551501 l 0.158501,-7.732521 c 0,-0.263501 0.06551,-0.530002 0.196501,-0.802003 0.1305,-0.2725 0.440501,-0.4085 0.928502,-0.4085 0.2255,0 0.404001,0.08349 0.535501,0.2535 0.130001,0.169 0.238501,0.394001 0.323001,0.675502 0.085,0.281001 0.141001,0.605002 0.169501,0.970502 0.0275,0.365502 0.0415,0.745502 0.0415,1.139504 0,0.976002 0,1.773004 0,2.392506 0,0.619001 -0.0051,1.158504 -0.014,1.618004 -0.0095,0.461502 -0.0235,0.892503 -0.042,1.295004 -0.019,0.404001 -0.036,0.851503 -0.036,0.851503 -0.01052,0.298 0.223,0.547 0.521001,0.555001 l 4.609513,0.0995 c -0.038,-0.281001 -0.0705,-0.628002 -0.0985,-1.041003 -0.028,-0.412501 -0.0475,-0.835003 -0.0565,-1.267003 -0.009,-0.430501 -0.0185,-0.844002 -0.028,-1.238003 -0.01,-0.394001 -0.014,-0.713502 -0.014,-0.957504 0,-1.800504 0.0745,-3.141508 0.2255,-4.024511 0.15,-0.882002 0.543502,-1.323503 1.181503,-1.323503 0.394001,0 0.699002,0.1645 0.915503,0.493502 0.215,0.328001 0.323501,0.877001 0.323501,1.646004 0,0.732502 -0.0895,1.666004 -0.268001,2.801008 -0.178001,1.135503 -0.738003,3.594509 -0.738003,3.594509 -0.066,0.290501 0.121501,0.558002 0.418002,0.597002 l 4.641013,0.579501 c 0.2055,-1.163003 0.379501,-2.288506 0.520501,-3.378008 0.1405,-1.087003 0.2115,-2.148006 0.2115,-3.181009 0,-1.106504 -0.08,-2.124506 -0.239,-3.054009 -0.160501,-0.927002 -0.457001,-1.725004 -0.888503,-2.391006 z m 21.432058,2.392506 c -0.1595,-0.928503 -0.454502,-1.726504 -0.885503,-2.392506 -0.4315,-0.665502 -1.023502,-1.186003 -1.774004,-1.562005 -0.751002,-0.375001 -1.725505,-0.562501 -2.926508,-0.562501 -0.900002,0 -1.674005,0.1965 -2.322507,0.590501 -0.1655,0.101498 -0.327,0.208001 -0.484001,0.322502 -0.147,0.1085 -0.2885,0.223501 -0.421501,0.3485 -0.1095,0.102497 -0.251501,0.350002 -0.426501,0.299502 -0.1235,-0.0365 -0.2325,-0.175001 -0.3055,-0.275501 -0.178001,-0.244501 -0.408002,-0.452002 -0.655503,-0.623502 -0.4695,-0.328501 -1.061002,-0.494001 -1.773004,-0.494001 -0.358001,0 -0.694502,0.057 -1.013503,0.1695 -0.319001,0.1125 -0.605502,0.258501 -0.858003,0.436001 -0.254,0.179 -0.460501,0.366501 -0.619501,0.563001 -0.0255,0.03201 -0.051,0.063 -0.0785,0.092 -0.0405,0.042 -0.103497,0.099 -0.167,0.083 -0.0715,-0.0165 -0.114001,-0.124002 -0.129501,-0.187001 -0.029,-0.111 -0.032,-0.228501 -0.043,-0.342501 -0.015,-0.147501 -0.0295,-0.295502 -0.046,-0.442502 -0.03101,-0.297 -0.300001,-0.534001 -0.597002,-0.527001 l -4.046011,0.100003 c 0.0555,1.144503 0.0985,2.242006 0.1265,3.29351 0.028,1.050502 0.0465,2.115005 0.0565,3.193508 0.009,1.079503 0.009,2.220006 0,3.420509 -0.0095,1.201004 -0.0135,3.425009 -0.0135,3.425009 -9.99e-4,0.298501 0.242501,0.539502 0.541503,0.534502 l 3.92701,-0.0665 c 0.2975,-0.0055 0.546001,-0.253001 0.552501,-0.552002 l 0.157501,-7.731521 c 0,-0.2635 0.0665,-0.530001 0.197501,-0.802502 0.1305,-0.272501 0.4405,-0.408501 0.928501,-0.408501 0.225001,0 0.403502,0.0835 0.535002,0.253001 0.13,0.1695 0.239001,0.394001 0.323501,0.675502 0.08451,0.2815 0.139501,0.606001 0.1685,0.971002 0.0285,0.366001 0.04251,0.746003 0.04251,1.140003 0,0.976503 0,1.773005 0,2.392506 0,0.618002 -0.0051,1.158004 -0.014,1.617504 -0.0095,0.461002 -0.024,0.892003 -0.04251,1.295504 -0.0185,0.404001 -0.036,0.850503 -0.036,0.850503 -0.0115,0.298501 0.2225,0.547502 0.521502,0.555001 0.0031,0 0.006,0 0.0085,0 0.1495,0.0031 0.297,0.0065 0.447501,0.01 0.321,0.006 0.642501,0.014 0.964502,0.021 0.393002,0.008 0.786502,0.0165 1.180503,0.0255 0.371001,0.008 0.742503,0.0155 1.113004,0.0245 0.228001,0.0051 0.494501,0.05501 0.718502,0.0031 0.189,-0.0435 0.147,-0.193501 0.1415,-0.344502 -0.0055,-0.229501 -0.0475,-0.452001 -0.0645,-0.680501 -0.027,-0.412502 -0.0465,-0.835003 -0.0565,-1.266504 -0.009,-0.430501 -0.018,-0.844502 -0.028,-1.238503 -0.0095,-0.394001 -0.0145,-0.712503 -0.0145,-0.957003 0,-1.801005 0.0755,-3.142009 0.225,-4.025011 0.150501,-0.881502 0.544002,-1.323003 1.182504,-1.323003 0.394001,0 0.699002,0.165 0.915502,0.492501 0.215001,0.328001 0.324001,0.877503 0.324001,1.647004 0,0.731502 -0.0885,1.665505 -0.268001,2.800508 -0.1785,1.136503 -0.738001,3.59401 -0.738001,3.59401 -0.0665,0.291001 0.121,0.559502 0.417501,0.597001 0.1275,0.015 0.253,0.0315 0.3785,0.047 0.635002,0.08 1.268504,0.159001 1.903005,0.238501 0.402501,0.05 0.805502,0.093 1.208504,0.14 0.2445,0.028 0.486002,0.082 0.730002,0.110501 0.150501,0.016 0.342501,0.093 0.464001,-0.04151 0.116,-0.129501 0.109,-0.366001 0.136001,-0.525001 0.041,-0.241501 0.0655,-0.484001 0.0855,-0.727002 0.0295,-0.372001 0.0775,-0.737002 0.129501,-1.107003 0.045,-0.310501 0.0855,-0.621502 0.126,-0.933003 0.1405,-1.088002 0.211,-2.148505 0.211,-3.180508 -0.001,-1.107503 -0.081,-2.125506 -0.241,-3.054009 z"
     style="fill:#aa0000;stroke-width:0.50000137"
     id="path6"
     inkscape:connector-curvature="0" />
</svg>
