<?xml version="1.0" encoding="UTF-8" standalone="no"?>
<svg
   xmlns:dc="http://purl.org/dc/elements/1.1/"
   xmlns:cc="http://creativecommons.org/ns#"
   xmlns:rdf="http://www.w3.org/1999/02/22-rdf-syntax-ns#"
   xmlns:svg="http://www.w3.org/2000/svg"
   xmlns="http://www.w3.org/2000/svg"
   xmlns:sodipodi="http://sodipodi.sourceforge.net/DTD/sodipodi-0.dtd"
   xmlns:inkscape="http://www.inkscape.org/namespaces/inkscape"
   version="1.1"
   id="svg13"
   sodipodi:docname="sega32x.svg"
   inkscape:version="0.92.5 (2060ec1f9f, 2020-04-08)"
   width="88.871117"
   height="34.000011">
  <metadata
     id="metadata19">
    <rdf:RDF>
      <cc:Work
         rdf:about="">
        <dc:format>image/svg+xml</dc:format>
        <dc:type
           rdf:resource="http://purl.org/dc/dcmitype/StillImage" />
        <dc:title></dc:title>
      </cc:Work>
    </rdf:RDF>
  </metadata>
  <defs
     id="defs17" />
  <sodipodi:namedview
     pagecolor="#ffffff"
     bordercolor="#666666"
     borderopacity="1"
     objecttolerance="10"
     gridtolerance="10"
     guidetolerance="10"
     inkscape:pageopacity="0"
     inkscape:pageshadow="2"
     inkscape:window-width="1440"
     inkscape:window-height="837"
     id="namedview15"
     showgrid="false"
     inkscape:zoom="1.3871078"
     inkscape:cx="150.72528"
     inkscape:cy="-6.2566237"
     inkscape:window-x="0"
     inkscape:window-y="0"
     inkscape:window-maximized="1"
     inkscape:current-layer="svg13"
     fit-margin-top="0"
     fit-margin-left="0"
     fit-margin-right="0"
     fit-margin-bottom="0" />
  <path
     d="M 11.75737,33.704357 C 10.797967,33.645787 9.8365428,33.521907 8.8885846,33.354597 5.0324549,32.672915 3.2388748,31.760976 2.1626595,31.337829 1.6482844,31.135176 1.1456915,30.943968 0.58654433,31.149314 c -0.063287,0.02323 -0.13869275,0.02188 -0.20837576,0.02323 -0.35481106,0.0037 -0.46455338,-0.13398 -0.30970225,-0.452098 C 0.25193124,30.34207 0.46804955,29.977834 0.68517777,29.616963 1.2739487,28.639045 1.8704622,27.665166 2.4646192,26.68994 c 0.027267,-0.04578 0.058574,-0.08786 0.085168,-0.13398 0.1215245,-0.203326 0.2541578,-0.391167 0.5315433,-0.351781 0.2608905,0.03602 0.3177815,0.251801 0.3719794,0.455464 0.1195047,0.445366 0.3904941,0.776949 0.7466517,1.052651 0.843602,0.654078 1.7959365,1.094057 2.7953995,1.442809 1.2957,0.453108 2.6294395,0.736889 3.9847239,0.949641 1.604056,0.252475 3.216527,0.284792 4.827316,0.191208 1.365383,-0.07945 2.709894,-0.326534 3.997515,-0.83081 0.783345,-0.306673 1.376829,-0.847305 1.853501,-1.509462 0.630513,-0.877602 0.372652,-2.083758 -0.488118,-2.769479 -1.168116,-0.932136 -2.527103,-1.300749 -3.966545,-1.548174 -1.294354,-0.221842 -2.586351,-0.197941 -3.882051,-0.181109 -0.608632,0.0077 -2.062549,0.06531 -2.619677,0.583048 -0.204673,0.181782 -0.368276,0.195247 -0.465563,0.107386 -0.09796,-0.08887 -0.102,-0.229247 -0.10301,-0.351108 -0.01077,-1.267423 -0.01178,-2.534846 -0.0037,-3.800922 0.003,-0.414732 0.196257,-0.539959 0.516732,-0.314752 0.405306,0.283782 0.855384,0.408336 1.325324,0.469267 0.779978,0.100316 3.326606,0.01144 3.84704,-0.05622 1.390967,-0.182455 1.269106,-0.160574 2.081065,-0.378376 0.868849,-0.232949 1.697976,-0.844275 2.130886,-1.349224 0.0064,-0.0084 0.0138,-0.01649 0.02053,-0.02457 0.603247,-0.727801 0.400594,-1.566017 -0.160237,-2.16556 -0.539286,-0.576652 -1.216254,-0.944592 -1.970312,-1.167443 -1.236453,-0.36491 -2.502866,-0.565206 -3.786783,-0.504612 -2.32647,0.109405 -4.6064853,0.4659 -6.7094309,1.548848 -0.4813851,0.249108 -0.9331464,0.560493 -1.3775018,0.873562 -0.3793853,0.266613 -0.5705928,0.657107 -0.581365,1.12772 -0.00539,0.244732 0.033327,0.523801 -0.2568509,0.630514 C 4.9163165,18.792194 4.765505,18.5377 4.5978618,18.368037 3.5273692,17.278356 2.4609162,16.183626 1.3934534,15.090579 c -0.06194,-0.06295 -0.130277,-0.122535 -0.1753858,-0.19693 -0.129267,-0.209049 -0.049822,-0.382415 0.1976035,-0.411366 0.2763756,-0.03164 0.5729492,0.01212 0.8298001,-0.0717 0.3797219,-0.124217 0.7348696,-0.326533 1.0960767,-0.503939 0.9607502,-0.471623 1.896253,-1.003166 2.882924,-1.410155 1.5623132,-0.643979 3.2074382,-0.990037 4.8875731,-1.19875 1.607422,-0.200633 4.444564,-0.283108 6.497351,0.02054 1.371443,0.208039 2.73144,0.483741 4.004922,1.052314 1.123344,0.501583 2.220094,1.06174 3.058646,2.007679 0.60594,0.683364 1.013265,1.447858 1.149602,2.374945 0.130613,0.888374 -0.01481,1.700669 -0.394534,2.497479 -0.260554,0.549048 -0.651385,0.903859 -1.188651,1.227027 -1.053324,0.633206 -1.677441,0.790751 -1.810748,0.872216 -0.212415,0.12994 -0.221505,0.301959 -0.0054,0.42584 0.194574,0.111426 0.418098,0.177406 0.635226,0.245069 1.268096,0.396554 2.35744,1.093384 3.264666,2.049758 0.664176,0.697166 1.05669,1.533699 1.18865,2.521717 0.135327,1.011245 -0.101663,1.906015 -0.538949,2.785637 -0.338989,0.684375 -0.902513,1.165423 -1.49465,1.602372 -1.199086,0.884335 -2.532826,1.481858 -3.964189,1.906352 -1.064433,0.315423 -2.143678,0.529193 -3.236725,0.674283 -3.736288,0.409 -5.644997,0.19659 -6.519906,0.1434 z m 43.561643,0.17202 c -0.420455,-0.44368 -1.551205,-0.48374 -1.726927,-0.48374 -7.918616,0 -15.837568,-6.7e-4 -23.75652,0 -0.805562,0 -0.950314,0.0986 -0.851008,-0.923049 0.161248,-1.672392 0.774593,-3.226626 1.986808,-4.427395 0.232276,-0.236317 0.310039,-0.316099 0.840572,-0.798157 2.248034,-2.041005 6.727608,-3.677041 6.727608,-3.677041 0,0 3.748407,-1.386928 5.853373,-2.217064 0.945265,-0.372316 1.868649,-0.802196 2.710905,-1.386254 3.052923,-2.410629 1.467719,-4.803752 -2.558074,-5.361552 -2.818964,-0.403623 -5.387809,0.285464 -7.762418,1.802669 -0.310375,0.198276 -0.571939,0.396217 -0.871205,0.611325 -0.530534,0.449742 -0.985998,0.973879 -1.085305,1.553897 -0.05319,0.312396 -0.002,0.528177 0.004,0.579009 0.02053,0.162594 0.06968,0.420118 -0.05016,0.537266 -0.144752,0.141722 -0.445028,-3.37e-4 -0.578335,-0.126574 -1.223997,-1.15869 -2.449341,-2.314688 -3.674348,-3.471022 -0.07675,-0.07271 -0.217801,-0.2279 -0.217801,-0.2279 0,0 -0.134317,-0.155188 -0.138693,-0.262237 -0.0054,-0.119505 0.111762,-0.23194 0.252475,-0.276039 0.667543,-0.123544 0.975562,-0.162594 1.375818,-0.456811 1.078572,-0.788394 2.204272,-1.494313 3.408072,-2.081738 1.607758,-0.786037 3.299338,-1.253284 5.070701,-1.49263 1.362016,-0.183128 5.362562,-0.807582 10.035699,1.273482 1.232077,0.541643 2.289104,1.308492 3.086251,2.39043 0.471959,0.63994 2.248707,4.151021 -1.372789,6.954163 -1.295027,1.040532 -2.840172,1.683837 -4.402148,2.230193 -1.33677,0.467919 -2.317381,0.818354 -4.504485,1.452234 -1.660947,0.49384 -2.852964,0.881305 -4.753257,1.785164 -1.511481,0.717701 -2.504212,1.591264 -2.504212,1.591264 0,0 -0.49485,0.382078 -0.398573,0.681345 0.08214,0.25988 0.49586,0.233959 0.738909,0.234296 5.846977,0.0037 11.693954,0.0024 17.541267,0.0027 0.605266,0 1.19168,-0.04242 1.653204,-0.518078 0.068,-0.06968 0.245069,-0.106712 0.325861,-0.06665 0.07675,0.0377 0.130276,0.19794 0.131286,0.303643 0.0091,1.372452 0.0094,2.774191 0.0017,4.146311 -0.0013,0.1333 -0.04511,0.1811 -0.110753,0.21982 -0.09998,0.0579 -0.312395,0.0276 -0.427523,-0.0953 z m 7.910199,-22.572581 c 1.245878,0 2.493103,0 3.739655,10e-4 0.123544,0 0.247425,-0.0094 0.368613,0.0047 0.278732,0.03333 0.321148,0.151148 0.146435,0.378039 -0.311722,0.406989 -0.309029,0.451088 0.04578,0.827107 0.01246,0.01245 0.02525,0.02457 0.03703,0.03669 1.740055,1.763283 3.480111,3.526566 5.219829,5.289513 0.08685,0.08786 0.168317,0.183464 0.26796,0.253821 0.174376,0.125564 0.361544,0.12792 0.533227,-0.0098 0.09594,-0.07675 0.180098,-0.167643 0.266613,-0.255841 1.718511,-1.735679 3.436348,-3.471021 5.154523,-5.20771 0.0616,-0.06295 0.126237,-0.123208 0.181445,-0.191544 0.229247,-0.285129 0.223524,-0.385445 0.0098,-0.691444 -0.192554,-0.259881 -0.192554,-0.419782 0.19996,-0.429207 0.08618,-0.0024 0.174713,-0.0044 0.262574,-0.0044 2.529123,0 5.058246,-10e-4 7.586022,6.74e-4 0.157207,0 0.318118,-0.002 0.470276,0.03131 0.06463,0.01448 0.142732,0.111425 0.153841,0.181108 0.01077,0.068 -0.03703,0.187505 -0.09358,0.215782 -0.170673,0.08618 -0.353464,0.1599 -0.540295,0.200296 -0.707939,0.155525 -1.284592,0.505623 -1.796274,1.02774 -2.201242,2.246688 -4.425039,4.471495 -6.637054,6.708421 -0.554434,0.561503 -1.100452,1.134452 -1.644115,1.707738 -0.344375,0.361881 -0.345048,0.5339 0.0037,0.890394 0.612672,0.626811 1.242176,1.235443 1.851818,1.864946 0.451761,0.465227 0.871879,0.962097 1.327007,1.423958 1.210195,1.226017 2.435202,2.436885 3.64708,3.660882 0.815662,0.823741 1.623918,1.654888 2.426114,2.491757 0.461187,0.483405 0.999126,0.819364 1.647818,0.986334 0.235979,0.05925 0.467583,0.149802 0.690097,0.249109 0.06093,0.0276 0.124218,0.141728 0.115129,0.206358 -0.0098,0.0663 -0.09628,0.15115 -0.166297,0.17337 -0.113445,0.0363 -0.241366,0.0367 -0.36289,0.0367 -2.581638,0.002 -5.162602,10e-4 -7.74424,0 -0.105029,0 -0.213762,0.002 -0.312732,-0.0252 -0.164613,-0.0478 -0.22689,-0.14643 -0.125227,-0.31711 0.08517,-0.143405 0.220158,-0.306672 0.205346,-0.447721 -0.01717,-0.149128 -0.170337,-0.295227 -0.289505,-0.417761 -2.002965,-2.046728 -4.008961,-4.09009 -6.014283,-6.134461 -0.07406,-0.07507 -0.148455,-0.150475 -0.224197,-0.223188 -0.442672,-0.429544 -0.605266,-0.43493 -1.048612,0.0077 -1.282234,1.277521 -2.565816,2.555043 -3.836605,3.844684 -0.825087,0.837879 -1.629303,1.696629 -2.441598,2.548311 -0.305663,0.320474 -0.305326,0.340672 -0.07339,0.766513 0.132633,0.242383 0.08281,0.349093 -0.194237,0.389493 -0.119841,0.0175 -0.244732,0.0101 -0.367603,0.0101 -2.49344,6.8e-4 -4.987217,0.004 -7.480993,-0.004 -0.223188,-10e-4 -0.59887,0.0596 -0.617721,-0.21375 -0.03972,-0.28547 0.304652,-0.299608 0.506632,-0.34741 0.908236,-0.212752 1.602036,-0.731167 2.243995,-1.390967 2.046728,-2.103619 4.128129,-4.172901 6.187313,-6.262718 0.640275,-0.649702 1.251264,-1.325997 1.884134,-1.982431 0.243049,-0.253485 0.513365,-0.478692 0.76281,-0.725781 0.520434,-0.518078 0.522118,-0.655761 0.02121,-1.162393 -1.517878,-1.538413 -3.039795,-3.072785 -4.556663,-4.612881 -1.233423,-1.249918 -2.471895,-2.496469 -3.688823,-3.762882 -0.469266,-0.486771 -1.019661,-0.791087 -1.667679,-0.942236 -0.119169,-0.02794 -0.236653,-0.06531 -0.354138,-0.101326 -0.166634,-0.05151 -0.37299,-0.09123 -0.349762,-0.319128 0.02289,-0.231603 0.226217,-0.231603 0.407326,-0.230594 0.105029,0 0.210732,-0.001 0.316098,-0.001 1.246888,0 2.49445,0 3.741338,0 z"
     id="path23"
     style="fill:#aa0000;fill-opacity:1;stroke-width:0.33663288"
     inkscape:connector-curvature="0" />
  <g
     transform="matrix(0.42387803,0,0,0.42838285,-7.9530945,0)"
     id="g11"
     style="fill:#aa0000">
    <path
       d="m 109.385,12.379 c 0,0.988 0.805,1.771 1.771,1.761 h 7.233 v -2.203 h -6.793 V 11.32 h 5.353 V 9.128 h -7.553 z"
       id="path11"
       style="fill:#aa0000;fill-rule:evenodd"
       inkscape:connector-curvature="0" />
    <path
       d="m 109.396,5.118 c 0,-0.911 0.784,-1.756 1.76,-1.752 h 7.233 v 2.192 h -6.793 v 0.617 h 5.353 v 2.222 h -7.564 z"
       id="path13"
       style="fill:#aa0000;fill-rule:evenodd"
       inkscape:connector-curvature="0" />
    <path
       d="m 110.898,0.411 c -2.455,0 -4.446,1.991 -4.446,4.445 v 7.781 c 0,2.455 1.991,4.445 4.446,4.445 h 7.493 v -2.191 h -7.307 c -1.289,0 -2.432,-1.222 -2.432,-2.51 V 5.11 c 0,-1.289 1.143,-2.48 2.432,-2.48 h 7.307 V 0.408 h -7.493 z"
       id="path29"
       style="fill:#aa0000;fill-rule:evenodd"
       inkscape:connector-curvature="0" />
    <path
       d="M 125.084,11.997 V 5.558 h 7.145 V 3.366 h -7.546 c -0.976,-0.004 -1.76,0.841 -1.76,1.752 l -0.009,7.261 c 0,0.988 0.803,1.771 1.769,1.761 h 4.603 l -0.012,-5.051 h -3.463 v 2.172 h 1.28 v 0.735 h -2.007 z"
       id="path31"
       style="fill:#aa0000;fill-rule:evenodd"
       inkscape:connector-curvature="0" />
    <path
       d="m 104.333,0.39 h -7.178 c -3.024,0 -5.477,2.452 -5.477,5.476 0,3.025 2.453,5.418 5.477,5.392 h 2.187 v 0.739 h -7.616 v 2.144 h 7.368 c 1.385,0 2.509,-1.124 2.509,-2.507 0,-1.385 -1.124,-2.489 -2.509,-2.489 L 97.185,9.137 c -1.797,0 -3.254,-1.457 -3.254,-3.253 0,-1.797 1.456,-3.254 3.254,-3.254 h 7.153 z"
       id="path33"
       style="fill:#aa0000;fill-rule:evenodd"
       inkscape:connector-curvature="0" />
    <path
       d="m 104.333,5.499 h -7.461 v 0.735 l 2.238,0.004 c 3.026,0 5.477,2.393 5.477,5.417 0,3.025 -2.451,5.424 -5.477,5.424 l -7.384,-0.015 v -2.179 h 7.368 c 1.797,0 3.254,-1.456 3.254,-3.253 0,-1.796 -1.457,-3.234 -3.254,-3.234 L 97.185,8.391 c -1.385,0 -2.509,-1.124 -2.509,-2.509 0,-1.385 1.124,-2.508 2.509,-2.508 h 7.153 z"
       id="path35"
       style="fill:#aa0000;fill-rule:evenodd"
       inkscape:connector-curvature="0" />
    <path
       d="m 140.576,2.991 c -0.089,-0.209 -0.12,-0.259 -0.36,-0.259 -0.241,0 -0.299,0.125 -0.391,0.334 l -4.55,14.016 2.394,0.003 2.574,-7.77 0.847,2.624 h -1.699 v 2.211 h 4.835 z"
       id="path37"
       style="fill:#aa0000;fill-rule:evenodd"
       inkscape:connector-curvature="0" />
    <path
       d="m 124.425,17.084 c -2.455,0 -4.447,-1.991 -4.447,-4.445 V 4.858 c 0,-2.455 1.992,-4.445 4.447,-4.445 h 7.804 v 2.222 h -7.616 c -1.291,0 -2.434,1.191 -2.434,2.48 v 7.27 c 0,1.289 1.142,2.51 2.434,2.51 h 5.395 V 8.359 h -4.195 V 6.177 h 6.425 V 16.572 L 136.815,2.409 C 137.307,1.006 138.643,0 140.216,0 c 1.604,0 2.966,1.05 3.429,2.502 l 4.753,14.583 h -9.007 v -2.191 h 5.851 L 141.275,2.731 c -0.232,-0.669 -0.646,-0.748 -1.059,-0.748 -0.432,0 -0.831,0.177 -1.056,0.788 l -4.657,14.314 h -10.078 z"
       id="path39"
       style="fill:#aa0000;fill-rule:evenodd"
       inkscape:connector-curvature="0" />
  </g>
</svg>
