<?xml version="1.0" encoding="UTF-8" standalone="no"?>
<svg
   xmlns:dc="http://purl.org/dc/elements/1.1/"
   xmlns:cc="http://creativecommons.org/ns#"
   xmlns:rdf="http://www.w3.org/1999/02/22-rdf-syntax-ns#"
   xmlns:svg="http://www.w3.org/2000/svg"
   xmlns="http://www.w3.org/2000/svg"
   xmlns:sodipodi="http://sodipodi.sourceforge.net/DTD/sodipodi-0.dtd"
   xmlns:inkscape="http://www.inkscape.org/namespaces/inkscape"
   version="1.1"
   id="svg6"
   sodipodi:docname="sports.svg"
   inkscape:version="0.92.5 (2060ec1f9f, 2020-04-08)"
   width="218.09003"
   height="34">
  <metadata
     id="metadata12">
    <rdf:RDF>
      <cc:Work
         rdf:about="">
        <dc:format>image/svg+xml</dc:format>
        <dc:type
           rdf:resource="http://purl.org/dc/dcmitype/StillImage" />
        <dc:title></dc:title>
      </cc:Work>
    </rdf:RDF>
  </metadata>
  <defs
     id="defs10" />
  <sodipodi:namedview
     pagecolor="#ffffff"
     bordercolor="#666666"
     borderopacity="1"
     objecttolerance="10"
     gridtolerance="10"
     guidetolerance="10"
     inkscape:pageopacity="0"
     inkscape:pageshadow="2"
     inkscape:window-width="1440"
     inkscape:window-height="837"
     id="namedview8"
     showgrid="false"
     inkscape:zoom="0.50000001"
     inkscape:cx="-466.78118"
     inkscape:cy="-347.24441"
     inkscape:window-x="0"
     inkscape:window-y="0"
     inkscape:window-maximized="1"
     inkscape:current-layer="svg6"
     fit-margin-top="0"
     fit-margin-left="0"
     fit-margin-right="0"
     fit-margin-bottom="0" />
  <text
     xml:space="preserve"
     style="font-style:italic;font-variant:normal;font-weight:normal;font-stretch:normal;font-size:40px;line-height:1.25;font-family:'Changa One';-inkscape-font-specification:'Changa One Italic';letter-spacing:0px;word-spacing:0px;fill:#000000;fill-opacity:1;stroke:none"
     x="104.45897"
     y="145.03073"
     id="text3045"><tspan
       sodipodi:role="line"
       id="tspan3043"
       x="104.45897"
       y="183.25107" /></text>
  <text
     xml:space="preserve"
     style="font-style:italic;font-variant:normal;font-weight:normal;font-stretch:normal;font-size:40px;line-height:1.25;font-family:'Changa One';-inkscape-font-specification:'Changa One Italic';letter-spacing:0px;word-spacing:0px;fill:#000000;fill-opacity:1;stroke:none"
     x="55.011223"
     y="59.899033"
     id="text3049"><tspan
       sodipodi:role="line"
       id="tspan3047"
       x="55.011223"
       y="98.119377" /></text>
  <g
     aria-label="SPORTS"
     style="font-style:italic;font-variant:normal;font-weight:normal;font-stretch:normal;font-size:49.19757843px;line-height:1.25;font-family:'Motter Tektura';-inkscape-font-specification:'Motter Tektura Italic';letter-spacing:0px;word-spacing:0px;fill:#aa0000;fill-opacity:1;stroke:none;stroke-width:1.22993946"
     id="text3740"
     transform="matrix(1.0551007,0,0,1.0551007,-9.0250891,-0.07951572)">
    <path
       d="m 45.424639,31.02064 2.755064,-8.1176 q 4.132597,1.131544 7.576427,1.131544 3.443831,0 5.559327,-0.295186 l 0.39358,-2.459879 -4.083399,-0.39358 q -4.67377,-0.442778 -6.641673,-2.115496 -1.918705,-1.672718 -1.918705,-4.722968 0,-1.328334 0.295185,-2.951854 1.131544,-6.2972903 4.083399,-8.6587741 3.001052,-2.36148374 9.249145,-2.36148374 6.248092,0 11.020257,1.22993944 l -2.558274,7.8716126 q -4.280189,-0.7379637 -6.887661,-0.7379637 -2.607471,0 -4.427782,0.2459879 l -0.39358,2.4106816 3.296237,0.344383 q 5.018153,0.541173 7.133649,2.410681 2.115496,1.820311 2.115496,4.919758 0,3.148645 -1.377532,6.49408 -0.688766,1.721916 -1.525125,2.902657 -0.787161,1.131545 -2.066298,1.967904 -1.22994,0.787161 -2.263089,1.229939 -1.033149,0.393581 -2.607472,0.590371 -2.312286,0.344383 -5.657721,0.344383 -6.1005,0 -11.069455,-1.279137 z"
       style="font-style:italic;font-variant:normal;font-weight:normal;font-stretch:normal;font-family:'Changa One';-inkscape-font-specification:'Changa One Italic';fill:#aa0000;stroke-width:1.22993946"
       id="path3742"
       inkscape:connector-curvature="0" />
    <path
       d="m 91.325923,24.132979 h -6.1005 l -1.279137,7.428834 h -9.34754 L 80.01048,0.81332684 h 14.759274 q 8.363586,0 8.363586,7.77321736 0,3.6898188 -1.03315,6.6908708 -1.03315,2.951855 -2.312283,4.722967 -1.22994,1.721916 -3.443831,2.951855 -2.164693,1.180742 -5.018153,1.180742 z M 87.93129,8.6849394 86.602956,16.261366 h 2.164693 q 1.672718,0 2.509077,-0.344383 0.885556,-0.39358 1.131544,-1.721915 0.639568,-3.640621 0.639568,-3.985004 0,-0.9347537 -0.737963,-1.2299391 -0.737964,-0.2951855 -2.213891,-0.2951855 z"
       style="font-style:italic;font-variant:normal;font-weight:normal;font-stretch:normal;font-family:'Changa One';-inkscape-font-specification:'Changa One Italic';fill:#aa0000;stroke-width:1.22993946"
       id="path3744"
       inkscape:connector-curvature="0" />
    <path
       d="m 115.03915,11.095621 -2.26309,12.79137 h 3.88661 q 1.91871,0 2.85346,-0.442778 0.93476,-0.491976 1.22994,-2.164694 l 2.26309,-12.7913699 h -3.93581 q -1.8695,0 -2.80426,0.4919758 -0.93475,0.4427782 -1.22994,2.1154961 z m 5.65772,-11.02025784 q 6.2481,0 8.90477,2.45987894 2.65666,2.4106813 2.65666,7.4780319 0,5.067351 -1.62352,10.626677 -1.57432,5.510129 -5.06735,8.609576 -3.44383,3.05025 -10.1347,3.05025 -6.64167,0 -9.29834,-2.410681 -2.65667,-2.459879 -2.65667,-7.52723 0,-2.410681 0.68877,-6.346487 0.68876,-3.985004 1.82031,-6.8384638 1.13154,-2.9026572 3.05025,-5.018153 3.68982,-4.08339904 11.65982,-4.08339904 z"
       style="font-style:italic;font-variant:normal;font-weight:normal;font-stretch:normal;font-family:'Changa One';-inkscape-font-specification:'Changa One Italic';fill:#aa0000;stroke-width:1.22993946"
       id="path3746"
       inkscape:connector-curvature="0" />
    <path
       d="m 159.26773,31.561813 h -10.28229 l -2.26309,-9.150749 h -2.0171 l -1.57432,9.150749 h -9.34754 l 5.41173,-30.74848616 h 14.75927 q 8.41279,0 8.41279,7.52722946 0,3.0994477 -0.93476,5.9037097 -1.72191,5.313338 -5.41173,7.084451 z m -12.1518,-22.8768736 -1.08235,6.1496976 h 2.1647 q 1.67271,0 2.50907,-0.344383 0.88556,-0.393581 1.18074,-2.115496 0.34439,-1.771113 0.34439,-2.164694 0,-0.9839513 -0.78716,-1.2299391 -0.73797,-0.2951855 -2.45988,-0.2951855 z"
       style="font-style:italic;font-variant:normal;font-weight:normal;font-stretch:normal;font-family:'Changa One';-inkscape-font-specification:'Changa One Italic';fill:#aa0000;stroke-width:1.22993946"
       id="path3748"
       inkscape:connector-curvature="0" />
    <path
       d="m 187.90068,8.6849394 h -6.78927 l -3.985,22.8768736 h -9.34754 l 3.985,-22.8768736 h -6.74006 l 1.42673,-7.87161256 h 22.87687 z"
       style="font-style:italic;font-variant:normal;font-weight:normal;font-stretch:normal;font-family:'Changa One';-inkscape-font-specification:'Changa One Italic';fill:#aa0000;stroke-width:1.22993946"
       id="path3750"
       inkscape:connector-curvature="0" />
    <path
       d="m 186.96584,31.02064 2.75506,-8.1176 q 4.1326,1.131544 7.57643,1.131544 3.44383,0 5.55933,-0.295186 l 0.39358,-2.459879 -4.0834,-0.39358 q -4.67377,-0.442778 -6.64168,-2.115496 -1.9187,-1.672718 -1.9187,-4.722968 0,-1.328334 0.29518,-2.951854 1.13155,-6.2972903 4.0834,-8.6587741 3.00106,-2.36148374 9.24915,-2.36148374 6.24809,0 11.02026,1.22993944 l -2.55828,7.8716126 q -4.28019,-0.7379637 -6.88766,-0.7379637 -2.60747,0 -4.42778,0.2459879 l -0.39358,2.4106816 3.29624,0.344383 q 5.01815,0.541173 7.13364,2.410681 2.1155,1.820311 2.1155,4.919758 0,3.148645 -1.37753,6.49408 -0.68877,1.721916 -1.52513,2.902657 -0.78716,1.131545 -2.0663,1.967904 -1.22994,0.787161 -2.26308,1.229939 -1.03315,0.393581 -2.60748,0.590371 -2.31228,0.344383 -5.65772,0.344383 -6.1005,0 -11.06945,-1.279137 z"
       style="font-style:italic;font-variant:normal;font-weight:normal;font-stretch:normal;font-family:'Changa One';-inkscape-font-specification:'Changa One Italic';fill:#aa0000;stroke-width:1.22993946"
       id="path3752"
       inkscape:connector-curvature="0" />
  </g>
  <path
     style="fill:#aa0000;fill-rule:evenodd;stroke:none;stroke-width:0.07386436"
     inkscape:connector-curvature="0"
     d="m 20.533061,4.1066974 c -0.554943,0.022579 -1.808126,0.1076973 -1.857985,0.1261602 -0.0441,0.016358 0.05576,0.087753 0.45759,0.3272925 0.282679,0.1684848 0.547261,0.3287683 0.587887,0.3561777 0.04063,0.027496 0.273298,0.1806734 0.517051,0.3405876 0.60746,0.3985716 0.981289,0.671428 1.680488,1.2267412 1.710404,1.358286 3.134657,2.9753279 4.3871,4.9808964 0.264805,0.423907 0.3448,0.534254 0.369618,0.509663 0.130739,-0.130154 0.163093,-3.9606086 0.04476,-5.302283 C 26.62133,5.5582036 25.802913,4.5630305 24.74318,4.268685 24.236693,4.1280479 22.062347,4.0443585 20.533058,4.1066974 M 15.229596,4.8824211 C 14.394855,5.1170924 13.550289,5.4224438 12.576462,5.8416975 11.209749,6.4301736 9.3912825,7.5700537 8.1238434,8.6328882 7.6618216,9.0203001 7.4947407,9.162496 7.4362402,9.2180386 7.4049976,9.2476869 7.2411639,9.3973825 7.0720884,9.5507224 3.8929654,12.433798 1.6360396,15.966359 0.74966763,19.446626 c -0.14026919,0.550514 -0.14034294,0.480272 0.001456,0.832011 0.55516447,1.377124 2.13844807,4.02443 2.27812497,3.809334 0.015437,-0.02373 0.1096888,-0.182738 0.2094795,-0.353366 0.6170627,-1.055009 1.5725729,-2.541529 2.0314181,-3.160433 L 5.4497136,20.331967 4.9417482,19.803987 C 4.1949795,19.027741 4.1178649,18.78532 4.5523353,18.579165 c 0.2425704,-0.115078 0.2983383,-0.08316 0.9658505,0.552725 0.2710089,0.258235 0.4780507,0.433953 0.493119,0.41874 0.014254,-0.01443 0.2312693,-0.284969 0.4821865,-0.60111 L 6.9496777,18.374638 6.4140135,17.819401 C 5.6532839,17.030897 5.5772777,16.823337 5.9584914,16.576108 c 0.2424968,-0.157256 0.3577989,-0.09344 1.0463628,0.578807 l 0.538767,0.525984 0.2309742,-0.272481 c 0.1271203,-0.149876 0.3388154,-0.397542 0.4705897,-0.55029 L 8.4847274,16.580325 8.1753835,16.264851 c -0.6250408,-0.637382 -0.813543,-0.845972 -0.8554976,-0.94635 -0.1446268,-0.346132 0.2391728,-0.6848 0.5761427,-0.508412 0.1160409,0.06075 0.1839218,0.121729 0.7804503,0.700897 0.2064512,0.200472 0.394584,0.364449 0.4179989,0.364449 0.041811,0 0.6306542,-0.595196 0.8956796,-0.905432 L 10.12533,14.811787 9.5954259,14.269621 C 9.3039573,13.971436 9.0430684,13.680262 9.0156644,13.6225 c -0.1258652,-0.265177 0.022525,-0.540545 0.3214577,-0.596678 0.1922692,-0.03602 0.2012801,-0.02904 1.2237849,0.951227 0.105848,0.10148 0.201723,0.184582 0.21295,0.184659 0.03279,1.46e-4 0.745293,-0.657834 0.974937,-0.900332 l 0.11124,-0.117443 -0.09536,-0.104086 c -0.05245,-0.05713 -0.275957,-0.290207 -0.496738,-0.517783 -0.590473,-0.608713 -0.666848,-0.850473 -0.336822,-1.066751 0.247962,-0.162425 0.422652,-0.07058 1.073102,0.564476 0.291174,0.284377 0.537437,0.516975 0.547187,0.516975 0.0098,0 0.240798,-0.195004 0.513284,-0.433439 0.27256,-0.238358 0.500874,-0.437571 0.507373,-0.442663 0.0065,-0.0054 -0.221296,-0.247297 -0.506265,-0.538248 -0.632871,-0.646169 -0.720104,-0.84701 -0.477755,-1.099921 0.253059,-0.2641321 0.396282,-0.1997963 1.113653,0.500509 0.361936,0.353366 0.570086,0.536182 0.598154,0.525399 0.09477,-0.03633 1.077459,-0.85055 1.077459,-0.892728 0,-0.04654 -0.121507,-0.1860651 -0.563511,-0.6473446 -0.479896,-0.5007307 -0.524806,-0.6551077 -0.263844,-0.9066142 0.266281,-0.2566743 0.376783,-0.2054872 1.112545,0.5149862 0.269754,0.2641318 0.503535,0.4764244 0.519563,0.4717693 0.01595,-0.00464 0.296861,-0.1928608 0.624079,-0.418224 0.807782,-0.5561974 1.585057,-1.0613521 2.205295,-1.4331126 0.716559,-0.429445 0.915919,-0.5565656 0.915919,-0.583822 0,-0.047005 -0.388748,-0.31105 -1.359105,-0.9233112 -0.777052,-0.4902325 -2.709491,-1.46864 -2.887209,-1.4616974 -0.02895,7.681e-4 -0.232082,0.05246 -0.45146,0.1141186 m 5.421499,2.9182333 c -0.712274,0.3603095 -3.486031,2.1200549 -3.764277,2.3881806 -0.05384,0.05192 0.0087,0.135246 0.455743,0.607684 0.182889,0.193307 0.355509,0.399831 0.383503,0.458844 0.168485,0.354995 -0.259558,0.719959 -0.60059,0.512106 -0.08546,-0.05214 -0.843014,-0.759772 -0.987345,-0.922274 -0.05082,-0.05713 -0.05672,-0.05445 -0.336379,0.159254 -0.632796,0.483589 -0.834889,0.651559 -0.836662,0.695281 -0.0016,0.03871 0.186434,0.254986 0.54992,0.632575 0.392368,0.407589 0.417704,0.675199 0.08266,0.871532 -0.233559,0.136867 -0.376634,0.05837 -0.998129,-0.547855 -0.192195,-0.187471 -0.367771,-0.345019 -0.390225,-0.350119 -0.05629,-0.01283 -0.988823,0.823217 -0.988823,0.886523 0,0.01213 0.179194,0.210657 0.398129,0.441119 0.517642,0.544823 0.580574,0.711903 0.36947,0.980251 -0.214945,0.273303 -0.447175,0.175282 -1.084551,-0.457961 l -0.390891,-0.388304 -0.185252,0.173286 c -0.101933,0.09536 -0.348122,0.333644 -0.547187,0.529539 l -0.361861,0.356246 0.356174,0.369319 c 0.53884,0.558708 0.619722,0.724166 0.472289,0.965997 -0.211253,0.346423 -0.46121,0.272042 -1.077607,-0.320351 l -0.409948,-0.394063 -0.293684,0.310012 c -0.161468,0.170475 -0.394436,0.420507 -0.5177163,0.55546 l -0.2241783,0.245523 0.3417706,0.345387 c 0.633831,0.640778 0.730075,0.926852 0.378039,1.12466 -0.26281,0.147733 -0.4450334,0.05661 -0.9894884,-0.495188 -0.1622057,-0.164344 -0.3103039,-0.298776 -0.3289917,-0.298776 -0.018763,0 -0.2106614,0.202753 -0.426493,0.450573 -0.2158316,0.247812 -0.4254586,0.486692 -0.4659363,0.53086 l -0.073567,0.08028 0.3710201,0.382919 C 9.1580796,19.3274 9.21658,19.461095 8.9819131,19.712017 8.7207284,19.991225 8.5918357,19.948824 7.9956758,19.387827 7.7736395,19.178861 7.5853593,19.008088 7.5772345,19.00831 c -0.014108,4.46e-4 -0.3357878,0.409431 -0.7331781,0.932096 -0.2258772,0.297226 -0.2455995,0.23895 0.2588207,0.76627 0.6293247,0.65798 0.6819898,0.790123 0.4194758,1.052566 C 7.2631628,22.018505 7.1632984,21.980835 6.5123313,21.37832 6.2972385,21.17926 6.0998727,21.016758 6.0736508,21.017203 6.0206888,21.017971 5.9086381,21.168915 5.4735026,21.825129 5.3104844,22.070952 5.1533007,22.30643 5.1241979,22.348455 5.0313509,22.482449 4.3241734,23.621654 4.1720125,23.882322 4.0913535,24.020448 3.9273,24.303719 3.807492,24.511794 l -0.2179743,0.378335 0.1398997,0.17499 c 1.0836641,1.355774 3.4583296,3.188572 5.6353345,4.349503 1.6188861,0.863322 1.6239821,0.864727 2.3193421,0.661821 3.226617,-0.941551 5.833733,-2.509395 8.579199,-5.15928 0.901737,-0.870265 2.050845,-2.165705 2.66089,-2.999628 0.09514,-0.130007 0.208224,-0.282902 0.251435,-0.33978 0.435357,-0.573554 1.309098,-2.045819 1.656999,-2.792074 0.05304,-0.113749 0.153269,-0.329137 0.222775,-0.478713 0.354992,-0.763681 0.725275,-1.810341 1.0293,-2.909149 L 26.18825,15.023548 26.021612,14.644399 C 24.880404,12.046454 23.104631,9.6743021 21.035321,7.983248 20.736023,7.7386841 20.755374,7.7479162 20.651078,7.8006544 M 0.09233218,23.086516 c -0.1299272,0.714859 -0.12017733,4.850673 0.01314867,5.571737 0.19965596,1.080414 1.26906425,2.01953 2.46382015,2.163715 1.1549434,0.139378 5.3677249,0.07733 5.5459596,-0.0817 0.011597,-0.01034 -0.1811892,-0.138122 -0.4284139,-0.28415 C 4.568367,28.614604 2.2215478,26.359304 0.4771669,23.527785 0.35204036,23.324664 0.21841988,23.119468 0.18023157,23.071752 l -0.0694351,-0.08679 -0.01846321,0.101564"
     id="path0-2" />
</svg>
