<?xml version="1.0" encoding="UTF-8" standalone="no"?>
<svg
   xmlns:dc="http://purl.org/dc/elements/1.1/"
   xmlns:cc="http://creativecommons.org/ns#"
   xmlns:rdf="http://www.w3.org/1999/02/22-rdf-syntax-ns#"
   xmlns:svg="http://www.w3.org/2000/svg"
   xmlns="http://www.w3.org/2000/svg"
   xmlns:sodipodi="http://sodipodi.sourceforge.net/DTD/sodipodi-0.dtd"
   xmlns:inkscape="http://www.inkscape.org/namespaces/inkscape"
   version="1.1"
   id="svg6"
   sodipodi:docname="strategysvg.svg"
   inkscape:version="0.92.5 (2060ec1f9f, 2020-04-08)"
   width="260.77881"
   height="34">
  <metadata
     id="metadata12">
    <rdf:RDF>
      <cc:Work
         rdf:about="">
        <dc:format>image/svg+xml</dc:format>
        <dc:type
           rdf:resource="http://purl.org/dc/dcmitype/StillImage" />
        <dc:title></dc:title>
      </cc:Work>
    </rdf:RDF>
  </metadata>
  <defs
     id="defs10" />
  <sodipodi:namedview
     pagecolor="#ffffff"
     bordercolor="#666666"
     borderopacity="1"
     objecttolerance="10"
     gridtolerance="10"
     guidetolerance="10"
     inkscape:pageopacity="0"
     inkscape:pageshadow="2"
     inkscape:window-width="1440"
     inkscape:window-height="837"
     id="namedview8"
     showgrid="false"
     inkscape:zoom="0.70710678"
     inkscape:cx="-147.99602"
     inkscape:cy="-15.373495"
     inkscape:window-x="0"
     inkscape:window-y="0"
     inkscape:window-maximized="1"
     inkscape:current-layer="svg6"
     fit-margin-top="0"
     fit-margin-left="0"
     fit-margin-right="0"
     fit-margin-bottom="0" />
  <text
     xml:space="preserve"
     style="font-style:italic;font-variant:normal;font-weight:normal;font-stretch:normal;font-size:40px;line-height:1.25;font-family:'Changa One';-inkscape-font-specification:'Changa One Italic';letter-spacing:0px;word-spacing:0px;fill:#000000;fill-opacity:1;stroke:none"
     x="104.70604"
     y="144.62962"
     id="text3045"><tspan
       sodipodi:role="line"
       id="tspan3043"
       x="104.70604"
       y="182.84996" /></text>
  <text
     xml:space="preserve"
     style="font-style:italic;font-variant:normal;font-weight:normal;font-stretch:normal;font-size:40px;line-height:1.25;font-family:'Changa One';-inkscape-font-specification:'Changa One Italic';letter-spacing:0px;word-spacing:0px;fill:#000000;fill-opacity:1;stroke:none"
     x="55.258297"
     y="59.497929"
     id="text3049"><tspan
       sodipodi:role="line"
       id="tspan3047"
       x="55.258297"
       y="97.718269" /></text>
  <g
     aria-label="STRATEGY"
     style="font-style:italic;font-variant:normal;font-weight:normal;font-stretch:normal;font-size:49.65378189px;line-height:1.25;font-family:'Motter Tektura';-inkscape-font-specification:'Motter Tektura Italic';letter-spacing:0px;word-spacing:0px;fill:#aa0000;fill-opacity:1;stroke:none;stroke-width:1.24134445"
     id="text3788"
     transform="matrix(1.038108,0,0,1.038108,-6.672977,0.41998219)">
    <path
       d="m 37.370238,31.056328 2.780611,-8.192874 q 4.170918,1.142037 7.646683,1.142037 3.475765,0 5.610877,-0.297922 l 0.39723,-2.482689 -4.121263,-0.397231 q -4.71711,-0.446884 -6.703261,-2.135112 -1.936497,-1.688229 -1.936497,-4.766763 0,-1.340652 0.297922,-2.979227 1.142037,-6.3556844 4.121264,-8.7390659 3.028881,-2.38338152 9.334911,-2.38338152 6.30603,0 11.122447,1.24134452 l -2.581996,7.9446051 q -4.319879,-0.7448067 -6.95153,-0.7448067 -2.63165,0 -4.46884,0.2482689 l -0.39723,2.4330356 3.326803,0.347576 q 5.064686,0.546192 7.199798,2.433036 2.135113,1.837189 2.135113,4.965378 0,3.177842 -1.390306,6.554299 -0.695153,1.737882 -1.539267,2.929573 -0.794461,1.142037 -2.085459,1.986151 -1.241345,0.794461 -2.284074,1.241345 -1.042729,0.39723 -2.63165,0.595845 -2.333728,0.347577 -5.710185,0.347577 -6.157069,0 -11.172101,-1.290999 z"
       style="font-style:italic;font-variant:normal;font-weight:normal;font-stretch:normal;font-family:'Changa One';-inkscape-font-specification:'Changa One Italic';fill:#aa0000;stroke-width:1.24134445"
       id="path3790"
       inkscape:connector-curvature="0" />
    <path
       d="M 91.691418,8.5135114 H 84.839196 L 80.817239,31.60252 H 71.383021 L 75.404977,8.5135114 h -6.802568 l 1.43996,-7.94460509 h 23.089008 z"
       style="font-style:italic;font-variant:normal;font-weight:normal;font-stretch:normal;font-family:'Changa One';-inkscape-font-specification:'Changa One Italic';fill:#aa0000;stroke-width:1.24134445"
       id="path3792"
       inkscape:connector-curvature="0" />
    <path
       d="m 117.36233,31.60252 h -10.37764 l -2.28408,-9.235603 h -2.0358 l -1.58892,9.235603 H 91.641668 L 97.103584,0.56890631 h 14.896136 q 8.4908,0 8.4908,7.59702859 0,3.1281881 -0.94343,5.9584541 -1.73788,5.362608 -5.46191,7.150144 z M 105.09784,8.5135114 104.00546,14.720234 h 2.18477 q 1.68823,0 2.53234,-0.347576 0.89377,-0.397231 1.19169,-2.135113 0.34758,-1.787536 0.34758,-2.184766 0,-0.993076 -0.79446,-1.2413449 -0.74481,-0.2979227 -2.48269,-0.2979227 z"
       style="font-style:italic;font-variant:normal;font-weight:normal;font-stretch:normal;font-family:'Changa One';-inkscape-font-specification:'Changa One Italic';fill:#aa0000;stroke-width:1.24134445"
       id="path3794"
       inkscape:connector-curvature="0" />
    <path
       d="m 128.43507,31.60252 h -9.93075 L 131.56326,0.56890631 h 14.59821 L 148.34624,31.60252 h -9.98041 l -0.19861,-4.915724 h -7.79565 z m 8.4908,-21.500088 -3.47576,8.689412 h 3.9723 v -8.689412 z"
       style="font-style:italic;font-variant:normal;font-weight:normal;font-stretch:normal;font-family:'Changa One';-inkscape-font-specification:'Changa One Italic';fill:#aa0000;stroke-width:1.24134445"
       id="path3796"
       inkscape:connector-curvature="0" />
    <path
       d="M 174.76193,8.5135114 H 167.9097 L 163.88775,31.60252 h -9.43422 l 4.02196,-23.0890086 h -6.80257 l 1.43996,-7.94460509 h 23.08901 z"
       style="font-style:italic;font-variant:normal;font-weight:normal;font-stretch:normal;font-family:'Changa One';-inkscape-font-specification:'Changa One Italic';fill:#aa0000;stroke-width:1.24134445"
       id="path3798"
       inkscape:connector-curvature="0" />
    <path
       d="m 195.61641,19.884227 h -9.43421 l -0.6455,3.773688 h 11.56933 l -1.39031,7.944605 h -21.00355 l 5.46192,-31.03361369 h 20.75528 l -2.582,7.94460509 h -10.17902 l -0.69516,4.1709176 h 9.43422 z"
       style="font-style:italic;font-variant:normal;font-weight:normal;font-stretch:normal;font-family:'Changa One';-inkscape-font-specification:'Changa One Italic';fill:#aa0000;stroke-width:1.24134445"
       id="path3800"
       inkscape:connector-curvature="0" />
    <path
       d="m 217.91091,22.466224 0.24827,-1.340652 h -2.38338 l 1.34065,-7.597029 h 11.37072 l -2.92958,16.584364 q -6.05776,2.23442 -12.16517,2.23442 -6.10742,0 -8.83838,-2.433036 -2.6813,-2.433035 -2.6813,-7.497721 0,-2.135112 0.69515,-6.30603 1.48961,-8.639758 5.2633,-12.4630992 3.77369,-3.82334122 12.51275,-3.82334122 1.83719,0 4.66746,0.39723025 2.87992,0.39723026 4.22057,0.89376807 l -2.73096,7.5970286 q -3.72403,-0.6951529 -6.85222,-0.6951529 -3.07853,0 -4.41918,0.4965378 -1.34066,0.4965378 -1.58893,1.9861516 l -2.43303,14.05202 h 3.12819 q 1.68823,0 2.48269,-0.347577 0.84411,-0.39723 1.09238,-1.737882 z"
       style="font-style:italic;font-variant:normal;font-weight:normal;font-stretch:normal;font-family:'Changa One';-inkscape-font-specification:'Changa One Italic';fill:#aa0000;stroke-width:1.24134445"
       id="path3802"
       inkscape:connector-curvature="0" />
    <path
       d="m 241.64535,0.56890631 0.6455,10.92383169 h 0.34757 l 4.56815,-10.92383169 h 10.42729 L 245.12111,23.161377 243.68115,31.60252 h -9.43422 l 1.43996,-8.441143 -4.46884,-22.59247069 z"
       style="font-style:italic;font-variant:normal;font-weight:normal;font-stretch:normal;font-family:'Changa One';-inkscape-font-specification:'Changa One Italic';fill:#aa0000;stroke-width:1.24134445"
       id="path3804"
       inkscape:connector-curvature="0" />
  </g>
  <g
     transform="matrix(0.11435971,0,0,0.11435971,-12.442353,-2.1744341)"
     id="g829">
    <path
       id="path0"
       d="m 155.39,19.528 c -3.758,0.988 -6.338,4.156 -6.749,8.286 l -0.216,2.175 -2.785,0.431 c -11.267,1.746 -10.986,18.005 0.31,18.005 2.378,0 2.64,0.183 2.64,1.848 0,2.652 -0.771,3.662 -3.284,4.297 -3.379,0.856 -7.059,2.034 -8.158,2.613 -0.548,0.288 -1.119,0.525 -1.269,0.526 -1.363,0.011 -7.361,4.96 -9.718,8.018 -6.656,8.639 -6.717,17.409 -0.211,30.118 1.165,2.275 2.289,4.343 2.499,4.596 0.209,0.252 0.536,0.732 0.725,1.066 0.721,1.268 2.557,4.246 4.491,7.282 6.436,10.103 6.493,12.77 0.367,16.916 -7.248,4.905 -9.762,8.529 -7.225,10.415 0.963,0.716 58.496,1.145 60.947,0.455 3.45,-0.971 1.08,-4.871 -6.272,-10.319 -5.238,-3.882 -5.727,-4.659 -4.848,-7.71 0.555,-1.927 2.468,-6.12 3.239,-7.102 0.216,-0.274 0.561,-0.797 0.766,-1.162 0.206,-0.365 2.042,-3.313 4.081,-6.551 3.478,-5.525 6.955,-11.973 7.467,-13.847 0.124,-0.456 0.358,-1.128 0.52,-1.493 6.007,-13.553 -3.689,-28.718 -21.319,-33.341 -4.268,-1.119 -4.555,-1.37 -4.555,-3.969 0,-2.328 0.332,-2.656 2.692,-2.656 11.434,0 11.742,-16.943 0.325,-17.872 l -2.52,-0.205 -0.231,-2.098 C 166.39,21.829 161.236,17.99 155.39,19.528 m 95.772,108.593 c -3.437,1.769 -5.446,4.076 -7.202,8.27 -1.23,2.938 -1.856,3.526 -2.974,2.793 -1.922,-1.26 -3.266,-3.595 -3.985,-6.924 -0.403,-1.869 -1.385,-2.09 -5.581,-1.257 -16.194,3.214 -29.776,11.576 -40.002,24.628 -1.628,2.077 -1.895,2.91 -0.934,2.91 0.718,0 5.552,3.294 7.402,5.044 8.115,7.675 10.5,22.438 4.56,28.224 -3.605,3.511 -7.962,4.323 -23.087,4.302 -21.661,-0.031 -26.555,-2.616 -26.548,-14.021 0.008,-12.773 9.826,-24.022 22.477,-25.756 1.654,-0.227 1.651,-0.219 1.117,-2.879 l -0.377,-1.88 h -18.343 c -11.476,0 -18.417,0.121 -18.541,0.322 -0.109,0.176 -0.339,2.079 -0.51,4.229 -0.171,2.149 -0.467,5.176 -0.658,6.726 -0.191,1.551 -0.574,5.058 -0.851,7.795 -0.846,8.349 -1.405,13.356 -2.111,18.905 -0.371,2.919 -0.824,6.501 -1.006,7.96 -0.565,4.525 -1.381,10.073 -2.488,16.916 -0.236,1.459 -0.675,4.22 -0.975,6.136 -0.3,1.915 -0.628,3.706 -0.728,3.98 -0.101,0.274 -0.395,1.691 -0.654,3.151 -0.471,2.662 -1.327,6.754 -2.254,10.779 -2.169,9.417 -4.039,15.509 -7.026,22.886 -1.155,2.853 -3.794,7.727 -5.903,10.902 -1.167,1.757 -2.444,3.94 -2.838,4.852 -0.395,0.913 -0.85,1.899 -1.012,2.194 -2.75,4.996 -0.317,13.755 4.504,16.217 l 1.618,0.827 12.935,0.089 12.936,0.09 -1.317,-0.758 c -4.808,-2.768 -3.329,-8.142 4.999,-18.161 5.598,-6.734 8.888,-13.128 10.753,-20.896 2.416,-10.06 4.139,-20.64 5.456,-33.499 0.271,-2.645 0.64,-5.928 0.821,-7.297 0.181,-1.368 0.333,-3.196 0.339,-4.063 l 0.01,-1.575 h 15.914 15.914 l 0.154,0.746 c 0.085,0.411 0.235,1.567 0.335,2.571 1.539,15.472 3.477,29.837 4.855,35.986 1.639,7.318 3.59,14.132 4.575,15.982 0.177,0.331 0.723,1.423 1.214,2.426 1.028,2.1 4.062,6.741 5.204,7.961 8.036,8.577 11.021,16.105 7.545,19.03 l -0.921,0.774 4.198,0.194 c 11.258,0.52 51.245,-0.029 52.872,-0.726 6.214,-2.664 8.863,-11.251 6.075,-19.695 -2.068,-6.266 -4.89,-10.415 -13.801,-20.296 -9.514,-10.55 -14.684,-18.852 -19.681,-31.601 -0.661,-1.686 -1.202,-3.23 -1.202,-3.431 0,-0.201 -0.307,-1.433 -0.682,-2.739 -1.176,-4.089 -1.551,-5.591 -2.247,-9.006 -2.092,-10.261 -2.75,-14.968 -2.954,-21.145 -0.217,-6.555 -0.045,-6.805 2.205,-3.217 4.066,6.483 7.1,8.057 13.608,7.057 5.886,-0.903 7.157,-0.333 11.143,5.002 1.511,2.024 3.247,4.211 3.856,4.862 4.926,5.258 11.032,3.122 17.132,-5.992 l 1.886,-2.819 -0.017,-2.82 c -0.023,-3.597 -2.414,-8.372 -6.657,-13.289 -2.078,-2.408 -7.478,-8.254 -10.112,-10.949 -13.45,-13.754 -16.043,-16.507 -17.1,-18.155 -3.599,-5.616 -4.311,-8.19 -3.444,-12.444 1.577,-7.73 1.454,-8.148 -1.889,-6.428 M 128.787,141.13 c -2.308,1.616 -2.062,5.148 0.45,6.492 1.466,0.784 56.03,0.629 57.238,-0.163 2.081,-1.363 2.174,-4.518 0.182,-6.179 -1.045,-0.871 -56.634,-1.015 -57.87,-0.15 m 74.304,58.742 c 2.378,1.134 2.868,3.522 1.088,5.302 l -1.128,1.128 -23.83,-0.011 c -25.835,-0.011 -24.418,0.096 -25.46,-1.921 -0.951,-1.841 -0.064,-3.787 2.126,-4.661 1.572,-0.626 45.869,-0.473 47.204,0.163 m -89.616,101.122 c -5.316,1.658 -5.952,8.699 -1.011,11.189 l 1.798,0.907 13.571,0.006 13.571,0.005 -1.375,-1.269 c -3.219,-2.972 -3.211,-7.092 0.019,-10.045 l 1.411,-1.289 -13.267,0.022 c -10.223,0.017 -13.599,0.126 -14.717,0.474 m 105.201,1.02 c 2.971,2.929 2.978,6.704 0.017,9.624 l -1.495,1.474 29.958,-0.089 29.958,-0.088 1.659,-0.829 c 3.828,-1.914 4.453,-6.969 1.213,-9.813 -2.091,-1.837 -1.328,-1.795 -33.334,-1.795 h -29.514 l 1.538,1.516"
       inkscape:connector-curvature="0"
       style="fill:#aa0000;fill-rule:evenodd;stroke:none" />
    <path
       id="path2"
       d="m 163.516,20.999 c 0,0.057 0.485,0.542 1.078,1.078 l 1.078,0.974 -0.975,-1.078 c -0.908,-1.004 -1.181,-1.23 -1.181,-0.974 m -15.265,7.593 c -0.088,0.858 -0.038,1.437 0.112,1.287 0.15,-0.15 0.222,-0.852 0.16,-1.56 l -0.112,-1.287 -0.16,1.56 m 19.046,0.344 0.033,1.412 1.909,0.028 1.909,0.027 -1.808,-0.126 -1.808,-0.127 -0.133,-1.313 -0.134,-1.313 0.032,1.412 m -21.443,19.723 c 0.411,0.079 1.082,0.079 1.493,0 0.41,-0.079 0.074,-0.144 -0.747,-0.144 -0.821,0 -1.156,0.065 -0.746,0.144 m 21.377,0.164 c -0.237,0.236 -0.375,1.212 -0.341,2.404 l 0.057,2.007 0.192,-2.156 0.191,-2.156 1.824,-0.195 1.824,-0.194 -1.675,-0.054 c -0.932,-0.03 -1.851,0.122 -2.072,0.344 m -18.873,1.592 c 0,1.003 0.062,1.413 0.138,0.912 0.076,-0.502 0.076,-1.323 0,-1.825 -0.076,-0.501 -0.138,-0.091 -0.138,0.913 m -20.011,12.52 -1.813,1.907 1.907,-1.812 c 1.772,-1.685 2.059,-2.002 1.813,-2.002 -0.052,0 -0.91,0.858 -1.907,1.907 m 62.864,6.053 c 0.283,0.548 0.589,0.995 0.68,0.995 0.091,0 -0.066,-0.447 -0.349,-0.995 -0.283,-0.547 -0.589,-0.995 -0.68,-0.995 -0.091,0 0.066,0.448 0.349,0.995 m 2.345,16.11 c -0.122,0.486 -0.158,0.948 -0.08,1.026 0.079,0.078 0.242,-0.255 0.364,-0.741 0.122,-0.486 0.158,-0.948 0.08,-1.026 -0.078,-0.078 -0.242,0.255 -0.364,0.741 m -17.432,35.162 c 0.003,0.349 0.157,0.859 0.342,1.133 0.246,0.363 0.277,0.229 0.114,-0.497 -0.272,-1.22 -0.462,-1.485 -0.456,-0.636 m 77.691,10.254 c 0.004,0.73 0.072,0.989 0.151,0.577 0.079,-0.413 0.076,-1.01 -0.007,-1.327 -0.083,-0.317 -0.148,0.02 -0.144,0.75 m -23.467,0.498 c -0.845,0.363 0.027,0.363 1.161,0 0.667,-0.214 0.699,-0.268 0.166,-0.276 -0.365,-0.005 -0.962,0.119 -1.327,0.276 m -80.68,6.218 c 6.704,0.051 17.674,0.051 24.378,0 6.704,-0.05 1.219,-0.091 -12.189,-0.091 -13.408,0 -18.893,0.041 -12.189,0.091 m -5.779,3.317 c 7.721,0.05 20.258,0.05 27.861,0 7.602,-0.05 1.285,-0.09 -14.039,-0.09 -15.323,0 -21.543,0.041 -13.822,0.09 m 55.43,6.302 -1.143,1.244 1.244,-1.143 c 1.157,-1.064 1.396,-1.345 1.143,-1.345 -0.056,0 -0.616,0.56 -1.244,1.244 m -57.445,1.324 c 1.323,0.063 3.487,0.063 4.809,0 1.323,-0.063 0.241,-0.114 -2.404,-0.114 -2.646,0 -3.728,0.051 -2.405,0.114 m 18.574,0 c 1.322,0.063 3.486,0.063 4.809,0 1.323,-0.063 0.241,-0.114 -2.405,-0.114 -2.645,0 -3.727,0.051 -2.404,0.114 m 18.408,0 c 1.231,0.064 3.246,0.064 4.477,0 1.232,-0.064 0.224,-0.116 -2.238,-0.116 -2.463,0 -3.471,0.052 -2.239,0.116 m 16.027,3.039 -0.971,1.193 1.12,-1.068 c 0.616,-0.587 1.053,-1.123 0.971,-1.192 -0.082,-0.069 -0.586,0.412 -1.12,1.067 m -55.911,0.281 c 0,0.136 8.341,0.209 18.537,0.16 l 18.537,-0.088 0.356,1.58 0.357,1.581 -0.166,-1.461 c -0.091,-0.803 -0.244,-1.587 -0.339,-1.741 -0.214,-0.346 -37.282,-0.377 -37.282,-0.031 m 126.368,5.223 c 2.823,2.828 5.208,5.141 5.299,5.141 0.091,0 -2.144,-2.313 -4.967,-5.141 -2.823,-2.827 -5.208,-5.141 -5.299,-5.141 -0.091,0 2.144,2.314 4.967,5.141 m -127.28,3.981 c 0.004,0.729 0.072,0.989 0.151,0.576 0.08,-0.412 0.077,-1.01 -0.006,-1.327 -0.083,-0.317 -0.148,0.021 -0.145,0.751 m -0.338,2.487 c 0,0.639 0.068,0.9 0.152,0.581 0.083,-0.32 0.083,-0.842 0,-1.161 -0.084,-0.32 -0.152,-0.058 -0.152,0.58 m 22.466,0.912 -1.813,1.907 1.907,-1.813 c 1.772,-1.684 2.059,-2.001 1.813,-2.001 -0.052,0 -0.91,0.858 -1.907,1.907 m 37.822,-0.083 c 0.991,1.004 1.876,1.824 1.967,1.824 0.092,0 -0.645,-0.82 -1.635,-1.824 -0.991,-1.003 -1.877,-1.824 -1.968,-1.824 -0.091,0 0.645,0.821 1.636,1.824 m 78.939,4.644 c 0.99,1.003 1.876,1.824 1.967,1.824 0.091,0 -0.645,-0.821 -1.636,-1.824 -0.991,-1.004 -1.876,-1.824 -1.967,-1.824 -0.091,0 0.645,0.82 1.636,1.824 m 3.648,3.98 c 0.619,0.638 1.2,1.161 1.291,1.161 0.091,0 -0.34,-0.523 -0.959,-1.161 -0.619,-0.639 -1.2,-1.161 -1.291,-1.161 -0.092,0 0.34,0.522 0.959,1.161 M 136.734,173.3 c 0.003,0.73 0.071,0.989 0.151,0.577 0.079,-0.413 0.076,-1.01 -0.007,-1.327 -0.083,-0.317 -0.148,0.02 -0.144,0.75 m 68.112,2.654 c 0.273,1.219 0.462,1.484 0.456,0.635 -0.003,-0.349 -0.157,-0.859 -0.342,-1.133 -0.246,-0.363 -0.277,-0.229 -0.114,0.498 m -52.185,6.136 c 0,0.82 0.064,1.156 0.144,0.746 0.079,-0.411 0.079,-1.082 0,-1.493 -0.08,-0.41 -0.144,-0.074 -0.144,0.747 m -16.929,0.331 c 0,0.639 0.068,0.9 0.152,0.581 0.083,-0.32 0.083,-0.842 0,-1.161 -0.084,-0.319 -0.152,-0.058 -0.152,0.58 m 154.906,7.297 c 0,0.821 0.064,1.157 0.143,0.746 0.079,-0.41 0.079,-1.082 0,-1.492 -0.079,-0.411 -0.143,-0.075 -0.143,0.746 m -31.512,1.233 c 0.504,0.076 1.25,0.074 1.658,-0.004 0.408,-0.079 -0.005,-0.142 -0.917,-0.139 -0.912,0.002 -1.246,0.067 -0.741,0.143 m -68.745,4.737 -1.824,0.224 1.659,0.021 c 0.912,0.011 2.031,-0.099 2.487,-0.245 1.018,-0.326 0.34,-0.326 -2.322,0 m -23.134,0.238 c 0.502,0.076 1.323,0.076 1.824,0 0.502,-0.076 0.092,-0.138 -0.912,-0.138 -1.003,0 -1.414,0.062 -0.912,0.138 m 11.623,0.34 c 1.238,0.064 3.179,0.064 4.311,-0.001 1.133,-0.064 0.119,-0.117 -2.252,-0.116 -2.372,0 -3.298,0.053 -2.059,0.117 m -10.96,3.319 c 6.34,0.051 16.713,0.051 23.052,0 6.339,-0.05 1.152,-0.091 -11.526,-0.091 -12.678,0 -17.865,0.041 -11.526,0.091 m 36.945,2.774 c 0.106,0.659 0.018,1.555 -0.194,1.99 -0.366,0.752 -0.36,0.759 0.13,0.148 0.578,-0.721 0.669,-2.086 0.188,-2.839 -0.219,-0.344 -0.257,-0.127 -0.124,0.701 m -41.671,8.752 c 0,0.456 0.057,0.829 0.127,0.829 0.07,0 0.199,-0.373 0.286,-0.829 0.087,-0.456 0.03,-0.829 -0.127,-0.829 -0.157,0 -0.286,0.373 -0.286,0.829 m 32.595,6.468 c 0,0.821 0.064,1.156 0.143,0.746 0.079,-0.41 0.079,-1.082 0,-1.492 -0.079,-0.411 -0.143,-0.075 -0.143,0.746 m -33.513,2.985 c 0,0.638 0.068,0.9 0.152,0.58 0.083,-0.319 0.083,-0.841 0,-1.161 -0.084,-0.319 -0.152,-0.058 -0.152,0.581 m 34.501,6.468 c 0.004,0.729 0.071,0.989 0.151,0.576 0.079,-0.413 0.076,-1.01 -0.007,-1.327 -0.083,-0.317 -0.148,0.021 -0.144,0.751 m -68.201,2.529 c -0.277,1.382 -0.009,1.65 0.29,0.29 0.126,-0.574 0.16,-1.112 0.075,-1.196 -0.084,-0.085 -0.249,0.323 -0.365,0.906 m 32.705,0.29 c 0,0.638 0.068,0.899 0.152,0.58 0.083,-0.319 0.083,-0.841 0,-1.161 -0.084,-0.319 -0.152,-0.058 -0.152,0.581 m -36.04,14.451 c -0.122,0.486 -0.158,0.948 -0.08,1.026 0.079,0.078 0.242,-0.255 0.364,-0.741 0.122,-0.486 0.158,-0.948 0.08,-1.026 -0.078,-0.079 -0.242,0.255 -0.364,0.741 m 140.441,9.201 c 0,0.058 0.485,0.543 1.078,1.078 l 1.078,0.975 -0.975,-1.078 c -0.908,-1.005 -1.181,-1.231 -1.181,-0.975 M 108.839,285.24 c -0.002,1.369 0.113,2.786 0.255,3.149 0.142,0.364 0.195,-0.606 0.118,-2.155 -0.183,-3.655 -0.369,-4.153 -0.373,-0.994 m 29.339,4.505 c -0.278,0.724 -0.244,2.875 0.053,3.341 0.134,0.211 0.243,-0.573 0.243,-1.741 0,-2.331 -0.005,-2.358 -0.296,-1.6 m 140.242,3.207 -0.974,1.078 1.078,-0.974 c 0.593,-0.536 1.078,-1.021 1.078,-1.078 0,-0.256 -0.274,-0.031 -1.182,0.974 m -61.059,2.985 c -0.084,0.137 1.236,0.226 2.935,0.199 3.212,-0.052 2.938,-0.196 -0.677,-0.355 -1.158,-0.051 -2.174,0.019 -2.258,0.156 m 17.382,0.163 c 1.323,0.063 3.487,0.063 4.809,0 1.323,-0.063 0.241,-0.114 -2.404,-0.114 -2.646,0 -3.728,0.051 -2.405,0.114 m 18.725,0 c 1.223,0.063 3.313,0.064 4.644,10e-4 1.33,-0.063 0.329,-0.116 -2.225,-0.116 -2.554,-0.001 -3.642,0.051 -2.419,0.115 m 12.632,0 c 1.239,0.064 3.179,0.064 4.312,-0.001 1.132,-0.064 0.119,-0.117 -2.253,-0.116 -2.371,10e-4 -3.298,0.053 -2.059,0.117 m -149.019,0.42 c 0.82,0.26 4.22,0.44 3.953,0.21 -0.076,-0.066 -1.183,-0.199 -2.46,-0.296 -1.35,-0.103 -1.975,-0.067 -1.493,0.086 m 17.745,-0.003 -7.297,0.186 8.126,0.068 c 5.343,0.045 7.956,-0.042 7.629,-0.254 -0.274,-0.176 -0.647,-0.29 -0.83,-0.253 -0.182,0.037 -3.615,0.151 -7.628,0.253 m -24.233,6.053 -0.974,1.078 1.078,-0.974 c 1.004,-0.908 1.23,-1.181 0.974,-1.181 -0.057,0 -0.542,0.485 -1.078,1.077 m -1.602,2.432 c -0.279,0.727 -0.244,3.208 0.052,3.673 0.134,0.21 0.244,-0.648 0.244,-1.907 0,-2.505 -0.004,-2.528 -0.296,-1.766"
       inkscape:connector-curvature="0"
       style="fill:#aa0000;fill-rule:evenodd;stroke:none" />
    <path
       id="path3"
       d="m 120.82,79.602 c 0,0.821 0.065,1.157 0.144,0.746 0.079,-0.41 0.079,-1.082 0,-1.492 -0.079,-0.411 -0.144,-0.075 -0.144,0.746 m 11.117,57.626 c 1.147,0.065 2.938,0.064 3.98,-0.002 1.042,-0.065 0.103,-0.118 -2.086,-0.118 -2.189,0.001 -3.042,0.055 -1.894,0.12 m 38.799,58.701 c 0.596,0.073 1.491,0.072 1.99,-0.004 0.498,-0.075 0.01,-0.136 -1.084,-0.134 -1.095,0.002 -1.503,0.064 -0.906,0.138 m 15.417,-0.003 c 0.501,0.076 1.322,0.076 1.824,0 0.501,-0.076 0.091,-0.138 -0.912,-0.138 -1.004,0 -1.414,0.062 -0.912,0.138 m -25.705,10.29 c 1.322,0.063 3.486,0.063 4.809,0 1.323,-0.063 0.241,-0.114 -2.405,-0.114 -2.645,0 -3.727,0.051 -2.404,0.114 m 18.574,0 c 1.322,0.063 3.486,0.063 4.809,0 1.322,-0.063 0.24,-0.114 -2.405,-0.114 -2.645,0 -3.727,0.051 -2.404,0.114 m 18.088,0 c 1.056,0.066 2.697,0.065 3.648,-0.002 0.951,-0.067 0.088,-0.121 -1.919,-0.12 -2.006,0.001 -2.785,0.056 -1.729,0.122 m -74.473,90.546 c 0.958,0.067 2.525,0.067 3.482,0 0.958,-0.067 0.175,-0.122 -1.741,-0.122 -1.915,0 -2.699,0.055 -1.741,0.122"
       inkscape:connector-curvature="0"
       style="fill:#aa0000;fill-rule:evenodd;stroke:none" />
    <path
       id="path4"
       d="m 156.792,19.145 c 0.589,0.073 1.634,0.074 2.322,0.003 0.688,-0.072 0.206,-0.132 -1.071,-0.134 -1.277,-10e-4 -1.84,0.058 -1.251,0.131 m 7.718,2.58 c 0.638,0.73 1.29,1.476 1.45,1.658 0.16,0.183 0.136,0.033 -0.053,-0.332 -0.189,-0.364 -0.842,-1.11 -1.451,-1.657 l -1.106,-0.995 1.16,1.326 m 3.566,8.36 c 0.411,0.079 1.082,0.079 1.493,0 0.41,-0.079 0.074,-0.144 -0.746,-0.144 -0.821,0 -1.157,0.065 -0.747,0.144 m -28.628,2.834 -0.974,1.078 1.078,-0.974 c 1.005,-0.909 1.231,-1.182 0.974,-1.182 -0.057,0 -0.542,0.485 -1.078,1.078 m 36.692,12.618 c -1.394,1.635 -1.406,1.665 -0.222,0.566 1.049,-0.974 2.124,-2.36 1.789,-2.307 -0.052,0.008 -0.758,0.792 -1.567,1.741 m -29.954,3.453 c 0.41,0.079 1.082,0.079 1.492,0 0.411,-0.079 0.075,-0.143 -0.746,-0.143 -0.821,0 -1.157,0.064 -0.746,0.143 m 21.11,0.232 c -0.098,0.256 -0.117,0.965 -0.042,1.576 0.124,1.013 0.14,0.988 0.189,-0.283 l 0.053,-1.392 1.741,-0.122 1.741,-0.122 -1.751,-0.061 c -1.242,-0.044 -1.804,0.074 -1.931,0.404 m -38.551,13.05 -2.263,2.239 2.182,-1.97 c 1.2,-1.084 2.324,-2.091 2.497,-2.239 0.173,-0.148 0.21,-0.269 0.081,-0.269 -0.129,0 -1.253,1.008 -2.497,2.239 m 57.656,0.249 c 0.991,1.003 1.877,1.824 1.968,1.824 0.091,0 -0.645,-0.821 -1.636,-1.824 -0.991,-1.004 -1.876,-1.824 -1.967,-1.824 -0.092,0 0.644,0.82 1.635,1.824 M 120.807,77.28 c 0,0.639 0.068,0.9 0.151,0.581 0.084,-0.32 0.084,-0.842 0,-1.161 -0.083,-0.319 -0.151,-0.058 -0.151,0.58 m 73.666,2.322 c 0,1.368 0.059,1.928 0.13,1.244 0.072,-0.684 0.072,-1.804 0,-2.488 -0.071,-0.684 -0.13,-0.124 -0.13,1.244 m -73.666,2.322 c 0,0.638 0.068,0.899 0.151,0.58 0.084,-0.319 0.084,-0.841 0,-1.161 -0.083,-0.319 -0.151,-0.058 -0.151,0.581 m 17.547,38.032 c -0.025,0.396 -0.131,0.993 -0.236,1.327 -0.181,0.575 -0.171,0.576 0.187,0.018 0.208,-0.325 0.315,-0.922 0.236,-1.327 -0.142,-0.736 -0.142,-0.736 -0.187,-0.018 m -4.855,5.612 -0.995,0.855 1.078,-0.713 c 0.593,-0.393 1.078,-0.778 1.078,-0.857 0,-0.248 -0.14,-0.162 -1.161,0.715 m -3.669,2.873 -0.974,1.078 1.078,-0.974 c 1.004,-0.908 1.23,-1.182 0.974,-1.182 -0.057,0 -0.542,0.485 -1.078,1.078 m 117.413,1.99 -0.974,1.078 1.078,-0.974 c 0.592,-0.536 1.078,-1.021 1.078,-1.078 0,-0.256 -0.274,-0.031 -1.182,0.974 m -68.707,7.128 c 1.056,0.066 2.698,0.065 3.649,-0.001 0.951,-0.067 0.087,-0.121 -1.92,-0.12 -2.006,0 -2.784,0.055 -1.729,0.121 m -34.672,2.656 c 7.525,0.05 19.838,0.05 27.363,0 7.525,-0.049 1.368,-0.09 -13.681,-0.09 -15.05,0 -21.207,0.041 -13.682,0.09 m 54.954,6.8 -0.974,1.078 1.078,-0.974 c 0.593,-0.536 1.078,-1.021 1.078,-1.078 0,-0.256 -0.274,-0.031 -1.182,0.974 m -54.954,1.492 c 7.525,0.05 19.838,0.05 27.363,0 7.525,-0.049 1.368,-0.09 -13.681,-0.09 -15.05,0 -21.207,0.041 -13.682,0.09 m 117.33,3.732 c 0.713,0.729 1.37,1.327 1.461,1.327 0.092,0 -0.417,-0.598 -1.129,-1.327 -0.713,-0.73 -1.37,-1.327 -1.462,-1.327 -0.091,0 0.418,0.597 1.13,1.327 m -63.35,11.94 c 1.083,1.095 2.044,1.99 2.135,1.99 0.091,0 -0.72,-0.895 -1.803,-1.99 -1.083,-1.094 -2.044,-1.99 -2.135,-1.99 -0.092,0 0.72,0.896 1.803,1.99 m 76.12,1.161 c 1.725,1.733 3.212,3.151 3.303,3.151 0.091,0 -1.246,-1.418 -2.972,-3.151 -1.726,-1.733 -3.212,-3.151 -3.303,-3.151 -0.092,0 1.246,1.418 2.972,3.151 m -114.615,-0.083 -0.974,1.078 1.078,-0.974 c 1.005,-0.908 1.23,-1.182 0.974,-1.182 -0.057,0 -0.542,0.485 -1.078,1.078 m -22.272,2.736 c 0.002,0.912 0.067,1.246 0.143,0.742 0.076,-0.504 0.074,-1.25 -0.005,-1.658 -0.078,-0.408 -0.141,0.004 -0.138,0.916 m 142.525,3.255 c 0,0.057 0.485,0.542 1.078,1.078 l 1.078,0.974 -0.974,-1.078 c -0.908,-1.005 -1.182,-1.23 -1.182,-0.974 m -75.763,2.218 c 0.122,0.456 0.36,1.053 0.529,1.327 0.213,0.345 0.239,0.244 0.085,-0.332 -0.122,-0.456 -0.36,-1.053 -0.529,-1.327 -0.213,-0.345 -0.24,-0.244 -0.085,0.332 m -68.107,5.97 c 0,0.639 0.068,0.9 0.152,0.581 0.083,-0.32 0.083,-0.842 0,-1.161 -0.084,-0.32 -0.152,-0.058 -0.152,0.58 m 69.638,2.322 c -0.039,1.368 -0.141,3.084 -0.228,3.814 l -0.157,1.327 0.339,-1.327 c 0.187,-0.73 0.289,-2.446 0.228,-3.814 l -0.112,-2.488 -0.07,2.488 m -52.356,0.332 c 0,1.368 0.058,1.927 0.13,1.243 0.071,-0.684 0.071,-1.803 0,-2.487 -0.072,-0.684 -0.13,-0.125 -0.13,1.244 m 87.527,5.638 c 0,0.639 0.069,0.9 0.152,0.58 0.083,-0.319 0.083,-0.841 0,-1.16 -0.083,-0.32 -0.152,-0.058 -0.152,0.58 m 0.35,2.819 c 0.002,0.912 0.067,1.246 0.143,0.742 0.076,-0.504 0.074,-1.25 -0.005,-1.658 -0.078,-0.408 -0.141,0.004 -0.138,0.916 m 17.725,0.737 c 0.589,0.073 1.634,0.075 2.322,0.003 0.688,-0.072 0.206,-0.132 -1.071,-0.133 -1.277,-0.002 -1.84,0.057 -1.251,0.13 m 6.061,1.917 c 0.618,0.638 1.199,1.161 1.291,1.161 0.091,0 -0.341,-0.523 -0.96,-1.161 -0.619,-0.639 -1.199,-1.161 -1.291,-1.161 -0.091,0 0.341,0.522 0.96,1.161 m -88.309,2.734 c 1.688,0.061 4.449,0.061 6.136,0 1.688,-0.06 0.307,-0.109 -3.068,-0.109 -3.375,0 -4.755,0.049 -3.068,0.109 m 90.962,0.748 c 0.39,0.548 0.783,0.995 0.874,0.995 0.092,0 -0.153,-0.447 -0.542,-0.995 -0.39,-0.547 -0.783,-0.995 -0.875,-0.995 -0.091,0 0.153,0.448 0.543,0.995 m 17.236,3.566 -1.813,1.907 1.907,-1.813 c 1.772,-1.684 2.059,-2.001 1.813,-2.001 -0.052,0 -0.91,0.858 -1.907,1.907 m -127.933,-0.352 c 0.32,0.083 0.842,0.083 1.161,0 0.32,-0.083 0.058,-0.152 -0.58,-0.152 -0.639,0 -0.9,0.069 -0.581,0.152 m 13.102,0.018 c 1.322,0.063 3.486,0.063 4.809,0 1.323,-0.063 0.24,-0.115 -2.405,-0.115 -2.645,0 -3.727,0.052 -2.404,0.115 m 18.573,0 c 1.323,0.063 3.487,0.063 4.81,0 1.322,-0.063 0.24,-0.115 -2.405,-0.115 -2.645,0 -3.727,0.052 -2.405,0.115 m 81.344,-0.143 c 0,0.057 0.485,0.542 1.078,1.078 l 1.078,0.974 -0.975,-1.078 c -0.908,-1.005 -1.181,-1.23 -1.181,-0.974 m -99.917,6.444 c 1.322,0.063 3.486,0.063 4.809,0 1.323,-0.063 0.24,-0.114 -2.405,-0.114 -2.645,0 -3.727,0.051 -2.404,0.114 m 18.573,0 c 1.323,0.063 3.487,0.063 4.81,0 1.322,-0.063 0.24,-0.114 -2.405,-0.114 -2.645,0 -3.727,0.051 -2.405,0.114 m -24.667,4.549 c -0.103,0.27 -0.111,0.682 -0.017,0.916 0.094,0.234 0.183,0.089 0.197,-0.321 l 0.026,-0.746 h 15.396 c 10.183,0 15.452,0.115 15.564,0.34 0.092,0.187 0.13,0.149 0.082,-0.083 -0.137,-0.681 -30.987,-0.785 -31.248,-0.106 m 32.124,9.467 c 0,0.639 0.068,0.9 0.152,0.581 0.083,-0.32 0.083,-0.842 0,-1.161 -0.084,-0.319 -0.152,-0.058 -0.152,0.58 m -33.481,3.151 c 0.002,0.912 0.067,1.246 0.143,0.742 0.076,-0.504 0.074,-1.251 -0.004,-1.659 -0.079,-0.408 -0.142,0.005 -0.139,0.917 m -34.382,8.305 c -0.114,0.296 -0.192,0.862 -0.173,1.258 0.021,0.454 0.134,0.293 0.306,-0.44 0.29,-1.232 0.211,-1.716 -0.133,-0.818 m -2.671,11.619 c -0.122,0.486 -0.158,0.948 -0.08,1.026 0.079,0.078 0.242,-0.255 0.364,-0.741 0.122,-0.487 0.158,-0.948 0.08,-1.026 -0.078,-0.079 -0.242,0.255 -0.364,0.741 m 33.475,4.454 c -0.127,0.754 -0.162,1.441 -0.077,1.526 0.085,0.085 0.254,-0.467 0.376,-1.227 0.122,-0.76 0.156,-1.447 0.077,-1.526 -0.079,-0.079 -0.248,0.473 -0.376,1.227 m -1.285,6.012 c -0.276,1.382 -0.008,1.65 0.29,0.29 0.126,-0.573 0.16,-1.112 0.076,-1.196 -0.085,-0.085 -0.249,0.323 -0.366,0.906 m 108.251,-0.601 c 0,0.057 0.485,0.542 1.078,1.078 l 1.078,0.974 -0.975,-1.078 c -0.908,-1.005 -1.181,-1.23 -1.181,-0.974 m 10.613,12.5 c 0.39,0.547 0.783,0.995 0.875,0.995 0.091,0 -0.153,-0.448 -0.543,-0.995 -0.39,-0.548 -0.783,-0.995 -0.874,-0.995 -0.092,0 0.153,0.447 0.542,0.995 m -131.343,13.267 c -0.578,0.729 -0.976,1.326 -0.885,1.326 0.091,0 0.639,-0.597 1.217,-1.326 0.578,-0.73 0.976,-1.327 0.885,-1.327 -0.092,0 -0.639,0.597 -1.217,1.327 m 137.429,3.316 c 0,1.551 0.057,2.185 0.127,1.41 0.07,-0.775 0.07,-2.044 0,-2.819 -0.07,-0.776 -0.127,-0.141 -0.127,1.409 m -143.968,9.121 c 0.003,0.913 0.067,1.246 0.143,0.742 0.077,-0.504 0.075,-1.25 -0.004,-1.658 -0.079,-0.408 -0.141,0.004 -0.139,0.916 m 78.465,4.895 c 0.138,0.138 12.108,0.212 26.6,0.165 l 26.35,-0.085 -26.601,-0.165 c -14.63,-0.091 -26.487,-0.053 -26.349,0.085 m -73.419,0.246 c 0.113,0.183 0.42,0.332 0.683,0.332 0.263,0 0.478,-0.149 0.478,-0.332 0,-0.182 -0.307,-0.331 -0.683,-0.331 -0.375,0 -0.59,0.149 -0.478,0.331 m 136.153,5.079 c 0,0.057 0.485,0.542 1.078,1.078 l 1.078,0.974 -0.974,-1.078 c -0.908,-1.004 -1.182,-1.23 -1.182,-0.974 m 2.73,5.535 c 0,0.638 0.069,0.9 0.152,0.58 0.083,-0.319 0.083,-0.841 0,-1.16 -0.083,-0.32 -0.152,-0.058 -0.152,0.58"
       inkscape:connector-curvature="0"
       style="fill:#aa0000;fill-rule:evenodd;stroke:none" />
  </g>
</svg>
