<?xml version="1.0" encoding="UTF-8" standalone="no"?>
<svg
   xmlns:dc="http://purl.org/dc/elements/1.1/"
   xmlns:cc="http://creativecommons.org/ns#"
   xmlns:rdf="http://www.w3.org/1999/02/22-rdf-syntax-ns#"
   xmlns:svg="http://www.w3.org/2000/svg"
   xmlns="http://www.w3.org/2000/svg"
   xmlns:sodipodi="http://sodipodi.sourceforge.net/DTD/sodipodi-0.dtd"
   xmlns:inkscape="http://www.inkscape.org/namespaces/inkscape"
   version="1.2"
   id="Layer_1"
   x="0px"
   y="0px"
   overflow="visible"
   sodipodi:docname="supervision.svg"
   width="256.45465"
   height="34"
   inkscape:version="1.0.1 (3bc2e813f5, 2020-09-07)">
  <metadata
     id="metadata31">
    <rdf:RDF>
      <cc:Work
         rdf:about="">
        <dc:format>image/svg+xml</dc:format>
        <dc:type
           rdf:resource="http://purl.org/dc/dcmitype/StillImage" />
        <dc:title></dc:title>
      </cc:Work>
    </rdf:RDF>
  </metadata>
  <defs
     id="defs29" />
  <sodipodi:namedview
     pagecolor="#ffffff"
     bordercolor="#666666"
     borderopacity="1"
     objecttolerance="10"
     gridtolerance="10"
     guidetolerance="10"
     inkscape:pageopacity="0"
     inkscape:pageshadow="2"
     inkscape:window-width="1920"
     inkscape:window-height="1017"
     id="namedview27"
     showgrid="false"
     fit-margin-top="0"
     fit-margin-left="0"
     fit-margin-right="0"
     fit-margin-bottom="0"
     inkscape:zoom="1.3871078"
     inkscape:cx="190.30555"
     inkscape:cy="57.960536"
     inkscape:window-x="-8"
     inkscape:window-y="-8"
     inkscape:window-maximized="1"
     inkscape:current-layer="Layer_1" />
  <path
     d="m 256.39636,33.531296 c -1.81169,0 -3.62242,0 -5.55069,0 -5.14269,-6.98936 -10.3427,-14.037006 -15.66024,-21.258535 0,7.221529 0,14.21089 0,21.258535 -2.10313,0 -4.08968,0 -6.19377,0 0,-11.008121 0,-21.957957 0,-33.02436388 1.75341,0 3.44756,0 5.31755,0 5.20097,7.10593088 10.45927,14.27014688 15.77681,21.37607788 0.0583,0 0.11657,-0.05828 0.17486,-0.05828 0,-7.105931 0,-14.211862 0,-21.37607802 2.10409,0 4.09064,0 6.19377,0 -0.0583,11.06640702 -0.0583,22.01624302 -0.0583,33.08264902 z"
     style="fill:#aa0000;stroke-width:0.971419"
     id="path2" />
  <path
     d="m 98.164816,0.50693212 c 0.174856,0 0.291426,-0.0582851 0.408968,-0.0582851 3.856536,0 7.713066,-0.0582852 11.569606,0.0582851 4.67446,0.17485545 8.58928,3.96047578 9.17311,8.62037328 0.52553,4.7181826 -2.51209,9.2605386 -7.01171,10.5418406 -0.17485,0.05829 -0.35068,0.11657 -0.58382,0.174855 3.15517,4.543327 6.31034,9.027398 9.52379,13.62901 -2.57134,0 -5.02515,0 -7.53724,0 -3.0386,-4.310186 -6.0772,-8.678658 -9.29065,-13.221014 0,4.542356 0,8.852543 0,13.221014 -2.10409,0 -4.14893,0 -6.193769,0 -0.05828,-11.008121 -0.05828,-21.957957 -0.05828,-32.96607888 z m 6.252054,6.05776968 c 0,2.5043185 0,4.9503522 0,7.4546702 1.63587,0 3.21345,0.11657 4.73275,0 1.92827,-0.173884 3.331,-1.804897 3.27174,-3.66905 0,-1.9797521 -1.34347,-3.5524796 -3.27174,-3.7273351 -1.5193,-0.1748554 -3.09688,-0.058285 -4.73275,-0.058285 z"
     style="fill:#aa0000;stroke-width:0.971419"
     id="path4" />
  <path
     d="m 22.730236,0.44864698 c 2.103122,0 4.089674,0 6.192797,0 0,0.34971088 0,0.64113662 0,0.93256242 0,6.406509 0.05926,12.8713036 0,19.2787836 -0.05829,3.610765 2.687917,6.464794 5.902342,6.930104 3.856534,0.524566 7.537241,-2.620889 7.595526,-6.523079 0,-6.581365 0,-13.1044441 0,-19.6858086 0,-0.2914258 0,-0.58285154 0,-0.93256242 2.104094,0 4.148932,0 6.252054,0 0,0.29142573 0,0.52456629 0,0.69942182 0,6.5813645 -0.05829,13.1627292 0,19.7440932 0.117542,6.63965 -5.200007,11.707544 -10.225158,12.755705 -8.765114,1.805868 -15.776818,-5.125207 -15.776818,-12.114568 0,-6.87279 0,-13.8038657 0,-20.67665599 0.05926,-0.0582852 0.05926,-0.17485544 0.05926,-0.40799603 z"
     style="fill:#aa0000;stroke-width:0.971419"
     id="path6" />
  <path
     d="m 83.556615,13.902802 c 3.856534,0 7.654783,0 11.453032,0 0,2.039009 0,4.077046 0,6.17434 -3.798249,0 -7.596498,0 -11.453032,0 0,2.446033 0,4.833781 0,7.339071 3.798249,0 7.596498,0 11.453032,0 0,2.096323 0,4.077046 0,6.115083 -5.843086,0 -11.745429,0 -17.6468,0 0,-10.949836 0,-21.957957 0,-32.96607873 5.843086,0 11.744457,0 17.6468,0 0,2.03900873 0,4.01876093 0,6.11605483 -3.798249,0 -7.596498,0 -11.453032,0 0,2.3877482 0,4.7172109 0,7.2215299 z"
     style="fill:#aa0000;stroke-width:0.971419"
     id="path8" />
  <path
     d="m 134.45023,21.76644 c 2.51307,-7.105931 5.02516,-14.2118621 7.53725,-21.31779302 2.33723,0 4.55789,0 6.95341,0 -3.85653,11.06640702 -7.65381,22.07452802 -11.45206,33.08264902 -2.10409,0 -4.09064,0 -6.25205,0 C 127.43853,22.58146 123.582,11.573339 119.72546,0.50693212 c 2.33724,0 4.67447,0 7.01171,0 2.51306,7.04764578 5.02515,14.15357688 7.59649,21.25950788 -0.0583,0 0,0 0.11657,0 z"
     style="fill:#aa0000;stroke-width:0.971419"
     id="path10" />
  <path
     d="m 58.490117,20.135427 c 0,4.485042 0,8.910827 0,13.395869 -2.104094,0 -4.090646,0 -6.193769,0 0,-11.008121 0,-22.016242 0,-32.96607873 0.05828,-0.0582852 0.174856,-0.11657029 0.233141,-0.11657029 3.973104,0 7.94718,-0.1165703 11.861999,0.0582851 5.141721,0.23314059 9.05654,4.60161242 9.05654,9.72681992 0,4.951323 -3.564137,9.143968 -8.472717,9.785105 -1.577585,0.23314 -3.213455,0.05828 -4.79104,0.05828 -0.525537,0.05829 -1.052046,0.05829 -1.694154,0.05829 z M 58.664972,6.5647018 c 0,2.5043185 0,4.9503522 0,7.4546702 1.63587,0 3.213454,0.11657 4.732754,0 1.928267,-0.173884 3.330996,-1.804897 3.272711,-3.66905 0,-1.9797521 -1.344444,-3.5524796 -3.272711,-3.7273351 -1.5193,-0.1748554 -3.096884,-0.058285 -4.732754,-0.058285 z"
     style="fill:#aa0000;stroke-width:0.971419"
     id="path12" />
  <path
     d="m 178.85769,3.6523873 c -1.46004,1.6892978 -2.45381,3.0288848 -3.85654,4.485042 -0.17485,-0.2914257 -0.81793,-0.7577069 -0.99279,-0.9908475 -1.16861,-1.4561572 -2.7462,-1.8631818 -4.49961,-1.5717561 -1.75244,0.2904543 -2.86277,1.339587 -3.33002,3.0279134 -0.35069,1.2230167 -0.11755,2.3887199 0.9345,3.2037399 0.81794,0.641137 1.75341,1.164732 2.68792,1.631013 1.28519,0.640165 2.62963,1.164732 3.91482,1.863182 3.79825,2.039009 5.20097,5.649773 4.73275,9.551964 -0.58382,5.067894 -4.96589,8.853514 -10.10859,8.970084 -3.21345,0.05828 -5.95965,-0.874277 -8.18032,-3.20374 -0.0583,-0.05829 -0.11657,-0.174855 -0.17485,-0.233141 0,-0.05829 -0.75965,-0.523595 -0.81794,-0.640165 1.28519,-1.397872 2.33724,-3.145455 3.62242,-4.543327 0.46726,0.524566 1.86999,1.864153 2.39552,2.271178 1.92827,1.397872 4.73276,1.049133 6.19377,-0.756736 1.46102,-1.864153 1.2269,-4.485042 -0.75965,-6.056798 -0.99279,-0.815992 -2.27895,-1.340558 -3.38928,-1.980723 -1.51833,-0.873306 -3.21345,-1.572728 -4.55693,-2.679174 -3.27271,-2.737459 -3.68167,-7.6878112 -1.2269,-11.3578327 3.97311,-5.7080587 12.79651,-6.2316536 17.41172,-0.989876 z"
     style="fill:#aa0000;stroke-width:0.971419"
     id="path14" />
  <path
     d="M 19.457525,3.5941021 C 18.114052,5.0502594 17.296117,6.3898463 15.835103,8.2539996 15.600991,7.9042887 15.017168,7.2631521 14.841341,7.030983 13.731009,5.7487097 11.686172,5.1668297 9.9337319,5.7487097 8.2386055,6.273276 7.2458152,7.4380076 7.0117032,9.1855906 6.8951329,10.175467 7.1282735,11.165343 7.9462084,11.806479 c 0.8771914,0.641137 1.8699818,1.223017 2.8054586,1.747583 1.285187,0.640166 2.62866,1.164732 3.914819,1.863182 3.564137,1.922439 4.907609,5.067894 4.791039,8.970084 -0.11657,5.066922 -4.849324,9.493679 -10.1668726,9.61025 C 6.077198,34.055863 3.3309962,33.065015 1.0520469,30.735552 0.99376176,30.618982 0.05828515,29.978817 0,29.862246 c 1.5192995,-1.805868 2.162379,-2.737459 3.6224219,-4.543327 0.468224,0.524567 1.9865521,1.922439 2.4547761,2.271178 1.8690104,1.397872 4.616184,1.107418 6.134512,-0.640165 1.519299,-1.689298 1.402729,-4.193616 -0.349711,-5.882914 C 11.043093,20.310282 10.050302,19.727431 9.1148256,19.203836 7.9462084,18.562699 6.6610209,18.096418 5.4924037,17.456253 -0.11657029,14.543938 -0.17485544,7.9625739 2.6296316,4.2935239 6.719306,-1.0657954 14.958883,-1.5311052 19.457525,3.5941021 Z"
     style="fill:#aa0000;stroke-width:0.971419"
     id="path16" />
  <path
     d="m 156.7715,33.531296 c -2.04581,0 -4.09064,0 -6.13548,0 0,-11.008121 0,-21.957957 0,-33.02436388 2.04484,0 4.08967,0 6.13548,0 0,11.00812188 0,21.95795788 0,33.02436388 z"
     style="fill:#aa0000;stroke-width:0.971419"
     id="path18" />
  <path
     d="m 182.48108,0.50693212 c 2.04484,0 4.08968,0 6.13548,0 0,11.00812188 0,22.01624288 0,33.02436388 -2.0458,0 -4.09064,0 -6.13548,0 0,-11.066406 0,-22.016242 0,-33.02436388 z"
     style="fill:#aa0000;stroke-width:0.971419"
     id="path20" />
  <polygon
     points="214.376,12.663 201.083,34.547 227.669,34.547 "
     style="fill:#aa0000"
     id="polygon22"
     transform="matrix(0.97141912,0,0,0.97141912,0,-0.02831981)" />
  <path
     d="m 191.18694,18.038133 c 0,0.05829 0,0.11657 0,0.174855 0.0583,0.757707 0.17583,1.572728 0.35068,2.330435 0,0.11657 0.0583,0.173884 0.0583,0.290454 0.0583,0.349711 0.17582,0.641137 0.29239,0.990848 0.0583,0.11657 0.11657,0.290454 0.17486,0.407024 0.0593,0.174856 0.11754,0.349711 0.23411,0.582852 0.0583,0.174855 0.17486,0.349711 0.23411,0.524566 0.0583,0.115599 0.0583,0.173884 0.11657,0.290454 0.17486,0.407996 0.35069,0.757707 0.58383,1.107418 0.0593,0.05731 0.0593,0.173884 0.11754,0.232169 0.29142,0.524567 0.58382,1.049133 0.9345,1.514443 v 0 c 0.2924,0.407996 0.5848,0.757707 0.87622,1.106446 l 3.44757,-5.648802 c -0.87622,-1.572728 -1.34347,-3.320311 -1.34347,-5.126179 0,-0.465309 0.0583,-0.931591 0.11657,-1.397872 0,-0.174855 0.0583,-0.290454 0.0583,-0.46531 0.0583,-0.174855 0.0583,-0.291425 0.11754,-0.466281 0.0583,-0.174855 0.0583,-0.349711 0.11657,-0.524566 0.0583,-0.115599 0.0583,-0.290454 0.11658,-0.407025 1.46101,-4.3101863 5.66823,-7.5139265 10.40098,-7.5139265 5.90137,0 10.92652,5.0678935 10.92652,11.0081215 0,0.466281 -0.0583,0.931591 -0.11657,1.397872 0,0.174855 -0.0583,0.291426 -0.0583,0.466281 -0.0593,0.174856 -0.0593,0.291426 -0.11755,0.46531 -0.0583,0.174855 -0.0583,0.349711 -0.11657,0.524566 -0.0583,0.116571 -0.0583,0.291426 -0.11657,0.407996 -0.17582,0.58188 -0.46822,1.106447 -0.75965,1.689298 l 3.44757,5.648802 c 0.29143,-0.348739 0.58382,-0.756735 0.87622,-1.106446 v 0 c 1.28519,-1.804897 2.27895,-3.902191 2.7462,-6.056798 0.0583,-0.174856 0.0583,-0.349711 0.11657,-0.524567 0,-0.11657 0.0583,-0.291425 0.0583,-0.407996 0.0592,-0.348739 0.11754,-0.69845 0.11754,-1.048161 0,-0.05829 0,-0.174855 0,-0.23314 0.0583,-0.34874 0.0583,-0.756736 0.0583,-1.106447 0,0 0,0 0,0 0,0 0,0 0,0 0,-0.407996 0,-0.81502 -0.0583,-1.164731 0,-0.05828 0,-0.116571 0,-0.174856 -0.0583,-0.756735 -0.17583,-1.572727 -0.35068,-2.329463 0,-0.11657 -0.0583,-0.174855 -0.0583,-0.291426 -0.0593,-0.34971 -0.17582,-0.641136 -0.29239,-0.989876 -0.0583,-0.11657 -0.11657,-0.291425 -0.17583,-0.407996 -0.0583,-0.174855 -0.11657,-0.349711 -0.23314,-0.582851 -0.0583,-0.173884 -0.17583,-0.34874 -0.23411,-0.523595 -0.0583,-0.11657 -0.0583,-0.174855 -0.11657,-0.291426 -0.17583,-0.407996 -0.35069,-0.7567353 -0.5848,-1.1064462 -0.0583,-0.058285 -0.0583,-0.1748554 -0.11657,-0.2331405 -0.2924,-0.5245664 -0.58382,-1.0481613 -0.9345,-1.5144424 v 0 C 218.88307,3.0695358 213.68306,-0.01666278 208.19066,0.09990751 202.46414,-0.01666278 197.38071,3.1861061 194.28382,7.5545779 v 0 c -1.28518,1.8058681 -2.27895,3.9021901 -2.7462,6.0577691 -0.0583,0.174856 -0.0583,0.34874 -0.11657,0.523595 0,0.116571 -0.0583,0.291426 -0.0583,0.407996 -0.0593,0.349711 -0.11755,0.698451 -0.11755,1.048162 0,0.05829 0,0.174855 0,0.23314 -0.0583,0.349711 -0.0583,0.756736 -0.0583,1.106447 0,0 0,0 0,0 0,0 0,0 0,0 -0.0583,0.34971 -0.0583,0.757707 0,1.106446 z"
     style="fill:#aa0000;stroke-width:0.971419"
     id="path24" />
</svg>
