<?xml version="1.0" encoding="UTF-8" standalone="no"?>
<svg
   xmlns:dc="http://purl.org/dc/elements/1.1/"
   xmlns:cc="http://creativecommons.org/ns#"
   xmlns:rdf="http://www.w3.org/1999/02/22-rdf-syntax-ns#"
   xmlns:svg="http://www.w3.org/2000/svg"
   xmlns="http://www.w3.org/2000/svg"
   xmlns:sodipodi="http://sodipodi.sourceforge.net/DTD/sodipodi-0.dtd"
   xmlns:inkscape="http://www.inkscape.org/namespaces/inkscape"
   version="1.0"
   width="180.25648"
   height="34"
   viewBox="0 0 135.19236 25.5"
   preserveAspectRatio="xMidYMid meet"
   id="svg18"
   sodipodi:docname="tools.svg"
   inkscape:version="0.92.5 (2060ec1f9f, 2020-04-08)">
  <metadata
     id="metadata24">
    <rdf:RDF>
      <cc:Work
         rdf:about="">
        <dc:format>image/svg+xml</dc:format>
        <dc:type
           rdf:resource="http://purl.org/dc/dcmitype/StillImage" />
        <dc:title></dc:title>
      </cc:Work>
    </rdf:RDF>
  </metadata>
  <defs
     id="defs22" />
  <sodipodi:namedview
     pagecolor="#ffffff"
     bordercolor="#666666"
     borderopacity="1"
     objecttolerance="10"
     gridtolerance="10"
     guidetolerance="10"
     inkscape:pageopacity="0"
     inkscape:pageshadow="2"
     inkscape:window-width="1440"
     inkscape:window-height="837"
     id="namedview20"
     showgrid="false"
     inkscape:zoom="1.5107914"
     inkscape:cx="6.9212955"
     inkscape:cy="-56.392816"
     inkscape:window-x="0"
     inkscape:window-y="0"
     inkscape:window-maximized="1"
     inkscape:current-layer="svg18"
     units="px"
     fit-margin-top="0"
     fit-margin-left="0"
     fit-margin-right="0"
     fit-margin-bottom="0" />
  <g
     id="g1702"
     transform="matrix(1.074714,0,0,1.074714,-3.1040584,-5.0508967)">
    <g
       transform="matrix(1.2074933,0,0,1.2074933,-15.030582,-12.692459)"
       id="text1604"
       style="font-style:italic;font-variant:normal;font-weight:normal;font-stretch:normal;font-size:30px;line-height:1.25;font-family:'Changa One';-inkscape-font-specification:'Changa One Italic';letter-spacing:0px;word-spacing:0px;fill:#aa0000;fill-opacity:1;stroke:none;stroke-width:0.75"
       aria-label="TOOLS">
      <path
         inkscape:connector-curvature="0"
         id="path1606"
         style="fill:#aa0000;stroke-width:0.75"
         d="m 51.757499,19.653573 h -4.14 l -2.43,13.95 h -5.7 l 2.43,-13.95 h -4.11 l 0.87,-4.8 h 13.95 z" />
      <path
         inkscape:connector-curvature="0"
         id="path1608"
         style="fill:#aa0000;stroke-width:0.75"
         d="m 59.197442,21.123573 -1.38,7.8 h 2.37 q 1.17,0 1.74,-0.27 0.57,-0.3 0.75,-1.32 l 1.38,-7.8 h -2.4 q -1.14,0 -1.71,0.3 -0.57,0.27 -0.75,1.29 z m 3.45,-6.72 q 3.81,0 5.43,1.5 1.62,1.47 1.62,4.56 0,3.09 -0.99,6.48 -0.96,3.36 -3.09,5.25 -2.1,1.86 -6.18,1.86 -4.05,0 -5.67,-1.47 -1.62,-1.5 -1.62,-4.59 0,-1.47 0.42,-3.87 0.42,-2.43 1.11,-4.17 0.69,-1.77 1.86,-3.06 2.25,-2.49 7.11,-2.49 z" />
      <path
         inkscape:connector-curvature="0"
         id="path1610"
         style="fill:#aa0000;stroke-width:0.75"
         d="m 78.097417,21.123573 -1.38,7.8 h 2.37 q 1.17,0 1.74,-0.27 0.57,-0.3 0.75,-1.32 l 1.38,-7.8 h -2.4 q -1.14,0 -1.71,0.3 -0.57,0.27 -0.75,1.29 z m 3.45,-6.72 q 3.81,0 5.43,1.5 1.62,1.47 1.62,4.56 0,3.09 -0.99,6.48 -0.96,3.36 -3.09,5.25 -2.1,1.86 -6.18,1.86 -4.05,0 -5.67,-1.47 -1.62,-1.5 -1.62,-4.59 0,-1.47 0.42,-3.87 0.42,-2.43 1.11,-4.17 0.69,-1.77 1.86,-3.06 2.25,-2.49 7.11,-2.49 z" />
      <path
         inkscape:connector-curvature="0"
         id="path1612"
         style="fill:#aa0000;stroke-width:0.75"
         d="M 100.92739,33.603573 H 89.527392 l 3.3,-18.75 h 5.7 l -2.46,13.95 h 5.699998 z" />
      <path
         inkscape:connector-curvature="0"
         id="path1614"
         style="fill:#aa0000;stroke-width:0.75"
         d="m 101.76735,33.273573 1.68,-4.95 q 2.52,0.69 4.62,0.69 2.1,0 3.39,-0.18 l 0.24,-1.5 -2.49,-0.24 q -2.85,-0.27 -4.05,-1.29 -1.17,-1.02 -1.17,-2.88 0,-0.81 0.18,-1.8 0.69,-3.84 2.49,-5.28 1.83,-1.44 5.64,-1.44 3.81,0 6.72,0.75 l -1.56,4.8 q -2.61,-0.45 -4.2,-0.45 -1.59,0 -2.7,0.15 l -0.24,1.47 2.01,0.21 q 3.06,0.33 4.35,1.47 1.29,1.11 1.29,3 0,1.92 -0.84,3.96 -0.42,1.05 -0.93,1.77 -0.48,0.69 -1.26,1.2 -0.75,0.48 -1.38,0.75 -0.63,0.24 -1.59,0.36 -1.41,0.21 -3.45,0.21 -3.72,0 -6.75,-0.78 z" />
    </g>
    <path
       inkscape:connector-curvature="0"
       id="path2"
       style="fill:#aa0000;stroke-width:0.40564007"
       d="M 26.023138,17.638917 V 14.868801 L 23.505331,13.94597 C 23.28588,13.098994 22.993008,12.302316 22.557756,11.566891 l 0.02556,-0.0032 1.196638,-2.4918468 -1.955591,-1.9576187 -2.493063,1.186497 -0.0025,0.0033 c -0.735779,-0.434866 -1.53408,-0.70989 -2.380649,-0.929341 l -0.924454,-2.538901 h -2.77539 l -0.923642,2.538901 c -0.849005,0.219451 -1.647711,0.524898 -2.3827292,0.959339 l -0.00528,-0.01947 -2.4950924,-1.194204 -1.9616751,1.9551849 1.188525,2.4898196 0.00326,0.0032 c -0.435661,0.733807 -0.8668568,1.532107 -1.0859016,2.379083 l -2.6975071,0.921209 v 2.770116 l 2.6975071,0.923235 c 0.2190448,0.845761 0.6044024,1.644871 1.0388435,2.378269 l 0.019469,0.0032 -1.174734,2.491847 1.9669488,1.959241 2.4995545,-1.185686 0.00448,-0.0028 c 0.7350195,0.433224 1.5353475,0.839269 2.3823245,1.057504 l 0.925671,2.669111 h 2.775389 l 0.924454,-2.669111 c 0.848193,-0.218235 1.646899,-0.589801 2.381512,-1.024646 l 0.0053,-0.01217 2.495902,1.175545 1.960459,-1.962486 -1.187714,-2.494282 -0.0028,-0.0037 c 0.435253,-0.73502 0.685127,-1.534131 0.904579,-2.379891 z m -11.387532,3.231735 c -2.553503,0 -4.625513,-2.066736 -4.625513,-4.616184 0,-2.549042 2.07201,-4.616995 4.625513,-4.616995 2.555533,0 4.625514,2.067953 4.625514,4.616995 0,2.549448 -2.069981,4.616184 -4.625514,4.616184 z" />
  </g>
</svg>
