<?xml version="1.0" encoding="UTF-8" standalone="no"?>
<svg
   xmlns:dc="http://purl.org/dc/elements/1.1/"
   xmlns:cc="http://creativecommons.org/ns#"
   xmlns:rdf="http://www.w3.org/1999/02/22-rdf-syntax-ns#"
   xmlns:svg="http://www.w3.org/2000/svg"
   xmlns="http://www.w3.org/2000/svg"
   xmlns:sodipodi="http://sodipodi.sourceforge.net/DTD/sodipodi-0.dtd"
   xmlns:inkscape="http://www.inkscape.org/namespaces/inkscape"
   version="1.1"
   id="svg30"
   sodipodi:docname="zx81.svg"
   inkscape:version="0.92.5 (2060ec1f9f, 2020-04-08)"
   width="109.46324"
   height="34">
  <metadata
     id="metadata36">
    <rdf:RDF>
      <cc:Work
         rdf:about="">
        <dc:format>image/svg+xml</dc:format>
        <dc:type
           rdf:resource="http://purl.org/dc/dcmitype/StillImage" />
        <dc:title></dc:title>
      </cc:Work>
    </rdf:RDF>
  </metadata>
  <defs
     id="defs34" />
  <sodipodi:namedview
     pagecolor="#ffffff"
     bordercolor="#666666"
     borderopacity="1"
     objecttolerance="10"
     gridtolerance="10"
     guidetolerance="10"
     inkscape:pageopacity="0"
     inkscape:pageshadow="2"
     inkscape:window-width="1440"
     inkscape:window-height="837"
     id="namedview32"
     showgrid="false"
     inkscape:zoom="1.3871078"
     inkscape:cx="109.33873"
     inkscape:cy="-17.866353"
     inkscape:window-x="0"
     inkscape:window-y="0"
     inkscape:window-maximized="1"
     inkscape:current-layer="svg30"
     fit-margin-top="0"
     fit-margin-left="0"
     fit-margin-right="0"
     fit-margin-bottom="0" />
  <path
     d="m 19.669384,1.494754 v 1.495168 h 1.816924 1.817339 V 1.494754 0 h -1.817339 -1.816924 z"
     style="fill:#aa0000;stroke-width:0.41463351"
     id="path2"
     inkscape:connector-curvature="0" />
  <path
     d="m 86.801036,1.494754 v 1.495168 h 1.817338 1.816924 V 1.494754 0 h -1.816924 -1.817338 z"
     style="fill:#aa0000;stroke-width:0.41463351"
     id="path4"
     inkscape:connector-curvature="0" />
  <path
     d="m 63.069487,7.79511 v 7.581573 h 1.817339 1.817338 V 7.79511 0.213536 h -1.817338 -1.817339 z"
     style="fill:#aa0000;stroke-width:0.41463351"
     id="path6"
     inkscape:connector-curvature="0" />
  <path
     d="m 0,7.261062 v 3.630945 l 7.547159,0.04271 c 7.354354,0.06385 7.525598,0.06385 7.525598,0.490926 0,0.427073 -0.171244,0.427073 -7.525598,0.491341 L 0,11.959688 v 1.60173 1.601729 H 9.4072049 18.813995 V 11.532616 7.902085 H 11.331104 3.8482135 V 7.368037 6.833989 h 7.4828905 7.482891 V 5.23226 3.630945 H 9.4072049 0 Z"
     style="fill:#aa0000;stroke-width:0.41463351"
     id="path8"
     inkscape:connector-curvature="0" />
  <path
     d="m 19.669384,9.396839 v 5.766308 h 1.816924 1.817339 V 9.396839 3.630945 h -1.817339 -1.816924 z"
     style="fill:#aa0000;stroke-width:0.41463351"
     id="path10"
     inkscape:connector-curvature="0" />
  <path
     d="m 24.159036,9.396839 v 5.766308 h 1.923899 1.924314 V 10.998568 6.833989 h 5.558577 5.558576 v 4.164579 4.164579 h 1.924315 1.924314 V 9.396839 3.630945 h -9.407205 -9.40679 z"
     style="fill:#aa0000;stroke-width:0.41463351"
     id="path12"
     inkscape:connector-curvature="0" />
  <path
     d="m 43.614469,9.396839 v 5.766308 h 9.299814 9.30023 v -1.601729 -1.60173 H 54.731622 47.248731 V 9.396839 6.833989 h 7.482891 7.482891 V 5.23226 3.630945 h -9.30023 -9.299814 z"
     style="fill:#aa0000;stroke-width:0.41463351"
     id="path14"
     inkscape:connector-curvature="0" />
  <path
     d="m 67.559553,5.23226 v 1.601729 l 7.332794,0.04271 c 7.140818,0.06427 7.312062,0.06427 7.312062,0.491341 0,0.427073 -0.171244,0.427073 -7.312062,0.491341 l -7.332794,0.04271 v 3.630531 3.630531 h 9.299815 9.300229 V 9.396845 3.630951 h -9.300229 -9.299815 z m 14.644856,6.19338 c 0,0.405927 -0.171244,0.427073 -5.494724,0.491341 -5.238065,0.04271 -5.515869,0.02115 -5.515869,-0.341658 0,-0.213536 0.06427,-0.470194 0.149683,-0.555609 0.08541,-0.06344 2.544191,-0.106561 5.494723,-0.085 5.194943,0.06385 5.366187,0.085 5.366187,0.490926 z"
     style="fill:#aa0000;stroke-width:0.41463351"
     id="path16"
     inkscape:connector-curvature="0" />
  <path
     d="m 86.801036,9.396839 v 5.766308 h 1.817338 1.816924 V 9.396839 3.630945 h -1.816924 -1.817338 z"
     style="fill:#aa0000;stroke-width:0.41463351"
     id="path18"
     inkscape:connector-curvature="0" />
  <path
     d="m 91.076736,9.396839 v 5.766308 h 1.924314 1.924314 l 0.04271,-4.121872 0.06385,-4.10031 7.226236,-0.06427 7.20508,-0.04271 V 5.232256 3.630941 h -9.19325 -9.193255 z"
     style="fill:#aa0000;stroke-width:0.41463351"
     id="path20"
     inkscape:connector-curvature="0" />
  <path
     d="m 32.924388,19.22075 v 1.281632 h 3.634677 c 2.009729,0 3.634677,0.06427 3.634677,0.149268 0,0.106976 -1.838899,2.413167 -4.062164,5.146846 l -4.062165,4.976431 v 1.494754 1.474022 h 6.413966 6.413551 v -1.281632 -1.281632 l -4.489651,-0.04271 -4.511213,-0.06427 4.404237,-5.40309 4.404237,-5.381942 -0.06385,-1.131535 -0.06427,-1.110803 -5.815234,-0.06385 -5.836796,-0.04271 z"
     style="fill:#aa0000;stroke-width:0.41463351"
     id="path22"
     inkscape:connector-curvature="0" />
  <path
     d="m 46.158245,18.345044 c 0.128537,0.235098 1.197462,1.901095 2.373362,3.694799 1.197047,1.79412 2.116704,3.416995 2.073582,3.588239 -0.04271,0.170414 -1.197046,2.028387 -2.565337,4.121871 -1.389852,2.092656 -2.501484,3.844068 -2.501484,3.886775 0,0.06427 0.833828,0.106975 1.881607,0.106975 h 1.860046 l 1.75307,-2.712532 1.73151,-2.712118 1.75307,2.712118 1.753485,2.712532 h 1.9239 c 1.475266,0 1.860046,-0.06427 1.75307,-0.256658 -0.08541,-0.149268 -1.304022,-1.986094 -2.693874,-4.057603 l -2.52263,-3.779799 2.458777,-3.802189 2.437215,-3.80136 -1.624948,-0.06385 c -0.898096,-0.04271 -1.753071,-0.02156 -1.881192,0.04271 -0.149683,0.04271 -0.919658,1.153096 -1.710364,2.455874 -0.79112,1.303194 -1.496827,2.370875 -1.582241,2.370875 -0.06427,0 -0.812267,-1.089242 -1.624949,-2.413582 l -1.496412,-2.39202 -1.881607,-0.06385 c -1.816924,-0.06385 -1.881192,-0.04271 -1.667656,0.362804 z"
     style="fill:#aa0000;stroke-width:0.41463351"
     id="path24"
     inkscape:connector-curvature="0" />
  <path
     d="m 63.689779,18.537434 c -2.458777,1.281632 -2.865118,4.46353 -0.769975,6.129527 l 0.748414,0.597902 -0.662584,0.448219 c -2.03129,1.367046 -2.437216,4.442383 -0.855389,6.513892 0.812681,1.068096 2.565752,1.794119 4.318822,1.772558 1.795778,0 3.035947,-0.490926 3.955189,-1.559022 1.646095,-1.921826 1.603388,-4.719773 -0.08541,-6.257234 -0.470609,-0.427487 -0.962365,-0.769145 -1.112047,-0.769145 -0.128122,0 0.149682,-0.362804 0.620291,-0.811438 0.983511,-0.896852 1.432144,-2.114216 1.218608,-3.267312 -0.427487,-2.242338 -2.031289,-3.395848 -4.76787,-3.395848 -1.197047,0 -1.688803,0.106561 -2.608045,0.597901 z m 3.976335,2.285045 c 0.363634,0.341659 0.534463,0.747585 0.534463,1.260486 0,1.024974 -0.170829,1.387779 -0.876536,1.729437 -0.854974,0.448633 -1.581826,0.384365 -2.265972,-0.191976 -0.470609,-0.405926 -0.59873,-0.683316 -0.59873,-1.409754 0,-0.726023 0.128121,-1.003413 0.59873,-1.409339 0.812267,-0.683316 1.9239,-0.683316 2.608045,0.02115 z m -0.320512,5.980259 c 1.475266,0.768731 1.710364,3.075337 0.449048,4.207287 -2.052435,1.836411 -4.703602,-0.982682 -3.228336,-3.41741 0.662584,-1.067681 1.667656,-1.366632 2.779288,-0.789877 z"
     style="fill:#aa0000;stroke-width:0.41463351"
     id="path26"
     inkscape:connector-curvature="0" />
  <path
     d="m 74.187055,25.841618 v 7.902085 h 1.603388 1.603388 v -7.902085 -7.902085 h -1.603388 -1.603388 z"
     style="fill:#aa0000;stroke-width:0.41463351"
     id="path28"
     inkscape:connector-curvature="0" />
</svg>
