<?xml version="1.0" encoding="UTF-8" standalone="no"?>
<svg
   xmlns:dc="http://purl.org/dc/elements/1.1/"
   xmlns:cc="http://creativecommons.org/ns#"
   xmlns:rdf="http://www.w3.org/1999/02/22-rdf-syntax-ns#"
   xmlns:svg="http://www.w3.org/2000/svg"
   xmlns="http://www.w3.org/2000/svg"
   xmlns:sodipodi="http://sodipodi.sourceforge.net/DTD/sodipodi-0.dtd"
   xmlns:inkscape="http://www.inkscape.org/namespaces/inkscape"
   version="1.0"
   width="64pt"
   height="64pt"
   viewBox="0 0 64 64"
   preserveAspectRatio="xMidYMid meet"
   id="svg14"
   sodipodi:docname="network.svg"
   inkscape:version="0.92.5 (2060ec1f9f, 2020-04-08)">
  <defs
     id="defs18" />
  <sodipodi:namedview
     pagecolor="#ffffff"
     bordercolor="#666666"
     borderopacity="1"
     objecttolerance="10"
     gridtolerance="10"
     guidetolerance="10"
     inkscape:pageopacity="0"
     inkscape:pageshadow="2"
     inkscape:window-width="1440"
     inkscape:window-height="838"
     id="namedview16"
     showgrid="false"
     inkscape:zoom="3.0649351"
     inkscape:cx="41.054779"
     inkscape:cy="10.182687"
     inkscape:current-layer="svg14"
     inkscape:window-x="0"
     inkscape:window-y="0"
     inkscape:window-maximized="1" />
  <metadata
     id="metadata2">
Created by potrace 1.15, written by Peter Selinger 2001-2017
<rdf:RDF>
  <cc:Work
     rdf:about="">
    <dc:format>image/svg+xml</dc:format>
    <dc:type
       rdf:resource="http://purl.org/dc/dcmitype/StillImage" />
    <dc:title />
  </cc:Work>
</rdf:RDF>
</metadata>
  <path
     style="fill:#005500;stroke:none;stroke-width:0.00404512"
     inkscape:connector-curvature="0"
     id="path4"
     d="m 30.566693,12.843374 c -7.204874,0.469595 -13.984989,3.732255 -20.7370535,9.979903 -0.3646516,0.338925 -1.1740979,1.13111 -1.7992148,1.759958 l -1.1340263,1.147444 2.1157805,2.066216 2.1197881,2.066215 1.081933,-1.090275 c 0.597067,-0.596181 1.342398,-1.327115 1.662971,-1.621122 7.489382,-6.88058 14.834506,-9.481725 22.42006,-7.934105 5.441724,1.10661 11.208027,4.467273 16.886173,9.836983 0.296529,0.281757 0.633131,0.596181 0.749338,0.706434 l 0.208373,0.191921 1.795207,-1.906962 c 0.989769,-1.053525 1.903401,-2.021298 2.031631,-2.160134 l 0.228408,-0.24909 -0.693239,-0.653349 C 49.640774,17.539319 42.171428,13.63556 34.39353,12.904626 c -0.777389,-0.0735 -3.077499,-0.110253 -3.826837,-0.06125 z" />
  <path
     style="fill:#00aa00;stroke:none;stroke-width:0.00404512"
     inkscape:connector-curvature="0"
     id="path6"
     d="m 30.726979,23.52971 c -1.951487,0.159254 -3.418108,0.465511 -5.209308,1.090276 -3.686587,1.27403 -7.264981,3.671004 -10.855397,7.256255 -0.500895,0.498179 -0.905618,0.918772 -0.905618,0.935106 0,0.02042 0.797425,0.812602 1.771165,1.759958 0.977747,0.951439 1.923437,1.874294 2.103759,2.053965 l 0.328587,0.322591 0.757353,-0.751351 c 1.202148,-1.200528 2.075709,-1.97638 3.193707,-2.8339 2.572597,-1.980464 5.12115,-3.201409 7.673711,-3.671004 0.925654,-0.16742 1.370449,-0.208255 2.444368,-0.208255 1.069912,0.0041 1.474635,0.03675 2.444368,0.208255 3.750701,0.665599 7.68974,2.931903 11.773036,6.770327 0.340608,0.314424 0.625117,0.57168 0.633131,0.567597 0.0561,-0.03675 4.023189,-4.267184 4.023189,-4.295768 0,-0.06533 -1.578822,-1.519036 -2.444368,-2.254054 -3.874924,-3.283077 -7.68974,-5.390127 -11.540621,-6.366067 -1.126012,-0.28584 -2.199931,-0.465511 -3.426122,-0.57168 -0.432773,-0.03675 -2.368231,-0.04492 -2.76494,-0.01225 z" />
  <path
     style="fill:#00ff00;stroke:none;stroke-width:0.00404512"
     inkscape:connector-curvature="0"
     id="path8"
     d="m 31.087623,33.979208 c -2.688804,0.216422 -5.357573,1.372032 -7.793926,3.376996 -0.797425,0.657433 -2.183902,1.984547 -2.159859,2.066216 0.008,0.02042 0.957711,0.959606 2.111773,2.082549 l 2.091738,2.041715 0.412737,-0.412426 c 2.30011,-2.303055 4.532098,-3.36883 6.667914,-3.176909 1.306335,0.11842 2.536533,0.588014 3.939039,1.502703 0.721288,0.469594 1.751129,1.302614 2.376246,1.923295 l 0.272486,0.269506 0.228409,-0.245005 c 0.128229,-0.134754 1.033847,-1.098443 2.011594,-2.139718 0.981754,-1.041274 1.787193,-1.911045 1.7912,-1.939629 0.004,-0.0245 -0.19635,-0.232755 -0.440787,-0.461428 -3.049449,-2.825733 -5.990704,-4.377436 -9.108275,-4.81028 -0.456816,-0.06533 -1.963508,-0.110253 -2.400289,-0.07758 z" />
  <path
     style="fill:#80ff80;stroke:none;stroke-width:0.00404512"
     inkscape:connector-curvature="0"
     id="path10"
     d="m 31.408196,43.759023 c -1.198141,0.175587 -2.264045,0.963689 -2.760933,2.041715 -0.220394,0.473678 -0.280501,0.763601 -0.280501,1.323031 0,0.55943 0.06011,0.849353 0.280501,1.323031 0.617103,1.331198 2.019608,2.151968 3.542329,2.070299 1.418535,-0.0735 2.612669,-0.84527 3.169664,-2.049882 0.216386,-0.461427 0.288515,-0.804435 0.288515,-1.343448 0,-0.555347 -0.07614,-0.898355 -0.312558,-1.388366 -0.669196,-1.4047 -2.284081,-2.217303 -3.927017,-1.97638 z" />
</svg>
