<?xml version="1.0" encoding="UTF-8" standalone="no"?>
<svg
   xmlns:dc="http://purl.org/dc/elements/1.1/"
   xmlns:cc="http://creativecommons.org/ns#"
   xmlns:rdf="http://www.w3.org/1999/02/22-rdf-syntax-ns#"
   xmlns:svg="http://www.w3.org/2000/svg"
   xmlns="http://www.w3.org/2000/svg"
   xmlns:sodipodi="http://sodipodi.sourceforge.net/DTD/sodipodi-0.dtd"
   xmlns:inkscape="http://www.inkscape.org/namespaces/inkscape"
   viewBox="0 0 16 16"
   version="1.1"
   id="svg4"
   sodipodi:docname="25.svg"
   inkscape:version="0.92.5 (2060ec1f9f, 2020-04-08)">
  <metadata
     id="metadata10">
    <rdf:RDF>
      <cc:Work
         rdf:about="">
        <dc:format>image/svg+xml</dc:format>
        <dc:type
           rdf:resource="http://purl.org/dc/dcmitype/StillImage" />
      </cc:Work>
    </rdf:RDF>
  </metadata>
  <defs
     id="defs8" />
  <sodipodi:namedview
     pagecolor="#ffffff"
     bordercolor="#666666"
     borderopacity="1"
     objecttolerance="10"
     gridtolerance="10"
     guidetolerance="10"
     inkscape:pageopacity="0"
     inkscape:pageshadow="2"
     inkscape:window-width="1440"
     inkscape:window-height="837"
     id="namedview6"
     showgrid="false"
     inkscape:zoom="14.75"
     inkscape:cx="-1.6271186"
     inkscape:cy="2.5762712"
     inkscape:window-x="0"
     inkscape:window-y="0"
     inkscape:window-maximized="1"
     inkscape:current-layer="svg4"
     inkscape:document-rotation="0" />
  <path
     style="line-height:normal;text-indent:0;text-align:start;text-decoration:none;text-decoration-line:none;text-decoration-style:solid;text-decoration-color:#000000;text-transform:none;isolation:auto;mix-blend-mode:normal;fill:#aa0000"
     d="m 1.520094,3.8644068 c -0.87055551,0 -1.58789061,0.7173351 -1.58789061,1.5878906 v 4.8242186 c 0,0.870556 0.71733509,1.587891 1.58789061,1.587891 h 10.824218 c 0.870556,0 1.587891,-0.717335 1.587891,-1.587891 V 9.8644068 h 1 c 0.546531,0 1,-0.4534686 1,-1 v -2 c 0,-0.5465314 -0.453469,-1 -1,-1 h -1 V 5.4522974 c 0,-0.8705555 -0.717335,-1.5878906 -1.587891,-1.5878906 z m 0,1 h 10.824218 c 0.329445,0 0.587891,0.2584462 0.587891,0.5878906 v 4.8242186 c 0,0.329445 -0.258446,0.587891 -0.587891,0.587891 H 1.520094 c -0.3294444,0 -0.58789061,-0.258446 -0.58789061,-0.587891 V 5.4522974 c 0,-0.3294444 0.25844621,-0.5878906 0.58789061,-0.5878906 z m 0.4121094,1 v 4 h 2 v -4 z m 11.9999996,1 h 1 v 2 h -1 z"
     font-weight="400"
     font-family="sans-serif"
     white-space="normal"
     overflow="visible"
     id="path2" />
</svg>
